<svg width="48" height="49" viewBox="0 0 48 49" fill="none" xmlns="http://www.w3.org/2000/svg">
<path d="M29.2829 5.9387C29.5647 6.18601 29.8304 6.44597 30.0937 6.71287C30.1873 6.80659 30.1873 6.80659 30.2827 6.9022C31.9741 8.71176 32.3625 10.9892 32.4375 13.3691C32.6788 13.4999 32.9209 13.6284 33.164 13.7558C33.2324 13.7932 33.3008 13.8305 33.3713 13.869C33.4378 13.9034 33.5042 13.9379 33.5727 13.9734C33.6336 14.0058 33.6945 14.0382 33.7572 14.0716C33.9401 14.1392 33.9401 14.1392 34.1178 14.0453C34.3114 13.9322 34.4489 13.8183 34.6067 13.6599C34.6903 13.5767 34.6903 13.5767 34.7756 13.4918C34.8356 13.4311 34.8956 13.3704 34.9575 13.3079C35.0536 13.2119 35.0536 13.2119 35.1516 13.1139C35.3631 12.9023 35.5738 12.69 35.7846 12.4778C35.9312 12.3309 36.0778 12.184 36.2244 12.0372C36.6101 11.6507 36.9953 11.2637 37.3803 10.8766C37.7734 10.4816 38.167 10.0872 38.5605 9.69273C39.3325 8.91871 40.1039 8.1441 40.875 7.36912C40.8185 7.36899 40.762 7.36885 40.7037 7.36871C40.1151 7.36687 39.5266 7.36178 38.9381 7.35481C38.7185 7.35264 38.4989 7.35129 38.2792 7.35079C37.9634 7.34992 37.6477 7.34607 37.3319 7.34165C37.1848 7.34221 37.1848 7.34221 37.0347 7.34277C36.3535 7.32912 36.3534 7.32912 35.9848 7.0548C35.8125 6.80662 35.8125 6.80662 35.7539 6.51951C35.8125 6.24412 35.8125 6.24412 36.01 6.04244C36.3424 5.83 36.5369 5.82162 36.9294 5.8206C36.9927 5.81994 37.0561 5.81928 37.1213 5.8186C37.3296 5.81696 37.5378 5.81804 37.7461 5.81931C37.8914 5.81906 38.0367 5.8187 38.1821 5.81823C38.4863 5.81767 38.7904 5.81848 39.0946 5.82023C39.484 5.82237 39.8732 5.82114 40.2626 5.81889C40.5626 5.81753 40.8626 5.81797 41.1626 5.81894C41.3061 5.81919 41.4496 5.81888 41.5931 5.81801C41.794 5.81705 41.9947 5.81851 42.1955 5.8206C42.3097 5.82089 42.4238 5.82119 42.5414 5.8215C42.9125 5.87995 43.0653 5.96111 43.3125 6.24412C43.3707 6.54714 43.3707 6.54714 43.3701 6.91046C43.3707 6.97682 43.3712 7.04317 43.3717 7.11154C43.3728 7.3304 43.3706 7.54907 43.3681 7.76792C43.368 7.92015 43.368 8.07238 43.3681 8.22461C43.368 8.54341 43.3662 8.86214 43.3633 9.18092C43.3596 9.58972 43.3592 9.99844 43.3599 10.4073C43.3601 10.7215 43.359 11.0357 43.3574 11.3499C43.3568 11.5007 43.3565 11.6514 43.3565 11.8022C43.3564 12.0127 43.3544 12.2231 43.3518 12.4337C43.351 12.5535 43.3503 12.6733 43.3494 12.7968C43.3125 13.0879 43.3125 13.0879 43.1807 13.267C42.9942 13.3944 42.8809 13.4068 42.6562 13.4043C42.5605 13.4054 42.5605 13.4054 42.4629 13.4065C42.2231 13.3572 42.1506 13.2796 42 13.0879C41.9626 12.8725 41.9626 12.8725 41.9594 12.617C41.9576 12.52 41.9557 12.423 41.9538 12.323C41.9529 12.1703 41.9529 12.1703 41.952 12.0145C41.9504 11.9208 41.9489 11.8271 41.9473 11.7305C41.9418 11.3803 41.9388 11.03 41.9355 10.6797C41.9258 9.89656 41.9162 9.11345 41.9062 8.30662C39.7715 10.4413 37.6368 12.576 35.4375 14.7754C35.6368 14.9747 35.795 15.0549 36.049 15.1738C36.1362 15.2149 36.2234 15.2561 36.3131 15.2985C36.407 15.3424 36.5009 15.3863 36.5976 15.4316C36.7934 15.5245 36.989 15.6176 37.1847 15.7107C37.2839 15.7578 37.3832 15.805 37.4855 15.8536C37.6319 15.9231 37.6319 15.9231 37.7812 15.9941C37.8734 16.0378 37.9655 16.0816 38.0605 16.1266C38.3176 16.2492 38.5739 16.3734 38.83 16.498C38.9079 16.5348 38.9857 16.5715 39.0658 16.6094C39.1744 16.6626 39.1744 16.6626 39.2852 16.717C39.3481 16.7473 39.411 16.7775 39.4757 16.8087C39.7228 16.977 39.8635 17.1523 40.0312 17.4004C40.0781 17.687 40.0782 17.687 40.0782 18.0134C40.0787 18.0737 40.0792 18.134 40.0798 18.1961C40.0811 18.3974 40.0797 18.5986 40.0783 18.7999C40.0786 18.9446 40.0791 19.0892 40.0798 19.2338C40.0811 19.6263 40.0801 20.0187 40.0785 20.4112C40.0772 20.8224 40.0778 21.2337 40.0781 21.6449C40.0784 22.336 40.0771 23.027 40.075 23.718C40.0725 24.5155 40.0723 25.3131 40.0734 26.1107C40.0744 26.879 40.0738 27.6473 40.0725 28.4156C40.072 28.742 40.072 29.0684 40.0724 29.3948C40.0729 29.7798 40.0719 30.1649 40.0699 30.5499C40.0694 30.6908 40.0693 30.8316 40.0698 30.9725C40.0726 31.9259 40.0573 32.8263 39.3724 33.5583C38.981 33.8854 38.5235 34.0979 38.0683 34.3222C37.9644 34.3748 37.8605 34.4274 37.7534 34.4816C36.989 34.8663 36.2187 35.2385 35.4375 35.5879C35.8086 36.0324 36.1953 36.4527 36.606 36.8608C36.6925 36.9473 36.6925 36.9473 36.7808 37.0357C36.9693 37.2241 37.1581 37.4121 37.3469 37.6002C37.4785 37.7317 37.6101 37.8631 37.7417 37.9946C38.0865 38.339 38.4314 38.6831 38.7765 39.0271C39.1292 39.3789 39.4817 39.7309 39.8342 40.0829C40.5246 40.7723 41.2153 41.4614 41.9062 42.1504C41.9068 42.0911 41.9073 42.0318 41.9079 41.9707C41.9139 41.3548 41.9218 40.7389 41.9308 40.123C41.9339 39.8931 41.9366 39.6631 41.9387 39.4331C41.9418 39.1029 41.9467 38.7727 41.952 38.4425C41.9526 38.3394 41.9532 38.2362 41.9538 38.13C41.9566 37.9864 41.9566 37.9864 41.9594 37.84C41.9605 37.7556 41.9615 37.6713 41.9626 37.5845C42.0072 37.3277 42.076 37.2437 42.2812 37.0879C42.4629 37.0505 42.4629 37.0505 42.6562 37.0527C42.72 37.052 42.7838 37.0513 42.8496 37.0505C43.0958 37.1012 43.163 37.1659 43.3125 37.3691C43.3494 37.6602 43.3494 37.6602 43.3518 38.0233C43.3526 38.0895 43.3534 38.1557 43.3542 38.2239C43.3564 38.4428 43.3565 38.6616 43.3564 38.8805C43.3571 39.0326 43.3578 39.1847 43.3586 39.3369C43.3598 39.6558 43.36 39.9748 43.3594 40.2937C43.3589 40.7024 43.3618 41.111 43.3655 41.5197C43.368 41.8339 43.3682 42.1481 43.3679 42.4624C43.3681 42.613 43.369 42.7637 43.3706 42.9144C43.3727 43.1252 43.3718 43.3357 43.3701 43.5465C43.3703 43.6664 43.3705 43.7863 43.3707 43.9099C43.3125 44.2129 43.3125 44.2129 43.115 44.4389C42.7851 44.6201 42.5712 44.636 42.1955 44.6379C42.1322 44.6387 42.0689 44.6395 42.0036 44.6403C41.7953 44.6424 41.5872 44.6418 41.3789 44.641C41.2335 44.6415 41.0882 44.6421 40.9429 44.6427C40.6387 44.6437 40.3345 44.6433 40.0303 44.6419C39.6409 44.6403 39.2517 44.6425 38.8624 44.6458C38.5624 44.6479 38.2624 44.6477 37.9624 44.6469C37.8189 44.6469 37.6753 44.6475 37.5318 44.6489C37.3309 44.6505 37.1303 44.6492 36.9294 44.647C36.8153 44.6469 36.7012 44.6469 36.5836 44.6468C36.1952 44.5711 36.0555 44.425 35.8125 44.1191C35.7539 43.832 35.7539 43.832 35.8125 43.5566C37.1358 42.4979 39.1806 43.1224 40.875 43.0879C38.6475 40.8604 36.42 38.6329 34.125 36.3379C33.7679 36.4569 33.4771 36.5565 33.1511 36.7223C33.0356 36.7807 33.0356 36.7807 32.9178 36.8402C32.7937 36.9036 32.7937 36.9036 32.6671 36.9683C32.5344 37.0356 32.5344 37.0356 32.399 37.1042C32.2074 37.2013 32.0159 37.2985 31.8244 37.3959C31.5212 37.5501 31.2177 37.7035 30.914 37.8567C30.0508 38.2923 29.1878 38.7283 28.326 39.1668C27.7983 39.4351 27.27 39.702 26.7411 39.968C26.54 40.0695 26.3391 40.1715 26.1386 40.2741C25.8579 40.4176 25.5764 40.5592 25.2946 40.7004C25.1711 40.7644 25.1711 40.7644 25.0451 40.8297C24.5661 41.0668 24.1608 41.2345 23.625 41.1191C23.2913 40.9985 22.9821 40.8414 22.668 40.6772C22.5752 40.6303 22.4824 40.5834 22.3868 40.535C22.1863 40.4333 21.9861 40.3309 21.7862 40.2279C21.4701 40.0651 21.1531 39.9042 20.8358 39.7437C20.1631 39.4031 19.4916 39.0601 18.8203 38.7168C18.0411 38.3183 17.2613 37.9208 16.4803 37.5258C16.1675 37.367 15.8556 37.2063 15.5437 37.0456C15.3528 36.9488 15.1619 36.8521 14.9709 36.7555C14.8406 36.6874 14.8406 36.6874 14.7076 36.618C14.6278 36.578 14.5479 36.538 14.4655 36.4968C14.3964 36.4614 14.3272 36.426 14.2559 36.3895C14.0609 36.3182 14.0609 36.3182 13.8682 36.4047C13.6895 36.524 13.5448 36.645 13.3932 36.7971C13.3375 36.8525 13.2818 36.908 13.2243 36.9652C13.1643 37.0259 13.1043 37.0865 13.0425 37.1491C12.9784 37.2131 12.9144 37.2771 12.8484 37.3431C12.6369 37.5547 12.4261 37.767 12.2153 37.9792C12.0687 38.1261 11.9222 38.273 11.7755 38.4198C11.3898 38.8063 11.0046 39.1933 10.6196 39.5804C10.2265 39.9753 9.83296 40.3698 9.43942 40.7643C8.66742 41.5383 7.89601 42.3129 7.12497 43.0879C7.18148 43.088 7.23799 43.0881 7.29621 43.0883C7.88481 43.0901 8.47332 43.0952 9.06188 43.1022C9.28148 43.1043 9.50109 43.1057 9.7207 43.1062C10.0365 43.1071 10.3522 43.1109 10.6681 43.1153C10.7661 43.115 10.8642 43.1146 10.9652 43.1142C11.415 43.1232 11.6465 43.1293 12.0184 43.3989C12.1875 43.6504 12.1875 43.6504 12.1933 43.9902C12.0817 44.3449 12.0352 44.4115 11.7187 44.5879C11.4276 44.6242 11.4276 44.6242 11.0812 44.6257C10.9862 44.6267 10.9862 44.6267 10.8893 44.6277C10.6805 44.6294 10.4718 44.6291 10.263 44.6285C10.1176 44.6289 9.97208 44.6294 9.82661 44.63C9.52186 44.6308 9.21713 44.6306 8.91238 44.6297C8.5223 44.6286 8.13229 44.6305 7.74222 44.6332C7.44182 44.635 7.14144 44.6349 6.84104 44.6344C6.69725 44.6344 6.55345 44.635 6.40967 44.6361C6.20836 44.6375 6.0072 44.6365 5.8059 44.6349C5.69149 44.6349 5.57708 44.6349 5.45921 44.6349C5.08736 44.5772 4.93488 44.4964 4.68747 44.2129C4.62921 43.9099 4.62921 43.9099 4.62979 43.5465C4.62927 43.4802 4.62875 43.4138 4.62822 43.3455C4.62711 43.1266 4.62939 42.9079 4.63181 42.6891C4.63197 42.5368 4.63196 42.3846 4.6318 42.2324C4.63195 41.9136 4.6337 41.5948 4.63666 41.2761C4.64038 40.8673 4.64079 40.4585 4.64008 40.0497C4.6398 39.7355 4.64093 39.4213 4.64254 39.1071C4.6432 38.9563 4.64349 38.8056 4.64341 38.6548C4.64357 38.4443 4.64558 38.2339 4.6481 38.0233C4.64889 37.9035 4.64968 37.7837 4.6505 37.6602C4.68747 37.3691 4.68747 37.3691 4.8192 37.1899C5.00571 37.0626 5.11907 37.0502 5.34372 37.0527C5.40753 37.052 5.47134 37.0513 5.53708 37.0505C5.77688 37.0998 5.84931 37.1774 5.99997 37.3691C6.03735 37.5845 6.03735 37.5845 6.04051 37.84C6.04238 37.937 6.04425 38.034 6.04617 38.134C6.04676 38.2358 6.04734 38.3376 6.04795 38.4425C6.0495 38.5362 6.05106 38.6299 6.05267 38.7264C6.0581 39.0767 6.06112 39.427 6.06442 39.7773C6.07409 40.5604 6.08376 41.3435 6.09372 42.1504C9.29575 38.9483 9.29575 38.9483 12.5625 35.6816C12.2307 35.4328 11.9134 35.2579 11.5415 35.0851C11.4137 35.0245 11.2859 34.9639 11.1581 34.9032C10.9585 34.8091 10.7588 34.7153 10.5589 34.6219C8.59956 33.7046 8.59956 33.7046 8.15622 32.8691C8.00897 32.4258 7.94501 32.041 7.94365 31.5748C7.94323 31.514 7.9428 31.4533 7.94236 31.3908C7.94118 31.1892 7.94133 30.9876 7.94148 30.7861C7.94092 30.6408 7.94028 30.4955 7.93958 30.3503C7.93792 29.9571 7.93748 29.5639 7.93736 29.1707C7.93723 28.9249 7.93683 28.6792 7.93633 28.4334C7.9346 27.5758 7.93383 26.7182 7.93398 25.8605C7.93409 25.0613 7.93211 24.2622 7.92915 23.463C7.9267 22.7763 7.92569 22.0896 7.92581 21.4028C7.92586 20.9929 7.92533 20.583 7.92334 20.1731C7.92153 19.7879 7.92151 19.4027 7.92288 19.0175C7.92307 18.8761 7.92263 18.7348 7.9215 18.5935C7.92005 18.4005 7.92092 18.2077 7.92236 18.0147C7.92226 17.9067 7.92216 17.7988 7.92206 17.6875C7.9788 17.3384 8.10117 17.1841 8.34372 16.9316C8.51965 16.8095 8.51965 16.8095 8.70291 16.7194C8.80667 16.6673 8.80667 16.6673 8.91253 16.6141C8.98647 16.5785 9.0604 16.5428 9.13657 16.5061C9.21355 16.4679 9.29054 16.4297 9.36986 16.3903C9.6152 16.2689 9.86128 16.1491 10.1074 16.0293C10.2718 15.9481 10.4362 15.8668 10.6005 15.7854C11.2489 15.4654 11.8953 15.1483 12.5625 14.8691C12.1914 14.4246 11.8046 14.0043 11.3939 13.5962C11.3362 13.5385 11.2786 13.4808 11.2191 13.4213C11.0307 13.2329 10.8419 13.0449 10.653 12.8568C10.5214 12.7253 10.3898 12.5938 10.2582 12.4623C9.91349 12.118 9.56849 11.7739 9.22343 11.4299C8.8707 11.0781 8.51823 10.7261 8.16574 10.3741C7.47533 9.68465 6.78462 8.99554 6.09372 8.30662C6.09317 8.36589 6.09262 8.42517 6.09206 8.48624C6.08607 9.10217 6.07816 9.71805 6.06912 10.3339C6.066 10.5639 6.06337 10.7939 6.06124 11.0239C6.05811 11.3541 6.0532 11.6843 6.04795 12.0145C6.04705 12.1692 6.04705 12.1692 6.04613 12.327C6.04427 12.4227 6.04242 12.5184 6.04051 12.617C6.03895 12.7435 6.03895 12.7435 6.03735 12.8725C5.99278 13.1293 5.92389 13.2132 5.71872 13.3691C5.53708 13.4065 5.53708 13.4065 5.34372 13.4043C5.24801 13.4054 5.24801 13.4054 5.15036 13.4065C4.90412 13.3558 4.8369 13.2911 4.68747 13.0879C4.6505 12.7968 4.6505 12.7968 4.6481 12.4337C4.64731 12.3675 4.64652 12.3013 4.6457 12.2331C4.6435 12.0142 4.64341 11.7954 4.64353 11.5765C4.64286 11.4244 4.64214 11.2722 4.64136 11.1201C4.6401 10.8012 4.63996 10.4822 4.64051 10.1633C4.64106 9.75458 4.63819 9.34598 4.6344 8.93729C4.63198 8.62306 4.63171 8.30885 4.63205 7.99462C4.63189 7.84394 4.63098 7.69327 4.62931 7.54261C4.62724 7.33182 4.62814 7.12125 4.62979 6.91046C4.6296 6.79057 4.62941 6.67067 4.62921 6.54714C4.68747 6.24412 4.68747 6.24412 4.88494 6.0181C5.21485 5.83692 5.42877 5.82102 5.80441 5.81911C5.86774 5.8183 5.93106 5.81749 5.9963 5.81666C6.20459 5.81454 6.41277 5.81517 6.62107 5.81602C6.76641 5.81553 6.91175 5.81494 7.05709 5.81426C7.36128 5.81328 7.66544 5.81371 7.96964 5.81508C8.359 5.81669 8.74823 5.81449 9.13758 5.81119C9.43758 5.80913 9.73755 5.80927 10.0376 5.81004C10.1811 5.81012 10.3246 5.80948 10.4681 5.8081C10.669 5.80646 10.8697 5.80783 11.0705 5.80995C11.1847 5.81004 11.2988 5.81013 11.4164 5.81023C11.8058 5.88609 11.9479 6.02708 12.1875 6.33787C12.1933 6.67771 12.1933 6.67771 12.0937 6.99412C10.765 7.99069 8.78559 7.33523 7.12497 7.36912C9.35247 9.59662 11.58 11.8241 13.875 14.1191C14.2947 13.9792 14.6458 13.8376 15.0351 13.6386C15.1345 13.5881 15.2338 13.5376 15.3362 13.4856C15.4108 13.4471 15.4855 13.4087 15.5625 13.3691C15.566 13.2579 15.5695 13.1468 15.5731 13.0322C15.6731 10.3828 16.373 8.24893 18.2812 6.33787C18.3416 6.27636 18.4021 6.21484 18.4643 6.15147C21.3534 3.4194 26.2783 3.4127 29.2829 5.9387ZM18.4687 8.11912C17.3127 9.63615 16.8002 11.4769 17.0273 13.3691C17.3687 15.3611 18.3634 17.0432 19.998 18.2324C21.6271 19.2941 23.4292 19.687 25.3476 19.3633C27.1979 18.9502 28.7777 17.9258 29.841 16.3428C30.8935 14.655 31.2545 12.7898 30.8437 10.8379C30.4782 9.5136 29.844 8.4319 28.875 7.46287C28.8084 7.39628 28.7418 7.32969 28.6732 7.26109C27.2159 5.88815 25.4495 5.44153 23.4997 5.46848C21.4884 5.53604 19.7722 6.64671 18.4687 8.11912ZM15.2189 15.0249C15.1101 15.0794 15.0012 15.1338 14.8891 15.1899C14.7704 15.2499 14.6517 15.31 14.5331 15.3701C14.4116 15.4311 14.2901 15.4921 14.1685 15.553C13.8488 15.7134 13.5294 15.8745 13.21 16.0357C12.8841 16.2001 12.5578 16.3639 12.2316 16.5277C11.5916 16.8492 10.9519 17.1714 10.3125 17.4941C10.3125 17.556 10.3125 17.6179 10.3125 17.6816C12.062 18.5652 13.8124 19.447 15.5639 20.3267C16.3771 20.7353 17.19 21.1444 18.0022 21.5548C18.7101 21.9125 19.4185 22.2691 20.1276 22.6245C20.5031 22.8127 20.8783 23.0014 21.2529 23.1915C21.6054 23.3703 21.9586 23.5477 22.3124 23.724C22.4422 23.789 22.5716 23.8545 22.7008 23.9205C22.8773 24.0106 23.0547 24.0988 23.2323 24.1866C23.3809 24.2614 23.3809 24.2614 23.5324 24.3377C23.9623 24.4818 24.2421 24.3932 24.6521 24.2224C24.7497 24.1734 24.8474 24.1244 24.948 24.0739C25.0303 24.033 25.0303 24.033 25.1142 23.9913C25.2968 23.9003 25.4788 23.8083 25.6609 23.7162C25.7921 23.6505 25.9233 23.585 26.0546 23.5194C26.4101 23.3417 26.7652 23.1631 27.1202 22.9843C27.4915 22.7974 27.8633 22.6114 28.235 22.4254C28.9385 22.073 29.6416 21.7199 30.3446 21.3665C31.1451 20.9642 31.946 20.5627 32.747 20.1613C34.3943 19.3357 36.0411 18.509 37.6875 17.6816C37.6875 17.6197 37.6875 17.5579 37.6875 17.4941C36.9837 17.139 36.2796 16.7844 35.5752 16.4307C35.2481 16.2664 34.9211 16.1019 34.5943 15.9369C34.2791 15.7778 33.9636 15.6192 33.6479 15.461C33.5274 15.4005 33.407 15.3398 33.2867 15.2789C33.1184 15.1937 32.9497 15.1093 32.781 15.0249C32.6851 14.9766 32.5891 14.9283 32.4902 14.8786C32.2505 14.7569 32.2505 14.7569 31.9687 14.7754C31.9436 14.8481 31.9184 14.9209 31.8925 14.9958C31.107 17.1613 29.731 18.9018 27.6419 19.9455C25.5152 20.9265 23.1194 20.9572 20.9315 20.1828C18.7632 19.3174 17.2856 17.7466 16.3476 15.6543C16.2294 15.3642 16.1259 15.0739 16.0312 14.7754C15.6902 14.7754 15.5232 14.8718 15.2189 15.0249ZM9.37497 18.7129C9.36621 20.465 9.3596 22.217 9.35554 23.9691C9.35361 24.7827 9.35097 25.5962 9.34668 26.4097C9.34294 27.1187 9.34052 27.8278 9.33969 28.5368C9.3392 28.9123 9.33805 29.2877 9.33532 29.6632C9.33278 30.0166 9.33199 30.37 9.33256 30.7234C9.33245 30.8531 9.33171 30.9828 9.33027 31.1124C9.3284 31.2896 9.32908 31.4668 9.32988 31.644C9.32953 31.7431 9.32919 31.8422 9.32883 31.9444C9.38673 32.2813 9.51663 32.4365 9.74997 32.6816C9.94914 32.8213 9.94914 32.8213 10.1714 32.925C10.2545 32.9667 10.3376 33.0084 10.4232 33.0513C10.5578 33.1167 10.5578 33.1167 10.6952 33.1833C10.8365 33.2536 10.8365 33.2536 10.9807 33.3252C11.2829 33.475 11.5857 33.6233 11.8886 33.7715C12.0855 33.8689 12.2824 33.9664 12.4792 34.0641C13.318 34.4792 14.1589 34.8895 15.0046 35.2905C16.0388 35.781 17.0638 36.2885 18.0868 36.8019C18.1605 36.8388 18.2342 36.8758 18.3102 36.9139C18.9992 37.2597 19.688 37.6059 20.3766 37.9526C20.7576 38.1443 21.1388 38.3357 21.5202 38.5269C21.6643 38.5992 21.8083 38.6717 21.9522 38.7444C22.1512 38.8447 22.3503 38.9446 22.5495 39.0444C22.6086 39.0744 22.6676 39.1043 22.7285 39.1351C23.0217 39.2894 23.0217 39.2894 23.3437 39.3379C23.3437 34.821 23.3437 30.3041 23.3437 25.6504C22.0433 24.9595 22.0433 24.9595 20.7236 24.3138C19.6392 23.8006 18.5657 23.2669 17.4935 22.7288C17.1626 22.5627 16.8316 22.3969 16.5005 22.2312C15.801 21.8809 15.1016 21.5303 14.4023 21.1797C13.584 20.7694 12.7656 20.3592 11.947 19.9494C11.6205 19.7858 11.2941 19.6221 10.9678 19.4583C10.77 19.3592 10.5723 19.2602 10.3746 19.1612C10.2836 19.1155 10.1927 19.0698 10.099 19.0227C10.0168 18.9816 9.93457 18.9405 9.84987 18.8981C9.77809 18.8621 9.70631 18.8261 9.63236 18.7891C9.48464 18.7063 9.48464 18.7063 9.37497 18.7129ZM38.0602 18.9427C37.9071 19.0192 37.9071 19.0192 37.7509 19.0972C37.6367 19.1545 37.5226 19.2117 37.4084 19.269C37.2889 19.3287 37.1694 19.3885 37.0499 19.4482C36.7239 19.6112 36.3981 19.7744 36.0722 19.9376C35.7304 20.1088 35.3885 20.2798 35.0466 20.4508C34.3969 20.7758 33.7473 21.101 33.0977 21.4263C32.3646 21.7933 31.6314 22.1602 30.8982 22.527C29.6411 23.156 28.3841 23.7851 27.1271 24.4144C26.3036 24.8267 25.4799 25.2385 24.6562 25.6504C24.6562 30.1672 24.6562 34.6841 24.6562 39.3379C25.1088 39.187 25.5144 39.0151 25.9368 38.8012C26.0066 38.7663 26.0764 38.7313 26.1483 38.6953C26.3785 38.5799 26.6085 38.4639 26.8385 38.348C27.0006 38.2666 27.1628 38.1853 27.325 38.104C27.753 37.8894 28.1807 37.6744 28.6084 37.4592C29.3678 37.0773 30.1275 36.6959 30.8873 36.3148C30.9688 36.2739 31.0503 36.233 31.1343 36.1909C32.2993 35.6068 33.4688 35.0344 34.6471 34.4773C35.2538 34.1892 35.857 33.8939 36.459 33.5961C36.6052 33.524 36.7516 33.4525 36.8982 33.3813C37.1163 33.2754 37.3336 33.168 37.5509 33.0603C37.616 33.029 37.6811 32.9978 37.7482 32.9656C38.1423 32.7677 38.3823 32.5802 38.625 32.2129C38.6797 31.9404 38.6797 31.9404 38.6701 31.644C38.6706 31.5298 38.6711 31.4155 38.6716 31.2978C38.6703 31.172 38.6689 31.0462 38.6675 30.9204C38.6674 30.7873 38.6675 30.6543 38.6677 30.5212C38.6678 30.1605 38.6656 29.7999 38.663 29.4393C38.6606 29.0622 38.6604 28.6851 38.66 28.308C38.6588 27.5941 38.6557 26.8803 38.652 26.1664C38.6478 25.3536 38.6457 24.5409 38.6438 23.7281C38.6399 22.0563 38.6333 20.3846 38.625 18.7129C38.4297 18.7129 38.2289 18.8583 38.0602 18.9427Z" fill="#573FE7"/>
<path d="M28.4121 9.00977C28.6875 9.05664 28.6875 9.05664 28.9102 9.20898C29.1119 9.50383 29.1258 9.64274 29.0625 9.99414C28.7502 10.4788 28.306 10.7978 27.8588 11.1547C27.5271 11.4246 27.2172 11.7164 26.9063 12.0098C26.4478 12.4416 25.9774 12.8466 25.4854 13.2402C25.1666 13.5065 24.8648 13.7876 24.5625 14.0723C24.0193 14.5835 23.4601 15.0621 22.875 15.5254C22.8017 15.5968 22.7283 15.6682 22.6527 15.7418C22.4063 15.9004 22.4063 15.9004 22.0869 15.9154C21.6405 15.7713 21.4388 15.5421 21.1407 15.1914C21.0608 15.1012 21.0608 15.1012 20.9792 15.0093C20.8285 14.8387 20.6798 14.6666 20.5313 14.4941C20.4681 14.4234 20.4049 14.3527 20.3398 14.2799C20.2387 14.1668 20.1389 14.0526 20.0406 13.9371C19.9056 13.7797 19.767 13.6254 19.6275 13.472C19.54 13.3733 19.4526 13.2746 19.3653 13.1758C19.2436 13.0407 19.2436 13.0407 19.1195 12.903C18.8988 12.5588 18.8864 12.3646 18.9375 11.9629C19.1724 11.6866 19.3081 11.5966 19.67 11.5645C20.1267 11.7436 20.3961 12.0706 20.7188 12.4316C20.774 12.4933 20.8292 12.5549 20.8861 12.6184C20.9934 12.7401 21.0999 12.8626 21.2055 12.9857C21.4591 13.2788 21.722 13.5634 21.984 13.8489C22.125 14.0254 22.125 14.0254 22.125 14.2129C22.673 13.776 23.206 13.3308 23.7188 12.8535C24.0645 12.5317 24.4164 12.223 24.7852 11.9277C25.197 11.5966 25.5843 11.2467 25.9688 10.8848C26.512 10.3735 27.0712 9.89495 27.6563 9.43164C27.7373 9.36312 27.8182 9.2946 27.9016 9.224C28.125 9.05664 28.125 9.05664 28.4121 9.00977Z" fill="#573FE7"/>
</svg>
