<svg width="48" height="49" viewBox="0 0 48 49" fill="none" xmlns="http://www.w3.org/2000/svg">
<path d="M5.76208 6.10692C5.85854 6.10656 5.95499 6.1062 6.05437 6.10583C6.37634 6.10486 6.6983 6.10523 7.02027 6.10561C7.25162 6.1052 7.48296 6.10471 7.71431 6.10415C8.27675 6.10303 8.83919 6.10279 9.40164 6.10301C9.85901 6.10318 10.3164 6.10301 10.7738 6.10261C10.839 6.10256 10.9041 6.1025 10.9713 6.10245C11.1038 6.10233 11.2362 6.10222 11.3687 6.1021C12.6099 6.10109 13.851 6.10129 15.0921 6.10186C16.2263 6.10234 17.3605 6.10129 18.4947 6.09951C19.6607 6.09769 20.8267 6.09692 21.9927 6.09727C22.6468 6.09745 23.3008 6.09722 23.9549 6.09589C24.57 6.09465 25.1851 6.09489 25.8003 6.09611C26.0257 6.09634 26.2512 6.09608 26.4767 6.09531C26.785 6.09432 27.0933 6.09508 27.4017 6.09627C27.4904 6.09558 27.5791 6.09489 27.6704 6.09418C28.6241 6.10188 29.4545 6.35297 30.1876 6.97511C30.9727 7.80309 31.0746 8.644 31.072 9.74586C31.0724 9.86743 31.0729 9.98899 31.0734 10.1142C31.0743 10.3707 31.0741 10.627 31.0731 10.8834C31.072 11.2096 31.0739 11.5356 31.0767 11.8617C31.0788 12.176 31.0782 12.4902 31.0778 12.8045C31.0789 12.9203 31.0799 13.0361 31.081 13.1555C31.0729 14.1757 30.8131 14.8946 30.1876 15.6939C30.2249 15.7393 30.2622 15.7847 30.3007 15.8316C30.3504 15.8944 30.4001 15.9572 30.4512 16.022C30.5002 16.0829 30.5491 16.1438 30.5995 16.2066C30.9919 16.8251 31.0739 17.3927 31.0793 18.1079C31.0818 18.2343 31.0818 18.2343 31.0844 18.3632C31.0894 18.6297 31.0926 18.8961 31.0958 19.1626C31.0989 19.3444 31.1021 19.5261 31.1055 19.7079C31.1134 20.1511 31.1197 20.5943 31.1251 21.0376C31.1599 20.975 31.1948 20.9123 31.2307 20.8477C32.4095 18.7305 32.4095 18.7305 33.0104 17.7175C33.3612 17.1257 33.7054 16.5302 34.0489 15.9341C34.1386 15.7784 34.1386 15.7784 34.2301 15.6195C34.3528 15.4067 34.4754 15.1938 34.598 14.9809C34.8932 14.4684 35.1888 13.9561 35.4844 13.4439C35.6016 13.2407 35.7188 13.0376 35.836 12.8345C36.0704 12.4282 36.3047 12.022 36.5391 11.6157C36.5972 11.515 36.6553 11.4143 36.7151 11.3106C36.8315 11.1089 36.9479 10.9073 37.0644 10.7058C37.3381 10.2321 37.611 9.75805 37.8815 9.28252C37.9774 9.11399 38.0735 8.94559 38.1697 8.77723C38.2904 8.56582 38.4106 8.35416 38.5304 8.14222C38.683 7.8755 38.8394 7.61202 39.0001 7.35011C39.0378 7.28636 39.0756 7.22261 39.1146 7.15693C39.2592 6.94568 39.3994 6.80875 39.647 6.73334C40.3291 6.67139 40.8458 7.04265 41.4024 7.39112C41.5008 7.4508 41.5992 7.51048 41.7005 7.57196C41.8973 7.69144 42.0937 7.81163 42.2895 7.93256C42.5298 8.07998 42.7715 8.22375 43.0152 8.36524C43.0804 8.40326 43.1456 8.44127 43.2127 8.48044C43.3305 8.5491 43.4485 8.61752 43.5666 8.68565C43.8403 8.84824 43.9756 8.95406 44.1563 9.22511C44.2262 9.80761 44.0581 10.1431 43.7696 10.6255C43.7279 10.6978 43.6862 10.77 43.6433 10.8445C43.5032 11.0868 43.361 11.3278 43.2188 11.5689C43.117 11.7437 43.0153 11.9186 42.9137 12.0936C42.6944 12.4711 42.4742 12.8481 42.2535 13.2249C41.9029 13.8238 41.5556 14.4246 41.209 15.0259C41.1507 15.1271 41.0924 15.2283 41.0323 15.3326C40.9139 15.5379 40.7956 15.7433 40.6773 15.9486C40.3841 16.4576 40.0905 16.9663 39.7969 17.4751C39.6797 17.6782 39.5626 17.8814 39.4454 18.0845C39.211 18.4907 38.9766 18.897 38.7422 19.3032C38.6552 19.4542 38.6552 19.4542 38.5663 19.6081C38.4496 19.8106 38.3327 20.013 38.2159 20.2154C37.9169 20.7336 37.6181 21.2519 37.3195 21.7704C36.6663 22.9043 36.0104 24.0365 35.3438 25.1626C35.4253 25.2137 35.5067 25.2648 35.5906 25.3175C36.4649 25.8826 37.0615 26.4455 37.3624 27.4771C37.5196 28.2525 37.4195 29.0799 37.0071 29.7647C36.9161 29.8927 36.8249 30.0205 36.7336 30.1483C35.6991 31.6514 35.6125 33.4912 35.3797 35.2526C35.2847 35.9653 35.1829 36.6771 35.0804 37.3888C35.0456 37.6356 35.013 37.8827 34.9808 38.1299C34.9599 38.2808 34.9389 38.4317 34.9179 38.5826C34.9096 38.6506 34.9013 38.7186 34.8928 38.7886C34.8304 39.2205 34.7172 39.48 34.4063 39.7876C34.0748 39.9099 33.8621 39.9243 33.5297 39.7969C33.2726 39.6683 33.0254 39.5287 32.7774 39.3833C32.6858 39.3314 32.5942 39.2796 32.4999 39.2261C32.228 39.0714 31.9576 38.9143 31.6876 38.7564C31.6176 38.7157 31.5477 38.6751 31.4756 38.6333C31.1588 38.4493 30.8433 38.2633 30.5285 38.0759C29.9977 37.7608 29.4627 37.4531 28.9278 37.145C28.8243 37.0854 28.7209 37.0258 28.6143 36.9644C28.4018 36.842 28.1892 36.7196 27.9766 36.5972C27.66 36.4148 27.3436 36.2321 27.0272 36.0493C26.9234 35.9894 26.8196 35.9295 26.7127 35.8678C26.5201 35.7565 26.3274 35.6452 26.1347 35.5338C25.9475 35.4257 25.7588 35.32 25.5689 35.2165C25.3167 35.0731 25.0987 34.9124 24.8746 34.7284C23.2428 33.4903 21.2612 33.7336 19.3172 33.7607C18.8028 33.7666 18.2884 33.7656 17.774 33.7654C16.8018 33.7658 15.8296 33.7717 14.8574 33.7798C13.1149 33.7941 11.3724 33.7992 9.62991 33.8024C9.01949 33.8037 8.40914 33.8073 7.79874 33.813C7.41899 33.8163 7.03925 33.818 6.65948 33.8194C6.48424 33.8204 6.309 33.8221 6.13377 33.8244C4.88711 33.8409 3.84932 33.7846 2.90118 32.8772C2.38905 32.2746 2.14748 31.6053 2.13971 30.8233C2.13851 30.7175 2.1373 30.6116 2.13606 30.5026C2.13537 30.3886 2.13468 30.2745 2.13397 30.157C2.13321 30.0391 2.13245 29.9211 2.13167 29.7996C2.13038 29.5498 2.12934 29.3 2.12863 29.0502C2.1276 28.7324 2.12438 28.4148 2.12065 28.0971C2.11758 27.7915 2.11718 27.486 2.11639 27.1804C2.11475 27.0675 2.1131 26.9546 2.11141 26.8382C2.1139 25.8632 2.32394 25.1263 3.00005 24.4126C2.84394 24.0874 2.65732 23.7935 2.45806 23.4934C2.22093 23.0663 2.13283 22.6639 2.12907 22.1785C2.12787 22.073 2.12667 21.9675 2.12544 21.8588C2.12513 21.6896 2.12513 21.6896 2.12481 21.517C2.12419 21.3995 2.12356 21.2821 2.12292 21.1611C2.12197 20.9128 2.12145 20.6645 2.12156 20.4162C2.12158 20.1633 2.12028 19.9105 2.11771 19.6577C2.11426 19.2911 2.11336 18.9246 2.11309 18.558C2.11174 18.4461 2.1104 18.3343 2.10901 18.219C2.11452 17.1974 2.36068 16.3993 3.00005 15.6001C2.95486 15.54 2.90966 15.48 2.86309 15.4181C2.77427 15.2965 2.77427 15.2965 2.68365 15.1724C2.62492 15.093 2.56618 15.0136 2.50567 14.9318C2.0949 14.2487 2.12752 13.5592 2.12811 12.7825C2.1277 12.6647 2.1273 12.547 2.12689 12.4256C2.12635 12.1771 2.12621 11.9286 2.12671 11.68C2.12725 11.3637 2.12567 11.0474 2.12349 10.731C2.12177 10.4266 2.12213 10.1221 2.12225 9.81763C2.12138 9.70511 2.12052 9.59258 2.11963 9.47665C2.12537 8.42729 2.33642 7.6359 3.0938 6.88136C3.92742 6.24596 4.73998 6.10285 5.76208 6.10692ZM4.04888 8.28761C3.78566 8.6486 3.73825 8.88596 3.73495 9.32062C3.73405 9.41638 3.73315 9.51215 3.73222 9.61081C3.73182 9.71423 3.73142 9.81765 3.73101 9.9242C3.73048 10.0307 3.72994 10.1371 3.72939 10.2469C3.72851 10.4723 3.72789 10.6978 3.72753 10.9232C3.72662 11.2677 3.72371 11.6121 3.72076 11.9565C3.72015 12.1755 3.71965 12.3946 3.71929 12.6137C3.71814 12.7165 3.71698 12.8194 3.71579 12.9253C3.71753 13.5244 3.74952 13.9787 4.17193 14.4418C4.54606 14.7331 4.8032 14.8616 5.27412 14.8624C5.35598 14.8628 5.43783 14.8631 5.52217 14.8635C5.65716 14.8634 5.65716 14.8634 5.79487 14.8633C5.9382 14.8637 5.9382 14.8637 6.08442 14.8641C6.40613 14.8649 6.72784 14.8651 7.04955 14.8652C7.27958 14.8656 7.50962 14.8661 7.73966 14.8666C8.36569 14.8679 8.99173 14.8685 9.61776 14.8689C10.0086 14.8691 10.3995 14.8695 10.7904 14.87C11.8724 14.8711 12.9545 14.8721 14.0366 14.8724C14.1405 14.8724 14.1405 14.8724 14.2465 14.8724C14.3159 14.8725 14.3854 14.8725 14.4569 14.8725C14.5976 14.8725 14.7383 14.8726 14.879 14.8726C14.9836 14.8727 14.9836 14.8727 15.0904 14.8727C16.2213 14.8731 17.3521 14.8747 18.4829 14.8769C19.6438 14.8791 20.8047 14.8803 21.9656 14.8804C22.6175 14.8805 23.2693 14.881 23.9211 14.8827C24.5342 14.8843 25.1472 14.8845 25.7603 14.8836C25.9855 14.8836 26.2106 14.884 26.4358 14.8849C26.7429 14.8861 27.0499 14.8855 27.357 14.8846C27.4911 14.8857 27.4911 14.8857 27.6278 14.8868C28.1818 14.8827 28.6063 14.8197 29.0292 14.4249C29.3326 14.0283 29.4489 13.8368 29.4541 13.3418C29.4554 13.2422 29.4566 13.1427 29.4578 13.0402C29.4585 12.9322 29.4592 12.8242 29.4599 12.7129C29.4606 12.6021 29.4614 12.4914 29.4622 12.3772C29.4635 12.1424 29.4645 11.9075 29.4652 11.6727C29.4668 11.3138 29.471 10.955 29.4751 10.5962C29.476 10.3682 29.4768 10.1401 29.4775 9.91212C29.4799 9.75125 29.4799 9.75125 29.4824 9.58713C29.4808 8.99872 29.4622 8.63856 29.0626 8.19386C28.6887 7.85646 28.416 7.71361 27.9135 7.71278C27.8316 7.71242 27.7498 7.71206 27.6654 7.71169C27.5754 7.71177 27.4855 7.71186 27.3927 7.71194C27.2972 7.71166 27.2016 7.71138 27.1032 7.7111C26.7815 7.71028 26.4598 7.71014 26.1381 7.71C25.908 7.70957 25.678 7.70909 25.448 7.70859C24.8219 7.70736 24.1959 7.70675 23.5698 7.70634C23.179 7.70608 22.7881 7.70568 22.3973 7.70526C21.3152 7.70412 20.2331 7.70315 19.151 7.70283C19.0817 7.70281 19.0125 7.70279 18.9411 7.70277C18.837 7.70274 18.837 7.70274 18.7307 7.70271C18.59 7.70267 18.4493 7.70263 18.3087 7.70258C18.2389 7.70256 18.1691 7.70254 18.0972 7.70252C16.9663 7.70215 15.8355 7.70051 14.7047 7.69833C13.5438 7.69611 12.3829 7.69494 11.222 7.69483C10.5702 7.69474 9.91831 7.6942 9.26646 7.6925C8.65341 7.69091 8.04037 7.69075 7.42732 7.69158C7.20215 7.69165 6.97698 7.69124 6.75181 7.69032C6.44472 7.68913 6.13767 7.68967 5.83058 7.69065C5.74122 7.6899 5.65186 7.68914 5.55978 7.68836C4.9534 7.6929 4.44337 7.78098 4.04888 8.28761ZM40.1251 8.66261C40.0722 8.75422 40.0722 8.75422 40.0183 8.84768C38.5304 11.4266 37.0426 14.0055 35.5547 16.5845C35.4967 16.685 35.4387 16.7856 35.3789 16.8892C35.2618 17.0922 35.1447 17.2952 35.0276 17.4981C34.7333 18.0082 34.4391 18.5183 34.1452 19.0286C33.3617 20.3884 32.5736 21.7454 31.7813 23.1001C32.0168 23.3479 32.2403 23.5439 32.535 23.7168C32.6048 23.7579 32.6747 23.799 32.7466 23.8413C32.8187 23.8829 32.8907 23.9245 32.9649 23.9673C33.0376 24.0103 33.1104 24.0533 33.1854 24.0977C33.5393 24.3284 33.5393 24.3284 33.9376 24.4126C33.9676 24.3591 33.9976 24.3055 34.0286 24.2504C34.665 23.1176 35.3088 21.9896 35.9651 20.8682C36.5472 19.8736 37.1226 18.8751 37.6978 17.8766C37.991 17.3676 38.2846 16.8589 38.5782 16.3501C38.6954 16.147 38.8126 15.9439 38.9297 15.7407C39.6329 14.522 39.6329 14.522 39.8089 14.2168C39.9252 14.0153 40.0414 13.8138 40.1575 13.6122C40.4318 13.1365 40.7064 12.661 40.9825 12.1864C41.1128 11.9623 41.2428 11.7381 41.3728 11.5139C41.4646 11.3559 41.5567 11.1981 41.6489 11.0402C41.7322 10.8964 41.7322 10.8964 41.8173 10.7496C41.8663 10.6655 41.9153 10.5813 41.9657 10.4946C42.0899 10.2637 42.1892 10.0329 42.2813 9.78761C42.0101 9.6348 41.7385 9.48263 41.4669 9.33057C41.3903 9.28743 41.3137 9.24429 41.2349 9.19984C41.1602 9.15814 41.0856 9.11645 41.0087 9.07349C40.9064 9.01605 40.9064 9.01605 40.8019 8.95745C40.5811 8.84355 40.357 8.75139 40.1251 8.66261ZM3.89965 17.0999C3.66389 17.574 3.69644 18.0849 3.70025 18.603C3.69971 18.7647 3.69971 18.7647 3.69916 18.9297C3.69891 19.157 3.69959 19.3842 3.70117 19.6114C3.70317 19.9584 3.70118 20.3051 3.69878 20.652C3.69903 20.8733 3.69951 21.0946 3.70025 21.3159C3.69949 21.4192 3.69873 21.5224 3.69795 21.6288C3.70529 22.2332 3.76147 22.6104 4.12505 23.1001C4.71414 23.5764 5.24362 23.5829 5.97703 23.5864C6.10097 23.5875 6.10097 23.5875 6.22742 23.5887C6.50427 23.591 6.78113 23.5927 7.05799 23.5944C7.2565 23.5959 7.45501 23.5974 7.65352 23.599C9.46285 23.6125 11.2722 23.6196 13.0816 23.6251C14.4192 23.6293 15.7566 23.6366 17.0941 23.6478C18.0346 23.6554 18.9751 23.6595 19.9157 23.6609C20.4775 23.6618 21.0392 23.6644 21.601 23.6708C22.1294 23.6768 22.6576 23.6784 23.186 23.6766C23.3799 23.6767 23.5737 23.6784 23.7675 23.6819C24.7742 23.7416 24.7742 23.7416 25.659 23.3642C25.8258 23.1261 25.9412 22.8945 26.0626 22.6314C26.4919 22.1545 26.9997 21.8193 27.6518 21.7752C28.8927 21.7306 28.8927 21.7306 29.4376 21.8814C29.4471 21.2659 29.4536 20.6504 29.4582 20.0349C29.46 19.8256 29.4626 19.6164 29.4658 19.4072C29.4704 19.1058 29.4725 18.8045 29.4742 18.5031C29.4761 18.4101 29.478 18.3171 29.48 18.2213C29.4802 17.6394 29.4271 17.2819 29.0626 16.8189C28.5179 16.4272 28.0949 16.3901 27.4349 16.3962C27.3383 16.3957 27.2418 16.3951 27.1423 16.3945C26.8193 16.393 26.4965 16.3942 26.1735 16.3953C25.9417 16.3948 25.7099 16.3942 25.4782 16.3933C24.9143 16.3918 24.3506 16.392 23.7867 16.3931C23.3284 16.394 22.8701 16.3941 22.4118 16.3937C22.3465 16.3936 22.2812 16.3936 22.2139 16.3935C22.0813 16.3934 21.9487 16.3933 21.816 16.3931C20.5729 16.3921 19.3298 16.3933 18.0867 16.3953C17.0206 16.397 15.9545 16.3967 14.8885 16.395C13.6497 16.393 12.411 16.3922 11.1723 16.3933C11.0401 16.3934 10.908 16.3936 10.7758 16.3937C10.7108 16.3937 10.6458 16.3938 10.5788 16.3939C10.1212 16.3942 9.66352 16.3936 9.20588 16.3927C8.58967 16.3916 7.97348 16.3924 7.35726 16.3946C7.13107 16.3951 6.90488 16.3949 6.6787 16.3941C6.37 16.3931 6.06139 16.3944 5.7527 16.3962C5.61836 16.395 5.61836 16.395 5.48129 16.3937C4.79022 16.4018 4.34835 16.5404 3.89965 17.0999ZM27.219 23.6282C26.8501 24.0955 26.593 24.6244 26.3438 25.1626C27.4342 25.8535 28.5565 26.4898 29.6757 27.1325C30.1905 27.4283 30.7046 27.7252 31.2188 28.022C31.4188 28.1373 31.6187 28.2527 31.8187 28.368C32.8375 28.9558 33.8563 29.5436 34.8751 30.1314C35.084 29.8563 35.2714 29.578 35.4493 29.2817C35.4979 29.2014 35.5464 29.121 35.5965 29.0382C35.8176 28.6417 35.85 28.3312 35.8126 27.8814C35.4233 26.8906 34.2961 26.4376 33.4102 25.9536C32.4072 25.399 31.4146 24.8287 30.426 24.2489C30.3418 24.1996 30.2576 24.1503 30.1709 24.0995C29.9814 23.988 29.7922 23.8759 29.6032 23.7633C29.5032 23.7041 29.4032 23.6449 29.3002 23.5839C29.1639 23.5027 29.1639 23.5027 29.0249 23.4198C28.401 23.0812 27.7342 23.1227 27.219 23.6282ZM4.03716 25.6314C3.78642 25.9961 3.7381 26.2411 3.73346 26.673C3.73226 26.7706 3.73105 26.8683 3.72981 26.9689C3.72912 27.0743 3.72843 27.1798 3.72772 27.2885C3.72696 27.397 3.7262 27.5056 3.72542 27.6174C3.72413 27.8473 3.72312 28.0772 3.72238 28.3071C3.72077 28.6583 3.71665 29.0094 3.71252 29.3607C3.71157 29.584 3.71077 29.8073 3.71014 30.0306C3.7085 30.1355 3.70685 30.2404 3.70516 30.3485C3.70679 30.9321 3.7306 31.2833 4.12505 31.7251C4.58209 32.1375 4.88916 32.2056 5.49613 32.2051C5.59124 32.2052 5.59124 32.2052 5.68827 32.2054C5.90117 32.2055 6.11407 32.205 6.32697 32.2045C6.47941 32.2045 6.63185 32.2045 6.78429 32.2045C7.19858 32.2046 7.61287 32.204 8.02716 32.2034C8.45996 32.2028 8.89275 32.2027 9.32554 32.2026C10.1453 32.2023 10.9651 32.2015 11.7848 32.2006C12.718 32.1996 13.6512 32.199 14.5844 32.1986C16.5042 32.1976 18.424 32.1959 20.3438 32.1939C20.0793 31.98 19.8251 31.7774 19.5283 31.6108C19.4672 31.5757 19.4061 31.5405 19.3431 31.5043C19.2164 31.4323 19.0895 31.3607 18.9623 31.2897C18.7168 31.1475 18.5045 31.0199 18.3263 30.7964C18.2608 30.5106 18.2924 30.3184 18.3751 30.0376C18.5431 29.8344 18.5431 29.8344 18.7676 29.645C18.853 29.5725 18.9383 29.5 19.0262 29.4253C19.3795 29.1398 19.7349 28.8572 20.0938 28.5787C20.5435 28.2295 20.9836 27.8697 21.4219 27.5064C22.2029 26.8597 22.9956 26.2298 23.8001 25.6127C23.9165 25.5233 23.9165 25.5233 24.0352 25.4321C24.1017 25.3816 24.1681 25.3311 24.2366 25.2791C24.2823 25.2406 24.328 25.2022 24.3751 25.1626C24.3751 25.1317 24.3751 25.1007 24.3751 25.0689C21.87 25.0623 19.3649 25.0573 16.8598 25.0543C15.6966 25.0528 14.5335 25.0509 13.3703 25.0476C12.3565 25.0448 11.3427 25.043 10.3288 25.0424C9.79202 25.042 9.25524 25.0412 8.71845 25.0391C8.21305 25.0372 7.70767 25.0366 7.20226 25.037C7.01693 25.037 6.8316 25.0364 6.64627 25.0353C6.3928 25.0339 6.13939 25.0343 5.88592 25.035C5.81296 25.0342 5.74 25.0334 5.66483 25.0326C5.04953 25.0376 4.45836 25.1447 4.03716 25.6314ZM24.9511 26.6454C24.846 26.73 24.7419 26.8159 24.6387 26.9028C24.5819 26.9491 24.5251 26.9953 24.4666 27.0429C24.2788 27.1962 24.0925 27.3512 23.9063 27.5064C23.7749 27.6147 23.6434 27.723 23.5119 27.8312C23.3102 27.9972 23.1087 28.1632 22.9075 28.3298C22.3708 28.7735 21.8262 29.2061 21.2769 29.634C21.0268 29.8292 20.7786 30.0264 20.5313 30.2251C20.6511 30.5845 20.7633 30.6101 21.0909 30.788C21.2367 30.8682 21.2367 30.8682 21.3855 30.95C21.4903 31.0066 21.5952 31.0632 21.7032 31.1216C21.9202 31.2408 22.1371 31.3602 22.3539 31.4797C22.4601 31.538 22.5662 31.5963 22.6755 31.6563C23.0407 31.8587 23.4011 32.0681 23.7598 32.2817C24.4132 32.6696 25.0702 33.0508 25.7286 33.4302C25.8324 33.49 25.9362 33.5498 26.0431 33.6114C26.256 33.7341 26.4689 33.8567 26.6818 33.9793C27.1943 34.2745 27.7065 34.5701 28.2188 34.8657C28.4205 34.9821 28.6221 35.0984 28.8238 35.2147C29.3524 35.5197 29.8808 35.8248 30.4093 36.1299C30.7167 36.3072 31.0241 36.4845 31.3316 36.6616C31.6592 36.8504 31.9864 37.0397 32.313 37.23C32.4327 37.2993 32.5523 37.3687 32.6719 37.438C32.8184 37.5234 32.8184 37.5234 32.9678 37.6105C33.174 37.7396 33.174 37.7396 33.3751 37.7251C33.5424 37.1059 33.6483 36.4857 33.7449 35.8519C33.7695 35.6929 33.7695 35.6929 33.7946 35.5306C33.8289 35.3076 33.8631 35.0845 33.8971 34.8614C33.9493 34.5201 34.0021 34.1788 34.0551 33.8376C34.0885 33.6204 34.1218 33.4032 34.1551 33.1859C34.1788 33.0331 34.1788 33.0331 34.203 32.8772C34.2246 32.7345 34.2246 32.7345 34.2467 32.5889C34.2594 32.5056 34.2722 32.4223 34.2853 32.3365C34.3131 32.0955 34.3329 31.8734 34.3126 31.6314C34.0859 31.4325 34.0859 31.4325 33.7804 31.2714C33.6979 31.2236 33.6979 31.2236 33.6136 31.1748C33.4412 31.0755 33.2675 30.9784 33.0938 30.8814C32.8913 30.7641 32.6888 30.6468 32.4863 30.5294C32.2768 30.4102 32.0672 30.2912 31.8575 30.1724C31.6259 30.0406 31.3943 29.9087 31.1628 29.7769C31.0756 29.7272 31.0756 29.7272 30.9866 29.6766C30.4026 29.3441 29.8203 29.0085 29.2383 28.6724C29.1401 28.6157 29.0419 28.5591 28.9407 28.5007C28.4672 28.2276 27.9942 27.9538 27.5222 27.6782C27.2971 27.5468 27.0718 27.4158 26.8464 27.2848C26.6872 27.192 26.5283 27.0988 26.3694 27.0055C26.2732 26.9497 26.177 26.8938 26.0779 26.8362C25.9933 26.7867 25.9087 26.7372 25.8214 26.6863C25.3836 26.452 25.3836 26.452 24.9511 26.6454Z" fill="#573FE7"/>
<path d="M38.8418 37.4204C39.4557 37.7656 39.9647 38.3531 40.1833 39.0307C40.3244 39.8033 40.2385 40.5115 39.8438 41.1939C39.4177 41.757 38.8654 42.1454 38.1674 42.2754C37.6632 42.3438 37.1564 42.3324 36.6485 42.332C36.5345 42.3323 36.4206 42.3326 36.3032 42.3329C35.9882 42.3336 35.6731 42.3338 35.358 42.3339C35.0178 42.3341 34.6775 42.3348 34.3373 42.3354C33.5941 42.3367 32.8509 42.3372 32.1077 42.3376C31.6437 42.3379 31.1796 42.3383 30.7156 42.3387C29.4306 42.3399 28.1456 42.3408 26.8606 42.3411C26.7784 42.3412 26.6962 42.3412 26.6116 42.3412C26.4881 42.3412 26.4881 42.3412 26.362 42.3413C26.1952 42.3413 26.0283 42.3414 25.8614 42.3414C25.7372 42.3414 25.7372 42.3414 25.6106 42.3415C24.2678 42.3418 22.9251 42.3435 21.5823 42.3456C20.2035 42.3479 18.8247 42.349 17.4458 42.3491C16.6718 42.3492 15.8977 42.3498 15.1236 42.3515C14.4649 42.3529 13.8061 42.3534 13.1474 42.3526C12.8113 42.3523 12.4752 42.3523 12.139 42.3537C11.7749 42.3551 11.4107 42.3543 11.0466 42.3533C10.94 42.3541 10.8335 42.3548 10.7238 42.3556C10.5775 42.3547 10.5775 42.3547 10.4282 42.3537C10.3022 42.3538 10.3022 42.3538 10.1735 42.3539C9.88121 42.3105 9.70712 42.2102 9.4688 42.0376C9.24891 41.7078 9.22693 41.5822 9.2813 41.1939C9.44844 40.9448 9.44844 40.9448 9.75005 40.7251C10.1218 40.6548 10.4895 40.6629 10.8668 40.6671C10.9813 40.6665 11.0957 40.6659 11.2137 40.6653C11.5312 40.6642 11.8486 40.6651 12.1661 40.6669C12.5085 40.6684 12.851 40.6671 13.1935 40.6662C13.7869 40.6649 14.3803 40.6653 14.9737 40.6668C15.8323 40.669 16.6908 40.6683 17.5494 40.6668C18.9432 40.6646 20.337 40.6642 21.7308 40.6652C21.8142 40.6652 21.8976 40.6653 21.9835 40.6653C22.1524 40.6655 22.3212 40.6656 22.49 40.6657C22.5737 40.6658 22.6574 40.6658 22.7437 40.6659C22.8693 40.666 22.8693 40.666 22.9975 40.6661C23.9278 40.6667 24.8581 40.6669 25.7884 40.6669C25.8717 40.6669 25.9549 40.6669 26.0408 40.6669C27.4292 40.6669 28.8177 40.6658 30.2061 40.664C31.0626 40.663 31.919 40.663 32.7755 40.6645C33.3623 40.6655 33.949 40.6656 34.5358 40.6648C34.8744 40.6644 35.213 40.6645 35.5516 40.6658C35.9186 40.6673 36.2856 40.6665 36.6526 40.6656C36.8133 40.6668 36.8133 40.6668 36.9772 40.6679C37.5008 40.6648 37.8959 40.6554 38.3438 40.3501C38.5676 40.0551 38.5756 39.7744 38.5313 39.4126C38.4194 39.1414 38.4194 39.1414 38.1563 38.9439C37.8941 38.8599 37.6351 38.7974 37.3649 38.7443C37.0768 38.6462 36.9923 38.5494 36.8438 38.2876C36.7895 37.923 36.8125 37.7736 37.0137 37.4615C37.4988 36.9764 38.2685 37.1512 38.8418 37.4204Z" fill="#573FE7"/>
<path d="M41.3672 30.5671C42.0461 31.1387 42.5933 31.808 42.6797 32.7234C42.6797 32.922 42.669 33.1206 42.6562 33.3188C42.7198 33.3259 42.7834 33.3329 42.8489 33.3401C43.8365 33.4796 44.6649 33.928 45.2812 34.7251C45.8292 35.6155 46.0868 36.5444 45.8939 37.5852C45.6448 38.5255 45.1534 39.3288 44.3438 39.8813C43.5205 40.3262 42.7491 40.4474 41.8125 40.3501C41.4961 40.1509 41.4961 40.1509 41.3438 39.8813C41.2782 39.532 41.3073 39.38 41.4891 39.075C41.7856 38.7846 42.0504 38.7634 42.4453 38.7212C43.0195 38.636 43.4226 38.5316 43.8354 38.095C44.2138 37.5773 44.3141 37.0978 44.2211 36.462C44.0829 35.9569 43.8343 35.5394 43.392 35.2488C42.9684 35.0475 42.5592 34.9522 42.0938 34.9126C42.0744 34.9648 42.0551 35.017 42.0352 35.0708C41.8004 35.4657 41.4918 35.708 41.0566 35.8501C40.7181 35.8501 40.5747 35.78 40.3125 35.5688C40.1303 35.3287 40.1236 35.2163 40.1426 34.9126C40.2197 34.6277 40.2965 34.468 40.5 34.2563C40.5619 34.2563 40.6237 34.2563 40.6875 34.2563C40.731 34.1461 40.731 34.1461 40.7754 34.0337C40.875 33.7876 40.875 33.7876 40.9688 33.6001C41.0242 33.0673 40.9943 32.6487 40.6875 32.1938C40.2367 31.7768 39.9045 31.7116 39.3135 31.7145C39.0703 31.7214 39.0703 31.7214 38.7422 31.7896C38.4375 31.8188 38.4375 31.8188 38.1738 31.7192C37.91 31.4855 37.8435 31.3207 37.7812 30.9751C37.864 30.6517 37.9783 30.4219 38.25 30.2251C39.2568 29.8 40.489 29.9237 41.3672 30.5671Z" fill="#573FE7"/>
<path d="M10.8731 36.4472C10.9868 36.4465 11.1006 36.4459 11.2178 36.4452C11.5291 36.4439 11.8403 36.4446 12.1516 36.4465C12.4776 36.448 12.8036 36.4472 13.1296 36.4467C13.677 36.4463 14.2243 36.4478 14.7716 36.4504C15.4042 36.4534 16.0368 36.4534 16.6694 36.4518C17.2783 36.4503 17.8873 36.4509 18.4962 36.4525C18.7552 36.4532 19.0142 36.4531 19.2732 36.4524C19.6348 36.4515 19.9963 36.4538 20.3579 36.4564C20.5192 36.4554 20.5192 36.4554 20.6837 36.4545C20.7821 36.4557 20.8805 36.4569 20.982 36.4581C21.1102 36.4585 21.1102 36.4585 21.2409 36.4589C21.54 36.5212 21.6533 36.648 21.8438 36.8814C21.912 37.1382 21.8981 37.3719 21.8438 37.6314C21.6685 37.8593 21.5362 37.9727 21.2813 38.1001C21.1315 38.1094 20.9813 38.1128 20.8313 38.1133C20.7362 38.1138 20.6412 38.1144 20.5433 38.1149C20.4386 38.115 20.334 38.1151 20.2261 38.1152C20.1162 38.1157 20.0063 38.1162 19.893 38.1166C19.5911 38.1178 19.2891 38.1185 18.9871 38.1189C18.7984 38.1192 18.6097 38.1195 18.4211 38.12C17.8308 38.1212 17.2404 38.1222 16.6501 38.1225C15.9687 38.1229 15.2873 38.1246 14.6059 38.1273C14.0792 38.1293 13.5526 38.1303 13.0259 38.1304C12.7113 38.1305 12.3968 38.131 12.0822 38.1327C11.7312 38.1343 11.3802 38.1341 11.0291 38.1335C10.873 38.1348 10.873 38.1348 10.7137 38.1362C9.82478 38.1313 9.82478 38.1313 9.4688 37.8189C9.24891 37.489 9.22693 37.3635 9.2813 36.9751C9.68944 36.3657 10.2064 36.4404 10.8731 36.4472Z" fill="#573FE7"/>
<path d="M23.748 19.1069C23.8453 19.1069 23.8453 19.1069 23.9445 19.1069C24.0809 19.1074 24.2174 19.1091 24.3539 19.1118C24.5619 19.1157 24.7697 19.1156 24.9778 19.115C26.1084 19.1233 26.1084 19.1233 26.5312 19.4438C26.6784 19.7381 26.658 19.9631 26.625 20.2876C26.3755 20.6145 26.2351 20.7418 25.8265 20.817C25.7011 20.8201 25.5756 20.8205 25.4502 20.8186C25.3833 20.8191 25.3164 20.8195 25.2475 20.82C25.1066 20.8203 24.9657 20.8194 24.8248 20.8175C24.6099 20.8149 24.3955 20.8174 24.1805 20.8204C24.0432 20.8201 23.9059 20.8195 23.7686 20.8186C23.6729 20.82 23.6729 20.82 23.5753 20.8215C23.2204 20.8128 23.069 20.7615 22.7877 20.5386C22.5938 20.2876 22.5938 20.2876 22.5352 19.9595C22.6594 19.2637 23.0927 19.1033 23.748 19.1069Z" fill="#573FE7"/>
<path d="M23.71 10.4845C23.7814 10.4839 23.8528 10.4833 23.9264 10.4827C24.077 10.4821 24.2277 10.4824 24.3783 10.4836C24.6087 10.4849 24.8387 10.4817 25.069 10.4781C25.2156 10.478 25.3622 10.4782 25.5088 10.4787C25.5775 10.4774 25.6461 10.4762 25.7169 10.4749C26.0715 10.4813 26.2205 10.5094 26.4809 10.7581C26.6584 11.0639 26.6831 11.2205 26.625 11.5689C26.4809 11.8171 26.4809 11.8171 26.25 12.0376C25.9838 12.0842 25.7745 12.1014 25.5088 12.0966C25.4374 12.0968 25.366 12.097 25.2924 12.0973C25.1417 12.0972 24.9911 12.0959 24.8404 12.0936C24.6101 12.0904 24.3801 12.0916 24.1498 12.0935C24.0032 12.0928 23.8566 12.0919 23.71 12.0907C23.6413 12.0912 23.5726 12.0916 23.5019 12.0921C23.1752 12.0846 22.9995 12.0615 22.738 11.8585C22.5814 11.6459 22.5428 11.5484 22.5469 11.2876C22.5454 11.1948 22.5454 11.1948 22.5439 11.1001C22.7015 10.507 23.1799 10.4809 23.71 10.4845Z" fill="#573FE7"/>
<path d="M7.59372 19.1626C7.86897 19.35 8.02697 19.4856 8.10751 19.8163C8.13125 20.1596 8.08957 20.3475 7.87497 20.6157C7.51529 20.7956 7.23793 20.847 6.84372 20.7564C6.56247 20.563 6.56247 20.563 6.37497 20.2876C6.32489 19.9308 6.32287 19.7256 6.49802 19.4087C6.81421 19.1042 7.17718 19.1195 7.59372 19.1626Z" fill="#573FE7"/>
<path d="M11.4375 19.1626C11.8687 19.3689 11.8687 19.3689 12 19.6314C12.0456 20.0338 12.0434 20.2239 11.8125 20.563C11.4998 20.778 11.3344 20.8274 10.9629 20.8014C10.6342 20.7199 10.4989 20.5613 10.3125 20.2876C10.2539 19.9595 10.2539 19.9595 10.3125 19.6314C10.6352 19.1718 10.8866 19.0839 11.4375 19.1626Z" fill="#573FE7"/>
<path d="M11.625 27.8814C11.9456 28.1333 11.9905 28.2824 12.0468 28.6841C11.993 29.0542 11.9172 29.1579 11.625 29.3814C11.3606 29.5135 11.1684 29.4981 10.875 29.4751C10.4407 29.2628 10.4407 29.2628 10.3125 29.0064C10.2597 28.3523 10.2597 28.3523 10.4414 28.022C10.8257 27.8024 11.194 27.7998 11.625 27.8814Z" fill="#573FE7"/>
<path d="M15.5917 19.2329C15.7939 19.3826 15.8577 19.486 15.9374 19.7251C15.9936 20.1022 15.9699 20.2409 15.7499 20.5571C15.435 20.7802 15.2766 20.8229 14.9003 20.7944C14.5846 20.7282 14.4484 20.6356 14.2499 20.3813C14.1839 20.0862 14.1833 19.8326 14.2499 19.5376C14.614 19.0853 15.0554 19.0589 15.5917 19.2329Z" fill="#573FE7"/>
<path d="M15.4687 27.8814C15.7976 28.1096 15.9162 28.237 15.9902 28.6314C15.9259 28.9744 15.8036 29.1331 15.5625 29.3814C15.2349 29.5451 14.8793 29.4617 14.5312 29.3814C14.3068 29.2114 14.2652 29.1018 14.2214 28.828C14.2008 28.5031 14.2207 28.3073 14.3847 28.022C14.7436 27.8119 15.0637 27.7985 15.4687 27.8814Z" fill="#573FE7"/>
<path d="M7.49123 27.8429C7.68752 27.8813 7.68752 27.8813 7.92775 28.0219C8.1175 28.3519 8.14041 28.6344 8.06252 29.0063C7.82358 29.3169 7.63098 29.4572 7.24221 29.5102C6.82114 29.4616 6.65504 29.3197 6.37502 29.0063C6.29411 28.5944 6.32553 28.4251 6.55666 28.0747C6.89429 27.8473 7.09212 27.8169 7.49123 27.8429Z" fill="#573FE7"/>
<path d="M15.5625 10.5376C15.8568 10.7758 15.9226 10.9171 15.9844 11.2876C15.9226 11.6581 15.8568 11.7994 15.5625 12.0376C15.1319 12.1198 14.7629 12.1164 14.3789 11.897C14.1951 11.5628 14.1782 11.2852 14.25 10.9126C14.5245 10.4135 15.054 10.4405 15.5625 10.5376Z" fill="#573FE7"/>
<path d="M7.46704 10.4991C7.6875 10.5376 7.6875 10.5376 7.93359 10.6782C8.11738 11.0124 8.13427 11.29 8.0625 11.6626C7.93359 11.897 7.93359 11.897 7.6875 12.0376C7.36383 12.0941 7.07316 12.0993 6.75 12.0376C6.4557 11.7994 6.38988 11.6581 6.32812 11.2876C6.44529 10.5846 6.81356 10.4616 7.46704 10.4991Z" fill="#573FE7"/>
<path d="M11.625 10.5376C11.8711 10.6782 11.8711 10.6782 12 10.9126C12.0718 11.2852 12.0549 11.5628 11.8711 11.897C11.4865 12.1167 11.1192 12.1064 10.6875 12.0376C10.4414 11.897 10.4414 11.897 10.3125 11.6626C10.2407 11.29 10.2576 11.0124 10.4414 10.6782C10.826 10.4585 11.1933 10.4688 11.625 10.5376Z" fill="#573FE7"/>
</svg>
