<svg width="48" height="49" viewBox="0 0 48 49" fill="none" xmlns="http://www.w3.org/2000/svg">
    <g clipPath="url(#clip0_86_1288)">
        <path
            d="M34.9687 11.6436C35.0929 11.7507 35.0929 11.7507 35.2196 11.86C38.3334 14.5767 40.2827 18.6688 40.582 22.7837C40.7602 27.3044 39.5253 31.6733 36.4687 35.0811C36.3973 35.1638 36.3259 35.2466 36.2523 35.3319C33.6944 38.2636 29.9196 40.163 26.0625 40.6123C25.9383 40.6277 25.9383 40.6277 25.8116 40.6434C21.6895 41.071 17.1888 39.9698 13.9178 37.353C13.6156 37.1031 13.3232 36.8429 13.0312 36.5811C12.907 36.4739 12.907 36.4739 12.7804 36.3646C9.67191 33.6526 7.85235 29.7012 7.43551 25.6299C7.13596 21.0617 8.47249 16.6431 11.4842 13.1691C14.2402 10.0432 17.9107 8.16225 22.0312 7.61231C22.1197 7.59998 22.2081 7.58765 22.2993 7.57495C26.8413 7.05305 31.5789 8.60303 34.9687 11.6436ZM20.2688 10.8426C19.5191 11.796 18.9555 12.8618 18.457 13.9639C18.4282 14.0264 18.3993 14.089 18.3696 14.1535C18.2243 14.4877 18.1712 14.6726 18.2812 15.0186C18.6659 15.0796 19.0507 15.14 19.4355 15.2002C19.5969 15.2258 19.5969 15.2258 19.7616 15.252C19.9216 15.2769 19.9216 15.2769 20.0848 15.3024C20.1815 15.3176 20.2782 15.3328 20.3779 15.3485C21.1685 15.453 21.9522 15.5025 22.7494 15.5063C22.8872 15.5073 22.8872 15.5073 23.0279 15.5083C23.3226 15.5099 23.6173 15.5105 23.9121 15.5107C24.0125 15.5109 24.1128 15.5111 24.2163 15.5112C26.0888 15.5114 27.8773 15.3635 29.7187 15.0186C29.8179 14.7203 29.8123 14.5695 29.6839 14.2839C29.6537 14.2157 29.6234 14.1475 29.5922 14.0772C29.5585 14.005 29.5249 13.9328 29.4902 13.8584C29.4559 13.7835 29.4217 13.7087 29.3864 13.6315C28.8911 12.567 28.3291 11.6019 27.5625 10.7061C27.4952 10.6185 27.4952 10.6185 27.4266 10.5292C26.6866 9.58557 25.5613 8.90708 24.375 8.73731C22.7036 8.60252 21.2855 9.59998 20.2688 10.8426ZM19.0781 9.52246C18.9731 9.56048 18.9731 9.56048 18.8659 9.59927C16.6492 10.4241 14.8607 11.642 13.125 13.2373C13.3739 13.4357 13.6057 13.5778 13.9006 13.6969C13.9773 13.728 14.0541 13.759 14.1332 13.791C14.2143 13.8229 14.2953 13.8548 14.3789 13.8877C14.4621 13.9207 14.5453 13.9537 14.631 13.9877C15.7693 14.4579 15.7693 14.4579 16.9687 14.6436C17.0152 14.5302 17.0618 14.4168 17.1097 14.3C17.8698 12.4616 18.674 10.8477 20.0625 9.39356C19.6837 9.26731 19.4376 9.39116 19.0781 9.52246ZM27.9375 9.29981C28.0148 9.38682 28.0922 9.47383 28.1718 9.56348C29.4742 11.0941 30.3191 12.7769 31.0312 14.6436C31.8013 14.5337 32.4931 14.3216 33.2168 14.04C33.3147 14.003 33.4127 13.966 33.5136 13.9278C33.98 13.7496 34.4346 13.5668 34.875 13.3311C34.5114 12.8816 34.1331 12.4941 33.6797 12.1357C33.6193 12.088 33.559 12.0402 33.4969 11.991C32.0956 10.9063 29.7908 9.29981 27.9375 9.29981ZM12.1875 14.2686C12.0355 14.4389 11.8971 14.6084 11.7597 14.79C11.6974 14.8722 11.6974 14.8722 11.6338 14.956C9.70716 17.5445 8.92879 20.3596 8.62497 23.5498C10.8525 23.5498 13.08 23.5498 15.375 23.5498C15.4723 23.2578 15.4888 23.0315 15.5024 22.7247C15.612 20.5887 15.8471 18.4722 16.4436 16.4094C16.5025 16.1316 16.5256 16.0228 16.4062 15.7686C16.1486 15.6374 16.1486 15.6374 15.8247 15.5466C15.7356 15.5182 15.7356 15.5182 15.6447 15.4892C15.4536 15.4285 15.262 15.3699 15.0703 15.3115C14.8214 15.2347 14.5729 15.1568 14.3247 15.0779C14.2331 15.0489 14.2331 15.0489 14.1396 15.0193C13.6072 14.8457 13.111 14.6214 12.608 14.3747C12.3892 14.2556 12.3892 14.2556 12.1875 14.2686ZM35.2485 14.4301C35.1708 14.4648 35.093 14.4995 35.0129 14.5353C34.9287 14.5729 34.8445 14.6106 34.7578 14.6494C33.9337 15.014 33.1042 15.3048 32.2356 15.545C32.1528 15.5691 32.0701 15.5932 31.9848 15.618C31.9114 15.6382 31.8381 15.6584 31.7624 15.6791C31.5787 15.7542 31.5787 15.7542 31.5174 15.9414C31.4984 16.1619 31.5225 16.3152 31.5802 16.5284C31.5997 16.6039 31.6192 16.6794 31.6394 16.7571C31.661 16.8389 31.6827 16.9206 31.705 17.0049C32.2005 18.9944 32.4091 20.9736 32.5093 23.0156C32.5221 23.2776 32.5221 23.2776 32.625 23.5498C34.8525 23.5498 37.08 23.5498 39.375 23.5498C39.2571 22.0466 39.2571 22.0466 38.9824 20.585C38.9622 20.5047 38.9421 20.4244 38.9213 20.3417C38.3854 18.2861 37.4861 16.4187 36.1875 14.7373C36.1205 14.6481 36.0536 14.5589 35.9846 14.467C35.9278 14.4015 35.871 14.336 35.8125 14.2686C35.5839 14.2686 35.4566 14.3352 35.2485 14.4301ZM17.7187 16.1436C17.2494 17.5116 16.9978 18.9193 16.8105 20.3506C16.7993 20.4333 16.7881 20.516 16.7766 20.6012C16.6561 21.5852 16.6391 22.5514 16.5937 23.5498C21.4818 23.5498 26.37 23.5498 31.4062 23.5498C31.3335 21.8155 31.3335 21.8155 31.1543 20.0986C31.1385 19.9817 31.1226 19.8649 31.1064 19.7444C30.8739 17.8947 30.8739 17.8947 30.2812 16.1436C30.2034 16.1538 30.1256 16.1641 30.0454 16.1747C29.7879 16.2078 29.5304 16.2397 29.2727 16.2706C28.9307 16.3117 28.5898 16.358 28.2487 16.4061C25.3636 16.7888 22.3593 16.7744 19.4779 16.3675C19.1548 16.3221 18.8311 16.2831 18.5071 16.2442C18.2441 16.2124 17.9814 16.1782 17.7187 16.1436ZM8.62497 24.6748C8.74281 26.178 8.74281 26.178 9.01755 27.6397C9.0377 27.7199 9.05786 27.8002 9.07863 27.883C9.67087 30.1545 10.7158 32.135 12.1875 33.9561C12.6739 33.8025 13.1402 33.611 13.6113 33.417C14.3488 33.1147 15.09 32.8589 15.8597 32.651C16.0964 32.5866 16.0964 32.5866 16.4062 32.4561C16.5236 32.1787 16.4969 31.9814 16.4198 31.6962C16.4002 31.6207 16.3807 31.5452 16.3606 31.4675C16.3389 31.3857 16.3172 31.304 16.2949 31.2197C15.7994 29.2302 15.5908 27.251 15.4906 25.209C15.4778 24.947 15.4778 24.947 15.375 24.6748C13.1475 24.6748 10.92 24.6748 8.62497 24.6748ZM16.5937 24.6748C16.6665 26.4091 16.6665 26.4091 16.8457 28.126C16.8615 28.2429 16.8773 28.3598 16.8936 28.4802C17.126 30.3299 17.126 30.3299 17.7187 32.0811C17.8371 32.0656 17.8371 32.0656 17.9579 32.0499C18.2166 32.0169 18.4753 31.9851 18.7342 31.954C19.065 31.914 19.3942 31.8678 19.7237 31.8185C22.6003 31.4155 25.6618 31.4275 28.5343 31.8571C28.8508 31.9038 29.1681 31.9423 29.4858 31.9804C29.7512 32.0123 30.0162 32.0466 30.2812 32.0811C30.7505 30.713 31.0022 29.3053 31.1894 27.874C31.2006 27.7913 31.2118 27.7086 31.2233 27.6234C31.3438 26.6394 31.3608 25.6732 31.4062 24.6748C26.5181 24.6748 21.63 24.6748 16.5937 24.6748ZM32.625 24.6748C32.5276 24.9668 32.5112 25.1931 32.4975 25.4999C32.3879 27.636 32.1529 29.7524 31.5564 31.8152C31.4974 32.093 31.4744 32.2019 31.5937 32.4561C31.8513 32.5872 31.8513 32.5872 32.1753 32.678C32.2347 32.6969 32.2941 32.7159 32.3553 32.7354C32.5463 32.7961 32.7379 32.8547 32.9297 32.9131C33.1785 32.9899 33.427 33.0679 33.6753 33.1467C33.7365 33.1659 33.7977 33.1851 33.8607 33.2049C34.3925 33.377 34.8783 33.6085 35.3737 33.8682C35.6161 33.9802 35.6161 33.9802 35.8306 33.8963C36.0062 33.7638 36.1214 33.6425 36.2497 33.4642C36.2945 33.4021 36.3392 33.34 36.3853 33.276C36.4322 33.2085 36.479 33.1409 36.5273 33.0713C36.5765 33.0006 36.6257 32.9299 36.6764 32.857C37.7673 31.2546 38.5111 29.5165 38.9824 27.6397C39.0007 27.5691 39.019 27.4986 39.0378 27.426C39.251 26.5132 39.2846 25.6239 39.375 24.6748C37.1475 24.6748 34.92 24.6748 32.625 24.6748ZM18.2812 33.2061C18.1832 33.5021 18.1866 33.6533 18.3127 33.9374C18.3425 34.0051 18.3723 34.0729 18.403 34.1427C18.4363 34.2145 18.4696 34.2863 18.5039 34.3604C18.5378 34.4349 18.5718 34.5095 18.6068 34.5863C19.0986 35.6423 19.6909 36.622 20.4375 37.5186C20.509 37.6133 20.5806 37.708 20.6543 37.8057C21.461 38.6874 22.5338 39.4001 23.7491 39.5063C25.003 39.5312 26.1502 38.9889 27.0582 38.1345C28.2288 36.8697 29.2972 35.2389 29.8125 33.5811C29.7751 33.3807 29.7751 33.3807 29.7187 33.2061C29.334 33.145 28.9492 33.0846 28.5644 33.0244C28.4568 33.0073 28.3492 32.9902 28.2383 32.9726C28.1317 32.956 28.025 32.9394 27.9151 32.9222C27.8184 32.907 27.7217 32.8918 27.622 32.8761C26.8315 32.7716 26.0477 32.7221 25.2506 32.7183C25.1587 32.7176 25.0667 32.717 24.972 32.7163C24.6773 32.7147 24.3826 32.7141 24.0879 32.7139C23.9875 32.7137 23.8871 32.7136 23.7837 32.7134C21.9112 32.7132 20.1226 32.8611 18.2812 33.2061ZM31.0312 33.5811C30.9847 33.6944 30.9382 33.8078 30.8902 33.9246C30.1301 35.763 29.3259 37.377 27.9375 38.8311C28.3162 38.9573 28.5623 38.8334 28.9218 38.7021C28.9919 38.6768 29.0619 38.6515 29.134 38.6253C31.3507 37.8005 33.1393 36.5827 34.875 34.9873C34.626 34.7889 34.3942 34.6468 34.0993 34.5277C34.0226 34.4967 33.9458 34.4656 33.8668 34.4336C33.7451 34.3857 33.7451 34.3857 33.6211 34.3369C33.5379 34.3039 33.4547 34.2709 33.3689 34.2369C32.2306 33.7667 32.2306 33.7667 31.0312 33.5811ZM14.1152 34.4424C14.0381 34.4747 13.961 34.507 13.8816 34.5403C13.47 34.7123 13.47 34.7123 13.125 34.9873C13.565 35.4475 14.0239 35.8567 14.5312 36.2412C14.6006 36.2939 14.6701 36.3465 14.7416 36.4008C16.2265 37.5098 17.966 38.4889 19.7812 38.9248C19.874 38.8939 19.9668 38.8629 20.0625 38.8311C20.0028 38.7763 20.0028 38.7763 19.942 38.7205C19.4691 38.2694 19.1025 37.7864 18.75 37.2373C18.7148 37.183 18.6796 37.1286 18.6434 37.0726C17.936 35.9672 17.4357 34.8051 16.9687 33.5811C16.0187 33.5811 14.9775 34.0799 14.1152 34.4424Z"
            fill="#573FE7" />
        <path
            d="M43.9278 30.0361C44.2501 30.1123 44.2501 30.1123 44.4376 30.3936C44.4122 30.9911 44.2376 31.4856 44.0098 32.0342C43.9596 32.1569 43.9596 32.1569 43.9084 32.2822C42.9608 34.5628 41.6691 36.6098 40.0313 38.4561C39.9851 38.5082 39.9389 38.5603 39.8913 38.614C36.4203 42.5048 31.3734 45.1009 26.1563 45.4873C26.1439 45.559 26.1314 45.6306 26.1186 45.7045C25.9859 46.3002 25.5862 46.6247 25.1159 46.9686C24.5934 47.298 23.9365 47.2209 23.3438 47.1748C22.7578 47.0221 22.358 46.6423 22.0313 46.1436C21.7111 45.5515 21.6493 44.9629 21.8083 44.311C22.0412 43.6277 22.446 43.1706 23.0933 42.8469C23.7036 42.656 24.4892 42.6496 25.0782 42.9151C25.579 43.2171 25.9033 43.6574 26.1563 44.1748C31.513 43.5192 36.4181 40.9707 39.815 36.7187C41.1859 34.9644 42.2214 33.0468 43.0022 30.9654C43.0388 30.8694 43.0753 30.7734 43.113 30.6745C43.1448 30.5886 43.1766 30.5027 43.2094 30.4142C43.3854 30.059 43.5417 30.0158 43.9278 30.0361ZM23.0274 44.5264C22.9343 44.8616 22.9536 45.1616 23.0626 45.4873C23.2914 45.7553 23.461 45.9163 23.8093 46.0007C24.1852 46.0282 24.3651 45.9619 24.6973 45.7686C24.9542 45.4678 25.0321 45.3103 25.054 44.9244C25.0154 44.6059 24.8607 44.4132 24.6563 44.1748C24.0165 43.7483 23.4718 43.9608 23.0274 44.5264Z"
            fill="#573FE7" />
        <path
            d="M25.0782 1.19629C25.6294 1.53273 26.0074 2.02144 26.2061 2.63404C26.3476 3.26861 26.2773 3.8522 25.9688 4.42481C25.6207 4.97151 25.1919 5.29342 24.5625 5.45606C23.8479 5.54849 23.1998 5.49266 22.5938 5.08106C22.2624 4.77388 22.0416 4.45352 21.8438 4.04981C17.6243 4.54621 13.7717 6.1811 10.5938 9.01856C10.5135 9.08744 10.4333 9.15633 10.3506 9.2273C7.88165 11.3759 6.13922 14.2168 4.99787 17.2592C4.96132 17.3552 4.92477 17.4512 4.88712 17.5502C4.85528 17.636 4.82345 17.7219 4.79064 17.8104C4.68753 18.0186 4.68753 18.0186 4.40628 18.2061C4.0723 18.1885 4.0723 18.1885 3.75003 18.1123C3.53768 17.7938 3.5506 17.6614 3.60826 17.2935C3.69502 16.9097 3.83973 16.553 3.99027 16.1904C4.02375 16.1086 4.05723 16.0268 4.09173 15.9424C5.0402 13.6596 6.3337 11.6194 7.96878 9.76856C8.01146 9.71996 8.05413 9.67136 8.0981 9.62129C11.5441 5.71506 16.6416 3.12266 21.8438 2.73731C21.8562 2.66564 21.8687 2.59398 21.8815 2.52014C22.0142 1.92446 22.4139 1.5999 22.8842 1.25598C23.47 0.886663 24.4581 0.914547 25.0782 1.19629ZM23.0625 2.73731C22.9635 2.99511 22.9355 3.21308 22.9688 3.48731C23.1533 3.84314 23.2916 4.01501 23.625 4.23731C24.1648 4.29019 24.1648 4.29019 24.6446 4.07324C24.9682 3.73058 25.0313 3.60145 25.0313 3.11817C24.9788 2.79532 24.9242 2.72173 24.6973 2.45606C24.0568 2.0834 23.5579 2.15732 23.0625 2.73731Z"
            fill="#573FE7" />
        <path
            d="M4.31246 22.1436C4.81395 22.4721 5.18255 22.8706 5.34371 23.4561C5.43462 24.1965 5.40239 24.8914 4.96871 25.5186C4.66109 25.8497 4.34132 26.0707 3.93746 26.2686C4.60303 31.7068 7.21938 36.6316 11.5488 40.0498C13.2693 41.3586 15.125 42.356 17.1469 43.1145C17.2429 43.151 17.3389 43.1876 17.4378 43.2252C17.5237 43.2571 17.6096 43.2889 17.698 43.3217C17.9062 43.4248 17.9062 43.4248 18.0937 43.7061C18.0761 44.0401 18.0761 44.0401 18 44.3623C17.6814 44.5747 17.5491 44.5618 17.1811 44.5041C16.7974 44.4173 16.4407 44.2726 16.0781 44.1221C15.9962 44.0886 15.9144 44.0551 15.8301 44.0206C13.5472 43.0722 11.5071 41.7787 9.65621 40.1436C9.60761 40.1009 9.55901 40.0582 9.50894 40.0143C5.60271 36.5683 3.01031 31.4708 2.62496 26.2686C2.51746 26.2499 2.51746 26.2499 2.40779 26.2309C1.81211 26.0982 1.48755 25.6985 1.14363 25.2282C0.814223 24.7056 0.891409 24.0488 0.937456 23.4561C1.09016 22.8701 1.46995 22.4703 1.96871 22.1436C2.7261 21.734 3.55507 21.734 4.31246 22.1436ZM2.26753 23.5205C2.10208 23.8427 2.08658 24.1385 2.15621 24.4873C2.33416 24.7932 2.46491 24.9924 2.8066 25.115C3.13431 25.1734 3.32894 25.163 3.63863 25.0322C3.99708 24.7352 4.11036 24.6004 4.17183 24.124C4.15761 23.807 4.10712 23.7067 3.93746 23.4151C3.63365 23.1556 3.47575 23.0855 3.08675 23.065C2.72492 23.0973 2.52364 23.2821 2.26753 23.5205Z"
            fill="#573FE7" />
        <path
            d="M31.0312 3.76856C31.3353 3.8634 31.6278 3.98047 31.9219 4.10254C32.0037 4.13602 32.0856 4.16951 32.1699 4.204C34.4527 5.15247 36.4929 6.44598 38.3438 8.08106C38.3923 8.12373 38.4409 8.16641 38.491 8.21037C42.3972 11.6563 44.9897 16.7538 45.375 21.9561C45.4467 21.9685 45.5183 21.981 45.5922 21.9938C46.1878 22.1264 46.5124 22.5262 46.8563 22.9965C47.1857 23.519 47.1085 24.1759 47.0625 24.7686C46.9098 25.3545 46.53 25.7543 46.0312 26.0811C45.4595 26.3903 44.8744 26.4598 44.2405 26.3184C43.6015 26.1111 43.1127 25.7321 42.8027 25.1318C42.5691 24.5274 42.5465 23.9094 42.7357 23.2894C43.019 22.6509 43.4427 22.266 44.0625 21.9561C43.3969 16.5178 40.7806 11.593 36.4512 8.17481C34.7325 6.86737 32.8787 5.86287 30.8531 5.11839C30.7571 5.08214 30.6611 5.04589 30.5621 5.00855C30.4763 4.9772 30.3904 4.94586 30.3019 4.91356C30.0569 4.77967 29.9939 4.68679 29.9062 4.42481C29.9249 4.16952 29.9737 4.0024 30.0996 3.78027C30.3983 3.60682 30.7071 3.7008 31.0312 3.76856ZM44.0625 23.4561C43.8305 23.804 43.8027 24.0841 43.875 24.4873C44.053 24.7932 44.1837 24.9924 44.5254 25.115C44.8531 25.1733 45.0477 25.163 45.3574 25.0322C45.7159 24.7352 45.8292 24.6004 45.8906 24.124C45.8764 23.807 45.8259 23.7066 45.6562 23.415C45.3555 23.1582 45.1979 23.0802 44.8121 23.0584C44.4935 23.097 44.3009 23.2517 44.0625 23.4561Z"
            fill="#573FE7" />
    </g>
    <defs>
        <clipPath id="clip0_86_1288">
            <rect width="48" height="48" fill="white" transform="translate(0 0.112305)" />
        </clipPath>
    </defs>
</svg>