<svg width="48" height="49" viewBox="0 0 48 49" fill="none" xmlns="http://www.w3.org/2000/svg">
    <g clipPath="url(#clip0_275_5753)">
        <path
            d="M15.5667 5.15403C15.7041 5.15355 15.8414 5.15288 15.9787 5.15201C16.3563 5.15023 16.7337 5.15139 17.1112 5.15302C17.5183 5.15427 17.9254 5.15282 18.3325 5.15172C19.13 5.15 19.9275 5.1508 20.725 5.15248C21.3731 5.15379 22.0211 5.15416 22.6692 5.15384C22.7613 5.1538 22.8535 5.15376 22.9485 5.15371C23.1357 5.15361 23.3229 5.15351 23.5101 5.15341C25.1664 5.15261 26.8226 5.15417 28.4789 5.15696C30.0867 5.15966 31.6945 5.16033 33.3024 5.15888C35.0524 5.15731 36.8024 5.15693 38.5525 5.15857C38.739 5.15875 38.9255 5.15892 39.1121 5.15909C39.2498 5.15922 39.2498 5.15922 39.3902 5.15935C40.0377 5.15987 40.6851 5.15956 41.3325 5.15894C42.1212 5.15822 42.91 5.15885 43.6988 5.16121C44.1014 5.16238 44.5039 5.16296 44.9065 5.16191C45.2749 5.16097 45.6432 5.16176 46.0116 5.16393C46.145 5.16442 46.2785 5.16427 46.4119 5.16343C46.593 5.16238 46.774 5.16386 46.9551 5.16547C47.0558 5.16558 47.1565 5.16569 47.2602 5.16581C47.6083 5.22631 47.7616 5.32823 48 5.58792C48.0585 5.84867 48.0585 5.84867 48.0585 6.15571C48.0596 6.27281 48.0607 6.38991 48.0618 6.51056C48.0607 6.64074 48.0595 6.77092 48.0583 6.9011C48.0587 7.0392 48.0593 7.17731 48.0601 7.31542C48.0617 7.69547 48.0603 8.07545 48.0585 8.4555C48.0571 8.86514 48.0583 9.27478 48.0593 9.68442C48.0606 10.4871 48.0595 11.2898 48.0575 12.0925C48.0552 13.0267 48.0554 13.961 48.0556 14.8952C48.056 16.5618 48.054 18.2284 48.0508 19.895C48.0477 21.5132 48.0464 23.1314 48.047 24.7496C48.0476 26.5105 48.0474 28.2715 48.0455 30.0324C48.0454 30.1255 48.0453 30.2186 48.0452 30.3145C48.045 30.5014 48.0448 30.6884 48.0446 30.8753C48.044 31.5269 48.0439 32.1786 48.0441 32.8302C48.0442 33.624 48.0433 34.4178 48.0411 35.2117C48.04 35.6169 48.0393 36.0221 48.0398 36.4274C48.0403 36.798 48.0395 37.1687 48.0377 37.5394C48.0372 37.6737 48.0372 37.8081 48.0378 37.9425C48.0385 38.1246 48.0372 38.3068 48.0359 38.4889C48.0358 38.5902 48.0356 38.6915 48.0355 38.7959C47.9951 39.0927 47.9278 39.22 47.7188 39.4317C47.3773 39.5455 47.065 39.5381 46.7097 39.5367C46.5973 39.5368 46.5973 39.5368 46.4827 39.5369C46.2309 39.5371 45.9792 39.5366 45.7274 39.5361C45.5473 39.536 45.3671 39.536 45.187 39.5361C44.6971 39.5361 44.2073 39.5356 43.7175 39.5349C43.2058 39.5343 42.6942 39.5343 42.1826 39.5342C41.2134 39.5339 40.2443 39.5331 39.2751 39.5322C38.1719 39.5311 37.0687 39.5306 35.9654 39.5301C33.6957 39.5292 31.426 39.5275 29.1562 39.5254C29.1587 39.5858 29.1612 39.6462 29.1637 39.7085C29.1735 39.9873 29.1796 40.266 29.1855 40.545C29.1895 40.6399 29.1934 40.7349 29.1974 40.8328C29.2097 41.5966 29.0498 42.2241 28.5228 42.7987C27.8611 43.4211 27.2041 43.5043 26.3295 43.4986C26.2249 43.4991 26.1204 43.4995 26.0127 43.5C25.6628 43.5011 25.3129 43.5002 24.963 43.4993C24.7119 43.4997 24.4609 43.5002 24.2099 43.5008C23.599 43.5021 22.9882 43.5018 22.3774 43.501C21.8808 43.5003 21.3842 43.5002 20.8877 43.5006C20.7816 43.5006 20.7816 43.5006 20.6733 43.5007C20.5296 43.5008 20.386 43.5009 20.2423 43.501C18.8954 43.5018 17.5485 43.5008 16.2016 43.4993C15.0466 43.4981 13.8916 43.4983 12.7366 43.4996C11.3946 43.5011 10.0527 43.5017 8.71069 43.5008C8.5675 43.5007 8.42432 43.5006 8.28114 43.5006C8.21069 43.5005 8.14025 43.5005 8.06767 43.5004C7.57189 43.5002 7.07612 43.5006 6.58035 43.5013C5.97587 43.502 5.37139 43.5018 4.76691 43.5003C4.45865 43.4996 4.15041 43.4995 3.84215 43.5002C3.50764 43.501 3.17317 43.5 2.83866 43.4986C2.74171 43.4993 2.64476 43.4999 2.54487 43.5005C1.80776 43.4945 1.16142 43.3807 0.597358 42.8571C-0.0541719 42.1268 -0.0686656 41.3825 -0.0589597 40.4391C-0.0590375 40.3013 -0.0592687 40.1635 -0.0596449 40.0256C-0.0599116 39.7381 -0.0585471 39.4506 -0.0559613 39.1631C-0.0527633 38.7962 -0.0533323 38.4296 -0.0550859 38.0627C-0.056081 37.7785 -0.0552354 37.4944 -0.0538313 37.2102C-0.0533487 37.0751 -0.0533864 36.9399 -0.0539758 36.8047C-0.0563484 35.9339 -0.0189978 35.324 0.542725 34.631C1.43099 33.8543 2.15774 33.9004 3.375 33.9004C3.375 32.8795 3.375 31.8585 3.375 30.8067C3.11397 30.8144 2.85293 30.8221 2.58398 30.8301C1.81901 30.8364 1.23682 30.7966 0.654785 30.2563C0.169785 29.7348 -0.0224837 29.3151 -0.0272367 28.595C-0.0284329 28.4717 -0.0296291 28.3484 -0.0308616 28.2214C-0.0311483 28.0874 -0.0313571 27.9534 -0.0314939 27.8195C-0.032097 27.6811 -0.0327278 27.5428 -0.033385 27.4044C-0.0345061 27.1146 -0.0348552 26.8249 -0.034744 26.5351C-0.034725 26.1653 -0.0372821 25.7957 -0.0405132 25.4259C-0.042607 25.1401 -0.0429782 24.8544 -0.0428793 24.5686C-0.0430994 24.4324 -0.0439225 24.2961 -0.0453798 24.1599C-0.0535395 23.3183 -0.0335943 22.6665 0.532105 21.9953C0.582741 21.9543 0.633377 21.9133 0.685547 21.8711C0.760413 21.8079 0.760413 21.8079 0.836792 21.7433C1.51439 21.3107 2.08174 21.2988 2.87217 21.306C2.99022 21.306 3.10828 21.3059 3.22991 21.3059C3.55199 21.3058 3.87404 21.3074 4.19612 21.3094C4.53332 21.3112 4.87051 21.3113 5.20772 21.3117C5.84552 21.3125 6.48331 21.3148 7.12111 21.3177C7.84753 21.3208 8.57395 21.3224 9.30037 21.3238C10.794 21.3267 12.2876 21.3316 13.7813 21.3379C13.7806 21.2175 13.7806 21.2175 13.7799 21.0947C13.7696 19.1426 13.7618 17.1904 13.757 15.2382C13.7545 14.2942 13.7512 13.3501 13.7459 12.4061C13.7412 11.5833 13.7382 10.7606 13.7371 9.93782C13.7365 9.5021 13.7351 9.06641 13.7317 8.6307C13.7285 8.22063 13.7275 7.81062 13.7282 7.40054C13.7281 7.25001 13.7272 7.09948 13.7254 6.94896C13.723 6.74338 13.7236 6.538 13.7249 6.33241C13.7242 6.15988 13.7242 6.15988 13.7236 5.98386C13.7812 5.68167 13.7813 5.68167 13.9369 5.4103C14.4456 5.0896 14.9805 5.14875 15.5667 5.15403ZM15.375 6.80667C15.375 11.602 15.375 16.3973 15.375 21.3379C19.3213 21.3539 19.3213 21.3539 23.2676 21.3658C24.0319 21.3701 24.0319 21.3701 24.39 21.3726C24.6394 21.3739 24.8888 21.3747 25.1382 21.3746C25.5167 21.3745 25.895 21.3774 26.2734 21.3805C26.4393 21.3798 26.4393 21.3798 26.6086 21.3791C27.2555 21.3873 27.6627 21.474 28.2188 21.8067C28.3116 21.8376 28.4044 21.8685 28.5 21.9004C28.5991 22.0712 28.5991 22.0712 28.6875 22.2754C28.7363 22.3615 28.7363 22.3615 28.7861 22.4493C29.128 23.1063 29.1168 23.7357 29.1123 24.4639C29.1126 24.5931 29.1129 24.7223 29.1134 24.8515C29.1139 25.121 29.1132 25.3904 29.1114 25.6599C29.1093 26.0032 29.1105 26.3463 29.1127 26.6896C29.1141 26.956 29.1136 27.2224 29.1127 27.4888C29.1123 27.6762 29.1134 27.8636 29.1146 28.051C29.1062 28.8755 28.9973 29.4819 28.4766 30.1328C27.859 30.6241 27.3125 30.7698 26.5312 30.7832C26.2528 30.791 25.9744 30.7987 25.6875 30.8067C25.6875 31.8276 25.6875 32.8485 25.6875 33.9004C26.2707 33.947 26.2707 33.947 26.8541 33.99C27.4947 34.0476 28.028 34.1916 28.5022 34.6438C28.544 34.704 28.5858 34.7642 28.6289 34.8262C28.6722 34.8859 28.7154 34.9456 28.76 35.0071C29.2841 35.945 29.1065 36.7881 29.1562 37.9317C34.8797 37.9317 40.6031 37.9317 46.5 37.9317C46.5 27.6604 46.5 17.3892 46.5 6.80667C36.2288 6.80667 25.9575 6.80667 15.375 6.80667ZM1.72335 23.1109C1.49605 23.4543 1.48813 23.7508 1.48638 24.1557C1.48578 24.2499 1.48519 24.3441 1.48457 24.4411C1.48447 24.5423 1.48436 24.6435 1.48425 24.7477C1.48394 24.8522 1.48363 24.9567 1.48331 25.0643C1.48283 25.2852 1.48261 25.5061 1.48263 25.727C1.48242 26.0648 1.48072 26.4026 1.47894 26.7404C1.47867 26.9551 1.47848 27.1698 1.47839 27.3844C1.47772 27.4854 1.47705 27.5864 1.47635 27.6905C1.47664 27.7849 1.47693 27.8794 1.47723 27.9768C1.47709 28.0595 1.47696 28.1423 1.47682 28.2276C1.5097 28.5614 1.59879 28.82 1.80839 29.0839C2.01562 29.2506 2.1303 29.2483 2.39443 29.2488C2.48223 29.2497 2.57002 29.2505 2.66047 29.2514C2.8054 29.2507 2.8054 29.2507 2.95326 29.2499C3.10702 29.2508 3.10702 29.2507 3.26389 29.2516C3.60915 29.2532 3.95438 29.2527 4.29964 29.2523C4.54645 29.253 4.79327 29.2538 5.04008 29.2547C5.64198 29.2567 6.24386 29.2571 6.84576 29.2569C7.33493 29.2568 7.82409 29.2572 8.31325 29.2579C8.45404 29.2581 8.59482 29.2582 8.7356 29.2584C8.8407 29.2586 8.8407 29.2586 8.94792 29.2587C10.2738 29.2605 11.5997 29.2604 12.9256 29.2598C14.139 29.2593 15.3523 29.2612 16.5657 29.2643C17.811 29.2675 19.0563 29.2689 20.3016 29.2685C21.001 29.2683 21.7004 29.2687 22.3997 29.2711C22.9952 29.273 23.5906 29.2734 24.1861 29.2716C24.4899 29.2708 24.7937 29.2709 25.0976 29.2726C25.4269 29.2743 25.7561 29.2731 26.0854 29.2712C26.1816 29.2724 26.2778 29.2735 26.377 29.2747C26.8193 29.2692 27.0259 29.2642 27.3874 28.9909C27.5913 28.7036 27.6217 28.5574 27.6232 28.2079C27.6246 28.1024 27.6261 27.997 27.6276 27.8883C27.6267 27.7753 27.6257 27.6623 27.6248 27.5459C27.6254 27.3707 27.6254 27.3707 27.6261 27.1919C27.6265 26.8819 27.6246 26.5721 27.622 26.2621C27.6211 26.0724 27.622 25.8828 27.6236 25.6931C27.6265 25.3283 27.6262 24.9635 27.6248 24.5987C27.6262 24.4292 27.6262 24.4292 27.6276 24.2562C27.6262 24.1508 27.6247 24.0454 27.6232 23.9367C27.6226 23.798 27.6226 23.798 27.622 23.6565C27.5352 23.2828 27.4002 23.1634 27.0938 22.9317C26.7582 22.8619 26.4277 22.8688 26.0861 22.8728C25.932 22.8718 25.932 22.8718 25.7747 22.8708C25.4298 22.8691 25.085 22.8708 24.7401 22.8725C24.4931 22.872 24.2461 22.8714 23.9991 22.8705C23.3975 22.8687 22.7959 22.8695 22.1943 22.8712C21.7055 22.8725 21.2167 22.8729 20.7278 22.8726C20.6235 22.8725 20.6235 22.8725 20.517 22.8725C20.3757 22.8724 20.2344 22.8723 20.0931 22.8722C18.8435 22.8714 17.594 22.8729 16.3444 22.8757C15.1316 22.8784 13.9187 22.8791 12.7058 22.8776C11.3854 22.8761 10.0649 22.8757 8.74442 22.8773C8.60366 22.8775 8.46291 22.8777 8.32215 22.8778C8.21826 22.878 8.21826 22.878 8.11228 22.8781C7.62389 22.8786 7.13551 22.8783 6.64712 22.8777C5.99004 22.8769 5.333 22.8781 4.67593 22.8807C4.43435 22.8813 4.19278 22.8813 3.9512 22.8807C3.62228 22.8798 3.29345 22.8813 2.96453 22.8834C2.82001 22.8823 2.82001 22.8823 2.67257 22.8811C2.16289 22.8797 2.16289 22.8797 1.72335 23.1109ZM4.96875 30.8067C4.96875 31.8276 4.96875 32.8485 4.96875 33.9004C11.28 33.9004 17.5913 33.9004 24.0938 33.9004C24.0938 32.8795 24.0938 31.8585 24.0938 30.8067C17.7825 30.8067 11.4713 30.8067 4.96875 30.8067ZM1.6875 35.7754C1.51006 36.0983 1.47639 36.3727 1.47574 36.7375C1.47515 36.8335 1.47456 36.9296 1.47395 37.0285C1.47433 37.1313 1.47471 37.234 1.4751 37.3399C1.47492 37.4463 1.47474 37.5527 1.47455 37.6624C1.47443 37.8871 1.47477 38.1119 1.47556 38.3366C1.47656 38.6804 1.47556 39.0242 1.47437 39.368C1.47449 39.5865 1.47473 39.805 1.4751 40.0235C1.47472 40.1262 1.47434 40.229 1.47395 40.3348C1.47454 40.4309 1.47513 40.5269 1.47574 40.6259C1.47589 40.71 1.47604 40.7942 1.47619 40.8809C1.51195 41.2387 1.58455 41.4944 1.85499 41.7401C2.09353 41.8885 2.21981 41.9045 2.49826 41.9051C2.62973 41.9064 2.62973 41.9064 2.76387 41.9077C2.85985 41.9072 2.95583 41.9067 3.05472 41.9061C3.20803 41.907 3.20803 41.907 3.36444 41.9079C3.70811 41.9094 4.05175 41.909 4.39542 41.9085C4.64133 41.9092 4.88723 41.91 5.13314 41.9109C5.73245 41.9129 6.33176 41.9133 6.93107 41.9132C7.41814 41.9131 7.9052 41.9134 8.39226 41.9141C8.53249 41.9143 8.67272 41.9145 8.81295 41.9147C8.88274 41.9148 8.95254 41.9149 9.02445 41.915C10.3448 41.9168 11.6651 41.9167 12.9854 41.916C14.1936 41.9155 15.4018 41.9175 16.61 41.9206C17.8502 41.9237 19.0904 41.9251 20.3307 41.9247C21.0271 41.9245 21.7235 41.925 22.42 41.9273C23.0747 41.9295 23.7295 41.9292 24.3842 41.9273C24.6249 41.927 24.8655 41.9275 25.1061 41.9288C25.434 41.9305 25.7617 41.9293 26.0896 41.9274C26.2333 41.9292 26.2333 41.9292 26.3798 41.931C26.8213 41.9254 27.0264 41.9201 27.3872 41.6472C27.5916 41.3595 27.6213 41.2141 27.6217 40.8641C27.6228 40.7587 27.624 40.6532 27.6252 40.5446C27.624 40.4316 27.6227 40.3186 27.6215 40.2022C27.6218 40.0269 27.6218 40.0269 27.6221 39.8481C27.622 39.5382 27.6197 39.2283 27.6165 38.9184C27.6152 38.7287 27.6156 38.5391 27.6165 38.3494C27.6183 37.9845 27.6174 37.6198 27.6156 37.2549C27.6163 37.0854 27.6163 37.0854 27.617 36.9125C27.6133 36.3055 27.6133 36.3055 27.3893 35.7533C27.0936 35.511 26.8557 35.4824 26.4864 35.4818C26.3567 35.4813 26.3567 35.4813 26.2243 35.4808C26.1292 35.4808 26.034 35.4809 25.936 35.481C25.835 35.4807 25.734 35.4804 25.63 35.4802C25.2899 35.4793 24.9499 35.4792 24.6098 35.4791C24.3667 35.4786 24.1235 35.4782 23.8804 35.4777C23.2188 35.4764 22.5571 35.4758 21.8954 35.4754C21.4824 35.4751 21.0694 35.4747 20.6563 35.4743C19.513 35.4732 18.3697 35.4722 17.2264 35.4719C17.1533 35.4719 17.0801 35.4719 17.0047 35.4718C16.9313 35.4718 16.858 35.4718 16.7824 35.4718C16.6337 35.4717 16.4851 35.4717 16.3364 35.4716C16.2627 35.4716 16.189 35.4716 16.113 35.4716C14.9178 35.4712 13.7227 35.4696 12.5275 35.4674C11.3008 35.4652 10.0742 35.464 8.84748 35.4639C8.15859 35.4638 7.4697 35.4633 6.78081 35.4616C6.13306 35.46 5.48532 35.4598 4.83756 35.4606C4.5995 35.4607 4.36144 35.4603 4.12338 35.4594C3.79902 35.4582 3.4747 35.4587 3.15033 35.4597C3.05559 35.459 2.96085 35.4582 2.86323 35.4574C2.22867 35.461 2.22867 35.461 1.6875 35.7754Z"
            fill="#573FE7" />
        <path
            d="M33.018 10.2616C33.1416 10.2606 33.1416 10.2606 33.2678 10.2595C33.3584 10.2593 33.449 10.259 33.5424 10.2588C33.6853 10.2578 33.6853 10.2578 33.8312 10.2569C34.1475 10.255 34.4638 10.254 34.7801 10.253C34.9419 10.2524 34.9419 10.2524 35.1069 10.2519C35.6776 10.2499 36.2483 10.2486 36.819 10.2477C37.4092 10.2467 37.9993 10.2434 38.5895 10.2397C39.0427 10.2373 39.4959 10.2365 39.9491 10.2361C40.1667 10.2357 40.3843 10.2346 40.6018 10.2328C40.9062 10.2306 41.2105 10.2306 41.5148 10.2313C41.6049 10.2301 41.695 10.2289 41.7878 10.2277C42.1584 10.2306 42.4179 10.2526 42.759 10.4052C43.0383 10.789 43.0021 11.1531 42.9966 11.6164C42.9973 11.7146 42.9979 11.8128 42.9986 11.914C43.0002 12.2389 42.9984 12.5637 42.9964 12.8886C42.9965 13.1142 42.9967 13.3398 42.9971 13.5654C42.9974 14.0382 42.996 14.5111 42.9934 14.9839C42.9902 15.5905 42.9908 16.197 42.9925 16.8036C42.9935 17.2694 42.9927 17.7352 42.9913 18.201C42.9908 18.4247 42.9908 18.6484 42.9914 18.8721C42.9919 19.1845 42.99 19.4969 42.9874 19.8093C42.9881 19.902 42.9887 19.9948 42.9893 20.0903C42.9805 20.7164 42.9805 20.7164 42.7585 21.0201C42.4853 21.2016 42.3103 21.2036 41.9908 21.187C41.7124 21.1298 41.5966 21.0045 41.4374 20.7754C41.3146 20.4244 41.3274 20.0626 41.3244 19.6951C41.3235 19.6247 41.3226 19.5542 41.3216 19.4816C41.3187 19.2493 41.3163 19.017 41.314 18.7846C41.3121 18.6233 41.3101 18.462 41.3081 18.3007C41.303 17.8766 41.2983 17.4524 41.2938 17.0283C41.2891 16.5953 41.2839 16.1623 41.2787 15.7293C41.2686 14.8801 41.2591 14.0309 41.2499 13.1816C41.2061 13.2255 41.1623 13.2694 41.1172 13.3146C40.0526 14.3812 38.9878 15.4476 37.9226 16.5138C37.4076 17.0293 36.8926 17.545 36.3778 18.0608C35.9292 18.5104 35.4805 18.9597 35.0315 19.4089C34.7937 19.6468 34.556 19.8848 34.3185 20.123C34.0536 20.3886 33.7884 20.6539 33.5231 20.9191C33.4045 21.0382 33.4045 21.0382 33.2834 21.1598C33.2114 21.2317 33.1393 21.3036 33.0651 21.3777C33.0024 21.4405 32.9396 21.5034 32.875 21.5681C32.641 21.7849 32.5419 21.8058 32.2148 21.83C31.8749 21.8066 31.8749 21.8066 31.6523 21.7129C31.4653 21.4827 31.3958 21.2733 31.373 20.9777C31.4154 20.719 31.5069 20.618 31.6845 20.4267C31.7447 20.3614 31.8048 20.2962 31.8668 20.229C32.1999 19.8822 32.5363 19.5393 32.8771 19.2001C32.9558 19.1214 33.0345 19.0426 33.1156 18.9615C33.3736 18.7036 33.6319 18.446 33.8902 18.1884C34.0701 18.0088 34.2499 17.8291 34.4297 17.6494C34.8531 17.2262 35.2768 16.8033 35.7006 16.3804C36.1835 15.8986 36.6661 15.4165 37.1487 14.9344C38.1405 13.9436 39.1326 12.9531 40.1249 11.9629C39.9856 11.9623 39.9856 11.9623 39.8434 11.9618C38.9674 11.9584 38.0915 11.9529 37.2156 11.9456C36.7653 11.9419 36.315 11.9389 35.8646 11.9375C35.43 11.936 34.9954 11.9328 34.5608 11.9283C34.395 11.9269 34.2292 11.9262 34.0635 11.9261C33.8311 11.9259 33.5989 11.9234 33.3666 11.9203C33.2982 11.9208 33.2297 11.9212 33.1592 11.9217C32.8267 11.9149 32.6352 11.8755 32.3504 11.6986C32.0808 11.4148 32.0556 11.2255 32.0624 10.8379C32.3333 10.4083 32.5208 10.2643 33.018 10.2616Z"
            fill="#573FE7" />
        <path
            d="M5.32086 25.2497C5.43337 25.2487 5.54589 25.2478 5.66181 25.2468C5.78542 25.2468 5.90903 25.2467 6.03638 25.2466C6.16775 25.2459 6.29911 25.2451 6.43047 25.2443C6.78746 25.2422 7.14444 25.2414 7.50143 25.2409C7.72445 25.2406 7.94747 25.24 8.17049 25.2393C8.94849 25.237 9.72648 25.2358 10.5045 25.2355C11.2298 25.2351 11.955 25.2323 12.6802 25.2284C13.3029 25.2252 13.9255 25.2237 14.5481 25.2236C14.92 25.2236 15.2919 25.2227 15.6637 25.2201C16.0136 25.2176 16.3633 25.2174 16.7132 25.2189C16.9026 25.2192 17.0921 25.2171 17.2815 25.215C18.2073 25.2225 18.2073 25.2225 18.4982 25.4927C18.709 25.8279 18.7257 26.0114 18.6562 26.4004C18.5015 26.646 18.436 26.7359 18.1875 26.8691C17.7627 26.9406 17.3409 26.9321 16.9111 26.9283C16.7797 26.9288 16.6483 26.9295 16.5169 26.9303C16.1607 26.9321 15.8045 26.9308 15.4483 26.929C15.0753 26.9275 14.7023 26.9283 14.3292 26.9288C13.7029 26.9292 13.0765 26.9277 12.4501 26.9251C11.7262 26.9221 11.0024 26.9221 10.2785 26.9237C9.58174 26.9252 8.88502 26.9246 8.18828 26.923C7.89193 26.9223 7.5956 26.9224 7.29926 26.9231C6.95019 26.9238 6.60119 26.9227 6.25213 26.9201C6.06313 26.9192 5.87413 26.92 5.68514 26.921C5.57237 26.9198 5.4596 26.9186 5.34341 26.9174C5.19668 26.917 5.19668 26.917 5.04698 26.9166C4.71103 26.8566 4.55378 26.7314 4.31249 26.4941C4.19655 26.1535 4.18644 26.0027 4.33593 25.6738C4.63359 25.2911 4.8577 25.2517 5.32086 25.2497Z"
            fill="#573FE7" />
        <path
            d="M5.24199 37.8834C5.41213 37.8816 5.41213 37.8816 5.58571 37.8798C5.71112 37.8804 5.83652 37.881 5.96192 37.8816C6.09422 37.881 6.22652 37.8802 6.35882 37.8792C6.71795 37.8771 7.07703 37.8774 7.43616 37.8782C7.73601 37.8787 8.03585 37.878 8.3357 37.8773C9.0431 37.8757 9.75049 37.876 10.4579 37.8776C11.1876 37.8792 11.9172 37.8777 12.6469 37.8747C13.2735 37.8722 13.9001 37.8715 14.5267 37.8723C14.9009 37.8728 15.2751 37.8725 15.6493 37.8706C16.0012 37.8689 16.353 37.8695 16.705 37.8718C16.834 37.8722 16.9631 37.8719 17.0921 37.8707C18.1889 37.8614 18.1889 37.8614 18.499 38.1488C18.7063 38.4804 18.7191 38.6725 18.6563 39.0566C18.4812 39.2784 18.345 39.3998 18.0938 39.5254C17.9202 39.5348 17.7464 39.5381 17.5726 39.5386C17.4618 39.5391 17.3509 39.5396 17.2368 39.5402C17.1146 39.5403 16.9924 39.5404 16.8665 39.5405C16.737 39.5409 16.6075 39.5414 16.478 39.5419C16.1257 39.5431 15.7733 39.5437 15.421 39.5442C15.2009 39.5444 14.9808 39.5448 14.7607 39.5452C14.0723 39.5465 13.3839 39.5474 12.6954 39.5478C11.9005 39.5482 11.1055 39.5499 10.3106 39.5526C9.69631 39.5546 9.08205 39.5555 8.46779 39.5557C8.10083 39.5558 7.73388 39.5563 7.36692 39.558C7.02165 39.5595 6.6764 39.5597 6.33112 39.5589C6.14413 39.5588 5.95714 39.5601 5.77015 39.5614C5.65855 39.5609 5.54696 39.5604 5.43198 39.5598C5.33517 39.56 5.23837 39.5601 5.13863 39.5603C4.83193 39.5197 4.65605 39.4235 4.40628 39.2441C4.22547 39.0058 4.21794 38.8894 4.2305 38.5879C4.39266 38.0319 4.68353 37.8849 5.24199 37.8834Z"
            fill="#573FE7" />
        <path
            d="M23.3848 25.2285C23.473 25.2258 23.5613 25.2232 23.6523 25.2204C24.0911 25.2192 24.3067 25.2248 24.6676 25.4922C24.8438 25.7441 24.8438 25.7441 24.9023 26.0722C24.826 26.4995 24.7229 26.6106 24.375 26.8691C24.0453 26.9356 23.7259 26.9304 23.3906 26.9219C23.2588 26.9234 23.2588 26.9234 23.1244 26.925C22.7153 26.9206 22.4709 26.9084 22.1158 26.6926C21.9058 26.4588 21.8514 26.3388 21.8438 26.0254C22.0594 25.2018 22.6558 25.2265 23.3848 25.2285Z"
            fill="#573FE7" />
        <path
            d="M23.332 37.8906C23.4252 37.8875 23.5184 37.8844 23.6144 37.8813C24.299 37.8762 24.299 37.8762 24.6713 38.1477C24.8973 38.4788 24.9081 38.6635 24.8437 39.0566C24.6687 39.2783 24.5324 39.3998 24.2812 39.5254C23.9908 39.5501 23.6996 39.5471 23.4082 39.5488C23.328 39.5507 23.2478 39.5527 23.1652 39.5547C22.7139 39.5575 22.3902 39.5508 22.0312 39.2441C21.8847 38.9 21.8187 38.6903 21.9082 38.3242C22.2317 37.7851 22.7771 37.8938 23.332 37.8906Z"
            fill="#573FE7" />
    </g>
    <defs>
        <clipPath id="clip0_275_5753">
            <rect width="48" height="48" fill="white" transform="translate(0 0.337891)" />
        </clipPath>
    </defs>
</svg>