<svg width="69" height="68" viewBox="0 0 69 68" fill="none" xmlns="http://www.w3.org/2000/svg">
<path fill-rule="evenodd" clip-rule="evenodd" d="M53.0921 29.7174C55.3152 27.8833 56.7323 25.1071 56.7323 22C56.7323 16.4772 52.2551 12 46.7323 12C41.2095 12 36.7323 16.4772 36.7323 22C36.7323 25.119 38.1602 27.9044 40.3979 29.7383C40.587 29.2869 40.8532 28.758 41.2216 28.2265C42.217 26.7903 43.9692 25.3355 46.8343 25.367C49.6897 25.3983 51.394 26.8497 52.3454 28.2838C52.6791 28.7869 52.9201 29.2855 53.0921 29.7174ZM51.378 30.8577C51.374 30.8452 51.3699 30.8326 51.3657 30.8199C51.2361 30.4252 51.0206 29.9047 50.6788 29.3895C50.0141 28.3876 48.8733 27.3895 46.8123 27.3668C44.761 27.3443 43.5771 28.3389 42.8654 29.3658C42.5011 29.8914 42.264 30.4252 42.1184 30.8308C42.1139 30.8431 42.1096 30.8554 42.1053 30.8675C43.4889 31.5909 45.0628 32 46.7323 32C48.4093 32 49.9899 31.5872 51.378 30.8577ZM46.7323 34C53.3597 34 58.7323 28.6274 58.7323 22C58.7323 15.3726 53.3597 10 46.7323 10C40.1049 10 34.7323 15.3726 34.7323 22C34.7323 28.6274 40.1049 34 46.7323 34ZM15.064 13.1041H16.064H32.8958V15.1041H17.064V27.4767L19.3482 24.5003L20.9348 25.718L16.7415 31.1818L15.9255 32.2452L15.1387 31.16L11.177 25.6961L12.7962 24.5221L15.064 27.6499V14.1041V13.1041ZM49.7271 43.6426L52.2286 40.3832V52.5578H36.1275V54.5578H53.2286H54.2286V53.5578V40.7927L56.2792 43.6208L57.8983 42.4468L53.9367 36.9829L53.1498 35.8978L52.3338 36.9611L48.1405 42.425L49.7271 43.6426ZM49.0988 21C49.0988 22.307 48.0393 23.3665 46.7323 23.3665C45.4253 23.3665 44.3658 22.307 44.3658 21C44.3658 19.693 45.4253 18.6335 46.7323 18.6335C48.0393 18.6335 49.0988 19.693 49.0988 21ZM51.0988 21C51.0988 23.4115 49.1438 25.3665 46.7323 25.3665C44.3208 25.3665 42.3658 23.4115 42.3658 21C42.3658 18.5885 44.3208 16.6335 46.7323 16.6335C49.1438 16.6335 51.0988 18.5885 51.0988 21ZM22.6462 47.6667C23.9532 47.6667 25.0127 46.6073 25.0127 45.3003C25.0127 43.9933 23.9532 42.9338 22.6462 42.9338C21.3393 42.9338 20.2798 43.9933 20.2798 45.3003C20.2798 46.6073 21.3393 47.6667 22.6462 47.6667ZM27.0127 45.3003C27.0127 47.5768 25.2705 49.4465 23.0466 49.6486C25.7292 49.7709 27.3505 51.1722 28.2694 52.5574C28.5502 52.9805 28.7653 53.4006 28.9289 53.7804C31.1963 51.9472 32.6462 49.1429 32.6462 46C32.6462 40.4772 28.1691 36 22.6462 36C17.1234 36 12.6462 40.4772 12.6462 46C12.6462 49.163 14.1147 51.983 16.4071 53.8154C16.5886 53.4104 16.8295 52.9562 17.1457 52.5001C18.0824 51.1486 19.6892 49.7806 22.263 49.6502C20.0309 49.4561 18.2798 47.5827 18.2798 45.3003C18.2798 42.8888 20.2347 40.9338 22.6462 40.9338C25.0578 40.9338 27.0127 42.8888 27.0127 45.3003ZM26.6028 53.663C26.8899 54.0958 27.088 54.5322 27.2207 54.8947C25.8499 55.6012 24.2946 56 22.6462 56C21.0145 56 19.474 55.6092 18.1133 54.916C18.2611 54.5408 18.4792 54.0871 18.7895 53.6393C19.5012 52.6125 20.6851 51.6179 22.7364 51.6404C24.7974 51.663 25.9382 52.6611 26.6028 53.663ZM34.6462 46C34.6462 52.6274 29.2737 58 22.6462 58C16.0188 58 10.6462 52.6274 10.6462 46C10.6462 39.3726 16.0188 34 22.6462 34C29.2737 34 34.6462 39.3726 34.6462 46Z" fill="#FF8618"/>
</svg>
