<svg width="68" height="68" viewBox="0 0 68 68" fill="none" xmlns="http://www.w3.org/2000/svg">
<path fill-rule="evenodd" clip-rule="evenodd" d="M40.9438 11.6713H39.9438V12.6713V29.5414H35.1997H34.1997V30.5414V37.6117H24.3601H23.3601V38.6117V42.7998H13.3352H12.3352V43.7998V54.3289H10V56.3289H45.854H50.0232V54.3289H46.854V30.5414V29.5414H45.854H41.9438V13.6713H50.7548L48.3983 15.0795L46.9827 15.9255L48.3874 16.7896L50.8434 18.3005H41.9629V20.3005H54.3774H57.9115L54.9014 18.4488L50.84 15.9503L54.8904 13.5297L58.0001 11.6713H54.3774H40.9438ZM36.1997 38.6117V37.6117V31.5414H44.854V54.3289H36.1997V38.6117ZM34.1997 39.6117V54.3289H25.3601V39.6117H34.1997ZM23.3601 44.7998V54.3289H14.3352V44.7998H23.3601Z" fill="#FF8618"/>
</svg>
