<svg width="68" height="68" viewBox="0 0 68 68" fill="none" xmlns="http://www.w3.org/2000/svg">
<path fill-rule="evenodd" clip-rule="evenodd" d="M51.3856 10.8009C51.3263 10.2518 50.8331 9.85476 50.284 9.91407L41.336 10.8806C40.7869 10.9399 40.3899 11.4331 40.4492 11.9822C40.5085 12.5313 41.0017 12.9283 41.5508 12.869L48.0187 12.1704C36.3449 25.3711 22.6982 27.3339 17.0498 26.5527L16.7759 28.5339C23.0975 29.4081 37.4956 27.191 49.6488 13.3456L50.3637 19.9636C50.423 20.5127 50.9162 20.9098 51.4653 20.8505C52.0144 20.7911 52.4114 20.2979 52.3521 19.7488L51.3856 10.8009ZM11.0073 10.7674V57.0918V58.0918H12.0073H56.9928V56.0918H51.6861V26.0133V25.0133H50.6861H44.2687H43.2687V26.0133V56.0918H38.3512V32.264V31.264H37.3512H30.8505H29.8505V32.264V56.0918H25.2664V39.1815V38.1815H24.2664H17.5156H16.5156V39.1815V56.0918H13.0073V10.7674H11.0073ZM49.6861 27.0133V56.0918H45.2687V27.0133H49.6861ZM36.3512 33.264V56.0918H31.8505V33.264H36.3512ZM18.5156 56.0918H23.2664V40.1815H18.5156V56.0918Z" fill="#FF8618"/>
</svg>
