<svg width="80" height="80" viewBox="0 0 80 80" fill="none" xmlns="http://www.w3.org/2000/svg">
<g clip-path="url(#clip0_2011_411)">
<path d="M40 80C62.0914 80 80 62.0914 80 40C80 17.9086 62.0914 0 40 0C17.9086 0 0 17.9086 0 40C0 62.0914 17.9086 80 40 80Z" fill="url(#paint0_linear_2011_411)" style=""/>
<path d="M40.0458 71.0278C57.2081 71.0278 71.1209 57.115 71.1209 39.9527C71.1209 22.7904 57.2081 8.87766 40.0458 8.87766C22.8835 8.87766 8.9707 22.7904 8.9707 39.9527C8.9707 57.115 22.8835 71.0278 40.0458 71.0278Z" fill="url(#paint1_linear_2011_411)" style=""/>
<path d="M15.5325 66.4108C15.5828 66.3633 15.6215 66.3048 15.6454 66.2398C15.6692 66.1749 15.6777 66.1053 15.67 66.0365C15.625 65.8239 15.5409 65.6215 15.4221 65.4395C15.2975 65.2476 15.2067 65.0357 15.1535 64.8131C15.1305 64.7106 15.1336 64.604 15.1624 64.5029C15.1913 64.4019 15.245 64.3097 15.3187 64.2349C15.3876 64.1608 15.4736 64.1047 15.5692 64.0715C15.6647 64.0383 15.767 64.029 15.867 64.0444C16.1042 64.0793 16.3227 64.1934 16.4868 64.3682C16.6115 64.4851 16.7075 64.6292 16.7676 64.7892C16.8214 64.9328 16.8341 65.0885 16.804 65.2388C16.7734 65.3862 16.701 65.5217 16.5954 65.629L16.4256 65.4639C16.4876 65.4044 16.5358 65.3321 16.5667 65.252C16.5977 65.1719 16.6107 65.0859 16.6047 65.0002C16.5826 64.8115 16.4919 64.6375 16.3498 64.5113C16.2267 64.3795 16.0639 64.2916 15.8861 64.2611C15.8143 64.2499 15.7408 64.2564 15.672 64.2799C15.6033 64.3035 15.5412 64.3434 15.4913 64.3963C15.4437 64.4437 15.4081 64.5017 15.3874 64.5655C15.3667 64.6294 15.3614 64.6972 15.372 64.7635C15.4115 64.9593 15.4888 65.1455 15.5994 65.3118C15.7068 65.4832 15.7938 65.6666 15.8585 65.8582C15.8993 65.9842 15.908 66.1183 15.8838 66.2484C15.8565 66.3729 15.7934 66.4867 15.7023 66.5759C15.633 66.6517 15.546 66.7092 15.4492 66.7433C15.3523 66.7773 15.2484 66.7868 15.147 66.771C14.904 66.7305 14.6809 66.6122 14.5112 66.4337C14.3771 66.3066 14.2702 66.1537 14.1968 65.9841C14.1305 65.8367 14.1082 65.6732 14.1327 65.5135C14.1607 65.3624 14.2334 65.2232 14.3414 65.1139L14.5112 65.2767C14.4469 65.3388 14.3984 65.4154 14.3697 65.5C14.3409 65.5846 14.3328 65.6749 14.346 65.7633C14.3848 65.9677 14.4907 66.1534 14.6468 66.291C14.7736 66.4246 14.939 66.5153 15.1198 66.5502C15.1934 66.5631 15.2691 66.5575 15.34 66.5339C15.4109 66.5103 15.4748 66.4694 15.5259 66.415L15.5325 66.4108Z" fill="white" style="fill:white;fill-opacity:1;"/>
<path d="M18.0658 67.8592C17.9203 68.0394 17.738 68.1865 17.531 68.2905C17.353 68.3795 17.1526 68.4139 16.9551 68.3892C16.7562 68.3604 16.5699 68.2748 16.4185 68.1427C16.3017 68.0507 16.207 67.9337 16.1415 67.8003C16.076 67.6668 16.0413 67.5203 16.04 67.3717C16.0492 67.0324 16.1824 66.7082 16.4143 66.4603L16.5977 66.24C16.7434 66.0606 16.9257 65.9143 17.1324 65.811C17.3109 65.7195 17.5128 65.6839 17.7118 65.709C17.9107 65.734 18.0975 65.8185 18.2478 65.9513C18.4027 66.077 18.5189 66.2441 18.5827 66.4332C18.6421 66.6209 18.6454 66.8219 18.5921 67.0114C18.5312 67.2285 18.4239 67.4298 18.2777 67.6014L18.0644 67.8559L18.0658 67.8592ZM18.0793 67.4784C18.2726 67.2745 18.3893 67.01 18.4096 66.7298C18.4132 66.6109 18.3885 66.4929 18.3374 66.3855C18.2863 66.2781 18.2103 66.1845 18.1158 66.1123C18.0281 66.0335 17.9233 65.9763 17.8095 65.9452C17.6958 65.9141 17.5764 65.9099 17.4609 65.9331C17.1858 66.0046 16.9431 66.1672 16.7722 66.3944L16.5851 66.6171C16.3943 66.8212 16.2788 67.0842 16.2576 67.3628C16.2582 67.481 16.2844 67.5978 16.3345 67.7049C16.3846 67.812 16.4572 67.907 16.5476 67.9834C16.6379 68.0597 16.7436 68.1156 16.8576 68.1471C16.9716 68.1787 17.0911 68.1851 17.2078 68.1661C17.4813 68.0916 17.7216 67.9267 17.8894 67.6982L18.0765 67.4732L18.0793 67.4784Z" fill="white" style="fill:white;fill-opacity:1;"/>
<path d="M19.9428 69.6926C19.7817 69.8916 19.5499 70.0207 19.2958 70.0529C19.0389 70.0688 18.7852 69.9886 18.5842 69.8278C18.4248 69.7178 18.3018 69.5627 18.231 69.3824C18.1618 69.2008 18.1475 69.0028 18.1898 68.8131C18.2371 68.5955 18.3302 68.3906 18.4631 68.2119L18.6741 67.9205C18.8025 67.735 18.9692 67.5793 19.1629 67.4639C19.3321 67.3627 19.5275 67.3139 19.7243 67.3235C19.9222 67.3365 20.112 67.4067 20.2708 67.5256C20.4879 67.6648 20.6425 67.8829 20.7021 68.1338C20.7448 68.3822 20.6932 68.6376 20.5576 68.85L20.3648 68.7125C20.4228 68.6331 20.4635 68.5425 20.4844 68.4464C20.5054 68.3503 20.5061 68.251 20.4864 68.1546C20.4668 68.0583 20.4273 67.9671 20.3704 67.8869C20.3135 67.8067 20.2406 67.7393 20.1562 67.6889C20.0646 67.6179 19.9574 67.5698 19.8434 67.5486C19.7295 67.5275 19.6122 67.5338 19.5012 67.5672C19.2372 67.6567 19.0119 67.834 18.8631 68.0697L18.6633 68.3452C18.4921 68.5576 18.3967 68.821 18.3924 69.0938C18.3937 69.2082 18.4227 69.3207 18.4771 69.4214C18.5314 69.5222 18.6095 69.6082 18.7045 69.672C18.8581 69.8022 19.0565 69.8673 19.2574 69.8536C19.4519 69.8163 19.6273 69.7124 19.7534 69.5597L19.9461 69.6973L19.9428 69.6926Z" fill="white" style="fill:white;fill-opacity:1;"/>
<path d="M20.9346 71.3432L21.903 69.7366L21.6115 69.5598L21.7079 69.3993L21.9994 69.5762L22.128 69.3628C22.2095 69.2051 22.3496 69.0857 22.5182 69.0302C22.5987 69.0109 22.6824 69.0086 22.7639 69.0236C22.8454 69.0386 22.9228 69.0705 22.9912 69.1172C23.0618 69.159 23.1259 69.2109 23.1816 69.2711L23.0693 69.425C23.0195 69.3765 22.9641 69.3341 22.9042 69.2987C22.8591 69.2678 22.8077 69.2473 22.7538 69.2386C22.6998 69.2298 22.6446 69.2331 22.5921 69.2482C22.4786 69.2905 22.3852 69.374 22.3306 69.4821L22.1973 69.7025L22.6183 69.9574L22.5219 70.1179L22.1009 69.8629L21.1325 71.4695L20.9374 71.3502L20.9346 71.3432Z" fill="white" style="fill:white;fill-opacity:1;"/>
<path d="M22.3737 70.9712C22.4584 70.8064 22.5801 70.6634 22.7293 70.5535C22.8642 70.4522 23.0256 70.3924 23.194 70.3814C23.3623 70.3704 23.5302 70.4087 23.6771 70.4917C23.7899 70.5477 23.889 70.6281 23.9671 70.7269C24.0453 70.8257 24.1005 70.9407 24.129 71.0634C24.1849 71.3364 24.1358 71.6204 23.9915 71.8587L23.9686 71.8999C23.8839 72.0657 23.7623 72.2097 23.613 72.3209C23.4788 72.4212 23.3188 72.481 23.1517 72.4931C22.9837 72.502 22.8166 72.4631 22.6698 72.3808C22.5573 72.3252 22.4586 72.2453 22.3807 72.1468C22.3029 72.0483 22.2479 71.9338 22.2198 71.8115C22.1642 71.5388 22.2124 71.2551 22.355 71.0161L22.3756 70.975L22.3737 70.9712ZM22.5459 71.134C22.4346 71.3227 22.3924 71.5441 22.4266 71.7605C22.4449 71.8547 22.4839 71.9438 22.5408 72.0211C22.5977 72.0985 22.6712 72.1622 22.7557 72.2077C22.8403 72.2532 22.9339 72.2793 23.0299 72.2842C23.1258 72.289 23.2216 72.2725 23.3103 72.2358C23.5156 72.1417 23.6812 71.9784 23.7782 71.7745L23.7987 71.7357C23.871 71.606 23.9149 71.4625 23.9274 71.3146C23.9403 71.1817 23.9148 71.0479 23.8539 70.9291C23.7933 70.8153 23.6997 70.7225 23.5854 70.6629C23.5021 70.6156 23.4088 70.5887 23.3131 70.5843C23.2174 70.5799 23.122 70.5982 23.0348 70.6377C22.83 70.7325 22.6646 70.8955 22.5669 71.0989L22.5463 71.1359L22.5459 71.134Z" fill="white" style="fill:white;fill-opacity:1;"/>
<path d="M25.6631 71.7375C25.6215 71.707 25.5768 71.6808 25.5298 71.6594C25.4128 71.6006 25.2791 71.584 25.1513 71.6126C25.0173 71.6488 24.8983 71.7268 24.8117 71.8353L24.2035 73.1158L23.999 73.0194L24.8828 71.1537L25.0849 71.2501L24.9473 71.5485C25.0394 71.4677 25.1537 71.4165 25.2753 71.4017C25.397 71.387 25.5202 71.4093 25.629 71.4657C25.6761 71.4866 25.719 71.5161 25.7553 71.5527L25.6617 71.7399L25.6631 71.7375Z" fill="white" style="fill:white;fill-opacity:1;"/>
<path d="M27.9507 73.9429C27.9784 73.8793 27.9909 73.8101 27.9873 73.7407C27.9837 73.6714 27.9642 73.6039 27.9301 73.5434C27.8054 73.3655 27.6481 73.2128 27.4665 73.0933C27.2773 72.9646 27.1106 72.8056 26.9729 72.6227C26.9136 72.5388 26.8753 72.4417 26.8614 72.3399C26.8475 72.238 26.8583 72.1343 26.893 72.0375C26.9276 71.9407 26.9851 71.8537 27.0605 71.7838C27.1359 71.7139 27.227 71.6632 27.3262 71.636C27.5581 71.5758 27.8035 71.5944 28.0237 71.6889C28.1842 71.7476 28.3295 71.8418 28.4485 71.9645C28.555 72.0751 28.6281 72.2136 28.6595 72.364C28.689 72.5116 28.6755 72.6645 28.6207 72.8047L28.4003 72.7195C28.434 72.6402 28.4498 72.5545 28.4466 72.4684C28.4434 72.3823 28.4214 72.2979 28.3821 72.2213C28.289 72.0558 28.1364 71.9319 27.9554 71.8746C27.7901 71.8021 27.6056 71.7856 27.43 71.8278C27.3596 71.8456 27.2947 71.8805 27.241 71.9295C27.1874 71.9785 27.1467 72.04 27.1227 72.1085C27.0973 72.1706 27.0874 72.2379 27.0937 72.3046C27.1001 72.3714 27.1225 72.4356 27.1591 72.4917C27.2728 72.6555 27.417 72.7958 27.5839 72.9048C27.751 73.0191 27.9036 73.1532 28.0382 73.3043C28.1256 73.404 28.1864 73.524 28.215 73.6533C28.2379 73.7783 28.2252 73.9071 28.1786 74.0253C28.1444 74.1218 28.0873 74.2086 28.0121 74.2782C27.937 74.3478 27.8461 74.3981 27.7472 74.4248C27.5084 74.4845 27.2565 74.4634 27.031 74.3649C26.8564 74.3026 26.6969 74.2041 26.5631 74.0758C26.444 73.9672 26.3594 73.826 26.3198 73.6697C26.2856 73.5197 26.2977 73.3627 26.3545 73.2197L26.5748 73.3025C26.5402 73.3848 26.5259 73.4743 26.533 73.5634C26.5402 73.6525 26.5687 73.7385 26.616 73.8143C26.7316 73.9876 26.9021 74.117 27.1002 74.1815C27.2692 74.2553 27.4574 74.273 27.6373 74.2321C27.7097 74.2145 27.7768 74.1794 27.8324 74.1298C27.8881 74.0802 27.9306 74.0176 27.9563 73.9476L27.9507 73.9429Z" fill="white" style="fill:white;fill-opacity:1;"/>
<path d="M29.2133 75.1135C29.0531 75.0655 28.9093 74.9742 28.7978 74.8496C28.6879 74.7245 28.6156 74.5709 28.5892 74.4066C28.5598 74.2284 28.5739 74.0457 28.6303 73.8742L28.6556 73.796C28.708 73.6188 28.7998 73.4557 28.9241 73.3188C29.0367 73.1949 29.1812 73.1044 29.3419 73.0573C29.4944 73.011 29.6572 73.011 29.8097 73.0573C29.9183 73.086 30.0191 73.1387 30.1045 73.2116C30.19 73.2845 30.2579 73.3756 30.3033 73.4784C30.3923 73.7151 30.3923 73.9761 30.3033 74.2129L30.2645 74.3345L28.8577 73.8985L28.8441 73.9397C28.7748 74.1409 28.7813 74.3604 28.8624 74.5572C28.8993 74.6466 28.9558 74.7267 29.0276 74.7915C29.0995 74.8562 29.185 74.9041 29.2778 74.9315C29.3833 74.9663 29.4951 74.9773 29.6053 74.9638C29.7164 74.9455 29.8217 74.9015 29.9127 74.8351L30.0161 74.982C29.9042 75.0709 29.7714 75.1296 29.6303 75.1526C29.4893 75.1755 29.3447 75.1619 29.2104 75.113L29.2133 75.1135ZM29.7503 73.2421C29.6727 73.2164 29.5905 73.2078 29.5092 73.2169C29.428 73.226 29.3497 73.2527 29.2797 73.295C29.1187 73.3932 28.994 73.5409 28.9241 73.716L30.1059 74.0833L30.1129 74.0604C30.1664 73.8919 30.16 73.71 30.0947 73.5457C30.064 73.4724 30.0171 73.407 29.9575 73.3544C29.8978 73.3019 29.827 73.2632 29.7503 73.2421Z" fill="white" style="fill:white;fill-opacity:1;"/>
<path d="M31.8668 73.8671C31.8199 73.8448 31.7706 73.8279 31.7199 73.8166C31.594 73.7795 31.459 73.7885 31.339 73.8419C31.2154 73.9033 31.1136 74.0013 31.0476 74.1226L30.692 75.4952L30.4717 75.4377L30.9863 73.4386L31.202 73.4938L31.1238 73.8129C31.1992 73.7161 31.3021 73.6444 31.419 73.6071C31.5359 73.5699 31.6613 73.5689 31.7788 73.6042C31.8293 73.6151 31.8771 73.6361 31.9192 73.666L31.8616 73.8657L31.8668 73.8671Z" fill="white" style="fill:white;fill-opacity:1;"/>
<path d="M32.5596 75.6117L33.5327 74.0281L33.7624 74.0749L32.5849 75.9383L32.4033 75.9018L32.0684 73.7235L32.2981 73.7703L32.5596 75.6108V75.6117Z" fill="white" style="fill:white;fill-opacity:1;"/>
<path d="M34.0239 76.2063L33.7988 76.1675L34.1403 74.1315L34.3654 74.1703L34.0239 76.2063ZM34.2007 73.5397C34.207 73.4996 34.2285 73.4634 34.2606 73.4386C34.2776 73.4263 34.297 73.4177 34.3176 73.4134C34.3381 73.409 34.3593 73.409 34.3799 73.4133C34.4007 73.4161 34.4208 73.423 34.4389 73.4336C34.4571 73.4442 34.4729 73.4583 34.4856 73.4751C34.5088 73.5085 34.5179 73.5497 34.5109 73.5897C34.508 73.6093 34.5012 73.6282 34.4909 73.6451C34.4806 73.6621 34.4671 73.6768 34.451 73.6884C34.4334 73.7005 34.4135 73.7087 34.3926 73.7127C34.3716 73.7166 34.3501 73.7162 34.3294 73.7113C34.3083 73.7095 34.2878 73.703 34.2695 73.6923C34.2513 73.6817 34.2356 73.6671 34.2236 73.6496C34.2126 73.6333 34.2049 73.615 34.201 73.5957C34.197 73.5765 34.1969 73.5566 34.2007 73.5373V73.5397Z" fill="white" style="fill:white;fill-opacity:1;"/>
<path d="M35.4858 76.2611C35.629 76.2848 35.7759 76.2553 35.8989 76.1783C35.9558 76.1428 36.0045 76.0955 36.0417 76.0397C36.0789 75.9838 36.1037 75.9207 36.1145 75.8545L36.3326 75.8821C36.3118 76.0045 36.256 76.1182 36.1721 76.2096C36.0865 76.3046 35.9772 76.3752 35.8554 76.414C35.7282 76.4558 35.5934 76.4691 35.4605 76.4529C35.3391 76.4428 35.2216 76.4052 35.117 76.3427C35.0124 76.2803 34.9235 76.1947 34.857 76.0926C34.7174 75.8572 34.6676 75.5792 34.7167 75.3099L34.726 75.2412C34.7452 75.0562 34.8048 74.8776 34.9005 74.7181C34.9827 74.579 35.1041 74.4672 35.2495 74.3967C35.399 74.3269 35.5659 74.303 35.729 74.328C35.9341 74.3462 36.1241 74.4433 36.2591 74.5988C36.3231 74.6757 36.371 74.7648 36.3998 74.8606C36.4285 74.9564 36.4377 75.0571 36.4266 75.1565L36.2086 75.1289C36.2218 74.9811 36.1774 74.8339 36.0846 74.7181C35.9884 74.6051 35.8517 74.5342 35.7038 74.5207C35.6129 74.505 35.5197 74.5114 35.4318 74.5393C35.3439 74.5672 35.2641 74.6159 35.199 74.6812C35.0533 74.8484 34.9662 75.0587 34.951 75.28L34.9417 75.3464C34.9035 75.5621 34.9364 75.7844 35.0352 75.9799C35.082 76.0595 35.1474 76.1267 35.2258 76.1755C35.3042 76.2244 35.3932 76.2536 35.4853 76.2606L35.4858 76.2611Z" fill="white" style="fill:white;fill-opacity:1;"/>
<path d="M37.604 76.654C37.4362 76.6449 37.2742 76.5893 37.1361 76.4936C37.0005 76.397 36.8948 76.2642 36.8311 76.1104C36.7611 75.9446 36.7327 75.7643 36.7483 75.585L36.753 75.5022C36.7631 75.3171 36.8149 75.1367 36.9045 74.9745C36.9849 74.8272 37.105 74.7055 37.2512 74.6232C37.3887 74.5433 37.5469 74.5065 37.7055 74.5174C37.818 74.5197 37.9285 74.5476 38.0287 74.5989C38.1289 74.6502 38.2161 74.7236 38.2837 74.8136C38.4265 75.0224 38.4878 75.2765 38.4559 75.5275L38.4465 75.6561L36.9775 75.5551V75.5986C36.9534 75.8105 37.01 76.0236 37.1361 76.1956C37.1921 76.2743 37.2652 76.3393 37.3498 76.3858C37.4345 76.4323 37.5286 76.4591 37.625 76.4641C37.7361 76.4739 37.8479 76.459 37.9525 76.4206C38.0563 76.3778 38.1483 76.311 38.221 76.2255L38.3562 76.3425C38.2682 76.455 38.1528 76.543 38.021 76.5981C37.8892 76.6531 37.7454 76.6734 37.6035 76.6568L37.604 76.654ZM37.6933 74.7102C37.6121 74.7033 37.5303 74.7139 37.4535 74.7412C37.3766 74.7686 37.3066 74.8121 37.2479 74.8688C37.1141 75.0012 37.027 75.1736 37 75.36L38.2346 75.4447V75.4194C38.2495 75.2433 38.2016 75.0677 38.0994 74.9235C38.0522 74.8594 37.9912 74.8067 37.9209 74.7694C37.8507 74.7321 37.7729 74.711 37.6933 74.7078V74.7102Z" fill="white" style="fill:white;fill-opacity:1;"/>
<path d="M42.0083 75.4213C42.0195 75.6528 41.9796 75.8839 41.8914 76.0983C41.8166 76.2827 41.6888 76.4408 41.5241 76.5525C41.3565 76.663 41.1602 76.722 40.9594 76.7224C40.8108 76.7312 40.662 76.7064 40.5243 76.6496C40.3866 76.5929 40.2635 76.5058 40.1641 76.3949C39.947 76.1338 39.8327 75.8024 39.8427 75.4629L39.8357 75.1762C39.8249 74.9454 39.8649 74.7152 39.9527 74.5015C40.0283 74.3157 40.1568 74.1561 40.3223 74.0426C40.4904 73.9356 40.6844 73.876 40.8836 73.8704C41.0829 73.8647 41.28 73.913 41.4539 74.0103C41.6224 74.112 41.7579 74.2602 41.8441 74.437C41.9418 74.6407 41.995 74.8628 42.0004 75.0887L42.0097 75.4213H42.0083ZM41.7674 75.1252C41.7768 74.8447 41.6902 74.5694 41.5218 74.3448C41.4428 74.2576 41.3458 74.1884 41.2376 74.1421C41.1294 74.0958 41.0124 74.0734 40.8947 74.0764C40.777 74.0795 40.6614 74.108 40.5557 74.1599C40.4501 74.2117 40.3569 74.2858 40.2825 74.3771C40.1227 74.6121 40.0483 74.8948 40.0715 75.178L40.0785 75.4671C40.0717 75.7469 40.159 76.0209 40.3265 76.2452C40.4021 76.3372 40.4986 76.41 40.6079 76.4575C40.7173 76.505 40.8363 76.5259 40.9552 76.5184C41.0744 76.5212 41.1925 76.4954 41.2995 76.443C41.4066 76.3907 41.4995 76.3133 41.5704 76.2176C41.7255 75.9815 41.7975 75.7005 41.7749 75.419L41.7674 75.1252Z" fill="white" style="fill:white;fill-opacity:1;"/>
<path d="M43.4748 74.6662C43.4228 74.6616 43.3706 74.6616 43.3186 74.6662C43.1878 74.6724 43.0634 74.7244 42.9672 74.8131C42.8692 74.9112 42.8055 75.0384 42.7857 75.1757L42.9003 76.5895L42.673 76.6077L42.5078 74.5493L42.7305 74.531L42.7604 74.8585C42.8001 74.7425 42.874 74.6412 42.9722 74.5679C43.0705 74.4946 43.1886 74.4527 43.3111 74.4477C43.362 74.4417 43.4136 74.4463 43.4627 74.4613L43.4744 74.6681L43.4748 74.6662Z" fill="white" style="fill:white;fill-opacity:1;"/>
<path d="M43.8056 75.4601C43.7564 75.1914 43.7966 74.914 43.9202 74.6704C43.9746 74.5714 44.0524 74.4872 44.1468 74.4252C44.2413 74.3632 44.3495 74.3253 44.462 74.3148C44.5872 74.293 44.716 74.3046 44.8353 74.3486C44.9546 74.3926 45.0601 74.4673 45.1413 74.5651L45.1136 74.269L45.3246 74.2414L45.5838 76.2475C45.6257 76.4758 45.5752 76.7113 45.4435 76.9024C45.3753 76.9906 45.2894 77.0634 45.1913 77.1164C45.0933 77.1693 44.9852 77.2011 44.8741 77.2098C44.7323 77.2288 44.588 77.2139 44.4531 77.1663C44.3242 77.1242 44.2081 77.0499 44.1158 76.9506L44.2257 76.7967C44.3027 76.8785 44.3979 76.9411 44.5035 76.9794C44.6092 77.0177 44.7223 77.0306 44.8339 77.0171C44.916 77.0115 44.996 76.9885 45.0686 76.9497C45.1411 76.9109 45.2047 76.8572 45.2549 76.792C45.3505 76.6491 45.3883 76.4752 45.3607 76.3055L45.326 76.0486C45.267 76.1574 45.1817 76.2497 45.0778 76.3171C44.9739 76.3844 44.8548 76.4247 44.7314 76.4341C44.6207 76.4511 44.5076 76.441 44.4016 76.4047C44.2957 76.3683 44.2002 76.3069 44.1232 76.2255C43.94 76.0204 43.8295 75.7606 43.8088 75.4863L43.8042 75.4564L43.8056 75.4601ZM44.0395 75.4695C44.0556 75.6877 44.138 75.8959 44.2758 76.066C44.3335 76.1323 44.4073 76.1828 44.4901 76.2125C44.5729 76.2423 44.662 76.2503 44.7487 76.2358C44.875 76.226 44.9952 76.1772 45.0926 76.0963C45.1901 76.0154 45.26 75.9062 45.2928 75.7838L45.1688 74.8313C45.1078 74.7167 45.0144 74.6225 44.9003 74.5604C44.7853 74.5033 44.6553 74.4832 44.5284 74.5029C44.4411 74.511 44.3573 74.541 44.2847 74.59C44.2121 74.6391 44.153 74.7057 44.1129 74.7836C44.0199 74.9981 43.9943 75.2359 44.0395 75.4653V75.4695Z" fill="white" style="fill:white;fill-opacity:1;"/>
<path d="M47.56 75.9308C47.5157 75.8437 47.4833 75.751 47.4637 75.6552C47.4042 75.7725 47.3168 75.8734 47.2092 75.949C47.0978 76.0276 46.9711 76.0817 46.8372 76.1076C46.666 76.148 46.4858 76.1227 46.3324 76.0365C46.2644 75.9969 46.206 75.9429 46.1612 75.8782C46.1164 75.8135 46.0864 75.7398 46.0733 75.6622C46.0531 75.5703 46.0569 75.4747 46.0843 75.3846C46.1116 75.2945 46.1616 75.2129 46.2295 75.1476C46.4117 74.9817 46.6402 74.8753 46.8845 74.8426L47.2906 74.7645L47.2471 74.5347C47.2382 74.4708 47.2159 74.4094 47.1814 74.3548C47.147 74.3002 47.1012 74.2535 47.0473 74.218C46.9204 74.1487 46.7717 74.1306 46.6319 74.1675C46.4914 74.1885 46.3625 74.2574 46.2669 74.3626C46.2264 74.4042 46.1963 74.4548 46.1792 74.5102C46.162 74.5657 46.1583 74.6244 46.1682 74.6816L45.9432 74.7228C45.929 74.64 45.9346 74.5549 45.9598 74.4747C45.9849 74.3945 46.0288 74.3214 46.0878 74.2615C46.223 74.1108 46.4064 74.0116 46.6066 73.9808C46.7974 73.933 46.9991 73.9566 47.1736 74.0473C47.2511 74.0936 47.3175 74.1565 47.3678 74.2315C47.4182 74.3065 47.4514 74.3917 47.4651 74.481L47.6485 75.4405C47.67 75.5915 47.7198 75.737 47.7954 75.8695L47.8 75.8924L47.5614 75.9392L47.56 75.9308ZM46.8255 75.9055C46.9673 75.8793 47.0991 75.8146 47.2064 75.7184C47.3073 75.6288 47.3779 75.5102 47.4085 75.3787L47.3238 74.9334L46.9224 75.0115C46.7386 75.039 46.5657 75.116 46.4223 75.2342C46.3762 75.2741 46.3403 75.3243 46.3175 75.3808C46.2946 75.4373 46.2856 75.4985 46.2909 75.5592C46.2963 75.6199 46.3161 75.6784 46.3485 75.73C46.3809 75.7816 46.4251 75.8247 46.4775 75.8559C46.5841 75.9163 46.7101 75.9331 46.8288 75.9027L46.8255 75.9055Z" fill="white" style="fill:white;fill-opacity:1;"/>
<path d="M48.1343 73.6889L48.2279 74.0285C48.2662 73.8949 48.338 73.7733 48.4365 73.6753C48.5327 73.5811 48.6524 73.5145 48.7832 73.4826C48.8698 73.4532 48.9618 73.4433 49.0526 73.4536C49.1434 73.464 49.2309 73.4943 49.3086 73.5424C49.4642 73.6695 49.57 73.8475 49.6071 74.0449L49.942 75.3577L49.7217 75.4152L49.3844 74.1024C49.3582 73.9577 49.2818 73.8269 49.1687 73.7329C49.1108 73.6974 49.0456 73.6755 48.9781 73.6688C48.9105 73.6621 48.8423 73.6707 48.7785 73.694C48.6455 73.7254 48.5283 73.8037 48.4482 73.9144C48.3632 74.0336 48.3131 74.1743 48.3037 74.3205L48.655 75.6908L48.4347 75.7483L47.9229 73.7492L48.1338 73.694L48.1343 73.6889Z" fill="white" style="fill:white;fill-opacity:1;"/>
<path d="M49.7981 72.6213C49.7861 72.5825 49.7894 72.5407 49.8074 72.5043C49.8172 72.4856 49.8309 72.4692 49.8475 72.4561C49.8641 72.443 49.8833 72.4336 49.9038 72.4286C49.924 72.4214 49.9454 72.4185 49.9668 72.4201C49.9882 72.4217 50.0089 72.4278 50.0278 72.4379C50.0456 72.4479 50.0612 72.4613 50.0738 72.4774C50.0864 72.4934 50.0958 72.5118 50.1012 72.5315C50.1133 72.5694 50.1099 72.6106 50.0919 72.6461C50.0816 72.6649 50.0675 72.6814 50.0505 72.6944C50.0335 72.7075 50.014 72.7168 49.9932 72.7219C49.9734 72.7291 49.9523 72.732 49.9313 72.7304C49.9104 72.7288 49.89 72.7227 49.8715 72.7125C49.8541 72.7024 49.8388 72.689 49.8265 72.6729C49.8143 72.6568 49.8055 72.6385 49.8004 72.619L49.7981 72.6213ZM50.8273 75.0887L50.6093 75.1551L50.0105 73.179L50.2285 73.1125L50.8273 75.0887Z" fill="white" style="fill:white;fill-opacity:1;"/>
<path d="M51.5672 74.6545L52.8341 74.2138L52.8982 74.3953L51.3651 74.9277L51.3099 74.7691L51.934 72.7542L50.7887 73.1514L50.7246 72.9642L52.1431 72.4706L52.2006 72.6334L51.5719 74.6508L51.5672 74.6545Z" fill="white" style="fill:white;fill-opacity:1;"/>
<path d="M54.5762 73.716C54.5148 73.6397 54.4638 73.5555 54.4246 73.4657C54.3898 73.5928 54.3244 73.7094 54.2342 73.8054C54.1413 73.9052 54.0278 73.9835 53.9016 74.0351C53.7417 74.1092 53.5596 74.1199 53.3921 74.065C53.3171 74.0398 53.2487 73.9983 53.1916 73.9436C53.1345 73.8888 53.0902 73.8221 53.0618 73.7483C53.0239 73.6619 53.0086 73.5672 53.0175 73.4732C53.0263 73.3792 53.059 73.2891 53.1124 73.2112C53.2572 73.0129 53.4588 72.8633 53.6906 72.7822L54.0738 72.6236L53.9844 72.4056C53.963 72.3449 53.9288 72.2894 53.8841 72.2431C53.8394 72.1967 53.7852 72.1606 53.7252 72.1371C53.5873 72.096 53.439 72.1083 53.3098 72.1717C53.1766 72.2209 53.0641 72.314 52.9907 72.4355C52.9591 72.4839 52.9396 72.5392 52.934 72.5967C52.9283 72.6542 52.9367 72.7123 52.9584 72.7658L52.7474 72.851C52.717 72.7726 52.7053 72.6882 52.7135 72.6045C52.7216 72.5208 52.7492 72.4402 52.7942 72.3691C52.896 72.1935 53.0558 72.0588 53.2461 71.9883C53.424 71.9041 53.6263 71.8875 53.8155 71.9415C53.9009 71.9717 53.9787 72.0202 54.0433 72.0837C54.108 72.1471 54.158 72.2239 54.1898 72.3088L54.5617 73.2108C54.6135 73.3539 54.6914 73.4862 54.7914 73.6009L54.8008 73.6215L54.5757 73.7151L54.5762 73.716ZM53.8511 73.8377C53.9851 73.7848 54.1013 73.6949 54.186 73.5785C54.267 73.4702 54.312 73.3393 54.3147 73.2042L54.1425 72.7832L53.7683 72.9394C53.5934 73.0031 53.4394 73.1134 53.3229 73.2585C53.2808 73.3115 53.2539 73.3748 53.245 73.4419C53.2361 73.509 53.2456 73.5772 53.2723 73.6393C53.2919 73.6905 53.3227 73.7366 53.3625 73.7744C53.4022 73.8121 53.4499 73.8404 53.5021 73.8573C53.6185 73.894 53.7445 73.8858 53.8553 73.8344L53.8511 73.8377Z" fill="white" style="fill:white;fill-opacity:1;"/>
<path d="M54.5858 70.8632L54.8108 71.3403L55.1963 71.1588L55.2768 71.3287L54.8913 71.5102L55.4765 72.7565C55.5082 72.8406 55.5661 72.9123 55.6417 72.9609C55.677 72.9771 55.7156 72.9845 55.7544 72.9826C55.7932 72.9806 55.8309 72.9693 55.8644 72.9497C55.9194 72.9213 55.9724 72.8891 56.023 72.8533L56.11 73.0161C56.049 73.0716 55.9793 73.1167 55.9037 73.1495C55.8484 73.1814 55.7865 73.2002 55.7227 73.2041C55.659 73.2081 55.5952 73.1972 55.5364 73.1724C55.4149 73.0987 55.3207 72.9876 55.2679 72.8557L54.6826 71.6094L54.3383 71.7698L54.2578 71.6L54.6021 71.4395L54.3771 70.9623L54.5834 70.866L54.5858 70.8632Z" fill="white" style="fill:white;fill-opacity:1;"/>
<path d="M55.3312 70.4248C55.3127 70.3887 55.3085 70.3469 55.3195 70.3078C55.3259 70.2873 55.3366 70.2683 55.3509 70.2522C55.3652 70.2361 55.3827 70.2232 55.4023 70.2143C55.4209 70.2035 55.4416 70.1969 55.463 70.1949C55.4844 70.1929 55.506 70.1955 55.5263 70.2026C55.5454 70.2089 55.5629 70.2191 55.5779 70.2326C55.5929 70.246 55.6049 70.2624 55.6133 70.2807C55.6318 70.316 55.636 70.357 55.625 70.3953C55.6185 70.4159 55.6078 70.4348 55.5936 70.4509C55.5793 70.4671 55.5618 70.48 55.5422 70.4889C55.5239 70.4993 55.5037 70.5059 55.4828 70.5082C55.4618 70.5105 55.4407 70.5086 55.4205 70.5025C55.4016 70.4958 55.3841 70.4855 55.3692 70.4721C55.3543 70.4587 55.3421 70.4425 55.3335 70.4243L55.3312 70.4248ZM56.7773 72.6742L56.5728 72.7776L55.6371 70.9371L55.8416 70.8337L56.7773 72.6742Z" fill="white" style="fill:white;fill-opacity:1;"/>
<path d="M56.7679 71.4943C56.675 71.3344 56.6193 71.1556 56.6051 70.9712C56.5923 70.8035 56.6274 70.6356 56.7062 70.487C56.7863 70.338 56.9085 70.2158 57.0575 70.1357C57.1647 70.0699 57.2852 70.0289 57.4103 70.0158C57.5354 70.0027 57.6618 70.0177 57.7803 70.0599C58.0407 70.1591 58.2544 70.3525 58.3792 70.6016L58.4021 70.6428C58.4964 70.8031 58.5529 70.9828 58.5672 71.1682C58.5803 71.3352 58.5453 71.5024 58.4662 71.6501C58.3832 71.797 58.2609 71.9179 58.113 71.9991C58.0058 72.0649 57.8852 72.1058 57.7601 72.119C57.6351 72.1321 57.5086 72.117 57.3901 72.0749C57.1293 71.9764 56.9154 71.7828 56.7913 71.5331L56.7679 71.4943ZM56.9976 71.4367C57.0975 71.632 57.2632 71.7856 57.4655 71.8704C57.5548 71.9075 57.6516 71.9231 57.748 71.9159C57.8445 71.9088 57.9379 71.8791 58.0208 71.8292C58.1059 71.7845 58.1792 71.7202 58.2347 71.6417C58.2901 71.5631 58.3262 71.4725 58.3399 71.3773C58.3696 71.154 58.3199 70.9273 58.1995 70.7368L58.1789 70.698C58.1072 70.5679 58.0086 70.4546 57.8898 70.3654C57.7847 70.2845 57.6592 70.2344 57.5272 70.2208C57.3982 70.2107 57.2692 70.2404 57.1576 70.306C57.073 70.3516 57.0002 70.4165 56.9452 70.4954C56.8902 70.5743 56.8545 70.665 56.8409 70.7602C56.813 70.9835 56.8625 71.2096 56.9813 71.4007L56.9976 71.4367Z" fill="white" style="fill:white;fill-opacity:1;"/>
<path d="M58.4438 69.36L58.6435 69.6515C58.6365 69.5125 58.6659 69.3742 58.7287 69.2501C58.7898 69.1303 58.8817 69.0289 58.9949 68.9563C59.067 68.9006 59.1506 68.8617 59.2396 68.8423C59.3285 68.8228 59.4207 68.8234 59.5095 68.844C59.6977 68.9143 59.8548 69.0493 59.9525 69.2248L60.6894 70.3607L60.499 70.4847L59.7598 69.3464C59.6879 69.218 59.5734 69.1187 59.436 69.0657C59.3697 69.0509 59.3009 69.051 59.2346 69.0661C59.1684 69.0811 59.1063 69.1107 59.0529 69.1528C58.9373 69.2251 58.8518 69.3368 58.8119 69.4671C58.7693 69.6074 58.7669 69.7569 58.8049 69.8985L59.5759 71.0849L59.3855 71.2089L58.2627 69.4779L58.4442 69.3586L58.4438 69.36Z" fill="white" style="fill:white;fill-opacity:1;"/>
<path d="M61.9411 68.8117C61.9109 68.7681 61.8704 68.7326 61.8231 68.7086C61.7758 68.6846 61.7232 68.6728 61.6702 68.6742C61.5215 68.682 61.3762 68.7211 61.2435 68.7888C61.1098 68.8545 60.9684 68.9031 60.8225 68.9333C60.7265 68.9538 60.627 68.9491 60.5334 68.9198C60.4464 68.8866 60.3713 68.8283 60.3177 68.7523C60.2704 68.6895 60.2389 68.6163 60.2257 68.5388C60.2125 68.4613 60.2181 68.3818 60.2419 68.3069C60.2984 68.128 60.4139 67.9735 60.5694 67.8686C60.7243 67.743 60.9183 67.6756 61.1177 67.6781C61.2028 67.6809 61.2862 67.7034 61.361 67.7441C61.4359 67.7847 61.5003 67.8422 61.549 67.9121L61.3656 68.0473C61.3311 67.9998 61.2858 67.9612 61.2336 67.9344C61.1813 67.9077 61.1235 67.8936 61.0648 67.8933C60.9273 67.8918 60.7935 67.9381 60.6863 68.0243C60.5786 68.0954 60.4966 68.1992 60.4524 68.3205C60.4352 68.3689 60.4301 68.4208 60.4377 68.4717C60.4453 68.5225 60.4653 68.5707 60.4959 68.6119C60.522 68.6501 60.5569 68.6815 60.5976 68.7035C60.6383 68.7254 60.6836 68.7374 60.7298 68.7383C60.8775 68.7247 61.0215 68.6843 61.1547 68.6189C61.2988 68.5524 61.4506 68.5039 61.6066 68.4744C61.7049 68.4568 61.806 68.4647 61.9004 68.4973C62.0197 68.5486 62.1161 68.6419 62.1711 68.7596C62.2261 68.8772 62.236 69.011 62.1989 69.1354C62.1351 69.3209 62.0115 69.4798 61.8475 69.5874C61.685 69.7189 61.483 69.7917 61.274 69.7942C61.1877 69.7953 61.1024 69.7756 61.0253 69.7368C60.9482 69.6981 60.8815 69.6414 60.8309 69.5715L61.0143 69.4363C61.0522 69.485 61.1011 69.5241 61.1569 69.5505C61.2127 69.5768 61.274 69.5896 61.3357 69.5878C61.4812 69.5805 61.6205 69.5265 61.7329 69.4339C61.8463 69.3586 61.9331 69.2494 61.9808 69.1219C62.0004 69.0725 62.007 69.0191 62.0002 68.9665C61.9934 68.9138 61.9734 68.8638 61.942 68.8211L61.9411 68.8117Z" fill="white" style="fill:white;fill-opacity:1;"/>
<path d="M64.9383 67.6753L64.7938 67.804L62.5996 65.3483L62.7442 65.2196L64.9383 67.6753Z" fill="white" style="fill:white;fill-opacity:1;"/>
<path d="M66.9861 63.884C66.9482 63.8452 66.9014 63.8162 66.8499 63.7995C66.7983 63.7827 66.7434 63.7786 66.69 63.7876C66.526 63.8311 66.3702 63.9009 66.2287 63.9944C66.064 64.0973 65.8866 64.1783 65.701 64.2353C65.5803 64.278 65.4504 64.2875 65.3248 64.2628C65.1992 64.2381 65.0826 64.1801 64.987 64.095C64.907 64.0234 64.8451 63.9339 64.8064 63.8338C64.7677 63.7337 64.7533 63.6258 64.7644 63.5191C64.7908 63.2658 64.9034 63.0293 65.0834 62.8491C65.2018 62.7155 65.3483 62.6097 65.5124 62.5394C65.6597 62.4761 65.822 62.4561 65.9803 62.4819C66.1339 62.5064 66.2769 62.5759 66.391 62.6816L66.0635 63.0349C66.0196 62.9888 65.9658 62.9533 65.9061 62.931C65.8465 62.9087 65.7826 62.9002 65.7192 62.9062C65.58 62.9276 65.4539 63.0006 65.366 63.1106C65.2723 63.2018 65.211 63.3211 65.1915 63.4503C65.1865 63.5042 65.1948 63.5585 65.2156 63.6085C65.2364 63.6584 65.2691 63.7026 65.3108 63.7371C65.3483 63.7708 65.3935 63.7948 65.4425 63.8068C65.4915 63.8188 65.5427 63.8184 65.5915 63.8058C65.755 63.7603 65.9106 63.69 66.0528 63.5972C66.2134 63.4965 66.3864 63.4171 66.5674 63.3609C66.6974 63.3205 66.8354 63.3135 66.9688 63.3404C67.0953 63.3709 67.2116 63.4342 67.3061 63.5237C67.3869 63.5934 67.4498 63.6815 67.4893 63.7806C67.5289 63.8797 67.5441 63.9869 67.5335 64.0931C67.4998 64.3481 67.3809 64.5842 67.1962 64.763C67.0697 64.9056 66.914 65.019 66.7396 65.0957C66.5856 65.1674 66.4148 65.1952 66.246 65.1761C66.0838 65.1556 65.9325 65.0832 65.8146 64.9698L66.1421 64.6143C66.1904 64.6633 66.2491 64.7008 66.314 64.7238C66.3788 64.7468 66.448 64.7548 66.5164 64.7471C66.6739 64.7151 66.8152 64.6291 66.9159 64.5039C67.014 64.4113 67.078 64.2883 67.0975 64.1549C67.1018 64.1033 67.0939 64.0515 67.0744 64.0036C67.0549 63.9557 67.0243 63.9131 66.9852 63.8793L66.9861 63.884Z" fill="white" style="fill:white;fill-opacity:1;"/>
<path d="M68.7552 62.9474C68.6767 63.0536 68.577 63.1423 68.4624 63.2078C68.3478 63.2734 68.2208 63.3144 68.0894 63.3282C67.9543 63.3387 67.8184 63.3219 67.6898 63.2789C67.5612 63.2359 67.4426 63.1676 67.3409 63.0779L67.2974 63.0409C67.1471 62.9238 67.0255 62.7739 66.9418 62.6026C66.8666 62.4493 66.8369 62.2775 66.8564 62.1079C66.8759 61.9382 66.9437 61.7777 67.0518 61.6454C67.1229 61.5465 67.2153 61.4649 67.3222 61.4065C67.4291 61.3481 67.5477 61.3145 67.6693 61.3081C67.9429 61.3154 68.2046 61.4214 68.4062 61.6066L68.5507 61.7235L67.704 62.7724C67.8252 62.8621 67.9746 62.9052 68.125 62.894C68.1942 62.886 68.2611 62.8641 68.3218 62.8298C68.3825 62.7955 68.4356 62.7494 68.4782 62.6943C68.5427 62.617 68.5879 62.5255 68.6099 62.4273C68.6318 62.329 68.63 62.227 68.6045 62.1296L68.9465 62.0828C68.9909 62.2249 68.9964 62.3763 68.9624 62.5212C68.9257 62.6771 68.8535 62.8225 68.7514 62.946L68.7552 62.9474ZM67.3437 61.8802C67.3054 61.924 67.2775 61.9758 67.262 62.0319C67.2466 62.088 67.2439 62.1468 67.2544 62.204C67.2835 62.3377 67.3514 62.4599 67.4495 62.5553L68.0048 61.8667L67.9772 61.8461C67.8776 61.766 67.7536 61.7222 67.6258 61.7221C67.5702 61.7269 67.5163 61.7438 67.4678 61.7715C67.4194 61.7992 67.3775 61.8371 67.3451 61.8826L67.3437 61.8802Z" fill="white" style="fill:white;fill-opacity:1;"/>
<path d="M68.817 60.0786C68.7722 60.1236 68.7307 60.172 68.6931 60.2232C68.6343 60.2893 68.5975 60.3721 68.5876 60.46C68.5777 60.548 68.5953 60.6368 68.6379 60.7144L69.7784 61.5453L69.5052 61.9195L67.8369 60.7032L68.0961 60.3453L68.2888 60.4716C68.2493 60.3855 68.2338 60.2904 68.2439 60.1963C68.2541 60.1022 68.2895 60.0125 68.3464 59.9368C68.3781 59.8912 68.4177 59.8516 68.4634 59.8199L68.8147 60.0767L68.817 60.0786Z" fill="white" style="fill:white;fill-opacity:1;"/>
<path d="M70.2868 59.7778L69.2931 58.6026L69.5546 58.203L70.8879 59.934L70.6676 60.2713L68.5469 59.7427L68.8107 59.3413L70.2886 59.782L70.2868 59.7778Z" fill="white" style="fill:white;fill-opacity:1;"/>
<path d="M69.2304 57.687C69.2018 57.6713 69.1767 57.65 69.1566 57.6244C69.1365 57.5987 69.1218 57.5693 69.1134 57.5378C69.1051 57.5033 69.1042 57.4674 69.1109 57.4325C69.1176 57.3977 69.1317 57.3646 69.1522 57.3357C69.1689 57.3042 69.1916 57.2764 69.2192 57.2539C69.2468 57.2314 69.2786 57.2147 69.3127 57.2047C69.3768 57.1912 69.4436 57.2024 69.4998 57.2361C69.556 57.2697 69.5975 57.3233 69.6159 57.3862C69.6267 57.456 69.6129 57.5273 69.5769 57.588C69.5408 57.6486 69.4848 57.6949 69.4184 57.7188C69.3873 57.7259 69.355 57.7267 69.3235 57.7212C69.292 57.7156 69.2619 57.7039 69.235 57.6866L69.2304 57.687ZM71.7136 58.6002L71.475 58.9974L69.7033 57.9373L69.9419 57.5401L71.7136 58.6002Z" fill="white" style="fill:white;fill-opacity:1;"/>
<path d="M72.1268 57.1934C72.1798 57.1027 72.1965 56.9952 72.1736 56.8926C72.1638 56.8458 72.1446 56.8014 72.117 56.7623C72.0894 56.7232 72.054 56.6901 72.0131 56.6653L72.2218 56.2821C72.3325 56.3486 72.4223 56.4449 72.481 56.56C72.5439 56.6818 72.5739 56.8179 72.568 56.9549C72.5638 57.0995 72.5253 57.2411 72.4557 57.368C72.4003 57.4836 72.3202 57.5856 72.2211 57.6669C72.122 57.7483 72.0063 57.8068 71.8821 57.8386C71.6065 57.8933 71.3203 57.8417 71.0812 57.694L71.04 57.6711C70.7924 57.5525 70.5982 57.3453 70.4959 57.0905C70.4535 56.9692 70.4386 56.84 70.4521 56.7122C70.4656 56.5844 70.5072 56.4611 70.574 56.3513C70.6706 56.153 70.8411 56.0005 71.0489 55.9265C71.1485 55.8929 71.2541 55.8805 71.3588 55.89C71.4635 55.8995 71.5651 55.9307 71.6571 55.9818L71.4484 56.3649C71.3518 56.3137 71.2391 56.3022 71.1341 56.3326C71.0826 56.3476 71.0348 56.373 70.9937 56.4074C70.9527 56.4418 70.9192 56.4844 70.8955 56.5324C70.8609 56.5897 70.8409 56.6546 70.8373 56.7214C70.8337 56.7882 70.8466 56.8549 70.8749 56.9156C70.96 57.0671 71.0911 57.1876 71.2491 57.2599L71.3156 57.2945C71.4638 57.3895 71.6381 57.4353 71.8138 57.4255C71.8805 57.4154 71.9438 57.3892 71.9982 57.3491C72.0525 57.3091 72.0964 57.2565 72.1259 57.1958L72.1268 57.1934Z" fill="white" style="fill:white;fill-opacity:1;"/>
<path d="M73.4392 55.3942C73.3882 55.5157 73.3128 55.6254 73.2177 55.7166C73.1226 55.8078 73.0097 55.8784 72.8862 55.9242C72.7578 55.9671 72.622 55.9836 72.4871 55.9726C72.3522 55.9616 72.2209 55.9233 72.1011 55.8601L72.0483 55.8349C71.8742 55.7568 71.7204 55.6398 71.5987 55.4929C71.489 55.3604 71.419 55.1997 71.3966 55.0292C71.3753 54.8604 71.4032 54.689 71.4771 54.5357C71.5223 54.4224 71.5924 54.3207 71.6822 54.2381C71.772 54.1555 71.8792 54.0941 71.9959 54.0585C72.2633 53.9999 72.5429 54.0398 72.7832 54.1708L72.9531 54.2489L72.3837 55.4723C72.523 55.5309 72.6789 55.5366 72.8221 55.4882C72.8873 55.4641 72.9469 55.4271 72.9974 55.3793C73.0479 55.3316 73.0882 55.2741 73.1159 55.2103C73.1601 55.1199 73.182 55.0202 73.1796 54.9195C73.1772 54.8189 73.1507 54.7203 73.1023 54.632L73.4237 54.5057C73.5002 54.633 73.5413 54.7783 73.543 54.9268C73.5438 55.0871 73.5084 55.2456 73.4396 55.3904L73.4392 55.3942ZM71.8144 54.6966C71.788 54.7483 71.7736 54.8051 71.7719 54.863C71.7703 54.921 71.7816 54.9786 71.805 55.0316C71.8661 55.1536 71.9609 55.2556 72.0782 55.3254L72.4525 54.5244L72.4202 54.5109C72.3041 54.4563 72.1728 54.4435 72.0483 54.4744C71.9951 54.4922 71.9465 54.5213 71.9057 54.5598C71.8649 54.5982 71.8329 54.6451 71.812 54.6971L71.8144 54.6966Z" fill="white" style="fill:white;fill-opacity:1;"/>
<path d="M73.8438 50.6666C74.0778 50.7438 74.2923 50.8707 74.4726 51.0386C74.6271 51.183 74.7357 51.3699 74.7846 51.5757C74.8255 51.7836 74.8099 51.9987 74.7393 52.1985C74.6686 52.3983 74.5457 52.5755 74.3832 52.7116C74.2167 52.8424 74.0159 52.9222 73.805 52.9413C73.5636 52.9621 73.3206 52.9292 73.0934 52.8449L72.9465 52.792C72.7122 52.7144 72.4976 52.5867 72.3177 52.4178C72.161 52.2734 72.0516 52.0851 72.0037 51.8775C71.9558 51.6699 71.9716 51.4527 72.0492 51.2543C72.1159 51.0528 72.2384 50.8743 72.4024 50.7396C72.5684 50.6086 72.7698 50.5302 72.9806 50.5146C73.2253 50.4948 73.4713 50.5293 73.7011 50.6157L73.8457 50.6662L73.8438 50.6666ZM73.5453 51.0727C73.3167 50.9749 73.0635 50.9501 72.8202 51.0016C72.729 51.0304 72.6458 51.08 72.5772 51.1465C72.5085 51.213 72.4562 51.2945 72.4244 51.3847C72.3927 51.4748 72.3823 51.5711 72.3942 51.666C72.406 51.7608 72.4397 51.8516 72.4927 51.9312C72.6451 52.1227 72.8527 52.2628 73.0873 52.3326L73.2389 52.3855C73.4687 52.4824 73.7228 52.5056 73.9664 52.4519C74.0601 52.427 74.1461 52.3789 74.2163 52.3119C74.2864 52.2449 74.3386 52.1613 74.3678 52.0688C74.4039 51.9795 74.4167 51.8825 74.4051 51.787C74.3935 51.6914 74.3578 51.6003 74.3013 51.5223C74.1419 51.3295 73.9272 51.19 73.6861 51.1228L73.5486 51.076L73.5453 51.0727Z" fill="white" style="fill:white;fill-opacity:1;"/>
<path d="M73.954 49.0947C73.9267 49.1516 73.9045 49.2108 73.8875 49.2716C73.8538 49.3534 73.8467 49.4438 73.8673 49.5299C73.8879 49.616 73.9351 49.6934 74.0022 49.7511L75.3589 50.1413L75.2302 50.5867L73.2471 50.015L73.3687 49.5902L73.5937 49.643C73.5268 49.5762 73.4795 49.4922 73.4568 49.4004C73.4341 49.3085 73.437 49.2122 73.4651 49.1219C73.4779 49.0676 73.5022 49.0168 73.5362 48.9726L73.954 49.0947Z" fill="white" style="fill:white;fill-opacity:1;"/>
<path d="M74.5851 49.054C74.3152 49.0054 74.07 48.8661 73.8899 48.6592C73.8165 48.57 73.7654 48.4645 73.741 48.3515C73.7166 48.2386 73.7195 48.1214 73.7496 48.0098C73.7689 47.9061 73.8122 47.8083 73.8759 47.7243C73.9397 47.6402 74.0222 47.5722 74.1168 47.5256L73.9194 47.4568L74.0158 47.0508L75.9643 47.5074C76.0813 47.5286 76.1925 47.5747 76.2902 47.6423C76.388 47.71 76.4702 47.7978 76.5313 47.8999C76.648 48.1209 76.6743 48.3785 76.6048 48.6185C76.5696 48.7672 76.504 48.9071 76.412 49.0292C76.3317 49.1437 76.2224 49.2348 76.0953 49.2931L75.875 49.0152C75.9666 48.9723 76.0473 48.9091 76.1109 48.8304C76.1746 48.7517 76.2195 48.6595 76.2422 48.5609C76.2798 48.433 76.2659 48.2955 76.2034 48.1778C76.1668 48.1213 76.1187 48.0731 76.0623 48.0363C76.0059 47.9996 75.9424 47.9751 75.8759 47.9644L75.7407 47.9322C75.7978 48.0145 75.836 48.1084 75.8526 48.2073C75.8693 48.3061 75.864 48.4073 75.8371 48.5039C75.8131 48.6159 75.763 48.7207 75.6908 48.8097C75.6186 48.8986 75.5264 48.9692 75.4216 49.0157C75.1583 49.124 74.8658 49.1385 74.5931 49.0568L74.5851 49.054ZM74.7297 48.6133C74.895 48.6623 75.0716 48.6582 75.2345 48.6016C75.2992 48.5769 75.3566 48.5361 75.4012 48.483C75.4458 48.43 75.4762 48.3665 75.4895 48.2985C75.5126 48.2166 75.5116 48.1297 75.4867 48.0484C75.4618 47.967 75.4141 47.8945 75.3491 47.8395L74.4654 47.6327C74.3841 47.654 74.3106 47.6978 74.2533 47.7592C74.196 47.8205 74.1572 47.8969 74.1416 47.9794C74.1233 48.0469 74.1225 48.118 74.1394 48.1858C74.1563 48.2537 74.1902 48.3162 74.238 48.3672C74.373 48.4971 74.5444 48.5828 74.7292 48.6129L74.7297 48.6133Z" fill="white" style="fill:white;fill-opacity:1;"/>
<path d="M76.3379 45.7371C76.2727 45.7536 76.2054 45.7606 76.1382 45.7577C76.2516 45.9156 76.3021 46.1102 76.2796 46.3033C76.2571 46.4965 76.1633 46.6743 76.0165 46.8019C75.9523 46.8553 75.877 46.8937 75.7961 46.9144C75.7151 46.935 75.6306 46.9373 75.5487 46.9212C75.4509 46.9093 75.3576 46.8732 75.2774 46.816C75.1973 46.7587 75.1327 46.6823 75.0897 46.5937C74.9958 46.3654 74.9757 46.1135 75.0322 45.8732L75.079 45.5925L74.9456 45.5696C74.8535 45.5494 74.757 45.5662 74.6771 45.6164C74.6374 45.6463 74.6043 45.6843 74.5802 45.7278C74.556 45.7713 74.5412 45.8194 74.5368 45.869C74.5168 45.9598 74.529 46.0548 74.5714 46.1375C74.5887 46.1727 74.6143 46.2031 74.6459 46.2263C74.6775 46.2495 74.7142 46.2648 74.7529 46.2709L74.6748 46.7275C74.5613 46.7078 74.4578 46.6505 74.381 46.5647C74.2929 46.4692 74.2318 46.3519 74.2041 46.225C74.1698 46.0804 74.1666 45.9302 74.1948 45.7843C74.2196 45.5775 74.3173 45.3862 74.4703 45.2449C74.5451 45.184 74.6325 45.1404 74.7262 45.1173C74.8199 45.0943 74.9175 45.0923 75.0121 45.1116L75.93 45.2678C76.0788 45.3005 76.233 45.3005 76.3819 45.2678L76.4142 45.2725L76.336 45.7403L76.3379 45.7371ZM75.9225 46.1824C75.9378 46.0932 75.93 46.0015 75.8996 45.9162C75.8729 45.8334 75.8216 45.7607 75.7527 45.7076L75.3695 45.6435L75.3283 45.8891C75.2975 46.0209 75.3055 46.1589 75.3513 46.2863C75.3715 46.3321 75.4033 46.3719 75.4436 46.4017C75.4839 46.4315 75.5312 46.4502 75.581 46.4561C75.6201 46.4643 75.6605 46.4639 75.6993 46.4547C75.7382 46.4456 75.7746 46.428 75.806 46.4033C75.8711 46.3467 75.9127 46.2682 75.9225 46.1824Z" fill="white" style="fill:white;fill-opacity:1;"/>
<path d="M74.4811 44.1095L74.7197 44.1212C74.6388 44.04 74.5776 43.9413 74.541 43.8326C74.5044 43.724 74.4934 43.6084 74.5087 43.4947C74.5555 43.0681 74.8231 42.8749 75.312 42.9212L76.6687 43.0657L76.6219 43.527L75.2933 43.3867C75.1907 43.3678 75.0847 43.3866 74.9948 43.4395C74.9565 43.4726 74.9256 43.5135 74.9043 43.5593C74.8829 43.6052 74.8715 43.6551 74.8708 43.7057C74.8583 43.7919 74.8715 43.8799 74.9086 43.9586C74.9457 44.0374 75.0051 44.1035 75.0795 44.1488L76.5391 44.305L76.4924 44.7663L74.4404 44.546L74.4872 44.1123L74.4811 44.1095Z" fill="white" style="fill:white;fill-opacity:1;"/>
<path d="M74.107 42.3607C74.0746 42.3599 74.0426 42.3525 74.013 42.3391C73.9835 42.3257 73.9569 42.3065 73.9349 42.2826C73.912 42.2555 73.895 42.224 73.8851 42.19C73.8752 42.156 73.8725 42.1202 73.8773 42.0851C73.8773 42.0494 73.8846 42.014 73.8988 41.9813C73.9131 41.9485 73.934 41.919 73.9602 41.8947C73.9849 41.8733 74.0138 41.8572 74.045 41.8473C74.0762 41.8374 74.1091 41.8339 74.1417 41.8372C74.174 41.8381 74.2058 41.8458 74.235 41.8596C74.2642 41.8735 74.2903 41.8932 74.3115 41.9177C74.3341 41.9453 74.3509 41.9773 74.3608 42.0116C74.3707 42.046 74.3735 42.082 74.369 42.1174C74.3692 42.1527 74.362 42.1876 74.3477 42.2199C74.3334 42.2521 74.3125 42.281 74.2862 42.3046C74.2616 42.3255 74.2331 42.3414 74.2024 42.3512C74.1716 42.3611 74.1392 42.3648 74.107 42.3621V42.3607ZM76.7325 42.0304L76.7049 42.494L74.6441 42.3654L74.6717 41.9017L76.7325 42.0304Z" fill="white" style="fill:white;fill-opacity:1;"/>
<path d="M76.4069 40.9516L76.4298 39.8522L76.7994 39.8592L76.7648 41.5345L76.4616 41.5275L75.096 40.4515L75.0754 41.4807L74.7012 41.4737L74.7335 39.8578L75.0272 39.8648L76.4064 40.9525L76.4069 40.9516Z" fill="white" style="fill:white;fill-opacity:1;"/>
<path d="M76.7488 38.1628C76.6882 38.1908 76.6242 38.211 76.5584 38.2227C76.6352 38.2889 76.6972 38.3705 76.7403 38.4622C76.7834 38.5539 76.8067 38.6537 76.8087 38.7551C76.8224 38.9405 76.7658 39.1242 76.6501 39.2697C76.5982 39.3347 76.5326 39.3875 76.4581 39.4243C76.3836 39.4612 76.3019 39.4812 76.2187 39.483C76.1207 39.4924 76.0218 39.4764 75.9317 39.4365C75.8416 39.3967 75.7633 39.3345 75.7041 39.2557C75.5662 39.0512 75.4956 38.8089 75.502 38.5623L75.4903 38.2779L75.3551 38.2826C75.3067 38.2798 75.2583 38.2878 75.2135 38.3061C75.1686 38.3245 75.1284 38.3526 75.0958 38.3885C75.0632 38.4244 75.0391 38.4671 75.0252 38.5136C75.0113 38.56 75.008 38.609 75.0155 38.6568C75.0158 38.75 75.0473 38.8404 75.1048 38.9137C75.1289 38.9445 75.1601 38.9691 75.1956 38.9854C75.2312 39.0017 75.2702 39.0092 75.3093 39.0073L75.3252 39.4709C75.2097 39.4742 75.0965 39.4386 75.0038 39.3698C74.8982 39.2931 74.8144 39.1902 74.7605 39.0713C74.6983 38.9367 74.6646 38.7906 74.6618 38.6423C74.6428 38.4343 74.6998 38.2264 74.8222 38.0571C74.8831 37.9824 74.9597 37.9222 75.0466 37.8805C75.1334 37.8389 75.2284 37.8169 75.3247 37.8161L76.2543 37.7815C76.4062 37.7821 76.5564 37.7502 76.695 37.688H76.7273L76.7455 38.1586L76.7488 38.1628ZM76.4344 38.684C76.4326 38.5937 76.4064 38.5056 76.3586 38.429C76.3144 38.354 76.2494 38.2934 76.1715 38.2545L75.7836 38.2681L75.793 38.5184C75.7895 38.6534 75.8254 38.7866 75.8964 38.9015C75.9254 38.9423 75.9646 38.9748 76.0101 38.9957C76.0556 39.0166 76.1057 39.0253 76.1556 39.0208C76.1954 39.0216 76.2349 39.0133 76.271 38.9966C76.3071 38.9799 76.339 38.9553 76.3642 38.9245C76.4168 38.8556 76.4421 38.7698 76.4353 38.6835L76.4344 38.684Z" fill="white" style="fill:white;fill-opacity:1;"/>
<path d="M74.084 36.8412L74.5841 36.7977L74.5542 36.4351L74.8962 36.4051L74.9261 36.7677L76.0737 36.669C76.1344 36.6691 76.1931 36.6471 76.2388 36.6072C76.2567 36.5832 76.2694 36.5556 76.2761 36.5264C76.2828 36.4972 76.2833 36.4669 76.2777 36.4374C76.2722 36.383 76.2614 36.3292 76.2454 36.2769L76.6033 36.247C76.6409 36.3434 76.6641 36.4447 76.6721 36.5478C76.702 36.9034 76.5205 37.0961 76.1303 37.1307L74.9645 37.2295L74.9944 37.5668L74.6524 37.5967L74.6225 37.2594L74.1223 37.3029L74.084 36.8412Z" fill="white" style="fill:white;fill-opacity:1;"/>
<path d="M73.9803 36.1548C73.9482 36.1599 73.9153 36.1583 73.8838 36.1503C73.8523 36.1423 73.8227 36.1279 73.7969 36.1081C73.7696 36.0855 73.7472 36.0576 73.7311 36.0261C73.715 35.9945 73.7055 35.96 73.7033 35.9247C73.6971 35.8896 73.698 35.8536 73.706 35.8188C73.714 35.7841 73.7291 35.7513 73.7501 35.7226C73.7708 35.6974 73.7962 35.6765 73.825 35.6612C73.8537 35.6459 73.8852 35.6363 73.9176 35.6332C73.9495 35.6278 73.9821 35.6291 74.0134 35.6372C74.0447 35.6453 74.0739 35.6598 74.0991 35.68C74.1267 35.7031 74.1492 35.7317 74.1653 35.7639C74.1814 35.7961 74.1907 35.8312 74.1927 35.8671C74.1992 35.9018 74.1984 35.9375 74.1903 35.9719C74.1822 36.0063 74.1671 36.0387 74.1459 36.0669C74.1258 36.092 74.1008 36.1126 74.0724 36.1276C74.044 36.1426 74.0128 36.1515 73.9808 36.1539L73.9803 36.1548ZM76.5066 35.3595L76.5618 35.8208L74.5122 36.0641L74.457 35.6028L76.5066 35.3595Z" fill="white" style="fill:white;fill-opacity:1;"/>
<path d="M75.4148 35.0377C75.2278 35.0711 75.0357 35.0608 74.8533 35.0077C74.688 34.9604 74.5402 34.8653 74.4286 34.7345C74.3163 34.5991 74.2433 34.4355 74.2176 34.2615C74.1924 34.1384 74.1931 34.0113 74.2196 33.8884C74.2461 33.7655 74.2978 33.6495 74.3715 33.5476C74.534 33.3384 74.769 33.1975 75.0302 33.1527L75.1383 33.1322C75.3238 33.0981 75.5147 33.1075 75.6959 33.1598C75.8596 33.2071 76.006 33.3013 76.117 33.4306C76.2306 33.5668 76.3037 33.7322 76.328 33.9078C76.3551 34.0358 76.3537 34.1681 76.3239 34.2954C76.2942 34.4228 76.2368 34.542 76.1558 34.6447C75.9725 34.8602 75.7141 34.998 75.433 35.0302L75.4101 35.0349L75.4148 35.0377ZM75.3783 34.574C75.5535 34.5553 75.7183 34.4814 75.8489 34.363C75.8996 34.3131 75.9369 34.2511 75.9574 34.1829C75.9778 34.1147 75.9808 34.0425 75.9659 33.9729C75.9564 33.9021 75.9294 33.8348 75.8873 33.7771C75.8452 33.7195 75.7894 33.6732 75.7249 33.6426C75.55 33.5723 75.3577 33.5579 75.1743 33.6014C74.9996 33.6209 74.8357 33.6956 74.7064 33.8147C74.6573 33.8652 74.6207 33.9265 74.5994 33.9937C74.5782 34.0609 74.5729 34.1321 74.5841 34.2016C74.5952 34.2712 74.6224 34.3372 74.6636 34.3944C74.7047 34.4516 74.7586 34.4983 74.8211 34.531C74.9961 34.6037 75.1898 34.6189 75.374 34.5745L75.3783 34.574Z" fill="white" style="fill:white;fill-opacity:1;"/>
<path d="M73.9307 32.5263L74.1604 32.4599C74.0574 32.4097 73.9673 32.3364 73.8973 32.2457C73.8272 32.1549 73.7791 32.0492 73.7567 31.9368C73.6603 31.5192 73.8509 31.2507 74.3284 31.1312L75.6571 30.8239L75.7605 31.2758L74.4571 31.5766C74.3534 31.5913 74.2592 31.6446 74.1932 31.7258C74.1683 31.7697 74.1528 31.8183 74.1476 31.8684C74.1425 31.9186 74.1478 31.9693 74.1633 32.0173C74.18 32.1025 74.2213 32.1809 74.282 32.243C74.3428 32.305 74.4204 32.3478 74.5052 32.3663L75.9373 32.036L76.043 32.4879L74.0313 32.9516L73.9326 32.5268L73.9307 32.5263Z" fill="white" style="fill:white;fill-opacity:1;"/>
<path d="M74.6418 29.316C74.6049 29.3247 74.5712 29.3435 74.5444 29.3702C74.5177 29.397 74.4989 29.4307 74.4902 29.4676C74.4652 29.5852 74.4607 29.7063 74.4767 29.8255C74.4902 29.9639 74.4871 30.1033 74.4673 30.2409C74.461 30.3474 74.4225 30.4494 74.3569 30.5334C74.2914 30.6175 74.2018 30.6796 74.1001 30.7116C74.017 30.7367 73.9291 30.7417 73.8437 30.7262C73.7582 30.7106 73.6777 30.675 73.6088 30.6222C73.4434 30.4994 73.3252 30.3235 73.2739 30.124C73.2033 29.9207 73.2057 29.6992 73.2809 29.4975C73.3133 29.412 73.3656 29.3354 73.4335 29.274C73.5013 29.2126 73.5827 29.1681 73.6711 29.1443L73.802 29.5897C73.7612 29.6009 73.7232 29.6209 73.6909 29.6483C73.6586 29.6757 73.6326 29.7098 73.6149 29.7483C73.5761 29.8361 73.5719 29.9354 73.6032 30.0262C73.6249 30.1116 73.673 30.1879 73.7408 30.2442C73.7695 30.2676 73.8037 30.2834 73.8402 30.2901C73.8766 30.2969 73.9142 30.2945 73.9494 30.283C73.9815 30.2746 74.0107 30.2578 74.0341 30.2344C74.0575 30.211 74.0743 30.1817 74.0827 30.1497C74.1066 30.0242 74.1106 29.8957 74.0944 29.7689C74.08 29.6182 74.0853 29.4663 74.1104 29.317C74.1281 29.2151 74.1716 29.1195 74.2367 29.0391C74.3024 28.9639 74.3899 28.9109 74.487 28.8875C74.5713 28.8609 74.6609 28.8555 74.7478 28.8718C74.8347 28.8882 74.9163 28.9257 74.9852 28.9811C75.1524 29.1163 75.2708 29.3024 75.3225 29.5111C75.3699 29.6592 75.3831 29.8161 75.3613 29.9701C75.3441 30.1041 75.291 30.231 75.2074 30.3373C75.1309 30.4351 75.0257 30.5066 74.9066 30.5418L74.778 30.1104C74.8244 30.0962 74.8671 30.0717 74.9029 30.0388C74.9386 30.0058 74.9664 29.9652 74.9843 29.92C75.0189 29.8173 75.0189 29.706 74.9843 29.6033C74.9629 29.5077 74.9124 29.421 74.8397 29.3553C74.8122 29.3321 74.7791 29.3163 74.7437 29.3095C74.7083 29.3027 74.6718 29.3051 74.6376 29.3165L74.6418 29.316Z" fill="white" style="fill:white;fill-opacity:1;"/>
<path d="M25.5898 31.1345H19.9392L18.6564 34.6297H17.5547L22.2644 22.1852H23.267L27.9767 34.6297H26.8819L25.5898 31.1345ZM20.2653 30.2456H25.2571L22.7598 23.4676L20.263 30.2456H20.2653Z" fill="white" style="fill:white;fill-opacity:1;"/>
<path d="M30.9116 34.6334H29.8604V22.1871H30.9116V34.6334Z" fill="white" style="fill:white;fill-opacity:1;"/>
<path d="M42.9264 30.7518C42.8629 31.8985 42.3589 32.9764 41.5197 33.7605C40.6265 34.489 39.4947 34.8602 38.3435 34.8023C37.4768 34.8179 36.6248 34.5766 35.8949 34.109C35.1686 33.6274 34.5971 32.946 34.2495 32.1469C33.847 31.2326 33.6458 30.2424 33.6595 29.2435V27.6276C33.6398 26.6173 33.8378 25.6146 34.2401 24.6877C34.5901 23.8782 35.1713 23.1899 35.9108 22.7092C36.6615 22.2382 37.5332 21.9958 38.4193 22.0117C39.5716 21.9474 40.7039 22.3332 41.5772 23.0877C42.3832 23.879 42.8638 24.9433 42.9246 26.0711H41.8649C41.6032 23.9574 40.455 22.9001 38.4203 22.8992C37.9025 22.8811 37.3878 22.9866 36.9189 23.2069C36.45 23.4272 36.0403 23.756 35.7236 24.1661C35.0001 25.1843 34.6454 26.4189 34.7183 27.6659V29.1897C34.6546 30.4124 34.9985 31.6216 35.696 32.6278C35.9996 33.0406 36.3992 33.3732 36.8603 33.5967C37.3214 33.8203 37.83 33.928 38.3421 33.9106C39.2427 33.9794 40.1348 33.6956 40.8301 33.119C41.4427 32.4738 41.809 31.6337 41.8649 30.7457H42.925L42.9264 30.7518Z" fill="white" style="fill:white;fill-opacity:1;"/>
<path d="M46.3579 29.5635V34.6334H45.3066V22.1871H49.5457C50.6548 22.1251 51.7472 22.4787 52.6096 23.1789C53.3225 23.9007 53.7258 24.8719 53.734 25.8864C53.7421 26.9008 53.3543 27.8784 52.6531 28.6115C51.9323 29.2471 50.8875 29.5646 49.5186 29.564L46.3579 29.5635ZM46.3579 28.6746H49.5457C50.3873 28.7324 51.22 28.4729 51.8797 27.9471C52.1527 27.6874 52.3659 27.3714 52.5046 27.021C52.6433 26.6707 52.7042 26.2943 52.683 25.9181C52.7019 25.5382 52.6406 25.1585 52.503 24.8038C52.3654 24.4491 52.1546 24.1274 51.8844 23.8596C51.2579 23.3142 50.444 23.0335 49.6145 23.077H46.3579V28.677V28.6746Z" fill="white" style="fill:white;fill-opacity:1;"/>
<path d="M61.4501 31.1345H55.7996L54.5168 34.6297H53.415L58.1247 22.1852H59.1254L63.8352 34.6297H62.7404L61.4501 31.1345ZM56.1257 30.2456H61.1156L58.6188 23.4662L56.1233 30.2456H56.1257Z" fill="white" style="fill:white;fill-opacity:1;"/>
<path d="M32.6927 51.7862C32.7059 51.4756 32.6471 51.1662 32.5209 50.8822C32.3947 50.5981 32.2045 50.3471 31.9652 50.1487C31.1598 49.6022 30.2579 49.2135 29.3075 49.0035C28.3086 48.7664 27.3556 48.3663 26.4869 47.8194C26.0931 47.5621 25.7709 47.2094 25.55 46.7941C25.3292 46.3789 25.2169 45.9145 25.2237 45.4442C25.2127 44.9904 25.3143 44.541 25.5194 44.1361C25.7245 43.7312 26.0266 43.3834 26.3989 43.1237C27.2734 42.5006 28.3305 42.1866 29.4034 42.2311C30.1702 42.2185 30.9296 42.3825 31.6228 42.7106C32.2444 43.0026 32.7705 43.465 33.14 44.044C33.4994 44.6147 33.6866 45.2769 33.6794 45.9513H32.6193C32.6341 45.5658 32.5637 45.1818 32.4129 44.8267C32.2622 44.4716 32.0349 44.1541 31.7472 43.8971C31.0916 43.3528 30.2547 43.0758 29.4038 43.1214C28.5957 43.0749 27.7952 43.2995 27.1292 43.7595C26.8623 43.9466 26.6455 44.1965 26.4979 44.4871C26.3502 44.7776 26.2762 45.1001 26.2824 45.4259C26.2764 45.726 26.3421 46.0232 26.4743 46.2927C26.6065 46.5621 26.8012 46.7961 27.0422 46.9749C27.7789 47.4783 28.6044 47.8374 29.4749 48.0332C30.3559 48.2479 31.208 48.5669 32.0134 48.9834C32.5367 49.2621 32.983 49.6658 33.3126 50.1586C33.6117 50.6435 33.7632 51.2049 33.7486 51.7745C33.7602 52.2338 33.6591 52.6889 33.4542 53.1002C33.2494 53.5114 32.947 53.8663 32.5734 54.1338C31.6669 54.7636 30.5775 55.0761 29.4749 55.0227C28.6464 55.0326 27.8246 54.8724 27.0604 54.552C26.3879 54.2856 25.8084 53.8275 25.394 53.2346C25.0122 52.6608 24.8137 51.9846 24.8246 51.2954H25.8759C25.8606 51.6951 25.942 52.0926 26.113 52.4542C26.284 52.8158 26.5397 53.1308 26.8583 53.3726C27.6204 53.9126 28.5422 54.1803 29.4749 54.1324C30.3013 54.173 31.1191 53.9486 31.809 53.4919C32.0863 53.3047 32.3123 53.0509 32.4663 52.7539C32.6202 52.4568 32.6973 52.1259 32.6904 51.7913L32.6927 51.7862Z" fill="white" style="fill:white;fill-opacity:1;"/>
<path d="M45.0402 49.2987C45.0623 50.3358 44.8594 51.3654 44.4456 52.3167C44.0887 53.1357 43.499 53.8316 42.7497 54.3181C41.9867 54.7942 41.1016 55.0381 40.2023 55.0199C39.5358 55.0423 38.8728 54.9135 38.2631 54.6432C37.6534 54.3729 37.1128 53.9681 36.6819 53.4592C35.7867 52.4196 35.3392 51.0161 35.3392 49.2486V47.9658C35.3195 46.9295 35.5255 45.9013 35.9427 44.9525C36.2283 44.3498 36.6374 43.8138 37.1434 43.3792C37.6494 42.9447 38.241 42.6213 38.88 42.43C39.519 42.2387 40.191 42.1838 40.8525 42.2688C41.5141 42.3538 42.1504 42.5769 42.7202 42.9235C43.4636 43.3977 44.0528 44.078 44.4161 44.8814C44.8318 45.8032 45.0446 46.8035 45.0402 47.8147V49.302V49.2987ZM43.989 47.949C43.989 46.4503 43.6501 45.2761 42.9724 44.4262C42.6287 44.0262 42.2026 43.7052 41.7233 43.4854C41.244 43.2655 40.7228 43.1519 40.1954 43.1523C39.6681 43.1528 39.147 43.2672 38.6681 43.4879C38.1891 43.7086 37.7636 44.0303 37.4206 44.4309C36.7344 45.2823 36.3913 46.4719 36.3913 47.9995V49.2987C36.3233 50.551 36.6853 51.789 37.4173 52.8075C37.7598 53.2118 38.1859 53.5369 38.6664 53.7604C39.1468 53.9839 39.67 54.1004 40.1998 54.1019C40.7297 54.1034 41.2535 53.9899 41.7352 53.7691C42.2169 53.5484 42.6449 53.2257 42.9897 52.8234C43.6575 51.9719 43.991 50.7853 43.9904 49.2636V47.9466L43.989 47.949Z" fill="white" style="fill:white;fill-opacity:1;"/>
<path d="M56.3302 50.9651C56.2667 52.1119 55.7627 53.1898 54.9235 53.9738C54.0301 54.7025 52.8982 55.0737 51.7468 55.0157C50.8801 55.0312 50.0281 54.79 49.2982 54.3223C48.5719 53.8408 48.0004 53.1593 47.6528 52.3602C47.2503 51.4459 47.0491 50.4557 47.0629 49.4568V47.8409C47.0431 46.8307 47.2411 45.828 47.6435 44.901C47.9934 44.0915 48.5746 43.4032 49.3141 42.9226C50.0649 42.4515 50.9365 42.2092 51.8226 42.225C52.975 42.1607 54.1072 42.5465 54.9805 43.301C55.7865 44.0923 56.2672 45.1566 56.3279 46.2844H55.2687C55.007 44.1708 53.8588 43.1134 51.824 43.1125C51.3058 43.0945 50.7907 43.2004 50.3215 43.4212C49.8523 43.642 49.4425 43.9714 49.126 44.3822C48.4025 45.4005 48.0478 46.6351 48.1206 47.8821V49.4058C48.057 50.6285 48.4009 51.8378 49.0984 52.844C49.402 53.2568 49.8016 53.5894 50.2627 53.8129C50.7238 54.0364 51.2324 54.1442 51.7445 54.1268C52.6451 54.1956 53.5372 53.9117 54.2325 53.3352C54.845 52.6899 55.2113 51.8499 55.2673 50.9619H56.3274L56.3302 50.9651Z" fill="white" style="fill:white;fill-opacity:1;"/>
<path d="M17.1699 38.6769H64.6113" stroke="white" style="stroke:white;stroke-opacity:1;" stroke-width="0.93" stroke-linecap="round" stroke-linejoin="round"/>
<path d="M24.9577 62.0524C24.9258 61.9716 24.9064 61.8864 24.9002 61.7998C24.8133 61.8943 24.7075 61.9695 24.5897 62.0205C24.4718 62.0716 24.3446 62.0972 24.2162 62.0959C24.0038 62.1044 23.7958 62.0331 23.6333 61.8961C23.5598 61.8335 23.5013 61.7553 23.4619 61.6671C23.4226 61.579 23.4035 61.4832 23.4059 61.3867C23.401 61.2735 23.4245 61.1609 23.4742 61.0591C23.5238 60.9573 23.5982 60.8695 23.6903 60.8037C23.9291 60.6526 24.2093 60.5805 24.4913 60.5974H24.8908V60.4103C24.8936 60.3475 24.8837 60.2849 24.8616 60.2261C24.8394 60.1673 24.8056 60.1136 24.7622 60.0683C24.7108 60.0227 24.6509 59.9878 24.5859 59.9657C24.5209 59.9436 24.4522 59.9347 24.3837 59.9396C24.2525 59.9349 24.1234 59.9735 24.0164 60.0496C23.9715 60.0787 23.9344 60.1184 23.9084 60.1653C23.8823 60.2121 23.8682 60.2646 23.8672 60.3181H23.4541C23.4569 60.1914 23.5022 60.0693 23.5827 59.9715C23.6733 59.8548 23.7928 59.7638 23.9294 59.7076C24.0805 59.6412 24.2439 59.6076 24.4089 59.6089C24.6436 59.5948 24.875 59.6685 25.0583 59.8157C25.1377 59.8878 25.2005 59.9762 25.2425 60.0749C25.2845 60.1736 25.3046 60.2802 25.3016 60.3874V61.4915C25.2942 61.6705 25.3232 61.8492 25.3867 62.0168V62.0514H24.9549L24.9577 62.0524ZM24.2761 61.7403C24.4042 61.7397 24.53 61.7056 24.641 61.6416C24.7489 61.5828 24.8362 61.4923 24.8913 61.3824V60.8889H24.5699C24.0674 60.8889 23.8148 61.0358 23.8148 61.3296C23.8121 61.3862 23.8222 61.4427 23.8445 61.4948C23.8668 61.5469 23.9006 61.5933 23.9434 61.6304C24.0365 61.7059 24.1541 61.7444 24.2737 61.7385L24.2761 61.7403Z" fill="white" style="fill:white;fill-opacity:1;"/>
<path d="M25.8343 59.0157C25.8326 58.9836 25.8378 58.9515 25.8495 58.9216C25.8612 58.8917 25.8792 58.8646 25.9022 58.8422C25.9253 58.8198 25.9529 58.8027 25.9831 58.7918C26.0133 58.781 26.0456 58.7767 26.0776 58.7794C26.111 58.7769 26.1446 58.7818 26.1759 58.7937C26.2073 58.8056 26.2357 58.8242 26.2591 58.8482C26.3005 58.894 26.3226 58.954 26.3209 59.0157C26.323 59.0767 26.3007 59.1361 26.2591 59.1808C26.2084 59.2237 26.1442 59.2472 26.0778 59.2472C26.0114 59.2472 25.9472 59.2237 25.8965 59.1808C25.855 59.136 25.8327 59.0767 25.8343 59.0157ZM26.2773 62.0519H25.8666V59.6514H26.2773V62.0519Z" fill="white" style="fill:white;fill-opacity:1;"/>
<path d="M27.7836 61.7628C27.9231 61.7654 28.0589 61.7181 28.1667 61.6295C28.2186 61.5899 28.2616 61.5398 28.2929 61.4825C28.3242 61.4251 28.343 61.3619 28.3482 61.2968H28.7361C28.7279 61.4384 28.6792 61.5747 28.5957 61.6893C28.5057 61.8154 28.3858 61.9172 28.2467 61.9855C28.1038 62.0582 27.9457 62.0958 27.7854 62.0954C27.6393 62.1017 27.4935 62.0757 27.3586 62.019C27.2237 61.9624 27.103 61.8767 27.0051 61.7679C26.8007 61.516 26.6976 61.1969 26.7159 60.873V60.8042C26.7125 60.5892 26.7565 60.3762 26.8446 60.1801C26.9237 60.0055 27.0522 59.8578 27.2142 59.7553C27.3856 59.6514 27.5832 59.5988 27.7836 59.6037C28.0295 59.5953 28.2693 59.6815 28.4535 59.8447C28.5419 59.924 28.6128 60.0209 28.6618 60.1291C28.7108 60.2374 28.7367 60.3546 28.7379 60.4734H28.3501C28.3426 60.3277 28.2793 60.1905 28.1733 60.0903C28.0671 59.9909 27.9261 59.9373 27.7807 59.941C27.6879 59.9366 27.5953 59.9548 27.511 59.994C27.4266 60.0332 27.3531 60.0922 27.2965 60.1661C27.1695 60.3586 27.109 60.5875 27.1244 60.8177V60.8959C27.1102 61.1214 27.1698 61.3454 27.2942 61.534C27.3515 61.6081 27.4259 61.6673 27.511 61.7065C27.5962 61.7457 27.6895 61.7637 27.7831 61.759L27.7836 61.7628Z" fill="white" style="fill:white;fill-opacity:1;"/>
<path d="M31.114 60.8795C31.1292 61.1935 31.0413 61.5039 30.8637 61.7633C30.7866 61.8705 30.6843 61.9572 30.5659 62.0156C30.4474 62.074 30.3164 62.1024 30.1844 62.0982C30.0563 62.1045 29.9284 62.0829 29.8095 62.035C29.6906 61.987 29.5835 61.9137 29.4957 61.8203V62.9773H29.085V59.6557H29.4592L29.4798 59.9219C29.5635 59.8195 29.6699 59.7382 29.7906 59.6844C29.9114 59.6307 30.043 59.6059 30.175 59.6122C30.3071 59.6064 30.4387 59.6333 30.5579 59.6904C30.6772 59.7475 30.7806 59.8331 30.859 59.9396C31.0411 60.2056 31.13 60.5245 31.1116 60.8463V60.8828L31.114 60.8795ZM30.7032 60.8327C30.7158 60.6063 30.6554 60.3818 30.531 60.1923C30.4775 60.117 30.4061 60.0561 30.3232 60.0153C30.2403 59.9745 30.1485 59.9549 30.0562 59.9583C29.9409 59.9545 29.8269 59.9835 29.7275 60.042C29.6281 60.1005 29.5474 60.186 29.4948 60.2886V61.4362C29.548 61.5389 29.6295 61.6242 29.7295 61.6822C29.8295 61.7402 29.9439 61.7685 30.0595 61.7637C30.1507 61.7666 30.2413 61.7467 30.3229 61.7059C30.4046 61.665 30.4748 61.6045 30.5273 61.5298C30.658 61.3226 30.7191 61.079 30.7018 60.8346L30.7032 60.8327Z" fill="white" style="fill:white;fill-opacity:1;"/>
<path d="M33.0026 62.0524C32.9707 61.9716 32.9513 61.8864 32.9451 61.7998C32.8582 61.8943 32.7524 61.9695 32.6346 62.0205C32.5168 62.0716 32.3895 62.0972 32.2611 62.0959C32.0487 62.1044 31.8408 62.0331 31.6782 61.8961C31.6047 61.8335 31.5462 61.7553 31.5069 61.6671C31.4675 61.579 31.4484 61.4832 31.4508 61.3867C31.446 61.2735 31.4694 61.1609 31.5191 61.0591C31.5688 60.9573 31.6431 60.8695 31.7353 60.8037C31.974 60.6527 32.2542 60.5805 32.5362 60.5974H32.9357V60.4103C32.9385 60.3475 32.9286 60.2849 32.9065 60.2261C32.8844 60.1673 32.8506 60.1136 32.8071 60.0683C32.7558 60.0227 32.6958 59.9878 32.6308 59.9657C32.5658 59.9436 32.4971 59.9347 32.4286 59.9396C32.2974 59.9349 32.1683 59.9735 32.0613 60.0496C32.0164 60.0787 31.9793 60.1184 31.9533 60.1653C31.9273 60.2121 31.9131 60.2646 31.9121 60.3181H31.499C31.5018 60.1914 31.5471 60.0693 31.6277 59.9715C31.7182 59.8548 31.8377 59.7638 31.9743 59.7076C32.1254 59.6412 32.2888 59.6076 32.4539 59.6089C32.6885 59.5948 32.9199 59.6685 33.1032 59.8157C33.1826 59.8878 33.2454 59.9762 33.2874 60.0749C33.3294 60.1736 33.3496 60.2802 33.3465 60.3874V61.4915C33.3392 61.6705 33.3681 61.8492 33.4316 62.0168V62.0514H33.0003L33.0026 62.0524ZM32.321 61.7403C32.4491 61.7397 32.5749 61.7056 32.6859 61.6416C32.7938 61.5828 32.8811 61.4923 32.9362 61.3824V60.8889H32.6148C32.1123 60.8889 31.8597 61.0358 31.8597 61.3296C31.857 61.3862 31.8671 61.4427 31.8894 61.4948C31.9117 61.5469 31.9455 61.5933 31.9884 61.6304C32.0814 61.7059 32.199 61.7444 32.3187 61.7385L32.321 61.7403Z" fill="white" style="fill:white;fill-opacity:1;"/>
<path d="M33.885 61.8391C33.8822 61.774 33.9052 61.7104 33.9491 61.6622C33.9741 61.6377 34.0039 61.6186 34.0367 61.6064C34.0695 61.5941 34.1046 61.5889 34.1395 61.5911C34.1749 61.5884 34.2104 61.5934 34.2436 61.6056C34.2769 61.6179 34.3071 61.6372 34.3323 61.6622C34.3765 61.7103 34.4003 61.7737 34.3987 61.8391C34.3996 61.8704 34.3941 61.9015 34.3827 61.9307C34.3713 61.9599 34.3541 61.9865 34.3323 62.0089C34.3067 62.0331 34.2763 62.0517 34.2431 62.0636C34.2099 62.0754 34.1746 62.0802 34.1395 62.0777C34.1047 62.0802 34.0698 62.0754 34.037 62.0636C34.0042 62.0517 33.9742 62.0331 33.9491 62.0089C33.9061 61.963 33.8831 61.9019 33.885 61.8391Z" fill="white" style="fill:white;fill-opacity:1;"/>
<path d="M34.8518 60.8313C34.8481 60.6124 34.8952 60.3956 34.9893 60.1979C35.0736 60.0194 35.2074 59.8688 35.3748 59.7642C35.5449 59.661 35.7406 59.6077 35.9395 59.6103C36.0889 59.6047 36.2377 59.6322 36.3752 59.691C36.5127 59.7497 36.6355 59.8381 36.7348 59.9499C36.9456 60.2018 37.0538 60.5239 37.038 60.8519V60.8819C37.0418 61.0989 36.9962 61.3139 36.9046 61.5106C36.8213 61.6891 36.6883 61.8397 36.5215 61.9443C36.3489 62.0495 36.15 62.1037 35.9479 62.1006C35.7991 62.106 35.6509 62.0783 35.514 62.0196C35.3771 61.9608 35.255 61.8725 35.1563 61.7609C34.946 61.5106 34.8377 61.1902 34.8532 60.8636V60.8337L34.8518 60.8313ZM35.2649 60.8781C35.2537 61.1066 35.3196 61.3321 35.452 61.5186C35.5109 61.594 35.5864 61.6549 35.6725 61.6966C35.7586 61.7383 35.8531 61.7598 35.9488 61.7594C36.0445 61.7589 36.1388 61.7365 36.2245 61.694C36.3103 61.6515 36.3851 61.5899 36.4433 61.5139C36.5767 61.3108 36.641 61.0701 36.6267 60.8276C36.6382 60.5991 36.5723 60.3735 36.4396 60.1871C36.3827 60.1089 36.3076 60.0456 36.2208 60.0028C36.134 59.9601 36.0381 59.939 35.9413 59.9415C35.8461 59.9389 35.7516 59.9595 35.6661 60.0015C35.5805 60.0435 35.5064 60.1056 35.4501 60.1825C35.3121 60.3862 35.2463 60.6303 35.263 60.8758L35.2649 60.8781Z" fill="white" style="fill:white;fill-opacity:1;"/>
<path d="M38.5967 60.021C38.5298 60.0107 38.4623 60.0054 38.3946 60.0051C38.2783 59.9959 38.1622 60.0244 38.0634 60.0865C37.9647 60.1485 37.8885 60.2407 37.8463 60.3495V62.0524H37.4355V59.6519H37.8351L37.8421 59.9298C37.8997 59.8298 37.9832 59.7471 38.0838 59.6906C38.1844 59.634 38.2984 59.6056 38.4138 59.6084C38.476 59.6042 38.5383 59.6153 38.5953 59.6407V60.0215L38.5967 60.021Z" fill="white" style="fill:white;fill-opacity:1;"/>
<path d="M38.7217 60.8337C38.705 60.5154 38.7963 60.2009 38.9808 59.941C39.0636 59.8395 39.1677 59.7573 39.2856 59.7002C39.4035 59.6431 39.5325 59.6125 39.6635 59.6106C39.7945 59.6086 39.9244 59.6353 40.044 59.6889C40.1636 59.7424 40.27 59.8215 40.3558 59.9205L40.3764 59.6543H40.7507V61.9977C40.7578 62.1325 40.737 62.2673 40.6896 62.3937C40.6422 62.5201 40.5692 62.6353 40.4751 62.7322C40.3756 62.824 40.2587 62.8951 40.1314 62.9412C40.0041 62.9873 39.8688 63.0075 39.7336 63.0007C39.5587 63.0002 39.3858 62.9628 39.2265 62.8908C39.0741 62.8276 38.9429 62.7225 38.848 62.5876L39.0613 62.342C39.1355 62.4434 39.2325 62.5258 39.3445 62.5827C39.4565 62.6396 39.5804 62.6693 39.706 62.6695C39.7912 62.6746 39.8766 62.6624 39.957 62.6336C40.0374 62.6048 40.1112 62.5601 40.1738 62.502C40.2323 62.4382 40.2773 62.3633 40.3061 62.2817C40.3349 62.2001 40.3468 62.1135 40.3413 62.0271V61.8204C40.2578 61.9152 40.154 61.99 40.0376 62.0392C39.9212 62.0884 39.7952 62.1109 39.669 62.1048C39.5363 62.1081 39.4048 62.0789 39.286 62.0197C39.1672 61.9605 39.0646 61.8731 38.9874 61.7652C38.7998 61.4945 38.7078 61.169 38.7259 60.8402L38.7217 60.8337ZM39.1348 60.8805C39.1216 61.1056 39.1802 61.329 39.3022 61.5186C39.3541 61.5939 39.4243 61.6549 39.5061 61.6958C39.5879 61.7367 39.6787 61.7562 39.7701 61.7525C39.8894 61.7575 40.0076 61.7265 40.1091 61.6635C40.2106 61.6005 40.2909 61.5085 40.3394 61.3993V60.3046C40.2886 60.1988 40.2082 60.11 40.108 60.0489C40.0078 59.9878 39.8921 59.957 39.7748 59.9602C39.6834 59.9569 39.5927 59.9765 39.5109 60.0174C39.4292 60.0583 39.359 60.1191 39.3069 60.1942C39.1811 60.4017 39.1226 60.643 39.1394 60.8851L39.1348 60.8805Z" fill="white" style="fill:white;fill-opacity:1;"/>
<path d="M41.3356 62.3298H40.9824L42.3321 58.821H42.6835L41.3356 62.3298Z" fill="white" style="fill:white;fill-opacity:1;"/>
<path d="M44.4082 61.4185C44.4104 61.3682 44.4 61.3181 44.3779 61.2729C44.3559 61.2276 44.3229 61.1886 44.2819 61.1593C44.1485 61.078 44.0003 61.0241 43.8459 61.0007C43.6745 60.9684 43.5078 60.9145 43.35 60.8402C43.2423 60.7901 43.1491 60.7135 43.0791 60.6175C43.02 60.5269 42.9897 60.4206 42.9921 60.3125C42.9917 60.2156 43.0142 60.12 43.0577 60.0334C43.1012 59.9469 43.1644 59.8718 43.2424 59.8143C43.4246 59.6734 43.6504 59.6011 43.8805 59.6098C44.119 59.5987 44.3536 59.6736 44.5416 59.8208C44.6229 59.8849 44.6882 59.9669 44.7325 60.0605C44.7767 60.1541 44.7987 60.2567 44.7966 60.3602H44.3834C44.3831 60.3043 44.3704 60.2491 44.3461 60.1987C44.3218 60.1483 44.2867 60.1039 44.2431 60.0687C44.1423 59.9848 44.0139 59.9415 43.8829 59.9471C43.7581 59.9402 43.6345 59.9749 43.5315 60.0458C43.4912 60.0748 43.4586 60.1131 43.4366 60.1576C43.4146 60.202 43.4038 60.2512 43.4052 60.3008C43.403 60.3453 43.4127 60.3896 43.4332 60.4292C43.4538 60.4687 43.4845 60.5021 43.5222 60.5258C43.6553 60.5959 43.7987 60.6447 43.947 60.6704C44.1191 60.7051 44.2864 60.7606 44.4452 60.8355C44.5563 60.8877 44.6528 60.9666 44.7259 61.0652C44.7904 61.162 44.8231 61.2765 44.8195 61.3927C44.8217 61.4929 44.7995 61.5921 44.7547 61.6818C44.71 61.7715 44.644 61.8489 44.5626 61.9074C44.3673 62.0438 44.1326 62.1123 43.8946 62.1024C43.7195 62.1056 43.5457 62.0711 43.3851 62.0014C43.2458 61.9399 43.1259 61.8415 43.0384 61.7169C42.9568 61.6005 42.9127 61.4619 42.9121 61.3197H43.3229C43.3243 61.3832 43.3399 61.4455 43.3685 61.5021C43.397 61.5588 43.4379 61.6084 43.488 61.6472C43.6053 61.7335 43.7488 61.7764 43.8941 61.7689C44.0253 61.7751 44.1555 61.7426 44.2684 61.6753C44.312 61.6493 44.3479 61.6123 44.3726 61.5679C44.3972 61.5235 44.4097 61.4734 44.4087 61.4227L44.4082 61.4185Z" fill="white" style="fill:white;fill-opacity:1;"/>
<path d="M45.1311 60.8313C45.1274 60.6124 45.1745 60.3956 45.2686 60.1979C45.3528 60.0194 45.4867 59.8688 45.6541 59.7642C45.8242 59.661 46.0199 59.6077 46.2188 59.6103C46.3682 59.6047 46.517 59.6322 46.6545 59.691C46.792 59.7497 46.9148 59.8381 47.0141 59.9499C47.2249 60.2018 47.3331 60.5239 47.3173 60.8519V60.8819C47.3211 61.0989 47.2755 61.3139 47.1839 61.5106C47.1006 61.6891 46.9676 61.8397 46.8008 61.9443C46.6282 62.0495 46.4293 62.1037 46.2272 62.1006C46.0784 62.106 45.9302 62.0783 45.7933 62.0196C45.6564 61.9608 45.5343 61.8725 45.4356 61.7609C45.2253 61.5106 45.117 61.1902 45.1325 60.8636V60.8337L45.1311 60.8313ZM45.5442 60.8781C45.533 61.1066 45.5989 61.3321 45.7313 61.5186C45.7902 61.594 45.8657 61.6549 45.9518 61.6966C46.0379 61.7383 46.1324 61.7598 46.2281 61.7594C46.3238 61.7589 46.4181 61.7365 46.5038 61.694C46.5896 61.6515 46.6644 61.5899 46.7226 61.5139C46.856 61.3108 46.9203 61.0701 46.906 60.8276C46.9175 60.5991 46.8516 60.3735 46.7189 60.1871C46.662 60.1089 46.5869 60.0456 46.5001 60.0028C46.4133 59.9601 46.3174 59.939 46.2207 59.9415C46.1254 59.9389 46.0309 59.9595 45.9454 60.0015C45.8598 60.0435 45.7857 60.1056 45.7294 60.1825C45.5914 60.3862 45.5256 60.6303 45.5423 60.8758L45.5442 60.8781Z" fill="white" style="fill:white;fill-opacity:1;"/>
<path d="M48.68 61.7628C48.8196 61.7654 48.9554 61.7181 49.0632 61.6295C49.1151 61.5899 49.1581 61.5398 49.1894 61.4825C49.2207 61.4251 49.2395 61.3619 49.2447 61.2968H49.6326C49.6244 61.4384 49.5757 61.5747 49.4922 61.6893C49.4022 61.8154 49.2823 61.9172 49.1432 61.9855C49.0003 62.0582 48.8422 62.0958 48.6819 62.0954C48.5357 62.1017 48.39 62.0757 48.2551 62.019C48.1202 61.9624 47.9994 61.8767 47.9016 61.7679C47.6972 61.516 47.5941 61.1969 47.6124 60.873V60.8042C47.609 60.5892 47.653 60.3762 47.7411 60.1801C47.8202 60.0055 47.9487 59.8578 48.1107 59.7553C48.2821 59.6514 48.4797 59.5988 48.68 59.6037C48.926 59.5953 49.1658 59.6815 49.35 59.8447C49.4384 59.924 49.5093 60.0209 49.5582 60.1292C49.6072 60.2374 49.6332 60.3546 49.6344 60.4734H49.2466C49.2391 60.3277 49.1758 60.1905 49.0697 60.0903C48.9636 59.9909 48.8226 59.9373 48.6772 59.941C48.5843 59.9366 48.4918 59.9548 48.4074 59.994C48.3231 60.0332 48.2495 60.0922 48.193 60.1661C48.0659 60.3586 48.0055 60.5875 48.0209 60.8177V60.8959C48.0067 61.1214 48.0663 61.3454 48.1907 61.534C48.248 61.6081 48.3224 61.6673 48.4075 61.7065C48.4926 61.7457 48.586 61.7637 48.6796 61.759L48.68 61.7628Z" fill="white" style="fill:white;fill-opacity:1;"/>
<path d="M51.6706 60.9679H52.1183V61.3029H51.6706V62.0514H51.2575V61.3029H49.7861V61.0615L51.2322 58.8239H51.6682V60.9698L51.6706 60.9679ZM50.2521 60.9679H51.2575V59.3843L51.2107 59.4737L50.2521 60.9679Z" fill="white" style="fill:white;fill-opacity:1;"/>
<path d="M53.8155 61.4185C53.8176 61.3682 53.8072 61.3181 53.7852 61.2729C53.7631 61.2276 53.7301 61.1886 53.6892 61.1593C53.5558 61.078 53.4076 61.0241 53.2531 61.0007C53.0818 60.9681 52.9152 60.9142 52.7572 60.8402C52.6496 60.7901 52.5564 60.7135 52.4864 60.6175C52.4273 60.5269 52.3969 60.4206 52.3993 60.3125C52.3989 60.2156 52.4214 60.12 52.4649 60.0334C52.5084 59.9469 52.5717 59.8718 52.6496 59.8143C52.8318 59.6734 53.0577 59.6011 53.2878 59.6098C53.5263 59.5987 53.7608 59.6736 53.9488 59.8208C54.0301 59.8849 54.0955 59.9669 54.1397 60.0605C54.184 60.1541 54.2059 60.2567 54.2038 60.3602H53.7907C53.7904 60.3043 53.7776 60.2491 53.7533 60.1987C53.7291 60.1483 53.6939 60.1039 53.6503 60.0687C53.5488 59.9861 53.4209 59.9429 53.2901 59.9471C53.1653 59.9402 53.0417 59.9749 52.9388 60.0458C52.8984 60.0748 52.8658 60.1131 52.8438 60.1576C52.8218 60.202 52.811 60.2512 52.8124 60.3008C52.8102 60.3453 52.8199 60.3896 52.8404 60.4292C52.861 60.4687 52.8917 60.5021 52.9294 60.5258C53.0626 60.5959 53.2059 60.6447 53.3542 60.6704C53.5263 60.7051 53.6936 60.7606 53.8524 60.8355C53.9636 60.8877 54.06 60.9666 54.1331 61.0652C54.1977 61.162 54.2304 61.2765 54.2267 61.3927C54.2289 61.4929 54.2067 61.5921 54.162 61.6818C54.1172 61.7715 54.0513 61.8489 53.9699 61.9074C53.7745 62.0438 53.5398 62.1123 53.3018 62.1024C53.1267 62.1056 52.953 62.0711 52.7923 62.0014C52.653 61.9399 52.5332 61.8415 52.4457 61.7169C52.364 61.6005 52.3199 61.4619 52.3193 61.3197H52.7301C52.7315 61.3832 52.7471 61.4455 52.7757 61.5021C52.8043 61.5588 52.8451 61.6084 52.8952 61.6472C53.013 61.7325 53.1561 61.7753 53.3013 61.7689C53.4326 61.7751 53.5627 61.7426 53.6756 61.6753C53.7192 61.6493 53.7551 61.6123 53.7798 61.5679C53.8044 61.5235 53.8169 61.4734 53.8159 61.4227L53.8155 61.4185Z" fill="white" style="fill:white;fill-opacity:1;"/>
<path d="M54.5393 60.8313C54.5356 60.6124 54.5827 60.3956 54.6768 60.1979C54.7604 60.0189 54.8944 59.8682 55.0623 59.7642C55.2324 59.661 55.4281 59.6077 55.627 59.6103C55.7764 59.6047 55.9252 59.6322 56.0627 59.691C56.2002 59.7497 56.323 59.8381 56.4223 59.9499C56.6331 60.2018 56.7413 60.5239 56.7255 60.8519V60.8819C56.7293 61.0989 56.6837 61.3139 56.5921 61.5106C56.5088 61.6891 56.3758 61.8397 56.209 61.9443C56.0364 62.0495 55.8375 62.1037 55.6354 62.1006C55.4866 62.106 55.3384 62.0783 55.2015 62.0196C55.0646 61.9608 54.9425 61.8725 54.8438 61.7609C54.6335 61.5106 54.5252 61.1902 54.5407 60.8636V60.8337L54.5393 60.8313ZM54.9524 60.8781C54.9412 61.1066 55.0071 61.3321 55.1395 61.5186C55.1984 61.594 55.2739 61.6549 55.36 61.6966C55.4461 61.7383 55.5406 61.7598 55.6363 61.7594C55.732 61.7589 55.8263 61.7365 55.9121 61.694C55.9978 61.6515 56.0726 61.5899 56.1308 61.5139C56.2652 61.3113 56.3296 61.0703 56.3142 60.8276C56.3257 60.5991 56.2598 60.3735 56.1271 60.1871C56.0702 60.1089 55.9951 60.0456 55.9083 60.0028C55.8215 59.9601 55.7256 59.939 55.6288 59.9415C55.5336 59.9389 55.4391 59.9595 55.3536 60.0015C55.268 60.0435 55.1939 60.1056 55.1376 60.1825C54.9996 60.3862 54.9338 60.6303 54.9505 60.8758L54.9524 60.8781Z" fill="white" style="fill:white;fill-opacity:1;"/>
<path d="M73.9627 71.5036V71.7815H73.4279V73.1771H73.0939V71.7815H72.5605V71.5036H73.9627ZM75.769 73.1743L75.7072 72.1918C75.7002 72.0632 75.7002 71.9027 75.6955 71.724H75.6773C75.6338 71.8709 75.5837 72.0683 75.5369 72.2222L75.2361 73.1495H74.8918L74.591 72.197C74.561 72.0683 74.5105 71.8695 74.474 71.724H74.4557C74.4557 71.8779 74.4487 72.0384 74.4441 72.1918L74.3823 73.1743H74.0632L74.1872 71.5036H74.6845L74.9736 72.3205C75.0101 72.4491 75.0401 72.5731 75.0836 72.7453H75.0906C75.1341 72.5914 75.1711 72.4491 75.2076 72.3275L75.4967 71.5036H75.9762L76.1049 73.1743H75.7722H75.769Z" fill="#231F20" style="fill:#231F20;fill:color(display-p3 0.1373 0.1216 0.1255);fill-opacity:1;"/>
</g>
<defs>
<linearGradient id="paint0_linear_2011_411" x1="80" y1="40" x2="0.240004" y2="40" gradientUnits="userSpaceOnUse">
<stop stop-color="#2161AD" style="stop-color:#2161AD;stop-color:color(display-p3 0.1294 0.3804 0.6784);stop-opacity:1;"/>
<stop offset="0.18" stop-color="#1F69B3" style="stop-color:#1F69B3;stop-color:color(display-p3 0.1216 0.4118 0.7020);stop-opacity:1;"/>
<stop offset="0.47" stop-color="#1C82C4" style="stop-color:#1C82C4;stop-color:color(display-p3 0.1098 0.5098 0.7686);stop-opacity:1;"/>
<stop offset="0.84" stop-color="#16A9E1" style="stop-color:#16A9E1;stop-color:color(display-p3 0.0863 0.6627 0.8824);stop-opacity:1;"/>
<stop offset="1" stop-color="#14BDEF" style="stop-color:#14BDEF;stop-color:color(display-p3 0.0784 0.7412 0.9373);stop-opacity:1;"/>
</linearGradient>
<linearGradient id="paint1_linear_2011_411" x1="8.9707" y1="8.87766" x2="71.1209" y2="8.87766" gradientUnits="userSpaceOnUse">
<stop stop-color="#2161AD" style="stop-color:#2161AD;stop-color:color(display-p3 0.1294 0.3804 0.6784);stop-opacity:1;"/>
<stop offset="0.18" stop-color="#1F69B3" style="stop-color:#1F69B3;stop-color:color(display-p3 0.1216 0.4118 0.7020);stop-opacity:1;"/>
<stop offset="0.47" stop-color="#1C82C4" style="stop-color:#1C82C4;stop-color:color(display-p3 0.1098 0.5098 0.7686);stop-opacity:1;"/>
<stop offset="0.84" stop-color="#16A9E1" style="stop-color:#16A9E1;stop-color:color(display-p3 0.0863 0.6627 0.8824);stop-opacity:1;"/>
<stop offset="1" stop-color="#14BDEF" style="stop-color:#14BDEF;stop-color:color(display-p3 0.0784 0.7412 0.9373);stop-opacity:1;"/>
</linearGradient>
<clipPath id="clip0_2011_411">
<rect width="80" height="80" fill="white" style="fill:white;fill-opacity:1;"/>
</clipPath>
</defs>
</svg>
