<svg width="48" height="49" viewBox="0 0 48 49" fill="none" xmlns="http://www.w3.org/2000/svg">
<path d="M22.0956 2.72558C22.2021 2.72522 22.3085 2.72486 22.4182 2.72449C22.6429 2.72423 22.8676 2.72492 23.0924 2.72649C23.4362 2.7285 23.7799 2.72651 24.1237 2.72411C24.3422 2.72436 24.5607 2.72484 24.7792 2.72558C24.9333 2.72444 24.9333 2.72444 25.0906 2.72328C25.7964 2.73196 25.7964 2.73196 26.1634 2.93484C26.3583 3.1678 26.4663 3.36516 26.574 3.64879C26.6289 3.791 26.6289 3.791 26.6848 3.93609C26.7211 4.03452 26.7574 4.13295 26.7949 4.23437C26.833 4.33316 26.8711 4.43195 26.9104 4.53374C27.1874 5.26336 27.1874 5.26336 27.1874 5.58788C27.3276 5.60329 27.3276 5.60329 27.4705 5.61901C27.8534 5.67412 28.2047 5.79458 28.5644 5.93358C28.662 5.9703 28.662 5.9703 28.7616 6.00777C29.2679 6.20286 29.7413 6.44037 30.2112 6.71252C30.6903 6.88764 31.0855 6.74127 31.5318 6.53966C31.7485 6.43678 31.9638 6.33153 32.1787 6.22491C32.6691 5.99334 33.0201 5.86863 33.5624 5.96288C33.8537 6.13912 34.0752 6.37696 34.3124 6.61913C34.4134 6.71839 34.5146 6.81745 34.616 6.91636C34.9078 7.20219 35.197 7.49053 35.4854 7.77986C35.6675 7.96246 35.8501 8.14454 36.0327 8.32659C36.1486 8.44259 36.2645 8.55861 36.3804 8.67467C36.4623 8.75626 36.4623 8.75626 36.5458 8.8395C37.0144 9.31087 37.0144 9.31087 37.0696 9.70885C37.0644 10.1375 36.8559 10.4489 36.6547 10.817C36.2138 11.6181 36.2138 11.6181 36.1245 12.5047C36.2836 13.0088 36.5461 13.4534 36.8173 13.9045C36.9992 14.2295 37.1141 14.5674 37.2245 14.9219C37.2604 15.0322 37.2963 15.1425 37.3333 15.2562C37.4062 15.5254 37.4062 15.5254 37.4062 15.8066C37.4794 15.8149 37.5527 15.8231 37.6281 15.8315C38.0799 15.9229 38.4902 16.0826 38.9179 16.2519C39.0016 16.2834 39.0854 16.3148 39.1717 16.3472C39.2525 16.3791 39.3334 16.411 39.4167 16.4438C39.4897 16.4722 39.5627 16.5006 39.6379 16.5298C39.9281 16.6998 40.0505 16.8225 40.2187 17.1191C40.2729 17.4777 40.269 17.8323 40.2652 18.1943C40.2653 18.2987 40.2655 18.403 40.2656 18.5105C40.2654 18.7309 40.2644 18.9512 40.2624 19.1715C40.2597 19.5086 40.2605 19.8454 40.2617 20.1825C40.2611 20.3967 40.2603 20.611 40.2593 20.8252C40.2596 20.9259 40.2599 21.0266 40.2602 21.1303C40.2489 22.021 40.2489 22.021 39.9374 22.3691C39.7764 22.474 39.7764 22.474 39.6023 22.538C39.5398 22.5618 39.4773 22.5857 39.4128 22.6103C39.3481 22.6332 39.2834 22.6561 39.2167 22.6797C39.1509 22.7044 39.0851 22.7291 39.0173 22.7546C38.8558 22.815 38.6936 22.8735 38.5312 22.9316C38.7718 23.1722 39.0447 23.2833 39.3515 23.418C39.4085 23.4447 39.4656 23.4715 39.5243 23.4991C39.9224 23.6738 40.177 23.7087 40.5937 23.5879C40.764 23.513 40.9321 23.4328 41.0976 23.3476C41.5713 23.1291 41.8575 23.0173 42.3749 23.1191C42.9906 23.5575 43.5177 24.151 44.0507 24.6836C44.1307 24.7624 44.2107 24.8413 44.2931 24.9225C44.3695 24.9987 44.4459 25.0749 44.5246 25.1534C44.6279 25.2562 44.6279 25.2562 44.7333 25.361C45.0028 25.666 45.099 25.8336 45.0768 26.2444C44.9724 26.711 44.7659 27.0946 44.548 27.5173C44.3822 27.951 44.4835 28.1604 44.6568 28.5786C44.7062 28.6874 44.7556 28.7961 44.8066 28.9082C45.0303 29.411 45.1876 29.8888 45.2812 30.4316C45.36 30.4415 45.4388 30.4515 45.5199 30.4617C45.8801 30.5326 46.186 30.6507 46.5234 30.7949C46.5819 30.819 46.6404 30.843 46.7006 30.8678C47.0173 31.0036 47.1476 31.075 47.3437 31.3691C47.3688 31.5499 47.3688 31.5499 47.3709 31.7566C47.3721 31.8342 47.3733 31.9118 47.3745 31.9917C47.3749 32.117 47.3749 32.117 47.3752 32.2447C47.3758 32.3309 47.3764 32.417 47.3771 32.5057C47.378 32.6878 47.3785 32.8699 47.3784 33.052C47.3788 33.3307 47.3822 33.6091 47.3858 33.8877C47.3863 34.0647 47.3867 34.2416 47.3869 34.4186C47.3882 34.5019 47.3896 34.5852 47.391 34.671C47.3867 35.2474 47.3867 35.2474 47.1744 35.5397C46.888 35.7373 46.5832 35.864 46.2597 35.9863C46.1652 36.024 46.1652 36.024 46.0687 36.0625C45.793 36.1698 45.5795 36.2441 45.2812 36.2441C45.2638 36.3524 45.2464 36.4607 45.2284 36.5723C45.1473 36.961 45.0039 37.2869 44.8312 37.641C44.4734 38.3154 44.4734 38.3154 44.5136 39.0449C44.5779 39.1759 44.6466 39.3048 44.7187 39.4316C45.0862 40.2453 45.0862 40.2453 45.1113 40.6621C44.7952 41.4272 44.0004 42.0393 43.4238 42.6133C43.3433 42.6941 43.2629 42.7748 43.18 42.8581C43.1032 42.9348 43.0264 43.0114 42.9473 43.0904C42.8778 43.1598 42.8084 43.2292 42.7368 43.3006C42.4615 43.5568 42.2393 43.5976 41.8637 43.5976C41.4431 43.5254 41.0831 43.3092 40.7105 43.108C40.2609 42.9398 39.9332 43.0176 39.4932 43.1864C39.3234 43.2696 39.1539 43.3534 38.9845 43.4376C38.7187 43.5566 38.7187 43.5566 38.4704 43.6083C38.1725 43.6756 38.0183 43.7337 37.7812 43.9316C37.49 44.4328 37.3014 44.9864 37.1171 45.534C37.0312 45.7129 37.0312 45.7129 36.7499 45.9004C36.5733 45.9261 36.5733 45.9261 36.3726 45.9291C36.2972 45.9306 36.2218 45.9321 36.144 45.9337C36.0223 45.9344 36.0223 45.9344 35.8981 45.9352C35.8143 45.936 35.7305 45.9369 35.6442 45.9377C35.4669 45.9391 35.2895 45.9399 35.1122 45.9403C34.8414 45.9414 34.5708 45.946 34.3 45.9507C34.1276 45.9516 33.9553 45.9523 33.7829 45.9528C33.7021 45.9546 33.6213 45.9564 33.5381 45.9583C33.1303 45.9552 32.9594 45.9417 32.6276 45.6844C32.4749 45.4815 32.3583 45.3196 32.2686 45.0848C32.2447 45.0237 32.2209 44.9627 32.1963 44.8997C32.1619 44.8063 32.1619 44.8063 32.1269 44.7109C32.1022 44.6475 32.0775 44.5842 32.052 44.5189C31.8749 44.0566 31.8749 44.0566 31.8749 43.8379C31.8225 43.8241 31.77 43.8103 31.716 43.7961C31.0917 43.6215 30.5182 43.3757 29.934 43.0981C29.3902 42.9151 29.0075 43.0967 28.5058 43.3281C27.7209 43.6581 27.7209 43.6581 27.2812 43.5566C26.6476 43.0939 26.1044 42.4878 25.5527 41.9336C25.4674 41.8487 25.3821 41.7638 25.2943 41.6763C25.1729 41.5548 25.1729 41.5548 25.0491 41.4308C24.9758 41.3574 24.9025 41.284 24.827 41.2084C24.602 40.9674 24.5659 40.8755 24.5353 40.5424C24.5722 40.0521 24.7674 39.7164 25.0019 39.2927C25.1586 38.9884 25.2281 38.8221 25.1594 38.4817C25.0959 38.3486 25.0959 38.3486 25.0312 38.2129C24.9935 38.1301 24.9558 38.0473 24.9169 37.962C24.8773 37.8805 24.8376 37.7989 24.7968 37.7148C24.5846 37.2578 24.4642 36.8329 24.3749 36.3379C24.1274 36.3379 23.8799 36.3379 23.6249 36.3379C23.6075 36.4481 23.5901 36.5583 23.5722 36.6719C23.4643 37.1829 23.2367 37.6252 22.9886 38.0811C22.8362 38.3796 22.7722 38.5442 22.8405 38.8768C22.8828 38.9671 22.9251 39.0574 22.9687 39.1504C23.0086 39.2432 23.0484 39.336 23.0895 39.4316C23.1731 39.6193 23.2571 39.8068 23.3415 39.9941C23.453 40.321 23.5015 40.496 23.4374 40.8379C23.2492 41.1174 23.0178 41.349 22.7812 41.5879C22.7063 41.6651 22.6314 41.7423 22.5543 41.8218C22.3096 42.072 22.0624 42.3195 21.8144 42.5664C21.7295 42.6517 21.6446 42.7369 21.5571 42.8248C21.4356 42.9461 21.4356 42.9461 21.3116 43.0699C21.2382 43.1432 21.1648 43.2165 21.0892 43.292C20.8461 43.519 20.7569 43.5536 20.4202 43.5804C19.907 43.5463 19.526 43.3307 19.0689 43.108C18.4109 42.8731 17.8377 43.2138 17.2265 43.4687C17.0582 43.5385 16.8897 43.608 16.7211 43.6771C16.6471 43.7079 16.5731 43.7388 16.4969 43.7705C16.3124 43.8379 16.3124 43.8379 16.1249 43.8379C16.1101 43.8947 16.0952 43.9515 16.0799 44.01C15.6583 45.524 15.6583 45.524 15.0937 45.9004C14.9165 45.9255 14.9165 45.9255 14.7149 45.9276C14.6391 45.9288 14.5634 45.93 14.4854 45.9312C14.3632 45.9316 14.3632 45.9316 14.2386 45.9319C14.1545 45.9325 14.0705 45.9331 13.9839 45.9338C13.8062 45.9347 13.6285 45.9352 13.4508 45.9351C13.179 45.9355 12.9073 45.9389 12.6355 45.9425C12.4628 45.943 12.2902 45.9434 12.1175 45.9436C12.0362 45.9449 11.955 45.9463 11.8712 45.9477C11.3099 45.9434 11.3099 45.9434 11.0174 45.7334C10.8833 45.5375 10.7984 45.3788 10.7277 45.1533C10.494 44.3797 10.494 44.3797 10.0107 43.7635C9.78553 43.6748 9.78553 43.6748 9.54522 43.6218C9.11967 43.5168 8.74841 43.2945 8.36016 43.0948C7.9098 42.9425 7.57427 43.0166 7.14288 43.1996C7.06154 43.242 6.98021 43.2844 6.89642 43.3281C6.42445 43.548 6.14157 43.6583 5.62493 43.5566C5.00922 43.1182 4.48218 42.5248 3.94915 41.9922C3.82915 41.8739 3.82915 41.8739 3.70672 41.7532C3.59215 41.6389 3.59215 41.6389 3.47527 41.5223C3.4064 41.4538 3.33754 41.3854 3.26658 41.3148C2.99825 41.0111 2.90094 40.8428 2.92266 40.434C3.03073 39.9499 3.24387 39.5379 3.46099 39.0944C3.58459 38.7057 3.5401 38.5796 3.37493 38.2129C3.32937 38.0998 3.28381 37.9867 3.23687 37.8701C3.16236 37.6893 3.08738 37.5087 3.01147 37.3285C2.86358 36.9678 2.76704 36.631 2.71868 36.2441C2.62496 36.2293 2.62496 36.2293 2.52935 36.2141C2.18247 36.135 1.85892 36.012 1.52923 35.8809C1.46584 35.8568 1.40246 35.8328 1.33715 35.808C1.00403 35.6761 0.859902 35.6122 0.656182 35.3066C0.631111 35.1259 0.631111 35.1259 0.628945 34.9192C0.627749 34.8416 0.626553 34.764 0.62532 34.6841C0.625112 34.6006 0.624903 34.5171 0.624688 34.431C0.624064 34.3449 0.62344 34.2588 0.622797 34.1701C0.621848 33.988 0.621408 33.8059 0.621438 33.6237C0.621028 33.3451 0.617623 33.0666 0.614068 32.788C0.613518 32.6111 0.613146 32.4341 0.612969 32.2572C0.611622 32.1739 0.610275 32.0906 0.608887 32.0047C0.613155 31.4284 0.613155 31.4284 0.825486 31.1361C1.11185 30.9385 1.41671 30.8117 1.74017 30.6894C1.8347 30.6517 1.8347 30.6517 1.93115 30.6133C2.20688 30.5059 2.42033 30.4316 2.71868 30.4316C2.73608 30.3234 2.75349 30.2151 2.77142 30.1035C2.88415 29.5752 3.11124 29.103 3.34676 28.6198C3.47071 28.3551 3.56458 28.1441 3.55328 27.8487C3.39963 27.4317 3.20644 27.0338 3.01678 26.6322C2.88982 26.2585 2.86478 26.1141 2.99993 25.7441C3.19548 25.4711 3.42209 25.2343 3.65618 24.9941C3.72804 24.9198 3.7999 24.8455 3.87394 24.769C4.1062 24.5316 4.34074 24.2968 4.5761 24.0625C4.65653 23.9817 4.73695 23.9009 4.81982 23.8177C4.89662 23.741 4.97342 23.6643 5.05254 23.5853C5.15674 23.4813 5.15674 23.4813 5.26305 23.3751C5.53645 23.1208 5.75613 23.0781 6.1292 23.0781C6.57634 23.1528 6.9761 23.3709 7.38091 23.5677C7.71064 23.6903 7.82917 23.6955 8.15618 23.5879C8.2322 23.5646 8.30821 23.5412 8.38653 23.5172C8.4594 23.4922 8.53227 23.4672 8.60735 23.4414C8.68143 23.4161 8.75552 23.3909 8.83184 23.3649C8.91505 23.336 8.91505 23.336 8.99993 23.3066C8.99993 23.2448 8.99993 23.1829 8.99993 23.1191C8.94531 23.1043 8.89068 23.0894 8.8344 23.0741C6.99611 22.5509 6.99611 22.5509 6.65618 21.9941C6.61984 21.7671 6.61984 21.7671 6.6183 21.5115C6.61711 21.4154 6.61592 21.3194 6.6147 21.2204C6.61497 21.1172 6.61525 21.0139 6.61553 20.9076C6.61504 20.801 6.61455 20.6945 6.61404 20.5847C6.61344 20.3594 6.61357 20.1341 6.61437 19.9088C6.61516 19.5641 6.61247 19.2196 6.60949 18.8749C6.60934 18.656 6.60939 18.4371 6.60967 18.2181C6.60862 18.1151 6.60757 18.0121 6.60648 17.9059C6.61293 17.1992 6.61293 17.1992 6.8137 16.8276C7.0609 16.6262 7.2502 16.5485 7.55743 16.4654C8.65427 16.1717 8.65427 16.1717 9.53661 15.5122C9.76847 15.0553 9.86214 14.5718 9.9649 14.0732C10.0343 13.827 10.1282 13.6496 10.2656 13.4347C10.6258 12.879 10.6258 12.879 10.7812 12.2441C10.6481 11.6667 10.3631 11.1628 10.0751 10.65C9.8343 10.1984 9.74045 9.94003 9.84368 9.43163C10.0211 9.14092 10.2576 8.91908 10.4999 8.68163C10.5992 8.58063 10.6983 8.47944 10.7972 8.37809C11.083 8.08626 11.3713 7.79705 11.6607 7.50868C11.8433 7.32659 12.0253 7.144 12.2074 6.96136C12.3234 6.84542 12.4394 6.72951 12.5555 6.61364C12.6371 6.53177 12.6371 6.53177 12.7203 6.44824C13.197 5.97436 13.197 5.97436 13.6402 5.93029C14.2373 5.9377 14.7297 6.24997 15.2499 6.51494C15.7403 6.75284 16.0485 6.87611 16.5937 6.71288C16.8507 6.60833 17.0968 6.48774 17.3437 6.36132C18.1342 5.95668 18.1342 5.95668 18.5709 5.89147C19.1311 5.79626 19.1311 5.79626 19.5937 5.49413C19.9775 4.84704 20.1998 4.11816 20.4142 3.40066C20.7634 2.65344 21.3663 2.72019 22.0956 2.72558ZM21.8437 4.36913C21.5392 5.02598 21.2638 5.67993 21.0197 6.36132C20.8513 6.74383 20.8513 6.74383 20.6249 6.90038C20.3882 6.97783 20.1567 7.04407 19.9159 7.10546C18.7962 7.41252 17.6567 7.8543 16.6984 8.52086C15.9958 8.7581 15.2715 8.29732 14.6586 7.99792C14.5871 7.9642 14.5155 7.93048 14.4418 7.89574C14.3779 7.86443 14.3139 7.83311 14.248 7.80085C14.0095 7.72794 13.9171 7.73858 13.6874 7.83788C13.3634 8.10516 13.0695 8.40351 12.7728 8.7004C12.6272 8.84539 12.4795 8.98799 12.3315 9.13061C12.2388 9.22251 12.1462 9.31455 12.0538 9.40673C11.9693 9.49009 11.8847 9.57344 11.7977 9.65932C11.5996 9.88363 11.5996 9.88363 11.6342 10.1411C11.7128 10.3532 11.7936 10.5573 11.8919 10.761C11.9254 10.8326 11.959 10.9043 11.9935 10.9781C12.064 11.1264 12.135 11.2743 12.2067 11.422C12.414 11.8682 12.5364 12.2107 12.4687 12.7129C12.3449 12.9736 12.3449 12.9736 12.1757 13.2285C11.7067 13.9888 11.3772 14.7985 11.1273 15.6539C11.1074 15.7215 11.0875 15.7891 11.0671 15.8587C11.0298 15.9884 10.9942 16.1186 10.9604 16.2493C10.8367 16.6876 10.7026 16.8859 10.3124 17.1191C9.9815 17.2646 9.64469 17.3894 9.30462 17.5117C9.12535 17.5773 8.94614 17.6431 8.76702 17.7091C8.68802 17.7376 8.60901 17.7662 8.52761 17.7956C8.34651 17.854 8.34651 17.854 8.24993 17.9629C8.24164 18.1992 8.23912 18.433 8.24078 18.6693C8.24091 18.7399 8.24104 18.8105 8.24118 18.8833C8.2417 19.1097 8.24288 19.3361 8.24407 19.5625C8.24454 19.7156 8.24497 19.8688 8.24535 20.0219C8.24639 20.3981 8.24801 20.7742 8.24993 21.1504C8.30379 21.1716 8.35764 21.1929 8.41312 21.2148C8.65961 21.3122 8.90594 21.41 9.15228 21.5078C9.23699 21.5412 9.32171 21.5746 9.40899 21.6091C9.57469 21.675 9.73981 21.7424 9.90429 21.8113C10.1381 21.9097 10.1381 21.9097 10.4421 21.9952C10.8644 22.3161 10.9388 22.8127 11.0859 23.3066C11.3697 24.2024 11.6918 25.0156 12.1864 25.8165C12.4361 26.2418 12.5204 26.5385 12.4345 27.0293C12.3283 27.4124 12.1638 27.7616 11.9882 28.1172C11.9167 28.2628 11.8461 28.4089 11.7765 28.5555C11.7452 28.6189 11.7139 28.6823 11.6816 28.7475C11.6082 28.9858 11.6183 29.0774 11.7187 29.3066C11.922 29.5488 11.922 29.5488 12.179 29.7944C12.2475 29.8623 12.2475 29.8623 12.3173 29.9315C12.4628 30.0755 12.6093 30.2184 12.7558 30.3613C12.8548 30.4589 12.9537 30.5566 13.0526 30.6543C13.2947 30.8933 13.5377 31.1315 13.7812 31.3691C14.4183 31.1673 15.0101 30.9208 15.6159 30.6385C16.1087 30.4651 16.4362 30.4549 16.9159 30.6697C17.0279 30.7338 17.1392 30.799 17.2499 30.8652C17.7262 31.1336 18.201 31.3771 18.7089 31.5801C18.7953 31.6151 18.7953 31.6151 18.8834 31.6507C19.2884 31.8083 19.691 31.9002 20.1152 31.9902C20.4761 32.0897 20.6643 32.1479 20.9058 32.4366C21.0468 32.7109 21.0468 32.7109 21.2812 33.3379C21.4668 33.8019 21.6524 34.266 21.8437 34.7441C22.8956 34.7441 23.9474 34.7441 25.0312 34.7441C25.3203 33.9861 25.3203 33.9861 25.606 33.2268C25.6429 33.1323 25.6798 33.0379 25.7178 32.9405C25.7546 32.8438 25.7915 32.7471 25.8294 32.6475C26.063 32.233 26.4217 32.107 26.8611 31.9745C26.9807 31.9372 26.9807 31.9372 27.1027 31.8991C27.1867 31.8731 27.2708 31.8471 27.3574 31.8203C28.3181 31.5129 29.2325 31.1282 30.0933 30.5975C30.5731 30.4133 30.9659 30.5205 31.419 30.7165C31.6824 30.8371 31.9439 30.9611 32.2054 31.0857C32.2901 31.1244 32.3747 31.163 32.462 31.2029C32.5765 31.2574 32.5765 31.2574 32.6933 31.313C32.9024 31.388 32.9024 31.388 33.092 31.3128C33.4867 31.0391 33.8158 30.6894 34.1558 30.3521C34.2948 30.2149 34.4356 30.0799 34.5767 29.9448C34.6641 29.8583 34.7515 29.7718 34.8416 29.6827C34.9625 29.5645 34.9625 29.5645 35.0858 29.4438C35.2751 29.2275 35.2751 29.2275 35.2394 28.9736C35.1621 28.7604 35.0816 28.5565 34.983 28.3523C34.9494 28.2806 34.9159 28.209 34.8813 28.1351C34.8109 27.9869 34.7398 27.8389 34.6682 27.6913C34.4606 27.2446 34.3324 26.9021 34.4062 26.4004C34.5126 26.1383 34.6497 25.8997 34.7929 25.6562C35.3556 24.6479 35.7757 23.6095 36.0153 22.4757C36.1407 22.1553 36.3827 22.0329 36.689 21.8948C36.7683 21.8655 36.8476 21.8361 36.9294 21.8059C37.0161 21.7734 37.1029 21.7409 37.1923 21.7074C37.2822 21.6744 37.3721 21.6414 37.4648 21.6074C37.6438 21.5408 37.8227 21.4742 38.0016 21.4075C38.0807 21.3783 38.1599 21.3492 38.2414 21.3192C38.4388 21.2473 38.4388 21.2473 38.6249 21.1504C38.6249 20.0985 38.6249 19.0466 38.6249 17.9629C37.8682 17.5952 37.8682 17.5952 37.3798 17.4934C36.9276 17.3837 36.5337 17.2534 36.1874 16.9316C35.8631 16.3736 35.7124 15.7464 35.5378 15.1295C35.3462 14.4564 35.0522 13.8798 34.6964 13.2802C34.4502 12.8528 34.3275 12.5628 34.4062 12.0566C34.5286 11.7279 34.6785 11.4158 34.8339 11.1016C34.9151 10.9366 34.9954 10.7712 35.0745 10.6053C35.1104 10.5329 35.1462 10.4605 35.1831 10.3859C35.265 10.1356 35.2633 10.0471 35.1562 9.80663C34.8908 9.48248 34.5943 9.18854 34.2988 8.892C34.1547 8.74653 34.0132 8.59875 33.8717 8.45074C33.7801 8.35799 33.6884 8.2654 33.5965 8.17296C33.5136 8.08845 33.4308 8.00394 33.3454 7.91687C33.105 7.71538 33.105 7.71538 32.8059 7.75317C32.5683 7.82645 32.3553 7.90333 32.1335 8.0144C32.0271 8.06533 32.0271 8.06533 31.9185 8.1173C31.7726 8.18869 31.6271 8.26095 31.482 8.3341C30.9654 8.57881 30.653 8.63338 30.0937 8.49413C29.8337 8.36449 29.8337 8.36449 29.5898 8.20116C28.567 7.57119 27.4121 7.18597 26.2499 6.90038C26.1571 6.86944 26.0643 6.83851 25.9687 6.80663C25.9005 6.62153 25.8344 6.43548 25.7772 6.2467C25.6618 5.88168 25.5289 5.52438 25.3945 5.16601C25.3695 5.09863 25.3446 5.03124 25.3189 4.96182C25.2166 4.64115 25.2166 4.64115 25.0312 4.36913C24.7948 4.36084 24.5611 4.35832 24.3248 4.35998C24.2541 4.36011 24.1835 4.36024 24.1108 4.36038C23.8844 4.3609 23.658 4.36208 23.4316 4.36327C23.2784 4.36374 23.1253 4.36417 22.9722 4.36455C22.596 4.36559 22.2198 4.36721 21.8437 4.36913ZM37.1249 24.3379C37.0856 24.4267 37.0856 24.4267 37.0455 24.5173C36.8642 24.9218 36.6833 25.3234 36.4723 25.7134C36.4417 25.7711 36.411 25.8288 36.3793 25.8882C36.2903 26.0544 36.1995 26.2197 36.1087 26.385C35.9758 26.6713 35.9758 26.6713 36.0446 26.9438C36.2325 27.2156 36.3679 27.2446 36.6855 27.3262C38.328 27.8226 39.5991 28.8467 40.4135 30.3491C41.1733 31.8986 41.3115 33.7144 40.8053 35.3601C40.1595 37.1212 39.0024 38.3567 37.3124 39.1504C35.6866 39.7797 33.8928 39.8269 32.2734 39.1269C30.4432 38.2146 29.3874 36.9454 28.7142 35.0214C28.5375 34.4165 28.5333 33.7758 28.4999 33.1504C28.318 33.1902 28.1364 33.2315 27.955 33.2734C27.8539 33.2963 27.7527 33.3191 27.6485 33.3426C27.3632 33.4354 27.28 33.4882 27.0937 33.7129C26.9909 33.922 26.9909 33.922 26.9087 34.1578C26.8767 34.2441 26.8446 34.3303 26.8115 34.4191C26.7627 34.5539 26.7627 34.5539 26.7128 34.6914C26.6474 34.8691 26.5819 35.0467 26.5162 35.2242C26.4875 35.303 26.4589 35.3817 26.4293 35.4628C26.2068 36.0313 26.2068 36.0313 25.9687 36.1504C26.1616 36.8086 26.4443 37.3857 26.7725 37.9851C26.9733 38.4682 26.9743 38.7962 26.7765 39.2804C26.6672 39.4875 26.5579 39.6945 26.4484 39.9015C26.3144 40.166 26.3144 40.166 26.4141 40.3675C26.6094 40.683 26.8639 40.9316 27.123 41.1953C27.1763 41.2525 27.2297 41.3097 27.2847 41.3687C27.5822 41.6903 27.5822 41.6903 27.9891 41.7801C28.0648 41.7476 28.1406 41.7151 28.2187 41.6816C28.3074 41.6437 28.3961 41.6057 28.4875 41.5666C28.6753 41.4793 28.8628 41.3914 29.05 41.303C29.5271 41.1566 29.9049 41.2472 30.3427 41.4634C30.4632 41.5276 30.5833 41.5926 30.7031 41.6582C31.3259 41.9884 31.9346 42.2118 32.6147 42.3943C33.0857 42.6061 33.2217 42.9504 33.4203 43.4094C33.5302 43.7085 33.6401 44.0076 33.7499 44.3066C34.4615 44.3066 35.1731 44.3066 35.9062 44.3066C35.9932 44.0359 36.0802 43.7652 36.1699 43.4863C36.4557 42.703 36.4557 42.703 36.7862 42.4434C37.0534 42.3539 37.3174 42.2997 37.5937 42.2441C37.8348 42.1564 38.0714 42.0659 38.3085 41.9687C38.3689 41.945 38.4293 41.9212 38.4915 41.8967C38.8355 41.7589 39.1485 41.6017 39.4628 41.4062C39.7816 41.2228 40.015 41.1626 40.3893 41.2378C40.7375 41.3551 41.0632 41.5168 41.3891 41.6853C41.6597 41.7887 41.734 41.7795 41.9999 41.6816C42.1686 41.5514 42.1686 41.5514 42.3237 41.3854C42.4107 41.297 42.4107 41.297 42.4994 41.2068C42.5886 41.1141 42.5886 41.1141 42.6796 41.0195C42.7405 40.9573 42.8014 40.8952 42.8642 40.8311C43.0143 40.6777 43.1636 40.5237 43.3124 40.3691C43.2718 40.2763 43.2312 40.1835 43.1894 40.0879C43.1366 39.9629 43.0838 39.8379 43.0312 39.7129C43.0043 39.6521 42.9775 39.5913 42.9499 39.5287C42.7574 39.0659 42.6975 38.7146 42.7499 38.2129C42.854 37.9638 42.9574 37.7477 43.0898 37.5156C43.3119 37.1123 43.5063 36.7329 43.6189 36.2844C43.8816 35.2528 43.8816 35.2528 44.2407 34.9873C44.6918 34.7463 45.1662 34.603 45.6562 34.4629C45.7724 34.3676 45.7724 34.3676 45.7606 34.1692C45.7601 34.0832 45.7596 33.9973 45.7591 33.9088C45.7588 33.8161 45.7585 33.7233 45.7582 33.6277C45.7574 33.5302 45.7566 33.4326 45.7558 33.332C45.7552 33.1851 45.7552 33.1851 45.7545 33.0352C45.7534 32.7923 45.7519 32.5495 45.7499 32.3066C45.1508 32.0045 45.1508 32.0045 44.5429 31.7207C44.4735 31.6893 44.4042 31.6579 44.3327 31.6255C44.1586 31.5453 44.1586 31.5453 43.9687 31.5566C43.9496 31.4609 43.9496 31.4609 43.9302 31.3633C43.7962 30.7596 43.6079 30.2048 43.3593 29.6406C43.3176 29.5459 43.3176 29.5459 43.2751 29.4493C43.1541 29.1813 43.0279 28.9263 42.8733 28.676C42.6708 28.3261 42.6795 28.0046 42.7499 27.6191C42.9139 27.1694 43.1061 26.7383 43.3124 26.3066C43.0901 26.068 42.8647 25.8326 42.6386 25.5976C42.5755 25.5298 42.5123 25.4619 42.4473 25.392C42.3853 25.3283 42.3234 25.2645 42.2596 25.1988C42.2031 25.1394 42.1467 25.08 42.0885 25.0188C41.9086 24.8754 41.9086 24.8754 41.6665 24.9214C41.2979 25.0384 40.9553 25.2078 40.6061 25.3728C40.1222 25.5212 39.7434 25.4247 39.3002 25.2058C39.1763 25.1398 39.0528 25.0732 38.9296 25.0059C38.3426 24.6973 37.7786 24.4708 37.1249 24.3379ZM9.30315 24.8802C9.2011 24.9316 9.2011 24.9316 9.09698 24.9841C8.95516 25.0567 8.8138 25.1301 8.6729 25.2045C8.2106 25.4349 7.92365 25.5115 7.40618 25.3691C7.13372 25.2558 6.87661 25.1249 6.61407 24.9905C6.34142 24.8878 6.26715 24.8957 5.99993 24.9941C5.83127 25.1243 5.83127 25.1243 5.6762 25.2904C5.61819 25.3493 5.56019 25.4082 5.50042 25.4689C5.44096 25.5307 5.3815 25.5926 5.32024 25.6562C5.25934 25.7184 5.19843 25.7806 5.13567 25.8447C4.98561 25.998 4.83624 26.152 4.68743 26.3066C4.72804 26.3916 4.76864 26.4765 4.81048 26.5641C5.41909 27.874 5.41909 27.874 5.24993 28.4629C5.10945 28.7715 4.96075 29.0716 4.80146 29.3707C4.46811 29.9999 4.03118 30.8346 4.03118 31.5566C3.55795 31.7479 3.08042 31.9274 2.60296 32.1078C2.35617 32.1882 2.35617 32.1882 2.24993 32.3066C2.24178 32.4599 2.2399 32.6135 2.24078 32.767C2.24108 32.8597 2.24138 32.9525 2.24169 33.048C2.24248 33.1456 2.24326 33.2432 2.24407 33.3437C2.2445 33.4417 2.24492 33.5396 2.24535 33.6406C2.24646 33.8834 2.24801 34.1263 2.24993 34.3691C2.40809 34.4415 2.56631 34.5137 2.72454 34.5859C2.85669 34.6463 2.85669 34.6463 2.99151 34.7079C3.28475 34.8472 3.28475 34.8472 3.62359 34.9393C4.07797 35.1996 4.12834 35.5116 4.26556 35.998C4.4511 36.5955 4.64469 37.1283 4.96282 37.668C5.23723 38.1572 5.39432 38.5018 5.24993 39.0566C5.08302 39.5052 4.89375 39.9375 4.68743 40.3691C4.90972 40.6077 5.13513 40.8432 5.36126 41.0781C5.45598 41.1799 5.45598 41.1799 5.55261 41.2837C5.61454 41.3475 5.67648 41.4112 5.74029 41.4769C5.79675 41.5363 5.85321 41.5957 5.91138 41.6569C6.09121 41.8004 6.09121 41.8004 6.33334 41.7543C6.70197 41.6373 7.04455 41.468 7.39373 41.303C7.87088 41.1566 8.24862 41.2472 8.68645 41.4634C8.80693 41.5276 8.92704 41.5926 9.04681 41.6582C9.6721 41.9881 10.2901 42.2223 10.9676 42.4217C11.2967 42.5425 11.4592 42.6604 11.6147 42.9763C11.6368 43.0376 11.6589 43.099 11.6817 43.1622C11.7038 43.2224 11.726 43.2826 11.7488 43.3447C11.789 43.4583 11.789 43.4583 11.83 43.5742C11.917 43.8159 12.004 44.0576 12.0937 44.3066C12.8052 44.3066 13.5168 44.3066 14.2499 44.3066C14.4503 43.7953 14.4503 43.7953 14.6481 43.283C14.9181 42.6107 14.9181 42.6107 15.2812 42.4316C15.5399 42.3351 15.8021 42.2539 16.0663 42.1738C16.755 41.9581 17.3644 41.6869 17.9893 41.3275C18.4425 41.1495 18.774 41.2387 19.2139 41.4216C19.3858 41.5094 19.5577 41.5973 19.7295 41.6853C20.0022 41.788 20.0765 41.7801 20.3437 41.6816C20.5123 41.5514 20.5123 41.5514 20.6674 41.3854C20.7544 41.297 20.7544 41.297 20.8432 41.2068C20.9324 41.1141 20.9324 41.1141 21.0234 41.0195C21.0843 40.9573 21.1452 40.8952 21.2079 40.8311C21.358 40.6777 21.5074 40.5237 21.6562 40.3691C21.6129 40.2345 21.5693 40.1 21.5254 39.9656C21.5012 39.8907 21.4769 39.8157 21.4519 39.7386C21.374 39.5064 21.374 39.5064 21.2167 39.2324C21.0444 38.855 21.0154 38.517 21.163 38.1205C21.2573 37.925 21.3578 37.7348 21.4628 37.5449C21.7799 36.9708 21.7799 36.9708 21.9374 36.3379C21.8205 36.3257 21.8205 36.3257 21.7012 36.3133C21.5993 36.3002 21.4975 36.287 21.3925 36.2734C21.2914 36.2615 21.1902 36.2495 21.086 36.2372C20.732 36.1249 20.7004 36.0048 20.5312 35.6816C20.4567 35.5107 20.3862 35.3381 20.3191 35.1642C20.282 35.0684 20.2448 34.9726 20.2065 34.874C20.1686 34.775 20.1308 34.6761 20.0917 34.5742C20.0528 34.4735 20.0138 34.3728 19.9736 34.269C19.8778 34.0213 19.7825 33.7734 19.6874 33.5254C19.6256 33.5254 19.5637 33.5254 19.4999 33.5254C19.4878 33.6564 19.4878 33.6564 19.4754 33.7902C19.2711 35.644 18.4855 37.1798 17.0331 38.3769C15.588 39.4426 13.8639 39.8021 12.0995 39.5547C10.4856 39.2513 8.95312 38.3619 8.00187 37.0068C7.0367 35.5505 6.67195 33.7338 7.00152 32.0107C7.38495 30.4707 8.17937 29.1321 9.46868 28.1816C9.64869 28.0848 9.83039 27.991 10.0136 27.9004C10.4382 27.6815 10.6455 27.4905 10.8475 27.0592C10.8868 26.787 10.805 26.6506 10.6874 26.4004C10.6265 26.2622 10.5657 26.1238 10.5051 25.9855C10.437 25.8327 10.3689 25.68 10.3007 25.5273C10.2658 25.449 10.2309 25.3706 10.1949 25.2898C10.1091 25.0975 10.0233 24.9052 9.93743 24.7129C9.64672 24.7129 9.55262 24.7496 9.30315 24.8802ZM37.0312 29.1191C37.0149 29.2118 36.9986 29.3044 36.9817 29.3999C36.8401 29.8903 36.4928 30.1865 36.1347 30.5334C36.0647 30.603 35.9946 30.6726 35.9225 30.7443C35.6994 30.9654 35.4747 31.1848 35.2499 31.4043C35.0987 31.554 34.9476 31.7037 34.7966 31.8536C34.5206 32.1264 34.2447 32.3991 33.9671 32.6701C33.9114 32.7245 33.8558 32.7789 33.7985 32.835C33.5931 33.0196 33.4866 33.0553 33.2074 33.0757C32.8848 33.0553 32.6889 32.9848 32.3993 32.845C32.3064 32.8018 32.2135 32.7587 32.1177 32.7142C31.9243 32.622 31.7312 32.5293 31.5384 32.4359C30.995 32.1727 30.995 32.1727 30.4072 32.1726C30.1768 32.2865 30.1768 32.2865 30.0937 32.4941C30.01 34.0515 30.223 35.3038 31.2421 36.5488C32.1784 37.553 33.446 38.0912 34.8105 38.1484C36.0972 38.1077 37.2664 37.6166 38.1972 36.7305C39.2098 35.6455 39.6171 34.4318 39.5884 32.9618C39.4958 31.6302 38.8621 30.6013 37.92 29.6948C37.6373 29.4509 37.3671 29.2798 37.0312 29.1191ZM9.77483 30.0142C8.78316 31.0981 8.38903 32.2157 8.41399 33.6667C8.51383 35.0614 9.19717 36.1456 10.2161 37.0677C10.9502 37.6571 11.8183 38.0073 12.7499 38.1191C12.8456 38.1309 12.8456 38.1309 12.9433 38.1429C14.02 38.2062 15.1746 37.8153 16.0312 37.1816C16.12 37.1182 16.12 37.1182 16.2106 37.0535C17.0554 36.3947 17.768 35.2534 17.9062 34.1816C17.9202 33.7748 17.9173 33.3697 17.9062 32.9629C17.6598 32.8127 17.4121 32.6672 17.162 32.5234C17.0586 32.4595 17.0586 32.4595 16.9531 32.3943C16.5497 32.167 16.5497 32.167 16.098 32.1445C15.8784 32.2151 15.6767 32.3009 15.4687 32.4004C15.4034 32.4289 15.3381 32.4573 15.2708 32.4867C15.0151 32.599 14.7623 32.7169 14.5101 32.8371C14.1314 33.01 13.8266 33.1466 13.4062 33.0566C13.1233 32.8725 12.8946 32.638 12.6562 32.4004C12.6097 32.3543 12.5632 32.3083 12.5153 32.2608C12.0665 31.8155 11.6224 31.3655 11.1793 30.9146C11.0102 30.7426 10.8404 30.5711 10.6706 30.3998C10.6185 30.3465 10.5665 30.2932 10.5129 30.2382C10.3871 30.1116 10.2564 29.9898 10.1249 29.8691C9.92444 29.8483 9.92444 29.8483 9.77483 30.0142Z" fill="#573FE7"/>
<path d="M30.4779 10.3311C32.6646 12.144 34.1236 14.3401 34.7812 17.1192C34.8024 17.2082 34.8235 17.2973 34.8453 17.3891C35.4323 20.4291 34.6861 23.6206 32.9714 26.1682C31.0539 28.783 28.292 30.5298 25.0781 31.0293C21.9831 31.3542 18.8161 30.6803 16.3497 28.7122C16.2115 28.5989 16.0744 28.484 15.9375 28.3692C15.8606 28.3066 15.7837 28.244 15.7046 28.1795C15.1451 27.7068 14.6971 27.1657 14.25 26.5879C14.1575 26.4761 14.1575 26.4761 14.0632 26.362C12.2158 24.0211 11.6302 20.8805 11.9348 17.9713C12.3724 14.8998 13.9975 12.1363 16.4699 10.2489C20.5782 7.23849 26.4298 7.15785 30.4779 10.3311ZM16.875 12.0567C16.8021 12.1228 16.8021 12.1228 16.7278 12.1903C14.9259 13.8424 13.6369 16.1664 13.487 18.6467C13.3778 21.5168 14.1216 24.0849 16.0664 26.2422C17.8067 28.0939 20.2147 29.3654 22.7811 29.5043C25.3115 29.5796 27.7644 28.8902 29.7187 27.2442C29.8396 27.1445 29.8396 27.1445 29.963 27.0427C31.8914 25.3864 33.1518 23.0358 33.375 20.4942C33.566 17.8208 32.8398 15.2065 31.0744 13.1549C30.9983 13.0709 30.9222 12.9869 30.8437 12.9004C30.8027 12.8547 30.7616 12.8091 30.7193 12.762C29.1027 10.9863 26.7848 9.77571 24.3721 9.59826C21.6063 9.49735 18.9561 10.1413 16.875 12.0567Z" fill="#573FE7"/>
<path d="M28.9044 12.3379C29.0515 12.4622 29.198 12.5872 29.3439 12.7129C29.4071 12.7625 29.4703 12.8122 29.5354 12.8634C30.9714 14.0242 31.792 15.7451 32.2501 17.4941C32.2847 17.6201 32.2847 17.6201 32.3201 17.7486C32.8337 19.991 32.28 22.4521 31.1009 24.3893C29.7687 26.4582 27.6604 27.8355 25.2895 28.3948C22.8798 28.8612 20.4264 28.3918 18.3627 27.0537C16.2135 25.505 15.0217 23.4691 14.4761 20.8889C14.1724 18.5119 14.6952 16.0867 16.1544 14.1601C16.2684 14.0205 16.3837 13.8818 16.5001 13.7441C16.5627 13.6679 16.6253 13.5916 16.6898 13.513C17.2164 12.8962 17.8011 12.4207 18.4689 11.9629C18.5439 11.9108 18.619 11.8587 18.6963 11.805C21.7315 9.84105 26.0894 10.1126 28.9044 12.3379ZM18.4689 14.0254C18.3626 14.1187 18.3626 14.1187 18.2543 14.214C16.8392 15.5293 16.0709 17.3905 16.0002 19.3048C15.9602 21.4792 16.8136 23.3615 18.2982 24.9286C19.7522 26.3 21.7076 27.0305 23.6984 26.9859C25.7857 26.8263 27.6961 25.9724 29.0883 24.3745C30.3853 22.7366 30.9787 20.9002 30.8439 18.8066C30.5805 16.7083 29.5506 14.992 27.9669 13.6269C25.1313 11.4801 21.1002 11.611 18.4689 14.0254Z" fill="#573FE7"/>
<path d="M23.8125 13.5567C24.0469 13.6914 24.0469 13.6914 24.1875 13.9317C24.2168 14.2158 24.2094 14.4909 24.1875 14.7754C24.2938 14.7947 24.4002 14.8141 24.5098 14.834C25.3305 15.0428 25.9466 15.6037 26.4375 16.2754C26.656 16.6482 26.6948 16.9756 26.625 17.4004C26.4335 17.6877 26.3024 17.7587 25.9746 17.8633C25.6124 17.8707 25.4955 17.8221 25.2188 17.5879C25.1415 17.4667 25.0675 17.3435 24.9961 17.2188C24.7604 16.8218 24.5328 16.6126 24.0938 16.4629C23.4867 16.3201 22.9509 16.3246 22.4062 16.6504C22.1491 16.8944 22.0488 17.0631 21.9434 17.4004C21.9359 17.7581 21.9838 17.8799 22.2188 18.1504C22.7029 18.4699 23.1954 18.5877 23.7539 18.7129C24.9006 18.9716 25.8948 19.2872 26.5763 20.3319C26.9106 21.021 26.9818 21.7181 26.7858 22.4574C26.5504 23.1352 25.9841 23.6746 25.3499 23.9907C24.9986 24.1337 24.6506 24.2515 24.2812 24.3379C24.2732 24.4023 24.2651 24.4667 24.2567 24.5331C24.1497 25.2195 24.1497 25.2195 23.8887 25.4805C23.5443 25.58 23.3144 25.5525 22.9688 25.4629C22.7517 25.3028 22.6946 25.2159 22.6395 24.9491C22.6341 24.8654 22.6286 24.7816 22.623 24.6953C22.6169 24.6109 22.6107 24.5264 22.6044 24.4393C22.6009 24.3749 22.5974 24.3105 22.5938 24.2442C22.5048 24.2403 22.4159 24.2364 22.3242 24.2324C21.5796 24.1224 20.9443 23.6168 20.4822 23.0452C20.1786 22.5907 19.9688 22.135 19.9688 21.584C20.0845 21.28 20.1649 21.1446 20.4375 20.9629C20.6983 20.9104 20.9266 20.9112 21.1875 20.9629C21.4839 21.1605 21.5962 21.3994 21.7441 21.7129C21.9461 22.1374 22.1919 22.3611 22.619 22.564C23.3372 22.8064 24.1054 22.7103 24.7775 22.3849C24.9661 22.2705 24.9661 22.2705 25.125 21.9942C25.1741 21.5594 25.1969 21.3532 24.9551 20.9863C24.3272 20.5431 23.5946 20.3888 22.8574 20.2129C22.0111 20.0101 21.1888 19.74 20.677 18.9806C20.2947 18.322 20.1249 17.662 20.2998 16.9031C20.5286 16.1645 20.9091 15.5774 21.5625 15.1504C21.7273 15.0904 21.8934 15.0338 22.0605 14.9805C22.3025 14.903 22.3025 14.903 22.5 14.7754C22.5975 14.5573 22.6272 14.3675 22.6567 14.1312C22.6875 13.9317 22.6875 13.9317 22.8398 13.6914C23.1646 13.4949 23.443 13.4847 23.8125 13.5567Z" fill="#573FE7"/>
</svg>
