<svg width="48" height="49" viewBox="0 0 48 49" fill="none" xmlns="http://www.w3.org/2000/svg">
<path d="M8.74868 4.71255C8.88541 4.71237 9.02215 4.71216 9.15889 4.71191C9.53341 4.71133 9.90793 4.71134 10.2825 4.71146C10.6869 4.71147 11.0913 4.71096 11.4957 4.71051C12.2875 4.70973 13.0794 4.70948 13.8713 4.70942C14.5151 4.70938 15.1589 4.70919 15.8028 4.70889C17.6292 4.70806 19.4555 4.70763 21.2819 4.7077C21.3803 4.70771 21.4787 4.70771 21.5801 4.70771C21.7279 4.70772 21.7279 4.70772 21.8787 4.70772C23.4753 4.70776 25.072 4.70687 26.6686 4.70554C28.309 4.7042 29.9494 4.70355 31.5898 4.70363C32.5103 4.70366 33.4309 4.70341 34.3514 4.7024C35.1352 4.70154 35.919 4.70134 36.7028 4.70197C37.1025 4.70228 37.5021 4.70229 37.9017 4.70147C38.2681 4.70073 38.6345 4.70087 39.001 4.70169C39.1329 4.70183 39.2649 4.70166 39.3969 4.70114C41.2262 4.69435 42.7704 5.05818 44.1268 6.34227C45.5264 7.79791 45.6846 9.54149 45.6834 11.4567C45.6839 11.6336 45.6846 11.8105 45.6853 11.9874C45.6869 12.4654 45.6874 12.9435 45.6875 13.4216C45.6876 13.721 45.688 14.0204 45.6885 14.3198C45.6903 15.3665 45.691 16.4131 45.6909 17.4598C45.6908 18.432 45.6927 19.4042 45.6957 20.3765C45.6982 21.214 45.6992 22.0516 45.699 22.8891C45.699 23.3881 45.6995 23.887 45.7015 24.386C45.7033 24.8558 45.7033 25.3256 45.702 25.7954C45.7018 25.9666 45.7022 26.1379 45.7034 26.3091C45.7147 28.1334 45.4187 29.8386 44.0917 31.1977C43.563 31.713 42.9149 32.2547 42.1828 32.4264C41.9661 32.4819 41.8091 32.5346 41.6249 32.6626C41.4745 32.9758 41.4344 33.2993 41.3846 33.6411C41.3488 33.8377 41.3121 34.0341 41.2744 34.2303C41.2556 34.3292 41.2368 34.4281 41.2174 34.5299C40.7513 36.7268 39.586 38.6377 38.0624 40.2563C37.9882 40.3395 37.9882 40.3395 37.9126 40.4244C36.4507 41.9985 33.6856 43.6401 31.4999 43.7251C31.1961 43.6604 30.9114 43.5588 30.621 43.4497C30.5392 43.4199 30.4575 43.3901 30.3733 43.3594C27.2112 42.1815 24.5454 40.1625 23.0624 37.0688C22.4782 35.7718 21.8436 34.198 21.8436 32.7563C21.7686 32.7567 21.6935 32.757 21.6162 32.7574C19.785 32.7657 17.9538 32.7719 16.1226 32.7758C15.237 32.7777 14.3514 32.7803 13.4658 32.7846C12.6934 32.7884 11.9209 32.7908 11.1485 32.7916C10.74 32.7921 10.3315 32.7932 9.92303 32.796C9.53743 32.7986 9.15187 32.7993 8.76626 32.7988C8.6258 32.7989 8.48534 32.7996 8.34489 32.801C6.68874 32.8173 5.17378 32.4297 3.93152 31.2677C2.81577 30.0462 2.32847 28.6739 2.33046 27.0193C2.33019 26.9457 2.32991 26.8721 2.32962 26.7963C2.32881 26.5516 2.32866 26.307 2.32852 26.0623C2.32809 25.8861 2.32762 25.7098 2.32711 25.5336C2.32589 25.0561 2.32528 24.5786 2.32486 24.1011C2.32459 23.8023 2.3242 23.5034 2.32378 23.2046C2.3225 22.2682 2.3216 21.3317 2.32123 20.3952C2.32081 19.317 2.31917 18.2388 2.31645 17.1605C2.31442 16.3252 2.31348 15.4899 2.31335 14.6546C2.31326 14.1566 2.31271 13.6586 2.31103 13.1606C2.30947 12.6916 2.30929 12.2227 2.3101 11.7538C2.31018 11.5826 2.30977 11.4114 2.30884 11.2402C2.29933 9.38542 2.55803 7.72678 3.90808 6.33568C5.32983 4.99559 6.85185 4.71024 8.74868 4.71255ZM4.68738 7.53758C3.77793 8.72848 3.74988 9.87622 3.74988 11.3813C17.1149 11.3813 30.4799 11.3813 44.2499 11.3813C44.2499 9.68572 44.1742 8.48823 43.0326 7.24242C42.1953 6.4733 41.1317 6.12033 40.0093 6.11901C39.8932 6.11865 39.7772 6.11829 39.6576 6.11792C39.5296 6.118 39.4016 6.11808 39.2736 6.11817C39.1371 6.11793 39.0005 6.11764 38.8639 6.11732C38.489 6.11657 38.114 6.1164 37.7391 6.11633C37.3345 6.11616 36.93 6.11545 36.5254 6.11482C35.641 6.11355 34.7566 6.11298 33.8721 6.11257C33.3197 6.11231 32.7672 6.11191 32.2148 6.11149C30.6846 6.11035 29.1545 6.10938 27.6244 6.10906C27.4775 6.10903 27.4775 6.10903 27.3277 6.109C27.1805 6.10897 27.1805 6.10897 27.0303 6.10894C26.8315 6.1089 26.6326 6.10886 26.4338 6.10881C26.3351 6.10879 26.2365 6.10877 26.1349 6.10875C24.537 6.10838 22.9392 6.10674 21.3413 6.10456C19.7001 6.10234 18.0589 6.10117 16.4176 6.10106C15.4964 6.10097 14.5753 6.10044 13.6541 6.09873C12.8696 6.09729 12.0851 6.09681 11.3006 6.09758C10.9006 6.09795 10.5006 6.09787 10.1006 6.09655C9.73379 6.09535 9.36704 6.09547 9.00026 6.0966C8.86815 6.09678 8.73604 6.0965 8.60393 6.09568C7.08637 6.08685 5.749 6.39068 4.68738 7.53758ZM3.74988 12.7876C3.86323 18.59 3.58662 24.1011 3.8045 27.5669C3.88658 28.8725 4.52658 29.8669 5.01697 30.2877C5.89958 31.0451 7.27859 31.3929 8.66102 31.382C8.80341 31.3819 8.9458 31.382 9.08819 31.3821C9.47165 31.3822 9.85509 31.3806 10.2385 31.3786C10.6404 31.3768 11.0423 31.3767 11.4442 31.3763C12.2038 31.3755 12.9635 31.3732 13.7231 31.3703C14.5885 31.3672 15.4539 31.3657 16.3193 31.3642C18.0983 31.3613 19.8772 31.3564 21.6561 31.3501C21.6534 31.2864 21.6506 31.2227 21.6477 31.157C21.635 30.8641 21.6225 30.5712 21.61 30.2783C21.6057 30.1781 21.6013 30.0779 21.5968 29.9747C21.5616 29.1437 21.5474 28.3145 21.5507 27.4829C21.5508 27.416 21.551 27.3491 21.5511 27.2801C21.5532 26.4509 21.5615 25.622 21.5975 24.7934C21.6004 24.7187 21.6033 24.6439 21.6063 24.5669C21.625 24.221 21.6472 24.051 21.8436 23.7563C22.0852 23.6904 22.3128 23.6396 22.5585 23.5981C22.6247 23.586 22.6909 23.5738 22.7592 23.5613C22.9225 23.5315 23.0862 23.5032 23.2499 23.4751C23.262 23.2982 23.262 23.2982 23.2744 23.1177C23.4681 20.6341 24.3377 18.6214 26.2437 16.9514C28.2625 15.362 30.4768 14.9783 32.9999 15.1313C33.5224 15.1944 34.0041 15.3283 34.4999 15.5063C34.599 15.5414 34.6981 15.5764 34.8002 15.6125C36.0125 16.0819 36.9642 16.7532 37.8749 17.6626C37.9365 17.7231 37.9981 17.7837 38.0616 17.8461C39.5389 19.4084 39.9862 21.4078 40.2186 23.4751C40.3575 23.5023 40.3575 23.5023 40.4991 23.53C40.6193 23.5544 40.7394 23.5788 40.8632 23.604C41.0426 23.6399 41.0426 23.6399 41.2257 23.6765C41.5311 23.7563 41.5311 23.7563 41.7186 23.9438C41.8662 24.7687 41.8248 25.6361 41.8215 26.4707C41.8214 26.6015 41.8212 26.7323 41.8211 26.8631C41.8208 27.2034 41.8199 27.5437 41.8188 27.884C41.8178 28.2328 41.8174 28.5817 41.817 28.9305C41.816 29.6121 41.8144 30.2936 41.8124 30.9751C42.8342 30.5785 44.0917 29.5467 44.2616 28.2849C44.3306 27.7727 44.3722 27.2909 44.3722 26.8631C44.5384 21.2531 44.4114 21.5026 44.2499 12.7876C30.8849 12.7876 17.5199 12.7876 3.74988 12.7876ZM26.6249 18.5063C26.5525 18.5765 26.4801 18.6468 26.4055 18.7191C25.3601 19.7967 24.6412 21.2945 24.6327 22.813C24.6443 23.0015 24.6443 23.0015 24.6561 23.1938C24.9964 23.101 25.3368 23.0082 25.6874 22.9126C25.7101 22.8141 25.7328 22.7156 25.7562 22.6141C25.9245 21.9017 26.0893 21.2182 26.4374 20.5688C26.4745 20.4954 26.5116 20.4219 26.5498 20.3462C27.2924 18.9843 28.5081 18.1112 29.953 17.6157C31.7612 17.156 33.4748 17.4969 35.0624 18.4126C36.4626 19.32 37.2334 20.7376 37.5819 22.3384C37.6185 22.5295 37.6542 22.7208 37.6874 22.9126C38.0586 23.0054 38.4299 23.0982 38.8124 23.1938C38.6626 21.2516 37.9966 19.6001 36.5624 18.2251C33.612 15.7204 29.3795 15.7608 26.6249 18.5063ZM28.0322 20.4916C27.6116 21.0821 27.3202 21.7319 27.1874 22.4438C27.9399 22.2596 28.6427 22.0079 29.3553 21.7056C29.4509 21.666 29.5465 21.6265 29.645 21.5858C30.0865 21.4005 30.5039 21.2096 30.9132 20.9607C31.2974 20.7447 31.6262 20.6565 32.0624 20.7563C32.4138 20.8895 32.7429 21.0576 33.076 21.2309C33.7835 21.5848 34.4882 21.9108 35.2323 22.1802C35.3447 22.2211 35.3447 22.2211 35.4595 22.2628C35.8147 22.3966 35.8147 22.3966 36.1874 22.4438C36.0237 21.3527 35.4511 20.4179 34.5936 19.7251C34.2929 19.5096 33.9859 19.3299 33.6561 19.1626C33.5814 19.1237 33.5068 19.0848 33.4298 19.0447C31.5359 18.2062 29.3231 18.9782 28.0322 20.4916ZM31.2238 22.3314C28.6058 23.6035 25.8294 24.3775 22.9686 24.8813C22.8542 25.6885 22.8563 26.4937 22.8573 27.3071C22.8573 27.3814 22.8574 27.4557 22.8574 27.5323C22.8639 31.6606 23.2533 36.0116 26.2499 39.1313C26.3185 39.2048 26.3872 39.2783 26.4579 39.354C27.6788 40.6265 29.2939 41.4451 30.9374 42.0376C31.0733 42.0943 31.0733 42.0943 31.212 42.1522C31.8886 42.3235 32.4794 42.0709 33.0936 41.8032C33.2093 41.7535 33.2093 41.7534 33.3272 41.7027C34.4712 41.1995 35.5259 40.6147 36.4686 39.7876C36.5405 39.728 36.6124 39.6684 36.6865 39.607C39.1728 37.5006 40.1298 34.1118 40.4061 30.9751C40.4186 30.84 40.4186 30.84 40.4314 30.7022C40.5267 29.5151 40.5102 28.3273 40.5057 27.1372C40.5053 26.9178 40.5048 26.6984 40.5045 26.4789C40.5034 25.9464 40.5019 25.4139 40.4999 24.8813C40.4303 24.8689 40.3607 24.8564 40.289 24.8436C37.5684 24.3553 34.9104 23.6655 32.4279 22.4245C32.3591 22.3903 32.2903 22.356 32.2195 22.3208C32.1595 22.2902 32.0994 22.2596 32.0376 22.2281C31.7168 22.0989 31.5145 22.1856 31.2238 22.3314Z" fill="#573FE7"/>
<path d="M15 14.9438C15.8404 15.4739 16.3914 16.1631 16.6436 17.1312C16.821 18.1412 16.6801 19.0527 16.1192 19.9126C15.9736 20.12 15.8357 20.2957 15.6563 20.4751C15.7581 20.5481 15.7581 20.5481 15.8621 20.6227C15.9527 20.6881 16.0434 20.7534 16.1367 20.8208C16.2259 20.885 16.3151 20.9491 16.407 21.0153C17.5963 21.9049 18.3584 23.0418 18.6133 24.5197C18.6613 24.924 18.6731 25.3188 18.6753 25.7255C18.6758 25.8043 18.6764 25.8832 18.6769 25.9645C18.6778 26.1304 18.6784 26.2962 18.6788 26.4621C18.6797 26.7149 18.6826 26.9677 18.6856 27.2205C18.6862 27.3823 18.6867 27.5441 18.687 27.7059C18.6882 27.7809 18.6893 27.856 18.6905 27.9332C18.6885 28.4555 18.5972 28.8506 18.2377 29.2543C17.7063 29.6757 17.2936 29.677 16.6323 29.6792C16.5512 29.6798 16.47 29.6804 16.3864 29.6811C16.1181 29.6829 15.8498 29.684 15.5816 29.6849C15.4898 29.6853 15.3979 29.6857 15.3034 29.6861C14.8174 29.688 14.3315 29.6894 13.8455 29.6903C13.3445 29.6913 12.8435 29.6945 12.3425 29.6982C11.9565 29.7007 11.5704 29.7015 11.1844 29.7018C10.9997 29.7023 10.8151 29.7034 10.6304 29.7051C10.3715 29.7074 10.1127 29.7073 9.85374 29.7067C9.74033 29.7085 9.74033 29.7085 9.62462 29.7103C9.09544 29.7055 8.6925 29.5829 8.25002 29.2876C7.8164 28.8255 7.81986 28.3949 7.82521 27.7935C7.82467 27.6589 7.82467 27.6589 7.82412 27.5215C7.82387 27.3318 7.82456 27.142 7.82613 26.9523C7.82812 26.6661 7.82615 26.3801 7.82375 26.0939C7.82112 24.2757 8.16083 22.9022 9.42665 21.5375C9.72816 21.2504 10.0517 21.0183 10.4 20.7915C10.6031 20.6655 10.6031 20.6655 10.7813 20.4751C10.745 20.4318 10.7088 20.3886 10.6714 20.344C9.88066 19.3536 9.72894 18.4311 9.84377 17.1938C9.97399 16.3672 10.4978 15.7121 11.1387 15.1958C12.2595 14.4308 13.794 14.2211 15 14.9438ZM11.48 16.887C11.176 17.3625 11.1005 17.8862 11.2149 18.436C11.4659 19.1207 11.8489 19.5409 12.4688 19.9126C13.0551 20.1023 13.6108 20.0718 14.1738 19.8247C14.7496 19.5117 15.0765 19.027 15.2813 18.4126C15.3584 17.7832 15.2501 17.26 14.9063 16.7251C14.5158 16.2921 14.1013 16.0126 13.5125 15.9436C12.5664 15.9313 12.0832 16.156 11.48 16.887ZM10.3125 22.6313C8.90214 24.3355 9.28127 25.9107 9.28127 28.2563C11.911 28.2563 14.5406 28.2563 17.25 28.2563C17.4236 25.146 17.4236 25.146 16.1151 22.6042C15.238 21.7752 14.2202 21.3626 13.0184 21.3892C12.0227 21.4761 11.0065 21.8949 10.3125 22.6313Z" fill="#573FE7"/>
<path d="M34.5352 26.5923C35.228 27.2476 35.6807 28.1522 35.7353 29.1071C35.7362 29.3555 35.7315 29.602 35.7188 29.8501C35.8058 29.8578 35.8928 29.8656 35.9825 29.8735C36.2813 29.9439 36.2813 29.9439 36.4383 30.1073C36.5821 30.3522 36.5981 30.4917 36.5989 30.7739C36.5998 30.8641 36.6007 30.9543 36.6016 31.0472C36.6011 31.1442 36.6005 31.2413 36.5999 31.3413C36.6002 31.4422 36.6004 31.543 36.6007 31.6469C36.6009 31.8606 36.6004 32.0744 36.5992 32.2881C36.5977 32.6119 36.5992 32.9357 36.601 33.2595C36.6008 33.4678 36.6005 33.676 36.5999 33.8843C36.6005 33.9798 36.601 34.0754 36.6016 34.1738C36.5892 35.4697 36.2122 36.7007 35.3196 37.6672C34.2753 38.6367 32.9853 39.1208 31.5667 39.1343C30.1101 39.0648 28.8786 38.487 27.8749 37.4343C26.7679 36.0585 26.7794 34.5118 26.783 32.8235C26.7833 32.5262 26.781 32.2291 26.7787 31.9318C26.7785 31.742 26.7784 31.5521 26.7785 31.3622C26.7776 31.2738 26.7768 31.1854 26.7759 31.0944C26.7815 30.3011 26.7815 30.3011 27.0938 29.9439C27.3926 29.8677 27.3926 29.8677 27.6563 29.8501C27.6498 29.7698 27.6498 29.7698 27.6431 29.6879C27.5961 28.6319 27.9171 27.7197 28.5693 26.8915C30.1745 25.1587 32.7463 25.1482 34.5352 26.5923ZM29.5749 27.9469C29.1072 28.5537 29.0626 29.0801 29.0626 29.8501C30.7951 29.8501 32.5276 29.8501 34.3126 29.8501C34.3126 28.9168 34.2665 28.4752 33.6819 27.7836C33.1348 27.2556 32.4781 26.9949 31.7286 26.9028C30.8592 27.0135 30.1702 27.2879 29.5749 27.9469ZM28.2188 31.2564C28.213 31.8248 28.2072 32.3933 28.2012 32.979C28.1987 33.1565 28.1961 33.3339 28.1935 33.5168C28.1835 34.6931 28.2701 35.6692 29.0626 36.6001C29.8341 37.348 30.6918 37.6838 31.7593 37.7339C32.6913 37.7069 33.5342 37.3328 34.2225 36.7078C34.7786 36.1138 35.1696 35.3608 35.1669 34.5344C35.1669 34.4231 35.1669 34.4231 35.1669 34.3096C35.1664 34.2326 35.166 34.1555 35.1655 34.0762C35.1654 34.0047 35.1653 33.9332 35.1652 33.8595C35.1647 33.5934 35.1634 33.3272 35.1622 33.061C35.1593 32.1677 35.1593 32.1677 35.1563 31.2564C32.8669 31.2564 30.5776 31.2564 28.2188 31.2564Z" fill="#573FE7"/>
<path d="M26.1563 7.16259C26.3116 7.2712 26.3116 7.2712 26.4376 7.44384C26.499 7.87658 26.481 8.31389 26.4786 8.75048C26.4805 8.87127 26.4823 8.99206 26.4843 9.11651C26.4842 9.23246 26.4841 9.34842 26.4841 9.46789C26.4843 9.57411 26.4844 9.68033 26.4846 9.78977C26.4273 10.1296 26.336 10.2396 26.0626 10.4438C25.7344 10.4966 25.7344 10.4966 25.4063 10.4438C25.1414 10.2327 25.0422 10.0592 24.9986 9.72293C24.9875 9.41356 24.9895 9.10685 24.9962 8.79736C24.9963 8.69083 24.9964 8.5843 24.9965 8.47454C25.0059 7.59419 25.0059 7.59419 25.2188 7.25634C25.5365 7.01809 25.7844 7.05971 26.1563 7.16259Z" fill="#573FE7"/>
<path d="M20.7189 7.1626C21.1526 7.60194 21.0446 8.17251 21.0412 8.75049C21.043 8.86113 21.0449 8.97176 21.0469 9.08575C21.0468 9.19252 21.0467 9.2993 21.0467 9.4093C21.0468 9.50658 21.047 9.60385 21.0472 9.70408C20.988 10.0452 20.8699 10.2024 20.6252 10.4438C20.297 10.4966 20.297 10.4966 19.9689 10.4438C19.7019 10.2425 19.605 10.1325 19.5469 9.79987C19.547 9.69817 19.5472 9.59648 19.5474 9.4917C19.5473 9.3804 19.5473 9.26909 19.5472 9.15442C19.5491 9.03852 19.551 8.92263 19.5529 8.80322C19.5522 8.68733 19.5516 8.57143 19.5509 8.45203C19.5577 7.48335 19.5577 7.48335 19.8752 7.1626C20.2097 7.05108 20.3807 7.07099 20.7189 7.1626Z" fill="#573FE7"/>
<path d="M37.1252 7.1626C37.5042 7.54288 37.4459 7.94368 37.4494 8.45203C37.4488 8.56792 37.4481 8.68382 37.4474 8.80322C37.4493 8.91912 37.4512 9.03501 37.4531 9.15442C37.453 9.26572 37.453 9.37702 37.4529 9.4917C37.4531 9.59339 37.4533 9.69509 37.4534 9.79987C37.3953 10.1325 37.2984 10.2425 37.0314 10.4438C36.7033 10.4966 36.7033 10.4966 36.3752 10.4438C36.1304 10.2024 36.0123 10.0452 35.9531 9.70408C35.9533 9.6068 35.9535 9.50953 35.9537 9.4093C35.9536 9.30253 35.9535 9.19576 35.9535 9.08575C35.9553 8.97512 35.9572 8.86448 35.9591 8.75049C35.9585 8.63949 35.9578 8.52849 35.9571 8.41412C35.964 7.48639 35.964 7.48639 36.2814 7.1626C36.616 7.05108 36.7869 7.07099 37.1252 7.1626Z" fill="#573FE7"/>
<path d="M34.4064 7.1626C34.8401 7.60194 34.7321 8.17251 34.7287 8.75049C34.7305 8.86113 34.7324 8.97176 34.7344 9.08575C34.7343 9.19252 34.7342 9.2993 34.7342 9.4093C34.7343 9.50658 34.7345 9.60385 34.7347 9.70408C34.6755 10.0452 34.5574 10.2024 34.3127 10.4438C33.9845 10.4966 33.9845 10.4966 33.6564 10.4438C33.3894 10.2425 33.2925 10.1325 33.2344 9.79987C33.2345 9.69817 33.2347 9.59648 33.2349 9.4917C33.2348 9.3804 33.2348 9.26909 33.2347 9.15442C33.2366 9.03852 33.2385 8.92263 33.2404 8.80322C33.2397 8.68733 33.2391 8.57143 33.2384 8.45203C33.2452 7.48335 33.2452 7.48335 33.5627 7.1626C33.8972 7.05108 34.0682 7.07099 34.4064 7.1626Z" fill="#573FE7"/>
<path d="M31.3242 7.07471C31.5942 7.16276 31.7058 7.22132 31.8749 7.44385C32.0725 7.83902 31.9985 8.35146 32.0038 8.78565C32.0073 8.89266 32.0109 8.99967 32.0145 9.10993C32.0237 9.99214 32.0237 9.99214 31.7501 10.2805C31.444 10.4804 31.296 10.5125 30.9374 10.4439C30.6686 10.239 30.573 10.1275 30.5124 9.79127C30.5091 9.44617 30.5068 9.10146 30.5097 8.75635C30.5075 8.63599 30.5052 8.51562 30.5029 8.39161C30.5031 8.27607 30.5033 8.16054 30.5035 8.04151C30.5034 7.93589 30.5033 7.83026 30.5033 7.72144C30.5624 7.44385 30.5624 7.44385 30.7822 7.21863C31.0312 7.06885 31.0312 7.06885 31.3242 7.07471Z" fill="#573FE7"/>
<path d="M23.4377 7.1626C23.8167 7.54288 23.7584 7.94368 23.7619 8.45203C23.7613 8.56792 23.7606 8.68382 23.7599 8.80322C23.7618 8.91912 23.7637 9.03501 23.7656 9.15442C23.7655 9.26572 23.7655 9.37702 23.7654 9.4917C23.7656 9.59339 23.7658 9.69509 23.7659 9.79987C23.7078 10.1325 23.6109 10.2425 23.3439 10.4438C23.0158 10.4966 23.0158 10.4966 22.6877 10.4438C22.4429 10.2024 22.3248 10.0452 22.2656 9.70408C22.2658 9.6068 22.266 9.50953 22.2662 9.4093C22.2661 9.30253 22.266 9.19576 22.266 9.08575C22.2678 8.97512 22.2697 8.86448 22.2716 8.75049C22.271 8.63949 22.2703 8.52849 22.2696 8.41412C22.2765 7.48639 22.2765 7.48639 22.5939 7.1626C22.9285 7.05108 23.0994 7.07099 23.4377 7.1626Z" fill="#573FE7"/>
<path d="M39.8437 7.16259C39.999 7.2712 39.999 7.2712 40.1249 7.44384C40.1864 7.87658 40.1684 8.31389 40.166 8.75048C40.1678 8.87127 40.1697 8.99206 40.1716 9.11651C40.1716 9.23246 40.1715 9.34842 40.1715 9.46789C40.1716 9.57411 40.1718 9.68033 40.172 9.78977C40.1149 10.1286 40.0213 10.2391 39.7499 10.4438C39.4263 10.491 39.2561 10.4828 38.9707 10.3208C38.5767 9.92688 38.7014 9.27934 38.7011 8.7622C38.7 8.6593 38.6988 8.55639 38.6976 8.45037C38.6975 8.35134 38.6973 8.2523 38.6971 8.15026C38.6967 8.05975 38.6963 7.96924 38.6959 7.87599C38.7196 7.62147 38.7707 7.47125 38.9062 7.25634C39.2239 7.01809 39.4717 7.05971 39.8437 7.16259Z" fill="#573FE7"/>
<path d="M28.6054 7.07472C28.8892 7.16727 28.9835 7.20686 29.1562 7.44386C29.2092 7.83187 29.2005 8.21986 29.198 8.6112C29.1972 8.80263 29.1999 8.99379 29.2029 9.18519C29.2028 9.30568 29.2028 9.42617 29.2027 9.5503C29.2029 9.66094 29.203 9.77158 29.2032 9.88557C29.1562 10.1626 29.1562 10.1626 28.9834 10.3393C28.7084 10.4815 28.5243 10.4821 28.2187 10.4439C28.0169 10.3391 28.0169 10.3391 27.8437 10.1626C27.7737 9.77712 27.7859 9.39172 27.7896 9.00042C27.7909 8.80996 27.7878 8.61994 27.7842 8.42952C27.7844 8.30933 27.7845 8.18915 27.7847 8.06532C27.7847 7.95517 27.7846 7.84503 27.7845 7.73154C27.8437 7.44386 27.8437 7.44386 28.0634 7.21715C28.3124 7.06886 28.3124 7.06886 28.6054 7.07472Z" fill="#573FE7"/>
</svg>
