<svg width="48" height="49" viewBox="0 0 48 49" fill="none" xmlns="http://www.w3.org/2000/svg">
    <g clipPath="url(#clip0_88_2420)">
        <path
            d="M23.9881 0.308621C24.1126 0.309415 24.1126 0.309415 24.2396 0.310224C25.4141 0.332092 26.522 0.753866 27.3979 1.56216C28.2821 2.54096 28.7865 3.60738 28.8748 4.93167C28.9813 4.9417 29.0877 4.95173 29.1974 4.96206C29.6403 5.01828 30.0427 5.14073 30.4627 5.28909C30.5415 5.31673 30.6204 5.34436 30.7016 5.37284C31.8621 5.79578 33.0946 6.30737 34.1248 6.99417C34.4824 6.96489 34.6927 6.8511 34.9744 6.63675C36.1316 5.85334 37.524 5.77202 38.8749 6.0281C39.1495 6.11266 39.398 6.21186 39.656 6.33792C39.7362 6.37659 39.8163 6.41526 39.8988 6.45511C41.1377 7.12703 41.8761 8.1657 42.2942 9.4888C42.5958 10.6788 42.4993 11.9981 41.906 13.0879C41.7594 13.2873 41.6094 13.4767 41.4442 13.661C41.303 13.9092 41.3653 14.0348 41.4373 14.3067C41.5276 14.5152 41.5276 14.5152 41.6424 14.7212C41.6843 14.8008 41.7263 14.8803 41.7695 14.9623C41.8145 15.0476 41.8596 15.1329 41.906 15.2207C42.3088 16.0038 42.6508 16.7945 42.949 17.6231C42.9844 17.7204 43.0198 17.8178 43.0563 17.9181C43.2379 18.4369 43.3629 18.9146 43.406 19.4629C43.4831 19.4721 43.5602 19.4813 43.6397 19.4907C44.99 19.6716 46.0886 20.1619 46.9912 21.2061C47.1537 21.432 47.2991 21.659 47.4373 21.9004C47.4755 21.9662 47.5137 22.0319 47.553 22.0996C47.9397 22.8169 48.0344 23.5223 48.0291 24.3262C48.0283 24.4507 48.0283 24.4507 48.0275 24.5778C48.0056 25.7523 47.5838 26.8602 46.7755 27.736C45.7967 28.6203 44.7303 29.1246 43.406 29.2129C43.391 29.3726 43.391 29.3726 43.3756 29.5356C43.3194 29.9784 43.197 30.3809 43.0486 30.8008C43.021 30.8797 42.9933 30.9585 42.9649 31.0397C42.5419 32.2002 42.0303 33.4327 41.3435 34.4629C41.3728 34.8206 41.4866 35.0309 41.701 35.3125C42.4523 36.4016 42.5647 37.6402 42.355 38.9164C42.1655 39.7559 41.8168 40.4737 41.2498 41.1192C41.1724 41.2129 41.1724 41.2129 41.0934 41.3085C40.3524 42.1348 39.1898 42.6865 38.0824 42.7477C36.8082 42.7773 35.6434 42.6979 34.6635 41.7791C34.4997 41.6589 34.4997 41.6589 34.2811 41.7096C34.0337 41.7747 33.841 41.8591 33.6165 41.9805C33.5369 42.0224 33.4574 42.0644 33.3754 42.1076C33.2901 42.1527 33.2048 42.1977 33.117 42.2442C32.3339 42.6469 31.5432 42.9889 30.7146 43.2871C30.5686 43.3403 30.5686 43.3403 30.4196 43.3944C29.9008 43.5761 29.4231 43.701 28.8748 43.7442C28.8656 43.8213 28.8564 43.8984 28.847 43.9778C28.6657 45.3312 28.1736 46.4106 27.1415 47.3261C25.8111 48.3 24.3789 48.5307 22.7671 48.2947C21.3198 47.8966 20.3336 46.9755 19.5935 45.7129C19.3072 45.0711 19.1714 44.4428 19.1248 43.7442C19.0183 43.7341 18.9118 43.7241 18.8022 43.7138C18.3593 43.6576 17.9568 43.5351 17.5369 43.3867C17.458 43.3591 17.3792 43.3315 17.298 43.303C16.1375 42.8801 14.905 42.3685 13.8748 41.6817C13.5171 41.7109 13.3068 41.8247 13.0252 42.0391C11.868 42.8225 10.4756 42.9038 9.12466 42.6477C8.85002 42.5632 8.60156 42.464 8.34353 42.3379C8.26341 42.2992 8.18329 42.2606 8.10073 42.2207C6.86188 41.5488 6.12347 40.5101 5.70535 39.187C5.40375 37.9971 5.5003 36.6777 6.09353 35.5879C6.24018 35.3885 6.39017 35.1991 6.55533 35.0148C6.69659 34.7667 6.63427 34.641 6.56228 34.3692C6.47201 34.1606 6.47201 34.1606 6.3572 33.9546C6.31526 33.8751 6.2733 33.7955 6.23008 33.7135C6.18502 33.6282 6.13996 33.543 6.09353 33.4551C5.6908 32.672 5.34881 31.8813 5.05056 31.0528C5.01516 30.9554 4.97975 30.858 4.94326 30.7577C4.76164 30.239 4.63672 29.7612 4.59353 29.2129C4.47625 29.1991 4.47625 29.1991 4.35659 29.1851C3.28906 29.0432 2.5574 28.7089 1.68728 28.0879C1.60607 28.0338 1.52486 27.9796 1.44119 27.9239C0.719847 27.2405 0.0609664 26.1639 -0.016811 25.1536C-0.0672419 23.0819 -0.0672419 23.0819 0.374783 22.2754C0.418893 22.1931 0.463003 22.1108 0.50845 22.026C0.987287 21.1859 1.52901 20.6353 2.34353 20.1192C2.40335 20.0812 2.46317 20.0433 2.52481 20.0042C3.12243 19.6674 3.90842 19.4629 4.59353 19.4629C4.60356 19.3564 4.61359 19.25 4.62393 19.1403C4.68015 18.6974 4.80259 18.295 4.95095 17.875C4.99241 17.7568 4.99241 17.7568 5.0347 17.6361C5.45764 16.4756 5.96924 15.2431 6.65603 14.2129C6.62675 13.8553 6.51297 13.645 6.29861 13.3633C5.54728 12.2742 5.43489 11.0356 5.64456 9.75943C5.83403 8.91994 6.1828 8.20214 6.74978 7.55667C6.80139 7.49419 6.85299 7.43171 6.90616 7.36734C7.64716 6.54102 8.80977 5.98933 9.91714 5.92813C11.1913 5.89855 12.3562 5.97796 13.3361 6.89676C13.4999 7.01699 13.4999 7.01699 13.7185 6.9662C13.9659 6.90111 14.1586 6.81677 14.3831 6.69534C14.4626 6.65339 14.5422 6.61144 14.6242 6.56822C14.7095 6.52316 14.7947 6.4781 14.8826 6.43167C15.6657 6.02894 16.4564 5.68694 17.2849 5.3887C17.3823 5.35329 17.4797 5.31788 17.58 5.2814C18.0987 5.09977 18.5765 4.97485 19.1248 4.93167C19.1386 4.81602 19.1386 4.81602 19.1526 4.69803C19.3335 3.3477 19.8238 2.24908 20.8679 1.34646C21.0938 1.18402 21.3209 1.03858 21.5623 0.900418C21.628 0.86223 21.6938 0.824041 21.7615 0.784696C22.4788 0.398042 23.1842 0.303272 23.9881 0.308621ZM21.4945 3.14712C20.9668 3.86414 20.7554 4.70939 20.8207 5.59378C20.8099 5.8267 20.749 5.95329 20.6248 6.15042C20.4532 6.2395 20.4532 6.2395 20.2469 6.29837C20.1334 6.33199 20.1334 6.33199 20.0176 6.3663C19.9395 6.38787 19.8615 6.40944 19.781 6.43167C19.6355 6.47413 19.49 6.51661 19.3445 6.55911C19.2709 6.58016 19.1972 6.60121 19.1213 6.6229C17.3457 7.13488 15.6441 7.86435 14.0755 8.85013C13.7588 9.02811 13.4772 9.03962 13.1248 8.96292C12.8963 8.7637 12.8963 8.7637 12.656 8.49417C11.7582 7.80083 10.9866 7.5318 9.84353 7.65042C9.1035 7.8123 8.58326 8.13965 8.06228 8.68167C7.99267 8.75321 7.92306 8.82475 7.85135 8.89847C7.31327 9.72479 7.20688 10.5154 7.31228 11.4942C7.48915 12.1758 7.93592 12.8236 8.47244 13.2754C8.66693 13.5148 8.66287 13.7017 8.65614 14.0035C8.59914 14.3842 8.40168 14.6802 8.20291 15.0039C8.11587 15.1537 8.02921 15.3038 7.9429 15.454C7.89954 15.529 7.85619 15.604 7.81152 15.6813C6.95241 17.1966 6.38629 18.8707 5.98287 20.5607C5.87344 20.8665 5.72443 21.0068 5.43728 21.1504C5.30242 21.1474 5.16763 21.141 5.03299 21.1328C4.14171 21.1277 3.2984 21.4079 2.61892 21.9887C1.88956 22.7636 1.6404 23.618 1.65799 24.6624C1.73378 25.5208 2.16152 26.2827 2.81228 26.8432C3.54466 27.3754 4.33356 27.5747 5.23184 27.517C5.47843 27.5271 5.60414 27.5812 5.81228 27.7129C5.89972 27.8793 5.89972 27.8793 5.9573 28.0817C5.97972 28.1573 6.00214 28.233 6.02523 28.3109C6.05904 28.4326 6.05904 28.4326 6.09353 28.5567C6.14275 28.7238 6.19207 28.8909 6.24148 29.058C6.26678 29.1449 6.29207 29.2317 6.31813 29.3212C6.82866 31.0587 7.54034 32.7201 8.50906 34.2567C8.68864 34.5767 8.70175 34.8567 8.62478 35.2129C8.43142 35.4356 8.43142 35.4356 8.15603 35.6817C8.03704 35.8331 7.92206 35.9877 7.81033 36.1446C7.75583 36.2208 7.70132 36.2971 7.64517 36.3756C7.19993 37.1214 7.18677 38.0265 7.37344 38.8615C7.57959 39.4322 7.91431 39.8531 8.34353 40.2754C8.41314 40.345 8.48275 40.4146 8.55447 40.4864C9.33047 40.9802 10.1515 41.1512 11.0623 41.0254C11.8101 40.8082 12.4345 40.4902 12.9197 39.8711C13.1941 39.6595 13.3777 39.637 13.7206 39.6536C14.081 39.7398 14.3534 39.9277 14.6605 40.1301C16.3349 41.2232 18.2875 41.8914 20.2217 42.3544C20.528 42.4642 20.6685 42.6128 20.8123 42.9004C20.8084 43.0203 20.8045 43.1402 20.8006 43.2637C20.7972 44.3021 21.1226 45.1479 21.8435 45.9004C22.7146 46.5702 23.5711 46.7462 24.656 46.6504C25.561 46.4322 26.3005 45.8985 26.7885 45.1087C27.102 44.4699 27.2312 43.79 27.1789 43.0821C27.1902 42.8385 27.2273 42.7221 27.3748 42.5254C27.6421 42.4126 27.6421 42.4126 27.9959 42.3145C28.1327 42.2744 28.2694 42.2341 28.406 42.1936C28.481 42.1718 28.5559 42.1501 28.6331 42.1276C30.5108 41.5764 32.2575 40.8779 33.9136 39.8245C34.2679 39.6373 34.4807 39.6394 34.8748 39.7129C35.1033 39.9121 35.1033 39.9121 35.3435 40.1817C36.2414 40.875 37.013 41.144 38.156 41.0254C38.8961 40.8635 39.4163 40.5362 39.9373 39.9942C40.0417 39.8869 40.0417 39.8869 40.1482 39.7774C40.6863 38.951 40.7927 38.1604 40.6873 37.1817C40.5104 36.5 40.0636 35.8522 39.5271 35.4004C39.3324 35.1608 39.337 34.9736 39.3438 34.6715C39.3997 34.2948 39.5939 34.0038 39.7908 33.6836C39.8777 33.5338 39.9643 33.3838 40.0504 33.2336C40.0944 33.1573 40.1383 33.0811 40.1836 33.0026C40.8874 31.7601 41.3457 30.4784 41.7442 29.1096C41.7717 29.0158 41.7992 28.922 41.8276 28.8254C41.8783 28.6517 41.928 28.4777 41.9764 28.3033C41.9989 28.2277 42.0213 28.152 42.0445 28.074C42.0631 28.0083 42.0818 27.9427 42.1011 27.875C42.2162 27.6586 42.3362 27.6101 42.5623 27.5254C42.7611 27.5203 42.7611 27.5203 42.9783 27.5371C43.8128 27.5519 44.6639 27.2926 45.3081 26.7531C45.6043 26.4482 45.826 26.1153 46.031 25.7442C46.0631 25.6865 46.0951 25.6289 46.1281 25.5695C46.4623 24.8436 46.4326 23.9169 46.1599 23.1778C45.7503 22.3072 45.1908 21.6873 44.2805 21.3346C43.7669 21.1786 43.3031 21.1244 42.7677 21.1588C42.5213 21.1487 42.3954 21.0943 42.1873 20.9629C42.1005 20.7996 42.1005 20.7996 42.0434 20.5996C42.0209 20.5239 41.9984 20.4481 41.9752 20.37C41.9524 20.2872 41.9296 20.2045 41.906 20.1192C41.8554 19.9414 41.8048 19.7637 41.7541 19.586C41.7133 19.4431 41.7133 19.4431 41.6718 19.2973C41.197 17.6628 40.5289 16.1248 39.6326 14.6758C39.3669 14.237 39.2676 13.9721 39.3748 13.4629C39.5681 13.2403 39.5681 13.2403 39.8435 12.9942C39.9625 12.8427 40.0775 12.6881 40.1892 12.5313C40.271 12.4169 40.271 12.4169 40.3544 12.3002C40.7996 11.5544 40.8128 10.6494 40.6261 9.81436C40.42 9.24368 40.0853 8.82277 39.656 8.40042C39.5516 8.296 39.5516 8.296 39.4451 8.18948C38.6691 7.69567 37.8481 7.52464 36.9373 7.65042C36.1835 7.86939 35.5717 8.1909 35.074 8.80472C34.8267 9.00113 34.6428 9.0013 34.333 8.99407C33.9566 8.93775 33.6654 8.74372 33.3455 8.5469C33.1962 8.46006 33.0466 8.37365 32.8969 8.28763C32.7826 8.22173 32.7826 8.22173 32.6661 8.15451C31.2508 7.35613 29.759 6.84944 28.1988 6.41482C28.0893 6.38364 27.9798 6.35246 27.867 6.32034C27.7746 6.29581 27.6823 6.27128 27.5872 6.246C27.3748 6.15042 27.3748 6.15042 27.2499 5.97574C27.1837 5.76402 27.1769 5.62051 27.1931 5.40042C27.2084 4.36754 26.8712 3.52197 26.156 2.77542C24.6941 1.65138 22.7333 1.73424 21.4945 3.14712Z"
            fill="#573FE7" />
        <path
            d="M35.0624 13.7441C35.2951 13.9843 35.5089 14.2337 35.7186 14.4941C35.7885 14.5781 35.8583 14.6621 35.9303 14.7486C38.5652 18.0237 39.596 22.1214 39.1581 26.2645C38.6821 30.2908 36.554 33.9036 33.3907 36.4063C30.1489 38.9169 26.1172 39.9675 22.0513 39.4994C18.3361 39.0132 14.6368 37.1493 12.2811 34.1816C12.241 34.1318 12.201 34.082 12.1597 34.0306C9.48248 30.6775 8.40221 26.6104 8.83544 22.3578C9.26791 18.6748 11.2575 14.9526 14.1561 12.6191C14.2821 12.5143 14.2821 12.5143 14.4106 12.4075C20.6393 7.39626 29.4683 8.28246 35.0624 13.7441ZM14.1067 15.009C11.659 17.6331 10.3039 21.1896 10.4138 24.7749C10.4877 26.2875 10.6718 28.916 11.8124 30.0566C11.8868 29.9811 11.9613 29.9056 12.038 29.8278C12.7415 29.1148 13.4463 28.403 14.1522 27.6925C14.5151 27.3272 14.8775 26.9614 15.2389 26.5947C15.588 26.2405 15.9383 25.8875 16.2893 25.5352C16.4228 25.4009 16.5558 25.2662 16.6884 25.1311C16.8748 24.9412 17.0627 24.7529 17.2509 24.5648C17.3049 24.5092 17.3588 24.4536 17.4144 24.3962C17.8687 23.9475 18.3795 23.6585 19.011 23.5381C19.1167 23.5395 19.1167 23.5395 19.2245 23.541C19.2952 23.54 19.3659 23.5391 19.4387 23.5381C20.3143 23.7134 20.8539 24.3296 21.454 24.9429C21.5495 25.0391 21.6451 25.1352 21.7408 25.2313C21.9907 25.4826 22.2395 25.7351 22.488 25.9877C22.7425 26.2461 22.998 26.5034 23.2535 26.7607C23.7534 27.2646 24.252 27.7696 24.7499 28.2754C25.1761 27.9192 25.5805 27.5508 25.9694 27.1543C26.0475 27.0753 26.0475 27.0753 26.1272 26.9947C26.239 26.8816 26.3508 26.7683 26.4624 26.655C26.6396 26.4754 26.8171 26.2962 26.9948 26.1171C27.4995 25.6083 28.004 25.0993 28.507 24.5888C28.8158 24.2755 29.1254 23.9632 29.4357 23.6514C29.5532 23.5329 29.6704 23.4141 29.7873 23.2949C29.9508 23.1282 30.1154 22.9628 30.2804 22.7975C30.3278 22.7486 30.3753 22.6996 30.4242 22.6492C30.8783 22.1989 31.3609 21.9541 32.0096 21.9531C32.0907 21.9513 32.1718 21.9495 32.2554 21.9476C33.1203 22.0935 33.6462 22.6854 34.2329 23.2876C34.3219 23.3775 34.411 23.4674 34.5002 23.5571C34.7329 23.7918 34.9645 24.0276 35.1959 24.2636C35.5681 24.643 35.9422 25.0206 36.3161 25.3984C36.4465 25.5304 36.5764 25.6629 36.7064 25.7954C36.8238 25.9146 36.8238 25.9146 36.9436 26.0363C37.0127 26.1068 37.0819 26.1772 37.1531 26.2499C37.2872 26.4111 37.2872 26.4111 37.4061 26.4004C37.9095 22.7227 37.0526 19.202 34.8749 16.1816C34.5839 15.8178 34.2603 15.4857 33.9374 15.1504C33.8446 15.0379 33.7527 14.9247 33.662 14.8105C33.28 14.361 32.8079 14.0104 32.3436 13.6504C32.2634 13.5874 32.1831 13.5244 32.1005 13.4596C26.5267 9.23732 18.954 10.2291 14.1067 15.009ZM31.471 23.9567C31.4177 24.0111 31.3643 24.0654 31.3094 24.1214C31.2243 24.2065 31.2243 24.2065 31.1375 24.2932C30.9496 24.4813 30.7628 24.6703 30.5759 24.8594C30.4461 24.9897 30.3161 25.1201 30.1862 25.2503C29.8439 25.5937 29.5024 25.9379 29.1611 26.2823C28.8128 26.6335 28.4638 26.9838 28.1148 27.3342C27.4299 28.0222 26.7458 28.711 26.0624 29.4004C26.2094 29.7105 26.3669 29.9134 26.6135 30.154C26.6844 30.2239 26.7553 30.2937 26.8283 30.3657C26.9393 30.4737 26.9393 30.4737 27.0526 30.584C27.1994 30.7276 27.346 30.8713 27.4924 31.0154C27.5575 31.0788 27.6226 31.1422 27.6896 31.2075C27.9133 31.4423 27.936 31.5418 27.9667 31.873C27.9374 32.2129 27.9374 32.2129 27.7967 32.4414C27.5324 32.6066 27.3244 32.6581 27.0119 32.6422C26.765 32.575 26.6444 32.4718 26.4565 32.2991C26.3587 32.2096 26.3587 32.2096 26.2589 32.1183C25.9541 31.8288 25.654 31.5355 25.3576 31.2375C25.2916 31.1716 25.2257 31.1056 25.1578 31.0377C24.9425 30.8223 24.7275 30.6067 24.5126 30.391C24.3623 30.2406 24.2121 30.0902 24.0618 29.9398C23.6682 29.5459 23.275 29.1517 22.8818 28.7575C22.4798 28.3545 22.0775 27.9518 21.6752 27.549C20.8873 26.7601 20.0997 25.971 19.3124 25.1816C18.8331 25.3211 18.5625 25.6122 18.2224 25.9584C18.162 26.0188 18.1016 26.0792 18.0393 26.1414C17.8403 26.3406 17.6423 26.5407 17.4443 26.7409C17.3063 26.8795 17.1683 27.0179 17.0302 27.1563C16.6672 27.5204 16.3051 27.8852 15.9431 28.2503C15.5735 28.6228 15.2031 28.9945 14.8327 29.3663C14.1064 30.0956 13.381 30.8259 12.6561 31.5566C13.53 33.8511 16.2214 35.704 18.3691 36.7037C21.7834 38.2165 25.4948 38.2844 28.9727 36.9793C32.2203 35.7084 34.9291 33.1287 36.3707 29.9531C36.5418 29.5551 36.6998 29.153 36.8436 28.7441C36.8699 28.6862 36.8963 28.6282 36.9234 28.5685C36.9605 28.3489 36.9605 28.3489 36.769 28.1425C36.6847 28.0584 36.6004 27.9743 36.5136 27.8876C36.4674 27.841 36.4212 27.7943 36.3737 27.7462C36.2204 27.5918 36.0655 27.4392 35.9105 27.2866C35.8038 27.18 35.6971 27.0734 35.5905 26.9666C35.3668 26.743 35.1423 26.5203 34.9171 26.2981C34.6282 26.0129 34.341 25.726 34.0543 25.4386C33.8341 25.2182 33.6133 24.9985 33.3922 24.779C33.286 24.6735 33.18 24.5678 33.0742 24.4619C32.9263 24.3141 32.7775 24.1674 32.6284 24.0208C32.5438 23.937 32.4592 23.8532 32.3721 23.7669C31.9694 23.4331 31.7988 23.6315 31.471 23.9567Z"
            fill="#573FE7" />
        <path
            d="M20.0037 13.8907C20.0815 13.8914 20.1593 13.8922 20.2395 13.893C21.3812 13.9243 22.1524 14.3532 22.9627 15.1391C23.8719 16.109 24.0459 17.0818 24.0255 18.3584C23.9854 19.3761 23.5045 20.2723 22.765 20.9666C21.7839 21.7616 20.7645 22.1003 19.4998 21.9942C18.3711 21.8314 17.4818 21.3143 16.7547 20.4367C16.0996 19.527 15.8182 18.517 15.9373 17.4004C16.0965 16.6717 16.3352 16.0308 16.7811 15.4317C16.8468 15.3369 16.9126 15.2422 16.9803 15.1446C17.741 14.2691 18.8758 13.876 20.0037 13.8907ZM18.1463 16.4395C17.7348 17.0638 17.5549 17.6463 17.6658 18.3929C17.8357 19.1217 18.2227 19.6108 18.8436 20.0254C19.4812 20.3344 20.0808 20.3955 20.7654 20.2012C21.3906 19.9705 21.7856 19.6104 22.119 19.0352C22.4036 18.4103 22.4261 17.752 22.2567 17.0888C21.9901 16.4607 21.4215 15.9815 20.8299 15.666C19.7887 15.5027 18.851 15.5738 18.1463 16.4395Z"
            fill="#573FE7" />
        <path
            d="M28.5938 17.1191C28.8899 17.2196 29.1623 17.3464 29.4375 17.4941C29.4994 17.5251 29.5613 17.556 29.625 17.5879C29.7666 17.5172 29.9048 17.4398 30.0411 17.3594C30.5614 17.089 31.0145 17.0175 31.5938 17.1191C31.924 17.3157 31.9559 17.4467 32.0567 17.8164C32.0635 18.2052 32.0482 18.3365 31.7813 18.6191C31.5703 18.7041 31.3574 18.768 31.1393 18.8326C30.8557 18.9279 30.7319 19.0278 30.5625 19.2754C30.515 19.4171 30.4703 19.5598 30.4278 19.7031C30.3378 19.9952 30.298 20.1033 30.0704 20.3184C29.7242 20.4285 29.5056 20.4019 29.1563 20.3066C28.7797 20.0522 28.7307 19.7726 28.6381 19.3534C28.5771 19.1169 28.5239 19.0272 28.3125 18.9004C28.1901 18.8688 28.0669 18.8398 27.9434 18.8125C27.5902 18.7312 27.3892 18.6572 27.1875 18.3379C27.1224 17.8822 27.1193 17.697 27.3633 17.3066C27.7798 17.0401 28.1121 17.0393 28.5938 17.1191Z"
            fill="#573FE7" />
    </g>
    <defs>
        <clipPath id="clip0_88_2420">
            <rect width="48" height="48" fill="white" transform="translate(0 0.337891)" />
        </clipPath>
    </defs>
</svg>