<svg width="48" height="49" viewBox="0 0 48 49" fill="none" xmlns="http://www.w3.org/2000/svg">
    <g clipPath="url(#clip0_88_2396)">
        <path
            d="M1.12956 0.838457C1.31217 0.837637 1.31217 0.837637 1.49847 0.8368C1.63486 0.837141 1.77125 0.837499 1.90763 0.837874C2.05151 0.837591 2.19539 0.837227 2.33928 0.836787C2.73612 0.835818 3.13296 0.836029 3.52981 0.836429C3.95722 0.836659 4.38462 0.835816 4.81203 0.835113C5.6499 0.833915 6.48777 0.83375 7.32565 0.833969C8.00633 0.834136 8.68701 0.833973 9.36769 0.833573C9.51276 0.83349 9.51276 0.83349 9.66076 0.833404C9.8572 0.833291 10.0536 0.833177 10.2501 0.833063C12.094 0.832042 13.938 0.832246 15.782 0.832818C17.4708 0.833302 19.1597 0.832247 20.8485 0.830465C22.5806 0.828651 24.3127 0.827873 26.0448 0.828226C27.0181 0.828406 27.9913 0.828168 28.9646 0.826847C29.793 0.825733 30.6215 0.825594 31.4499 0.826733C31.873 0.827288 32.296 0.827381 32.7191 0.826264C33.1058 0.825255 33.4925 0.825527 33.8793 0.826851C34.0197 0.827102 34.1601 0.82687 34.3006 0.826126C34.4904 0.825189 34.6803 0.82613 34.8702 0.827183C35.0288 0.827176 35.0288 0.827176 35.1907 0.827168C35.2721 0.838766 35.3535 0.850364 35.4374 0.862314C35.6557 1.18988 35.649 1.32045 35.651 1.70769C35.6525 1.88458 35.6525 1.88458 35.6541 2.06503C35.6544 2.19595 35.6546 2.32686 35.6547 2.45778C35.6556 2.59544 35.6566 2.73311 35.6576 2.87077C35.6602 3.24477 35.6616 3.61877 35.6628 3.99278C35.6643 4.38353 35.6668 4.77428 35.6692 5.16504C35.6736 5.90511 35.677 6.64518 35.6801 7.38526C35.6837 8.22776 35.6883 9.07025 35.6931 9.91274C35.7027 11.6459 35.7111 13.3791 35.7186 15.1123C35.8218 15.1573 35.925 15.2022 36.0313 15.2485C36.1679 15.3081 36.3045 15.3677 36.4412 15.4274C36.543 15.4717 36.543 15.4717 36.6468 15.5169C40.3261 17.1236 43.2683 19.9084 45.2811 23.3623C45.3143 23.4185 45.3475 23.4747 45.3817 23.5326C46.3321 25.1592 46.9268 26.9693 47.3436 28.7998C47.3604 28.8735 47.3772 28.9472 47.3946 29.0232C47.8779 31.2855 47.8697 34.047 47.3436 36.2998C47.3157 36.4241 47.3157 36.4241 47.2872 36.5509C46.9751 37.9127 46.5341 39.2165 46.0311 40.5186C46.1355 40.5154 46.2399 40.5123 46.3475 40.509C46.6874 40.5186 46.6874 40.5186 46.8749 40.6709C47.0007 40.9697 46.962 41.1477 46.8749 41.4561C46.6142 41.7167 46.4599 41.6671 46.0946 41.6673C46.0328 41.6676 45.971 41.6679 45.9073 41.6682C45.6982 41.6689 45.489 41.6684 45.2799 41.6678C45.1293 41.668 44.9786 41.6684 44.828 41.6688C44.4124 41.6698 43.9969 41.6695 43.5814 41.6691C43.1338 41.6689 42.6863 41.6697 42.2387 41.6705C41.4627 41.6716 40.6867 41.6721 39.9106 41.6722C38.7881 41.6723 37.6656 41.6737 36.543 41.6755C34.7213 41.6784 32.8995 41.6806 31.0778 41.6823C30.9687 41.6824 30.8595 41.6825 30.7471 41.6826C29.5298 41.6837 28.3124 41.6847 27.0951 41.6855C26.6538 41.6858 26.2124 41.6861 25.7711 41.6863C25.6078 41.6865 25.6078 41.6865 25.4411 41.6866C23.6267 41.6878 21.8123 41.6901 19.9979 41.6933C18.8779 41.6952 17.758 41.6961 16.638 41.6959C15.8708 41.6958 15.1035 41.6967 14.3363 41.6984C13.8933 41.6993 13.4503 41.6998 13.0072 41.6991C12.6019 41.6984 12.1966 41.699 11.7913 41.7006C11.6444 41.701 11.4976 41.7009 11.3507 41.7003C11.1514 41.6995 10.9523 41.7004 10.753 41.7018C10.6422 41.7018 10.5314 41.7019 10.4173 41.702C10.0931 41.7411 9.91613 41.8243 9.65611 42.0186C9.51595 42.2989 9.5515 42.553 9.56236 42.8623C9.60876 43.0015 9.60876 43.0015 9.65611 43.1436C9.92787 43.2342 10.0995 43.2493 10.3821 43.2498C10.4741 43.2502 10.5661 43.2506 10.661 43.251C10.7623 43.251 10.8637 43.2509 10.9681 43.2509C11.0756 43.2512 11.1831 43.2515 11.2938 43.2519C11.5927 43.2527 11.8915 43.2531 12.1903 43.2534C12.5124 43.2537 12.8345 43.2546 13.1566 43.2555C13.7149 43.2569 14.2732 43.258 14.8315 43.2589C15.6393 43.2602 16.447 43.2621 17.2547 43.2643C18.5659 43.2679 19.877 43.2712 21.1881 43.2741C21.2666 43.2743 21.3451 43.2745 21.426 43.2747C22.5401 43.2772 23.6541 43.2794 24.7682 43.2816C24.8467 43.2817 24.9251 43.2819 25.0059 43.282C25.0843 43.2822 25.1626 43.2823 25.2434 43.2825C26.5493 43.285 27.8552 43.2882 29.1611 43.292C29.9669 43.2943 30.7727 43.2961 31.5784 43.297C32.1305 43.2977 32.6826 43.299 33.2347 43.3009C33.5533 43.302 33.872 43.3028 34.1907 43.3027C34.5359 43.3028 34.8812 43.3041 35.2265 43.3056C35.3275 43.3053 35.4284 43.3051 35.5324 43.3048C35.6249 43.3055 35.7175 43.3061 35.8128 43.3068C35.8925 43.3069 35.9722 43.3071 36.0543 43.3073C36.3122 43.3343 36.5142 43.4126 36.7499 43.5186C36.8849 44.104 36.8849 44.104 36.7232 44.3813C36.314 44.6522 35.8992 44.6017 35.419 44.5981C35.3106 44.5987 35.2023 44.5994 35.0906 44.6C34.7897 44.6015 34.4888 44.6012 34.1879 44.6002C33.8633 44.5996 33.5388 44.6011 33.2143 44.6023C32.5783 44.6043 31.9424 44.6043 31.3065 44.6035C30.7894 44.6029 30.2723 44.603 29.7552 44.6036C29.6816 44.6037 29.608 44.6038 29.5322 44.6039C29.3828 44.6041 29.2333 44.6042 29.0838 44.6044C27.6814 44.606 26.2789 44.6052 24.8765 44.6036C23.5943 44.6022 22.3122 44.6036 21.0301 44.6063C19.7132 44.609 18.3964 44.6101 17.0796 44.6092C16.9305 44.6091 16.7814 44.609 16.6323 44.6089C16.5589 44.6088 16.4856 44.6088 16.41 44.6088C15.894 44.6086 15.3781 44.6095 14.8621 44.6108C14.2325 44.6125 13.603 44.6125 12.9734 44.6103C12.6524 44.6093 12.3314 44.609 12.0104 44.6107C11.6618 44.6122 11.3133 44.6108 10.9646 44.6087C10.864 44.6098 10.7634 44.6109 10.6597 44.6121C9.88546 44.6025 9.24189 44.4082 8.67759 43.8584C8.28408 43.1973 8.1446 42.6685 8.28721 41.9149C8.46873 41.3055 8.9156 40.9281 9.44748 40.605C9.70618 40.4978 9.90527 40.4973 10.1849 40.5003C10.2852 40.5009 10.3855 40.5015 10.4889 40.5021C10.593 40.5037 10.6972 40.5052 10.8045 40.5068C10.9102 40.5077 11.0158 40.5085 11.1246 40.5094C11.3851 40.5116 11.6456 40.5147 11.9061 40.5186C11.8672 40.4147 11.8672 40.4147 11.8275 40.3088C10.9666 37.9975 10.359 35.7839 10.2479 33.3057C10.2433 33.2056 10.2388 33.1056 10.2341 33.0025C10.2305 32.9064 10.227 32.8103 10.2234 32.7113C10.2201 32.626 10.2169 32.5407 10.2136 32.4528C10.2199 32.1046 10.2674 31.7702 10.3124 31.4248C10.1948 31.4254 10.0772 31.4261 9.95604 31.4267C8.84834 31.4324 7.74064 31.4366 6.63293 31.4394C6.06343 31.4409 5.49395 31.4428 4.92446 31.446C4.37495 31.4491 3.82545 31.4508 3.27593 31.4515C3.0662 31.452 2.85647 31.453 2.64674 31.4545C2.35316 31.4566 2.05962 31.4569 1.76602 31.4567C1.63574 31.4583 1.63574 31.4583 1.50283 31.4598C1.42251 31.4594 1.3422 31.459 1.25945 31.4586C1.19005 31.4589 1.12066 31.4592 1.04916 31.4594C0.768195 31.4121 0.602138 31.3151 0.374858 31.1436C0.316424 30.9159 0.316424 30.9159 0.316655 30.6395C0.315606 30.5342 0.314557 30.4289 0.313477 30.3205C0.314714 30.2043 0.315952 30.0882 0.317227 29.9685C0.316694 29.8455 0.316161 29.7225 0.315612 29.5958C0.314196 29.2537 0.315716 28.9116 0.317703 28.5695C0.319338 28.2008 0.318277 27.8321 0.317547 27.4634C0.316545 26.7409 0.318044 26.0184 0.320372 25.2959C0.322986 24.4553 0.323117 23.6146 0.323133 22.7739C0.323244 21.2743 0.325588 19.7748 0.329196 18.2752C0.332698 16.8188 0.334689 15.3624 0.334963 13.9059C0.334981 13.8162 0.334998 13.7265 0.335015 13.6341C0.335032 13.5445 0.335049 13.455 0.335066 13.3627C0.335101 13.1824 0.335135 13.0021 0.335171 12.8219C0.335188 12.733 0.335206 12.644 0.335224 12.5524C0.335558 11.1663 0.337288 9.78016 0.339155 8.39402C0.339814 7.89093 0.340262 7.38784 0.340557 6.88474C0.34103 6.08689 0.342097 5.28904 0.344429 4.49119C0.345484 4.12642 0.346242 3.76166 0.346198 3.3969C0.346164 3.00224 0.347578 2.6076 0.349156 2.21294C0.348929 2.09659 0.348703 1.98023 0.348469 1.86035C0.349132 1.75532 0.349794 1.6503 0.350477 1.54209C0.35066 1.45089 0.350843 1.3597 0.351031 1.26574C0.404062 0.785151 0.726699 0.838767 1.12956 0.838457ZM1.49986 1.98731C1.49986 3.68888 1.49986 5.39044 1.49986 7.14356C12.3899 7.14356 23.2799 7.14356 34.4999 7.14356C34.4999 5.442 34.4999 3.74044 34.4999 1.98731C23.6099 1.98731 12.7199 1.98731 1.49986 1.98731ZM1.49986 8.36231C1.49986 15.5708 1.49986 22.7792 1.49986 30.2061C4.43892 30.2061 7.37798 30.2061 10.4061 30.2061C10.7249 28.996 10.7249 28.996 10.8749 27.7686C10.7504 27.7674 10.7504 27.7674 10.6234 27.7663C9.84259 27.759 9.06178 27.7508 8.28097 27.7416C7.87952 27.7369 7.47807 27.7326 7.07661 27.729C6.68939 27.7256 6.30219 27.7212 5.91498 27.7162C5.76704 27.7145 5.61909 27.7131 5.47114 27.712C5.26438 27.7104 5.05766 27.7077 4.85092 27.7047C4.73309 27.7035 4.61525 27.7022 4.49385 27.7009C4.21861 27.6748 4.21861 27.6748 4.03111 27.4873C4.00751 27.2085 4.00751 27.2085 4.0073 26.8432C4.00701 26.7762 4.00671 26.7091 4.00641 26.6401C4.00566 26.4144 4.00626 26.1887 4.00685 25.963C4.00659 25.8016 4.00626 25.6402 4.00585 25.4789C4.00499 25.0398 4.00533 24.6007 4.00592 24.1616C4.00639 23.7028 4.00596 23.2441 4.00566 22.7854C4.00532 22.0149 4.00577 21.2444 4.00666 20.474C4.00768 19.5822 4.00735 18.6904 4.00632 17.7986C4.00547 17.034 4.00535 16.2695 4.00584 15.5049C4.00613 15.0478 4.00617 14.5907 4.00555 14.1335C4.00501 13.7038 4.00538 13.2742 4.00647 12.8445C4.00672 12.6864 4.00665 12.5284 4.00623 12.3703C4.00572 12.1553 4.00636 11.9403 4.0073 11.7252C4.00737 11.6046 4.00744 11.4841 4.00751 11.3598C4.03111 11.0811 4.03111 11.0811 4.21861 10.8936C4.41841 10.87 4.41841 10.87 4.67161 10.8697C4.76788 10.8692 4.86415 10.8686 4.96333 10.8681C5.0699 10.8684 5.17647 10.8688 5.28627 10.8691C5.45514 10.8686 5.45514 10.8686 5.62743 10.868C5.9409 10.8672 6.25436 10.8673 6.56784 10.8677C6.90552 10.8679 7.2432 10.8671 7.58088 10.8664C8.24279 10.8652 8.9047 10.865 9.56661 10.8652C10.1044 10.8654 10.6421 10.8652 11.1799 10.8648C11.2563 10.8648 11.3327 10.8647 11.4114 10.8647C11.5666 10.8645 11.7219 10.8644 11.8771 10.8643C13.334 10.8633 14.7909 10.8635 16.2477 10.8641C17.5819 10.8646 18.9161 10.8635 20.2503 10.8617C21.6188 10.8599 22.9873 10.8591 24.3559 10.8595C25.1248 10.8597 25.8937 10.8594 26.6626 10.8581C27.317 10.857 27.9715 10.8568 28.626 10.858C28.9602 10.8585 29.2944 10.8586 29.6286 10.8575C29.9902 10.8563 30.3518 10.8573 30.7134 10.8585C30.82 10.8578 30.9266 10.8571 31.0364 10.8564C31.1327 10.8571 31.2289 10.8577 31.3281 10.8584C31.4117 10.8584 31.4952 10.8584 31.5813 10.8584C31.6472 10.87 31.7132 10.8816 31.7811 10.8936C32.0034 11.2269 32.0009 11.4729 32.0074 11.8585C32.0101 11.9578 32.0101 11.9578 32.0129 12.0591C32.0185 12.2702 32.0229 12.4813 32.0272 12.6924C32.0308 12.8356 32.0344 12.9789 32.0382 13.1221C32.0473 13.473 32.0548 13.8239 32.0624 14.1748C32.8667 14.3604 33.6711 14.5461 34.4999 14.7373C34.4999 12.6336 34.4999 10.5298 34.4999 8.36231C23.6099 8.36231 12.7199 8.36231 1.49986 8.36231ZM5.15611 11.9248C5.15611 16.782 5.15611 21.6392 5.15611 26.6436C7.16705 26.6436 9.17798 26.6436 11.2499 26.6436C11.7139 25.5298 11.7139 25.5298 12.1874 24.3936C14.4509 19.831 18.3587 16.4827 23.1561 14.8311C24.7781 14.3139 26.5103 13.9666 28.216 13.9782C28.2918 13.9783 28.3676 13.9784 28.4457 13.9786C28.6845 13.9791 28.9232 13.9803 29.162 13.9815C29.3252 13.9819 29.4885 13.9824 29.6518 13.9827C30.0491 13.9837 30.4463 13.9855 30.8436 13.9873C30.8436 13.3067 30.8436 12.6261 30.8436 11.9248C22.3667 11.9248 13.8899 11.9248 5.15611 11.9248ZM28.1942 15.0302C23.7833 15.2956 19.8705 17.0426 16.6874 20.0811C16.6074 20.1561 16.5274 20.2312 16.4449 20.3085C13.3818 23.2605 11.5055 27.6544 11.4216 31.8998C11.4134 33.0665 11.4262 34.2109 11.6249 35.3623C11.6364 35.4309 11.648 35.4995 11.66 35.5702C12.0734 38.1691 12.0734 38.1691 13.2186 40.4248C13.3862 40.434 13.5542 40.4364 13.7221 40.4363C13.832 40.4365 13.9419 40.4367 14.0552 40.4369C14.2386 40.4365 14.2386 40.4365 14.4257 40.4361C14.5558 40.4361 14.6858 40.4362 14.8158 40.4363C15.1747 40.4365 15.5337 40.4362 15.8926 40.4357C16.279 40.4353 16.6655 40.4354 17.0519 40.4355C17.722 40.4355 18.3921 40.4352 19.0622 40.4347C20.031 40.434 20.9999 40.4337 21.9687 40.4336C23.5405 40.4334 25.1122 40.4328 26.6839 40.4319C28.2111 40.431 29.7383 40.4304 31.2655 40.43C31.4066 40.4299 31.4066 40.4299 31.5506 40.4299C32.0224 40.4298 32.4943 40.4296 32.9662 40.4295C36.8837 40.4286 40.8011 40.4269 44.7186 40.4248C44.7929 40.2641 44.8668 40.1032 44.9407 39.9423C44.9819 39.8528 45.0231 39.7632 45.0656 39.6709C45.6662 38.3027 46.0696 36.8344 46.3124 35.3623C46.3232 35.2986 46.334 35.2348 46.3452 35.1692C47.065 30.7641 45.8859 26.103 43.3254 22.4724C42.8578 21.8309 42.3505 21.2268 41.8124 20.6436C41.7622 20.5892 41.7121 20.5348 41.6605 20.4788C40.4979 19.2341 39.1688 18.2021 37.6874 17.3623C37.6315 17.3295 37.5756 17.2967 37.518 17.2629C35.0766 15.8367 32.3359 15.1731 29.5311 15.0186C29.3794 15.01 29.3794 15.01 29.2246 15.0014C28.8795 14.993 28.5387 15.0113 28.1942 15.0302Z"
            fill="#573FE7" />
        <path
            d="M28.2191 16.98C31.8944 16.8525 35.5253 17.893 38.4374 20.1748C38.5186 20.2369 38.5998 20.2991 38.6835 20.363C41.9431 22.9309 43.969 26.6907 44.4927 30.7931C44.733 33.1449 44.6546 36.2588 43.4062 38.3623C43.0973 38.5682 43.0063 38.5734 42.6477 38.5742C42.5484 38.5749 42.4492 38.5755 42.3469 38.5762C42.2374 38.576 42.128 38.5758 42.0152 38.5755C41.8992 38.576 41.7832 38.5765 41.6638 38.577C41.3412 38.5782 41.0187 38.5785 40.6962 38.5784C40.3486 38.5786 40.001 38.5798 39.6534 38.5809C38.8932 38.583 38.1329 38.5838 37.3727 38.5843C36.8982 38.5846 36.4237 38.5852 35.9493 38.5859C34.6362 38.5877 33.3232 38.5892 32.0101 38.5895C31.926 38.5895 31.842 38.5895 31.7554 38.5896C31.585 38.5896 31.4146 38.5896 31.2442 38.5897C31.1596 38.5897 31.075 38.5897 30.9878 38.5897C30.9031 38.5897 30.8184 38.5897 30.7312 38.5898C29.358 38.5901 27.9849 38.5926 26.6117 38.5961C25.2027 38.5997 23.7937 38.6015 22.3847 38.6015C21.5933 38.6016 20.8019 38.6024 20.0104 38.6051C19.3367 38.6074 18.663 38.6081 17.9892 38.6067C17.6453 38.606 17.3014 38.6061 16.9575 38.6082C16.5851 38.6105 16.2127 38.6092 15.8403 38.6074C15.731 38.6087 15.6218 38.6099 15.5092 38.6112C14.7797 38.6035 14.7797 38.6035 14.4689 38.33C12.8521 35.1169 13.0997 30.8545 14.1727 27.5305C14.9083 25.3332 16.1288 23.4463 17.7187 21.7686C17.7976 21.6847 17.8765 21.6008 17.9578 21.5144C20.6067 18.7774 24.4195 17.1281 28.2191 16.98ZM26.994 18.3291C26.8627 18.3479 26.8627 18.3479 26.7286 18.3672C25.6625 18.509 25.6625 18.509 24.6562 18.8623C24.6765 18.9423 24.6765 18.9423 24.6972 19.0238C24.8076 19.4832 24.8637 19.8902 24.8437 20.3623C24.3163 20.5615 24.3163 20.5615 23.9999 20.4561C23.8699 20.2008 23.8699 20.2008 23.748 19.8877C23.707 19.7841 23.666 19.6806 23.6238 19.5739C23.5932 19.4937 23.5627 19.4136 23.5312 19.3311C23.0729 19.3883 22.7133 19.5845 22.3124 19.7998C22.2428 19.8368 22.1732 19.8739 22.1015 19.912C21.4497 20.2659 20.847 20.673 20.2499 21.1123C20.3542 21.3952 20.4331 21.5762 20.6366 21.8037C20.8634 22.1212 20.8491 22.3243 20.8124 22.7061C20.7187 22.7998 20.7187 22.7998 20.5249 22.809C20.4477 22.8079 20.3705 22.8068 20.2909 22.8057C20.2135 22.8048 20.136 22.804 20.0562 22.8031C19.9964 22.802 19.9365 22.8009 19.8749 22.7998C19.849 22.7433 19.8232 22.6867 19.7965 22.6284C19.6495 22.3542 19.4432 22.1688 19.2187 21.9561C18.3619 22.7763 17.438 23.7133 16.8749 24.7686C17.0132 25.1836 17.2406 25.2293 17.6249 25.4248C17.6868 25.4248 17.7487 25.4248 17.8124 25.4248C17.8149 25.5635 17.8167 25.7022 17.8183 25.8408C17.8194 25.9181 17.8204 25.9953 17.8216 26.0748C17.8124 26.2686 17.8124 26.2686 17.7187 26.3623C17.142 26.42 16.8797 26.2787 16.4062 25.9873C16.3133 25.9873 16.2205 25.9873 16.1249 25.9873C15.2829 27.7055 15.2829 27.7055 14.9062 29.5498C14.993 29.569 15.0799 29.5882 15.1695 29.608C15.2817 29.6333 15.394 29.6586 15.5097 29.6846C15.6217 29.7096 15.7337 29.7346 15.8491 29.7604C16.1249 29.8311 16.1249 29.8311 16.2187 29.9248C16.2362 30.2471 16.2362 30.2471 16.2187 30.5811C16.1258 30.6739 16.1258 30.6739 16.0312 30.7686C15.7257 30.7664 15.7257 30.7664 15.3632 30.7334C15.2431 30.723 15.1229 30.7126 14.9992 30.7019C14.9066 30.693 14.814 30.684 14.7187 30.6748C14.4717 31.9825 14.4717 33.2109 14.7187 34.5186C14.8032 34.5033 14.8878 34.4881 14.975 34.4724C15.8532 34.3359 15.8532 34.3359 16.2187 34.5186C16.2187 34.7661 16.2187 35.0136 16.2187 35.2686C15.7945 35.4601 15.3596 35.5507 14.9062 35.6436C14.9664 35.8897 15.027 36.1358 15.0878 36.3818C15.1134 36.4868 15.1134 36.4868 15.1396 36.5939C15.2298 36.972 15.2298 36.972 15.3749 37.3311C24.3468 37.3311 33.3187 37.3311 42.5624 37.3311C42.935 36.3109 42.935 36.3109 43.0312 35.6436C42.598 35.5198 42.1649 35.3961 41.7187 35.2686C41.6249 34.7998 41.6249 34.7998 41.8124 34.4248C42.2765 34.4248 42.7405 34.4248 43.2187 34.4248C43.613 33.2417 43.4008 31.8797 43.2187 30.6748C43.135 30.6859 43.0514 30.6971 42.9652 30.7085C42.8006 30.7266 42.8006 30.7266 42.6327 30.7451C42.4696 30.7647 42.4696 30.7647 42.3031 30.7847C41.9999 30.7686 41.9999 30.7686 41.7725 30.5979C41.6249 30.3936 41.6249 30.3936 41.6308 30.1475C41.7187 29.9248 41.7187 29.9248 41.9999 29.7373C42.1763 29.696 42.3543 29.6613 42.5331 29.6318C42.6263 29.6161 42.7195 29.6004 42.8155 29.5842C42.8866 29.5729 42.9578 29.5615 43.0312 29.5498C42.743 28.26 42.3408 27.0661 41.7187 25.8936C41.6654 25.9274 41.6121 25.9612 41.5572 25.9961C41.0818 26.2818 40.7737 26.4214 40.2187 26.3623C40.0124 25.858 40.0124 25.858 40.0927 25.6094C40.2503 25.3784 40.4047 25.2943 40.6522 25.167C40.7289 25.1269 40.8055 25.0868 40.8844 25.0454C40.9432 25.0159 41.0019 24.9864 41.0624 24.9561C40.9218 24.5279 40.6796 24.2068 40.4003 23.8604C40.3545 23.8031 40.3088 23.7459 40.2616 23.6869C39.5367 22.6874 39.5367 22.6874 38.5312 22.0498C38.4914 22.104 38.4516 22.1581 38.4107 22.2139C37.9559 22.7895 37.9559 22.7895 37.5058 22.8467C37.411 22.8312 37.3163 22.8158 37.2187 22.7998C37.1073 22.5479 37.1073 22.5479 37.0312 22.2373C37.1553 21.9545 37.3226 21.7561 37.5175 21.5166C37.7067 21.3211 37.7067 21.3211 37.6874 21.1123C37.4854 20.9582 37.2845 20.8173 37.0722 20.6787C37.0094 20.6374 36.9466 20.5961 36.882 20.5535C36.4379 20.2657 35.9852 19.9982 35.5194 19.7471C35.4618 19.7158 35.4043 19.6845 35.3449 19.6522C35.0345 19.4893 34.754 19.379 34.4062 19.3311C34.3433 19.4832 34.2808 19.6356 34.2187 19.7881C34.1664 19.9154 34.1664 19.9154 34.1132 20.0452C34.0204 20.2582 34.0204 20.2582 34.0312 20.4561C33.5235 20.5715 33.5235 20.5715 33.246 20.4619C33.1706 20.4126 33.1706 20.4126 33.0937 20.3623C33.0777 19.8926 33.0834 19.5761 33.2812 19.1436C33.2812 19.0508 33.2812 18.9579 33.2812 18.8623C32.5039 18.605 31.7408 18.4372 30.9315 18.3233C30.8468 18.3113 30.7621 18.2994 30.6748 18.2871C30.2896 18.2356 29.9203 18.2004 29.5312 18.2061C29.5243 18.3449 29.5243 18.3449 29.5172 18.4866C29.5102 18.6067 29.5032 18.7268 29.496 18.8506C29.4895 18.9702 29.4829 19.0899 29.4762 19.2131C29.4374 19.5186 29.4374 19.5186 29.2499 19.7061C28.9687 19.7295 28.9687 19.7295 28.6874 19.7061C28.4195 19.4381 28.4617 19.2236 28.4413 18.8506C28.4308 18.6704 28.4308 18.6704 28.4201 18.4866C28.4155 18.394 28.4109 18.3014 28.4062 18.2061C27.926 18.1986 27.4684 18.2608 26.994 18.3291Z"
            fill="#573FE7" />
        <path
            d="M35.2475 23.7845C35.4364 23.7898 35.6247 23.8102 35.8126 23.8311C36.0377 24.1687 36.0566 24.3793 36.0001 24.7686C35.8888 25.1845 35.7476 25.589 35.6057 25.9954C35.5642 26.1164 35.5228 26.2374 35.4816 26.3585C35.3941 26.6145 35.306 26.8703 35.2174 27.1259C35.0797 27.5234 34.9434 27.9213 34.8074 28.3193C34.6294 28.8397 34.451 29.3599 34.2722 29.88C34.0031 30.6625 33.7356 31.4455 33.4725 32.23C33.4127 32.4077 33.3522 32.5851 33.2916 32.7625C33.0835 33.3825 32.9163 33.9987 32.7831 34.6392C32.5869 35.4158 31.9518 35.8977 31.3001 36.2983C30.7303 36.6083 29.9751 36.5697 29.3438 36.4873C28.5221 36.2314 27.9619 35.8038 27.5399 35.0646C27.199 34.3463 27.1486 33.5438 27.3432 32.7736C27.606 32.1149 28.0846 31.6032 28.629 31.1611C28.9989 30.856 29.2785 30.4917 29.5764 30.1178C29.8318 29.8077 30.1002 29.5145 30.3751 29.2217C30.7931 28.7754 31.1849 28.3156 31.5678 27.8385C31.8433 27.5064 32.1359 27.1916 32.4297 26.8759C32.7083 26.5748 32.9719 26.2661 33.2286 25.9463C33.5995 25.4848 33.9938 25.0506 34.3995 24.6199C34.5916 24.4154 34.7732 24.218 34.9311 23.9856C35.0626 23.8311 35.0626 23.8311 35.2475 23.7845ZM33.7501 27.2061C33.5747 27.3852 33.4038 27.5662 33.2344 27.751C33.158 27.8341 33.158 27.8341 33.0799 27.9189C32.7027 28.3321 32.3471 28.7592 31.9974 29.196C31.7085 29.5437 31.4021 29.8735 31.0903 30.2006C30.8672 30.438 30.6877 30.6536 30.5626 30.9561C30.6305 30.9777 30.6984 30.9993 30.7684 31.0216C31.3307 31.2113 31.7215 31.3984 32.1563 31.7998C32.2182 31.7998 32.2801 31.7998 32.3438 31.7998C32.5277 31.2663 32.7112 30.7326 32.8943 30.1988C32.9566 30.0174 33.0189 29.8361 33.0814 29.6549C33.1715 29.3934 33.2613 29.1318 33.3509 28.8701C33.3786 28.7899 33.4064 28.7097 33.435 28.6271C33.5954 28.1573 33.7303 27.6894 33.8438 27.2061C33.8129 27.2061 33.7819 27.2061 33.7501 27.2061ZM28.8048 32.6318C28.4369 33.1428 28.3631 33.4756 28.4444 34.0967C28.5515 34.5475 28.7665 34.8443 29.1435 35.1107C29.5577 35.3415 29.8965 35.4232 30.3751 35.3623C30.9398 35.1939 31.29 34.9219 31.5938 34.4248C31.7766 33.9935 31.8284 33.63 31.6759 33.1826C31.4835 32.7602 31.2647 32.4587 30.879 32.1924C30.0883 31.9142 29.3922 32.0177 28.8048 32.6318Z"
            fill="#573FE7" />
        <path
            d="M16.4942 46.2122C16.5608 46.2118 16.6274 46.2114 16.696 46.2109C16.9197 46.2098 17.1433 46.2099 17.367 46.2101C17.5272 46.2095 17.6873 46.2089 17.8475 46.2082C18.2829 46.2065 18.7183 46.2061 19.1538 46.2059C19.517 46.2058 19.8802 46.2051 20.2434 46.2044C21.1002 46.2029 21.9569 46.2024 22.8137 46.2026C23.6982 46.2027 24.5827 46.2007 25.4671 46.1977C26.226 46.1953 26.9848 46.1943 27.7437 46.1944C28.1971 46.1944 28.6506 46.1939 29.1041 46.1919C29.5304 46.1901 29.9568 46.1901 30.3832 46.1915C30.5398 46.1916 30.6964 46.1912 30.853 46.1901C31.0666 46.1886 31.28 46.1895 31.4936 46.1909C31.673 46.1908 31.673 46.1908 31.856 46.1906C32.2088 46.2455 32.3203 46.3292 32.5311 46.6123C32.5761 46.876 32.5788 47.0097 32.4291 47.2337C32.1558 47.4298 31.9248 47.3977 31.5915 47.398C31.5241 47.3985 31.4567 47.3989 31.3872 47.3993C31.1607 47.4005 30.9343 47.3996 30.7078 47.3987C30.5456 47.3991 30.3835 47.3996 30.2213 47.4002C29.7805 47.4015 29.3396 47.401 28.8988 47.4001C28.438 47.3994 27.9772 47.4 27.5163 47.4005C26.7424 47.401 25.9685 47.4003 25.1945 47.399C24.2991 47.3974 23.4036 47.3979 22.5082 47.3995C21.7401 47.4008 20.972 47.4009 20.2039 47.4002C19.7449 47.3998 19.2858 47.3997 18.8267 47.4006C18.3952 47.4014 17.9637 47.4009 17.5322 47.3993C17.3735 47.3989 17.2149 47.399 17.0563 47.3996C16.8402 47.4004 16.6243 47.3994 16.4082 47.398C16.2871 47.3979 16.1661 47.3978 16.0414 47.3977C15.7499 47.3623 15.7499 47.3623 15.5674 47.2403C15.4686 47.081 15.4686 47.081 15.4803 46.7471C15.6274 46.1692 15.9669 46.2136 16.4942 46.2122Z"
            fill="#573FE7" />
        <path
            d="M1.78544 40.4928C1.93327 40.4915 1.93327 40.4915 2.08409 40.4901C2.19093 40.4902 2.29776 40.4903 2.40784 40.4903C2.51719 40.4899 2.62655 40.4895 2.73921 40.4891C2.97083 40.4886 3.20245 40.4885 3.43407 40.489C3.78923 40.4892 4.14431 40.4871 4.49945 40.4847C4.72412 40.4845 4.94879 40.4844 5.17346 40.4845C5.33343 40.4832 5.33343 40.4832 5.49663 40.4819C5.64491 40.4827 5.64491 40.4827 5.79618 40.4836C5.88326 40.4836 5.97034 40.4835 6.06006 40.4835C6.28125 40.5185 6.28125 40.5185 6.45292 40.6405C6.5625 40.7998 6.5625 40.7998 6.55078 41.1338C6.46875 41.456 6.46875 41.456 6.1875 41.6435C5.97469 41.6686 5.97469 41.6686 5.72262 41.6708C5.58088 41.6726 5.58088 41.6726 5.43628 41.6744C5.28334 41.6747 5.28334 41.6747 5.12732 41.675C4.97006 41.676 4.97006 41.676 4.80963 41.6769C4.58779 41.6779 4.36595 41.6783 4.14411 41.6783C3.80438 41.6787 3.46477 41.6821 3.12506 41.6857C2.90967 41.6862 2.69428 41.6866 2.47888 41.6868C2.32623 41.6888 2.32623 41.6888 2.1705 41.6908C2.07571 41.6903 1.98092 41.6897 1.88326 41.6891C1.80001 41.6894 1.71675 41.6896 1.63097 41.6899C1.33099 41.628 1.21643 41.508 1.03125 41.2685C1.05482 40.6794 1.20574 40.4957 1.78544 40.4928Z"
            fill="#573FE7" />
        <path
            d="M12.5627 3.48731C12.8563 3.63955 13.0543 3.76881 13.2541 4.03223C13.3824 4.48111 13.3676 4.79326 13.1428 5.2041C12.9291 5.46671 12.7828 5.62515 12.4404 5.67505C12.044 5.68108 11.7891 5.68298 11.4377 5.48535C11.1384 5.13921 11.0404 4.87934 11.0686 4.42481C11.1305 4.02536 11.3101 3.83474 11.6252 3.58106C11.9266 3.43035 12.2358 3.44295 12.5627 3.48731Z"
            fill="#573FE7" />
        <path
            d="M8.8125 3.48731C9.14777 3.66672 9.34665 3.87102 9.46875 4.23731C9.50355 4.70709 9.4798 4.98649 9.1875 5.36231C9.00826 5.56223 8.88347 5.63384 8.61731 5.67029C8.16917 5.68739 7.85898 5.65602 7.5 5.36231C7.29432 5.05379 7.24748 4.88487 7.21875 4.51856C7.31172 4.09595 7.45105 3.85966 7.78125 3.58106C8.10815 3.41761 8.45587 3.43286 8.8125 3.48731Z"
            fill="#573FE7" />
        <path
            d="M4.96898 3.4873C5.25723 3.64691 5.4758 3.8447 5.62523 4.14355C5.67502 4.49925 5.705 4.84324 5.52708 5.16455C5.30966 5.42801 5.13024 5.62097 4.78587 5.66918C4.38335 5.68698 4.11624 5.68426 3.7971 5.42089C3.45628 5.06303 3.43219 4.8412 3.43528 4.36181C3.49199 3.99448 3.6723 3.83384 3.93773 3.58105C4.26439 3.41772 4.61262 3.43229 4.96898 3.4873Z"
            fill="#573FE7" />
        <path
            d="M39.5625 43.4248C39.75 43.706 39.75 43.706 39.7324 44.04C39.6562 44.3623 39.6562 44.3623 39.375 44.5498C39.041 44.5381 39.041 44.5381 38.7187 44.456C38.5329 44.2393 38.5291 44.124 38.5429 43.8408C38.7312 43.3164 39.0607 43.2721 39.5625 43.4248Z"
            fill="#573FE7" />
    </g>
    <defs>
        <clipPath id="clip0_88_2396">
            <rect width="48" height="48" fill="white" transform="translate(0 0.112305)" />
        </clipPath>
    </defs>
</svg>