<svg width="185" height="49" viewBox="0 0 185 49" fill="none" xmlns="http://www.w3.org/2000/svg">
<path d="M38.0281 26.4206C32.4738 23.2138 30.5707 16.1114 33.7775 10.5571C36.9843 5.00271 44.0867 3.09964 49.6411 6.30646L38.0281 26.4206Z" fill="white"/>
<path d="M5.82563 14.7462L19.4405 38.3167C22.0555 42.8437 28.5899 42.8437 31.2048 38.3167L34.2651 33.0188L35.1874 31.4428C32.5453 31.4428 30.1043 30.0316 28.786 27.7418L17.5158 8.1669C16.2971 6.05019 14.0406 4.74561 11.5981 4.74561C6.46579 4.74561 3.25855 10.302 5.82563 14.7462Z" fill="white"/>
<path d="M65.3223 16.7896C66.3469 16.7896 67.07 17.7941 66.7447 18.7658L62.2338 32.242C62.0291 32.8536 61.4563 33.2659 60.8113 33.2659H58.5185C57.8729 33.2659 57.2997 32.8527 57.0955 32.2402L52.6034 18.764C52.2797 17.7927 53.0026 16.7896 54.0265 16.7896H55.0446C55.7106 16.7896 56.2969 17.2288 56.4841 17.868L58.845 25.9277C58.9219 26.1585 59.0142 26.5123 59.1219 26.9892C59.2296 27.4507 59.3373 27.9353 59.445 28.443C59.5681 28.9353 59.645 29.343 59.6758 29.666C59.7219 29.343 59.7911 28.9353 59.8834 28.443C59.9911 27.9507 60.0988 27.4738 60.2065 27.0123C60.3142 26.5354 60.4065 26.1816 60.4834 25.9508L62.8876 17.8623C63.0767 17.226 63.6616 16.7896 64.3254 16.7896H65.3223Z" fill="white"/>
<path d="M74.0842 20.3664C75.2841 20.3664 76.3149 20.5895 77.1764 21.0356C78.0532 21.4664 78.7224 22.1125 79.184 22.974C79.6609 23.8201 79.8993 24.8739 79.8993 26.1354V26.4353C79.8993 27.2638 79.2277 27.9353 78.3993 27.9353H71.892C71.9227 28.7661 72.1919 29.4276 72.6996 29.9199C73.2073 30.4122 73.9303 30.6583 74.8688 30.6583C75.6841 30.6583 76.4225 30.5814 77.084 30.4275C77.1157 30.4202 77.1475 30.4126 77.1793 30.4048C78.12 30.1742 79.1378 30.8094 79.1378 31.7779V31.7779C79.1378 32.2672 78.87 32.7257 78.4139 32.9028C78.0114 33.0592 77.5912 33.1802 77.1533 33.2659C76.4456 33.4197 75.5764 33.4966 74.5457 33.4966C73.2688 33.4966 72.1304 33.2659 71.1305 32.8044C70.1459 32.3428 69.369 31.6352 68.7998 30.6814C68.246 29.7122 67.969 28.4892 67.969 27.0123C67.969 25.5047 68.2229 24.2663 68.7306 23.2971C69.2382 22.3125 69.9536 21.5818 70.8766 21.1048C71.7997 20.6126 72.8688 20.3664 74.0842 20.3664ZM74.1534 23.0663C73.5534 23.0663 73.0534 23.2586 72.6535 23.6432C72.2689 24.0124 72.0381 24.6047 71.9612 25.4201H76.3225C76.3225 24.9739 76.2379 24.5739 76.0687 24.2201C75.9149 23.8663 75.6764 23.5894 75.3534 23.3894C75.0303 23.174 74.6303 23.0663 74.1534 23.0663Z" fill="white"/>
<path d="M89.8806 20.3664C90.0806 20.3664 90.3036 20.3818 90.5498 20.4126V20.4126C90.8819 20.4333 91.1047 20.7297 91.0753 21.0611L90.8509 23.5942C90.8258 23.877 90.556 24.0788 90.2729 24.0586V24.0586C90.0575 24.0278 89.819 24.0124 89.5575 24.0124C89.1883 24.0124 88.8191 24.0586 88.4499 24.1509C88.0806 24.2278 87.7422 24.3739 87.4345 24.5893C87.1268 24.7893 86.8807 25.0816 86.6961 25.4662C86.5115 25.8354 86.4192 26.32 86.4192 26.92V31.7659C86.4192 32.5943 85.7476 33.2659 84.9192 33.2659H84.0193C83.1909 33.2659 82.5193 32.5943 82.5193 31.7659V22.0972C82.5193 21.2688 83.1909 20.5972 84.0193 20.5972H84.322C84.9901 20.5972 85.5776 21.039 85.7631 21.6809L86.05 22.674H86.2115C86.4576 22.2433 86.7653 21.8587 87.1345 21.5202C87.5037 21.1664 87.9191 20.8895 88.3806 20.6895C88.8575 20.4741 89.3575 20.3664 89.8806 20.3664Z" fill="white"/>
<path d="M97.015 20.3664C97.8457 20.3664 98.5534 20.528 99.138 20.851C99.7226 21.1741 100.207 21.6202 100.592 22.1894H100.684L100.754 21.8195C100.887 21.1106 101.507 20.5972 102.228 20.5972H102.807C103.635 20.5972 104.307 21.2688 104.307 22.0972V33.289C104.307 34.4889 104.069 35.4966 103.592 36.3119C103.115 37.1273 102.392 37.7426 101.423 38.158C100.453 38.5887 99.238 38.8041 97.7765 38.8041C96.8227 38.8041 95.9535 38.7503 95.1689 38.6426C94.7293 38.581 94.2971 38.4918 93.8725 38.375C93.2966 38.2165 92.9306 37.6712 92.9306 37.0738V37.0738C92.9306 36.0432 93.9873 35.3431 94.9932 35.5678C95.0749 35.586 95.1565 35.6033 95.2382 35.6196C96.0074 35.7889 96.8535 35.8735 97.7765 35.8735C98.6688 35.8735 99.3303 35.6658 99.761 35.2504C100.207 34.8504 100.43 34.2505 100.43 33.4505V33.1967C100.43 32.9659 100.438 32.7121 100.453 32.4351C100.484 32.1582 100.515 31.889 100.546 31.6275H100.43C100.061 32.2275 99.5918 32.689 99.0226 33.012C98.4534 33.3351 97.7611 33.4966 96.9458 33.4966C95.5151 33.4966 94.3767 32.9274 93.5305 31.789C92.6998 30.6506 92.2844 29.0353 92.2844 26.9431C92.2844 24.8355 92.7152 23.2125 93.5767 22.074C94.4382 20.9356 95.5843 20.3664 97.015 20.3664ZM98.3765 23.4355C97.8996 23.4355 97.4996 23.574 97.1765 23.8509C96.8535 24.1124 96.615 24.5047 96.4612 25.0278C96.3073 25.5508 96.2304 26.2123 96.2304 27.0123C96.2304 28.1969 96.4073 29.0737 96.7612 29.643C97.115 30.1968 97.6688 30.4737 98.4226 30.4737C98.838 30.4737 99.1842 30.4198 99.4611 30.3122C99.7534 30.1891 99.9841 30.0045 100.153 29.7583C100.338 29.4968 100.476 29.1737 100.569 28.7891C100.661 28.4045 100.707 27.943 100.707 27.4046V26.92C100.707 26.1354 100.63 25.4893 100.476 24.9816C100.323 24.4586 100.076 24.074 99.738 23.8278C99.3995 23.5663 98.9457 23.4355 98.3765 23.4355Z" fill="white"/>
<path d="M113.115 20.3664C114.315 20.3664 115.346 20.5895 116.207 21.0356C117.084 21.4664 117.753 22.1125 118.215 22.974C118.692 23.8201 118.93 24.8739 118.93 26.1354V26.4353C118.93 27.2638 118.259 27.9353 117.43 27.9353H110.923C110.954 28.7661 111.223 29.4276 111.73 29.9199C112.238 30.4122 112.961 30.6583 113.9 30.6583C114.715 30.6583 115.453 30.5814 116.115 30.4275C116.147 30.4202 116.178 30.4126 116.21 30.4048C117.151 30.1742 118.169 30.8094 118.169 31.7779V31.7779C118.169 32.2672 117.901 32.7257 117.445 32.9028C117.042 33.0592 116.622 33.1802 116.184 33.2659C115.476 33.4197 114.607 33.4966 113.577 33.4966C112.3 33.4966 111.161 33.2659 110.161 32.8044C109.177 32.3428 108.4 31.6352 107.831 30.6814C107.277 29.7122 107 28.4892 107 27.0123C107 25.5047 107.254 24.2663 107.761 23.2971C108.269 22.3125 108.984 21.5818 109.907 21.1048C110.83 20.6126 111.9 20.3664 113.115 20.3664ZM113.184 23.0663C112.584 23.0663 112.084 23.2586 111.684 23.6432C111.3 24.0124 111.069 24.6047 110.992 25.4201H115.353C115.353 24.9739 115.269 24.5739 115.1 24.2201C114.946 23.8663 114.707 23.5894 114.384 23.3894C114.061 23.174 113.661 23.0663 113.184 23.0663Z" fill="white"/>
<path d="M129.211 17.7588C128.196 17.7588 127.281 17.9357 126.465 18.2896C125.665 18.628 124.988 19.1203 124.435 19.7664C123.881 20.3972 123.458 21.1587 123.165 22.051C122.873 22.9278 122.727 23.9047 122.727 24.9816C122.727 26.4585 122.958 27.7507 123.419 28.8584C123.896 29.9506 124.596 30.7968 125.519 31.3967C126.442 31.9967 127.596 32.2967 128.981 32.2967C129.796 32.2967 130.534 32.2352 131.196 32.1121C131.591 32.0402 131.971 31.9552 132.335 31.8571C132.708 31.7565 133.088 32.0291 133.088 32.4153V32.4153C133.088 32.6495 132.944 32.8607 132.721 32.9343C132.254 33.0889 131.753 33.2149 131.219 33.312C130.542 33.4351 129.75 33.4966 128.842 33.4966C127.181 33.4966 125.788 33.1428 124.665 32.4351C123.558 31.7275 122.719 30.7352 122.15 29.4583C121.596 28.1815 121.319 26.6892 121.319 24.9816C121.319 23.7509 121.496 22.6279 121.85 21.6125C122.204 20.5818 122.719 19.6895 123.396 18.9357C124.073 18.1819 124.896 17.5973 125.865 17.1819C126.85 16.7666 127.973 16.5589 129.234 16.5589C130.034 16.5589 130.796 16.6358 131.519 16.7896C132.034 16.8969 132.519 17.0379 132.974 17.2125C133.299 17.3371 133.435 17.7126 133.292 18.0297V18.0297C133.143 18.3604 132.75 18.498 132.413 18.3635C132.017 18.2054 131.612 18.0808 131.196 17.9896C130.565 17.8358 129.904 17.7588 129.211 17.7588Z" fill="white"/>
<path d="M137.612 32.6082C137.612 32.9714 137.318 33.2659 136.954 33.2659V33.2659C136.591 33.2659 136.297 32.9714 136.297 32.6082V16.3858C136.297 16.0226 136.591 15.7281 136.954 15.7281V15.7281C137.318 15.7281 137.612 16.0226 137.612 16.3858V32.6082Z" fill="white"/>
<path d="M151.951 27.1046C151.951 28.0738 151.828 28.9507 151.582 29.7353C151.352 30.5045 150.998 31.1737 150.521 31.7429C150.059 32.2967 149.482 32.7274 148.79 33.0351C148.113 33.3428 147.329 33.4966 146.436 33.4966C145.59 33.4966 144.829 33.3505 144.152 33.0582C143.475 32.7505 142.898 32.3198 142.421 31.7659C141.96 31.1967 141.598 30.5198 141.337 29.7353C141.09 28.9507 140.967 28.0738 140.967 27.1046C140.967 25.7816 141.19 24.6509 141.637 23.7124C142.083 22.7586 142.721 22.0279 143.552 21.5202C144.383 21.0125 145.375 20.7587 146.529 20.7587C147.713 20.7587 148.705 21.0279 149.505 21.5664C150.305 22.0894 150.913 22.8279 151.328 23.7817C151.744 24.7201 151.951 25.8277 151.951 27.1046ZM142.329 27.1046C142.329 28.1507 142.475 29.0737 142.767 29.8737C143.075 30.6583 143.529 31.2737 144.129 31.7198C144.744 32.1505 145.521 32.3659 146.459 32.3659C147.413 32.3659 148.19 32.1505 148.79 31.7198C149.405 31.2737 149.859 30.6583 150.152 29.8737C150.444 29.0737 150.59 28.1507 150.59 27.1046C150.59 26.0893 150.452 25.1893 150.175 24.4047C149.898 23.6201 149.459 23.0048 148.859 22.5586C148.259 22.1125 147.475 21.8894 146.506 21.8894C145.121 21.8894 144.075 22.351 143.367 23.274C142.675 24.197 142.329 25.4739 142.329 27.1046Z" fill="white"/>
<path d="M164.305 20.9895C164.668 20.9895 164.963 21.2839 164.963 21.6471V32.7089C164.963 33.0165 164.713 33.2659 164.406 33.2659V33.2659C164.119 33.2659 163.88 33.0487 163.852 32.7638L163.694 31.166H163.624C163.409 31.6121 163.101 32.0121 162.701 32.3659C162.317 32.7198 161.855 32.9967 161.317 33.1967C160.778 33.3966 160.155 33.4966 159.448 33.4966C158.509 33.4966 157.717 33.3351 157.071 33.012C156.425 32.6736 155.94 32.1736 155.617 31.5121C155.294 30.8506 155.132 30.0199 155.132 29.0199V21.6471C155.132 21.2839 155.427 20.9895 155.79 20.9895V20.9895C156.153 20.9895 156.448 21.2839 156.448 21.6471V28.9045C156.448 30.0737 156.709 30.9429 157.232 31.5121C157.771 32.0813 158.563 32.3659 159.609 32.3659C160.517 32.3659 161.263 32.189 161.847 31.8352C162.447 31.4813 162.894 30.9583 163.186 30.266C163.494 29.5737 163.647 28.7122 163.647 27.6815V21.6471C163.647 21.2839 163.942 20.9895 164.305 20.9895V20.9895Z" fill="white"/>
<path d="M173.448 33.4966C171.802 33.4966 170.533 32.9659 169.64 31.9044C168.763 30.8429 168.325 29.2891 168.325 27.2431C168.325 25.1355 168.786 23.5278 169.71 22.4202C170.648 21.3125 171.933 20.7587 173.563 20.7587C174.255 20.7587 174.855 20.8664 175.363 21.0818C175.871 21.2818 176.302 21.5587 176.655 21.9125C177.025 22.2663 177.309 22.6586 177.509 23.0894H177.602C177.586 22.7356 177.563 22.3356 177.532 21.8894C177.517 21.4433 177.509 21.0433 177.509 20.6895V15.7281H178.825V32.7124C178.825 33.0181 178.577 33.2659 178.271 33.2659V33.2659C177.984 33.2659 177.744 33.0461 177.719 32.7598L177.578 31.1198H177.509C177.294 31.5506 177.009 31.9506 176.655 32.3198C176.302 32.6736 175.863 32.9582 175.34 33.1736C174.817 33.389 174.186 33.4966 173.448 33.4966ZM173.609 32.3659C175.04 32.3659 176.048 31.9352 176.632 31.0737C177.232 30.2122 177.532 28.9661 177.532 27.3354V27.1277C177.532 25.4354 177.232 24.1432 176.632 23.2509C176.048 22.3433 175.071 21.8894 173.702 21.8894C172.394 21.8894 171.394 22.3586 170.702 23.2971C170.025 24.2201 169.686 25.5431 169.686 27.2661C169.686 28.9276 170.01 30.1968 170.656 31.0737C171.302 31.9352 172.286 32.3659 173.609 32.3659Z" fill="white"/>
</svg>
