<svg width="983" height="256" viewBox="0 0 983 256" fill="none" xmlns="http://www.w3.org/2000/svg">
    <path
        d="M202.765 138.243C173.149 121.14 163.002 83.261 180.1 53.6377C197.199 24.0144 235.069 13.8647 264.685 30.9678L202.765 138.243Z"
        fill="#F15B25" />
    <path
        d="M31.0669 75.9797L103.662 201.689C117.605 225.833 152.447 225.833 166.389 201.689L182.706 173.433L187.624 165.028C173.537 165.028 160.521 157.502 153.492 145.29L93.3988 40.89C86.9007 29.6009 74.8692 22.6431 61.8458 22.6431C34.4802 22.6431 17.3792 52.2773 31.0669 75.9797Z"
        fill="#573FE7" />
    <path
        d="M352.469 86.878C355.884 86.878 358.294 90.226 357.21 93.4647L331.15 171.338C330.467 173.377 328.558 174.751 326.408 174.751H309.865C307.712 174.751 305.801 173.374 305.121 171.332L279.17 93.4588C278.091 90.2212 280.501 86.878 283.913 86.878H295.747C297.968 86.878 299.922 88.342 300.546 90.4727L313.766 135.614C314.176 136.845 314.668 138.732 315.242 141.276C315.817 143.737 316.391 146.322 316.965 149.029C317.621 151.655 318.031 153.829 318.195 155.552C318.442 153.829 318.811 151.655 319.303 149.029C319.877 146.404 320.451 143.86 321.025 141.399C321.6 138.855 322.092 136.968 322.502 135.737L335.958 90.4537C336.589 88.3325 338.538 86.878 340.751 86.878H352.469Z"
        fill="#030712" />
    <path
        d="M395.021 105.954C401.42 105.954 406.915 107.144 411.509 109.523C416.185 111.821 419.753 115.267 422.214 119.861C424.756 124.374 426.028 129.994 426.028 136.722V141.322C426.028 144.083 423.789 146.322 421.028 146.322H383.332C383.497 150.752 384.932 154.28 387.639 156.906C390.346 159.531 394.201 160.844 399.205 160.844C403.552 160.844 407.49 160.434 411.017 159.613C412.2 159.338 413.396 159.008 414.607 158.622C418.112 157.505 421.967 159.931 421.967 163.61V168.037C421.967 169.895 420.948 171.626 419.238 172.355C416.751 173.415 414.134 174.213 411.386 174.751C407.613 175.572 402.978 175.982 397.482 175.982C390.674 175.982 384.604 174.751 379.272 172.29C374.022 169.828 369.88 166.054 366.845 160.967C363.892 155.798 362.415 149.275 362.415 141.399C362.415 133.358 363.769 126.753 366.476 121.584C369.183 116.333 372.997 112.436 377.919 109.892C382.84 107.267 388.541 105.954 395.021 105.954ZM395.391 120.354C392.191 120.354 389.526 121.379 387.393 123.43C385.342 125.399 384.112 128.558 383.702 132.907H406.956C406.956 130.527 406.505 128.394 405.603 126.507C404.783 124.62 403.511 123.143 401.789 122.077C400.066 120.928 397.933 120.354 395.391 120.354Z"
        fill="#030712" />
    <path
        d="M479.248 105.954C480.314 105.954 481.504 106.036 482.816 106.2V106.2C484.587 106.311 485.775 107.891 485.619 109.658L484.422 123.17C484.288 124.677 482.85 125.753 481.34 125.646V125.646C480.191 125.481 478.92 125.399 477.525 125.399C475.557 125.399 473.588 125.646 471.619 126.138C469.651 126.548 467.846 127.328 466.206 128.476C464.565 129.543 463.253 131.102 462.268 133.153C461.284 135.122 460.792 137.707 460.792 140.907V169.751C460.792 172.513 458.553 174.751 455.792 174.751H444.998C442.236 174.751 439.998 172.513 439.998 169.751V112.185C439.998 109.423 442.236 107.185 444.998 107.185H451.864C454.091 107.185 456.05 108.658 456.667 110.797L458.823 118.261H459.684C460.997 115.964 462.637 113.913 464.606 112.108C466.575 110.221 468.79 108.744 471.25 107.677C473.793 106.528 476.459 105.954 479.248 105.954Z"
        fill="#030712" />
    <path
        d="M517.289 105.954C521.719 105.954 525.492 106.816 528.609 108.539C531.726 110.262 534.31 112.641 536.36 115.677H536.853L537.685 111.259C538.13 108.896 540.194 107.185 542.598 107.185H551.17C553.932 107.185 556.17 109.423 556.17 112.185V174.874C556.17 181.274 554.899 186.648 552.356 190.997C549.813 195.345 545.958 198.627 540.79 200.842C535.622 203.14 529.142 204.288 521.349 204.288C516.264 204.288 511.629 204.001 507.446 203.427C504.486 203.013 501.59 202.363 498.759 201.479C496.782 200.861 495.511 198.983 495.511 196.911V191.013C495.511 187.439 499.164 185.01 502.593 186.016C504.334 186.527 506.074 186.956 507.815 187.305C511.916 188.207 516.428 188.658 521.349 188.658C526.107 188.658 529.634 187.551 531.931 185.335C534.31 183.202 535.499 180.002 535.499 175.736V174.382C535.499 173.151 535.54 171.798 535.622 170.321C535.786 168.844 535.95 167.408 536.114 166.013H535.499C533.531 169.213 531.029 171.674 527.994 173.397C524.959 175.12 521.267 175.982 516.92 175.982C509.291 175.982 503.221 172.946 498.71 166.875C494.28 160.803 492.066 152.188 492.066 141.03C492.066 129.789 494.362 121.133 498.956 115.061C503.549 108.99 509.66 105.954 517.289 105.954ZM524.548 122.323C522.006 122.323 519.873 123.061 518.15 124.538C516.428 125.933 515.156 128.025 514.336 130.815C513.516 133.604 513.106 137.132 513.106 141.399C513.106 147.716 514.049 152.393 515.936 155.429C517.822 158.383 520.775 159.86 524.795 159.86C527.009 159.86 528.855 159.572 530.331 158.998C531.89 158.342 533.12 157.357 534.023 156.044C535.007 154.65 535.745 152.927 536.237 150.875C536.73 148.824 536.976 146.363 536.976 143.491V140.907C536.976 136.722 536.566 133.276 535.745 130.568C534.925 127.779 533.613 125.728 531.808 124.415C530.003 123.02 527.584 122.323 524.548 122.323Z"
        fill="#030712" />
    <path
        d="M603.134 105.954C609.533 105.954 615.028 107.144 619.622 109.523C624.298 111.821 627.866 115.267 630.327 119.861C632.869 124.374 634.141 129.994 634.141 136.722V141.322C634.141 144.083 631.902 146.322 629.141 146.322H591.446C591.61 150.752 593.045 154.28 595.752 156.906C598.459 159.531 602.314 160.844 607.318 160.844C611.665 160.844 615.603 160.434 619.13 159.613C620.313 159.338 621.509 159.008 622.72 158.622C626.225 157.505 630.081 159.931 630.081 163.61V168.037C630.081 169.895 629.061 171.626 627.351 172.355C624.864 173.415 622.247 174.213 619.499 174.751C615.726 175.572 611.091 175.982 605.595 175.982C598.787 175.982 592.717 174.751 587.385 172.29C582.135 169.828 577.993 166.054 574.958 160.967C572.005 155.798 570.528 149.275 570.528 141.399C570.528 133.358 571.882 126.753 574.589 121.584C577.296 116.333 581.11 112.436 586.032 109.892C590.953 107.267 596.654 105.954 603.134 105.954ZM603.504 120.354C600.305 120.354 597.639 121.379 595.506 123.43C593.455 125.399 592.225 128.558 591.815 132.907H615.07C615.07 130.527 614.618 128.394 613.716 126.507C612.896 124.62 611.624 123.143 609.902 122.077C608.179 120.928 606.046 120.354 603.504 120.354Z"
        fill="#030712" />
    <path
        d="M688.961 92.047C683.547 92.047 678.666 92.9905 674.319 94.8776C670.053 96.6827 666.444 99.3082 663.491 102.754C660.538 106.118 658.282 110.18 656.724 114.938C655.165 119.615 654.386 124.825 654.386 130.568C654.386 138.445 655.616 145.337 658.077 151.245C660.62 157.07 664.352 161.583 669.274 164.782C674.196 167.982 680.348 169.582 687.73 169.582C692.078 169.582 696.015 169.254 699.542 168.598C701.65 168.214 703.673 167.761 705.613 167.238C707.602 166.702 709.632 168.155 709.632 170.215V170.215C709.632 171.464 708.862 172.59 707.676 172.983C705.185 173.808 702.515 174.479 699.665 174.997C696.056 175.654 691.832 175.982 686.992 175.982C678.133 175.982 670.71 174.095 664.722 170.321C658.816 166.546 654.345 161.254 651.31 154.444C648.357 147.634 646.881 139.676 646.881 130.568C646.881 124.005 647.824 118.015 649.71 112.6C651.597 107.103 654.345 102.344 657.954 98.3237C661.563 94.3033 665.952 91.1855 671.12 88.9702C676.369 86.7549 682.357 85.6473 689.084 85.6473C693.349 85.6473 697.41 86.0575 701.265 86.878C704.011 87.4502 706.597 88.2019 709.024 89.1333C710.755 89.7979 711.482 91.8001 710.72 93.491V93.491C709.925 95.255 707.826 95.9891 706.029 95.2712C703.92 94.4287 701.758 93.7642 699.542 93.2777C696.179 92.4572 692.652 92.047 688.961 92.047Z"
        fill="#030712" />
    <path
        d="M733.754 171.245C733.754 173.181 732.184 174.751 730.247 174.751V174.751C728.31 174.751 726.74 173.181 726.74 171.245V84.7233C726.74 82.7867 728.31 81.2167 730.247 81.2167V81.2167C732.184 81.2167 733.754 82.7867 733.754 84.7234V171.245Z"
        fill="#030712" />
    <path
        d="M810.211 141.891C810.211 147.06 809.555 151.737 808.243 155.921C807.012 160.024 805.126 163.593 802.583 166.629C800.122 169.582 797.046 171.88 793.355 173.521C789.745 175.161 785.562 175.982 780.804 175.982C776.293 175.982 772.233 175.203 768.623 173.644C765.014 172.003 761.938 169.705 759.395 166.752C756.934 163.716 755.007 160.106 753.612 155.921C752.3 151.737 751.644 147.06 751.644 141.891C751.644 134.835 752.833 128.804 755.212 123.8C757.591 118.713 760.995 114.815 765.424 112.108C769.854 109.4 775.145 108.046 781.297 108.046C787.613 108.046 792.904 109.482 797.169 112.354C801.434 115.143 804.674 119.082 806.889 124.169C809.104 129.174 810.211 135.081 810.211 141.891ZM758.903 141.891C758.903 147.47 759.682 152.393 761.241 156.66C762.881 160.844 765.301 164.126 768.5 166.505C771.781 168.803 775.924 169.951 780.927 169.951C786.013 169.951 790.156 168.803 793.355 166.505C796.636 164.126 799.056 160.844 800.614 156.66C802.173 152.393 802.952 147.47 802.952 141.891C802.952 136.476 802.214 131.676 800.737 127.492C799.261 123.307 796.923 120.025 793.724 117.646C790.525 115.267 786.341 114.077 781.174 114.077C773.791 114.077 768.213 116.538 764.44 121.461C760.749 126.384 758.903 133.194 758.903 141.891Z"
        fill="#030712" />
    <path
        d="M876.081 109.277C878.018 109.277 879.588 110.847 879.588 112.784V171.782C879.588 173.422 878.258 174.751 876.618 174.751V174.751C875.091 174.751 873.813 173.593 873.663 172.074L872.82 163.552H872.451C871.303 165.931 869.662 168.064 867.529 169.951C865.479 171.839 863.018 173.315 860.147 174.382C857.276 175.449 853.954 175.982 850.181 175.982C845.177 175.982 840.952 175.12 837.507 173.397C834.062 171.592 831.478 168.926 829.756 165.398C828.033 161.87 827.172 157.439 827.172 152.106V112.784C827.172 110.847 828.742 109.277 830.679 109.277V109.277C832.615 109.277 834.185 110.847 834.185 112.784V151.491C834.185 157.726 835.58 162.362 838.369 165.398C841.24 168.434 845.464 169.951 851.042 169.951C855.882 169.951 859.86 169.008 862.977 167.121C866.176 165.234 868.555 162.444 870.113 158.752C871.754 155.06 872.574 150.465 872.574 144.968V112.784C872.574 110.847 874.144 109.277 876.081 109.277V109.277Z"
        fill="#030712" />
    <path
        d="M924.83 175.982C916.053 175.982 909.286 173.151 904.528 167.49C899.853 161.829 897.515 153.542 897.515 142.63C897.515 131.389 899.976 122.815 904.897 116.907C909.901 111 916.751 108.046 925.445 108.046C929.137 108.046 932.336 108.621 935.043 109.769C937.75 110.836 940.046 112.313 941.933 114.2C943.902 116.087 945.419 118.179 946.486 120.477H946.978C946.896 118.589 946.773 116.456 946.609 114.077C946.527 111.697 946.486 109.564 946.486 107.677V81.2167H953.499V171.8C953.499 173.43 952.177 174.751 950.547 174.751V174.751C949.015 174.751 947.738 173.579 947.607 172.053L946.855 163.306H946.486C945.337 165.603 943.82 167.736 941.933 169.705C940.046 171.592 937.709 173.11 934.92 174.259C932.131 175.408 928.768 175.982 924.83 175.982ZM925.692 169.951C933.32 169.951 938.693 167.654 941.81 163.059C945.009 158.465 946.609 151.819 946.609 143.122V142.014C946.609 132.989 945.009 126.097 941.81 121.338C938.693 116.497 933.484 114.077 926.184 114.077C919.211 114.077 913.88 116.579 910.188 121.584C906.579 126.507 904.774 133.563 904.774 142.753C904.774 151.614 906.497 158.383 909.942 163.059C913.387 167.654 918.637 169.951 925.692 169.951Z"
        fill="#030712" />
</svg>