<svg width="96" height="96" viewBox="0 0 96 96" fill="none" xmlns="http://www.w3.org/2000/svg">
<path d="M55.8388 65.5409C55.6863 65.5434 55.5355 65.5732 55.3936 65.6292C53.911 66.212 52.3626 66.611 50.783 66.8175C50.461 66.8596 50.1654 67.0171 49.9508 67.2608C49.7363 67.5044 49.6174 67.8179 49.6162 68.1425V87.6821C49.6158 87.8655 49.6531 88.0468 49.7257 88.2152C49.7982 88.3835 49.9045 88.5351 50.0379 88.6608C50.1714 88.7865 50.3293 88.8837 50.5017 88.946C50.6741 89.0082 50.8575 89.0346 51.0405 89.0233C56.1822 88.7036 61.2203 87.434 65.8997 85.279C66.0671 85.2017 66.2167 85.0905 66.3393 84.9529C66.4618 84.8152 66.5548 84.654 66.6121 84.4788C66.6695 84.3036 66.6902 84.1185 66.6728 83.935C66.6554 83.7514 66.6004 83.5733 66.5112 83.412L57.0593 66.2301C56.9395 66.0134 56.7622 65.8339 56.5467 65.7118C56.3314 65.5897 56.0863 65.5294 55.8388 65.5379V65.5409ZM55.2059 68.4267L63.3355 83.2055C59.8127 84.6685 56.0938 85.6056 52.2984 85.9868V69.1752C53.2835 68.9913 54.2549 68.7429 55.2059 68.4267Z" fill="#FF8618"/>
<path d="M12.3855 27.5963C12.1526 27.6095 11.9272 27.6833 11.7315 27.8104C11.5358 27.9374 11.3766 28.1132 11.2698 28.3205C8.63666 33.3996 7.07639 38.9661 6.68591 44.6738C6.67304 44.8572 6.69801 45.0413 6.75928 45.2146C6.82055 45.388 6.91681 45.5467 7.04208 45.6813C7.16734 45.8158 7.31893 45.9233 7.48744 45.9969C7.65595 46.0703 7.83778 46.1085 8.02162 46.1088H27.6363C27.9619 46.109 28.2764 45.9905 28.5213 45.7759C28.766 45.5611 28.9244 45.2647 28.9667 44.942C29.2081 43.1073 29.7069 41.3182 30.4526 39.6257C30.5844 39.3274 30.6028 38.9912 30.5046 38.6802C30.4063 38.3691 30.1981 38.1049 29.9188 37.9362L13.1553 27.7842C12.9235 27.6453 12.6551 27.5797 12.3855 27.5963ZM13.1177 30.9008L27.6712 39.7144C27.2153 40.9214 26.8665 42.1606 26.6278 43.4267H9.6041C10.0644 39.0839 11.2522 34.8494 13.1177 30.9008Z" fill="#FF8618"/>
<path d="M50.9144 5.89062C50.5673 5.90241 50.2383 6.0481 49.9963 6.29711C49.7543 6.54613 49.6181 6.87924 49.6162 7.22647V26.8305C49.616 27.1561 49.7344 27.4703 49.949 27.7152C50.1637 27.9599 50.4601 28.1185 50.783 28.1607C52.6208 28.4 54.4152 28.8993 56.1124 29.644C56.4108 29.7747 56.7466 29.7924 57.0571 29.6937C57.3676 29.595 57.6314 29.3867 57.7995 29.1077L67.93 12.3601C68.0253 12.2031 68.0872 12.0283 68.1121 11.8465C68.137 11.6646 68.1243 11.4795 68.0747 11.3027C68.0253 11.126 67.9399 10.9613 67.8241 10.8189C67.7083 10.6764 67.5645 10.5592 67.4016 10.4746C62.3216 7.84172 56.7544 6.28135 51.0458 5.89062H50.9144ZM52.2984 8.81426C56.6392 9.27415 60.8718 10.4611 64.8188 12.3253L56.0212 26.8625C54.8127 26.4108 53.567 26.0653 52.2984 25.8299V8.81426Z" fill="#FF8618"/>
<path d="M64.5055 59.125C64.3166 59.1365 64.1322 59.1875 63.9642 59.2743C63.796 59.3611 63.6479 59.4819 63.5292 59.6292C62.4509 60.9811 61.1957 62.1775 59.8009 63.1967C59.5376 63.3891 59.3534 63.6709 59.2827 63.9894C59.2122 64.3078 59.2601 64.641 59.4174 64.9268L67.5847 79.7618C67.6731 79.9233 67.7939 80.0643 67.9395 80.177C68.0849 80.2896 68.2521 80.3714 68.4305 80.4167C68.6089 80.4619 68.7947 80.4699 68.9763 80.4403C69.158 80.4107 69.3316 80.3441 69.4863 80.2444C73.6564 77.5392 77.2708 74.0616 80.1345 69.9987C80.2412 69.8485 80.3158 69.6778 80.3538 69.4975C80.3917 69.3171 80.392 69.1312 80.3547 68.9507C80.3175 68.7702 80.2435 68.5993 80.1373 68.4488C80.0311 68.2981 79.895 68.1712 79.7376 68.0755L65.27 59.3209C65.0402 59.1814 64.7739 59.1145 64.5055 59.128V59.125ZM64.7496 62.1398L76.8784 69.4782C74.6748 72.3486 72.0528 74.8721 69.1001 76.9641L62.2579 64.5296C63.151 63.7974 63.9771 63.0008 64.7496 62.1398Z" fill="#FF8618"/>
<path d="M65.6723 22.4127C65.4565 22.4263 65.2471 22.492 65.0622 22.6042C64.8773 22.7162 64.7221 22.8713 64.6102 23.0564L60.1148 30.486C59.9457 30.7645 59.8837 31.095 59.9404 31.4158C59.9972 31.7366 60.1688 32.0259 60.4233 32.2294C61.7698 33.3023 62.9633 34.5523 63.9798 35.9416C64.1724 36.2064 64.4552 36.3912 64.7749 36.4619C65.0945 36.5326 65.4289 36.4839 65.7152 36.325L73.3325 32.1276C73.4958 32.0377 73.6385 31.9147 73.7516 31.7664C73.8647 31.6183 73.9456 31.448 73.9893 31.2668C74.033 31.0856 74.0384 30.8976 74.0052 30.7142C73.972 30.5308 73.901 30.3562 73.7966 30.2017C71.8268 27.2998 69.378 24.7539 66.5547 22.6729C66.3007 22.4841 65.9882 22.3936 65.6723 22.4127ZM66.0129 25.9208C67.6973 27.3075 69.2047 28.8741 70.5243 30.6094L65.3102 33.4792C64.5832 32.5937 63.7887 31.7661 62.9337 31.0036L66.0129 25.9208Z" fill="#FF8618"/>
<path d="M68.9254 48.8008C68.5994 48.8007 68.2845 48.9194 68.0397 49.1347C67.7948 49.35 67.6368 49.647 67.595 49.9703C67.3573 51.8127 66.8578 53.6117 66.1118 55.3129C65.981 55.6113 65.9634 55.9474 66.0621 56.2579C66.1608 56.5684 66.3692 56.8321 66.6482 57.0002L76.4327 62.9251C76.5915 63.0213 76.7684 63.0837 76.9523 63.108C77.1363 63.1324 77.3233 63.1181 77.5016 63.0665C77.6798 63.0147 77.8454 62.9267 77.9878 62.8078C78.1302 62.6888 78.2464 62.5414 78.3291 62.3753C80.2045 58.584 81.3475 54.4728 81.6979 50.2574C81.7138 50.0723 81.6911 49.8859 81.6313 49.71C81.5715 49.534 81.4757 49.3725 81.3501 49.2356C81.2245 49.0986 81.0719 48.9892 80.9018 48.9144C80.7317 48.8396 80.548 48.8008 80.3622 48.8008H68.9254ZM69.9312 51.4829H78.6214C78.2443 54.3245 77.4724 57.0998 76.3281 59.7282L68.8932 55.222C69.3492 54.0096 69.6952 52.7596 69.9312 51.4829Z" fill="#FF8618"/>
<path d="M84.9036 29.0586C84.6622 29.0586 84.4208 29.1069 84.2062 29.2249L67.0242 38.674C66.7384 38.8308 66.5194 39.0864 66.4083 39.393C66.2973 39.6996 66.3016 40.0363 66.4208 40.3399C67.0055 41.8205 67.4078 43.3653 67.617 44.9397C67.6587 45.263 67.8168 45.56 68.0616 45.7753C68.3065 45.9905 68.6214 46.1093 68.9474 46.1092H88.4869C88.6703 46.1089 88.8516 46.0708 89.0198 45.9975C89.1879 45.9244 89.3393 45.8175 89.4645 45.6836C89.5897 45.5496 89.686 45.3914 89.7476 45.2187C89.8093 45.046 89.8348 44.8624 89.8226 44.6794C89.4992 39.5428 88.2279 34.5105 86.073 29.8365C85.9691 29.6114 85.8047 29.4194 85.5982 29.2822C85.3918 29.1449 85.1514 29.0674 84.9036 29.0586ZM84.0024 32.4005C85.4668 35.9196 86.4066 39.6349 86.7918 43.427H69.9747C69.7901 42.4439 69.5392 41.4742 69.2236 40.5249L84.0024 32.4005Z" fill="#FF8618"/>
<path d="M21.6091 48.8008C21.4215 48.8006 21.236 48.8397 21.0646 48.9157C20.893 48.9916 20.7394 49.1027 20.6136 49.2418C20.4877 49.3808 20.3924 49.5446 20.3338 49.7228C20.2752 49.9009 20.2546 50.0895 20.2733 50.2761C20.5481 53.1026 21.2479 55.8713 22.3493 58.4889C22.4217 58.6623 22.5298 58.8183 22.6665 58.9473C22.8031 59.0761 22.9654 59.1748 23.1426 59.2371C23.3199 59.2992 23.5082 59.3237 23.6955 59.3084C23.8827 59.2932 24.0646 59.2387 24.2295 59.1486L29.5133 56.2412C29.7993 56.0844 30.0182 55.8288 30.1293 55.5222C30.2404 55.2157 30.2359 54.8792 30.1169 54.5756C29.5364 53.0945 29.1391 51.5479 28.9341 49.9703C28.8923 49.647 28.7343 49.35 28.4894 49.1347C28.2446 48.9194 27.9296 48.8007 27.6036 48.8008H21.6091ZM23.3176 51.4829H26.5711C26.7534 52.4673 27.0056 53.4356 27.3221 54.3851L24.4495 55.9675C23.9367 54.5101 23.5579 53.009 23.3176 51.4829Z" fill="#FF8618"/>
<path d="M27.8021 14.5788C27.5575 14.5833 27.3192 14.6576 27.1155 14.7932C22.9584 17.4808 19.3511 20.9353 16.4861 24.9722C16.3799 25.1224 16.3058 25.2926 16.2684 25.4727C16.2309 25.6529 16.2309 25.8391 16.2684 26.0192C16.3059 26.1994 16.38 26.3696 16.4862 26.5198C16.5924 26.6701 16.7284 26.797 16.8857 26.8924L31.297 35.6094C31.5743 35.7777 31.9033 35.8397 32.2229 35.7839C32.5424 35.7282 32.8309 35.5585 33.035 35.3063C34.1131 33.9637 35.364 32.7697 36.7552 31.7552C37.019 31.5632 37.2038 31.2816 37.2749 30.9631C37.346 30.6447 37.2985 30.3111 37.1414 30.0251L29.0172 15.2679C28.8975 15.0526 28.7209 14.8742 28.5065 14.7526C28.2921 14.6311 28.0485 14.5709 27.8021 14.5788ZM27.4991 18.0709L34.2984 30.4249C33.4105 31.1491 32.5844 31.9402 31.82 32.7931L19.7503 25.495C21.9496 22.6488 24.5613 20.1466 27.4991 18.0709Z" fill="#FF8618"/>
<path d="M45.465 13.985C41.7049 14.2934 38.0236 15.2328 34.5754 16.7637C34.4063 16.8394 34.2547 16.9493 34.1302 17.0865C34.0057 17.2237 33.9109 17.3853 33.852 17.5609C33.793 17.7366 33.7711 17.9226 33.7875 18.107C33.8041 18.2916 33.8586 18.4709 33.9478 18.6333L39.4945 28.7235C39.6521 29.0084 39.9082 29.2263 40.2147 29.3364C40.5212 29.4464 40.8572 29.4412 41.1601 29.3216C42.6379 28.7416 44.1808 28.3434 45.7547 28.1361C46.077 28.0931 46.3728 27.9345 46.5869 27.6898C46.8011 27.4451 46.9189 27.1309 46.9187 26.8057V15.326C46.9193 15.1403 46.8814 14.9565 46.8072 14.7861C46.7331 14.6158 46.6243 14.4627 46.4879 14.3366C46.3514 14.2105 46.1903 14.1142 46.0148 14.0537C45.8391 13.9932 45.6528 13.9697 45.4677 13.985H45.465ZM44.2366 17.0371V25.781C43.2591 25.9662 42.2949 26.2163 41.3505 26.5294L37.1235 18.8425C39.4167 17.9573 41.7958 17.3563 44.2366 17.0371Z" fill="#FF8618"/>
<path d="M31.5229 58.43C31.2783 58.4251 31.0366 58.482 30.8201 58.5959L13.6677 68.032C13.5076 68.1203 13.3673 68.2404 13.2554 68.3849C13.1434 68.5295 13.0622 68.6956 13.0168 68.8728C12.9712 69.0499 12.9625 69.2343 12.9909 69.4149C13.0194 69.5956 13.0845 69.7683 13.1822 69.9228C16.1037 74.5116 19.8941 78.4853 24.34 81.6199C24.4905 81.7264 24.6614 81.8004 24.842 81.8379C25.0225 81.8754 25.2088 81.8753 25.3893 81.8376C25.5697 81.7998 25.7405 81.7253 25.8909 81.6186C26.0412 81.5118 26.168 81.3755 26.2632 81.2175L36.4098 64.454C36.5781 64.1758 36.6397 63.8457 36.583 63.5255C36.5263 63.2052 36.3551 62.9165 36.1013 62.7132C34.7581 61.6327 33.564 60.3791 32.5502 58.9849C32.4318 58.8209 32.278 58.6858 32.1001 58.5897C31.9222 58.4936 31.7249 58.4391 31.5229 58.43ZM31.2171 61.4418C31.9467 62.335 32.7353 63.1665 33.5908 63.9363L24.7853 78.4843C21.5214 75.9948 18.6717 73.0049 16.3418 69.6252L31.2171 61.4418Z" fill="#FF8618"/>
<path d="M39.8933 65.1837C39.6593 65.1808 39.4287 65.2388 39.2238 65.3516C39.0188 65.4645 38.8466 65.6283 38.7239 65.8274L34.2098 73.2917C34.1137 73.4508 34.0517 73.6281 34.0278 73.8123C34.0038 73.9965 34.0185 74.1837 34.0706 74.3621C34.1229 74.5403 34.2116 74.7057 34.331 74.8479C34.4506 74.9901 34.5983 75.106 34.765 75.1881C38.1113 76.8431 41.73 77.8783 45.4454 78.2432C45.6317 78.2616 45.8199 78.2408 45.9977 78.182C46.1755 78.1232 46.3391 78.0275 46.4778 77.9017C46.6165 77.7758 46.7274 77.6224 46.8031 77.4512C46.8789 77.2799 46.918 77.0946 46.9179 76.9074V68.1179C46.9173 67.7924 46.7984 67.4782 46.5832 67.2339C46.3679 66.9897 46.0713 66.8319 45.7484 66.7903C43.909 66.5477 42.1135 66.0437 40.4163 65.2936C40.2514 65.2214 40.0733 65.1839 39.8933 65.1837ZM40.4995 68.0751C41.7145 68.531 42.9589 68.8825 44.2356 69.1212V75.1534C41.8833 74.7935 39.5859 74.1364 37.3989 73.1981L40.4995 68.0751Z" fill="#FF8618"/>
<path d="M42.8739 35.3906H42.7425C42.4123 35.4245 42.1065 35.5796 41.8841 35.8258C41.6616 36.0719 41.5384 36.392 41.5381 36.7238C41.4416 36.9519 41.0607 36.9249 41.0607 37.2012V40.6076C41.0607 41.305 41.6427 41.7205 42.0317 42.2516V43.0455C42.0317 43.5417 42.0612 43.5954 42.0612 43.2119C42.0612 43.0966 42.0317 43.212 42.0317 43.5419V44.9848C42.0317 46.6021 42.7773 47.9621 43.7911 49.0617C43.7295 49.169 43.7321 49.3379 43.5391 49.4827C43.1368 49.7859 42.2624 50.1347 41.2243 50.5934H41.2189C40.1595 51.036 38.9123 51.642 37.8769 52.7471L37.8501 52.7792C36.8309 53.9459 36.1846 55.6007 36.1846 57.6874V58.189C36.1846 58.5447 36.3258 58.886 36.5773 59.1376C36.8289 59.389 37.1699 59.5301 37.5256 59.5301H58.983C59.3386 59.5301 59.6797 59.389 59.9312 59.1376C60.1828 58.886 60.324 58.5447 60.324 58.189V57.6874C60.324 55.649 59.6669 53.9996 58.5994 52.8623C57.5855 51.7787 56.3598 51.202 55.311 50.7675C54.3133 50.3518 53.4979 49.9979 53.0527 49.6733C52.7147 49.4025 52.6423 49.2895 52.586 48.788C53.5247 47.7018 54.4716 46.5349 54.4716 44.99V40.6103C54.4716 38.2768 52.5726 36.3296 50.223 36.3296H44.5126C44.6495 36.3296 44.2525 36.2812 44.1989 36.2625L44.3142 36.3106C44.1854 36.2435 43.5015 36.115 43.7858 36.4046L43.7322 36.6943C43.3727 36.9036 44.7138 37.0295 44.7138 37.2038C44.7138 36.949 44.3195 36.9704 44.2149 36.7478C44.2167 36.6678 44.2114 36.588 44.1989 36.5091L44.1828 36.5359C44.1346 36.2221 43.9765 35.9357 43.7368 35.7275C43.4971 35.5193 43.1914 35.4027 42.8739 35.3988V35.3906ZM41.5704 37.0375L41.5757 37.0644L41.5972 37.1449C41.6025 37.1717 41.6052 37.1799 41.6132 37.1959L41.6212 37.2224L41.6588 37.3004C41.6972 37.3808 41.7421 37.4581 41.793 37.5312C41.8198 37.5688 41.8493 37.6008 41.8788 37.6356C41.9056 37.6679 41.9324 37.6973 41.9619 37.7241L41.9941 37.7509H42.0048C42.029 37.7778 42.0531 37.7911 42.0773 37.8098C42.1148 37.8366 42.1496 37.8611 42.1872 37.8826L42.2087 37.9094L42.2248 37.9415L42.3079 38.0836L41.7366 36.9518L41.5704 37.0509V37.0375ZM43.7428 38.8534C43.9897 38.9123 44.2364 39.0144 44.5126 39.0144H50.223C50.6423 39.0186 51.0426 39.189 51.3363 39.4881C51.63 39.7874 51.793 40.191 51.7894 40.6103V44.9874C51.7894 46.1461 51.2556 47.1332 50.408 47.7796C50.2273 47.9166 50.0843 48.0975 49.9923 48.3047C49.9004 48.512 49.8626 48.7392 49.8824 48.9651C49.995 50.1802 50.644 51.1886 51.3817 51.7786L51.4138 51.8054C52.3017 52.4706 53.294 52.8354 54.2784 53.2457C55.2252 53.64 56.054 54.0612 56.6468 54.6942C57.076 55.1529 57.2154 56.003 57.363 56.8479H39.1349C39.2797 55.9467 39.43 55.0645 39.8591 54.5764C40.4813 53.9165 41.3262 53.4657 42.2569 53.0768H42.2837C43.2226 52.6584 44.2257 52.3393 45.1483 51.6473C45.8859 51.0921 46.5216 50.1587 46.6718 49.0644C46.7044 48.8266 46.6725 48.5846 46.5795 48.3634C46.4866 48.1421 46.336 47.9496 46.1434 47.8064C45.6982 47.4865 45.3361 47.0646 45.0874 46.576C44.8387 46.0874 44.7106 45.5464 44.7138 44.9982V43.5579C44.7138 43.6732 44.7433 43.5577 44.7433 43.2279C44.7433 42.7343 44.7138 42.678 44.7138 43.0615V42.2571C44.7137 42.0208 44.6512 41.7884 44.5325 41.5839C44.4138 41.3795 44.2431 41.2104 44.0379 41.0931C43.9499 41.0495 43.8757 40.982 43.8236 40.8986C43.7715 40.8153 43.7435 40.7193 43.7428 40.621V38.8667V38.8534Z" fill="#FF8618"/>
</svg>
