<svg width="96" height="96" viewBox="0 0 96 96" fill="none" xmlns="http://www.w3.org/2000/svg">
<path d="M53.1955 22.7533C50.1555 21.7558 46.914 21.1987 43.5451 21.1586C25.7946 20.947 11.2335 35.1651 11.0219 52.9156C10.8103 70.666 25.0284 85.2272 42.779 85.4387C60.5295 85.6503 75.0906 71.4322 75.3022 53.6818C75.3434 50.2197 74.8357 46.8789 73.86 43.7422" stroke="#FF8618" stroke-width="3.75" stroke-linecap="round"/>
<path d="M43.2987 72.9392C54.2305 72.9392 63.0925 64.0772 63.0925 53.1454C63.0925 42.2135 54.2305 33.3516 43.2987 33.3516C32.3669 33.3516 23.5049 42.2135 23.5049 53.1454C23.5049 64.0772 32.3669 72.9392 43.2987 72.9392Z" stroke="#FF8618" stroke-width="3.75"/>
<path d="M43.2988 62.0527C48.2181 62.0527 52.206 58.0648 52.206 53.1455C52.206 48.2261 48.2181 44.2383 43.2988 44.2383C38.3795 44.2383 34.3916 48.2261 34.3916 53.1455C34.3916 58.0648 38.3795 62.0527 43.2988 62.0527Z" stroke="#FF8618" stroke-width="3.75"/>
<path d="M43.2988 53.1464L84.8658 11.5795M64.7038 18.486L63.2588 31.8597C63.191 32.4879 63.721 33.0178 64.3492 32.9499L77.9187 31.4839C78.1432 31.4597 78.3526 31.3594 78.5122 31.1998L88.6705 21.0415C89.3309 20.3811 88.793 19.2575 87.8644 19.3577L76.7395 20.5597C76.1113 20.6276 75.5814 20.0975 75.6491 19.4695L76.83 8.54034C76.9303 7.61171 75.8067 7.07375 75.1462 7.73421L64.988 17.8925C64.8284 18.052 64.7281 18.2616 64.7038 18.486Z" stroke="#FF8618" stroke-width="3.75" stroke-linecap="round"/>
</svg>
