<svg width="96" height="96" viewBox="0 0 96 96" fill="none" xmlns="http://www.w3.org/2000/svg">
<path fill-rule="evenodd" clip-rule="evenodd" d="M58.3194 90.759H22.5448C22.4427 90.7586 22.3422 90.7335 22.2517 90.686C22.1613 90.6386 22.0836 90.57 22.0252 90.4862C21.968 90.4014 21.9312 90.3045 21.9176 90.2031C21.9041 90.1017 21.9143 89.9985 21.9473 89.9017C22.376 88.6936 23.1684 85.8487 23.4802 84.6017C24.732 79.715 24.9241 74.617 24.0436 69.6499C23.1631 64.6828 21.2303 59.9615 18.375 55.8028C13.4258 48.1647 7.12564 33.2002 20.5054 18.898C30.0531 8.71388 42.6664 7.19404 51.5646 7.71364C59.4954 8.03666 67.0522 11.1726 72.8814 16.5599C75.4089 18.9103 77.4374 21.7457 78.8456 24.8969C80.2539 28.0482 81.0132 31.4508 81.0781 34.9018C81.0815 37.5422 80.5004 40.1508 79.3764 42.54C78.9755 43.3125 78.7663 44.1702 78.7663 45.0405C78.7663 45.9109 78.9755 46.7685 79.3764 47.5412L79.4717 47.7162C79.7658 48.2566 80.1179 48.9035 80.4805 49.4766C82.9746 53.7634 84.8322 57.1798 84.2736 58.9464C84.2113 59.1616 84.1039 59.361 83.9582 59.5314C83.8126 59.7016 83.6323 59.8388 83.4293 59.9337C82.2819 60.433 81.0843 60.8075 79.857 61.0507C79.7812 62.5068 79.8246 63.9666 79.9868 65.4155C80.0304 65.7458 79.9861 66.0819 79.8584 66.3898C79.7307 66.6977 79.5241 66.9665 79.2594 67.1691L78.0903 67.9485L78.532 68.9488C78.6907 69.3672 78.6907 69.8293 78.532 70.2477C78.1062 71.2574 77.4421 72.1488 76.5965 72.8458C76.2998 73.4918 76.2673 74.2283 76.5055 74.8982C77.0487 76.5136 76.9512 78.2759 76.2327 79.8214C75.9435 80.2961 75.5584 80.7053 75.1021 81.0229C74.6459 81.3405 74.1284 81.5595 73.5828 81.666C71.5208 82.0097 69.4187 82.0403 67.3476 81.7569L66.0485 81.666C65.1068 81.5798 64.1578 81.7066 63.2718 82.0372C62.3858 82.3678 61.5855 82.8935 60.9304 83.5755C60.1542 84.407 59.5693 85.3985 59.217 86.4802C58.8648 87.5618 58.7534 88.7074 58.891 89.8367C58.9177 89.9783 58.9177 90.1238 58.891 90.2654C58.8609 90.3979 58.7893 90.5173 58.6863 90.6062C58.5835 90.6949 58.4549 90.7485 58.3194 90.759ZM23.4282 89.46H57.6569C57.5744 88.2203 57.7513 86.977 58.1762 85.8094C58.6012 84.6419 59.265 83.5758 60.1251 82.6792C60.9121 81.8787 61.8627 81.2576 62.912 80.8586C63.9613 80.4596 65.0844 80.2918 66.2044 80.3669L67.5035 80.471C69.4379 80.7204 71.3986 80.6853 73.323 80.3669C73.7062 80.3056 74.0721 80.1639 74.3967 79.9513C74.7213 79.7386 74.9972 79.4597 75.2065 79.1329C75.7532 77.9012 75.809 76.5073 75.3624 75.2359C75.1921 74.7174 75.1353 74.1683 75.1957 73.6259C75.2563 73.0836 75.4328 72.5605 75.7132 72.0923C75.7373 72.0451 75.773 72.0049 75.8171 71.9754C76.5251 71.4189 77.0906 70.7021 77.4668 69.884C77.5182 69.7547 77.5182 69.6107 77.4668 69.4813L76.8043 67.9875C76.7426 67.8491 76.7323 67.6934 76.7752 67.5482C76.818 67.403 76.9113 67.2778 77.0382 67.195L78.623 66.1429C78.6984 66.0699 78.7554 65.98 78.7892 65.8806C78.8232 65.7812 78.833 65.6752 78.8178 65.5714C78.6264 63.8763 78.5959 62.167 78.7269 60.4662C78.7373 60.3245 78.7957 60.1906 78.8925 60.0867C78.9894 59.9828 79.1189 59.915 79.2594 59.8947C80.5389 59.6643 81.7891 59.294 82.9876 58.7905C83.0305 58.7723 83.0684 58.7438 83.0978 58.7075C83.1273 58.6713 83.1474 58.6285 83.1564 58.5827C83.5852 57.2057 81.0131 52.7761 79.4803 50.1391C79.0645 49.4246 78.6749 48.7492 78.3501 48.1647C77.8655 47.2155 77.6128 46.1648 77.6128 45.099C77.6128 44.0332 77.8655 42.9826 78.3501 42.0333C79.3518 39.7919 79.8442 37.3564 79.7921 34.9018C79.7337 31.619 79.0134 28.3818 77.6741 25.3842C76.3349 22.3865 74.4043 19.69 71.998 17.4562C66.3816 12.2901 59.1118 9.28825 51.4867 8.98667C42.8613 8.48006 30.7026 9.94797 21.4407 19.7814C8.65846 33.4469 14.6598 47.7749 19.4402 55.1143C22.3982 59.4158 24.4006 64.301 25.3126 69.441C26.2245 74.5812 26.0248 79.8569 24.7272 84.9135C24.4544 85.9657 23.8829 88.0571 23.4282 89.46ZM59.2158 58.9984C58.1305 59.001 57.0689 58.6813 56.1654 58.08C55.2619 57.4786 54.5573 56.6226 54.1408 55.6204C53.7243 54.6182 53.6147 53.5149 53.8258 52.4503C53.8591 52.2822 53.9002 52.1162 53.9488 51.9529L41.0813 45.2858C41.0275 45.3438 40.9724 45.4009 40.9163 45.4572C39.6824 46.6936 38.0092 47.3914 36.2624 47.3983C34.9567 47.4008 33.6796 47.016 32.5926 46.2925C31.5058 45.5689 30.658 44.5392 30.1565 43.3337C29.655 42.1281 29.5225 40.8009 29.7757 39.5199C30.0288 38.239 30.6563 37.0619 31.5786 36.1378C32.501 35.2136 33.6767 34.5838 34.9572 34.3281C36.2377 34.0725 37.5651 34.2024 38.7717 34.7015C39.9782 35.2005 41.0097 36.0463 41.7353 37.1318C42.4609 38.2173 42.8483 39.4936 42.8483 40.7993C42.8458 42.0751 42.4747 43.3123 41.794 44.3685L54.3889 50.8943C54.6385 50.4361 54.9536 50.0134 55.3266 49.6404C56.094 48.873 57.072 48.3506 58.1366 48.1395C59.2012 47.9284 60.3045 48.0381 61.3066 48.4546C62.3088 48.8711 63.1649 49.5757 63.7662 50.4792C64.3675 51.3827 64.6872 52.4443 64.6846 53.5296C64.6778 54.9779 64.0994 56.365 63.0753 57.3891C62.0512 58.4132 60.6641 58.9916 59.2158 58.9984ZM59.2158 49.3338C58.386 49.3338 57.5748 49.5798 56.8848 50.0409C56.1948 50.5019 55.657 51.1572 55.3394 51.9239C55.0218 52.6906 54.9388 53.5342 55.1007 54.3482C55.2626 55.1621 55.6621 55.9097 56.2489 56.4965C56.8357 57.0833 57.5833 57.4828 58.3972 57.6447C59.2112 57.8066 60.0548 57.7235 60.8215 57.406C61.5882 57.0884 62.2435 56.5506 62.7045 55.8606C63.1656 55.1706 63.4116 54.3594 63.4116 53.5296C63.4116 52.4168 62.9695 51.3496 62.1827 50.5627C61.3958 49.7759 60.3286 49.3338 59.2158 49.3338ZM56.4576 32.8659C57.294 33.3499 58.2455 33.6051 59.2158 33.6029C60.6664 33.596 62.0553 33.0159 63.0799 31.9889C64.1044 30.962 64.6812 29.5717 64.6846 28.1211C64.6846 27.0363 64.3628 25.9759 63.7599 25.0742C63.157 24.1724 62.3001 23.4698 61.2976 23.0553C60.2952 22.6407 59.1924 22.533 58.1286 22.7456C57.0649 22.9581 56.0881 23.4815 55.322 24.2495C54.5559 25.0174 54.0348 25.9954 53.8248 27.0596C53.7479 27.4494 53.7139 27.8442 53.7222 28.2375L40.7916 34.9373C40.7239 34.9706 40.6637 35.0172 40.6145 35.0743C40.5652 35.1315 40.5281 35.198 40.5051 35.27C40.4822 35.3418 40.4741 35.4177 40.4814 35.4927C40.4885 35.5678 40.5108 35.6407 40.5468 35.707C40.5956 35.8012 40.6691 35.8803 40.7596 35.9358C40.8499 35.9913 40.9538 36.0211 41.0599 36.0219C41.1489 36.024 41.2371 36.004 41.3165 35.9636L53.8849 29.4514C53.9508 29.7152 54.0367 29.9748 54.1421 30.2278C54.4373 30.9371 54.8769 31.5731 55.4292 32.0971L43.2757 38.4476C43.1594 38.5046 43.0658 38.5995 43.0105 38.7166C42.9551 38.8338 42.9412 38.9663 42.971 39.0924C43.0009 39.2185 43.0727 39.3306 43.1746 39.4106C43.2766 39.4904 43.4027 39.5334 43.5323 39.5322C43.6263 39.5328 43.7187 39.5086 43.8005 39.4622L56.4576 32.8659ZM55.0635 28.7232C55.074 28.7955 55.0863 28.8677 55.1007 28.9396C55.2626 29.7535 55.6621 30.5012 56.2489 31.088C56.8357 31.6747 57.5833 32.0743 58.3972 32.2362C59.2112 32.3981 60.0548 32.315 60.8215 31.9975C61.5882 31.6799 62.2435 31.1421 62.7045 30.4521C63.1656 29.7621 63.4116 28.9509 63.4116 28.1211C63.4184 27.5656 63.315 27.0145 63.1073 26.4995C62.8994 25.9843 62.5915 25.5157 62.2012 25.1205C61.8109 24.7254 61.346 24.4117 60.8336 24.1976C60.3211 23.9835 59.7712 23.8732 59.2158 23.8733V23.9253C58.386 23.9253 57.5748 24.1713 56.8848 24.6324C56.1948 25.0934 55.657 25.7487 55.3394 26.5154C55.1293 27.0227 55.0218 27.5637 55.02 28.1074C55.0374 28.1319 55.053 28.1578 55.0662 28.1849C55.1363 28.3212 55.1499 28.4795 55.104 28.6258C55.0933 28.6597 55.0798 28.6922 55.0635 28.7232ZM36.2624 35.4864C35.2115 35.4864 34.1844 35.798 33.3107 36.3818C32.437 36.9656 31.7559 37.7954 31.3538 38.7662C30.9517 39.737 30.8465 40.8052 31.0515 41.8358C31.2565 42.8665 31.7626 43.8131 32.5055 44.5562C33.2486 45.2991 34.1952 45.8052 35.2259 46.0102C36.2565 46.2152 37.3247 46.11 38.2955 45.7079C39.2663 45.3058 40.0962 44.6247 40.6799 43.751C41.2637 42.8774 41.5753 41.8501 41.5753 40.7993C41.5753 40.1017 41.4379 39.4108 41.1709 38.7662C40.9039 38.1216 40.5125 37.5359 40.0192 37.0425C39.5258 36.5492 38.9401 36.1578 38.2955 35.8908C37.6509 35.6238 36.96 35.4864 36.2624 35.4864ZM56.2674 48.3722C56.356 48.3898 56.4471 48.3898 56.5357 48.3722C56.6408 48.3738 56.7444 48.3463 56.8349 48.2927C56.9255 48.2393 56.9995 48.1618 57.0488 48.069C57.1159 47.9321 57.1279 47.7748 57.0822 47.6294C57.0367 47.4841 56.937 47.3616 56.8039 47.2876L43.8005 40.5351C43.6644 40.4656 43.5062 40.4529 43.3609 40.4999C43.2154 40.5469 43.0945 40.6499 43.025 40.7859C42.9554 40.922 42.9427 41.0802 42.9897 41.2256C43.0367 41.371 43.1397 41.4919 43.2757 41.5615L56.2674 48.3722Z" fill="#FF8618"/>
<mask id="mask0_515_75" style="mask-type:luminance" maskUnits="userSpaceOnUse" x="11" y="6" width="75" height="86">
<path d="M85.718 6.63281H11.4912V91.7462H85.718V6.63281Z" fill="white"/>
<path fill-rule="evenodd" clip-rule="evenodd" d="M58.3185 90.7551H22.5438C22.4417 90.7547 22.3412 90.7296 22.2508 90.6821C22.1603 90.6347 22.0826 90.5661 22.0242 90.4823C21.967 90.3975 21.9302 90.3006 21.9167 90.1992C21.9031 90.0978 21.9133 89.9946 21.9463 89.8978C22.375 88.6897 23.1674 85.8448 23.4792 84.5978C24.731 79.7111 24.9231 74.6131 24.0426 69.646C23.1621 64.6789 21.2293 59.9576 18.3741 55.7989C13.4248 48.1608 7.12466 33.1962 20.5045 18.8941C30.0521 8.70997 42.6654 7.19014 51.5636 7.70973C59.4944 8.03275 67.0512 11.1687 72.8804 16.556C75.408 18.9064 77.4364 21.7418 78.8447 24.893C80.2529 28.0443 81.0122 31.4469 81.0771 34.8979C81.0806 37.5383 80.4994 40.1468 79.3754 42.5361C78.9745 43.3086 78.7653 44.1663 78.7653 45.0366C78.7653 45.907 78.9745 46.7646 79.3754 47.5373L79.4707 47.7123C79.7649 48.2527 80.1169 48.8996 80.4795 49.4727C82.9736 53.7594 84.8312 57.1759 84.2726 58.9425C84.2104 59.1577 84.1029 59.3571 83.9572 59.5275C83.8116 59.6977 83.6313 59.8349 83.4283 59.9298C82.281 60.4291 81.0833 60.8036 79.856 61.0468C79.7802 62.5029 79.8237 63.9627 79.9859 65.4116C80.0294 65.7419 79.9852 66.078 79.8574 66.3859C79.7297 66.6938 79.5231 66.9626 79.2584 67.1652L78.0893 67.9446L78.531 68.9449C78.6898 69.3633 78.6898 69.8254 78.531 70.2438C78.1053 71.2535 77.4411 72.1449 76.5955 72.8419C76.2989 73.4879 76.2663 74.2244 76.5045 74.8943C77.0478 76.5097 76.9502 78.272 76.2318 79.8175C75.9425 80.2922 75.5574 80.7014 75.1011 81.019C74.6449 81.3366 74.1274 81.5556 73.5818 81.6621C71.5199 82.0058 69.4178 82.0364 67.3466 81.753L66.0476 81.6621C65.1059 81.5759 64.1569 81.7027 63.2708 82.0333C62.3848 82.3639 61.5845 82.8896 60.9295 83.5716C60.1533 84.4031 59.5683 85.3946 59.216 86.4762C58.8638 87.5579 58.7524 88.7035 58.89 89.8328C58.9167 89.9744 58.9167 90.1199 58.89 90.2615C58.8599 90.394 58.7883 90.5134 58.6853 90.6023C58.5825 90.691 58.454 90.7446 58.3185 90.7551ZM23.4272 89.4561H57.656C57.5734 88.2164 57.7503 86.9731 58.1753 85.8055C58.6002 84.638 59.264 83.5719 60.1242 82.6753C60.9112 81.8748 61.8618 81.2537 62.911 80.8547C63.9603 80.4557 65.0834 80.2879 66.2034 80.363L67.5025 80.467C69.4369 80.7164 71.3976 80.6814 73.322 80.363C73.7052 80.3017 74.0711 80.16 74.3957 79.9474C74.7203 79.7347 74.9962 79.4558 75.2056 79.129C75.7523 77.8973 75.808 76.5034 75.3614 75.232C75.1911 74.7135 75.1343 74.1644 75.1948 73.622C75.2553 73.0797 75.4318 72.5566 75.7122 72.0884C75.7363 72.0412 75.7721 72.001 75.8161 71.9715C76.5241 71.415 77.0896 70.6982 77.4658 69.8801C77.5172 69.7508 77.5172 69.6068 77.4658 69.4774L76.8033 67.9836C76.7417 67.8452 76.7314 67.6895 76.7742 67.5443C76.8171 67.3991 76.9103 67.2739 77.0372 67.1911L78.622 66.139C78.6974 66.066 78.7544 65.9761 78.7882 65.8767C78.8222 65.7773 78.832 65.6713 78.8168 65.5674C78.6254 63.8724 78.595 62.1631 78.7259 60.4623C78.7363 60.3206 78.7947 60.1867 78.8916 60.0828C78.9885 59.9789 79.1179 59.9111 79.2584 59.8908C80.5379 59.6604 81.7881 59.2901 82.9866 58.7866C83.0296 58.7684 83.0675 58.7399 83.0969 58.7036C83.1264 58.6674 83.1464 58.6246 83.1554 58.5787C83.5842 57.2018 81.0122 52.7722 79.4793 50.1352C79.0636 49.4207 78.6739 48.7453 78.3491 48.1608C77.8646 47.2116 77.6118 46.1609 77.6118 45.0951C77.6118 44.0293 77.8646 42.9786 78.3491 42.0294C79.3508 39.788 79.8432 37.3525 79.7911 34.8979C79.7327 31.6151 79.0124 28.3779 77.6732 25.3803C76.3339 22.3826 74.4033 19.6861 71.997 17.4522C66.3806 12.2862 59.1108 9.28434 51.4857 8.98276C42.8603 8.47615 30.7016 9.94406 21.4397 19.7775C8.65749 33.443 14.6589 47.771 19.4393 55.1104C22.3972 59.4119 24.3996 64.2971 25.3116 69.4371C26.2235 74.5773 26.0239 79.853 24.7262 84.9096C24.4534 85.9618 23.8819 88.0532 23.4272 89.4561ZM59.2148 58.9945C58.1295 58.9971 57.0679 58.6774 56.1644 58.0761C55.2609 57.4746 54.5564 56.6187 54.1398 55.6165C53.7233 54.6142 53.6137 53.511 53.8248 52.4464C53.8581 52.2783 53.8992 52.1123 53.9478 51.949L41.0803 45.2819C41.0265 45.3399 40.9715 45.397 40.9153 45.4533C39.6814 46.6897 38.0082 47.3875 36.2614 47.3944C34.9557 47.3969 33.6786 47.0121 32.5917 46.2886C31.5048 45.565 30.657 44.5353 30.1555 43.3298C29.6541 42.1241 29.5215 40.797 29.7747 39.516C30.0279 38.2351 30.6553 37.058 31.5776 36.1339C32.5 35.2097 33.6758 34.5799 34.9562 34.3242C36.2367 34.0686 37.5642 34.1985 38.7707 34.6976C39.9772 35.1966 41.0087 36.0424 41.7343 37.1279C42.46 38.2134 42.8473 39.4897 42.8473 40.7954C42.8448 42.0712 42.4737 43.3084 41.793 44.3646L54.3879 50.8904C54.6375 50.4322 54.9526 50.0095 55.3256 49.6365C56.0931 48.8691 57.0711 48.3467 58.1356 48.1356C59.2002 47.9245 60.3035 48.0342 61.3057 48.4506C62.3078 48.8672 63.1639 49.5718 63.7652 50.4753C64.3666 51.3787 64.6862 52.4404 64.6837 53.5257C64.6768 54.974 64.0985 56.361 63.0743 57.3852C62.0502 58.4093 60.6631 58.9877 59.2148 58.9945ZM59.2148 49.3299C58.385 49.3299 57.5738 49.5759 56.8838 50.037C56.1938 50.498 55.656 51.1533 55.3384 51.92C55.0208 52.6867 54.9378 53.5303 55.0997 54.3443C55.2616 55.1582 55.6611 55.9058 56.2479 56.4926C56.8347 57.0794 57.5823 57.4789 58.3963 57.6408C59.2102 57.8027 60.0538 57.7196 60.8205 57.4021C61.5872 57.0845 62.2425 56.5467 62.7035 55.8567C63.1646 55.1667 63.4106 54.3555 63.4106 53.5257C63.4106 52.4129 62.9685 51.3457 62.1817 50.5588C61.3948 49.772 60.3276 49.3299 59.2148 49.3299ZM56.4567 32.862C57.2931 33.346 58.2445 33.6012 59.2148 33.599C60.6654 33.5921 62.0544 33.012 63.0789 31.985C64.1034 30.9581 64.6802 29.5677 64.6837 28.1172C64.6837 27.0324 64.3618 25.972 63.7589 25.0703C63.156 24.1685 62.2991 23.4659 61.2966 23.0514C60.2942 22.6368 59.1914 22.5291 58.1277 22.7417C57.0639 22.9542 56.0871 23.4776 55.321 24.2456C54.5549 25.0135 54.0338 25.9915 53.8238 27.0557C53.7469 27.4455 53.7129 27.8403 53.7213 28.2336L40.7906 34.9334C40.723 34.9667 40.6627 35.0133 40.6135 35.0704C40.5642 35.1276 40.5271 35.1941 40.5041 35.2661C40.4813 35.3379 40.4732 35.4137 40.4804 35.4888C40.4875 35.5639 40.5098 35.6368 40.5458 35.7031C40.5946 35.7973 40.6681 35.8764 40.7586 35.9319C40.8489 35.9874 40.9529 36.0172 41.059 36.018C41.1479 36.0201 41.2361 36.0001 41.3155 35.9597L53.884 29.4475C53.9499 29.7113 54.0357 29.9708 54.1411 30.2239C54.4363 30.9332 54.8759 31.5692 55.4282 32.0932L43.2748 38.4437C43.1584 38.5007 43.0649 38.5956 43.0095 38.7127C42.9541 38.8299 42.9403 38.9624 42.97 39.0885C42.9999 39.2146 43.0717 39.3267 43.1736 39.4067C43.2757 39.4865 43.4017 39.5295 43.5313 39.5283C43.6253 39.5289 43.7178 39.5047 43.7995 39.4583L56.4567 32.862ZM55.0625 28.7193C55.073 28.7916 55.0853 28.8638 55.0997 28.9357C55.2616 29.7496 55.6611 30.4973 56.2479 31.0841C56.8347 31.6708 57.5823 32.0704 58.3963 32.2323C59.2102 32.3942 60.0538 32.3111 60.8205 31.9936C61.5872 31.676 62.2425 31.1382 62.7035 30.4482C63.1646 29.7582 63.4106 28.947 63.4106 28.1172C63.4175 27.5617 63.314 27.0106 63.1063 26.4955C62.8985 25.9804 62.5906 25.5118 62.2002 25.1166C61.8099 24.7215 61.345 24.4078 60.8326 24.1937C60.3201 23.9796 59.7702 23.8693 59.2148 23.8694V23.9214C58.385 23.9214 57.5738 24.1674 56.8838 24.6285C56.1938 25.0895 55.656 25.7448 55.3384 26.5115C55.1283 27.0188 55.0208 27.5598 55.019 28.1035C55.0365 28.1279 55.052 28.1539 55.0653 28.181C55.1353 28.3173 55.1489 28.4756 55.1031 28.6219C55.0924 28.6557 55.0788 28.6883 55.0625 28.7193ZM36.2614 35.4825C35.2106 35.4825 34.1834 35.7941 33.3097 36.3779C32.436 36.9617 31.755 37.7915 31.3529 38.7623C30.9507 39.7331 30.8455 40.8013 31.0505 41.8319C31.2556 42.8626 31.7616 43.8092 32.5046 44.5523C33.2476 45.2952 34.1943 45.8012 35.2249 46.0063C36.2555 46.2113 37.3238 46.1061 38.2946 45.704C39.2653 45.3018 40.0952 44.6208 40.6789 43.7471C41.2627 42.8734 41.5743 41.8462 41.5743 40.7954C41.5743 40.0978 41.4369 39.4069 41.1699 38.7623C40.9029 38.1177 40.5116 37.532 40.0182 37.0386C39.5248 36.5453 38.9391 36.1539 38.2946 35.8869C37.65 35.6199 36.9591 35.4825 36.2614 35.4825ZM56.2664 48.3683C56.355 48.3859 56.4462 48.3859 56.5347 48.3683C56.6399 48.3699 56.7434 48.3424 56.8339 48.2888C56.9245 48.2354 56.9985 48.1579 57.0478 48.0651C57.1149 47.9282 57.1269 47.7709 57.0813 47.6255C57.0357 47.4802 56.9361 47.3577 56.803 47.2837L43.7995 40.5312C43.6634 40.4617 43.5053 40.449 43.3599 40.496C43.2144 40.543 43.0936 40.6459 43.024 40.782C42.9544 40.9181 42.9417 41.0763 42.9888 41.2216C43.0358 41.3671 43.1387 41.488 43.2748 41.5575L56.2664 48.3683Z" fill="black"/>
</mask>
<g mask="url(#mask0_515_75)">
<path d="M22.5446 90.7548L22.5424 91.2546H22.5446V90.7548ZM58.3192 90.7548V91.2546H58.3386L58.3578 91.2531L58.3192 90.7548ZM22.025 90.482L21.6107 90.7617L21.6149 90.7677L22.025 90.482ZM21.9471 89.8975L21.476 89.7304L21.474 89.7361L21.9471 89.8975ZM23.4799 84.5975L22.9958 84.4735L22.995 84.4763L23.4799 84.5975ZM18.3748 55.7986L17.9552 56.0705L17.9628 56.0815L18.3748 55.7986ZM51.5644 7.70946L51.5353 8.20848L51.5441 8.20884L51.5644 7.70946ZM72.8812 16.5557L73.2215 16.1897L73.2203 16.1886L72.8812 16.5557ZM81.0779 34.8976L81.5778 34.897L81.5776 34.8882L81.0779 34.8976ZM79.3762 42.5358L79.8198 42.766L79.8242 42.7574L79.8284 42.7486L79.3762 42.5358ZM79.3762 47.537L78.9324 47.7672L78.9373 47.776L79.3762 47.537ZM80.4803 49.4724L80.9123 49.2211L80.9077 49.2131L80.9027 49.2052L80.4803 49.4724ZM84.2734 58.9422L83.7968 58.7915L83.7933 58.8033L84.2734 58.9422ZM83.4291 59.9295L83.6286 60.3879L83.6407 60.3822L83.4291 59.9295ZM79.8568 61.0466L79.7596 60.5564L79.3779 60.632L79.3577 61.0206L79.8568 61.0466ZM79.9866 65.4113L79.4899 65.4669L79.4912 65.4765L79.9866 65.4113ZM79.2592 67.1649L79.5365 67.5808L79.5501 67.5717L79.5631 67.5618L79.2592 67.1649ZM78.0901 67.9443L77.8129 67.5284L77.4631 67.7616L77.633 68.1462L78.0901 67.9443ZM78.5318 68.9446L78.9991 68.7673L78.9944 68.7549L78.989 68.7427L78.5318 68.9446ZM78.5318 70.2436L78.9923 70.4377L78.9959 70.4293L78.9991 70.4208L78.5318 70.2436ZM76.5963 72.8416L76.2785 72.4559L76.1899 72.5289L76.1421 72.6331L76.5963 72.8416ZM76.5053 74.894L76.9792 74.7347L76.9762 74.7265L76.5053 74.894ZM76.2326 79.8172L76.6593 80.0773L76.674 80.0534L76.6858 80.0278L76.2326 79.8172ZM73.5825 81.6618L73.6648 82.155L73.6783 82.1523L73.5825 81.6618ZM67.3474 81.7528L67.4151 81.2575L67.3988 81.2554L67.3822 81.2542L67.3474 81.7528ZM66.0483 81.6618L66.0028 82.1596L66.0135 82.1604L66.0483 81.6618ZM60.9302 83.5713L60.5698 83.225L60.5649 83.2303L60.9302 83.5713ZM58.8908 89.8325L58.3947 89.893L58.3966 89.9092L58.3997 89.9252L58.8908 89.8325ZM58.8908 90.2612L59.3782 90.3719L59.3803 90.363L59.382 90.3539L58.8908 90.2612ZM57.6567 89.4558V89.9556H58.191L58.1554 89.4226L57.6567 89.4558ZM23.428 89.4558L22.9525 89.3017L22.7407 89.9556H23.428V89.4558ZM60.1249 82.6751L59.7684 82.3246L59.7642 82.3291L60.1249 82.6751ZM66.2042 80.3628L66.2441 79.8645L66.2377 79.8641L66.2042 80.3628ZM67.5033 80.4668L67.5671 79.971L67.5551 79.9694L67.5431 79.9686L67.5033 80.4668ZM73.3228 80.3628L73.2438 79.8693L73.2412 79.8697L73.3228 80.3628ZM75.2063 79.1287L75.6273 79.3983L75.6477 79.3662L75.6632 79.3315L75.2063 79.1287ZM75.3622 75.2317L74.8873 75.3878L74.8906 75.3974L75.3622 75.2317ZM75.713 72.0881L76.1417 72.345L76.1503 72.3306L76.1578 72.3159L75.713 72.0881ZM75.8169 71.9713L76.0952 72.3864L76.1108 72.3759L76.1257 72.3642L75.8169 71.9713ZM77.4666 69.8798L77.9207 70.0887L77.9262 70.0766L77.9311 70.0643L77.4666 69.8798ZM77.4666 69.4771L77.9311 69.2927L77.9275 69.2836L77.9235 69.2745L77.4666 69.4771ZM77.038 67.1909L77.3108 67.6096L77.3144 67.6072L77.038 67.1909ZM78.6228 66.1387L78.8992 66.5551L78.9374 66.5297L78.9703 66.4978L78.6228 66.1387ZM78.8176 65.5672L78.3209 65.6232L78.3219 65.6312L78.323 65.6391L78.8176 65.5672ZM78.7267 60.462L79.225 60.5004L79.2251 60.4986L78.7267 60.462ZM79.2592 59.8905L79.3308 60.3852L79.3393 60.3839L79.3478 60.3824L79.2592 59.8905ZM82.9874 58.7863L83.181 59.2471L83.1825 59.2465L82.9874 58.7863ZM83.1562 58.5785L82.6791 58.4299L82.6711 58.4556L82.6659 58.4818L83.1562 58.5785ZM78.3499 48.1605L77.9048 48.3877L77.9088 48.3955L77.913 48.4032L78.3499 48.1605ZM78.3499 42.0292L78.7951 42.2564L78.801 42.2449L78.8062 42.233L78.3499 42.0292ZM79.7919 34.8976L79.2921 34.9066L79.2922 34.9082L79.7919 34.8976ZM71.9978 17.452L72.3378 17.0857L72.3361 17.0841L71.9978 17.452ZM51.4865 8.98249L51.4572 9.48151L51.4667 9.48189L51.4865 8.98249ZM21.4405 19.7773L21.0767 19.4345L21.0755 19.4358L21.4405 19.7773ZM19.44 55.1101L19.0211 55.383L19.0282 55.3934L19.44 55.1101ZM24.727 84.9093L25.2108 85.0348L25.2111 85.0336L24.727 84.9093ZM59.2156 58.9942L59.2168 59.494H59.218L59.2156 58.9942ZM53.9486 51.9487L54.4276 52.0912L54.5455 51.6951L54.1786 51.505L53.9486 51.9487ZM41.0811 45.2816L41.311 44.8378L40.9735 44.663L40.7149 44.9415L41.0811 45.2816ZM41.7938 44.3643L41.3737 44.0936L41.0761 44.5553L41.5639 44.8081L41.7938 44.3643ZM54.3887 50.8902L54.1588 51.3339L54.5935 51.5592L54.8276 51.1293L54.3887 50.8902ZM64.6844 53.5254L65.1842 53.5278V53.5266L64.6844 53.5254ZM56.4574 32.8618L56.7077 32.4292L56.47 32.2916L56.2264 32.4186L56.4574 32.8618ZM59.2156 33.5987L59.2168 34.0985H59.218L59.2156 33.5987ZM64.6844 28.1169L65.1842 28.1181V28.1169H64.6844ZM53.722 28.2334L53.9519 28.677L54.2284 28.5339L54.2217 28.2227L53.722 28.2334ZM40.7914 34.9331L41.0119 35.3818L41.0214 35.3769L40.7914 34.9331ZM40.5466 35.7029L40.9904 35.4729L40.9857 35.4641L40.5466 35.7029ZM41.0597 36.0177L41.0718 35.518L41.0637 35.5179L41.0597 36.0177ZM41.3163 35.9594L41.5432 36.4047L41.5462 36.4032L41.3163 35.9594ZM53.8847 29.4472L54.3696 29.326L54.2161 28.7127L53.6547 29.0034L53.8847 29.4472ZM55.4289 32.093L55.6604 32.5359L56.2804 32.212L55.773 31.7305L55.4289 32.093ZM43.2755 38.4434L43.4955 38.8924L43.5069 38.8864L43.2755 38.4434ZM43.5321 39.528L43.5351 39.0282H43.5276L43.5321 39.528ZM43.8003 39.458L43.5693 39.0149L43.5614 39.019L43.5534 39.0235L43.8003 39.458ZM55.0633 28.719L54.6211 28.486L54.5453 28.6298L54.5686 28.7908L55.0633 28.719ZM63.4114 28.1169L62.9116 28.1106V28.1169H63.4114ZM59.2156 23.8691V23.3693H58.7158V23.8691H59.2156ZM59.2156 23.9211V24.4209H59.7154V23.9211H59.2156ZM55.0198 28.1032L54.52 28.1015L54.5195 28.2621L54.6126 28.3928L55.0198 28.1032ZM55.066 28.1807L54.6174 28.4012L54.6215 28.4091L55.066 28.1807ZM56.5355 48.368L56.5429 47.8682L56.49 47.8674L56.438 47.8778L56.5355 48.368ZM56.2672 48.368L56.0352 48.8106L56.0991 48.8442L56.1698 48.8582L56.2672 48.368ZM57.0486 48.0648L57.49 48.2993L57.4938 48.292L57.4975 48.2846L57.0486 48.0648ZM56.8037 47.2834L57.0468 46.8467L57.0405 46.8432L57.034 46.8398L56.8037 47.2834ZM43.8003 40.531L44.0307 40.0874L44.0278 40.086L43.8003 40.531ZM43.2755 41.5573L43.5076 41.1146L43.5031 41.1123L43.2755 41.5573ZM22.5446 91.2546H58.3192V90.255H22.5446V91.2546ZM22.0192 91.1245C22.1807 91.2092 22.3601 91.2538 22.5424 91.2546L22.5468 90.255C22.5249 90.2549 22.5032 90.2496 22.4838 90.2394L22.0192 91.1245ZM21.6149 90.7677C21.7191 90.9173 21.8577 91.0396 22.0192 91.1245L22.4838 90.2394C22.4644 90.2292 22.4477 90.2144 22.4352 90.1964L21.6149 90.7677ZM21.422 90.265C21.4457 90.4429 21.5103 90.6129 21.6107 90.7617L22.4393 90.2024C22.4252 90.1816 22.4161 90.1578 22.4129 90.1329L21.422 90.265ZM21.474 89.7361C21.4161 89.906 21.3983 90.0871 21.422 90.265L22.4129 90.1329C22.4095 90.1079 22.412 90.0826 22.4201 90.0588L21.474 89.7361ZM22.995 84.4763C22.6843 85.719 21.8965 88.5452 21.476 89.7304L22.4181 90.0646C22.855 88.8336 23.652 85.9702 23.9648 84.7188L22.995 84.4763ZM23.5513 69.733C24.4194 74.6299 24.2299 79.6558 22.9958 84.4735L23.9641 84.7215C25.2336 79.7658 25.4285 74.5958 24.5356 69.5585L23.5513 69.733ZM17.9628 56.0815C20.7778 60.1815 22.6831 64.8361 23.5513 69.733L24.5356 69.5585C23.6426 64.5212 21.6825 59.7331 18.7868 55.5158L17.9628 56.0815ZM20.1405 18.552C13.352 25.8085 11.5363 33.2651 12.0684 39.8853C12.5989 46.4835 15.457 52.2151 17.9552 56.0705L18.7943 55.5269C16.3433 51.7442 13.5768 46.1743 13.0648 39.8051C12.5546 33.458 14.279 26.2809 20.8701 19.2353L20.1405 18.552ZM51.5936 7.21051C42.6254 6.68683 29.8333 8.21324 20.1405 18.552L20.8701 19.2353C30.2729 9.20575 42.7071 7.69296 51.5353 8.20848L51.5936 7.21051ZM73.2203 16.1886C67.304 10.7208 59.6342 7.53792 51.5848 7.21008L51.5441 8.20884C59.3562 8.52702 66.7999 11.6161 72.5419 16.9227L73.2203 16.1886ZM79.3018 24.6889C77.8661 21.4763 75.7983 18.5859 73.2215 16.1897L72.5408 16.9217C75.0193 19.2265 77.0083 22.0067 78.3891 25.0967L79.3018 24.6889ZM81.5776 34.8882C81.5114 31.3701 80.7373 27.9014 79.3018 24.6889L78.3891 25.0967C79.77 28.1867 80.5144 31.5231 80.5782 34.907L81.5776 34.8882ZM79.8284 42.7486C80.9839 40.2926 81.5813 37.6112 81.5778 34.897L80.5781 34.8982C80.5814 37.4649 80.0165 40.0005 78.9239 42.323L79.8284 42.7486ZM79.2658 45.0363C79.2658 44.2461 79.4559 43.4674 79.8198 42.766L78.9325 42.3056C78.4948 43.1493 78.2663 44.0858 78.2663 45.0363H79.2658ZM79.8198 47.3068C79.4559 46.6053 79.2658 45.8266 79.2658 45.0363H78.2663C78.2663 45.9868 78.4947 46.9235 78.9324 47.7672L79.8198 47.3068ZM79.9105 47.4731L79.815 47.2979L78.9373 47.776L79.0326 47.9511L79.9105 47.4731ZM80.9027 49.2052C80.5504 48.6484 80.2061 48.0162 79.9105 47.4731L79.0326 47.9511C79.3252 48.4888 79.6851 49.1503 80.0579 49.7396L80.9027 49.2052ZM84.7499 59.0929C84.9262 58.5356 84.8995 57.8941 84.7561 57.2166C84.6117 56.5343 84.3394 55.7728 83.9794 54.9517C83.2598 53.3108 82.1575 51.3614 80.9123 49.2211L80.0483 49.7238C81.2972 51.8703 82.3707 53.7723 83.0639 55.3531C83.4102 56.1427 83.6534 56.8345 83.7781 57.4236C83.9038 58.0174 83.8999 58.4653 83.7968 58.7915L84.7499 59.0929ZM84.3378 59.852C84.5297 59.6275 84.6715 59.3647 84.7535 59.081L83.7933 58.8033C83.7508 58.9501 83.6775 59.0862 83.5781 59.2023L84.3378 59.852ZM83.6407 60.3822C83.9082 60.2572 84.1459 60.0764 84.3378 59.852L83.5781 59.2023C83.4789 59.3185 83.3558 59.412 83.2174 59.4767L83.6407 60.3822ZM79.954 61.5369C81.2164 61.2866 82.4485 60.9016 83.6286 60.3879L83.2296 59.4712C82.1152 59.9562 80.9518 60.32 79.7596 60.5564L79.954 61.5369ZM80.4834 65.3556C80.3241 63.9338 80.2815 62.5013 80.3559 61.0726L79.3577 61.0206C79.2804 62.5038 79.3245 63.9909 79.4899 65.4669L80.4834 65.3556ZM80.3199 66.5772C80.4812 66.1882 80.5372 65.7635 80.4822 65.346L79.4912 65.4765C79.5233 65.7199 79.4906 65.9674 79.3966 66.1941L80.3199 66.5772ZM79.5631 67.5618C79.8975 67.3058 80.1585 66.9662 80.3199 66.5772L79.3966 66.1941C79.3025 66.4209 79.1504 66.6188 78.9555 66.7681L79.5631 67.5618ZM78.3674 68.3602L79.5365 67.5808L78.982 66.7491L77.8129 67.5284L78.3674 68.3602ZM78.989 68.7427L78.5473 67.7424L77.633 68.1462L78.0746 69.1464L78.989 68.7427ZM78.9991 70.4208C79.2011 69.8882 79.2011 69.3 78.9991 68.7673L78.0645 69.1217C78.1799 69.4261 78.1799 69.7621 78.0645 70.0663L78.9991 70.4208ZM76.9141 73.2273C77.8221 72.479 78.5352 71.5218 78.9923 70.4377L78.0713 70.0494C77.6769 70.9846 77.0617 71.8103 76.2785 72.4559L76.9141 73.2273ZM76.9762 74.7265C76.7816 74.1794 76.8083 73.5778 77.0505 73.05L76.1421 72.6331C75.7911 73.3976 75.7524 74.2689 76.0345 75.0615L76.9762 74.7265ZM76.6858 80.0278C77.4582 78.3662 77.5632 76.4715 76.9792 74.7347L76.0316 75.0533C76.534 76.5473 76.4437 78.1772 75.7794 79.6065L76.6858 80.0278ZM75.3874 81.4288C75.9007 81.0717 76.3339 80.6114 76.6593 80.0773L75.8058 79.5571C75.5526 79.9725 75.2156 80.3306 74.8164 80.6085L75.3874 81.4288ZM73.6783 82.1523C74.2921 82.0326 74.8742 81.7861 75.3874 81.4288L74.8164 80.6085C74.4172 80.8864 73.9643 81.0781 73.4868 81.1712L73.6783 82.1523ZM67.2796 82.2479C69.4005 82.5382 71.5532 82.5069 73.6648 82.155L73.5004 81.1689C71.488 81.5043 69.4364 81.5341 67.4151 81.2575L67.2796 82.2479ZM66.0135 82.1604L67.3125 82.2513L67.3822 81.2542L66.0833 81.1632L66.0135 82.1604ZM63.4463 82.5013C64.262 82.1969 65.1357 82.0803 66.0028 82.1596L66.094 81.1641C65.0775 81.071 64.0532 81.2079 63.0969 81.5647L63.4463 82.5013ZM61.2907 83.9176C61.8938 83.2897 62.6305 82.8056 63.4463 82.5013L63.0969 81.5647C62.1406 81.9215 61.2769 82.4889 60.5698 83.225L61.2907 83.9176ZM59.692 86.6308C60.0218 85.6185 60.5691 84.6907 61.2956 83.9124L60.5649 83.2303C59.7389 84.1152 59.1165 85.1702 58.7416 86.3212L59.692 86.6308ZM59.3869 89.7721C59.2582 88.7152 59.3624 87.643 59.692 86.6308L58.7416 86.3212C58.3667 87.4722 58.2483 88.6914 58.3947 89.893L59.3869 89.7721ZM59.382 90.3539C59.4203 90.151 59.4203 89.9428 59.382 89.7399L58.3997 89.9252C58.4148 90.0056 58.4148 90.0881 58.3997 90.1686L59.382 90.3539ZM59.0128 90.9802C59.1964 90.8216 59.3245 90.6085 59.3782 90.3719L58.4035 90.1505C58.397 90.179 58.3816 90.2046 58.3595 90.2237L59.0128 90.9802ZM58.3578 91.2531C58.5997 91.2344 58.8292 91.1388 59.0128 90.9802L58.3595 90.2237C58.3374 90.2427 58.3097 90.2543 58.2806 90.2565L58.3578 91.2531ZM57.6567 88.956H23.428V89.9556H57.6567V88.956ZM57.7064 85.6343C57.2577 86.8671 57.0709 88.18 57.158 89.4891L58.1554 89.4226C58.0776 88.2523 58.2445 87.0785 58.6457 85.9762L57.7064 85.6343ZM59.7642 82.3291C58.8559 83.2758 58.1551 84.4015 57.7064 85.6343L58.6457 85.9762C59.0469 84.874 59.6735 83.8674 60.4856 83.0211L59.7642 82.3291ZM62.7342 80.3873C61.6176 80.812 60.606 81.4728 59.7684 82.3246L60.4813 83.0254C61.2178 82.2763 62.1076 81.6951 63.0895 81.3216L62.7342 80.3873ZM66.2377 79.8641C65.0458 79.7842 63.8507 79.9626 62.7342 80.3873L63.0895 81.3216C64.0715 80.9482 65.1226 80.7912 66.1708 80.8615L66.2377 79.8641ZM67.5431 79.9686L66.2441 79.8645L66.1644 80.861L67.4634 80.9649L67.5431 79.9686ZM73.2412 79.8697C71.365 80.1801 69.4534 80.2142 67.5671 79.971L67.4393 80.9624C69.4222 81.2181 71.4318 81.1822 73.4044 80.8559L73.2412 79.8697ZM74.1225 79.529C73.8569 79.7031 73.5574 79.819 73.2438 79.8693L73.4018 80.8563C73.8545 80.7838 74.2868 80.6164 74.6703 80.3651L74.1225 79.529ZM74.7854 78.8592C74.6142 79.1267 74.3883 79.355 74.1225 79.529L74.6703 80.3651C75.0539 80.1138 75.3799 79.7844 75.6273 79.3983L74.7854 78.8592ZM74.8906 75.3974C75.295 76.5486 75.2445 77.8107 74.7495 78.926L75.6632 79.3315C76.2615 77.9834 76.3226 76.4577 75.8338 75.0661L74.8906 75.3974ZM74.6988 73.5663C74.6304 74.18 74.6946 74.8012 74.8873 75.3878L75.8371 75.0757C75.6891 74.6253 75.6397 74.1484 75.6923 73.6772L74.6988 73.5663ZM75.2842 71.8313C74.9669 72.361 74.7673 72.9527 74.6988 73.5663L75.6923 73.6772C75.7448 73.206 75.8981 72.7516 76.1417 72.345L75.2842 71.8313ZM75.5386 71.5561C75.424 71.6329 75.3309 71.7376 75.2681 71.8604L76.1578 72.3159C76.1433 72.3443 76.1217 72.3686 76.0952 72.3864L75.5386 71.5561ZM77.0125 69.671C76.6694 70.4171 76.1538 71.0708 75.5081 71.5783L76.1257 72.3642C76.896 71.7588 77.5113 70.9788 77.9207 70.0887L77.0125 69.671ZM77.0021 69.6616C77.0064 69.6724 77.0064 69.6845 77.0021 69.6954L77.9311 70.0643C78.0295 69.8165 78.0295 69.5405 77.9311 69.2927L77.0021 69.6616ZM76.3473 68.1859L77.0097 69.6797L77.9235 69.2745L77.261 67.7807L76.3473 68.1859ZM76.2957 67.4026C76.2192 67.6619 76.2372 67.939 76.3473 68.1859L77.261 67.7807C77.2478 67.751 77.2452 67.7167 77.2544 67.6854L76.2957 67.4026ZM76.765 66.7722C76.5386 66.9198 76.3722 67.1433 76.2957 67.4026L77.2544 67.6854C77.2636 67.6542 77.2836 67.6274 77.3108 67.6096L76.765 66.7722ZM78.3463 65.7224L76.7615 66.7745L77.3144 67.6072L78.8992 66.5551L78.3463 65.7224ZM78.316 65.7151C78.3077 65.7396 78.2937 65.7616 78.2752 65.7796L78.9703 66.4978C79.1026 66.3697 79.2027 66.2121 79.2621 66.0377L78.316 65.7151ZM78.323 65.6391C78.3267 65.6647 78.3244 65.6907 78.316 65.7151L79.2621 66.0377C79.3216 65.8633 79.3387 65.6773 79.3122 65.4951L78.323 65.6391ZM78.2284 60.4237C78.095 62.1559 78.126 63.8969 78.3209 65.6232L79.3142 65.5111C79.1264 63.8474 79.0965 62.1697 79.225 60.5004L78.2284 60.4237ZM78.5267 59.7418C78.3522 59.929 78.2469 60.1703 78.2282 60.4255L79.2251 60.4986C79.2272 60.4705 79.2387 60.4438 79.258 60.4233L78.5267 59.7418ZM79.1877 59.3959C78.9344 59.4325 78.7011 59.5545 78.5267 59.7418L79.258 60.4233C79.2772 60.4026 79.3029 60.3892 79.3308 60.3852L79.1877 59.3959ZM82.7938 58.3255C81.629 58.8149 80.4141 59.1748 79.1706 59.3986L79.3478 60.3824C80.6633 60.1455 81.9487 59.7648 83.181 59.2471L82.7938 58.3255ZM82.7098 58.3883C82.7318 58.3611 82.7602 58.3398 82.7924 58.3261L83.1825 59.2465C83.3005 59.1964 83.4046 59.1181 83.4856 59.0186L82.7098 58.3883ZM82.6659 58.4818C82.6727 58.4475 82.6877 58.4154 82.7098 58.3883L83.4856 59.0186C83.5665 58.9189 83.6218 58.8011 83.6466 58.6752L82.6659 58.4818ZM79.048 50.3861C79.8162 51.7077 80.8326 53.458 81.6041 55.0475C81.9903 55.8431 82.3075 56.5831 82.5015 57.1992C82.5986 57.5073 82.661 57.7725 82.6883 57.9906C82.7163 58.2146 82.7026 58.354 82.6791 58.4299L83.6335 58.727C83.717 58.4587 83.7167 58.1585 83.6802 57.8664C83.6429 57.5684 83.5627 57.241 83.4549 56.899C83.2395 56.2149 82.8982 55.4246 82.5033 54.611C81.7128 52.9822 80.6768 51.1991 79.9122 49.8837L79.048 50.3861ZM77.913 48.4032C78.2403 48.9924 78.6321 49.6714 79.048 50.3861L79.9122 49.8837C79.4966 49.1696 79.109 48.4977 78.7868 47.9177L77.913 48.4032ZM77.1128 45.0948C77.1128 46.2396 77.3843 47.3681 77.9048 48.3877L78.7951 47.9332C78.3463 47.0543 78.1124 46.0816 78.1124 45.0948H77.1128ZM77.9048 41.8019C77.3843 42.8215 77.1128 43.9501 77.1128 45.0948H78.1124C78.1124 44.108 78.3463 43.1353 78.7951 42.2564L77.9048 41.8019ZM79.2922 34.9082C79.3428 37.2889 78.8651 39.6512 77.8936 41.8253L78.8062 42.233C79.838 39.9242 80.3453 37.4153 80.2916 34.887L79.2922 34.9082ZM77.2176 25.5839C78.5294 28.5202 79.235 31.691 79.2921 34.9066L80.2916 34.8887C80.2321 31.5387 79.4969 28.2352 78.1303 25.1761L77.2176 25.5839ZM71.6578 17.8183C74.0147 20.0063 75.9058 22.6476 77.2176 25.5839L78.1303 25.1761C76.7635 22.117 74.7934 19.3652 72.3378 17.0857L71.6578 17.8183ZM51.4667 9.48189C58.9734 9.77878 66.1303 12.734 71.6595 17.8198L72.3361 17.0841C66.6324 11.8378 59.2498 8.78934 51.5062 8.48308L51.4667 9.48189ZM21.8043 20.1199C30.9215 10.44 42.9022 8.97904 51.4572 9.48151L51.5158 8.48354C42.8199 7.97279 30.4832 9.4475 21.0767 19.4345L21.8043 20.1199ZM19.8588 54.8373C17.4928 51.2048 14.8433 45.8689 14.3524 39.7758C13.8633 33.7048 15.513 26.8459 21.8055 20.1186L21.0755 19.4358C14.5857 26.374 12.845 33.512 13.3561 39.8561C13.8655 46.1784 16.6068 51.6762 19.0211 55.383L19.8588 54.8373ZM25.8044 69.3496C24.88 64.1391 22.8503 59.1872 19.8518 54.827L19.0282 55.3934C21.9457 59.636 23.9208 64.4544 24.8202 69.5242L25.8044 69.3496ZM25.2111 85.0336C26.5265 79.9079 26.7288 74.56 25.8044 69.3496L24.8202 69.5242C25.7197 74.594 25.5229 79.7977 24.2429 84.7851L25.2111 85.0336ZM23.9034 89.6099C24.3627 88.1927 24.9373 86.09 25.2108 85.0348L24.2432 84.7839C23.9711 85.833 23.4026 87.9131 22.9525 89.3017L23.9034 89.6099ZM55.8883 58.4919C56.8741 59.148 58.0325 59.4968 59.2168 59.494L59.2144 58.4944C58.2281 58.4967 57.2632 58.2062 56.4421 57.6597L55.8883 58.4919ZM53.6791 55.808C54.1335 56.9015 54.9024 57.8356 55.8883 58.4919L56.4421 57.6597C55.621 57.1132 54.9806 56.3352 54.6022 55.4244L53.6791 55.808ZM53.3353 52.349C53.105 53.5106 53.2246 54.7144 53.6791 55.808L54.6022 55.4244C54.2236 54.5136 54.1239 53.5109 54.3157 52.5433L53.3353 52.349ZM53.4696 51.8061C53.4165 51.9844 53.3717 52.1655 53.3353 52.349L54.3157 52.5433C54.3461 52.3905 54.3834 52.2397 54.4276 52.0912L53.4696 51.8061ZM54.1786 51.505L41.311 44.8378L40.8512 45.7254L53.7187 52.3924L54.1786 51.505ZM41.2699 45.806C41.3302 45.7455 41.3894 45.6841 41.4474 45.6217L40.7149 44.9415C40.6651 44.9951 40.6143 45.0479 40.5624 45.0999L41.2699 45.806ZM36.2632 47.8939C38.142 47.8865 39.9427 47.1359 41.2699 45.806L40.5624 45.0999C39.4217 46.2429 37.875 46.8879 36.2602 46.8943L36.2632 47.8939ZM32.3155 46.7044C33.4847 47.4827 34.8585 47.8966 36.2632 47.8939L36.2602 46.8943C35.0534 46.8967 33.874 46.541 32.8694 45.8722L32.3155 46.7044ZM29.6948 43.5214C30.2343 44.8183 31.1463 45.926 32.3155 46.7044L32.8694 45.8722C31.8648 45.2035 31.0813 44.2518 30.6178 43.1375L29.6948 43.5214ZM29.2852 39.4189C29.0128 40.7968 29.1554 42.2245 29.6948 43.5214L30.6178 43.1375C30.1543 42.0232 30.0318 40.7966 30.2658 39.6126L29.2852 39.4189ZM31.2247 35.7805C30.2324 36.7747 29.5574 38.0409 29.2852 39.4189L30.2658 39.6126C30.4997 38.4288 31.0797 37.3409 31.9322 36.4867L31.2247 35.7805ZM34.8591 33.8338C33.4818 34.1089 32.2168 34.7864 31.2247 35.7805L31.9322 36.4867C32.7847 35.6325 33.8714 35.0504 35.0549 34.8141L34.8591 33.8338ZM38.9625 34.2354C37.6646 33.6985 36.2366 33.5588 34.8591 33.8338L35.0549 34.8141C36.2384 34.5778 37.4653 34.6978 38.5805 35.1591L38.9625 34.2354ZM42.1506 36.8498C41.37 35.6822 40.2605 34.7724 38.9625 34.2354L38.5805 35.1591C39.6956 35.6204 40.6489 36.4022 41.3196 37.4054L42.1506 36.8498ZM43.3479 40.7961C43.3479 39.3915 42.9312 38.0175 42.1506 36.8498L41.3196 37.4054C41.9903 38.4087 42.3483 39.5884 42.3483 40.7951L43.3479 40.7961ZM42.2139 44.6351C42.946 43.4991 43.3452 42.1684 43.3479 40.7961L42.3483 40.7951C42.346 41.9745 42.0029 43.1172 41.3737 44.0936L42.2139 44.6351ZM41.5639 44.8081L54.1588 51.3339L54.6186 50.4464L42.0237 43.9206L41.5639 44.8081ZM54.973 49.2828C54.566 49.6898 54.2221 50.1511 53.9498 50.6511L54.8276 51.1293C55.0544 50.7128 55.3409 50.3286 55.6798 49.9896L54.973 49.2828ZM58.0392 47.6451C56.8776 47.8755 55.8104 48.4454 54.973 49.2828L55.6798 49.9896C56.3773 49.2922 57.2661 48.8174 58.2336 48.6255L58.0392 47.6451ZM61.4982 47.9889C60.4046 47.5344 59.2008 47.4148 58.0392 47.6451L58.2336 48.6255C59.2011 48.4337 60.2038 48.5334 61.1146 48.9119L61.4982 47.9889ZM64.1821 50.1981C63.5259 49.2122 62.5918 48.4433 61.4982 47.9889L61.1146 48.9119C62.0254 49.2904 62.8034 49.9309 63.3499 50.7519L64.1821 50.1981ZM65.1842 53.5266C65.187 52.3423 64.8382 51.1839 64.1821 50.1981L63.3499 50.7519C63.8964 51.573 64.1869 52.5379 64.1846 53.5242L65.1842 53.5266ZM63.4285 57.7383C64.5458 56.6211 65.1768 55.1078 65.1842 53.5278L64.1846 53.523C64.1784 54.8396 63.6527 56.1005 62.7217 57.0315L63.4285 57.7383ZM59.218 59.494C60.798 59.4865 62.3113 58.8556 63.4285 57.7383L62.7217 57.0315C61.7907 57.9625 60.5298 58.4882 59.2132 58.4944L59.218 59.494ZM57.1622 50.4523C57.7701 50.0462 58.4846 49.8294 59.2156 49.8294V48.8298C58.2869 48.8298 57.379 49.1052 56.6069 49.6212L57.1622 50.4523ZM55.801 52.111C56.0807 51.4357 56.5544 50.8584 57.1622 50.4523L56.6069 49.6212C55.8347 50.1371 55.2329 50.8705 54.8775 51.7285L55.801 52.111ZM55.5907 54.2465C55.448 53.5295 55.5212 52.7864 55.801 52.111L54.8775 51.7285C54.5221 52.5865 54.4291 53.5307 54.6103 54.4415L55.5907 54.2465ZM56.6021 56.1389C56.0852 55.622 55.7333 54.9634 55.5907 54.2465L54.6103 54.4415C54.7914 55.3523 55.2386 56.189 55.8953 56.8457L56.6021 56.1389ZM58.4945 57.1503C57.7776 57.0077 57.119 56.6558 56.6021 56.1389L55.8953 56.8457C56.552 57.5024 57.3887 57.9496 58.2995 58.1307L58.4945 57.1503ZM60.63 56.94C59.9546 57.2198 59.2115 57.293 58.4945 57.1503L58.2995 58.1307C59.2104 58.3119 60.1545 58.2189 61.0125 57.8635L60.63 56.94ZM62.2887 55.5788C61.8826 56.1866 61.3053 56.6604 60.63 56.94L61.0125 57.8635C61.8705 57.5081 62.6039 56.9063 63.1198 56.1341L62.2887 55.5788ZM62.9116 53.5254C62.9116 54.2564 62.6949 54.9709 62.2887 55.5788L63.1198 56.1341C63.6358 55.362 63.9112 54.4541 63.9112 53.5254H62.9116ZM61.8291 50.9119C62.5222 51.6051 62.9116 52.5451 62.9116 53.5254H63.9112C63.9112 52.2801 63.4164 51.0857 62.5359 50.2051L61.8291 50.9119ZM59.2156 49.8294C60.1959 49.8294 61.1359 50.2188 61.8291 50.9119L62.5359 50.2051C61.6553 49.3246 60.4609 48.8298 59.2156 48.8298V49.8294ZM56.2071 33.2943C57.1198 33.8224 58.158 34.1009 59.2168 34.0985L59.2144 33.0989C58.3326 33.101 57.4678 32.869 56.7077 32.4292L56.2071 33.2943ZM59.218 34.0985C60.8005 34.0909 62.3158 33.458 63.4335 32.3377L62.7258 31.6318C61.7945 32.5652 60.5319 33.0926 59.2132 33.0989L59.218 34.0985ZM63.4335 32.3377C64.5511 31.2174 65.1805 29.7006 65.1842 28.1181L64.1846 28.1157C64.1815 29.4344 63.6571 30.6982 62.7258 31.6318L63.4335 32.3377ZM65.1842 28.1169C65.1842 26.9332 64.833 25.7762 64.1751 24.7922L63.3442 25.3478C63.8921 26.1673 64.1846 27.131 64.1846 28.1169H65.1842ZM64.1751 24.7922C63.5173 23.8083 62.5822 23.0415 61.4884 22.5893L61.1064 23.5129C62.0174 23.8897 62.7962 24.5283 63.3442 25.3478L64.1751 24.7922ZM61.4884 22.5893C60.3946 22.137 59.1912 22.0193 58.0304 22.2513L58.2263 23.2315C59.193 23.0383 60.1954 23.1363 61.1064 23.5129L61.4884 22.5893ZM58.0304 22.2513C56.8697 22.4832 55.8039 23.0543 54.9679 23.8923L55.6756 24.5982C56.3719 23.9003 57.2596 23.4247 58.2263 23.2315L58.0304 22.2513ZM54.9679 23.8923C54.132 24.7303 53.5634 25.7973 53.3343 26.9586L54.315 27.1522C54.5058 26.185 54.9793 25.2962 55.6756 24.5982L54.9679 23.8923ZM53.3343 26.9586C53.2502 27.3839 53.2132 27.8148 53.2223 28.244L54.2217 28.2227C54.2141 27.8653 54.245 27.5064 54.315 27.1522L53.3343 26.9586ZM41.0214 35.3769L53.9519 28.677L53.4921 27.7896L40.5615 34.4893L41.0214 35.3769ZM40.9929 35.3964C40.9982 35.3902 41.0047 35.3854 41.0119 35.3818L40.571 34.4845C40.4429 34.5476 40.3287 34.6358 40.2355 34.744L40.9929 35.3964ZM40.9812 35.4173C40.9836 35.4096 40.9877 35.4025 40.9929 35.3964L40.2355 34.744C40.1424 34.8522 40.072 34.9781 40.0287 35.1142L40.9812 35.4173ZM40.9787 35.4412C40.9779 35.4332 40.9788 35.4251 40.9812 35.4173L40.0287 35.1142C39.9854 35.2503 39.9701 35.3938 39.9835 35.5359L40.9787 35.4412ZM40.9857 35.4641C40.9818 35.457 40.9795 35.4492 40.9787 35.4412L39.9835 35.5359C39.9971 35.6781 40.0393 35.816 40.1074 35.9415L40.9857 35.4641ZM41.0207 35.5056C41.0078 35.4977 40.9974 35.4863 40.9904 35.4729L40.1028 35.9327C40.1934 36.1076 40.33 36.2545 40.4979 36.3576L41.0207 35.5056ZM41.0637 35.5179C41.0484 35.5178 41.0337 35.5135 41.0207 35.5056L40.4979 36.3576C40.6657 36.4607 40.8587 36.5159 41.0557 36.5175L41.0637 35.5179ZM41.0893 35.514C41.084 35.5168 41.0779 35.5181 41.0718 35.518L41.0476 36.5174C41.2196 36.5215 41.3899 36.4828 41.5432 36.4047L41.0893 35.514ZM53.6547 29.0034L41.0864 35.5156L41.5462 36.4032L54.1146 29.891L53.6547 29.0034ZM53.3999 29.5686C53.4718 29.8564 53.5655 30.1396 53.6805 30.4157L54.6032 30.0316C54.5074 29.8015 54.4296 29.5657 54.3696 29.326L53.3999 29.5686ZM53.6805 30.4157C54.0026 31.1897 54.4823 31.8836 55.0848 32.4555L55.773 31.7305C55.2711 31.2541 54.8716 30.6762 54.6032 30.0316L53.6805 30.4157ZM43.5069 38.8864L55.6604 32.5359L55.1975 31.6501L43.0441 38.0004L43.5069 38.8864ZM43.4622 38.926C43.4691 38.9113 43.4808 38.8996 43.4955 38.8924L43.0556 37.9946C42.8375 38.1015 42.6621 38.2793 42.5584 38.4989L43.4622 38.926ZM43.4573 38.9731C43.4535 38.9573 43.4552 38.9407 43.4622 38.926L42.5584 38.4989C42.4546 38.7185 42.4286 38.9669 42.4845 39.2032L43.4573 38.9731ZM43.4828 39.013C43.4699 39.003 43.4609 38.9889 43.4573 38.9731L42.4845 39.2032C42.5404 39.4395 42.675 39.6499 42.8661 39.7998L43.4828 39.013ZM43.5276 39.0282C43.5114 39.0284 43.4956 39.023 43.4828 39.013L42.8661 39.7998C43.0573 39.9496 43.2937 40.03 43.5365 40.0278L43.5276 39.0282ZM43.5534 39.0235C43.5479 39.0266 43.5416 39.0283 43.5351 39.0282L43.529 40.0278C43.7106 40.0289 43.8893 39.9823 44.0471 39.8926L43.5534 39.0235ZM56.2264 32.4186L43.5693 39.0149L44.0313 39.9012L56.6884 33.305L56.2264 32.4186ZM55.5907 28.838C55.578 28.7745 55.5671 28.711 55.5579 28.6473L54.5686 28.7908C54.5804 28.8717 54.5942 28.9525 54.6103 29.0329L55.5907 28.838ZM56.6021 30.7304C56.0852 30.2134 55.7333 29.555 55.5907 28.838L54.6103 29.0329C54.7914 29.9437 55.2386 30.7804 55.8953 31.4371L56.6021 30.7304ZM58.4945 31.7418C57.7776 31.5992 57.119 31.2472 56.6021 30.7304L55.8953 31.4371C56.552 32.0939 57.3887 32.541 58.2995 32.7222L58.4945 31.7418ZM60.63 31.5315C59.9546 31.8113 59.2115 31.8844 58.4945 31.7418L58.2995 32.7222C59.2104 32.9034 60.1545 32.8104 61.0125 32.455L60.63 31.5315ZM62.2887 30.1703C61.8826 30.7781 61.3053 31.2518 60.63 31.5315L61.0125 32.455C61.8705 32.0996 62.6039 31.4978 63.1198 30.7256L62.2887 30.1703ZM62.9116 28.1169C62.9116 28.8479 62.6949 29.5624 62.2887 30.1703L63.1198 30.7256C63.6358 29.9534 63.9112 29.0456 63.9112 28.1169H62.9116ZM62.6436 26.6822C62.8266 27.1359 62.9177 27.6214 62.9116 28.1106L63.9112 28.123C63.9188 27.5016 63.8031 26.8847 63.5705 26.3083L62.6436 26.6822ZM61.8454 25.4676C62.1892 25.8156 62.4605 26.2285 62.6436 26.6822L63.5705 26.3083C63.3381 25.7318 62.9934 25.2073 62.5566 24.7651L61.8454 25.4676ZM60.6407 24.6545C61.0922 24.8432 61.5016 25.1195 61.8454 25.4676L62.5566 24.7651C62.1198 24.3229 61.5996 23.9719 61.026 23.7323L60.6407 24.6545ZM59.2156 24.3689C59.7049 24.3689 60.1893 24.466 60.6407 24.6545L61.026 23.7323C60.4525 23.4926 59.8371 23.3692 59.2156 23.3693V24.3689ZM59.7154 23.9211V23.8691H58.7158V23.9211H59.7154ZM57.1622 25.0438C57.7701 24.6376 58.4846 24.4209 59.2156 24.4209V23.4213C58.2869 23.4213 57.379 23.6966 56.6069 24.2126L57.1622 25.0438ZM55.801 26.7025C56.0807 26.0271 56.5544 25.4499 57.1622 25.0438L56.6069 24.2126C55.8347 24.7286 55.2329 25.4619 54.8775 26.3199L55.801 26.7025ZM55.5196 28.1048C55.5212 27.6258 55.6159 27.1494 55.801 26.7025L54.8775 26.3199C54.6423 26.8877 54.522 27.4931 54.52 28.1015L55.5196 28.1048ZM54.6126 28.3928C54.6144 28.3956 54.616 28.3984 54.6174 28.4012L55.5146 27.9602C55.4893 27.9088 55.46 27.8599 55.4272 27.8135L54.6126 28.3928ZM54.6215 28.4091C54.6315 28.4286 54.6334 28.4512 54.6269 28.4721L55.5808 28.7711C55.6659 28.4995 55.6406 28.2054 55.5106 27.9523L54.6215 28.4091ZM54.6269 28.4721C54.6254 28.4769 54.6234 28.4816 54.6211 28.486L55.5054 28.952C55.5357 28.8946 55.561 28.834 55.5808 28.7711L54.6269 28.4721ZM33.5882 36.7932C34.3796 36.2643 35.3102 35.982 36.2622 35.982V34.9825C35.1125 34.9825 33.9887 35.3233 33.0328 35.9621L33.5882 36.7932ZM31.8154 38.9532C32.1797 38.0738 32.7966 37.3221 33.5882 36.7932L33.0328 35.9621C32.0769 36.6008 31.3319 37.5085 30.8919 38.5707L31.8154 38.9532ZM31.5415 41.7341C31.3558 40.8005 31.4511 39.8327 31.8154 38.9532L30.8919 38.5707C30.4519 39.6328 30.3368 40.8016 30.5611 41.9292L31.5415 41.7341ZM32.8588 44.1986C32.1857 43.5254 31.7272 42.6678 31.5415 41.7341L30.5611 41.9292C30.7855 43.0568 31.339 44.0925 32.1519 44.9054L32.8588 44.1986ZM35.3232 45.5158C34.3895 45.3301 33.5319 44.8717 32.8588 44.1986L32.1519 44.9054C32.9648 45.7183 34.0006 46.2719 35.1282 46.4962L35.3232 45.5158ZM38.1041 45.2419C37.2246 45.6062 36.2569 45.7015 35.3232 45.5158L35.1282 46.4962C36.2558 46.7205 37.4245 46.6054 38.4866 46.1654L38.1041 45.2419ZM40.2641 43.4692C39.7353 44.2607 38.9836 44.8776 38.1041 45.2419L38.4866 46.1654C39.5488 45.7255 40.4566 44.9804 41.0953 44.0246L40.2641 43.4692ZM41.0753 40.7951C41.0753 41.7471 40.793 42.6777 40.2641 43.4692L41.0953 44.0246C41.734 43.0686 42.075 41.9448 42.075 40.7951H41.0753ZM40.709 38.9532C40.9509 39.5372 41.0753 40.1631 41.0753 40.7951H42.075C42.075 40.0318 41.9245 39.2759 41.6325 38.5707L40.709 38.9532ZM39.6655 37.3918C40.1125 37.8387 40.467 38.3693 40.709 38.9532L41.6325 38.5707C41.3403 37.8655 40.9122 37.2247 40.3724 36.6849L39.6655 37.3918ZM38.1041 36.3484C38.688 36.5903 39.2186 36.9448 39.6655 37.3918L40.3724 36.6849C39.8326 36.1451 39.1919 35.717 38.4866 35.4249L38.1041 36.3484ZM36.2622 35.982C36.8942 35.982 37.5201 36.1066 38.1041 36.3484L38.4866 35.4249C37.7814 35.1328 37.0255 34.9825 36.2622 34.9825V35.982ZM56.438 47.8778C56.4138 47.8826 56.3888 47.8826 56.3647 47.8778L56.1698 48.8582C56.3227 48.8886 56.48 48.8886 56.6329 48.8582L56.438 47.8778ZM56.5805 47.8583C56.5691 47.865 56.5561 47.8684 56.5429 47.8682L56.528 48.8677C56.7251 48.8707 56.9192 48.8191 57.089 48.7189L56.5805 47.8583ZM56.6073 47.8302C56.6011 47.8419 56.5918 47.8516 56.5805 47.8583L57.089 48.7189C57.2587 48.6186 57.3974 48.4734 57.49 48.2993L56.6073 47.8302ZM56.6051 47.7747C56.6124 47.798 56.6104 47.8231 56.5998 47.8449L57.4975 48.2846C57.6208 48.0328 57.6428 47.7433 57.559 47.4757L56.6051 47.7747ZM56.5607 47.7202C56.5819 47.732 56.5979 47.7516 56.6051 47.7747L57.559 47.4757C57.4751 47.2082 57.2917 46.9831 57.0468 46.8467L56.5607 47.7202ZM43.57 40.9745L56.5734 47.727L57.034 46.8398L44.0307 40.0874L43.57 40.9745ZM43.5144 40.9713C43.5337 40.965 43.5546 40.9667 43.5727 40.9759L44.0278 40.086C43.7738 39.9561 43.4784 39.9324 43.2069 40.0202L43.5144 40.9713ZM43.4697 41.0093C43.479 40.9912 43.4951 40.9775 43.5144 40.9713L43.2069 40.0202C42.9353 40.108 42.7097 40.3001 42.5798 40.5541L43.4697 41.0093ZM43.4651 41.0677C43.4588 41.0484 43.4605 41.0274 43.4697 41.0093L42.5798 40.5541C42.4498 40.8083 42.4262 41.1036 42.514 41.3752L43.4651 41.0677ZM43.5031 41.1123C43.485 41.103 43.4713 41.087 43.4651 41.0677L42.514 41.3752C42.6018 41.6467 42.7939 41.8723 43.0479 42.0022L43.5031 41.1123ZM56.4993 47.9253L43.5076 41.1146L43.0435 41.9999L56.0352 48.8106L56.4993 47.9253Z" fill="#FF8618"/>
</g>
</svg>
