<svg width="96" height="96" viewBox="0 0 96 96" fill="none" xmlns="http://www.w3.org/2000/svg">
<path d="M84.2368 29.0429C79.331 24.1495 72.7954 21.2335 65.8769 20.8515C58.9583 20.4695 52.1413 22.6481 46.7267 26.9717H26.7746C26.3966 26.9717 26.0341 27.1218 25.7668 27.3891C25.4996 27.6563 25.3494 28.0189 25.3494 28.3968C25.3494 28.7748 25.4996 29.1373 25.7668 29.4045C26.0341 29.6718 26.3966 29.822 26.7746 29.822H43.6864C42.1076 31.5191 40.7449 33.4051 39.6295 35.4371H17.2165C16.8386 35.4371 16.4761 35.5872 16.2087 35.8545C15.9415 36.1217 15.7914 36.4843 15.7914 36.8622C15.7914 37.2402 15.9415 37.6027 16.2087 37.8699C16.4761 38.1373 16.8386 38.2874 17.2165 38.2874H38.2613C36.5361 42.5226 35.8613 47.1123 36.2946 51.6648H26.7936C26.4156 51.6648 26.0531 51.815 25.7858 52.0822C25.5186 52.3495 25.3684 52.712 25.3684 53.09C25.3684 53.468 25.5186 53.8304 25.7858 54.0977C26.0531 54.365 26.4156 54.5152 26.7936 54.5152H36.7222C37.0884 56.3551 37.6391 58.1536 38.3658 59.8832H17.2165C16.8386 59.8832 16.4761 60.0334 16.2087 60.3006C15.9415 60.5679 15.7914 60.9303 15.7914 61.3084C15.7914 61.6864 15.9415 62.0488 16.2087 62.3161C16.4761 62.5833 16.8386 62.7335 17.2165 62.7335H39.7625C40.8427 64.6909 42.1572 66.5094 43.6769 68.1491H13.7582C13.3802 68.1491 13.0177 68.2993 12.7504 68.5665C12.4831 68.8338 12.333 69.1962 12.333 69.5742C12.333 69.9522 12.4831 70.3147 12.7504 70.582C13.0177 70.8492 13.3802 70.9993 13.7582 70.9993H45.7861C46.0357 70.9963 46.2807 70.9309 46.4987 70.8094C52.0905 75.4464 59.2575 77.7442 66.5031 77.2227C73.7488 76.7012 80.5128 73.4009 85.383 68.0109C90.2531 62.6208 92.8529 55.5578 92.6393 48.2966C92.4257 41.0354 89.4154 34.1373 84.2368 29.0429ZM82.2226 66.8665C78.682 70.4041 74.172 72.8127 69.2628 73.7877C64.3535 74.7626 59.2654 74.2602 54.6417 72.3438C50.018 70.4275 46.0662 67.1834 43.2859 63.0215C40.5056 58.8596 39.0217 53.9669 39.0217 48.9618C39.0217 43.9566 40.5056 39.0639 43.2859 34.9021C46.0662 30.7401 50.018 27.496 54.6417 25.5797C59.2654 23.6634 64.3535 23.161 69.2628 24.1359C74.172 25.1108 78.682 27.5194 82.2226 31.0571C86.9621 35.8105 89.6236 42.2492 89.6236 48.9618C89.6236 55.6743 86.9621 62.113 82.2226 66.8665Z" fill="#FF8618"/>
<path d="M64.3227 27.7617C60.1304 27.7617 56.0323 29.0049 52.5464 31.334C49.0606 33.6631 46.3438 36.9737 44.7394 40.8468C43.1351 44.7201 42.7154 48.982 43.5333 53.0937C44.3512 57.2055 46.3699 60.9825 49.3344 63.9469C52.2988 66.9113 56.0757 68.9301 60.1875 69.748C64.2993 70.5658 68.5612 70.1461 72.4344 68.5417C76.3076 66.9374 79.6181 64.2205 81.9472 60.7347C84.2764 57.249 85.5195 53.1508 85.5195 48.9585C85.512 43.3391 83.2764 37.952 79.3028 33.9785C75.3293 30.0049 69.9422 27.7692 64.3227 27.7617ZM65.7479 67.2005V65.5378C65.7479 65.1598 65.5977 64.7973 65.3305 64.53C65.0632 64.2628 64.7007 64.1127 64.3227 64.1127C63.9448 64.1127 63.5822 64.2628 63.315 64.53C63.0477 64.7973 62.8976 65.1598 62.8976 65.5378V67.2005C58.5496 66.8557 54.4665 64.9741 51.3798 61.8925C48.293 58.811 46.4044 54.731 46.0522 50.3837H47.7434C48.1214 50.3837 48.4839 50.2335 48.7512 49.9662C49.0185 49.699 49.1686 49.3365 49.1686 48.9585C49.1686 48.5806 49.0185 48.218 48.7512 47.9507C48.4839 47.6835 48.1214 47.5334 47.7434 47.5334H46.0522C46.3961 43.1802 48.2811 39.0924 51.3689 36.0047C54.4566 32.9169 58.5444 31.0318 62.8976 30.688V32.3792C62.8976 32.7572 63.0477 33.1197 63.315 33.3869C63.5822 33.6542 63.9448 33.8044 64.3227 33.8044C64.7007 33.8044 65.0632 33.6542 65.3305 33.3869C65.5977 33.1197 65.7479 32.7572 65.7479 32.3792V30.688C70.101 31.0318 74.1889 32.9169 77.2766 36.0047C80.3643 39.0924 82.2495 43.1802 82.5932 47.5334H80.902C80.5241 47.5334 80.1615 47.6835 79.8943 47.9507C79.627 48.218 79.4769 48.5806 79.4769 48.9585C79.4769 49.3365 79.627 49.699 79.8943 49.9662C80.1615 50.2335 80.5241 50.3837 80.902 50.3837H82.5932C82.2412 54.731 80.3526 58.811 77.2658 61.8925C74.1791 64.9741 70.0959 66.8557 65.7479 67.2005Z" fill="#FF8618"/>
<path d="M72.1517 52.2851L66.1755 48.4847L72.3797 36.1333C72.4934 35.8039 72.4824 35.4441 72.3487 35.1222C72.2151 34.8001 71.9681 34.5384 71.6545 34.3862C71.3408 34.2341 70.9824 34.2022 70.6468 34.2966C70.3112 34.3909 70.0219 34.605 69.8334 34.8982L63.0497 48.3232C62.8905 48.6382 62.8537 49.0011 62.9468 49.3417C63.0398 49.6822 63.256 49.976 63.5533 50.1664L70.6125 54.6889C70.8398 54.833 71.1035 54.9088 71.3726 54.9074C71.6807 54.9087 71.981 54.81 72.2283 54.6262C72.4757 54.4425 72.6568 54.1835 72.7445 53.8881C72.8323 53.5928 72.822 53.2769 72.7151 52.9879C72.6082 52.6989 72.4105 52.4522 72.1517 52.2851ZM22.1003 53.0832C22.1003 52.7052 21.9501 52.3427 21.6828 52.0755C21.4156 51.8082 21.0531 51.658 20.6751 51.658H5.55894C5.18097 51.658 4.81848 51.8082 4.55121 52.0755C4.28394 52.3427 4.13379 52.7052 4.13379 53.0832C4.13379 53.4611 4.28394 53.8237 4.55121 54.0909C4.81848 54.3582 5.18097 54.5083 5.55894 54.5083H20.6941C21.0688 54.5034 21.4264 54.351 21.6895 54.0842C21.9527 53.8175 22.1003 53.4579 22.1003 53.0832ZM12.5422 29.8152H20.6941C21.0721 29.8152 21.4346 29.665 21.7018 29.3978C21.9691 29.1305 22.1193 28.7681 22.1193 28.39C22.1193 28.012 21.9691 27.6496 21.7018 27.3823C21.4346 27.1151 21.0721 26.9648 20.6941 26.9648H12.5422C12.1643 26.9648 11.8017 27.1151 11.5344 27.3823C11.2672 27.6496 11.1171 28.012 11.1171 28.39C11.1171 28.7681 11.2672 29.1305 11.5344 29.3978C11.8017 29.665 12.1643 29.8152 12.5422 29.8152ZM10.9936 46.2994H29.7771C30.1551 46.2994 30.5176 46.1493 30.7848 45.8821C31.0521 45.6148 31.2022 45.2522 31.2022 44.8743C31.2022 44.4963 31.0521 44.1338 30.7848 43.8666C30.5176 43.5993 30.1551 43.4491 29.7771 43.4491H10.9936C10.6156 43.4491 10.2531 43.5993 9.98575 43.8666C9.71852 44.1338 9.56838 44.4963 9.56838 44.8743C9.56838 45.2522 9.71852 45.6148 9.98575 45.8821C10.2531 46.1493 10.6156 46.2994 10.9936 46.2994Z" fill="#FF8618"/>
</svg>
