<svg width="32" height="32" viewBox="0 0 32 32" fill="none" xmlns="http://www.w3.org/2000/svg">
<path fill-rule="evenodd" clip-rule="evenodd" d="M16 32C24.8366 32 32 24.8366 32 16C32 7.16344 24.8366 0 16 0C7.16344 0 0 7.16344 0 16C0 24.8366 7.16344 32 16 32ZM26.495 11.9496C27.4713 10.9733 27.4713 9.39036 26.495 8.41405C25.5187 7.43774 23.9358 7.43774 22.9595 8.41405L12.7273 18.6463L9.04049 14.9595C8.06418 13.9832 6.48127 13.9832 5.50496 14.9595C4.52865 15.9358 4.52865 17.5187 5.50496 18.495L10.9595 23.9496C11.4283 24.4184 12.0642 24.6818 12.7273 24.6818C13.3903 24.6818 14.0262 24.4184 14.495 23.9496L26.495 11.9496Z" fill="#3EC775"/>
</svg>
