<svg width="31" height="32" viewBox="0 0 31 32" fill="none" xmlns="http://www.w3.org/2000/svg">
<path fill-rule="evenodd" clip-rule="evenodd" d="M15.5 31.5C24.0604 31.5 31 24.5604 31 16C31 7.43959 24.0604 0.5 15.5 0.5C6.93959 0.5 0 7.43959 0 16C0 24.5604 6.93959 31.5 15.5 31.5ZM10.9269 7.89132C9.95055 6.91501 8.36763 6.91501 7.39132 7.89132C6.41501 8.86763 6.41501 10.4505 7.39132 11.4269L11.9645 16L7.39132 20.5731C6.41501 21.5495 6.41501 23.1324 7.39132 24.1087C8.36763 25.085 9.95055 25.085 10.9269 24.1087L15.5 19.5355L20.0731 24.1087C21.0495 25.085 22.6324 25.085 23.6087 24.1087C24.585 23.1324 24.585 21.5495 23.6087 20.5731L19.0355 16L23.6087 11.4269C24.585 10.4505 24.585 8.86763 23.6087 7.89132C22.6324 6.91501 21.0495 6.91501 20.0731 7.89132L15.5 12.4645L10.9269 7.89132Z" fill="#EB5353"/>
</svg>
