<svg width="124" height="28" viewBox="0 0 124 28" fill="none" xmlns="http://www.w3.org/2000/svg">
<path d="M27.4453 6.53223H30.7113V19.0672H36.0933V22.0112H27.4453V6.53223Z" fill="#19191B"/>
<path d="M42.1486 22.2872C41.2439 22.2872 40.4236 22.1416 39.6876 21.8502C38.9669 21.5436 38.3459 21.1296 37.8246 20.6082C37.3186 20.0716 36.9276 19.4429 36.6516 18.7222C36.3756 18.0016 36.2376 17.2119 36.2376 16.3532C36.2376 15.4946 36.3756 14.6972 36.6516 13.9612C36.9276 13.2252 37.3109 12.5889 37.8016 12.0522C38.3076 11.5156 38.9132 11.0939 39.6186 10.7872C40.3392 10.4806 41.1366 10.3272 42.0106 10.3272C42.9306 10.3272 43.7586 10.4959 44.4946 10.8332C45.2459 11.1706 45.8669 11.6459 46.3576 12.2592C46.8636 12.8726 47.2316 13.6009 47.4616 14.4442C47.7069 15.2722 47.7836 16.1846 47.6916 17.1812H39.4116C39.5342 17.9632 39.8256 18.5842 40.2856 19.0442C40.7609 19.4889 41.3819 19.7112 42.1486 19.7112C42.6852 19.7112 43.1069 19.6192 43.4136 19.4352C43.7356 19.2359 43.9886 18.9599 44.1726 18.6072H47.3466C46.9939 19.7419 46.3729 20.6389 45.4836 21.2982C44.6096 21.9576 43.4979 22.2872 42.1486 22.2872ZM42.0106 12.9032C41.3512 12.9032 40.8069 13.0949 40.3776 13.4782C39.9482 13.8462 39.6492 14.3599 39.4806 15.0192H44.5406C44.4332 14.3752 44.1572 13.8616 43.7126 13.4782C43.2679 13.0949 42.7006 12.9032 42.0106 12.9032Z" fill="#19191B"/>
<path d="M52.0631 22.2872C50.8365 22.2872 49.8858 21.9882 49.2111 21.3902C48.5518 20.7922 48.2221 19.9489 48.2221 18.8602C48.2221 17.7256 48.5825 16.8592 49.3031 16.2612C50.0391 15.6632 51.0971 15.3642 52.4771 15.3642H55.2141V14.8122C55.2141 13.4629 54.5931 12.7882 53.3511 12.7882C52.9065 12.7882 52.5308 12.8802 52.2241 13.0642C51.9175 13.2482 51.7258 13.5012 51.6491 13.8232H48.7051C48.7511 13.2866 48.8891 12.8036 49.1191 12.3742C49.3645 11.9449 49.6941 11.5769 50.1081 11.2702C50.5221 10.9636 51.0051 10.7336 51.5571 10.5802C52.1245 10.4116 52.7531 10.3272 53.4431 10.3272C55.0071 10.3272 56.2031 10.7259 57.0311 11.5232C57.8745 12.3052 58.2961 13.4399 58.2961 14.9272V22.0112H55.3981V20.8612C54.6161 21.8119 53.5045 22.2872 52.0631 22.2872ZM52.9371 20.0792C53.6271 20.0792 54.1791 19.8722 54.5931 19.4582C55.0071 19.0442 55.2141 18.4922 55.2141 17.8022V17.4112H53.0751C51.9251 17.4112 51.3501 17.8559 51.3501 18.7452C51.3501 19.6346 51.8791 20.0792 52.9371 20.0792Z" fill="#19191B"/>
<path d="M60.0394 10.6032H62.9834V12.3052C63.3208 11.6766 63.7731 11.1936 64.3404 10.8562C64.9078 10.5036 65.5824 10.3272 66.3644 10.3272C67.1311 10.3272 67.8288 10.4729 68.4574 10.7642C69.0861 11.0402 69.6228 11.4389 70.0674 11.9602C70.5274 12.4816 70.8801 13.1102 71.1254 13.8462C71.3708 14.5822 71.4934 15.4026 71.4934 16.3072C71.4934 17.2119 71.3708 18.0322 71.1254 18.7682C70.8801 19.5042 70.5351 20.1329 70.0904 20.6542C69.6458 21.1756 69.1168 21.5819 68.5034 21.8732C67.8901 22.1492 67.2078 22.2872 66.4564 22.2872C65.0918 22.2872 64.0184 21.8272 63.2364 20.9072V25.7602H60.0394V10.6032ZM65.6974 19.4582C66.4948 19.4582 67.1234 19.1899 67.5834 18.6532C68.0588 18.1012 68.2964 17.3192 68.2964 16.3072C68.2964 15.2952 68.0664 14.5209 67.6064 13.9842C67.1464 13.4322 66.5101 13.1562 65.6974 13.1562C64.9154 13.1562 64.2944 13.4322 63.8344 13.9842C63.3744 14.5209 63.1444 15.2952 63.1444 16.3072C63.1444 17.3346 63.3744 18.1166 63.8344 18.6532C64.2944 19.1899 64.9154 19.4582 65.6974 19.4582Z" fill="#19191B"/>
<path d="M76.7207 22.2872C75.2487 22.2872 74.0833 21.9499 73.2247 21.2752C72.3813 20.6006 71.9213 19.7112 71.8447 18.6072H74.9267C74.9727 18.9599 75.149 19.2512 75.4557 19.4812C75.7623 19.6959 76.1917 19.8032 76.7437 19.8032C77.725 19.8032 78.2157 19.4736 78.2157 18.8142C78.2157 18.5536 78.139 18.3542 77.9857 18.2162C77.8323 18.0782 77.5487 17.9556 77.1347 17.8482L75.2717 17.3422C74.3057 17.0816 73.562 16.6522 73.0407 16.0542C72.5193 15.4562 72.2587 14.7279 72.2587 13.8692C72.2587 13.3326 72.3583 12.8496 72.5577 12.4202C72.7723 11.9756 73.0637 11.5999 73.4317 11.2932C73.815 10.9866 74.275 10.7489 74.8117 10.5802C75.3483 10.4116 75.9387 10.3272 76.5827 10.3272C77.8707 10.3272 78.9057 10.6416 79.6877 11.2702C80.485 11.8989 80.9297 12.7192 81.0217 13.7312H78.0317C77.9857 13.4706 77.8323 13.2559 77.5717 13.0872C77.311 12.9032 76.9737 12.8112 76.5597 12.8112C76.161 12.8112 75.8467 12.8956 75.6167 13.0642C75.3867 13.2329 75.2717 13.4706 75.2717 13.7772C75.2717 14.2372 75.5937 14.5439 76.2377 14.6972L78.1927 15.2262C79.2047 15.4869 79.9713 15.9162 80.4927 16.5142C81.014 17.0969 81.2747 17.8252 81.2747 18.6992C81.2747 19.8186 80.8683 20.7002 80.0557 21.3442C79.2583 21.9729 78.1467 22.2872 76.7207 22.2872Z" fill="#19191B"/>
<path d="M87.3583 22.2872C86.515 22.2872 85.733 22.1416 85.0123 21.8502C84.307 21.5589 83.6937 21.1526 83.1723 20.6312C82.6663 20.0946 82.2677 19.4582 81.9763 18.7222C81.685 17.9862 81.5393 17.1812 81.5393 16.3072C81.5393 15.4332 81.685 14.6359 81.9763 13.9152C82.2677 13.1792 82.6663 12.5506 83.1723 12.0292C83.6937 11.4926 84.307 11.0786 85.0123 10.7872C85.733 10.4806 86.515 10.3272 87.3583 10.3272C88.2017 10.3272 88.976 10.4806 89.6813 10.7872C90.3867 11.0786 90.9923 11.4926 91.4983 12.0292C92.0196 12.5506 92.426 13.1792 92.7173 13.9152C93.0087 14.6359 93.1543 15.4332 93.1543 16.3072C93.1543 17.1812 93.0087 17.9862 92.7173 18.7222C92.426 19.4582 92.0196 20.0946 91.4983 20.6312C90.9923 21.1526 90.3867 21.5589 89.6813 21.8502C88.976 22.1416 88.2017 22.2872 87.3583 22.2872ZM87.3583 19.4812C88.1557 19.4812 88.7843 19.1976 89.2443 18.6302C89.7197 18.0629 89.9573 17.2886 89.9573 16.3072C89.9573 15.3412 89.7197 14.5746 89.2443 14.0072C88.7843 13.4399 88.1557 13.1562 87.3583 13.1562C86.561 13.1562 85.9247 13.4399 85.4493 14.0072C84.974 14.5746 84.7363 15.3412 84.7363 16.3072C84.7363 17.2886 84.974 18.0629 85.4493 18.6302C85.9247 19.1976 86.561 19.4812 87.3583 19.4812Z" fill="#19191B"/>
<path d="M94.3021 10.6032H97.2461V11.9832C97.5681 11.4466 97.9821 11.0402 98.4881 10.7642C98.9941 10.4729 99.5921 10.3272 100.282 10.3272C100.987 10.3272 101.608 10.4806 102.145 10.7872C102.697 11.0939 103.149 11.5232 103.502 12.0752C103.901 11.5232 104.384 11.0939 104.951 10.7872C105.534 10.4806 106.201 10.3272 106.952 10.3272C108.255 10.3272 109.275 10.7336 110.011 11.5462C110.762 12.3589 111.138 13.4936 111.138 14.9502V22.0112H107.941V15.3872C107.941 14.7126 107.78 14.1912 107.458 13.8232C107.151 13.4399 106.73 13.2482 106.193 13.2482C105.656 13.2482 105.212 13.4399 104.859 13.8232C104.506 14.2066 104.33 14.6972 104.33 15.2952V22.0112H101.133V15.3872C101.133 14.7126 100.972 14.1912 100.65 13.8232C100.343 13.4399 99.9218 13.2482 99.3851 13.2482C98.8178 13.2482 98.3578 13.4476 98.0051 13.8462C97.6678 14.2296 97.4991 14.7432 97.4991 15.3872V22.0112H94.3021V10.6032Z" fill="#19191B"/>
<path d="M118.064 22.2872C117.159 22.2872 116.339 22.1416 115.603 21.8502C114.882 21.5436 114.261 21.1296 113.74 20.6082C113.234 20.0716 112.843 19.4429 112.567 18.7222C112.291 18.0016 112.153 17.2119 112.153 16.3532C112.153 15.4946 112.291 14.6972 112.567 13.9612C112.843 13.2252 113.226 12.5889 113.717 12.0522C114.223 11.5156 114.828 11.0939 115.534 10.7872C116.254 10.4806 117.052 10.3272 117.926 10.3272C118.846 10.3272 119.674 10.4959 120.41 10.8332C121.161 11.1706 121.782 11.6459 122.273 12.2592C122.779 12.8726 123.147 13.6009 123.377 14.4442C123.622 15.2722 123.699 16.1846 123.607 17.1812H115.327C115.449 17.9632 115.741 18.5842 116.201 19.0442C116.676 19.4889 117.297 19.7112 118.064 19.7112C118.6 19.7112 119.022 19.6192 119.329 19.4352C119.651 19.2359 119.904 18.9599 120.088 18.6072H123.262C122.909 19.7419 122.288 20.6389 121.399 21.2982C120.525 21.9576 119.413 22.2872 118.064 22.2872ZM117.926 12.9032C117.266 12.9032 116.722 13.0949 116.293 13.4782C115.863 13.8462 115.564 14.3599 115.396 15.0192H120.456C120.348 14.3752 120.072 13.8616 119.628 13.4782C119.183 13.0949 118.616 12.9032 117.926 12.9032Z" fill="#19191B"/>
<path d="M13.3909 6.61816L10.8789 13.912L18.5039 16.4905L13.3909 6.61816Z" fill="#5454D4" fill-opacity="0.7"/>
<path d="M10.0237 15.3369L2.1875 27.6803L10.3127 20.9475L10.0237 15.3369Z" fill="#5454D4" fill-opacity="0.3"/>
<path d="M10.9759 20.5508L17.745 17.2083L10.6758 14.8447L10.9759 20.5508Z" fill="#5454D4"/>
<path d="M16.9727 11.7841L19.0067 15.7116L20.0516 10.6143L16.9727 11.7841Z" fill="#5454D4"/>
<path d="M10.1609 13.4517L12.6062 6.31306L0.390625 0.15332L10.1609 13.4517Z" fill="#5454D4"/>
</svg>
