<svg width="24" height="24" viewBox="0 0 24 24" fill="none" xmlns="http://www.w3.org/2000/svg">
<mask id="mask0_522_9" style="mask-type:luminance" maskUnits="userSpaceOnUse" x="0" y="0" width="13" height="24">
<path d="M12.0723 0.707031H0.0722656V23.707H12.0723V0.707031Z" fill="white"/>
</mask>
<g mask="url(#mask0_522_9)">
<path d="M12.0727 1.76562L14.8581 8.23347L14.9755 8.50616L15.2711 8.53358L22.2832 9.18392L16.9926 13.8316L16.7695 14.0276L16.8348 14.3172L18.3831 21.187L12.328 17.5916L12.0727 17.44L11.8175 17.5916L5.76233 21.187L7.31065 14.3172L7.37592 14.0276L7.15288 13.8316L1.8623 9.18392L8.87431 8.53358L9.16994 8.50616L9.28737 8.23347L12.0727 1.76562Z" fill="#FF8617" stroke="#FF8618"/>
</g>
<path d="M12.0717 1.76367L14.8571 8.23152L14.9745 8.5042L15.2701 8.53162L22.2822 9.18196L16.9916 13.8296L16.7685 14.0256L16.8338 14.3152L18.3821 21.185L12.327 17.5896L12.0717 17.438L11.8165 17.5896L5.76136 21.185L7.30968 14.3152L7.37495 14.0256L7.15191 13.8296L1.86133 9.18196L8.87334 8.53162L9.16897 8.5042L9.2864 8.23152L12.0717 1.76367Z" stroke="#FF8618"/>
</svg>
