<svg width="73" height="80" viewBox="0 0 73 80" fill="none" xmlns="http://www.w3.org/2000/svg">
<path d="M6.66382 62.282L36.961 77.6991L66.1077 62.282V1.99435H6.66382V62.282Z" fill="white" style="fill:white;fill-opacity:1;"/>
<path d="M66.7185 2.22423L6.04736 63.3556L37.4951 78.926L66.7185 63.9692V2.22423Z" fill="#F2F3F2" style="fill:#F2F3F2;fill:color(display-p3 0.9490 0.9529 0.9490);fill-opacity:1;"/>
<path d="M4.66724 22.0901V63.5858L5.74106 64.1227L36.0383 79.5398L36.9587 80L37.8791 79.5398L67.1025 64.1227L68.1763 63.5858V0H4.66724V22.0901ZM6.66148 62.4353V1.99425H66.1821V62.4353L36.9587 77.8523L6.66148 62.4353Z" fill="#DCDEDC" style="fill:#DCDEDC;fill:color(display-p3 0.8627 0.8706 0.8627);fill-opacity:1;"/>
<path d="M36.4207 2.99137C36.7275 2.99137 37.0344 2.99137 37.3412 3.06807L36.4207 4.83221C35.0401 4.75551 33.8129 5.82934 33.7362 7.20997C33.6595 8.5906 34.7333 9.81783 36.1139 9.89453H36.4207C37.0344 9.89453 37.648 9.66443 38.1082 9.28092L39.1053 10.9684C38.3383 11.5053 37.4179 11.8121 36.4207 11.8121C33.9663 11.8888 31.8953 10.0479 31.8186 7.59348C31.7419 5.13902 33.5828 3.06807 36.0372 2.99137H36.4207ZM39.5655 6.74976L40.716 8.66731L39.5655 10.5081L38.4917 8.66731H36.2673L37.4179 6.74976H39.5655ZM37.7247 6.05944C37.7247 5.75264 37.8014 5.44583 37.9548 5.21572C38.1082 4.98562 38.415 4.75551 38.6451 4.60211L38.7985 4.52541C39.1053 4.372 39.182 4.2953 39.182 4.1419C39.182 3.98849 38.9519 3.83509 38.7985 3.83509C38.4917 3.83509 38.2616 3.98849 38.1082 4.2953L37.7247 3.91179C37.8014 3.75839 37.9548 3.60499 38.1082 3.45158C38.3383 3.29818 38.5684 3.29818 38.7985 3.29818C39.0286 3.29818 39.3354 3.37488 39.4888 3.52828C39.6422 3.68169 39.7956 3.91179 39.7956 4.1419C39.7956 4.52541 39.5655 4.83221 39.1053 4.98562L38.8752 5.13902C38.6451 5.29243 38.4917 5.36913 38.415 5.59923H39.7956V6.13615L37.7247 6.05944ZM36.4207 15.6472L43.7074 11.5053V0H29.0574V11.4286L36.4207 15.6472ZM69.6326 42.7996H3.20885L0.754395 48.1687L3.20885 53.5379H69.6326L72.0104 48.1687L69.6326 42.7996Z" fill="#FF492C" style="fill:#FF492C;fill:color(display-p3 1.0000 0.2863 0.1725);fill-opacity:1;"/>
<path d="M19.8541 39.348C19.8183 39.348 19.7876 39.3352 19.7621 39.3097C19.7365 39.2841 19.7237 39.2534 19.7237 39.2176V31.9616C19.7237 31.9258 19.7365 31.8952 19.7621 31.8696C19.7876 31.844 19.8183 31.8312 19.8541 31.8312H21.112C21.1478 31.8312 21.1785 31.844 21.2041 31.8696C21.2296 31.8952 21.2424 31.9258 21.2424 31.9616V37.9981C21.2424 38.0339 21.2603 38.0518 21.2961 38.0518H24.809C24.8448 38.0518 24.873 38.062 24.8934 38.0824C24.919 38.108 24.9318 38.1387 24.9318 38.1745V39.2176C24.9318 39.2534 24.919 39.2841 24.8934 39.3097C24.873 39.3352 24.8448 39.348 24.809 39.348H19.8541ZM30.6614 36.0192C30.7023 36.2902 30.7151 36.5944 30.6997 36.9319C30.6946 37.0188 30.6486 37.0623 30.5617 37.0623H27.2405C27.1996 37.0623 27.1868 37.0802 27.2021 37.116C27.2226 37.2592 27.2609 37.4024 27.3172 37.5455C27.5064 37.9444 27.8873 38.1438 28.46 38.1438C28.9151 38.1387 29.2756 37.952 29.5415 37.5839C29.5722 37.543 29.6055 37.5225 29.6413 37.5225C29.6617 37.5225 29.6847 37.5379 29.7103 37.5685L30.485 38.3279C30.5208 38.3637 30.5387 38.3969 30.5387 38.4276C30.5387 38.4378 30.5259 38.4659 30.5003 38.512C30.26 38.8034 29.9557 39.031 29.5876 39.1946C29.2143 39.3531 28.8052 39.4324 28.3603 39.4324C27.7467 39.4324 27.2251 39.2943 26.7956 39.0182C26.3712 38.737 26.067 38.3458 25.8829 37.8447C25.7295 37.4867 25.6528 37.0188 25.6528 36.441C25.6528 36.0473 25.7065 35.6996 25.8138 35.3979C25.9775 34.8865 26.2664 34.4826 26.6806 34.186C27.0896 33.8843 27.578 33.7334 28.1456 33.7334C28.8615 33.7334 29.4367 33.9405 29.8714 34.3547C30.3009 34.7689 30.5642 35.3237 30.6614 36.0192ZM28.1532 35.045C27.7033 35.045 27.4067 35.2547 27.2635 35.674C27.2379 35.766 27.2124 35.8811 27.1868 36.0192C27.1868 36.055 27.2047 36.0729 27.2405 36.0729H29.1043C29.1453 36.0729 29.158 36.055 29.1427 36.0192C29.1069 35.8095 29.089 35.7098 29.089 35.72C29.0276 35.5053 28.9151 35.3391 28.7515 35.2215C28.593 35.1039 28.3936 35.045 28.1532 35.045ZM33.7832 33.7411C34.2485 33.7411 34.6627 33.8229 35.0257 33.9866C35.3939 34.1451 35.6802 34.365 35.8848 34.6462C36.0893 34.9223 36.1916 35.2342 36.1916 35.582V39.2176C36.1916 39.2534 36.1788 39.2841 36.1532 39.3097C36.1277 39.3352 36.097 39.348 36.0612 39.348H34.8033C34.7675 39.348 34.7368 39.3352 34.7112 39.3097C34.6857 39.2841 34.6729 39.2534 34.6729 39.2176V38.8648C34.6729 38.8443 34.6652 38.829 34.6499 38.8188C34.6397 38.8137 34.6269 38.8213 34.6115 38.8418C34.3098 39.2355 33.8266 39.4324 33.1619 39.4324C32.6045 39.4324 32.152 39.2969 31.8042 39.0259C31.4616 38.7549 31.2903 38.3535 31.2903 37.8217C31.2903 37.2694 31.4847 36.8424 31.8733 36.5407C32.2568 36.2339 32.8065 36.0805 33.5224 36.0805H34.6192C34.655 36.0805 34.6729 36.0626 34.6729 36.0268V35.7967C34.6729 35.5564 34.6013 35.3698 34.4581 35.2368C34.315 35.109 34.1002 35.045 33.8138 35.045C33.594 35.045 33.4099 35.0834 33.2616 35.1601C33.1133 35.2368 33.0187 35.3467 32.9778 35.4899C32.9573 35.5717 32.9113 35.6075 32.8397 35.5973L31.5358 35.4286C31.454 35.4132 31.4156 35.38 31.4207 35.3288C31.4514 35.0323 31.5716 34.7613 31.7812 34.5158C31.9909 34.2704 32.2696 34.0812 32.6173 33.9482C32.965 33.8101 33.3536 33.7411 33.7832 33.7411ZM33.5684 38.3049C33.8752 38.3049 34.136 38.2231 34.3507 38.0594C34.5655 37.8958 34.6729 37.6836 34.6729 37.4228V37.0393C34.6729 37.0035 34.655 36.9856 34.6192 36.9856H33.8445C33.5224 36.9856 33.2718 37.047 33.0928 37.1697C32.9088 37.2924 32.8167 37.4637 32.8167 37.6836C32.8167 37.8779 32.8857 38.0313 33.0238 38.1438C33.1568 38.2512 33.3383 38.3049 33.5684 38.3049ZM40.6786 31.9616C40.6786 31.9258 40.6914 31.8952 40.717 31.8696C40.7426 31.844 40.7732 31.8312 40.809 31.8312H42.0593C42.0951 31.8312 42.1258 31.844 42.1513 31.8696C42.1769 31.8952 42.1897 31.9258 42.1897 31.9616V39.2176C42.1897 39.2534 42.1769 39.2841 42.1513 39.3097C42.1258 39.3352 42.0951 39.348 42.0593 39.348H40.809C40.7732 39.348 40.7426 39.3352 40.717 39.3097C40.6914 39.2841 40.6786 39.2534 40.6786 39.2176V38.8648C40.6786 38.8443 40.671 38.8316 40.6556 38.8264C40.6403 38.8213 40.625 38.8264 40.6096 38.8418C40.313 39.2355 39.9014 39.4324 39.3747 39.4324C38.8736 39.4324 38.4441 39.2943 38.0861 39.0182C37.7231 38.737 37.4623 38.3535 37.3038 37.8677C37.181 37.4944 37.1197 37.0597 37.1197 36.5637C37.1197 36.0575 37.1862 35.6152 37.3191 35.2368C37.4827 34.7766 37.741 34.4135 38.0938 34.1476C38.4466 33.8766 38.8864 33.7411 39.4131 33.7411C39.9244 33.7411 40.3233 33.9201 40.6096 34.278C40.625 34.2985 40.6403 34.3062 40.6556 34.301C40.671 34.2959 40.6786 34.2806 40.6786 34.255V31.9616ZM40.4485 37.6759C40.5917 37.41 40.6633 37.047 40.6633 36.5868C40.6633 36.1061 40.5866 35.7303 40.4332 35.4592C40.2645 35.1831 40.0241 35.045 39.7122 35.045C39.3747 35.045 39.119 35.1831 38.9452 35.4592C38.7662 35.7405 38.6767 36.1214 38.6767 36.6021C38.6767 37.0316 38.7534 37.3896 38.9068 37.6759C39.0858 37.9827 39.3491 38.1361 39.6969 38.1361C40.019 38.1361 40.2696 37.9827 40.4485 37.6759ZM48.2184 36.0192C48.2593 36.2902 48.2721 36.5944 48.2568 36.9319C48.2517 37.0188 48.2057 37.0623 48.1187 37.0623H44.7975C44.7566 37.0623 44.7438 37.0802 44.7592 37.116C44.7796 37.2592 44.818 37.4024 44.8742 37.5455C45.0634 37.9444 45.4444 38.1438 46.0171 38.1438C46.4722 38.1387 46.8327 37.952 47.0986 37.5839C47.1293 37.543 47.1625 37.5225 47.1983 37.5225C47.2188 37.5225 47.2418 37.5379 47.2673 37.5685L48.042 38.3279C48.0778 38.3637 48.0957 38.3969 48.0957 38.4276C48.0957 38.4378 48.0829 38.4659 48.0574 38.512C47.817 38.8034 47.5128 39.031 47.1446 39.1946C46.7713 39.3531 46.3623 39.4324 45.9174 39.4324C45.3038 39.4324 44.7822 39.2943 44.3527 39.0182C43.9282 38.737 43.624 38.3458 43.4399 37.8447C43.2865 37.4867 43.2098 37.0188 43.2098 36.441C43.2098 36.0473 43.2635 35.6996 43.3709 35.3979C43.5345 34.8865 43.8234 34.4826 44.2376 34.186C44.6467 33.8843 45.135 33.7334 45.7026 33.7334C46.4185 33.7334 46.9938 33.9405 47.4284 34.3547C47.8579 34.7689 48.1213 35.3237 48.2184 36.0192ZM45.7103 35.045C45.2603 35.045 44.9637 35.2547 44.8205 35.674C44.795 35.766 44.7694 35.8811 44.7438 36.0192C44.7438 36.055 44.7617 36.0729 44.7975 36.0729H46.6614C46.7023 36.0729 46.7151 36.055 46.6997 36.0192C46.6639 35.8095 46.646 35.7098 46.646 35.72C46.5847 35.5053 46.4722 35.3391 46.3086 35.2215C46.15 35.1039 45.9506 35.045 45.7103 35.045ZM51.9385 33.7565C52.1993 33.7565 52.4038 33.805 52.5521 33.9022C52.6083 33.9329 52.6313 33.9866 52.6211 34.0633L52.391 35.2905C52.3859 35.3774 52.3373 35.403 52.2453 35.3672C52.1379 35.3314 52.0126 35.3135 51.8694 35.3135C51.8081 35.3135 51.7288 35.3186 51.6317 35.3288C51.3709 35.3544 51.151 35.449 50.972 35.6126C50.7931 35.7814 50.7036 36.0064 50.7036 36.2876V39.2176C50.7036 39.2534 50.6934 39.2841 50.6729 39.3097C50.6473 39.3352 50.6166 39.348 50.5809 39.348H49.3229C49.2871 39.348 49.2565 39.3352 49.2309 39.3097C49.2053 39.2841 49.1925 39.2534 49.1925 39.2176V33.9559C49.1925 33.9201 49.2053 33.8894 49.2309 33.8638C49.2565 33.8383 49.2871 33.8255 49.3229 33.8255H50.5809C50.6166 33.8255 50.6473 33.8383 50.6729 33.8638C50.6934 33.8894 50.7036 33.9201 50.7036 33.9559V34.3624C50.7036 34.388 50.7112 34.4033 50.7266 34.4084C50.7419 34.4135 50.7521 34.411 50.7573 34.4008C51.0538 33.9712 51.4476 33.7565 51.9385 33.7565ZM14.9682 21.1774C15.004 21.1211 15.0551 21.093 15.1216 21.093H16.3795C16.4153 21.093 16.446 21.1058 16.4716 21.1313C16.4971 21.1569 16.5099 21.1876 16.5099 21.2234V28.4794C16.5099 28.5152 16.4971 28.5458 16.4716 28.5714C16.446 28.597 16.4153 28.6098 16.3795 28.6098H15.1216C15.0858 28.6098 15.0551 28.597 15.0296 28.5714C15.004 28.5458 14.9912 28.5152 14.9912 28.4794V23.7469C14.9912 23.7162 14.9835 23.7008 14.9682 23.7008C14.958 23.7008 14.9452 23.7111 14.9298 23.7315L13.787 25.5187C13.7512 25.5749 13.7026 25.6031 13.6413 25.6031H13.0046C12.9433 25.6031 12.8947 25.5749 12.8589 25.5187L11.716 23.7315C11.7007 23.7111 11.6879 23.7034 11.6777 23.7085C11.6624 23.7136 11.6547 23.729 11.6547 23.7545V28.4794C11.6547 28.5152 11.6419 28.5458 11.6163 28.5714C11.5908 28.597 11.5601 28.6098 11.5243 28.6098H10.2664C10.2306 28.6098 10.1999 28.597 10.1743 28.5714C10.1488 28.5458 10.136 28.5152 10.136 28.4794V21.2234C10.136 21.1876 10.1488 21.1569 10.1743 21.1313C10.1999 21.1058 10.2306 21.093 10.2664 21.093H11.5243C11.5908 21.093 11.6419 21.1211 11.6777 21.1774L13.2884 23.6778C13.3089 23.7239 13.3293 23.7239 13.3498 23.6778L14.9682 21.1774ZM20.1609 28.6941C19.5575 28.6941 19.0411 28.5382 18.6115 28.2263C18.182 27.9092 17.888 27.4797 17.7295 26.9377C17.6323 26.6002 17.5837 26.2346 17.5837 25.8408C17.5837 25.4164 17.6323 25.0355 17.7295 24.698C17.8931 24.1713 18.1897 23.7571 18.6192 23.4554C19.0487 23.1537 19.5652 23.0029 20.1686 23.0029C20.7566 23.0029 21.2577 23.1512 21.6719 23.4477C22.0861 23.7443 22.3802 24.1585 22.554 24.6903C22.6665 25.0482 22.7228 25.4241 22.7228 25.8178C22.7228 26.2064 22.6742 26.5669 22.577 26.8993C22.4185 27.4618 22.127 27.9016 21.7026 28.2186C21.2731 28.5356 20.7592 28.6941 20.1609 28.6941ZM20.1609 27.3979C20.3961 27.3979 20.5956 27.3263 20.7592 27.1831C20.9228 27.0399 21.0404 26.8431 21.112 26.5925C21.1683 26.3624 21.1964 26.1118 21.1964 25.8408C21.1964 25.5391 21.1683 25.2835 21.112 25.0738C21.0353 24.8335 20.9151 24.6443 20.7515 24.5062C20.5828 24.3733 20.3808 24.3068 20.1456 24.3068C19.9052 24.3068 19.7033 24.3733 19.5396 24.5062C19.3811 24.6443 19.2661 24.8335 19.1945 25.0738C19.1331 25.2477 19.1024 25.5033 19.1024 25.8408C19.1024 26.163 19.128 26.4135 19.1791 26.5925C19.2507 26.8431 19.3709 27.0399 19.5396 27.1831C19.7084 27.3263 19.9155 27.3979 20.1609 27.3979ZM29.8253 23.0029C30.3827 23.0029 30.8174 23.1716 31.1293 23.5091C31.4463 23.8466 31.6048 24.3196 31.6048 24.9281V28.4794C31.6048 28.5152 31.592 28.5458 31.5665 28.5714C31.5409 28.597 31.5102 28.6098 31.4744 28.6098H30.2165C30.1807 28.6098 30.15 28.597 30.1245 28.5714C30.104 28.5458 30.0938 28.5152 30.0938 28.4794V25.2579C30.0938 24.9664 30.0171 24.7338 29.8637 24.5599C29.7154 24.3912 29.516 24.3068 29.2654 24.3068C29.0149 24.3068 28.8103 24.3912 28.6518 24.5599C28.4933 24.7338 28.414 24.9639 28.414 25.2502V28.4794C28.414 28.5152 28.4012 28.5458 28.3757 28.5714C28.3501 28.597 28.3194 28.6098 28.2836 28.6098H27.0411C27.0053 28.6098 26.9746 28.597 26.949 28.5714C26.9235 28.5458 26.9107 28.5152 26.9107 28.4794V25.2579C26.9107 24.9715 26.8314 24.7414 26.6729 24.5676C26.5195 24.3937 26.3175 24.3068 26.067 24.3068C25.8368 24.3068 25.6451 24.3733 25.4917 24.5062C25.3383 24.6443 25.2462 24.8335 25.2156 25.0738V28.4794C25.2156 28.5152 25.2028 28.5458 25.1772 28.5714C25.1516 28.597 25.121 28.6098 25.0852 28.6098H23.8273C23.7915 28.6098 23.7633 28.597 23.7429 28.5714C23.7173 28.5458 23.7045 28.5152 23.7045 28.4794V23.2176C23.7045 23.1818 23.7173 23.1512 23.7429 23.1256C23.7633 23.1 23.7915 23.0872 23.8273 23.0872H25.0852C25.121 23.0872 25.1516 23.1 25.1772 23.1256C25.2028 23.1512 25.2156 23.1818 25.2156 23.2176V23.6395C25.2156 23.6599 25.2232 23.6727 25.2386 23.6778C25.2539 23.6881 25.2667 23.683 25.2769 23.6625C25.5735 23.2227 26.0286 23.0029 26.6422 23.0029C27.0002 23.0029 27.3146 23.0796 27.5856 23.233C27.8515 23.3813 28.0561 23.596 28.1993 23.8773C28.2197 23.9182 28.2453 23.9182 28.276 23.8773C28.4345 23.5807 28.6467 23.3608 28.9126 23.2176C29.1836 23.0745 29.4879 23.0029 29.8253 23.0029ZM37.5185 25.2809C37.5646 25.5519 37.5799 25.8562 37.5646 26.1937C37.5594 26.2806 37.5134 26.3241 37.4265 26.3241H34.1053C34.0644 26.3241 34.0516 26.3419 34.067 26.3777C34.0874 26.5209 34.1258 26.6641 34.182 26.8073C34.3661 27.2061 34.7445 27.4055 35.3172 27.4055C35.7774 27.4004 36.1405 27.2138 36.4064 26.8456C36.4319 26.8047 36.4626 26.7843 36.4984 26.7843C36.524 26.7843 36.5495 26.7996 36.5751 26.8303L37.3498 27.5896C37.3856 27.6254 37.4035 27.6587 37.4035 27.6893C37.4035 27.6996 37.3881 27.7277 37.3575 27.7737C37.1222 28.0652 36.818 28.2927 36.4447 28.4564C36.0765 28.6149 35.67 28.6941 35.2251 28.6941C34.6064 28.6941 34.0848 28.5561 33.6604 28.2799C33.236 27.9987 32.9292 27.6075 32.74 27.1064C32.5917 26.7485 32.5176 26.2806 32.5176 25.7028C32.5176 25.309 32.5713 24.9613 32.6786 24.6596C32.8423 24.1483 33.1312 23.7443 33.5454 23.4477C33.9545 23.146 34.4428 22.9952 35.0104 22.9952C35.7263 22.9952 36.299 23.2023 36.7285 23.6165C37.1631 24.0307 37.4265 24.5855 37.5185 25.2809ZM35.0181 24.3068C34.5681 24.3068 34.2715 24.5164 34.1283 24.9357C34.0976 25.0278 34.0721 25.1428 34.0516 25.2809C34.0516 25.3167 34.0695 25.3346 34.1053 25.3346H35.9615C36.0075 25.3346 36.0228 25.3167 36.0075 25.2809C35.9717 25.0713 35.9538 24.9715 35.9538 24.9818C35.8873 24.767 35.7748 24.6008 35.6163 24.4832C35.4527 24.3656 35.2533 24.3068 35.0181 24.3068ZM41.3766 23.0029C41.9493 23.0029 42.4121 23.1793 42.7649 23.5321C43.1127 23.8798 43.2865 24.3554 43.2865 24.9588V28.4794C43.2865 28.5152 43.2737 28.5458 43.2482 28.5714C43.2226 28.597 43.1919 28.6098 43.1561 28.6098H41.9059C41.8701 28.6098 41.8394 28.597 41.8138 28.5714C41.7883 28.5458 41.7755 28.5152 41.7755 28.4794V25.2732C41.7755 24.9869 41.6937 24.7542 41.53 24.5753C41.3715 24.3963 41.1593 24.3068 40.8934 24.3068C40.6275 24.3068 40.4153 24.3963 40.2568 24.5753C40.0932 24.7542 40.0113 24.9869 40.0113 25.2732V28.4794C40.0113 28.5152 39.9986 28.5458 39.973 28.5714C39.9474 28.597 39.9167 28.6098 39.8809 28.6098H38.6307C38.5949 28.6098 38.5642 28.597 38.5387 28.5714C38.5131 28.5458 38.5003 28.5152 38.5003 28.4794V23.2176C38.5003 23.1818 38.5131 23.1512 38.5387 23.1256C38.5642 23.1 38.5949 23.0872 38.6307 23.0872H39.8809C39.9167 23.0872 39.9474 23.1 39.973 23.1256C39.9986 23.1512 40.0113 23.1818 40.0113 23.2176V23.5935C40.0113 23.6139 40.019 23.6293 40.0344 23.6395C40.0497 23.6446 40.0599 23.6395 40.065 23.6241C40.3616 23.21 40.7988 23.0029 41.3766 23.0029ZM47.5435 24.1764C47.5435 24.2122 47.5307 24.2429 47.5051 24.2684C47.4795 24.294 47.4489 24.3068 47.4131 24.3068H46.3776C46.3418 24.3068 46.3239 24.3247 46.3239 24.3605V26.6309C46.3239 26.8712 46.3725 27.0476 46.4696 27.1601C46.5668 27.2726 46.7228 27.3288 46.9375 27.3288H47.2903C47.3261 27.3288 47.3568 27.3416 47.3824 27.3672C47.408 27.3928 47.4207 27.4234 47.4207 27.4592V28.4794C47.4207 28.5612 47.3773 28.6072 47.2903 28.6174C46.9938 28.6328 46.779 28.6404 46.646 28.6404C46.0529 28.6404 45.6106 28.5433 45.3191 28.349C45.0225 28.1496 44.8717 27.7788 44.8666 27.2368V24.3605C44.8666 24.3247 44.8487 24.3068 44.8129 24.3068H44.1993C44.1635 24.3068 44.1328 24.294 44.1072 24.2684C44.0817 24.2429 44.0689 24.2122 44.0689 24.1764V23.2176C44.0689 23.1818 44.0817 23.1512 44.1072 23.1256C44.1328 23.1 44.1635 23.0872 44.1993 23.0872H44.8129C44.8487 23.0872 44.8666 23.0693 44.8666 23.0335V21.7603C44.8666 21.7245 44.8793 21.6938 44.9049 21.6683C44.9305 21.6427 44.9612 21.6299 44.997 21.6299H46.2012C46.237 21.6299 46.2651 21.6427 46.2855 21.6683C46.3111 21.6938 46.3239 21.7245 46.3239 21.7603V23.0335C46.3239 23.0693 46.3418 23.0872 46.3776 23.0872H47.4131C47.4489 23.0872 47.4795 23.1 47.5051 23.1256C47.5307 23.1512 47.5435 23.1818 47.5435 23.2176V24.1764ZM51.6777 23.2176C51.6777 23.1818 51.6879 23.1512 51.7084 23.1256C51.7339 23.1 51.7646 23.0872 51.8004 23.0872H53.0583C53.0941 23.0872 53.1248 23.1 53.1504 23.1256C53.1759 23.1512 53.1887 23.1818 53.1887 23.2176V28.4794C53.1887 28.5152 53.1759 28.5458 53.1504 28.5714C53.1248 28.597 53.0941 28.6098 53.0583 28.6098H51.8004C51.7646 28.6098 51.7339 28.597 51.7084 28.5714C51.6879 28.5458 51.6777 28.5152 51.6777 28.4794V28.1189C51.6777 28.0933 51.67 28.0805 51.6547 28.0805C51.6393 28.0754 51.624 28.0831 51.6087 28.1035C51.3223 28.4922 50.88 28.6865 50.2817 28.6865C49.7346 28.6865 49.2871 28.5203 48.9394 28.1879C48.5866 27.8606 48.4102 27.4004 48.4102 26.8073V23.2176C48.4102 23.1818 48.423 23.1512 48.4485 23.1256C48.4741 23.1 48.5048 23.0872 48.5406 23.0872H49.7832C49.8189 23.0872 49.8496 23.1 49.8752 23.1256C49.9008 23.1512 49.9135 23.1818 49.9135 23.2176V26.4314C49.9135 26.7178 49.9902 26.9504 50.1437 27.1294C50.2971 27.3084 50.5093 27.3979 50.7803 27.3979C51.0257 27.3979 51.2277 27.3237 51.3862 27.1754C51.5447 27.0272 51.6419 26.8354 51.6777 26.6002V23.2176ZM60.4294 23.0029C60.9867 23.0029 61.4214 23.1716 61.7333 23.5091C62.0503 23.8466 62.2088 24.3196 62.2088 24.9281V28.4794C62.2088 28.5152 62.1961 28.5458 62.1705 28.5714C62.1449 28.597 62.1142 28.6098 62.0785 28.6098H60.8205C60.7848 28.6098 60.7541 28.597 60.7285 28.5714C60.708 28.5458 60.6978 28.5152 60.6978 28.4794V25.2579C60.6978 24.9664 60.6211 24.7338 60.4677 24.5599C60.3194 24.3912 60.12 24.3068 59.8694 24.3068C59.6189 24.3068 59.4143 24.3912 59.2558 24.5599C59.0973 24.7338 59.0181 24.9639 59.0181 25.2502V28.4794C59.0181 28.5152 59.0053 28.5458 58.9797 28.5714C58.9541 28.597 58.9235 28.6098 58.8877 28.6098H57.6451C57.6093 28.6098 57.5786 28.597 57.553 28.5714C57.5275 28.5458 57.5147 28.5152 57.5147 28.4794V25.2579C57.5147 24.9715 57.4354 24.7414 57.2769 24.5676C57.1235 24.3937 56.9215 24.3068 56.671 24.3068C56.4409 24.3068 56.2491 24.3733 56.0957 24.5062C55.9423 24.6443 55.8503 24.8335 55.8196 25.0738V28.4794C55.8196 28.5152 55.8068 28.5458 55.7812 28.5714C55.7557 28.597 55.725 28.6098 55.6892 28.6098H54.4313C54.3955 28.6098 54.3648 28.597 54.3392 28.5714C54.3188 28.5458 54.3086 28.5152 54.3086 28.4794V23.2176C54.3086 23.1818 54.3188 23.1512 54.3392 23.1256C54.3648 23.1 54.3955 23.0872 54.4313 23.0872H55.6892C55.725 23.0872 55.7557 23.1 55.7812 23.1256C55.8068 23.1512 55.8196 23.1818 55.8196 23.2176V23.6395C55.8196 23.6599 55.8273 23.6727 55.8426 23.6778C55.8579 23.6881 55.8707 23.683 55.8809 23.6625C56.1775 23.2227 56.6326 23.0029 57.2462 23.0029C57.6042 23.0029 57.9187 23.0796 58.1897 23.233C58.4556 23.3813 58.6601 23.596 58.8033 23.8773C58.8237 23.9182 58.8493 23.9182 58.88 23.8773C59.0385 23.5807 59.2507 23.3608 59.5166 23.2176C59.7876 23.0745 60.0919 23.0029 60.4294 23.0029Z" fill="#252530" style="fill:#252530;fill:color(display-p3 0.1451 0.1451 0.1882);fill-opacity:1;"/>
<path d="M24.3814 51.1601C24.3251 51.1601 24.2893 51.1346 24.274 51.0834L22.878 45.8907L22.8704 45.86C22.8704 45.814 22.8985 45.791 22.9547 45.791H23.7064C23.7627 45.791 23.7985 45.8166 23.8138 45.8677L24.6882 49.3653C24.6933 49.3807 24.701 49.3883 24.7112 49.3883C24.7214 49.3883 24.7291 49.3807 24.7342 49.3653L25.5703 45.8677C25.5856 45.8166 25.6188 45.791 25.67 45.791H26.4063C26.4626 45.791 26.4984 45.8166 26.5137 45.8677L27.4034 49.373C27.4086 49.3883 27.4162 49.396 27.4264 49.396C27.4367 49.396 27.4443 49.3883 27.4495 49.373L28.3085 45.8677C28.3239 45.8166 28.3597 45.791 28.4159 45.791H29.1292C29.2008 45.791 29.2289 45.8243 29.2136 45.8907L27.8867 51.0834C27.8713 51.1346 27.8355 51.1601 27.7793 51.1601H27.066C27.0097 51.1601 26.9739 51.1346 26.9586 51.0834L26.0612 47.4248C26.056 47.4094 26.0484 47.3992 26.0381 47.3941C26.0279 47.3941 26.0203 47.4043 26.0151 47.4248L25.1561 51.0834C25.1407 51.1346 25.1075 51.1601 25.0564 51.1601H24.3814ZM30.065 51.1601C30.0394 51.1601 30.0164 51.1499 29.996 51.1295C29.9806 51.1141 29.973 51.0937 29.973 51.0681V45.8831C29.973 45.8575 29.9806 45.837 29.996 45.8217C30.0164 45.8012 30.0394 45.791 30.065 45.791H30.7706C30.7962 45.791 30.8167 45.8012 30.832 45.8217C30.8525 45.837 30.8627 45.8575 30.8627 45.8831V51.0681C30.8627 51.0937 30.8525 51.1141 30.832 51.1295C30.8167 51.1499 30.7962 51.1601 30.7706 51.1601H30.065ZM35.1043 45.8831C35.1043 45.8575 35.112 45.837 35.1273 45.8217C35.1478 45.8012 35.1708 45.791 35.1963 45.791H35.902C35.9276 45.791 35.948 45.8012 35.9634 45.8217C35.9838 45.837 35.994 45.8575 35.994 45.8831V51.0681C35.994 51.0937 35.9838 51.1141 35.9634 51.1295C35.948 51.1499 35.9276 51.1601 35.902 51.1601H35.2194C35.1682 51.1601 35.1324 51.1397 35.112 51.0988L32.903 47.4785C32.8927 47.4631 32.8825 47.4554 32.8723 47.4554C32.8621 47.4606 32.8569 47.4733 32.8569 47.4938L32.8723 51.0681C32.8723 51.0937 32.8621 51.1141 32.8416 51.1295C32.8263 51.1499 32.8058 51.1601 32.7802 51.1601H32.0746C32.049 51.1601 32.026 51.1499 32.0055 51.1295C31.9902 51.1141 31.9825 51.0937 31.9825 51.0681V45.8831C31.9825 45.8575 31.9902 45.837 32.0055 45.8217C32.026 45.8012 32.049 45.791 32.0746 45.791H32.7572C32.8084 45.791 32.8442 45.8115 32.8646 45.8524L35.066 49.4727C35.0762 49.488 35.0864 49.4932 35.0966 49.488C35.1069 49.488 35.112 49.4778 35.112 49.4574L35.1043 45.8831ZM40.6422 45.791C40.6677 45.791 40.6882 45.8012 40.7035 45.8217C40.724 45.837 40.7342 45.8575 40.7342 45.8831V46.4737C40.7342 46.4992 40.724 46.5197 40.7035 46.535C40.6882 46.5555 40.6677 46.5657 40.6422 46.5657H39.2309C39.2053 46.5657 39.1925 46.5785 39.1925 46.6041V51.0681C39.1925 51.0937 39.1848 51.1141 39.1695 51.1295C39.149 51.1499 39.126 51.1601 39.1005 51.1601H38.3948C38.3692 51.1601 38.3488 51.1499 38.3334 51.1295C38.313 51.1141 38.3028 51.0937 38.3028 51.0681V46.6041C38.3028 46.5785 38.29 46.5657 38.2644 46.5657H36.9068C36.8812 46.5657 36.8582 46.5555 36.8378 46.535C36.8224 46.5197 36.8148 46.4992 36.8148 46.4737V45.8831C36.8148 45.8575 36.8224 45.837 36.8378 45.8217C36.8582 45.8012 36.8812 45.791 36.9068 45.791H40.6422ZM45.1906 46.466C45.1906 46.4916 45.1804 46.512 45.1599 46.5274C45.1446 46.5478 45.1241 46.558 45.0985 46.558H42.483C42.4574 46.558 42.4447 46.5708 42.4447 46.5964V48.0307C42.4447 48.0563 42.4574 48.0691 42.483 48.0691H44.2395C44.2651 48.0691 44.2881 48.0767 44.3085 48.0921C44.3239 48.1125 44.3315 48.1355 44.3315 48.1611V48.744C44.3315 48.7696 44.3239 48.7926 44.3085 48.8131C44.2881 48.8284 44.2651 48.8361 44.2395 48.8361H42.483C42.4574 48.8361 42.4447 48.8489 42.4447 48.8744V50.3548C42.4447 50.3803 42.4574 50.3931 42.483 50.3931H45.0985C45.1241 50.3931 45.1446 50.4034 45.1599 50.4238C45.1804 50.4391 45.1906 50.4596 45.1906 50.4852V51.0681C45.1906 51.0937 45.1804 51.1141 45.1599 51.1295C45.1446 51.1499 45.1241 51.1601 45.0985 51.1601H41.647C41.6214 51.1601 41.5984 51.1499 41.5779 51.1295C41.5626 51.1141 41.5549 51.0937 41.5549 51.0681V45.8831C41.5549 45.8575 41.5626 45.837 41.5779 45.8217C41.5984 45.8012 41.6214 45.791 41.647 45.791H45.0985C45.1241 45.791 45.1446 45.8012 45.1599 45.8217C45.1804 45.837 45.1906 45.8575 45.1906 45.8831V46.466ZM49.1101 51.1601C49.0589 51.1601 49.0231 51.1371 49.0027 51.0911L47.9902 48.8821C47.98 48.8616 47.9646 48.8514 47.9442 48.8514H47.0238C46.9982 48.8514 46.9854 48.8642 46.9854 48.8898V51.0681C46.9854 51.0937 46.9752 51.1141 46.9547 51.1295C46.9394 51.1499 46.9189 51.1601 46.8934 51.1601H46.1877C46.1621 51.1601 46.1391 51.1499 46.1187 51.1295C46.1033 51.1141 46.0957 51.0937 46.0957 51.0681V45.8831C46.0957 45.8575 46.1033 45.837 46.1187 45.8217C46.1391 45.8012 46.1621 45.791 46.1877 45.791H48.297C48.6089 45.791 48.8851 45.8549 49.1254 45.9828C49.3657 46.1157 49.5524 46.2998 49.6853 46.535C49.8183 46.7754 49.8847 47.0489 49.8847 47.3557C49.8847 47.7086 49.7927 48.0077 49.6086 48.2531C49.4296 48.5037 49.1791 48.6776 48.8569 48.7747C48.8467 48.7747 48.839 48.7798 48.8339 48.7901C48.8288 48.8003 48.8288 48.8105 48.8339 48.8207L49.9154 51.0528C49.9256 51.0732 49.9308 51.0886 49.9308 51.0988C49.9308 51.1397 49.9026 51.1601 49.8464 51.1601H49.1101ZM47.0238 46.558C46.9982 46.558 46.9854 46.5708 46.9854 46.5964V48.1228C46.9854 48.1483 46.9982 48.1611 47.0238 48.1611H48.1743C48.4197 48.1611 48.6192 48.087 48.7726 47.9387C48.9209 47.7955 48.995 47.6037 48.995 47.3634C48.995 47.1231 48.9209 46.9288 48.7726 46.7805C48.6192 46.6322 48.4197 46.558 48.1743 46.558H47.0238Z" fill="white" style="fill:white;fill-opacity:1;"/>
<path d="M26.1346 65.0125C26.1193 65.0279 26.1142 65.0432 26.1193 65.0585C26.1295 65.0739 26.1448 65.0816 26.1653 65.0816H29.1797C29.2155 65.0816 29.2461 65.0943 29.2717 65.1199C29.3024 65.1455 29.3177 65.1762 29.3177 65.2119V66.2934C29.3177 66.3292 29.3024 66.3599 29.2717 66.3855C29.2461 66.411 29.2155 66.4238 29.1797 66.4238H24.1787C24.1378 66.4238 24.1046 66.411 24.079 66.3855C24.0534 66.3599 24.0406 66.3292 24.0406 66.2934V65.2656C24.0406 65.1992 24.0637 65.1429 24.1097 65.0969C24.4727 64.7441 24.8435 64.358 25.2219 63.9387C25.6003 63.5194 25.838 63.2586 25.9352 63.1563C26.1397 62.9109 26.3494 62.6757 26.5641 62.4507C27.2391 61.7041 27.5766 61.1493 27.5766 60.7862C27.5766 60.5255 27.4846 60.3107 27.3005 60.142C27.1164 59.9783 26.8761 59.8965 26.5795 59.8965C26.2829 59.8965 26.0426 59.9783 25.8585 60.142C25.6693 60.3107 25.5747 60.5331 25.5747 60.8093V61.0854C25.5747 61.1212 25.5619 61.1519 25.5363 61.1774C25.5108 61.203 25.4801 61.2158 25.4443 61.2158H24.1327C24.0969 61.2158 24.0662 61.203 24.0406 61.1774C24.01 61.1519 23.9946 61.1212 23.9946 61.0854V60.5638C24.0202 60.165 24.148 59.8096 24.3781 59.4977C24.6082 59.1908 24.9125 58.9556 25.2909 58.792C25.6744 58.6284 26.1039 58.5466 26.5795 58.5466C27.1062 58.5466 27.5638 58.6463 27.9524 58.8457C28.3411 59.04 28.6402 59.3033 28.8499 59.6357C29.0646 59.9732 29.172 60.3439 29.172 60.7479C29.172 61.0598 29.0927 61.3794 28.9342 61.7067C28.7808 62.0339 28.5482 62.3868 28.2362 62.7652C28.0061 63.0515 27.7581 63.3379 27.4922 63.6242C27.2263 63.9055 26.83 64.312 26.3034 64.8438L26.1346 65.0125ZM32.9304 66.5466C32.1122 66.5466 31.4679 66.319 30.9975 65.8639C30.522 65.4088 30.2842 64.7875 30.2842 64.0001V61.0624C30.2842 60.2902 30.522 59.6792 30.9975 59.2292C31.4679 58.7741 32.1122 58.5466 32.9304 58.5466C33.7434 58.5466 34.3903 58.7741 34.8709 59.2292C35.3465 59.6792 35.5843 60.2902 35.5843 61.0624V64.0001C35.5843 64.7875 35.3465 65.4088 34.8709 65.8639C34.3903 66.319 33.7434 66.5466 32.9304 66.5466ZM32.9304 65.2043C33.2628 65.2043 33.5261 65.102 33.7204 64.8975C33.9198 64.6929 34.0196 64.4194 34.0196 64.0768V61.0164C34.0196 60.6789 33.9198 60.4079 33.7204 60.2033C33.5261 59.9988 33.2628 59.8965 32.9304 59.8965C32.6031 59.8965 32.3423 59.9988 32.148 60.2033C31.9486 60.4079 31.8489 60.6789 31.8489 61.0164V64.0768C31.8489 64.4194 31.9486 64.6929 32.148 64.8975C32.3423 65.102 32.6031 65.2043 32.9304 65.2043ZM38.6984 65.0125C38.683 65.0279 38.6805 65.0432 38.6907 65.0585C38.6958 65.0739 38.7111 65.0816 38.7367 65.0816H41.7511C41.7869 65.0816 41.8176 65.0943 41.8431 65.1199C41.8687 65.1455 41.8815 65.1762 41.8815 65.2119V66.2934C41.8815 66.3292 41.8687 66.3599 41.8431 66.3855C41.8176 66.411 41.7869 66.4238 41.7511 66.4238H36.7425C36.7067 66.4238 36.676 66.411 36.6504 66.3855C36.6249 66.3599 36.6121 66.3292 36.6121 66.2934V65.2656C36.6121 65.1992 36.6325 65.1429 36.6734 65.0969C37.0416 64.7441 37.4123 64.358 37.7856 63.9387C38.164 63.5194 38.4018 63.2586 38.4989 63.1563C38.7086 62.9109 38.9208 62.6757 39.1356 62.4507C39.8105 61.7041 40.148 61.1493 40.148 60.7862C40.148 60.5255 40.056 60.3107 39.8719 60.142C39.6827 59.9783 39.4398 59.8965 39.1432 59.8965C38.8467 59.8965 38.6063 59.9783 38.4222 60.142C38.2382 60.3107 38.1461 60.5331 38.1461 60.8093V61.0854C38.1461 61.1212 38.1333 61.1519 38.1078 61.1774C38.0822 61.203 38.049 61.2158 38.0081 61.2158H36.6964C36.6607 61.2158 36.63 61.203 36.6044 61.1774C36.5788 61.1519 36.5661 61.1212 36.5661 61.0854V60.5638C36.5865 60.165 36.7118 59.8096 36.9419 59.4977C37.172 59.1908 37.4788 58.9556 37.8623 58.792C38.2458 58.6284 38.6728 58.5466 39.1432 58.5466C39.6699 58.5466 40.1276 58.6463 40.5162 58.8457C40.9099 59.04 41.2116 59.3033 41.4213 59.6357C41.6309 59.9732 41.7358 60.3439 41.7358 60.7479C41.7358 61.0598 41.6591 61.3794 41.5057 61.7067C41.3471 62.0339 41.1119 62.3868 40.8 62.7652C40.5699 63.0515 40.3219 63.3379 40.056 63.6242C39.7901 63.9055 39.3938 64.312 38.8671 64.8438L38.6984 65.0125ZM48.4088 63.0336C48.4446 63.0336 48.4778 63.0464 48.5085 63.072C48.5341 63.0975 48.5469 63.1282 48.5469 63.164V64.2915C48.5469 64.3273 48.5341 64.358 48.5085 64.3836C48.4778 64.4091 48.4446 64.4219 48.4088 64.4219H47.9333C47.8975 64.4219 47.8796 64.4398 47.8796 64.4756V66.2934C47.8796 66.3292 47.8668 66.3599 47.8412 66.3855C47.8105 66.411 47.7773 66.4238 47.7415 66.4238H46.4453C46.4043 66.4238 46.3711 66.411 46.3455 66.3855C46.32 66.3599 46.3072 66.3292 46.3072 66.2934V64.4756C46.3072 64.4398 46.2893 64.4219 46.2535 64.4219H42.8403C42.8045 64.4219 42.7712 64.4091 42.7406 64.3836C42.715 64.358 42.7022 64.3273 42.7022 64.2915V63.4018C42.7022 63.3558 42.715 63.2995 42.7406 63.233L44.7425 58.7383C44.7732 58.6718 44.8243 58.6386 44.8959 58.6386H46.2842C46.3353 58.6386 46.3711 58.6514 46.3916 58.6769C46.412 58.7025 46.4095 58.7409 46.3839 58.792L44.5277 62.9646C44.5226 62.9799 44.5226 62.9953 44.5277 63.0106C44.5379 63.0259 44.5507 63.0336 44.5661 63.0336H46.2535C46.2893 63.0336 46.3072 63.0132 46.3072 62.9723V61.5993C46.3072 61.5584 46.32 61.5251 46.3455 61.4996C46.3711 61.474 46.4043 61.4612 46.4453 61.4612H47.7415C47.7773 61.4612 47.8105 61.474 47.8412 61.4996C47.8668 61.5251 47.8796 61.5584 47.8796 61.5993V62.9723C47.8796 63.0132 47.8975 63.0336 47.9333 63.0336H48.4088Z" fill="#252530" style="fill:#252530;fill:color(display-p3 0.1451 0.1451 0.1882);fill-opacity:1;"/>
</svg>
