<svg width="121" height="150" viewBox="0 0 121 150" fill="none" xmlns="http://www.w3.org/2000/svg">
<g clip-path="url(#clip0_49_1059)">
<g clip-path="url(#clip1_49_1059)">
<g clip-path="url(#clip2_49_1059)">
<path d="M10.4983 113.428L61.654 139.459L110.867 113.428V11.6348H10.4983V113.428Z" fill="white"/>
<path d="M111.903 12.0225L9.46216 115.241L62.5605 141.531L111.903 116.277V12.0225Z" fill="#F2F3F2"/>
<path d="M7.1311 45.5659V115.63L8.94422 116.536L60.1 142.568L61.6541 143.345L63.2082 142.568L112.551 116.536L114.364 115.63V8.26758H7.1311V45.5659ZM10.4983 113.687V11.6348H110.997V113.687L61.6541 139.718L10.4983 113.687Z" fill="#DCDEDC"/>
<path d="M60.7474 13.3184C61.2655 13.3184 61.7835 13.3184 62.3015 13.4479L60.7474 16.4266C58.4163 16.2971 56.3442 18.1102 56.2146 20.4413C56.0851 22.7725 57.8983 24.8446 60.2294 24.9741H60.7474C61.7835 24.9741 62.8196 24.5856 63.5966 23.9381L65.2802 26.7872C63.9851 27.6938 62.431 28.2118 60.7474 28.2118C56.6032 28.3413 53.1065 25.2332 52.9769 21.0889C52.8474 16.9446 55.9556 13.4479 60.0999 13.3184H60.7474ZM66.0573 19.6643L67.9999 22.902L66.0573 26.0102L64.2442 22.902H60.4884L62.431 19.6643H66.0573ZM62.9491 18.4987C62.9491 17.9807 63.0786 17.4627 63.3376 17.0741C63.5966 16.6856 64.1146 16.2971 64.5032 16.0381L64.7622 15.9086C65.2802 15.6495 65.4097 15.52 65.4097 15.261C65.4097 15.002 65.0212 14.743 64.7622 14.743C64.2442 14.743 63.8556 15.002 63.5966 15.52L62.9491 14.8725C63.0786 14.6135 63.3376 14.3545 63.5966 14.0954C63.9851 13.8364 64.3737 13.8364 64.7622 13.8364C65.1507 13.8364 65.6687 13.9659 65.9278 14.225C66.1868 14.484 66.4458 14.8725 66.4458 15.261C66.4458 15.9086 66.0573 16.4266 65.2802 16.6856L64.8917 16.9446C64.5032 17.2036 64.2442 17.3332 64.1146 17.7217H66.4458V18.6282L62.9491 18.4987ZM60.7474 34.6873L73.0507 27.6938V8.26758H48.3146V27.5643L60.7474 34.6873ZM116.824 80.5331H4.67038L0.526123 89.5987L4.67038 98.6643H116.824L120.839 89.5987L116.824 80.5331Z" fill="#FF492C"/>
<path d="M32.7737 74.7048C32.7132 74.7048 32.6614 74.6832 32.6183 74.64C32.5751 74.5969 32.5535 74.5451 32.5535 74.4846V62.2331C32.5535 62.1727 32.5751 62.1209 32.6183 62.0777C32.6614 62.0346 32.7132 62.013 32.7737 62.013H34.8976C34.9581 62.013 35.0099 62.0346 35.053 62.0777C35.0962 62.1209 35.1178 62.1727 35.1178 62.2331V72.4254C35.1178 72.4859 35.148 72.5161 35.2084 72.5161H41.1399C41.2003 72.5161 41.2478 72.5334 41.2824 72.5679C41.3255 72.6111 41.3471 72.6629 41.3471 72.7233V74.4846C41.3471 74.5451 41.3255 74.5969 41.2824 74.64C41.2478 74.6832 41.2003 74.7048 41.1399 74.7048H32.7737ZM51.0214 69.0841C51.0905 69.5417 51.112 70.0554 51.0861 70.6253C51.0775 70.7721 50.9998 70.8454 50.853 70.8454H45.2453C45.1762 70.8454 45.1547 70.8757 45.1806 70.9361C45.2151 71.1778 45.2799 71.4196 45.3748 71.6613C45.6943 72.3348 46.3375 72.6715 47.3045 72.6715C48.0729 72.6629 48.6816 72.3477 49.1306 71.7261C49.1824 71.657 49.2385 71.6225 49.2989 71.6225C49.3335 71.6225 49.3723 71.6484 49.4155 71.7002L50.7235 72.9823C50.784 73.0428 50.8142 73.0989 50.8142 73.1507C50.8142 73.168 50.7926 73.2154 50.7494 73.2931C50.3436 73.7853 49.8299 74.1695 49.2083 74.4458C48.578 74.7134 47.8873 74.8472 47.1361 74.8472C46.1001 74.8472 45.2194 74.6141 44.4942 74.1479C43.7776 73.673 43.2638 73.0125 42.953 72.1664C42.694 71.5621 42.5645 70.7721 42.5645 69.7964C42.5645 69.1316 42.6552 68.5445 42.8365 68.0351C43.1128 67.1717 43.6006 66.4897 44.2999 65.9889C44.9906 65.4795 45.8152 65.2248 46.7735 65.2248C47.9823 65.2248 48.9536 65.5745 49.6875 66.2738C50.4127 66.9731 50.8573 67.9099 51.0214 69.0841ZM46.7865 67.4394C46.0267 67.4394 45.5259 67.7934 45.2842 68.5013C45.241 68.6568 45.1978 68.851 45.1547 69.0841C45.1547 69.1446 45.1849 69.1748 45.2453 69.1748H48.3924C48.4614 69.1748 48.483 69.1446 48.4571 69.0841C48.3967 68.7301 48.3665 68.5618 48.3665 68.579C48.2629 68.2164 48.0729 67.9358 47.7966 67.7372C47.529 67.5387 47.1923 67.4394 46.7865 67.4394ZM56.2924 65.2377C57.0781 65.2377 57.7774 65.3759 58.3904 65.6522C59.012 65.9198 59.4955 66.2911 59.8409 66.7659C60.1863 67.2322 60.3589 67.7588 60.3589 68.3459V74.4846C60.3589 74.5451 60.3373 74.5969 60.2942 74.64C60.251 74.6832 60.1992 74.7048 60.1388 74.7048H58.0148C57.9544 74.7048 57.9026 74.6832 57.8594 74.64C57.8162 74.5969 57.7947 74.5451 57.7947 74.4846V73.8889C57.7947 73.8543 57.7817 73.8284 57.7558 73.8112C57.7385 73.8025 57.717 73.8155 57.6911 73.85C57.1817 74.5148 56.3658 74.8472 55.2434 74.8472C54.3023 74.8472 53.5382 74.6185 52.9511 74.1609C52.3726 73.7033 52.0834 73.0255 52.0834 72.1276C52.0834 71.1951 52.4114 70.4742 53.0676 69.9648C53.7152 69.4468 54.6433 69.1877 55.852 69.1877H57.704C57.7644 69.1877 57.7947 69.1575 57.7947 69.0971V68.7086C57.7947 68.3028 57.6738 67.9876 57.432 67.7631C57.1903 67.5473 56.8277 67.4394 56.3442 67.4394C55.9729 67.4394 55.6621 67.5041 55.4117 67.6336C55.1613 67.7631 55.0016 67.9488 54.9325 68.1905C54.898 68.3287 54.8203 68.3891 54.6994 68.3718L52.4978 68.0869C52.3596 68.061 52.2949 68.0049 52.3035 67.9186C52.3553 67.4178 52.5582 66.9602 52.9122 66.5458C53.2662 66.1313 53.7367 65.8119 54.3238 65.5874C54.9109 65.3543 55.5671 65.2377 56.2924 65.2377ZM55.9297 72.9435C56.4478 72.9435 56.8881 72.8053 57.2507 72.529C57.6134 72.2528 57.7947 71.8945 57.7947 71.4541V70.8066C57.7947 70.7462 57.7644 70.7159 57.704 70.7159H56.396C55.852 70.7159 55.429 70.8195 55.1268 71.0268C54.816 71.234 54.6606 71.5232 54.6606 71.8945C54.6606 72.2225 54.7771 72.4816 55.0102 72.6715C55.2347 72.8528 55.5412 72.9435 55.9297 72.9435ZM67.9352 62.2331C67.9352 62.1727 67.9567 62.1209 67.9999 62.0777C68.0431 62.0346 68.0949 62.013 68.1553 62.013H70.2663C70.3267 62.013 70.3785 62.0346 70.4217 62.0777C70.4649 62.1209 70.4865 62.1727 70.4865 62.2331V74.4846C70.4865 74.5451 70.4649 74.5969 70.4217 74.64C70.3785 74.6832 70.3267 74.7048 70.2663 74.7048H68.1553C68.0949 74.7048 68.0431 74.6832 67.9999 74.64C67.9567 74.5969 67.9352 74.5451 67.9352 74.4846V73.8889C67.9352 73.8543 67.9222 73.8328 67.8963 73.8241C67.8704 73.8155 67.8445 73.8241 67.8186 73.85C67.3178 74.5148 66.6228 74.8472 65.7335 74.8472C64.8874 74.8472 64.1622 74.6141 63.5578 74.1479C62.9448 73.673 62.5044 73.0255 62.2368 72.2053C62.0296 71.575 61.926 70.8411 61.926 70.0036C61.926 69.1489 62.0382 68.4021 62.2627 67.7631C62.539 66.9861 62.975 66.3731 63.5707 65.9241C64.1665 65.4665 64.909 65.2377 65.7983 65.2377C66.6617 65.2377 67.3351 65.5399 67.8186 66.1443C67.8445 66.1788 67.8704 66.1918 67.8963 66.1831C67.9222 66.1745 67.9352 66.1486 67.9352 66.1054V62.2331ZM67.5466 71.8815C67.7884 71.4325 67.9093 70.8195 67.9093 70.0425C67.9093 69.2309 67.7798 68.5963 67.5207 68.1387C67.2358 67.6725 66.83 67.4394 66.3034 67.4394C65.7335 67.4394 65.3018 67.6725 65.0083 68.1387C64.7061 68.6136 64.555 69.2568 64.555 70.0684C64.555 70.7936 64.6845 71.398 64.9435 71.8815C65.2457 72.3995 65.6903 72.6586 66.2775 72.6586C66.8214 72.6586 67.2444 72.3995 67.5466 71.8815ZM80.6658 69.0841C80.7349 69.5417 80.7565 70.0554 80.7306 70.6253C80.7219 70.7721 80.6442 70.8454 80.4975 70.8454H74.8897C74.8207 70.8454 74.7991 70.8757 74.825 70.9361C74.8595 71.1778 74.9243 71.4196 75.0193 71.6613C75.3387 72.3348 75.9819 72.6715 76.9489 72.6715C77.7173 72.6629 78.326 72.3477 78.775 71.7261C78.8268 71.657 78.8829 71.6225 78.9434 71.6225C78.9779 71.6225 79.0167 71.6484 79.0599 71.7002L80.3679 72.9823C80.4284 73.0428 80.4586 73.0989 80.4586 73.1507C80.4586 73.168 80.437 73.2154 80.3938 73.2931C79.9881 73.7853 79.4743 74.1695 78.8527 74.4458C78.2224 74.7134 77.5317 74.8472 76.7806 74.8472C75.7445 74.8472 74.8638 74.6141 74.1386 74.1479C73.422 73.673 72.9083 73.0125 72.5975 72.1664C72.3384 71.5621 72.2089 70.7721 72.2089 69.7964C72.2089 69.1316 72.2996 68.5445 72.4809 68.0351C72.7572 67.1717 73.245 66.4897 73.9443 65.9889C74.635 65.4795 75.4596 65.2248 76.4179 65.2248C77.6267 65.2248 78.598 65.5745 79.3319 66.2738C80.0571 66.9731 80.5018 67.9099 80.6658 69.0841ZM76.4309 67.4394C75.6711 67.4394 75.1703 67.7934 74.9286 68.5013C74.8854 68.6568 74.8423 68.851 74.7991 69.0841C74.7991 69.1446 74.8293 69.1748 74.8897 69.1748H78.0368C78.1059 69.1748 78.1275 69.1446 78.1016 69.0841C78.0411 68.7301 78.0109 68.5618 78.0109 68.579C77.9073 68.2164 77.7173 67.9358 77.4411 67.7372C77.1734 67.5387 76.8367 67.4394 76.4309 67.4394ZM86.947 65.2636C87.3873 65.2636 87.7326 65.3457 87.983 65.5097C88.078 65.5615 88.1169 65.6522 88.0996 65.7817L87.7111 67.8538C87.7024 68.0006 87.6204 68.0437 87.465 67.9833C87.2837 67.9229 87.0722 67.8927 86.8304 67.8927C86.7268 67.8927 86.593 67.9013 86.4289 67.9186C85.9886 67.9617 85.6173 68.1215 85.3152 68.3977C85.013 68.6827 84.8619 69.0625 84.8619 69.5374V74.4846C84.8619 74.5451 84.8446 74.5969 84.8101 74.64C84.7669 74.6832 84.7151 74.7048 84.6547 74.7048H82.5307C82.4703 74.7048 82.4185 74.6832 82.3753 74.64C82.3322 74.5969 82.3106 74.5451 82.3106 74.4846V65.6004C82.3106 65.5399 82.3322 65.4881 82.3753 65.4449C82.4185 65.4018 82.4703 65.3802 82.5307 65.3802H84.6547C84.7151 65.3802 84.7669 65.4018 84.8101 65.4449C84.8446 65.4881 84.8619 65.5399 84.8619 65.6004V66.2868C84.8619 66.3299 84.8748 66.3558 84.9007 66.3645C84.9266 66.3731 84.9439 66.3688 84.9525 66.3515C85.4533 65.6263 86.1181 65.2636 86.947 65.2636ZM24.524 44.0243C24.5844 43.9293 24.6708 43.8818 24.783 43.8818H26.907C26.9674 43.8818 27.0192 43.9034 27.0624 43.9466C27.1055 43.9898 27.1271 44.0416 27.1271 44.102V56.3535C27.1271 56.4139 27.1055 56.4657 27.0624 56.5089C27.0192 56.5521 26.9674 56.5736 26.907 56.5736H24.783C24.7226 56.5736 24.6708 56.5521 24.6276 56.5089C24.5844 56.4657 24.5629 56.4139 24.5629 56.3535V48.3628C24.5629 48.311 24.5499 48.2851 24.524 48.2851C24.5067 48.2851 24.4852 48.3024 24.4593 48.3369L22.5296 51.3545C22.4691 51.4494 22.3871 51.4969 22.2835 51.4969H21.2086C21.105 51.4969 21.023 51.4494 20.9625 51.3545L19.0329 48.3369C19.007 48.3024 18.9854 48.2894 18.9681 48.2981C18.9422 48.3067 18.9293 48.3326 18.9293 48.3758V56.3535C18.9293 56.4139 18.9077 56.4657 18.8645 56.5089C18.8213 56.5521 18.7695 56.5736 18.7091 56.5736H16.5852C16.5247 56.5736 16.4729 56.5521 16.4297 56.5089C16.3866 56.4657 16.365 56.4139 16.365 56.3535V44.102C16.365 44.0416 16.3866 43.9898 16.4297 43.9466C16.4729 43.9034 16.5247 43.8818 16.5852 43.8818H18.7091C18.8213 43.8818 18.9077 43.9293 18.9681 44.0243L21.6878 48.2463C21.7223 48.324 21.7568 48.324 21.7914 48.2463L24.524 44.0243ZM33.2917 56.7161C32.2729 56.7161 31.4009 56.4528 30.6756 55.9261C29.9504 55.3908 29.454 54.6656 29.1863 53.7504C29.0223 53.1805 28.9402 52.5632 28.9402 51.8984C28.9402 51.1818 29.0223 50.5386 29.1863 49.9687C29.4626 49.0794 29.9634 48.3801 30.6886 47.8707C31.4138 47.3613 32.2859 47.1066 33.3047 47.1066C34.2976 47.1066 35.1437 47.357 35.843 47.8577C36.5424 48.3585 37.0388 49.0578 37.3324 49.9558C37.5223 50.5601 37.6173 51.1947 37.6173 51.8595C37.6173 52.5157 37.5353 53.1244 37.3712 53.6856C37.1036 54.6353 36.6114 55.3778 35.8948 55.9131C35.1696 56.4484 34.3019 56.7161 33.2917 56.7161ZM33.2917 54.5274C33.6889 54.5274 34.0256 54.4065 34.3019 54.1648C34.5782 53.923 34.7767 53.5906 34.8976 53.1676C34.9926 52.779 35.0401 52.356 35.0401 51.8984C35.0401 51.389 34.9926 50.9573 34.8976 50.6033C34.7681 50.1975 34.5652 49.8781 34.2889 49.645C34.004 49.4205 33.663 49.3082 33.2658 49.3082C32.86 49.3082 32.519 49.4205 32.2427 49.645C31.975 49.8781 31.7808 50.1975 31.6599 50.6033C31.5563 50.8969 31.5045 51.3286 31.5045 51.8984C31.5045 52.4423 31.5477 52.8654 31.634 53.1676C31.7549 53.5906 31.9578 53.923 32.2427 54.1648C32.5276 54.4065 32.8773 54.5274 33.2917 54.5274ZM49.6097 47.1066C50.5508 47.1066 51.2847 47.3915 51.8114 47.9613C52.3467 48.5312 52.6143 49.3298 52.6143 50.3572V56.3535C52.6143 56.4139 52.5928 56.4657 52.5496 56.5089C52.5064 56.5521 52.4546 56.5736 52.3942 56.5736H50.2702C50.2098 56.5736 50.158 56.5521 50.1148 56.5089C50.0803 56.4657 50.063 56.4139 50.063 56.3535V50.9141C50.063 50.422 49.9335 50.0292 49.6745 49.7356C49.4241 49.4507 49.0874 49.3082 48.6643 49.3082C48.2413 49.3082 47.8959 49.4507 47.6283 49.7356C47.3606 50.0292 47.2268 50.4177 47.2268 50.9012V56.3535C47.2268 56.4139 47.2052 56.4657 47.162 56.5089C47.1189 56.5521 47.0671 56.5736 47.0066 56.5736H44.9086C44.8482 56.5736 44.7964 56.5521 44.7532 56.5089C44.71 56.4657 44.6884 56.4139 44.6884 56.3535V50.9141C44.6884 50.4306 44.5546 50.0421 44.287 49.7486C44.0279 49.455 43.6869 49.3082 43.2638 49.3082C42.8753 49.3082 42.5515 49.4205 42.2925 49.645C42.0335 49.8781 41.8781 50.1975 41.8263 50.6033V56.3535C41.8263 56.4139 41.8047 56.4657 41.7616 56.5089C41.7184 56.5521 41.6666 56.5736 41.6061 56.5736H39.4822C39.4218 56.5736 39.3743 56.5521 39.3397 56.5089C39.2966 56.4657 39.275 56.4139 39.275 56.3535V47.4692C39.275 47.4088 39.2966 47.357 39.3397 47.3138C39.3743 47.2706 39.4218 47.249 39.4822 47.249H41.6061C41.6666 47.249 41.7184 47.2706 41.7616 47.3138C41.8047 47.357 41.8263 47.4088 41.8263 47.4692V48.1815C41.8263 48.216 41.8393 48.2376 41.8652 48.2463C41.8911 48.2635 41.9126 48.2549 41.9299 48.2204C42.4307 47.4778 43.1991 47.1066 44.2352 47.1066C44.8395 47.1066 45.3705 47.2361 45.8281 47.4951C46.2771 47.7455 46.6224 48.1081 46.8642 48.583C46.8987 48.6521 46.9419 48.6521 46.9937 48.583C47.2613 48.0822 47.6196 47.711 48.0686 47.4692C48.5262 47.2275 49.0399 47.1066 49.6097 47.1066ZM62.5994 50.953C62.6771 51.4106 62.703 51.9243 62.6771 52.4941C62.6685 52.6409 62.5908 52.7143 62.444 52.7143H56.8363C56.7672 52.7143 56.7457 52.7445 56.7716 52.8049C56.8061 53.0467 56.8708 53.2884 56.9658 53.5302C57.2766 54.2036 57.9155 54.5404 58.8825 54.5404C59.6596 54.5317 60.2726 54.2166 60.7215 53.595C60.7647 53.5259 60.8165 53.4913 60.877 53.4913C60.9201 53.4913 60.9633 53.5172 61.0065 53.569L62.3145 54.8512C62.3749 54.9116 62.4052 54.9677 62.4052 55.0195C62.4052 55.0368 62.3793 55.0843 62.3274 55.162C61.9303 55.6541 61.4166 56.0383 60.7863 56.3146C60.1647 56.5823 59.4783 56.7161 58.7271 56.7161C57.6824 56.7161 56.8018 56.483 56.0852 56.0168C55.3685 55.5419 54.8505 54.8814 54.5311 54.0353C54.2807 53.4309 54.1555 52.6409 54.1555 51.6653C54.1555 51.0005 54.2461 50.4134 54.4275 49.904C54.7037 49.0406 55.1916 48.3585 55.8909 47.8577C56.5816 47.3483 57.4061 47.0936 58.3645 47.0936C59.5732 47.0936 60.5402 47.4433 61.2655 48.1427C61.9994 48.842 62.444 49.7788 62.5994 50.953ZM58.3775 49.3082C57.6177 49.3082 57.1169 49.6622 56.8752 50.3702C56.8234 50.5256 56.7802 50.7199 56.7457 50.953C56.7457 51.0134 56.7759 51.0436 56.8363 51.0436H59.9704C60.0481 51.0436 60.074 51.0134 60.0481 50.953C59.9877 50.599 59.9575 50.4306 59.9575 50.4479C59.8452 50.0853 59.6553 49.8047 59.3876 49.6061C59.1113 49.4075 58.7746 49.3082 58.3775 49.3082ZM69.1137 47.1066C70.0807 47.1066 70.862 47.4045 71.4578 48.0002C72.0449 48.5873 72.3384 49.3903 72.3384 50.4091V56.3535C72.3384 56.4139 72.3169 56.4657 72.2737 56.5089C72.2305 56.5521 72.1787 56.5736 72.1183 56.5736H70.0073C69.9468 56.5736 69.8951 56.5521 69.8519 56.5089C69.8087 56.4657 69.7871 56.4139 69.7871 56.3535V50.94C69.7871 50.4565 69.649 50.0637 69.3727 49.7615C69.105 49.4593 68.7467 49.3082 68.2978 49.3082C67.8488 49.3082 67.4905 49.4593 67.2229 49.7615C66.9466 50.0637 66.8084 50.4565 66.8084 50.94V56.3535C66.8084 56.4139 66.7868 56.4657 66.7437 56.5089C66.7005 56.5521 66.6487 56.5736 66.5883 56.5736H64.4773C64.4169 56.5736 64.365 56.5521 64.3219 56.5089C64.2787 56.4657 64.2571 56.4139 64.2571 56.3535V47.4692C64.2571 47.4088 64.2787 47.357 64.3219 47.3138C64.365 47.2706 64.4169 47.249 64.4773 47.249H66.5883C66.6487 47.249 66.7005 47.2706 66.7437 47.3138C66.7868 47.357 66.8084 47.4088 66.8084 47.4692V48.1038C66.8084 48.1383 66.8214 48.1642 66.8473 48.1815C66.8732 48.1901 66.8905 48.1815 66.8991 48.1556C67.3999 47.4563 68.1381 47.1066 69.1137 47.1066ZM79.5261 49.0881C79.5261 49.1485 79.5046 49.2003 79.4614 49.2435C79.4182 49.2866 79.3664 49.3082 79.306 49.3082H77.5576C77.4972 49.3082 77.467 49.3384 77.467 49.3989V53.2323C77.467 53.6381 77.549 53.936 77.713 54.1259C77.8771 54.3159 78.1404 54.4109 78.503 54.4109H79.0988C79.1592 54.4109 79.211 54.4324 79.2542 54.4756C79.2973 54.5188 79.3189 54.5706 79.3189 54.631V56.3535C79.3189 56.4916 79.2455 56.5693 79.0988 56.5866C78.598 56.6125 78.2354 56.6254 78.0109 56.6254C77.0094 56.6254 76.2625 56.4614 75.7704 56.1333C75.2696 55.7966 75.0149 55.1706 75.0063 54.2554V49.3989C75.0063 49.3384 74.9761 49.3082 74.9156 49.3082H73.8796C73.8191 49.3082 73.7673 49.2866 73.7242 49.2435C73.681 49.2003 73.6594 49.1485 73.6594 49.0881V47.4692C73.6594 47.4088 73.681 47.357 73.7242 47.3138C73.7673 47.2706 73.8191 47.249 73.8796 47.249H74.9156C74.9761 47.249 75.0063 47.2188 75.0063 47.1584V45.0086C75.0063 44.9481 75.0279 44.8963 75.0711 44.8531C75.1142 44.81 75.166 44.7884 75.2265 44.7884H77.2598C77.3202 44.7884 77.3677 44.81 77.4022 44.8531C77.4454 44.8963 77.467 44.9481 77.467 45.0086V47.1584C77.467 47.2188 77.4972 47.249 77.5576 47.249H79.306C79.3664 47.249 79.4182 47.2706 79.4614 47.3138C79.5046 47.357 79.5261 47.4088 79.5261 47.4692V49.0881ZM86.5066 47.4692C86.5066 47.4088 86.5239 47.357 86.5584 47.3138C86.6016 47.2706 86.6534 47.249 86.7138 47.249H88.8378C88.8982 47.249 88.95 47.2706 88.9932 47.3138C89.0364 47.357 89.058 47.4088 89.058 47.4692V56.3535C89.058 56.4139 89.0364 56.4657 88.9932 56.5089C88.95 56.5521 88.8982 56.5736 88.8378 56.5736H86.7138C86.6534 56.5736 86.6016 56.5521 86.5584 56.5089C86.5239 56.4657 86.5066 56.4139 86.5066 56.3535V55.7448C86.5066 55.7016 86.4937 55.68 86.4678 55.68C86.4419 55.6714 86.416 55.6843 86.3901 55.7189C85.9066 56.3751 85.1598 56.7031 84.1496 56.7031C83.2258 56.7031 82.4703 56.4225 81.8832 55.8613C81.2875 55.3088 80.9896 54.5317 80.9896 53.5302V47.4692C80.9896 47.4088 81.0112 47.357 81.0543 47.3138C81.0975 47.2706 81.1493 47.249 81.2097 47.249H83.3078C83.3682 47.249 83.42 47.2706 83.4632 47.3138C83.5064 47.357 83.5279 47.4088 83.5279 47.4692V52.8956C83.5279 53.3791 83.6575 53.7719 83.9165 54.0741C84.1755 54.3763 84.5338 54.5274 84.9914 54.5274C85.4058 54.5274 85.7469 54.4022 86.0145 54.1518C86.2822 53.9015 86.4462 53.5777 86.5066 53.1805V47.4692ZM101.284 47.1066C102.225 47.1066 102.959 47.3915 103.485 47.9613C104.02 48.5312 104.288 49.3298 104.288 50.3572V56.3535C104.288 56.4139 104.267 56.4657 104.223 56.5089C104.18 56.5521 104.128 56.5736 104.068 56.5736H101.944C101.884 56.5736 101.832 56.5521 101.789 56.5089C101.754 56.4657 101.737 56.4139 101.737 56.3535V50.9141C101.737 50.422 101.607 50.0292 101.348 49.7356C101.098 49.4507 100.761 49.3082 100.338 49.3082C99.9151 49.3082 99.5697 49.4507 99.302 49.7356C99.0344 50.0292 98.9006 50.4177 98.9006 50.9012V56.3535C98.9006 56.4139 98.879 56.4657 98.8358 56.5089C98.7926 56.5521 98.7408 56.5736 98.6804 56.5736H96.5824C96.5219 56.5736 96.4701 56.5521 96.427 56.5089C96.3838 56.4657 96.3622 56.4139 96.3622 56.3535V50.9141C96.3622 50.4306 96.2284 50.0421 95.9607 49.7486C95.7017 49.455 95.3607 49.3082 94.9376 49.3082C94.5491 49.3082 94.2253 49.4205 93.9663 49.645C93.7073 49.8781 93.5519 50.1975 93.5001 50.6033V56.3535C93.5001 56.4139 93.4785 56.4657 93.4353 56.5089C93.3922 56.5521 93.3403 56.5736 93.2799 56.5736H91.156C91.0955 56.5736 91.0437 56.5521 91.0006 56.5089C90.966 56.4657 90.9488 56.4139 90.9488 56.3535V47.4692C90.9488 47.4088 90.966 47.357 91.0006 47.3138C91.0437 47.2706 91.0955 47.249 91.156 47.249H93.2799C93.3403 47.249 93.3922 47.2706 93.4353 47.3138C93.4785 47.357 93.5001 47.4088 93.5001 47.4692V48.1815C93.5001 48.216 93.513 48.2376 93.5389 48.2463C93.5648 48.2635 93.5864 48.2549 93.6037 48.2204C94.1044 47.4778 94.8729 47.1066 95.9089 47.1066C96.5133 47.1066 97.0443 47.2361 97.5019 47.4951C97.9508 47.7455 98.2962 48.1081 98.5379 48.583C98.5725 48.6521 98.6157 48.6521 98.6675 48.583C98.9351 48.0822 99.2934 47.711 99.7424 47.4692C100.2 47.2275 100.714 47.1066 101.284 47.1066Z" fill="#252530"/>
<path d="M42.9272 94.7533C42.2538 94.7533 41.6667 94.6453 41.1659 94.4295C40.6652 94.2136 40.2766 93.9115 40.0004 93.5229C39.7327 93.1344 39.5989 92.6768 39.5989 92.1501V91.8264C39.5989 91.7832 39.6161 91.7443 39.6507 91.7098C39.6766 91.6839 39.7111 91.671 39.7543 91.671H40.9069C40.9501 91.671 40.9889 91.6839 41.0235 91.7098C41.0494 91.7443 41.0623 91.7832 41.0623 91.8264V92.0724C41.0623 92.4696 41.2393 92.7977 41.5933 93.0567C41.9473 93.3243 42.4308 93.4582 43.0438 93.4582C43.5705 93.4582 43.9676 93.3459 44.2353 93.1215C44.5029 92.897 44.6367 92.6077 44.6367 92.2538C44.6367 92.012 44.5634 91.8048 44.4166 91.6321C44.2698 91.4681 44.0626 91.317 43.7949 91.1788C43.5187 91.0407 43.1085 90.868 42.5646 90.6608C41.9516 90.4363 41.4552 90.2248 41.0753 90.0262C40.6954 89.8276 40.3802 89.5557 40.1299 89.2103C39.8708 88.8736 39.7413 88.4505 39.7413 87.9411C39.7413 87.1813 40.0176 86.5813 40.5702 86.141C41.1228 85.7006 41.861 85.4805 42.7848 85.4805C43.4323 85.4805 44.0065 85.5927 44.5072 85.8172C44.9994 86.0417 45.3836 86.3568 45.6599 86.7626C45.9361 87.1598 46.0743 87.6217 46.0743 88.1483V88.3685C46.0743 88.4117 46.057 88.4505 46.0225 88.4851C45.9966 88.511 45.962 88.5239 45.9189 88.5239H44.7533C44.7101 88.5239 44.6756 88.511 44.6497 88.4851C44.6152 88.4505 44.5979 88.4117 44.5979 88.3685V88.226C44.5979 87.8203 44.4338 87.4792 44.1058 87.2029C43.769 86.918 43.3071 86.7756 42.72 86.7756C42.2452 86.7756 41.8782 86.8748 41.6192 87.0734C41.3516 87.272 41.2177 87.5526 41.2177 87.9152C41.2177 88.1742 41.2868 88.3858 41.4249 88.5498C41.5631 88.7139 41.7703 88.8606 42.0466 88.9901C42.3229 89.1283 42.7502 89.301 43.3287 89.5082C43.9417 89.7413 44.4338 89.9528 44.8051 90.1428C45.1677 90.3327 45.4829 90.596 45.7505 90.9328C46.0095 91.2781 46.139 91.7055 46.139 92.2149C46.139 92.9919 45.8498 93.6093 45.2713 94.0669C44.7015 94.5245 43.9201 94.7533 42.9272 94.7533ZM51.2935 85.5711C51.8374 85.5711 52.3166 85.6834 52.731 85.9078C53.1454 86.1323 53.4649 86.4475 53.6894 86.8533C53.9225 87.2677 54.039 87.7425 54.039 88.2779C54.039 88.8045 53.9225 89.2707 53.6894 89.6765C53.4563 90.0823 53.1282 90.3931 52.7051 90.609C52.2734 90.8335 51.777 90.9457 51.2158 90.9457H49.1436C49.1005 90.9457 49.0789 90.9673 49.0789 91.0105V94.4942C49.0789 94.5374 49.0659 94.5719 49.04 94.5978C49.0055 94.6324 48.9666 94.6497 48.9235 94.6497H47.732C47.6888 94.6497 47.6543 94.6324 47.6284 94.5978C47.5939 94.5719 47.5766 94.5374 47.5766 94.4942V85.7265C47.5766 85.6834 47.5939 85.6445 47.6284 85.61C47.6543 85.5841 47.6888 85.5711 47.732 85.5711H51.2935ZM51.0733 89.7283C51.5136 89.7283 51.8676 89.5988 52.1353 89.3398C52.4029 89.0808 52.5367 88.7398 52.5367 88.3167C52.5367 87.885 52.4029 87.5353 52.1353 87.2677C51.8676 87 51.5136 86.8662 51.0733 86.8662H49.1436C49.1005 86.8662 49.0789 86.8878 49.0789 86.931V89.6636C49.0789 89.7068 49.1005 89.7283 49.1436 89.7283H51.0733ZM60.4497 94.6497C60.3634 94.6497 60.3029 94.6108 60.2684 94.5331L58.5589 90.8033C58.5416 90.7687 58.5157 90.7515 58.4812 90.7515H56.9271C56.8839 90.7515 56.8623 90.773 56.8623 90.8162V94.4942C56.8623 94.5374 56.8451 94.5719 56.8105 94.5978C56.7846 94.6324 56.7501 94.6497 56.7069 94.6497H55.5154C55.4723 94.6497 55.4377 94.6324 55.4118 94.5978C55.3773 94.5719 55.36 94.5374 55.36 94.4942V85.7395C55.36 85.6963 55.3773 85.6618 55.4118 85.6359C55.4377 85.6013 55.4723 85.5841 55.5154 85.5841H59.0769C59.6036 85.5841 60.0698 85.692 60.4756 85.9078C60.8814 86.1323 61.1965 86.4432 61.421 86.8403C61.6455 87.2461 61.7577 87.708 61.7577 88.226C61.7577 88.8218 61.6066 89.3269 61.3045 89.7413C60.9936 90.1643 60.5663 90.4579 60.0223 90.6219C60.0051 90.6219 59.9921 90.6306 59.9835 90.6478C59.9748 90.6651 59.9748 90.6824 59.9835 90.6996L61.8095 94.4683C61.8268 94.5029 61.8354 94.5288 61.8354 94.546C61.8354 94.6151 61.7879 94.6497 61.693 94.6497H60.4497ZM56.9271 86.8792C56.8839 86.8792 56.8623 86.9007 56.8623 86.9439V89.5211C56.8623 89.5643 56.8839 89.5859 56.9271 89.5859H58.8697C59.2841 89.5859 59.6165 89.4607 59.8669 89.2103C60.1259 88.9686 60.2554 88.6448 60.2554 88.239C60.2554 87.8332 60.1259 87.5051 59.8669 87.2547C59.6165 87.0044 59.2841 86.8792 58.8697 86.8792H56.9271ZM63.4543 94.6497C63.4111 94.6497 63.3723 94.6324 63.3377 94.5978C63.3118 94.5719 63.2989 94.5374 63.2989 94.4942V85.7395C63.2989 85.6963 63.3118 85.6618 63.3377 85.6359C63.3723 85.6013 63.4111 85.5841 63.4543 85.5841H64.6458C64.6889 85.5841 64.7235 85.6013 64.7494 85.6359C64.7839 85.6618 64.8012 85.6963 64.8012 85.7395V94.4942C64.8012 94.5374 64.7839 94.5719 64.7494 94.5978C64.7235 94.6324 64.6889 94.6497 64.6458 94.6497H63.4543ZM71.963 85.7395C71.963 85.6963 71.9802 85.6618 72.0148 85.6359C72.0407 85.6013 72.0752 85.5841 72.1184 85.5841H73.3099C73.353 85.5841 73.3919 85.6013 73.4264 85.6359C73.4523 85.6618 73.4653 85.6963 73.4653 85.7395V94.4942C73.4653 94.5374 73.4523 94.5719 73.4264 94.5978C73.3919 94.6324 73.353 94.6497 73.3099 94.6497H72.1572C72.0709 94.6497 72.0105 94.6151 71.9759 94.546L68.2461 88.4333C68.2288 88.4074 68.2116 88.3944 68.1943 88.3944C68.177 88.403 68.1684 88.4246 68.1684 88.4592L68.1943 94.4942C68.1943 94.5374 68.177 94.5719 68.1425 94.5978C68.1166 94.6324 68.082 94.6497 68.0389 94.6497H66.8474C66.8042 94.6497 66.7697 94.6324 66.7438 94.5978C66.7093 94.5719 66.692 94.5374 66.692 94.4942V85.7395C66.692 85.6963 66.7093 85.6618 66.7438 85.6359C66.7697 85.6013 66.8042 85.5841 66.8474 85.5841H68C68.0864 85.5841 68.1468 85.6186 68.1813 85.6877L71.8982 91.8005C71.9155 91.8264 71.9328 91.835 71.95 91.8264C71.9673 91.8264 71.9759 91.8091 71.9759 91.7746L71.963 85.7395ZM78.3866 94.7533C77.739 94.7533 77.1692 94.6281 76.6771 94.3777C76.1849 94.1187 75.805 93.756 75.5374 93.2898C75.2697 92.8236 75.1359 92.2883 75.1359 91.6839V88.5498C75.1359 87.9368 75.2697 87.3972 75.5374 86.931C75.805 86.4734 76.1849 86.1151 76.6771 85.856C77.1692 85.6057 77.739 85.4805 78.3866 85.4805C79.0255 85.4805 79.591 85.6057 80.0831 85.856C80.5666 86.1064 80.9422 86.4475 81.2099 86.8792C81.4775 87.3109 81.6113 87.7987 81.6113 88.3426V88.4462C81.6113 88.4894 81.5984 88.5239 81.5725 88.5498C81.5379 88.5844 81.4991 88.6016 81.4559 88.6016H80.2774C80.2342 88.6016 80.1997 88.5844 80.1738 88.5498C80.1393 88.5239 80.122 88.4894 80.122 88.4462V88.3814C80.122 87.9152 79.9623 87.531 79.6428 87.2288C79.332 86.9266 78.9132 86.7756 78.3866 86.7756C77.8599 86.7756 77.4369 86.9353 77.1174 87.2547C76.7979 87.5656 76.6382 87.98 76.6382 88.498V91.7357C76.6382 92.2537 76.8066 92.6725 77.1433 92.9919C77.48 93.3028 77.916 93.4582 78.4513 93.4582C78.9694 93.4582 79.3795 93.32 79.6817 93.0438C79.9752 92.7761 80.122 92.4048 80.122 91.93V91.127C80.122 91.0839 80.1004 91.0623 80.0572 91.0623H78.4643C78.4211 91.0623 78.3823 91.045 78.3477 91.0105C78.3218 90.9846 78.3089 90.95 78.3089 90.9069V89.9485C78.3089 89.9053 78.3218 89.8708 78.3477 89.8449C78.3823 89.8104 78.4211 89.7931 78.4643 89.7931H81.4559C81.4991 89.7931 81.5379 89.8104 81.5725 89.8449C81.5984 89.8708 81.6113 89.9053 81.6113 89.9485V91.6062C81.6113 92.5991 81.3221 93.3718 80.7436 93.9244C80.1565 94.477 79.3708 94.7533 78.3866 94.7533Z" fill="white"/>
<path d="M44.0798 118.039C44.0539 118.065 44.0453 118.09 44.0539 118.116C44.0712 118.142 44.0971 118.155 44.1316 118.155H49.2213C49.2817 118.155 49.3335 118.177 49.3767 118.22C49.4285 118.263 49.4544 118.315 49.4544 118.375V120.201C49.4544 120.262 49.4285 120.314 49.3767 120.357C49.3335 120.4 49.2817 120.422 49.2213 120.422H40.7774C40.7083 120.422 40.6522 120.4 40.609 120.357C40.5658 120.314 40.5443 120.262 40.5443 120.201V118.466C40.5443 118.354 40.5831 118.259 40.6608 118.181C41.2738 117.585 41.8998 116.933 42.5387 116.226C43.1776 115.518 43.5791 115.077 43.7431 114.905C44.0885 114.49 44.4425 114.093 44.8051 113.713C45.9448 112.453 46.5146 111.516 46.5146 110.903C46.5146 110.462 46.3592 110.1 46.0484 109.815C45.7375 109.539 45.3317 109.4 44.831 109.4C44.3302 109.4 43.9244 109.539 43.6136 109.815C43.2941 110.1 43.1344 110.475 43.1344 110.942V111.408C43.1344 111.468 43.1128 111.52 43.0697 111.563C43.0265 111.606 42.9747 111.628 42.9143 111.628H40.6997C40.6392 111.628 40.5874 111.606 40.5443 111.563C40.4925 111.52 40.4666 111.468 40.4666 111.408V110.527C40.5097 109.854 40.7256 109.254 41.1141 108.727C41.5026 108.209 42.0163 107.812 42.6552 107.536C43.3028 107.259 44.028 107.121 44.831 107.121C45.7203 107.121 46.493 107.289 47.1492 107.626C47.8054 107.954 48.3104 108.399 48.6644 108.96C49.027 109.53 49.2084 110.156 49.2084 110.838C49.2084 111.365 49.0745 111.904 48.8069 112.457C48.5479 113.009 48.155 113.605 47.6284 114.244C47.2398 114.728 46.8211 115.211 46.3721 115.695C45.9232 116.169 45.254 116.856 44.3648 117.754L44.0798 118.039ZM55.5543 120.629C54.1728 120.629 53.085 120.245 52.2907 119.476C51.4877 118.708 51.0862 117.659 51.0862 116.329V111.369C51.0862 110.065 51.4877 109.033 52.2907 108.274C53.085 107.505 54.1728 107.121 55.5543 107.121C56.927 107.121 58.0192 107.505 58.8308 108.274C59.6338 109.033 60.0352 110.065 60.0352 111.369V116.329C60.0352 117.659 59.6338 118.708 58.8308 119.476C58.0192 120.245 56.927 120.629 55.5543 120.629ZM55.5543 118.362C56.1155 118.362 56.5601 118.19 56.8882 117.844C57.2249 117.499 57.3933 117.037 57.3933 116.459V111.291C57.3933 110.721 57.2249 110.264 56.8882 109.918C56.5601 109.573 56.1155 109.4 55.5543 109.4C55.0017 109.4 54.5614 109.573 54.2333 109.918C53.8966 110.264 53.7282 110.721 53.7282 111.291V116.459C53.7282 117.037 53.8966 117.499 54.2333 117.844C54.5614 118.19 55.0017 118.362 55.5543 118.362ZM65.2933 118.039C65.2674 118.065 65.2631 118.09 65.2803 118.116C65.289 118.142 65.3149 118.155 65.358 118.155H70.4477C70.5081 118.155 70.5599 118.177 70.6031 118.22C70.6463 118.263 70.6679 118.315 70.6679 118.375V120.201C70.6679 120.262 70.6463 120.314 70.6031 120.357C70.5599 120.4 70.5081 120.422 70.4477 120.422H61.9908C61.9304 120.422 61.8786 120.4 61.8354 120.357C61.7922 120.314 61.7707 120.262 61.7707 120.201V118.466C61.7707 118.354 61.8052 118.259 61.8743 118.181C62.4959 117.585 63.1219 116.933 63.7521 116.226C64.391 115.518 64.7925 115.077 64.9566 114.905C65.3105 114.49 65.6688 114.093 66.0315 113.713C67.1711 112.453 67.741 111.516 67.741 110.903C67.741 110.462 67.5856 110.1 67.2747 109.815C66.9553 109.539 66.5452 109.4 66.0444 109.4C65.5437 109.4 65.1379 109.539 64.827 109.815C64.5162 110.1 64.3608 110.475 64.3608 110.942V111.408C64.3608 111.468 64.3392 111.52 64.2961 111.563C64.2529 111.606 64.1968 111.628 64.1277 111.628H61.9131C61.8527 111.628 61.8009 111.606 61.7577 111.563C61.7145 111.52 61.6929 111.468 61.6929 111.408V110.527C61.7275 109.854 61.939 109.254 62.3275 108.727C62.7161 108.209 63.2341 107.812 63.8816 107.536C64.5292 107.259 65.2501 107.121 66.0444 107.121C66.9337 107.121 67.7064 107.289 68.3626 107.626C69.0274 107.954 69.5368 108.399 69.8908 108.96C70.2448 109.53 70.4218 110.156 70.4218 110.838C70.4218 111.365 70.2923 111.904 70.0333 112.457C69.7656 113.009 69.3685 113.605 68.8418 114.244C68.4533 114.728 68.0345 115.211 67.5856 115.695C67.1366 116.169 66.4675 116.856 65.5782 117.754L65.2933 118.039ZM80.1349 114.153C80.3853 114.723 80.5105 115.384 80.5105 116.135C80.5105 116.817 80.3983 117.443 80.1738 118.013C79.8716 118.816 79.3665 119.442 78.6585 119.891C77.9505 120.348 77.1131 120.577 76.1461 120.577C75.1963 120.577 74.3632 120.34 73.6466 119.865C72.9299 119.381 72.4119 118.734 72.0925 117.922C71.9198 117.439 71.8205 116.912 71.7946 116.342C71.7946 116.195 71.868 116.122 72.0148 116.122H74.2423C74.3891 116.122 74.4625 116.195 74.4625 116.342C74.5143 116.757 74.5833 117.063 74.6697 117.262C74.7819 117.59 74.9675 117.844 75.2266 118.026C75.4769 118.207 75.7791 118.298 76.1331 118.298C76.8325 118.298 77.316 117.991 77.5836 117.378C77.7563 117.007 77.8426 116.571 77.8426 116.07C77.8426 115.474 77.7477 114.991 77.5577 114.62C77.2728 114.033 76.7936 113.739 76.1202 113.739C75.982 113.739 75.8352 113.778 75.6798 113.856C75.5331 113.942 75.3517 114.058 75.1359 114.205C75.0841 114.24 75.0366 114.257 74.9934 114.257C74.9157 114.257 74.8596 114.222 74.8251 114.153L73.7113 112.586C73.6854 112.552 73.6725 112.509 73.6725 112.457C73.6725 112.379 73.6984 112.319 73.7502 112.276L76.7289 109.659C76.7548 109.634 76.7677 109.608 76.7677 109.582C76.7591 109.556 76.7375 109.543 76.703 109.543H72.2867C72.2263 109.543 72.1702 109.521 72.1184 109.478C72.0752 109.435 72.0536 109.383 72.0536 109.323V107.497C72.0536 107.436 72.0752 107.384 72.1184 107.341C72.1702 107.298 72.2263 107.277 72.2867 107.277H80.109C80.1781 107.277 80.2342 107.298 80.2774 107.341C80.3205 107.384 80.3421 107.436 80.3421 107.497V109.569C80.3421 109.664 80.299 109.759 80.2126 109.854L77.752 112.107C77.7261 112.133 77.7174 112.155 77.7261 112.172C77.7261 112.198 77.752 112.211 77.8038 112.211C78.8916 112.427 79.6687 113.074 80.1349 114.153Z" fill="#252530"/>
</g>
</g>
</g>
<defs>
<clipPath id="clip0_49_1059">
<rect width="121" height="149" fill="white" transform="translate(0 0.5)"/>
</clipPath>
<clipPath id="clip1_49_1059">
<rect width="121.754" height="158" fill="white" transform="translate(0 -3)"/>
</clipPath>
<clipPath id="clip2_49_1059">
<rect width="121.738" height="158" fill="white" transform="translate(0.00805664 -3)"/>
</clipPath>
</defs>
</svg>
