<svg width="72" height="80" viewBox="0 0 72 80" fill="none" xmlns="http://www.w3.org/2000/svg">
<path d="M5.99878 62.282L36.296 77.6991L65.4427 62.282V1.99435H5.99878V62.282Z" fill="white" style="fill:white;fill-opacity:1;"/>
<path d="M66.0559 2.2244L5.38477 63.3557L36.8325 78.9262L66.0559 63.9694V2.2244Z" fill="#F2F3F2" style="fill:#F2F3F2;fill:color(display-p3 0.9490 0.9529 0.9490);fill-opacity:1;"/>
<path d="M4.00464 22.0901V63.5858L5.07846 64.1227L35.3757 79.5398L36.2961 80L37.2165 79.5398L66.4399 64.1227L67.5137 63.5858V0H4.00464V22.0901ZM5.99889 62.4353V1.99425H65.5195V62.4353L36.2961 77.8523L5.99889 62.4353Z" fill="#DCDEDC" style="fill:#DCDEDC;fill:color(display-p3 0.8627 0.8706 0.8627);fill-opacity:1;"/>
<path d="M35.7581 2.99137C36.0649 2.99137 36.3718 2.99137 36.6786 3.06807L35.7581 4.83221C34.3775 4.75551 33.1503 5.82934 33.0736 7.20997C32.9969 8.5906 34.0707 9.81783 35.4513 9.89453H35.7581C36.3718 9.89453 36.9854 9.66443 37.4456 9.28092L38.4427 10.9684C37.6757 11.5053 36.7553 11.8121 35.7581 11.8121C33.3037 11.8888 31.2327 10.0479 31.156 7.59348C31.0793 5.13902 32.9202 3.06807 35.3746 2.99137H35.7581ZM38.9029 6.74976L40.0534 8.66731L38.9029 10.5081L37.8291 8.66731H35.6047L36.7553 6.74976H38.9029ZM37.0621 6.05944C37.0621 5.75264 37.1388 5.44583 37.2922 5.21572C37.4456 4.98562 37.7524 4.75551 37.9825 4.60211L38.1359 4.52541C38.4427 4.372 38.5194 4.2953 38.5194 4.1419C38.5194 3.98849 38.2893 3.83509 38.1359 3.83509C37.8291 3.83509 37.599 3.98849 37.4456 4.2953L37.0621 3.91179C37.1388 3.75839 37.2922 3.60499 37.4456 3.45158C37.6757 3.29818 37.9058 3.29818 38.1359 3.29818C38.366 3.29818 38.6728 3.37488 38.8262 3.52828C38.9796 3.68169 39.133 3.91179 39.133 4.1419C39.133 4.52541 38.9029 4.83221 38.4427 4.98562L38.2126 5.13902C37.9825 5.29243 37.8291 5.36913 37.7524 5.59923H39.133V6.13615L37.0621 6.05944ZM35.7581 15.6472L43.0448 11.5053V0H28.3948V11.4286L35.7581 15.6472ZM68.97 42.7996H2.54625L0.0917969 48.1687L2.54625 53.5379H68.97L71.3478 48.1687L68.97 42.7996Z" fill="#FF492C" style="fill:#FF492C;fill:color(display-p3 1.0000 0.2863 0.1725);fill-opacity:1;"/>
<path d="M13.0532 31.2864C13.5594 31.2864 14.0043 31.3887 14.3878 31.5932C14.7713 31.7978 15.0679 32.0918 15.2776 32.4753C15.4872 32.8537 15.592 33.2884 15.592 33.7793C15.592 34.265 15.4847 34.692 15.2699 35.0602C15.05 35.4232 14.7432 35.707 14.3495 35.9116C13.9557 36.1161 13.5006 36.2184 12.9842 36.2184H11.3504C11.3146 36.2184 11.2967 36.2388 11.2967 36.2797V39.2097C11.2967 39.2506 11.2814 39.2839 11.2507 39.3095C11.2251 39.335 11.1919 39.3478 11.151 39.3478H9.80872C9.76781 39.3478 9.73457 39.335 9.709 39.3095C9.68344 39.2839 9.67065 39.2506 9.67065 39.2097V31.4245C9.67065 31.3836 9.68344 31.3504 9.709 31.3248C9.73457 31.2992 9.76781 31.2864 9.80872 31.2864H13.0532ZM12.8078 34.9221C13.1657 34.9221 13.4495 34.8198 13.6591 34.6153C13.8739 34.4108 13.9813 34.1449 13.9813 33.8176C13.9813 33.475 13.8739 33.2014 13.6591 32.9969C13.4495 32.7872 13.1657 32.6824 12.8078 32.6824H11.3504C11.3146 32.6824 11.2967 32.7029 11.2967 32.7438V34.8607C11.2967 34.9017 11.3146 34.9221 11.3504 34.9221H12.8078ZM21.3984 35.7812C21.4393 36.0726 21.4521 36.3973 21.4367 36.7553C21.4316 36.8524 21.383 36.901 21.291 36.901H17.7397C17.6937 36.901 17.6758 36.9189 17.686 36.9547C17.7116 37.1081 17.755 37.2615 17.8164 37.4149C18.0158 37.8444 18.4223 38.0592 19.0359 38.0592C19.5268 38.0541 19.9129 37.8547 20.1941 37.4609C20.2299 37.4149 20.2657 37.3919 20.3015 37.3919C20.322 37.3919 20.3475 37.4072 20.3782 37.4379L21.2066 38.251C21.2475 38.2919 21.268 38.3277 21.268 38.3583C21.268 38.3737 21.2526 38.4044 21.2219 38.4504C20.9663 38.7674 20.6416 39.0103 20.2478 39.1791C19.8439 39.3529 19.4041 39.4398 18.9286 39.4398C18.274 39.4398 17.7167 39.2916 17.2565 38.995C16.8014 38.6933 16.4741 38.274 16.2747 37.7371C16.111 37.3536 16.0292 36.8524 16.0292 36.2337C16.0292 35.8093 16.088 35.436 16.2056 35.1139C16.3846 34.5718 16.694 34.1398 17.1337 33.8176C17.5735 33.4955 18.0951 33.3344 18.6985 33.3344C19.4655 33.3344 20.0816 33.5568 20.547 34.0017C21.0123 34.4466 21.2961 35.0397 21.3984 35.7812ZM18.7138 34.738C18.228 34.738 17.9084 34.963 17.755 35.413C17.7243 35.5153 17.6988 35.638 17.6783 35.7812C17.6783 35.817 17.6988 35.8349 17.7397 35.8349H19.7263C19.7723 35.8349 19.7876 35.817 19.7723 35.7812C19.7314 35.5613 19.7109 35.4539 19.7109 35.459C19.6444 35.2289 19.5243 35.0499 19.3504 34.9221C19.1817 34.7994 18.9695 34.738 18.7138 34.738ZM25.3869 33.3574C25.663 33.3574 25.8829 33.4111 26.0465 33.5185C26.1027 33.5491 26.1232 33.6054 26.1079 33.6872L25.8701 34.9988C25.865 35.0909 25.8113 35.119 25.709 35.0832C25.5914 35.0423 25.4584 35.0218 25.3102 35.0218C25.2488 35.0218 25.1619 35.0295 25.0494 35.0448C24.7784 35.0704 24.5457 35.1727 24.3514 35.3516C24.1622 35.5306 24.0676 35.7709 24.0676 36.0726V39.2097C24.0676 39.2506 24.0522 39.2839 24.0216 39.3095C23.996 39.335 23.9653 39.3478 23.9295 39.3478H22.5796C22.5438 39.3478 22.5105 39.335 22.4799 39.3095C22.4543 39.2839 22.4415 39.2506 22.4415 39.2097V33.5722C22.4415 33.5364 22.4543 33.5031 22.4799 33.4724C22.5105 33.4469 22.5438 33.4341 22.5796 33.4341H23.9295C23.9653 33.4341 23.996 33.4469 24.0216 33.4724C24.0522 33.5031 24.0676 33.5364 24.0676 33.5722V34.0094C24.0676 34.0298 24.0753 34.0452 24.0906 34.0554C24.1008 34.0656 24.111 34.0605 24.1213 34.04C24.4383 33.5849 24.8602 33.3574 25.3869 33.3574ZM30.2881 33.4264C30.329 33.4264 30.3622 33.4392 30.3878 33.4648C30.4134 33.4903 30.4262 33.5236 30.4262 33.5645V34.6537C30.4262 34.6946 30.4134 34.7278 30.3878 34.7534C30.3622 34.7789 30.329 34.7917 30.2881 34.7917H29.1759C29.135 34.7917 29.1146 34.8096 29.1146 34.8454V39.2097C29.1146 39.2506 29.1018 39.2839 29.0762 39.3095C29.0506 39.335 29.0174 39.3478 28.9765 39.3478H27.6342C27.5933 39.3478 27.5601 39.335 27.5345 39.3095C27.5089 39.2839 27.4962 39.2506 27.4962 39.2097V34.8454C27.4962 34.8096 27.4757 34.7917 27.4348 34.7917H26.7598C26.7189 34.7917 26.6857 34.7789 26.6601 34.7534C26.6345 34.7278 26.6218 34.6946 26.6218 34.6537V33.5645C26.6218 33.5236 26.6345 33.4903 26.6601 33.4648C26.6857 33.4392 26.7189 33.4264 26.7598 33.4264H27.4348C27.4757 33.4264 27.4962 33.406 27.4962 33.3651V33.1119C27.4962 32.6364 27.5677 32.2657 27.7109 31.9998C27.8592 31.739 28.0944 31.5523 28.4166 31.4398C28.7438 31.3273 29.1964 31.2788 29.7742 31.2941H30.2114C30.2472 31.2941 30.2779 31.3069 30.3034 31.3325C30.3341 31.3631 30.3495 31.3964 30.3495 31.4322V32.3603C30.3495 32.4012 30.3341 32.4344 30.3034 32.46C30.2779 32.4907 30.2472 32.506 30.2114 32.506H29.8279C29.562 32.5111 29.3753 32.5648 29.268 32.6671C29.1657 32.7745 29.1146 32.9662 29.1146 33.2423V33.3651C29.1146 33.406 29.135 33.4264 29.1759 33.4264H30.2881ZM33.6246 39.4398C32.9803 39.4398 32.4281 39.2711 31.9679 38.9336C31.5077 38.5961 31.1932 38.1359 31.0244 37.553C30.9171 37.195 30.8634 36.8039 30.8634 36.3794C30.8634 35.9295 30.9171 35.5229 31.0244 35.1599C31.2034 34.5923 31.523 34.1474 31.9832 33.8253C32.4434 33.5031 32.9957 33.342 33.64 33.342C34.2638 33.342 34.8007 33.5006 35.2507 33.8176C35.6905 34.1398 36.0024 34.5846 36.1865 35.1522C36.3143 35.5357 36.3782 35.9371 36.3782 36.3564C36.3782 36.7706 36.3245 37.1592 36.2172 37.5223C36.0484 38.1206 35.7339 38.5885 35.2737 38.9259C34.8186 39.2685 34.2689 39.4398 33.6246 39.4398ZM33.6246 38.0515C33.8752 38.0515 34.09 37.9748 34.2689 37.8214C34.4479 37.668 34.5757 37.4558 34.6524 37.1848C34.7087 36.9394 34.7368 36.6709 34.7368 36.3794C34.7368 36.0573 34.7087 35.7863 34.6524 35.5664C34.5655 35.3056 34.4351 35.1011 34.2613 34.9528C34.0823 34.8096 33.865 34.738 33.6093 34.738C33.3536 34.738 33.1389 34.8096 32.965 34.9528C32.7911 35.1011 32.6659 35.3056 32.5892 35.5664C32.5278 35.7454 32.4971 36.0164 32.4971 36.3794C32.4971 36.7272 32.5252 36.9956 32.5815 37.1848C32.6582 37.4558 32.786 37.668 32.965 37.8214C33.144 37.9748 33.3638 38.0515 33.6246 38.0515ZM40.3667 33.3574C40.6428 33.3574 40.8627 33.4111 41.0264 33.5185C41.0877 33.5491 41.1082 33.6054 41.0877 33.6872L40.8499 34.9988C40.8448 35.0909 40.7911 35.119 40.6889 35.0832C40.5713 35.0423 40.4383 35.0218 40.29 35.0218C40.2287 35.0218 40.1443 35.0295 40.0369 35.0448C39.7608 35.0704 39.5256 35.1727 39.3312 35.3516C39.142 35.5306 39.0474 35.7709 39.0474 36.0726V39.2097C39.0474 39.2506 39.0321 39.2839 39.0014 39.3095C38.9759 39.335 38.9426 39.3478 38.9017 39.3478H37.5594C37.5236 39.3478 37.4904 39.335 37.4597 39.3095C37.4342 39.2839 37.4214 39.2506 37.4214 39.2097V33.5722C37.4214 33.5364 37.4342 33.5031 37.4597 33.4724C37.4904 33.4469 37.5236 33.4341 37.5594 33.4341H38.9017C38.9426 33.4341 38.9759 33.4469 39.0014 33.4724C39.0321 33.5031 39.0474 33.5364 39.0474 33.5722V34.0094C39.0474 34.0298 39.0526 34.0452 39.0628 34.0554C39.0832 34.0656 39.096 34.0605 39.1011 34.04C39.4182 33.5849 39.84 33.3574 40.3667 33.3574ZM48.3821 33.342C48.9803 33.342 49.4482 33.521 49.7857 33.879C50.1232 34.242 50.2919 34.7508 50.2919 35.4053V39.2097C50.2919 39.2506 50.2792 39.2839 50.2536 39.3095C50.228 39.335 50.1973 39.3478 50.1615 39.3478H48.8116C48.7758 39.3478 48.7426 39.335 48.7119 39.3095C48.6863 39.2839 48.6735 39.2506 48.6735 39.2097V35.7582C48.6735 35.4462 48.5943 35.1982 48.4358 35.0141C48.2721 34.8301 48.0548 34.738 47.7838 34.738C47.5179 34.738 47.3006 34.8301 47.1318 35.0141C46.9631 35.1982 46.8787 35.4437 46.8787 35.7505V39.2097C46.8787 39.2506 46.8659 39.2839 46.8404 39.3095C46.8097 39.335 46.7764 39.3478 46.7406 39.3478H45.406C45.3651 39.3478 45.3319 39.335 45.3063 39.3095C45.2807 39.2839 45.268 39.2506 45.268 39.2097V35.7582C45.268 35.4514 45.1836 35.2033 45.0149 35.0141C44.8461 34.8301 44.6262 34.738 44.3552 34.738C44.1149 34.738 43.9103 34.8096 43.7416 34.9528C43.578 35.1011 43.4808 35.3056 43.4501 35.5664V39.2097C43.4501 39.2506 43.4374 39.2839 43.4118 39.3095C43.3811 39.335 43.3479 39.3478 43.3121 39.3478H41.9698C41.9289 39.3478 41.8956 39.335 41.8701 39.3095C41.8445 39.2839 41.8317 39.2506 41.8317 39.2097V33.5722C41.8317 33.5364 41.8445 33.5031 41.8701 33.4724C41.8956 33.4469 41.9289 33.4341 41.9698 33.4341H43.3121C43.3479 33.4341 43.3811 33.4469 43.4118 33.4724C43.4374 33.5031 43.4501 33.5364 43.4501 33.5722V34.0247C43.4501 34.0452 43.4578 34.0605 43.4731 34.0707C43.4885 34.0758 43.5038 34.0656 43.5192 34.04C43.8362 33.5747 44.3245 33.342 44.9842 33.342C45.3677 33.342 45.7026 33.4239 45.989 33.5875C46.2753 33.746 46.4952 33.9761 46.6486 34.2778C46.6691 34.3238 46.6972 34.3238 46.733 34.2778C46.8966 33.9608 47.1241 33.7256 47.4156 33.5722C47.702 33.4188 48.0241 33.342 48.3821 33.342ZM56.6352 35.7812C56.6812 36.0726 56.6965 36.3973 56.6812 36.7553C56.671 36.8524 56.6198 36.901 56.5278 36.901H52.9765C52.9305 36.901 52.9151 36.9189 52.9305 36.9547C52.9509 37.1081 52.9918 37.2615 53.0532 37.4149C53.2526 37.8444 53.6591 38.0592 54.2728 38.0592C54.7637 38.0541 55.1523 37.8547 55.4386 37.4609C55.4693 37.4149 55.5025 37.3919 55.5383 37.3919C55.5639 37.3919 55.592 37.4072 55.6227 37.4379L56.4511 38.251C56.4869 38.2919 56.5048 38.3277 56.5048 38.3583C56.5048 38.3737 56.4894 38.4044 56.4588 38.4504C56.2082 38.7674 55.8835 39.0103 55.4847 39.1791C55.0858 39.3529 54.6486 39.4398 54.1731 39.4398C53.5134 39.4398 52.956 39.2916 52.501 38.995C52.0407 38.6933 51.7109 38.274 51.5115 37.7371C51.353 37.3536 51.2737 36.8524 51.2737 36.2337C51.2737 35.8093 51.33 35.436 51.4425 35.1139C51.6214 34.5718 51.9308 34.1398 52.3706 33.8176C52.8103 33.4955 53.3344 33.3344 53.9429 33.3344C54.71 33.3344 55.3261 33.5568 55.7915 34.0017C56.2568 34.4466 56.538 35.0397 56.6352 35.7812ZM53.9506 34.738C53.4699 34.738 53.1529 34.963 52.9995 35.413C52.9688 35.5153 52.9407 35.638 52.9151 35.7812C52.9151 35.817 52.9356 35.8349 52.9765 35.8349H54.9631C55.0091 35.8349 55.0244 35.817 55.0091 35.7812C54.9733 35.5613 54.9554 35.4539 54.9554 35.459C54.8838 35.2289 54.7637 35.0499 54.5949 34.9221C54.421 34.7994 54.2063 34.738 53.9506 34.738ZM60.6237 33.3574C60.8998 33.3574 61.1197 33.4111 61.2833 33.5185C61.3447 33.5491 61.3677 33.6054 61.3523 33.6872L61.1146 34.9988C61.1043 35.0909 61.0481 35.119 60.9458 35.0832C60.8333 35.0423 60.7004 35.0218 60.547 35.0218C60.4856 35.0218 60.4012 35.0295 60.2939 35.0448C60.0177 35.0704 59.7825 35.1727 59.5882 35.3516C59.399 35.5306 59.3044 35.7709 59.3044 36.0726V39.2097C59.3044 39.2506 59.2916 39.2839 59.266 39.3095C59.2354 39.335 59.2021 39.3478 59.1663 39.3478H57.8164C57.7806 39.3478 57.7499 39.335 57.7243 39.3095C57.6937 39.2839 57.6783 39.2506 57.6783 39.2097V33.5722C57.6783 33.5364 57.6937 33.5031 57.7243 33.4724C57.7499 33.4469 57.7806 33.4341 57.8164 33.4341H59.1663C59.2021 33.4341 59.2354 33.4469 59.266 33.4724C59.2916 33.5031 59.3044 33.5364 59.3044 33.5722V34.0094C59.3044 34.0298 59.3121 34.0452 59.3274 34.0554C59.3427 34.0656 59.3555 34.0605 59.3658 34.04C59.6777 33.5849 60.097 33.3574 60.6237 33.3574ZM28.9765 19.9269C28.9765 19.8911 28.9893 19.8579 29.0149 19.8272C29.0404 19.8016 29.0711 19.7888 29.1069 19.7888H30.4568C30.4926 19.7888 30.5259 19.8016 30.5566 19.8272C30.5821 19.8579 30.5949 19.8911 30.5949 19.9269V27.7045C30.5949 27.7454 30.5821 27.7786 30.5566 27.8042C30.5259 27.8297 30.4926 27.8425 30.4568 27.8425H29.1069C29.0711 27.8425 29.0404 27.8297 29.0149 27.8042C28.9893 27.7786 28.9765 27.7454 28.9765 27.7045V24.529C28.9765 24.4932 28.956 24.4753 28.9151 24.4753H26.3686C26.3328 24.4753 26.3149 24.4932 26.3149 24.529V27.7045C26.3149 27.7454 26.3022 27.7786 26.2766 27.8042C26.2459 27.8297 26.2127 27.8425 26.1769 27.8425H24.8269C24.7911 27.8425 24.7605 27.8297 24.7349 27.8042C24.7042 27.7786 24.6889 27.7454 24.6889 27.7045V19.9269C24.6889 19.8911 24.7042 19.8579 24.7349 19.8272C24.7605 19.8016 24.7911 19.7888 24.8269 19.7888H26.1769C26.2127 19.7888 26.2459 19.8016 26.2766 19.8272C26.3022 19.8579 26.3149 19.8911 26.3149 19.9269V23.018C26.3149 23.0589 26.3328 23.0793 26.3686 23.0793H28.9151C28.956 23.0793 28.9765 23.0589 28.9765 23.018V19.9269ZM32.6889 21.2615C32.4281 21.2615 32.2108 21.1746 32.0369 21.0007C31.863 20.832 31.7761 20.6172 31.7761 20.3564C31.7761 20.0854 31.8605 19.8655 32.0292 19.6968C32.198 19.5281 32.4179 19.4437 32.6889 19.4437C32.9599 19.4437 33.1798 19.5281 33.3485 19.6968C33.5172 19.8655 33.6016 20.0854 33.6016 20.3564C33.6016 20.6172 33.5147 20.832 33.3408 21.0007C33.167 21.1746 32.9497 21.2615 32.6889 21.2615ZM31.9986 27.8425C31.9628 27.8425 31.9295 27.8297 31.8988 27.8042C31.8733 27.7786 31.8605 27.7454 31.8605 27.7045V22.0592C31.8605 22.0183 31.8733 21.9851 31.8988 21.9595C31.9295 21.9339 31.9628 21.9211 31.9986 21.9211H33.3485C33.3843 21.9211 33.415 21.9339 33.4405 21.9595C33.4712 21.9851 33.4866 22.0183 33.4866 22.0592V27.7045C33.4866 27.7454 33.4712 27.7786 33.4405 27.8042C33.415 27.8297 33.3843 27.8425 33.3485 27.8425H31.9986ZM38.3571 22.0669C38.3571 22.0311 38.3725 21.9979 38.4032 21.9672C38.4287 21.9416 38.4594 21.9288 38.4952 21.9288H39.8451C39.8809 21.9288 39.9142 21.9416 39.9449 21.9672C39.9704 21.9979 39.9832 22.0311 39.9832 22.0669V27.3133C39.9832 28.3155 39.6943 29.0314 39.1165 29.4609C38.5387 29.8956 37.7921 30.1129 36.8768 30.1129C36.6058 30.1129 36.3066 30.0925 35.9794 30.0515C35.9027 30.0413 35.8643 29.9927 35.8643 29.9058L35.9103 28.7169C35.9103 28.6147 35.964 28.5712 36.0714 28.5865C36.3475 28.6326 36.6007 28.6556 36.8308 28.6556C37.3217 28.6556 37.7001 28.5507 37.966 28.3411C38.2267 28.1212 38.3571 27.7761 38.3571 27.3056C38.3571 27.28 38.3495 27.2647 38.3341 27.2596C38.3188 27.2545 38.3034 27.2622 38.2881 27.2826C37.9966 27.5945 37.5722 27.7505 37.0149 27.7505C36.5137 27.7505 36.0561 27.6303 35.6419 27.39C35.2226 27.1497 34.9235 26.761 34.7445 26.2241C34.632 25.8713 34.5757 25.4136 34.5757 24.8512C34.5757 24.2529 34.6448 23.7671 34.7828 23.3938C34.9413 22.9234 35.2124 22.5475 35.5959 22.2663C35.9794 21.98 36.4268 21.8368 36.9381 21.8368C37.5262 21.8368 37.9762 22.0132 38.2881 22.366C38.3034 22.3814 38.3188 22.3865 38.3341 22.3814C38.3495 22.3762 38.3571 22.3635 38.3571 22.343V22.0669ZM38.2651 25.7793C38.3265 25.5543 38.3571 25.2398 38.3571 24.8358C38.3571 24.6006 38.3495 24.4191 38.3341 24.2912C38.3188 24.1583 38.2932 24.033 38.2574 23.9154C38.1858 23.7109 38.0708 23.5447 37.9123 23.4168C37.7537 23.2941 37.5543 23.2328 37.314 23.2328C37.0839 23.2328 36.8896 23.2941 36.7311 23.4168C36.5674 23.5447 36.4473 23.7109 36.3706 23.9154C36.2632 24.1455 36.2095 24.4574 36.2095 24.8512C36.2095 25.2807 36.2555 25.5875 36.3475 25.7716C36.414 25.9812 36.5342 26.1474 36.708 26.2701C36.8819 26.398 37.0864 26.4619 37.3217 26.4619C37.5671 26.4619 37.7716 26.398 37.9353 26.2701C38.0938 26.1474 38.2037 25.9838 38.2651 25.7793ZM44.2325 21.8368C44.8461 21.8368 45.3396 22.026 45.7128 22.4044C46.0861 22.7777 46.2728 23.2864 46.2728 23.9307V27.7045C46.2728 27.7454 46.26 27.7786 46.2344 27.8042C46.2088 27.8297 46.1782 27.8425 46.1424 27.8425H44.7924C44.7566 27.8425 44.7234 27.8297 44.6927 27.8042C44.6671 27.7786 44.6544 27.7454 44.6544 27.7045V24.2606C44.6544 23.9589 44.5674 23.7109 44.3936 23.5165C44.2248 23.3273 43.9973 23.2328 43.7109 23.2328C43.4297 23.2328 43.2021 23.3273 43.0283 23.5165C42.8544 23.7109 42.7675 23.9589 42.7675 24.2606V27.7045C42.7675 27.7454 42.7547 27.7786 42.7291 27.8042C42.7036 27.8297 42.6703 27.8425 42.6294 27.8425H41.2871C41.2462 27.8425 41.213 27.8297 41.1874 27.8042C41.1619 27.7786 41.1491 27.7454 41.1491 27.7045V19.9269C41.1491 19.8911 41.1619 19.8579 41.1874 19.8272C41.213 19.8016 41.2462 19.7888 41.2871 19.7888H42.6294C42.6703 19.7888 42.7036 19.8016 42.7291 19.8272C42.7547 19.8579 42.7675 19.8911 42.7675 19.9269V22.4734C42.7675 22.4939 42.7752 22.5092 42.7905 22.5194C42.8058 22.5245 42.8161 22.5194 42.8212 22.5041C43.1382 22.0592 43.6087 21.8368 44.2325 21.8368Z" fill="#252530" style="fill:#252530;fill:color(display-p3 0.1451 0.1451 0.1882);fill-opacity:1;"/>
<path d="M25.2054 51.2216C24.8065 51.2216 24.4588 51.1576 24.1622 51.0298C23.8656 50.902 23.6355 50.723 23.4719 50.4929C23.3134 50.2628 23.2341 49.9918 23.2341 49.6799V49.4881C23.2341 49.4625 23.2444 49.4395 23.2648 49.4191C23.2802 49.4037 23.3006 49.3961 23.3262 49.3961H24.0088C24.0344 49.3961 24.0574 49.4037 24.0779 49.4191C24.0932 49.4395 24.1009 49.4625 24.1009 49.4881V49.6338C24.1009 49.8691 24.2057 50.0634 24.4153 50.2168C24.625 50.3753 24.9113 50.4545 25.2744 50.4545C25.5863 50.4545 25.8215 50.3881 25.9801 50.2551C26.1386 50.1222 26.2178 49.9509 26.2178 49.7412C26.2178 49.598 26.1744 49.4753 26.0874 49.373C26.0005 49.2759 25.8778 49.1864 25.7193 49.1046C25.5556 49.0228 25.3128 48.9205 24.9906 48.7978C24.6275 48.6648 24.3335 48.5396 24.1085 48.4219C23.8835 48.3043 23.6969 48.1433 23.5486 47.9387C23.3952 47.7393 23.3185 47.4887 23.3185 47.187C23.3185 46.7371 23.4821 46.3817 23.8094 46.1209C24.1367 45.8601 24.5739 45.7297 25.121 45.7297C25.5045 45.7297 25.8445 45.7962 26.1411 45.9291C26.4326 46.0621 26.6601 46.2487 26.8238 46.4891C26.9874 46.7243 27.0692 46.9978 27.0692 47.3098V47.4402C27.0692 47.4657 27.059 47.4887 27.0385 47.5092C27.0232 47.5245 27.0027 47.5322 26.9772 47.5322H26.2869C26.2613 47.5322 26.2408 47.5245 26.2255 47.5092C26.205 47.4887 26.1948 47.4657 26.1948 47.4402V47.3558C26.1948 47.1155 26.0977 46.9135 25.9034 46.7498C25.7039 46.5811 25.4304 46.4967 25.0826 46.4967C24.8014 46.4967 24.5841 46.5555 24.4307 46.6731C24.2722 46.7908 24.1929 46.9569 24.1929 47.1717C24.1929 47.3251 24.2338 47.4504 24.3156 47.5475C24.3974 47.6447 24.5202 47.7316 24.6838 47.8083C24.8474 47.8901 25.1005 47.9924 25.4431 48.1151C25.8062 48.2532 26.0977 48.3785 26.3175 48.491C26.5323 48.6035 26.7189 48.7594 26.8775 48.9589C27.0309 49.1634 27.1076 49.4165 27.1076 49.7182C27.1076 50.1784 26.9363 50.544 26.5937 50.815C26.2562 51.086 25.7934 51.2216 25.2054 51.2216ZM30.1603 45.7834C30.4825 45.7834 30.7662 45.8499 31.0117 45.9828C31.2571 46.1158 31.4463 46.3024 31.5793 46.5427C31.7174 46.7882 31.7864 47.0694 31.7864 47.3865C31.7864 47.6984 31.7174 47.9745 31.5793 48.2148C31.4412 48.4552 31.2469 48.6393 30.9964 48.7671C30.7407 48.9 30.4467 48.9665 30.1143 48.9665H28.8871C28.8615 48.9665 28.8487 48.9793 28.8487 49.0049V51.0682C28.8487 51.0937 28.841 51.1142 28.8257 51.1295C28.8052 51.15 28.7822 51.1602 28.7567 51.1602H28.051C28.0254 51.1602 28.005 51.15 27.9896 51.1295C27.9692 51.1142 27.959 51.0937 27.959 51.0682V45.8754C27.959 45.8499 27.9692 45.8269 27.9896 45.8064C28.005 45.7911 28.0254 45.7834 28.051 45.7834H30.1603ZM30.0299 48.2455C30.2907 48.2455 30.5003 48.1688 30.6589 48.0154C30.8174 47.862 30.8966 47.66 30.8966 47.4095C30.8966 47.1538 30.8174 46.9467 30.6589 46.7882C30.5003 46.6297 30.2907 46.5504 30.0299 46.5504H28.8871C28.8615 46.5504 28.8487 46.5632 28.8487 46.5888V48.2072C28.8487 48.2327 28.8615 48.2455 28.8871 48.2455H30.0299ZM35.5831 51.1602C35.532 51.1602 35.4962 51.1372 35.4757 51.0912L34.4633 48.8822C34.453 48.8617 34.4377 48.8515 34.4173 48.8515H33.4968C33.4713 48.8515 33.4585 48.8643 33.4585 48.8898V51.0682C33.4585 51.0937 33.4483 51.1142 33.4278 51.1295C33.4125 51.15 33.392 51.1602 33.3664 51.1602H32.6608C32.6352 51.1602 32.6148 51.15 32.5994 51.1295C32.579 51.1142 32.5687 51.0937 32.5687 51.0682V45.8831C32.5687 45.8575 32.579 45.8371 32.5994 45.8218C32.6148 45.8013 32.6352 45.7911 32.6608 45.7911H34.7701C35.082 45.7911 35.3581 45.855 35.5985 45.9828C35.8388 46.1158 36.0254 46.2999 36.1584 46.5351C36.2913 46.7754 36.3578 47.049 36.3578 47.3558C36.3578 47.7086 36.2683 48.0078 36.0894 48.2532C35.9053 48.5038 35.6522 48.6776 35.33 48.7748C35.3198 48.7748 35.3121 48.7799 35.307 48.7901C35.3019 48.8003 35.3019 48.8106 35.307 48.8208L36.3885 51.0528C36.3987 51.0733 36.4038 51.0886 36.4038 51.0988C36.4038 51.1397 36.3757 51.1602 36.3195 51.1602H35.5831ZM33.4968 46.5581C33.4713 46.5581 33.4585 46.5709 33.4585 46.5964V48.1228C33.4585 48.1484 33.4713 48.1612 33.4968 48.1612H34.6474C34.8928 48.1612 35.0897 48.087 35.238 47.9387C35.3914 47.7955 35.4681 47.6038 35.4681 47.3635C35.4681 47.1231 35.3914 46.9288 35.238 46.7805C35.0897 46.6322 34.8928 46.5581 34.6474 46.5581H33.4968ZM37.3626 51.1602C37.337 51.1602 37.314 51.15 37.2936 51.1295C37.2782 51.1142 37.2706 51.0937 37.2706 51.0682V45.8831C37.2706 45.8575 37.2782 45.8371 37.2936 45.8218C37.314 45.8013 37.337 45.7911 37.3626 45.7911H38.0683C38.0938 45.7911 38.1143 45.8013 38.1296 45.8218C38.1501 45.8371 38.1603 45.8575 38.1603 45.8831V51.0682C38.1603 51.0937 38.1501 51.1142 38.1296 51.1295C38.1143 51.15 38.0938 51.1602 38.0683 51.1602H37.3626ZM42.4019 45.8831C42.4019 45.8575 42.4121 45.8371 42.4326 45.8218C42.4479 45.8013 42.4684 45.7911 42.494 45.7911H43.1996C43.2252 45.7911 43.2482 45.8013 43.2686 45.8218C43.284 45.8371 43.2917 45.8575 43.2917 45.8831V51.0682C43.2917 51.0937 43.284 51.1142 43.2686 51.1295C43.2482 51.15 43.2252 51.1602 43.1996 51.1602H42.517C42.4658 51.1602 42.43 51.1397 42.4096 51.0988L40.2006 47.4785C40.1903 47.4632 40.1801 47.4555 40.1699 47.4555C40.1597 47.4606 40.1546 47.4734 40.1546 47.4939L40.1699 51.0682C40.1699 51.0937 40.1597 51.1142 40.1392 51.1295C40.1239 51.15 40.1034 51.1602 40.0778 51.1602H39.3722C39.3466 51.1602 39.3262 51.15 39.3108 51.1295C39.2904 51.1142 39.2802 51.0937 39.2802 51.0682V45.8831C39.2802 45.8575 39.2904 45.8371 39.3108 45.8218C39.3262 45.8013 39.3466 45.7911 39.3722 45.7911H40.0548C40.106 45.7911 40.1418 45.8115 40.1622 45.8524L42.3636 49.4728C42.3738 49.4881 42.384 49.4932 42.3942 49.4881C42.4045 49.4881 42.4096 49.4779 42.4096 49.4574L42.4019 45.8831ZM46.2063 51.2216C45.8228 51.2216 45.4853 51.1474 45.1939 50.9991C44.9024 50.8457 44.6774 50.631 44.5189 50.3548C44.3604 50.0787 44.2811 49.7617 44.2811 49.4037V47.5475C44.2811 47.1845 44.3604 46.8649 44.5189 46.5888C44.6774 46.3178 44.9024 46.1055 45.1939 45.9521C45.4853 45.8039 45.8228 45.7297 46.2063 45.7297C46.5847 45.7297 46.9197 45.8039 47.2111 45.9521C47.4975 46.1004 47.7199 46.3024 47.8784 46.5581C48.0369 46.8138 48.1162 47.1027 48.1162 47.4248V47.4862C48.1162 47.5117 48.1085 47.5322 48.0932 47.5475C48.0727 47.568 48.0497 47.5782 48.0242 47.5782H47.3262C47.3006 47.5782 47.2802 47.568 47.2648 47.5475C47.2444 47.5322 47.2341 47.5117 47.2341 47.4862V47.4478C47.2341 47.1717 47.1395 46.9442 46.9503 46.7652C46.7662 46.5862 46.5182 46.4967 46.2063 46.4967C45.8944 46.4967 45.6438 46.5913 45.4546 46.7805C45.2654 46.9646 45.1708 47.2101 45.1708 47.5169V49.4344C45.1708 49.7412 45.2706 49.9892 45.47 50.1784C45.6694 50.3625 45.9276 50.4545 46.2447 50.4545C46.5515 50.4545 46.7944 50.3727 46.9733 50.2091C47.1472 50.0506 47.2341 49.8307 47.2341 49.5495V49.0739C47.2341 49.0483 47.2213 49.0356 47.1958 49.0356H46.2523C46.2268 49.0356 46.2038 49.0253 46.1833 49.0049C46.168 48.9895 46.1603 48.9691 46.1603 48.9435V48.3759C46.1603 48.3503 46.168 48.3299 46.1833 48.3146C46.2038 48.2941 46.2268 48.2839 46.2523 48.2839H48.0242C48.0497 48.2839 48.0727 48.2941 48.0932 48.3146C48.1085 48.3299 48.1162 48.3503 48.1162 48.3759V49.3577C48.1162 49.9458 47.9449 50.4034 47.6023 50.7307C47.2546 51.0579 46.7893 51.2216 46.2063 51.2216Z" fill="white" style="fill:white;fill-opacity:1;"/>
<path d="M25.4718 65.0125C25.4564 65.0279 25.4513 65.0432 25.4564 65.0585C25.4667 65.0739 25.482 65.0816 25.5024 65.0816H28.5168C28.5526 65.0816 28.5833 65.0943 28.6089 65.1199C28.6396 65.1455 28.6549 65.1762 28.6549 65.2119V66.2934C28.6549 66.3292 28.6396 66.3599 28.6089 66.3855C28.5833 66.411 28.5526 66.4238 28.5168 66.4238H23.5159C23.475 66.4238 23.4417 66.411 23.4162 66.3855C23.3906 66.3599 23.3778 66.3292 23.3778 66.2934V65.2656C23.3778 65.1992 23.4008 65.1429 23.4468 65.0969C23.8099 64.7441 24.1806 64.358 24.559 63.9387C24.9374 63.5194 25.1752 63.2586 25.2723 63.1563C25.4769 62.9109 25.6865 62.6757 25.9013 62.4507C26.5763 61.7041 26.9138 61.1493 26.9138 60.7862C26.9138 60.5255 26.8217 60.3107 26.6376 60.142C26.4535 59.9783 26.2132 59.8965 25.9166 59.8965C25.6201 59.8965 25.3797 59.9783 25.1956 60.142C25.0064 60.3107 24.9118 60.5331 24.9118 60.8093V61.0854C24.9118 61.1212 24.8991 61.1519 24.8735 61.1774C24.8479 61.203 24.8172 61.2158 24.7815 61.2158H23.4698C23.4341 61.2158 23.4034 61.203 23.3778 61.1774C23.3471 61.1519 23.3318 61.1212 23.3318 61.0854V60.5638C23.3574 60.165 23.4852 59.8096 23.7153 59.4977C23.9454 59.1908 24.2497 58.9556 24.628 58.792C25.0116 58.6284 25.4411 58.5466 25.9166 58.5466C26.4433 58.5466 26.901 58.6463 27.2896 58.8457C27.6782 59.04 27.9774 59.3033 28.187 59.6357C28.4018 59.9732 28.5092 60.3439 28.5092 60.7479C28.5092 61.0598 28.4299 61.3794 28.2714 61.7067C28.118 62.0339 27.8853 62.3868 27.5734 62.7652C27.3433 63.0515 27.0953 63.3379 26.8294 63.6242C26.5635 63.9055 26.1672 64.312 25.6405 64.8438L25.4718 65.0125ZM32.2675 66.5466C31.4494 66.5466 30.8051 66.319 30.3347 65.8639C29.8591 65.4088 29.6213 64.7875 29.6213 64.0001V61.0624C29.6213 60.2902 29.8591 59.6792 30.3347 59.2292C30.8051 58.7741 31.4494 58.5466 32.2675 58.5466C33.0806 58.5466 33.7274 58.7741 34.2081 59.2292C34.6837 59.6792 34.9214 60.2902 34.9214 61.0624V64.0001C34.9214 64.7875 34.6837 65.4088 34.2081 65.8639C33.7274 66.319 33.0806 66.5466 32.2675 66.5466ZM32.2675 65.2043C32.5999 65.2043 32.8633 65.102 33.0576 64.8975C33.257 64.6929 33.3567 64.4194 33.3567 64.0768V61.0164C33.3567 60.6789 33.257 60.4079 33.0576 60.2033C32.8633 59.9988 32.5999 59.8965 32.2675 59.8965C31.9403 59.8965 31.6795 59.9988 31.4852 60.2033C31.2858 60.4079 31.1861 60.6789 31.1861 61.0164V64.0768C31.1861 64.4194 31.2858 64.6929 31.4852 64.8975C31.6795 65.102 31.9403 65.2043 32.2675 65.2043ZM38.0355 65.0125C38.0202 65.0279 38.0176 65.0432 38.0279 65.0585C38.033 65.0739 38.0483 65.0816 38.0739 65.0816H41.0883C41.1241 65.0816 41.1547 65.0943 41.1803 65.1199C41.2059 65.1455 41.2187 65.1762 41.2187 65.2119V66.2934C41.2187 66.3292 41.2059 66.3599 41.1803 66.3855C41.1547 66.411 41.1241 66.4238 41.0883 66.4238H36.0796C36.0438 66.4238 36.0132 66.411 35.9876 66.3855C35.962 66.3599 35.9492 66.3292 35.9492 66.2934V65.2656C35.9492 65.1992 35.9697 65.1429 36.0106 65.0969C36.3788 64.7441 36.7495 64.358 37.1228 63.9387C37.5012 63.5194 37.7389 63.2586 37.8361 63.1563C38.0458 62.9109 38.258 62.6757 38.4727 62.4507C39.1477 61.7041 39.4852 61.1493 39.4852 60.7862C39.4852 60.5255 39.3931 60.3107 39.2091 60.142C39.0199 59.9783 38.777 59.8965 38.4804 59.8965C38.1838 59.8965 37.9435 59.9783 37.7594 60.142C37.5753 60.3107 37.4833 60.5331 37.4833 60.8093V61.0854C37.4833 61.1212 37.4705 61.1519 37.4449 61.1774C37.4194 61.203 37.3861 61.2158 37.3452 61.2158H36.0336C35.9978 61.2158 35.9671 61.203 35.9416 61.1774C35.916 61.1519 35.9032 61.1212 35.9032 61.0854V60.5638C35.9237 60.165 36.0489 59.8096 36.2791 59.4977C36.5092 59.1908 36.816 58.9556 37.1995 58.792C37.583 58.6284 38.01 58.5466 38.4804 58.5466C39.0071 58.5466 39.4647 58.6463 39.8534 58.8457C40.2471 59.04 40.5488 59.3033 40.7584 59.6357C40.9681 59.9732 41.0729 60.3439 41.0729 60.7479C41.0729 61.0598 40.9962 61.3794 40.8428 61.7067C40.6843 62.0339 40.4491 62.3868 40.1372 62.7652C39.9071 63.0515 39.659 63.3379 39.3931 63.6242C39.1272 63.9055 38.731 64.312 38.2043 64.8438L38.0355 65.0125ZM47.746 63.0336C47.7818 63.0336 47.815 63.0464 47.8457 63.072C47.8713 63.0975 47.884 63.1282 47.884 63.164V64.2915C47.884 64.3273 47.8713 64.358 47.8457 64.3836C47.815 64.4091 47.7818 64.4219 47.746 64.4219H47.2704C47.2346 64.4219 47.2167 64.4398 47.2167 64.4756V66.2934C47.2167 66.3292 47.204 66.3599 47.1784 66.3855C47.1477 66.411 47.1145 66.4238 47.0787 66.4238H45.7824C45.7415 66.4238 45.7083 66.411 45.6827 66.3855C45.6571 66.3599 45.6443 66.3292 45.6443 66.2934V64.4756C45.6443 64.4398 45.6264 64.4219 45.5907 64.4219H42.1774C42.1416 64.4219 42.1084 64.4091 42.0777 64.3836C42.0521 64.358 42.0394 64.3273 42.0394 64.2915V63.4018C42.0394 63.3558 42.0521 63.2995 42.0777 63.233L44.0796 58.7383C44.1103 58.6718 44.1614 58.6386 44.233 58.6386H45.6213C45.6725 58.6386 45.7083 58.6514 45.7287 58.6769C45.7492 58.7025 45.7466 58.7409 45.721 58.792L43.8649 62.9646C43.8598 62.9799 43.8598 62.9953 43.8649 63.0106C43.8751 63.0259 43.8879 63.0336 43.9032 63.0336H45.5907C45.6264 63.0336 45.6443 63.0132 45.6443 62.9723V61.5993C45.6443 61.5584 45.6571 61.5251 45.6827 61.4996C45.7083 61.474 45.7415 61.4612 45.7824 61.4612H47.0787C47.1145 61.4612 47.1477 61.474 47.1784 61.4996C47.204 61.5251 47.2167 61.5584 47.2167 61.5993V62.9723C47.2167 63.0132 47.2346 63.0336 47.2704 63.0336H47.746Z" fill="#252530" style="fill:#252530;fill:color(display-p3 0.1451 0.1451 0.1882);fill-opacity:1;"/>
</svg>
