<svg width="49" height="49" viewBox="0 0 49 49" fill="none" xmlns="http://www.w3.org/2000/svg">
    <g clipPath="url(#clip0_88_2272)">
        <path
            d="M31.6169 14.1521C33.911 16.093 35.3956 18.7925 35.6562 21.8066C35.8321 24.6394 35.1348 27.5289 33.288 29.749C32.9346 30.1462 32.5684 30.5295 32.1875 30.9004C32.1464 30.9468 32.1053 30.9932 32.063 31.041C30.3628 32.8957 27.5574 33.8701 25.1027 33.9872C22.2579 34.0741 19.4078 33.2687 17.2637 31.3398C17.1117 31.195 16.9612 31.0486 16.8125 30.9004C16.7341 30.8225 16.6556 30.7447 16.5748 30.6645C14.4696 28.5426 13.3312 25.8306 13.3086 22.8379C13.3344 19.7671 14.512 16.9773 16.6602 14.7871C20.6838 10.8351 27.2672 10.5977 31.6169 14.1521ZM23.2754 13.8027C22.3469 14.7503 21.4062 16.6321 21.4062 17.9629C21.6757 17.9945 21.9453 18.0257 22.2148 18.0566C22.2906 18.0656 22.3664 18.0745 22.4445 18.0837C22.5559 18.0964 22.5559 18.0964 22.6697 18.1094C22.7374 18.1172 22.8052 18.1251 22.875 18.1332C23.1347 18.1536 23.3958 18.1504 23.6562 18.1504C23.6562 16.6344 23.6562 15.1185 23.6562 13.5566C23.4879 13.5566 23.3943 13.6928 23.2754 13.8027ZM25.3438 13.5566C25.3438 15.0726 25.3438 16.5885 25.3438 18.1504C26.4733 18.0976 26.4733 18.0976 27.5938 17.9629C27.3958 16.3292 26.6505 14.6847 25.4375 13.5566C25.4066 13.5566 25.3756 13.5566 25.3438 13.5566ZM27.7812 13.8379C27.8932 14.1244 28.0118 14.4074 28.1346 14.6893C28.5471 15.6412 28.9014 16.5906 29.1875 17.5879C29.7481 17.5358 30.2352 17.4158 30.7637 17.2246C30.8691 17.1885 30.8691 17.1885 30.9766 17.1517C31.0442 17.1277 31.1119 17.1036 31.1815 17.0788C31.242 17.0573 31.3026 17.0359 31.3649 17.0137C31.5543 16.9203 31.6717 16.8062 31.8125 16.6504C30.8252 15.4513 29.35 14.1857 27.7812 13.8379ZM21.125 13.8379C19.8117 14.409 17.7662 15.3234 17.1875 16.7441C17.6787 17.0204 18.1752 17.2082 18.7109 17.3769C18.7763 17.3978 18.8417 17.4187 18.9091 17.4402C19.228 17.5381 19.4755 17.5879 19.8125 17.5879C19.8318 17.5266 19.8511 17.4653 19.8709 17.4022C20.2165 16.3126 20.5539 15.2533 21.1107 14.2517C21.1642 14.1397 21.1642 14.1397 21.2188 14.0254C21.1723 13.9326 21.1723 13.9326 21.125 13.8379ZM16.1562 18.0566C15.7623 18.8162 15.4459 19.5646 15.2305 20.3945C15.202 20.5042 15.202 20.5042 15.1729 20.616C15.0582 21.0804 14.9979 21.5112 14.9375 21.9941C16.3606 21.9941 17.7838 21.9941 19.25 21.9941C19.3892 20.6019 19.3892 20.6019 19.5312 19.1816C19.2354 19.1004 18.9396 19.0192 18.6348 18.9355C17.782 18.6966 16.9689 18.4086 16.1562 18.0566ZM32.2605 18.2663C31.3453 18.6591 30.4328 18.9311 29.4688 19.1816C29.5616 20.1098 29.6544 21.0379 29.75 21.9941C31.1731 21.9941 32.5963 21.9941 34.0625 21.9941C33.8106 20.5668 33.5395 19.3149 32.8438 18.0566C32.6372 18.0566 32.4479 18.1853 32.2605 18.2663ZM21.0312 19.4629C21.0003 19.7065 20.9694 19.9501 20.9375 20.2012C20.9277 20.2758 20.9179 20.3505 20.9078 20.4274C20.8426 20.962 20.8438 21.4453 20.8438 21.9941C21.7719 21.9941 22.7 21.9941 23.6562 21.9941C23.6562 21.2516 23.6562 20.5091 23.6562 19.7441C22.79 19.6513 21.9237 19.5585 21.0312 19.4629ZM27.3121 19.5244C27.1982 19.5371 27.0843 19.5498 26.967 19.5629C26.847 19.5763 26.7271 19.5897 26.6035 19.6035C26.4832 19.6169 26.3629 19.6303 26.239 19.6442C25.9405 19.6774 25.6421 19.7108 25.3438 19.7441C25.3438 20.4866 25.3438 21.2291 25.3438 21.9941C26.2719 21.9941 27.2 21.9941 28.1562 21.9941C28.1562 21.3764 28.142 20.8069 28.0625 20.2012C28.0536 20.1294 28.0446 20.0576 28.0354 19.9836C28.0137 19.81 27.9913 19.6364 27.9688 19.4629C27.7502 19.4629 27.5288 19.5002 27.3121 19.5244ZM14.9375 23.5879C15.0898 24.7079 15.0898 24.7079 15.3887 25.7676C15.413 25.8385 15.4374 25.9094 15.4625 25.9825C15.6514 26.5189 15.8751 27.0302 16.1562 27.5254C16.536 27.4024 16.9054 27.2647 17.2754 27.1152C17.8651 26.8853 18.4568 26.7215 19.0698 26.5688C19.3316 26.5218 19.3316 26.5218 19.4375 26.4004C19.4313 26.1219 19.4192 25.8463 19.4023 25.5683C19.3982 25.4925 19.3941 25.4166 19.3899 25.3384C19.3566 24.7528 19.3032 24.1727 19.25 23.5879C17.8269 23.5879 16.4037 23.5879 14.9375 23.5879ZM20.8438 23.5879C20.8438 24.2286 20.8487 24.8089 20.9375 25.4336C20.9464 25.5005 20.9554 25.5674 20.9646 25.6363C20.9862 25.7973 21.0086 25.9582 21.0312 26.1191C21.4512 26.0905 21.8711 26.061 22.291 26.0312C22.4709 26.019 22.4709 26.019 22.6545 26.0065C22.7684 25.9984 22.8823 25.9902 22.9996 25.9818C23.1052 25.9744 23.2107 25.9671 23.3195 25.9595C23.5556 25.9579 23.5556 25.9579 23.6562 25.8379C23.6644 25.6709 23.6663 25.5037 23.6654 25.3365C23.6652 25.2454 23.6649 25.1543 23.6647 25.0604C23.6638 24.9438 23.663 24.8272 23.6621 24.707C23.6602 24.3377 23.6582 23.9684 23.6562 23.5879C22.7281 23.5879 21.8 23.5879 20.8438 23.5879ZM25.3438 23.5879C25.3418 23.9572 25.3399 24.3265 25.3379 24.707C25.337 24.8236 25.3362 24.9402 25.3353 25.0604C25.3351 25.1515 25.3348 25.2426 25.3346 25.3365C25.3341 25.4303 25.3336 25.5241 25.3331 25.6207C25.3192 25.8343 25.3192 25.8343 25.4375 25.9316C25.6246 25.9531 25.8125 25.9687 26.0004 25.9818C26.1143 25.99 26.2282 25.9981 26.3455 26.0065C26.4655 26.0147 26.5854 26.0228 26.709 26.0312C26.8293 26.0398 26.9496 26.0483 27.0735 26.0571C27.3719 26.0781 27.6703 26.0988 27.9688 26.1191C28.0007 25.8731 28.0318 25.627 28.0625 25.3808C28.0759 25.2786 28.0759 25.2786 28.0896 25.1743C28.156 24.6335 28.1562 24.1426 28.1562 23.5879C27.2281 23.5879 26.3 23.5879 25.3438 23.5879ZM29.75 23.5879C29.6137 24.9922 29.6137 24.9922 29.5625 26.4004C29.6362 26.4245 29.71 26.4486 29.7859 26.4734C30.0618 26.5637 30.3375 26.6544 30.6131 26.7454C30.7901 26.8037 30.9673 26.8616 31.1445 26.9195C31.2569 26.9566 31.3693 26.9938 31.4851 27.0321C31.5882 27.066 31.6913 27.0998 31.7975 27.1347C32.0938 27.2441 32.0938 27.2441 32.4013 27.398C32.6367 27.5393 32.6367 27.5393 32.8438 27.5254C33.489 26.2149 33.8509 25.0688 34.0625 23.5879C32.6394 23.5879 31.2162 23.5879 29.75 23.5879ZM25.3438 27.4316C25.3438 28.9476 25.3438 30.4635 25.3438 32.0254C26.5149 31.0216 27.2944 29.5194 27.5938 27.9941C27.5628 27.8704 27.5319 27.7466 27.5 27.6191C26.7884 27.5573 26.0769 27.4954 25.3438 27.4316ZM23.1022 27.4726C22.963 27.4853 22.963 27.4853 22.8211 27.4983C22.7235 27.5072 22.6259 27.5162 22.5254 27.5254C22.4274 27.5343 22.3295 27.5433 22.2286 27.5525C21.9857 27.5747 21.7429 27.5969 21.5 27.6191C21.3656 28.0434 21.4945 28.3661 21.6348 28.7734C21.673 28.8854 21.673 28.8854 21.7121 28.9996C22.1221 30.1544 22.6555 31.1818 23.5625 32.0254C23.5934 32.0254 23.6244 32.0254 23.6562 32.0254C23.6562 30.5094 23.6562 28.9935 23.6562 27.4316C23.4712 27.4316 23.2863 27.4558 23.1022 27.4726ZM29.1875 27.9941C29.1649 28.0654 29.1423 28.1367 29.119 28.2101C29.014 28.5389 28.9074 28.8671 28.8008 29.1953C28.7475 29.3634 28.7475 29.3634 28.6931 29.535C28.4807 30.1845 28.2357 30.7702 27.8882 31.3595C27.7663 31.5467 27.7663 31.5467 27.7812 31.7441C29.3791 31.3033 30.7087 30.2319 31.8125 29.0254C31.8125 28.9635 31.8125 28.9016 31.8125 28.8379C30.5486 28.2318 30.5486 28.2318 29.1875 27.9941ZM18.8164 28.2051C18.7494 28.2261 18.6824 28.2472 18.6133 28.2689C18.1208 28.4268 17.6538 28.613 17.1875 28.8379C17.8026 30.2375 19.703 31.1642 21.0312 31.7441C21.0931 31.7441 21.155 31.7441 21.2188 31.7441C21.0934 31.421 20.9542 31.1061 20.8099 30.7911C20.3974 29.8819 20.0962 28.9503 19.8125 27.9941C19.4565 27.9941 19.1522 28.0986 18.8164 28.2051Z"
            fill="#573FE7" />
        <path
            d="M26.4443 0.702638C26.5663 0.741765 26.6884 0.780712 26.8106 0.819497C27.071 0.90255 27.331 0.986733 27.5907 1.07186C28.0071 1.20832 28.4244 1.34209 28.8419 1.47539C29.2769 1.6144 29.7119 1.75349 30.1466 1.89341C31.4524 2.31348 32.7626 2.71853 34.0743 3.1195C34.6324 3.29013 35.1902 3.46172 35.748 3.63324C35.9385 3.69183 36.129 3.75039 36.3196 3.80895C37.7547 4.25011 39.1896 4.69171 40.6238 5.13564C41.0122 5.25584 41.4006 5.37586 41.7891 5.49542C42.1527 5.60732 42.5162 5.71972 42.8796 5.83249C43.0131 5.87383 43.1466 5.915 43.2803 5.95597C45.3893 6.60309 45.3893 6.60309 45.8751 7.36914C46.1103 7.81722 46.0891 8.24633 46.0869 8.73969C46.0873 8.87545 46.0873 8.87545 46.0878 9.01395C46.0887 9.31432 46.0881 9.61467 46.0875 9.91504C46.0876 10.1268 46.0878 10.3385 46.088 10.5502C46.0883 10.9963 46.0879 11.4423 46.087 11.8884C46.086 12.4493 46.0866 13.0101 46.0877 13.571C46.1023 22.3924 45.5187 31.7797 38.3751 40.5566C38.3189 40.6154 38.2626 40.6742 38.2047 40.7348C37.376 41.5966 36.5269 42.3811 35.5626 43.0879C35.4825 43.1476 35.4825 43.1476 35.4009 43.2086C34.581 43.8197 33.7329 44.3646 32.8438 44.8691C32.7644 44.9145 32.6849 44.9598 32.603 45.0065C31.1303 45.8402 29.6231 46.5595 28.0626 47.2129C27.9379 47.2657 27.8132 47.3184 27.6885 47.3712C27.3674 47.5067 27.045 47.6389 26.7218 47.7693C26.5984 47.8193 26.4754 47.87 26.3526 47.9215C25.1349 48.4302 24.1396 48.509 22.9152 48.0262C22.7202 47.946 22.5261 47.8637 22.3321 47.7812C22.1952 47.7249 22.0582 47.6687 21.9211 47.6127C21.5293 47.4516 21.1394 47.2862 20.7501 47.1191C20.6509 47.0768 20.5517 47.0344 20.4495 46.9907C19.4698 46.5684 18.5083 46.1091 17.5602 45.6204C17.3698 45.5227 17.1785 45.4266 16.9873 45.3306C15.9705 44.8135 15.0258 44.2134 14.0938 43.5566C13.9961 43.4879 13.9961 43.4879 13.8964 43.4178C12.9866 42.7721 12.1578 42.0645 11.3591 41.2862C11.1884 41.1199 11.0163 40.9551 10.8441 40.7903C10.1539 40.1225 9.53426 39.4257 8.96254 38.6541C8.84913 38.5013 8.73356 38.3501 8.61789 38.199C3.72349 31.6954 2.94004 23.1419 2.91525 15.2709C2.91487 15.1662 2.91449 15.0616 2.9141 14.9537C2.91216 14.4028 2.91081 13.8518 2.90992 13.3008C2.90887 12.7343 2.90563 12.1679 2.90193 11.6015C2.89949 11.1623 2.8987 10.7231 2.89836 10.2839C2.89791 10.0749 2.89682 9.86591 2.89508 9.65694C2.89279 9.36588 2.89288 9.07491 2.89353 8.78384C2.89173 8.65621 2.89173 8.65621 2.88989 8.526C2.89515 7.87995 3.05656 7.41211 3.45795 6.90382C3.91553 6.51593 4.38843 6.34657 4.95908 6.17786C5.10498 6.13256 5.10498 6.13256 5.25383 6.08634C5.57505 5.98701 5.89692 5.89 6.21884 5.79297C6.44753 5.72271 6.67618 5.6523 6.90478 5.58174C7.37962 5.43543 7.85472 5.29001 8.33009 5.14542C8.98036 4.94748 9.62984 4.74711 10.279 4.54566C11.1149 4.2864 11.9509 4.02784 12.7872 3.77002C14.2638 3.3147 15.7398 2.85765 17.2157 2.40033C17.568 2.29118 17.9203 2.18207 18.2726 2.07299C18.4076 2.03117 18.5426 1.98934 18.6776 1.94749C19.0081 1.84503 19.3386 1.74279 19.6694 1.64107C20.2676 1.45672 20.8647 1.26991 21.4589 1.07302C21.7284 0.983844 21.9983 0.896028 22.2682 0.80826C22.3942 0.766825 22.5201 0.724711 22.6456 0.681827C24.0113 0.215663 25.0834 0.248768 26.4443 0.702638ZM23.7873 2.04521C23.7053 2.07055 23.6233 2.09589 23.5389 2.12199C23.4058 2.16445 23.4058 2.16445 23.27 2.20777C23.1746 2.23748 23.0792 2.26719 22.9809 2.29781C22.6609 2.39768 22.3413 2.49866 22.0216 2.59961C21.792 2.67145 21.5624 2.7432 21.3327 2.81487C20.9012 2.94959 20.4698 3.08457 20.0385 3.21985C19.1844 3.48772 18.3295 3.75329 17.4743 4.01795C17.4074 4.03867 17.3404 4.05939 17.2715 4.08073C16.9979 4.16538 16.7244 4.25003 16.4509 4.33465C15.9646 4.48509 15.4784 4.63571 14.9922 4.78644C14.9227 4.80801 14.8531 4.82958 14.7814 4.8518C14.6402 4.8956 14.4989 4.9394 14.3576 4.98321C13.1636 5.35337 11.9696 5.7231 10.7754 6.09247C10.3163 6.23448 9.85722 6.37656 9.39816 6.51864C8.96099 6.65394 8.52379 6.78913 8.08656 6.92425C7.81534 7.00809 7.54415 7.09203 7.27297 7.17601C7.14839 7.21456 7.0238 7.25308 6.89919 7.29154C5.63282 7.56393 5.63282 7.56393 4.53134 8.11914C4.5214 8.39143 4.51758 8.6615 4.51772 8.93385C4.51741 9.01958 4.51709 9.10531 4.51677 9.19364C4.51587 9.48037 4.51569 9.7671 4.51559 10.0538C4.51529 10.2554 4.51498 10.4569 4.51465 10.6584C4.51409 11.0843 4.51391 11.5101 4.51397 11.936C4.51398 12.3657 4.51335 12.7954 4.51205 13.2251C4.50584 15.3092 4.50293 17.3911 4.61557 19.4728C4.6193 19.5422 4.62302 19.6117 4.62686 19.6833C5.03373 27.0263 6.81931 34.2793 12.0313 39.7129C12.1047 39.7901 12.1781 39.8673 12.2536 39.9469C12.7694 40.4774 13.3238 40.9449 13.9063 41.4004C13.9598 41.4428 14.0134 41.4852 14.0685 41.5289C16.569 43.5037 19.4642 44.8758 22.4071 46.0561C22.6745 46.1638 22.9406 46.2741 23.2063 46.386C23.3367 46.4391 23.4672 46.4921 23.5977 46.5449C23.7526 46.6084 23.7526 46.6084 23.9105 46.6731C24.7924 46.8763 25.5761 46.4796 26.381 46.1465C26.5061 46.0954 26.6313 46.0444 26.7565 45.9934C29.7432 44.7696 32.6951 43.3876 35.1876 41.3066C35.2685 41.24 35.2685 41.24 35.3511 41.172C36.5324 40.1971 37.6329 39.1533 38.5626 37.9316C38.6075 37.8731 38.6524 37.8146 38.6987 37.7543C43.5963 31.3283 44.498 23.0688 44.478 15.2328C44.4778 15.0257 44.4777 14.8186 44.4776 14.6115C44.4772 14.0744 44.4763 13.5373 44.4753 13.0002C44.4743 12.4489 44.4739 11.8976 44.4734 11.3464C44.4724 10.2706 44.4708 9.19489 44.4688 8.11914C44.0977 7.9245 43.7375 7.77244 43.3371 7.64936C43.2251 7.61467 43.1131 7.57997 42.9977 7.54422C42.8749 7.50673 42.7521 7.46924 42.6294 7.43176C42.4993 7.39165 42.3692 7.35149 42.2391 7.3113C41.9595 7.22499 41.6798 7.13899 41.4001 7.05323C40.9528 6.91611 40.5057 6.77833 40.0586 6.64045C39.5919 6.49654 39.1251 6.35269 38.6583 6.20907C37.616 5.88838 36.5741 5.56631 35.5326 5.24292C35.4633 5.22142 35.3941 5.19992 35.3227 5.17777C35.1833 5.13448 35.0439 5.09119 34.9045 5.0479C34.8358 5.02657 34.7671 5.00523 34.6963 4.98325C34.6278 4.962 34.5594 4.94075 34.4889 4.91885C33.5991 4.64264 32.7091 4.36741 31.8191 4.09217C31.0573 3.85654 30.2957 3.62032 29.5343 3.38346C28.9865 3.21308 28.4385 3.04329 27.8903 2.87393C27.569 2.77462 27.2477 2.67504 26.9266 2.57477C26.5759 2.46525 26.2249 2.35696 25.8737 2.24878C25.7707 2.21637 25.6676 2.18396 25.5614 2.15057C25.4663 2.12149 25.3711 2.0924 25.2731 2.06243C25.1912 2.037 25.1093 2.01158 25.0249 1.98539C24.5894 1.88928 24.2104 1.91219 23.7873 2.04521Z"
            fill="#573FE7" />
        <path
            d="M25.6811 6.43663C26.1302 6.61377 26.5971 6.74044 27.059 6.87986C27.3767 6.97667 27.6933 7.07713 28.0099 7.17753C28.143 7.21972 28.2762 7.26191 28.4094 7.3041C28.5101 7.336 28.5101 7.336 28.6128 7.36854C29.1733 7.54599 29.7342 7.72226 30.2951 7.8988C30.509 7.96615 30.7229 8.03355 30.9368 8.10096C32.2916 8.52779 33.6484 8.94845 35.0057 9.36718C35.1077 9.39864 35.2096 9.4301 35.3146 9.46252C35.5129 9.52371 35.7111 9.58488 35.9094 9.64603C36.0998 9.70476 36.2901 9.76355 36.4805 9.82241C36.9911 9.98011 37.5023 10.1358 38.0141 10.2894C38.1808 10.3398 38.1808 10.3398 38.3508 10.3912C38.5644 10.4557 38.7783 10.5197 38.9923 10.5832C39.0887 10.6124 39.1851 10.6416 39.2843 10.6717C39.3691 10.6971 39.4539 10.7224 39.5413 10.7485C39.9029 10.8832 40.1764 10.9895 40.3719 11.3342C40.4472 11.626 40.4581 11.8765 40.4545 12.1781C40.453 12.3553 40.453 12.3553 40.4515 12.5362C40.4494 12.6655 40.4473 12.7949 40.4451 12.9242C40.4434 13.0594 40.4419 13.1947 40.4403 13.3299C40.4359 13.6919 40.43 14.0539 40.4237 14.4159C40.4198 14.6407 40.4162 14.8656 40.4127 15.0905C40.2826 23.17 39.5676 31.5003 33.46 37.4329C32.9429 37.9218 32.3865 38.3559 31.8124 38.7754C31.7365 38.831 31.7365 38.831 31.659 38.8877C29.8656 40.1889 27.9089 41.1938 25.8593 42.0273C25.7107 42.0884 25.7107 42.0884 25.5592 42.1507C25.4658 42.1877 25.3725 42.2247 25.2763 42.2628C25.1531 42.3119 25.1531 42.3119 25.0274 42.3619C24.5294 42.5029 24.1547 42.4346 23.6825 42.2423C23.5807 42.2011 23.4789 42.1599 23.374 42.1175C23.266 42.0723 23.158 42.027 23.0468 41.9805C22.9343 41.9338 22.8218 41.8871 22.706 41.8391C20.329 40.8391 18.1066 39.6315 16.1561 37.9316C16.0689 37.8565 15.9816 37.7813 15.8917 37.7038C15.6632 37.5025 15.44 37.2971 15.2186 37.0879C15.1362 37.0104 15.0538 36.933 14.9689 36.8531C14.2939 36.2 13.7106 35.5009 13.1561 34.7441C13.1171 34.691 13.0781 34.6379 13.0379 34.5832C9.96383 30.3353 9.08333 25.0462 8.74989 19.9316C8.74159 19.8091 8.7333 19.6867 8.72476 19.5605C8.63475 18.1233 8.61706 16.6826 8.59356 15.2431C8.58856 14.9408 8.58268 14.6385 8.57607 14.3363C8.56799 13.9665 8.56133 13.5967 8.55569 13.2268C8.55334 13.0873 8.5505 12.9478 8.54715 12.8083C8.54259 12.6141 8.53987 12.4201 8.53758 12.2259C8.53557 12.1159 8.53356 12.006 8.53149 11.8927C8.56745 11.5379 8.64657 11.3224 8.84364 11.0254C9.06244 10.8994 9.06244 10.8994 9.31596 10.8223C9.4081 10.7929 9.50025 10.7636 9.59518 10.7334C9.68749 10.706 9.77979 10.6786 9.87489 10.6504C10.0337 10.5985 10.1924 10.5465 10.3511 10.4942C10.517 10.4418 10.683 10.3896 10.849 10.3376C10.9882 10.2938 10.9882 10.2938 11.1303 10.249C11.4383 10.1521 11.7464 10.0555 12.0546 9.95897C12.2748 9.88982 12.495 9.82067 12.7152 9.75152C14.5394 9.17922 16.3651 8.61159 18.1911 8.04522C18.4025 7.97964 18.6139 7.91402 18.8253 7.84839C18.9622 7.8059 19.0991 7.76341 19.2361 7.72092C19.3032 7.70008 19.3703 7.67924 19.4394 7.65777C19.7711 7.55487 20.1029 7.4526 20.4352 7.35163C21.0176 7.17435 21.5981 6.99462 22.174 6.79736C24.5846 5.97241 24.5846 5.97241 25.6811 6.43663ZM23.7899 7.98885C23.6836 8.02228 23.5774 8.05572 23.4679 8.09016C23.2937 8.14583 23.2937 8.14583 23.116 8.20263C22.9923 8.24171 22.8687 8.28073 22.745 8.3197C22.479 8.40361 22.2131 8.48783 21.9474 8.57229C21.3099 8.77483 20.6719 8.97575 20.0339 9.17674C19.8868 9.2231 19.7396 9.26948 19.5925 9.31588C17.7742 9.88932 15.9518 10.4491 14.129 11.008C13.8272 11.1006 13.5254 11.1932 13.2235 11.2858C13.0548 11.3375 13.0548 11.3375 12.8826 11.3903C11.9722 11.67 11.0636 11.955 10.1561 12.2441C10.1642 13.0251 10.1731 13.8061 10.1831 14.5871C10.1877 14.9502 10.192 15.3132 10.1957 15.6762C10.2587 21.851 10.5855 28.6892 14.4686 33.8066C14.5279 33.8855 14.5871 33.9645 14.6481 34.0458C16.2444 36.1052 18.2188 37.6706 20.4686 38.9629C20.5325 38.9997 20.5963 39.0365 20.6621 39.0745C21.4996 39.5517 22.3664 39.9539 23.2518 40.334C23.3964 40.3973 23.3964 40.3973 23.5439 40.462C24.3827 40.8124 24.8105 40.6942 25.6338 40.3565C25.7295 40.3162 25.8251 40.2759 25.9237 40.2344C26.0235 40.1924 26.1233 40.1503 26.2261 40.1071C30.4003 38.3213 33.9264 35.4334 36.0311 31.3691C36.0789 31.278 36.0789 31.278 36.1277 31.1849C37.8517 27.8539 38.4139 24.0082 38.6561 20.3066C38.6645 20.1925 38.6728 20.0783 38.6814 19.9607C38.7811 18.4728 38.7607 16.9817 38.7563 15.4913C38.7554 15.1242 38.7549 14.7571 38.7545 14.3899C38.7535 13.6747 38.7519 12.9594 38.7499 12.2441C37.239 11.7331 35.722 11.2468 34.1972 10.7793C33.7491 10.6416 33.3011 10.5037 32.8532 10.3658C32.7352 10.3296 32.6173 10.2933 32.4958 10.2559C31.5874 9.97635 30.6799 9.69382 29.7726 9.4105C29.3137 9.26724 28.8547 9.12426 28.3957 8.98127C28.0191 8.86391 27.6426 8.74636 27.2662 8.62839C26.9104 8.51688 26.5545 8.40587 26.1985 8.29523C26.0665 8.25412 25.9346 8.21282 25.8028 8.17133C25.6217 8.11437 25.4404 8.05813 25.2592 8.00192C25.1573 7.97009 25.0554 7.93825 24.9505 7.90546C24.5176 7.79426 24.2052 7.85705 23.7899 7.98885Z"
            fill="#573FE7" />
    </g>
    <defs>
        <clipPath id="clip0_88_2272">
            <rect width="48" height="48" fill="white" transform="translate(0.5 0.337891)" />
        </clipPath>
    </defs>
</svg>