<svg width="49" height="49" viewBox="0 0 49 49" fill="none" xmlns="http://www.w3.org/2000/svg">
<path d="M7.20863 10.8137C7.2998 10.8132 7.2998 10.8132 7.39282 10.8127C7.59677 10.8119 7.8007 10.8123 8.00465 10.8128C8.15224 10.8124 8.29983 10.812 8.44742 10.8115C8.85324 10.8104 9.25904 10.8104 9.66486 10.8106C10.1024 10.8106 10.54 10.8096 10.9776 10.8087C11.835 10.8072 12.6923 10.8066 13.5497 10.8065C14.2466 10.8064 14.9434 10.8061 15.6403 10.8055C17.6155 10.8038 19.5907 10.803 21.5659 10.8031C21.7257 10.8031 21.7257 10.8031 21.8887 10.8031C22.0486 10.8031 22.0486 10.8031 22.2118 10.8031C23.9403 10.8032 25.6687 10.8014 27.3972 10.7988C29.1714 10.7961 30.9457 10.7948 32.72 10.795C33.7163 10.795 34.7126 10.7945 35.709 10.7925C36.5572 10.7908 37.4055 10.7904 38.2537 10.7916C38.6865 10.7923 39.1193 10.7923 39.5521 10.7906C39.9485 10.7892 40.3447 10.7894 40.741 10.7911C40.8843 10.7914 41.0276 10.791 41.1709 10.79C42.0313 10.7841 42.6903 10.8045 43.3665 11.3971C43.417 11.4581 43.4675 11.5191 43.5195 11.582C43.5715 11.6428 43.6235 11.7036 43.677 11.7662C43.9489 12.1608 44.0233 12.501 44.0198 12.9764C44.0195 13.0853 44.0192 13.1943 44.0189 13.3065C44.0176 13.4252 44.0163 13.5439 44.015 13.6662C44.0144 13.7931 44.0138 13.92 44.0133 14.047C44.0122 14.3199 44.0105 14.5929 44.0085 14.8659C44.0056 15.2982 44.0048 15.7304 44.0046 16.1628C44.0046 16.2724 44.0046 16.2724 44.0045 16.3842C44.0044 16.5336 44.0043 16.683 44.0042 16.8324C44.0035 17.8384 44.0011 18.8444 43.9933 19.8503C43.988 20.5295 43.9861 21.2087 43.9879 21.8879C43.9888 22.2469 43.988 22.6057 43.983 22.9647C43.9783 23.3029 43.9781 23.6407 43.9812 23.9789C43.9817 24.1607 43.9775 24.3426 43.9732 24.5244C43.984 25.1836 44.0776 25.5163 44.5514 25.9888C44.7113 26.126 44.8713 26.2632 45.0312 26.4004C45.6341 27.1266 45.5656 27.9604 45.5597 28.8554C45.5604 29.012 45.5614 29.1685 45.5626 29.325C45.5653 29.7353 45.5654 30.1455 45.5647 30.5557C45.564 31.2122 45.567 31.8687 45.5706 32.5251C45.5714 32.753 45.5709 32.9809 45.5702 33.2088C45.5707 34.3909 45.6398 35.2517 46.5005 36.1379C46.6274 36.2636 46.7549 36.3889 46.8828 36.5136C46.9809 36.6104 46.9809 36.6104 47.0809 36.7092C47.241 36.8671 47.4016 37.0246 47.5625 37.1816C47.4035 37.5222 47.2121 37.739 46.9414 38.0019C46.8648 38.0769 46.7882 38.1518 46.7092 38.229C46.6505 38.2855 46.5918 38.3421 46.5312 38.4004C46.1094 38.2088 45.8344 37.9233 45.5117 37.5976C45.453 37.5384 45.3943 37.4791 45.3338 37.4181C44.1797 36.2335 43.9587 35.1771 43.9586 33.5678C43.9575 33.4083 43.9563 33.2488 43.9549 33.0893C43.9515 32.6715 43.9496 32.2537 43.9482 31.8359C43.9458 31.166 43.9421 30.4961 43.9367 29.8262C43.9352 29.5928 43.9348 29.3595 43.9346 29.1262C43.9337 28.983 43.9327 28.8398 43.9317 28.6966C43.9319 28.6321 43.9322 28.5676 43.9324 28.5012C43.9256 27.8633 43.7627 27.534 43.3161 27.0879C43.2329 27.004 43.1497 26.9202 43.0639 26.8338C42.9729 26.7436 42.8818 26.6535 42.7908 26.5633C42.6973 26.4699 42.6039 26.3764 42.5105 26.2829C42.315 26.0875 42.1191 25.8925 41.9228 25.6979C41.6714 25.4487 41.4212 25.1985 41.1713 24.9479C40.9786 24.7549 40.7855 24.5624 40.5922 24.37C40.4997 24.278 40.4074 24.1857 40.3152 24.0934C40.1862 23.9644 40.0566 23.836 39.9269 23.7077C39.8533 23.6346 39.7798 23.5615 39.704 23.4862C39.3393 23.1652 39.0586 23.0757 38.5651 23.0894C38.1521 23.1539 37.8957 23.3943 37.6367 23.705C37.499 24.0418 37.45 24.3589 37.5312 24.7129C37.8015 25.165 38.1221 25.5113 38.5006 25.8748C38.6169 25.9888 38.7332 26.1027 38.8494 26.2167C39.0309 26.3935 39.2127 26.5701 39.395 26.7461C40.4769 27.7931 41.0685 28.4672 41.1128 30.0138C41.1149 30.1726 41.1163 30.3314 41.1172 30.4902C41.1181 30.5705 41.1189 30.6508 41.1198 30.7336C41.1231 32.3781 41.1231 32.3781 40.5291 33.006C40.2825 33.2148 40.0286 33.4055 39.7612 33.5867C39.3738 33.8786 39.1619 34.3241 38.9375 34.7441C38.9017 34.8048 38.866 34.8654 38.8291 34.9279C38.0095 36.3995 38.0737 38.1031 38.0617 39.7334C38.0454 40.4849 38.0161 41.0862 37.4718 41.6539C37.4296 41.694 37.3873 41.7341 37.3438 41.7754C37.5305 42.1836 37.7974 42.451 38.1113 42.7656C38.189 42.8467 38.189 42.8467 38.2682 42.9295C38.9849 43.6511 39.756 43.7455 40.7326 43.7665C42.8773 43.8187 43.8666 44.6949 45.3125 46.1816C45.1685 46.5267 44.958 46.743 44.6914 47.0019C44.6148 47.0769 44.5382 47.1518 44.4592 47.229C44.4005 47.2855 44.3418 47.3421 44.2812 47.4004C43.9908 47.272 43.802 47.1276 43.5851 46.8968C43.5258 46.8352 43.4665 46.7737 43.4055 46.7102C43.283 46.5812 43.1609 46.4518 43.0392 46.3221C42.2919 45.549 41.5693 45.4319 40.5174 45.4092C39.1232 45.3753 38.2 45.1896 37.1562 44.2129C37.0478 44.065 36.9441 43.9135 36.8459 43.7586C36.417 43.1244 35.914 42.5773 35.1549 42.3721C33.756 42.1053 32.2875 42.1716 30.8704 42.1831C30.3935 42.1859 29.9167 42.183 29.4398 42.1801C28.2494 42.1731 27.0593 42.1766 25.8689 42.1854C24.9042 42.1922 23.94 42.1888 22.9753 42.1782C21.8495 42.1658 20.724 42.1605 19.5981 42.1651C19.0041 42.1675 18.4105 42.1671 17.8166 42.1591C15.0114 41.9973 15.0114 41.9973 12.5974 43.1604C12.2771 43.5003 12.0081 43.8741 11.745 44.2593C11.292 44.8423 10.5905 45.1914 9.875 45.3379C9.51549 45.3756 9.15817 45.3856 8.79688 45.3906C7.34794 45.4163 6.59922 45.6699 5.57422 46.7207C5.47742 46.8187 5.47742 46.8187 5.37866 46.9188C5.22075 47.0789 5.0633 47.2394 4.90625 47.4004C4.56565 47.2414 4.34886 47.0499 4.08594 46.7793C3.97355 46.6643 3.97355 46.6643 3.85889 46.5471C3.80233 46.4884 3.74577 46.4296 3.6875 46.3691C3.81134 46.0952 3.9456 45.8995 4.15735 45.6869C4.24083 45.603 4.24083 45.603 4.32599 45.5175C4.38406 45.4601 4.44213 45.4028 4.50195 45.3437C4.55821 45.2867 4.61446 45.2298 4.67242 45.1711C5.75328 44.0948 6.73786 43.7991 8.24261 43.7748C9.50266 43.7514 10.2001 43.4566 11.082 42.5488C11.1376 42.4924 11.1932 42.4359 11.2505 42.3778C11.3862 42.2399 11.5213 42.1014 11.6562 41.9629C11.5421 41.7258 11.4234 41.5206 11.2754 41.3008C11.0132 40.9033 10.9867 40.6212 10.9769 40.1541C10.974 40.0358 10.9711 39.9174 10.968 39.7954C10.9666 39.7331 10.9651 39.6707 10.9637 39.6065C10.9047 37.1801 10.6786 35.0634 8.92285 33.2302C8.88106 33.1859 8.83927 33.1416 8.79621 33.096C8.65758 32.9565 8.65758 32.9565 8.48058 32.8461C8.2134 32.647 8.03522 32.4689 7.96248 32.1337C7.90887 31.6853 7.91076 31.2375 7.91959 30.7865C7.9238 30.5444 7.92154 30.303 7.91852 30.0608C7.91714 28.7223 8.27352 28.0798 9.20557 27.1335C9.45036 26.8912 9.69767 26.6515 9.94531 26.4121C10.1339 26.2287 10.3222 26.045 10.51 25.8608C10.6261 25.7469 10.7427 25.6336 10.8599 25.5208C10.9125 25.4694 10.9651 25.4181 11.0193 25.3651C11.0655 25.3205 11.1117 25.2759 11.1593 25.2299C11.4451 24.8972 11.5107 24.5926 11.4984 24.1529C11.434 23.74 11.1936 23.4836 10.8828 23.2246C10.546 23.0868 10.229 23.0378 9.875 23.1191C9.28428 23.4533 8.835 23.9429 8.35852 24.4199C8.26709 24.511 8.17563 24.602 8.08416 24.693C7.89339 24.8831 7.70299 25.0735 7.51283 25.2642C7.2692 25.5084 7.02453 25.7514 6.77955 25.9942C6.59079 26.1816 6.40267 26.3697 6.21474 26.5579C6.12477 26.6478 6.03457 26.7375 5.94415 26.827C5.81806 26.9519 5.69294 27.0779 5.56788 27.2038C5.4965 27.2751 5.42513 27.3465 5.35159 27.4199C5.03652 27.8024 5.08009 28.2059 5.08045 28.683C5.08013 28.7518 5.0798 28.8206 5.07946 28.8915C5.07878 29.0407 5.07827 29.1899 5.07794 29.3391C5.07726 29.5761 5.07579 29.8131 5.07406 30.0501C5.06916 30.7239 5.06465 31.3977 5.06319 32.0715C5.06224 32.4841 5.05948 32.8966 5.05557 33.3092C5.05442 33.4656 5.05394 33.622 5.05415 33.7784C5.05589 35.501 4.59175 36.4633 3.38718 37.6812C3.14544 37.9229 2.90132 38.162 2.65625 38.4004C2.31118 38.2563 2.0949 38.0458 1.83594 37.7793C1.72355 37.6643 1.72355 37.6643 1.60889 37.5471C1.55233 37.4884 1.49577 37.4296 1.4375 37.3691C1.56585 37.0787 1.71029 36.8898 1.94104 36.6729C2.00261 36.6137 2.06419 36.5544 2.12762 36.4933C2.25664 36.3709 2.38604 36.2488 2.51581 36.1271C3.15629 35.508 3.38727 34.9391 3.4173 34.0373C3.41706 33.9148 3.41682 33.7923 3.41657 33.6661C3.41662 33.5251 3.41668 33.3841 3.41674 33.2431C3.41654 33.1321 3.41654 33.1321 3.41633 33.0188C3.416 32.6234 3.41842 32.2281 3.42035 31.8327C3.42263 31.3312 3.4241 30.8296 3.42266 30.3281C3.42156 29.9213 3.42321 29.5147 3.42664 29.108C3.42744 28.9538 3.42726 28.7997 3.42603 28.6456C3.41935 27.7401 3.45405 27.0283 4.0625 26.3066C4.20773 26.1837 4.35318 26.061 4.49881 25.9385C4.94521 25.4935 5.00509 25.1574 5.01301 24.5392C5.01027 24.4216 5.00752 24.304 5.00469 24.1827C5.00476 24.0555 5.00522 23.9282 5.00601 23.8009C5.00692 23.5283 5.00519 23.2558 5.00136 22.9832C4.99532 22.5517 4.99526 22.1203 4.99596 21.6888C4.99638 21.006 4.99283 20.3233 4.98757 19.6406C4.97821 18.4183 4.97431 17.196 4.97381 15.9737C4.97346 15.5452 4.97096 15.1169 4.96668 14.6884C4.96433 14.4215 4.96351 14.1545 4.96304 13.8876C4.96224 13.7059 4.95954 13.5242 4.95677 13.3425C4.95736 12.5789 5.04167 12.062 5.5592 11.4714C5.62023 11.4209 5.68126 11.3704 5.74414 11.3183C5.80493 11.2664 5.86572 11.2144 5.92834 11.1609C6.34668 10.8726 6.70526 10.8144 7.20863 10.8137ZM6.6875 12.6191C6.50913 12.9309 6.47668 13.1984 6.47745 13.5535C6.47719 13.6449 6.47694 13.7362 6.47667 13.8304C6.47735 13.9295 6.47802 14.0286 6.47871 14.1308C6.47869 14.236 6.47866 14.3412 6.47863 14.4496C6.47876 14.7971 6.48022 15.1446 6.48169 15.492C6.48204 15.7331 6.48231 15.9741 6.48249 16.2152C6.48314 16.7846 6.48461 17.354 6.4865 17.9234C6.48859 18.5718 6.48962 19.2203 6.49056 19.8687C6.49252 21.2022 6.49582 22.5356 6.5 23.8691C7.03624 23.4241 7.50197 22.9609 8 22.4629C8 19.6166 8 16.7704 8 13.8379C18.89 13.8379 29.78 13.8379 41 13.8379C41 16.6841 41 19.5304 41 22.4629C41.6961 23.159 41.6961 23.159 42.4062 23.8691C42.4372 23.8691 42.4681 23.8691 42.5 23.8691C42.5066 22.4731 42.5115 21.0771 42.5146 19.6812C42.516 19.0329 42.518 18.3847 42.5212 17.7365C42.5243 17.1111 42.526 16.4856 42.5267 15.8601C42.5272 15.6214 42.5282 15.3827 42.5297 15.144C42.5318 14.8098 42.5321 14.4756 42.5319 14.1414C42.5329 14.0426 42.534 13.9438 42.535 13.842C42.5329 13.341 42.5282 12.9438 42.2188 12.5254C41.8581 12.3405 41.5571 12.3143 41.1551 12.314C41.0343 12.3135 40.9136 12.3129 40.7891 12.3123C40.6553 12.3127 40.5215 12.313 40.3877 12.3134C40.2453 12.3131 40.103 12.3128 39.9607 12.3123C39.5695 12.3114 39.1783 12.3116 38.7871 12.312C38.3653 12.3122 37.9434 12.3114 37.5216 12.3107C36.6951 12.3095 35.8686 12.3093 35.0421 12.3095C34.3704 12.3097 33.6988 12.3095 33.0271 12.3091C32.9316 12.3091 32.8361 12.309 32.7377 12.309C32.5436 12.3088 32.3496 12.3087 32.1555 12.3086C30.3351 12.3076 28.5146 12.3078 26.6941 12.3084C25.028 12.3088 23.3619 12.3078 21.6957 12.306C19.9857 12.3042 18.2756 12.3034 16.5655 12.3038C15.6051 12.304 14.6448 12.3037 13.6844 12.3024C12.8669 12.3013 12.0494 12.3011 11.2318 12.3023C10.8146 12.3028 10.3974 12.3029 9.9802 12.3018C9.59835 12.3008 9.21654 12.3011 8.83469 12.3024C8.69647 12.3026 8.55825 12.3024 8.42003 12.3017C8.23225 12.3007 8.04448 12.3017 7.8567 12.3027C7.75237 12.3027 7.64803 12.3027 7.54054 12.3027C7.20289 12.3436 6.97732 12.4434 6.6875 12.6191ZM9.5 15.3379C9.5 17.3797 9.5 19.4216 9.5 21.5254C9.93312 21.5254 10.3663 21.5254 10.8125 21.5254C11.727 21.7826 12.2952 22.0943 12.778 22.9294C13.1713 23.6983 13.1824 24.5958 12.9395 25.416C12.66 26.0857 12.1638 26.556 11.6562 27.0566C11.5334 27.178 11.5334 27.178 11.4081 27.3017C11.3635 27.3458 11.3188 27.39 11.2728 27.4354C11.1322 27.5744 10.9918 27.7136 10.8515 27.8528C10.6631 28.0396 10.4735 28.2251 10.2832 28.4099C10.1518 28.5391 10.1518 28.5391 10.0178 28.6709C9.93847 28.7482 9.85912 28.8254 9.77736 28.9051C9.39365 29.3524 9.47643 29.9156 9.4707 30.4785C9.46798 30.5676 9.46527 30.6566 9.46246 30.7484C9.46168 30.8343 9.46089 30.9202 9.46008 31.0088C9.45872 31.0869 9.45735 31.165 9.45594 31.2455C9.51667 31.5451 9.64046 31.6459 9.875 31.8379C10.1128 31.8937 10.1128 31.8937 10.3769 31.8851C10.4793 31.886 10.5817 31.887 10.6872 31.888C10.7997 31.8872 10.9121 31.8863 11.028 31.8855C11.2073 31.8864 11.2073 31.8864 11.3901 31.8873C11.7221 31.8888 12.054 31.888 12.3859 31.8869C12.7438 31.886 13.1017 31.8873 13.4595 31.8884C14.1607 31.89 14.8619 31.8897 15.5631 31.8886C16.1328 31.8877 16.7026 31.8876 17.2723 31.888C17.3938 31.8881 17.3938 31.8881 17.5178 31.8882C17.6824 31.8883 17.847 31.8885 18.0116 31.8886C19.5556 31.8897 21.0997 31.8884 22.6438 31.8864C23.9693 31.8847 25.2948 31.885 26.6204 31.8867C28.1588 31.8888 29.6973 31.8895 31.2358 31.8884C31.3997 31.8883 31.5637 31.8882 31.7277 31.888C31.8084 31.888 31.8891 31.8879 31.9722 31.8879C32.5414 31.8875 33.1106 31.8881 33.6798 31.889C34.3733 31.89 35.0668 31.8897 35.7602 31.8877C36.1142 31.8868 36.4681 31.8864 36.8221 31.8876C37.2054 31.8889 37.5887 31.8874 37.972 31.8855C38.0844 31.8863 38.1969 31.8872 38.3128 31.888C38.4152 31.887 38.5176 31.8861 38.6231 31.8851C38.7116 31.885 38.8001 31.8849 38.8913 31.8849C39.1956 31.8237 39.3082 31.7018 39.5 31.4629C39.554 31.2455 39.554 31.2455 39.5432 31.0121C39.5429 30.9266 39.5425 30.8411 39.5421 30.753C39.5398 30.6643 39.5375 30.5757 39.5352 30.4843C39.535 30.3961 39.5349 30.3078 39.5348 30.2168C39.5256 29.4908 39.4113 29.0903 38.8888 28.577C38.8317 28.5223 38.7747 28.4676 38.7159 28.4112C38.657 28.3533 38.598 28.2954 38.5372 28.2358C38.286 27.9891 38.0331 27.7441 37.7804 27.499C37.5956 27.3193 37.4116 27.1387 37.2277 26.9581C37.1712 26.904 37.1147 26.8498 37.0566 26.7941C36.3743 26.1236 35.9145 25.3939 35.9023 24.414C35.9148 23.6881 36.0818 23.0161 36.5234 22.4277C37.4472 21.546 38.196 21.5254 39.5 21.5254C39.5 19.4835 39.5 17.4416 39.5 15.3379C29.6 15.3379 19.7 15.3379 9.5 15.3379ZM11.1875 33.3379C11.435 33.8638 11.6825 34.3897 11.9375 34.9316C12.2976 35.9076 12.4056 36.8071 12.5 37.8379C13.49 37.8379 14.48 37.8379 15.5 37.8379C15.5 36.3529 15.5 34.8679 15.5 33.3379C14.0769 33.3379 12.6538 33.3379 11.1875 33.3379ZM17 33.3379C17 34.8229 17 36.3079 17 37.8379C19.2275 37.8379 21.455 37.8379 23.75 37.8379C23.75 36.3529 23.75 34.8679 23.75 33.3379C21.5225 33.3379 19.295 33.3379 17 33.3379ZM25.25 33.3379C25.25 34.8229 25.25 36.3079 25.25 37.8379C27.4775 37.8379 29.705 37.8379 32 37.8379C32 36.3529 32 34.8679 32 33.3379C29.7725 33.3379 27.545 33.3379 25.25 33.3379ZM33.5 33.3379C33.5 34.8229 33.5 36.3079 33.5 37.8379C34.49 37.8379 35.48 37.8379 36.5 37.8379C36.5213 37.5904 36.5425 37.3429 36.5645 37.0879C36.7102 35.6797 37.1686 34.6257 37.8125 33.3379C36.3894 33.3379 34.9663 33.3379 33.5 33.3379ZM12.5 39.3379C12.4763 40.0698 12.4763 40.0698 12.7812 40.6504C13.216 40.8987 13.671 40.8643 14.1568 40.8623C14.2487 40.8627 14.3405 40.863 14.4352 40.8634C14.7434 40.8644 15.0515 40.864 15.3597 40.8636C15.5805 40.864 15.8014 40.8645 16.0222 40.8651C16.6223 40.8663 17.2223 40.8664 17.8224 40.8661C18.1972 40.866 18.5719 40.8663 18.9467 40.8666C19.0089 40.8667 19.0711 40.8667 19.1352 40.8668C19.2616 40.8669 19.388 40.867 19.5144 40.8671C20.6997 40.8681 21.8849 40.8679 23.0702 40.8674C24.1543 40.8669 25.2384 40.8679 26.3226 40.8697C27.436 40.8715 28.5495 40.8723 29.6629 40.872C30.2879 40.8718 30.9129 40.872 31.5379 40.8733C32.1256 40.8745 32.7133 40.8743 33.3009 40.8731C33.5167 40.8729 33.7325 40.8731 33.9483 40.8739C34.2427 40.8749 34.537 40.8741 34.8313 40.8729C34.9597 40.874 34.9597 40.874 35.0907 40.875C35.5672 40.871 35.9011 40.825 36.3125 40.5566C36.5732 40.1419 36.5 39.8665 36.5 39.3379C28.58 39.3379 20.66 39.3379 12.5 39.3379Z" fill="#573FE7"/>
<path d="M28.5962 18.0828C29.942 19.1806 31.0401 20.6976 31.25 22.4629C31.3868 24.4991 31.1255 26.3962 29.7519 27.9855C28.5138 29.3417 26.9718 30.2803 25.1042 30.3672C23.1645 30.4227 21.424 30.0465 19.9589 28.709C18.5768 27.3834 17.7677 25.8366 17.7124 23.9033C17.6902 21.9911 18.1688 20.3085 19.5125 18.9075C21.9079 16.5092 25.8047 15.9731 28.5962 18.0828ZM21.3125 19.4629C21.253 19.5039 21.1935 19.545 21.1323 19.5874C20.1746 20.3166 19.6002 21.5012 19.3437 22.6504C19.211 24.2124 19.4325 25.4926 20.375 26.7754C20.4219 26.8417 20.4687 26.9081 20.5171 26.9764C21.2323 27.8922 22.4237 28.5616 23.5625 28.7441C25.1236 28.8891 26.4046 28.6554 27.6875 27.7129C27.7538 27.666 27.8202 27.6191 27.8885 27.5708C28.8043 26.8555 29.4737 25.6642 29.6562 24.5254C29.8012 22.9643 29.5675 21.6833 28.625 20.4004C28.5781 20.334 28.5312 20.2677 28.4829 20.1993C27.7676 19.2835 26.5763 18.6142 25.4375 18.4316C23.8729 18.2863 22.6005 18.5238 21.3125 19.4629Z" fill="#573FE7"/>
<path d="M23.8614 19.8496C24.7085 20.3063 25.5108 20.8444 26.3177 21.3677C26.5353 21.5079 26.7541 21.6455 26.9741 21.7817C27.0342 21.8192 27.0943 21.8567 27.1562 21.8953C27.3118 21.9923 27.4678 22.0886 27.6238 22.1849C27.9415 22.4179 28.1674 22.6726 28.3438 23.0254C28.3896 23.5275 28.4098 23.9913 28.2149 24.4609C27.5393 25.1526 26.6324 25.6252 25.8125 26.125C25.7083 26.1889 25.6042 26.2527 25.4968 26.3186C25.1962 26.5027 24.895 26.686 24.5938 26.8692C24.503 26.9247 24.4123 26.9803 24.3187 27.0376C24.2355 27.0882 24.1522 27.1389 24.0664 27.1911C23.9937 27.2355 23.9209 27.2799 23.846 27.3256C23.4509 27.5464 23.0677 27.5806 22.625 27.5254C22.1311 27.3771 21.8361 27.178 21.5807 26.7161C21.403 26.2274 21.447 25.6951 21.4502 25.1817C21.45 25.0538 21.4496 24.926 21.4491 24.7982C21.4486 24.5312 21.4494 24.2643 21.4511 23.9973C21.4533 23.6566 21.452 23.3159 21.4498 22.9751C21.4484 22.7115 21.4489 22.4478 21.4498 22.1842C21.4502 21.9979 21.4491 21.8116 21.4479 21.6254C21.4546 20.9816 21.473 20.5409 21.875 20.0254C22.4989 19.5088 23.1435 19.5155 23.8614 19.8496ZM23 21.2442C23 22.791 23 24.3379 23 25.9317C23.6881 25.5303 24.3685 25.1291 25.0391 24.7012C25.187 24.6072 25.335 24.5132 25.4829 24.4192C25.5531 24.3743 25.6232 24.3295 25.6955 24.2832C25.8384 24.1932 25.9823 24.1049 26.1273 24.0183C26.196 23.9771 26.2647 23.9358 26.3355 23.8933C26.4281 23.8388 26.4281 23.8388 26.5227 23.7831C26.5888 23.7329 26.5888 23.7329 26.6563 23.6817C26.6563 23.6198 26.6563 23.5579 26.6563 23.4942C26.4945 23.3684 26.4945 23.3684 26.2816 23.2455C26.2009 23.1963 26.1201 23.1472 26.0369 23.0965C25.9493 23.044 25.8617 22.9916 25.7715 22.9375C25.5914 22.828 25.4113 22.7184 25.2313 22.6087C25.1404 22.5533 25.0495 22.4979 24.9558 22.4408C24.4879 22.1523 24.0282 21.8512 23.569 21.549C23.3041 21.3395 23.3041 21.3395 23 21.2442Z" fill="#573FE7"/>
<path d="M29.4713 3.38291C29.7968 3.63363 30.1041 3.90339 30.4062 4.18162C30.0367 4.63916 29.645 5.03081 29.1875 5.40037C29.1375 5.35275 29.0874 5.30514 29.0359 5.25608C27.675 3.99875 26.0551 3.41057 24.209 3.43413C22.4453 3.51573 21.0533 4.28822 19.7188 5.40037C19.3475 5.02912 18.9762 4.65787 18.5938 4.27537C21.1816 1.04052 26.3136 1.17435 29.4713 3.38291Z" fill="#573FE7"/>
<path d="M24.4707 4.79104C24.6053 4.79184 24.6053 4.79184 24.7425 4.79266C25.9616 4.82305 26.9186 5.19412 27.875 5.96291C27.9998 6.05697 28.1247 6.15082 28.25 6.24416C28.106 6.58923 27.8955 6.80551 27.6289 7.06447C27.5523 7.1394 27.4757 7.21433 27.3967 7.29152C27.338 7.34808 27.2793 7.40464 27.2188 7.46291C26.8482 7.28574 26.5084 7.06782 26.1622 6.84768C25.3431 6.41644 24.344 6.39792 23.4497 6.58986C22.8796 6.78095 22.4232 7.0723 21.9688 7.46291C21.6284 7.31927 21.4075 7.11432 21.1484 6.85354C21.0735 6.77909 20.9986 6.70465 20.9214 6.62795C20.75 6.43166 20.75 6.43166 20.75 6.24416C21.8466 5.31284 23.0244 4.78088 24.4707 4.79104Z" fill="#573FE7"/>
<path d="M25.6016 8.00197C25.896 8.20583 25.9608 8.27775 26.0938 8.58791C25.238 9.58761 25.238 9.58761 24.816 9.66347C24.5938 9.63088 24.5938 9.63088 24.3945 9.57302C24.1999 9.5029 24.1999 9.5029 23.9375 9.61916C23.5972 9.27885 23.2569 8.93854 22.9062 8.58791C23.0975 8.20548 23.2171 8.08537 23.5991 7.90969C24.2405 7.72151 24.9889 7.72025 25.6016 8.00197Z" fill="#573FE7"/>
</svg>
