<svg width="48" height="48" viewBox="0 0 48 48" fill="none" xmlns="http://www.w3.org/2000/svg">
    <g clipPath="url(#clip0_88_2259)">
        <path
            d="M23.9181 0.164071C24.0016 0.164008 24.0851 0.163945 24.1712 0.163879C25.5078 0.165484 26.8076 0.227192 28.1251 0.468759C28.2112 0.48385 28.2973 0.498941 28.386 0.514489C31.5493 1.08343 34.7902 2.3244 37.4063 4.21876C37.4634 4.26007 37.5205 4.30139 37.5794 4.34396C39.5165 5.75293 41.4119 7.34558 42.8438 9.28126C42.8883 9.33984 42.9328 9.39842 42.9786 9.45878C46.8461 14.5625 48.5386 20.9902 47.7071 27.3516C47.6577 27.674 47.597 27.993 47.5313 28.3125C47.5034 28.4549 47.5034 28.4549 47.4749 28.6002C46.6449 32.7509 44.7933 36.6929 41.9137 39.8192C41.7369 40.0116 41.5662 40.2076 41.3966 40.4063C40.6959 41.2068 39.9302 41.9069 39.0938 42.5625C39.0379 42.6073 38.982 42.6521 38.9244 42.6983C35.0075 45.8368 30.0786 47.7868 25.0313 47.9063C24.9576 47.9082 24.8838 47.9101 24.8078 47.9121C19.0077 48.0439 13.4167 46.2419 8.90634 42.5625C8.85421 42.52 8.80207 42.4776 8.74836 42.4338C7.52861 41.4316 6.4046 40.3442 5.43759 39.0938C5.3423 38.9741 5.24696 38.8545 5.15158 38.7349C4.41696 37.8048 3.77372 36.8424 3.18759 35.8125C3.14736 35.7422 3.10713 35.6719 3.06568 35.5995C1.87525 33.4959 1.08969 31.2162 0.586023 28.8574C0.567382 28.7707 0.548741 28.684 0.529535 28.5947C0.223241 27.0867 0.149448 25.5994 0.152429 24.0645C0.152449 23.9699 0.152469 23.8754 0.15249 23.778C0.155726 22.2276 0.244294 20.7404 0.562586 19.2188C0.580139 19.1337 0.597693 19.0487 0.615778 18.9611C1.274 15.8808 2.56845 12.8727 4.40634 10.3125C4.4745 10.2168 4.54265 10.1211 4.61288 10.0225C6.00073 8.12541 7.65101 6.34352 9.56259 4.96876C9.62352 4.92391 9.68446 4.87906 9.74725 4.83285C13.1361 2.33879 17.0075 0.803767 21.1876 0.281259C21.252 0.272421 21.3164 0.263584 21.3828 0.254479C22.2237 0.152821 23.0723 0.164646 23.9181 0.164071ZM20.1563 2.06251C20.0759 2.0776 19.9955 2.09269 19.9127 2.10824C16.3966 2.77947 13.1167 4.24267 10.3126 6.46876C10.2319 6.53148 10.1511 6.5942 10.068 6.65882C9.52566 7.08961 9.01469 7.5498 8.5079 8.02149C8.44587 8.07897 8.38385 8.13645 8.31994 8.19567C5.03511 11.287 2.95432 15.5962 2.06259 19.9688C2.04577 20.0478 2.02896 20.1268 2.01164 20.2082C1.7523 21.4778 1.75258 22.7622 1.74618 24.0527C1.74543 24.1373 1.74467 24.2219 1.7439 24.309C1.73275 25.9607 1.913 27.5739 2.30868 29.1797C2.34416 29.3246 2.34416 29.3246 2.38037 29.4724C3.15947 32.5286 4.54646 35.4406 6.56259 37.875C6.6246 37.9511 6.6246 37.9511 6.68788 38.0287C7.73674 39.3122 8.89563 40.5287 10.2188 41.5313C10.2684 41.5697 10.3179 41.6081 10.3689 41.6477C13.6769 44.2107 17.5987 45.7548 21.7501 46.2188C21.9089 46.2372 21.9089 46.2372 22.0709 46.2561C27.7762 46.803 33.6075 44.923 38.0344 41.3229C38.5638 40.8826 39.0667 40.415 39.5626 39.9375C39.6362 39.8669 39.6362 39.8669 39.7114 39.795C40.369 39.1618 40.9763 38.508 41.5313 37.7813C41.5764 37.7226 41.6214 37.6639 41.6678 37.6035C44.6445 33.6976 46.2647 29.0213 46.254 24.1113C46.2539 24.023 46.2539 23.9347 46.2538 23.8436C46.2394 18.3841 44.2098 13.0399 40.4448 9.05274C40.2546 8.8505 40.0746 8.64446 39.8966 8.43165C36.644 4.71226 31.5234 2.5295 26.7188 1.87501C26.6148 1.86051 26.6148 1.86051 26.5086 1.84571C25.7 1.74879 24.8837 1.7584 24.0704 1.75782C23.991 1.75776 23.9117 1.75769 23.8299 1.75763C22.5844 1.7592 21.3808 1.81877 20.1563 2.06251Z"
            fill="#573FE7" />
        <path
            d="M32.0624 5.25C32.138 5.28225 32.2136 5.31451 32.2915 5.34773C34.6863 6.38591 36.7812 7.91469 38.6249 9.75C38.701 9.82553 38.701 9.82553 38.7786 9.90257C40.1271 11.2583 41.2003 12.8465 42.0937 14.5313C42.1492 14.6355 42.1492 14.6355 42.2059 14.7418C43.498 17.2058 44.3394 20.087 44.366 22.8801C44.3669 22.9599 44.3678 23.0396 44.3688 23.1218C44.3852 24.914 44.373 26.6506 43.9687 28.4062C43.9465 28.5026 43.9244 28.5989 43.9016 28.6982C43.2553 31.4047 42.1047 33.9777 40.4062 36.1875C40.3094 36.314 40.3094 36.314 40.2106 36.4431C36.8188 40.7734 31.9516 43.6454 26.4652 44.3203C21.1396 44.8979 15.6332 43.5051 11.4237 40.1313C10.8768 39.6823 10.3541 39.2087 9.84366 38.7188C9.79096 38.6686 9.73825 38.6184 9.68395 38.5668C6.81383 35.8226 4.91826 32.2677 4.03116 28.4062C4.01012 28.3149 3.98907 28.2235 3.96739 28.1293C3.38121 25.4342 3.41283 22.3722 4.03116 19.6875C4.04822 19.6099 4.06527 19.5322 4.08284 19.4522C5.07905 14.9973 7.6534 10.8799 11.2499 8.0625C11.3444 7.98625 11.4389 7.90999 11.5363 7.83142C12.2758 7.24054 13.051 6.74576 13.8749 6.28125C13.9353 6.24658 13.9956 6.21191 14.0578 6.1762C16.3401 4.87275 18.8652 4.08327 21.4687 3.75C21.5356 3.74116 21.6025 3.73233 21.6714 3.72322C25.189 3.31241 28.8166 3.85702 32.0624 5.25ZM17.9999 6.1875C17.9295 6.21102 17.8591 6.23454 17.7865 6.25878C15.9022 6.90444 14.1328 7.87197 12.5624 9.09375C12.5096 9.13463 12.4568 9.17551 12.4025 9.21762C9.99699 11.1071 8.09304 13.5205 6.84366 16.3125C6.81227 16.3826 6.78088 16.4527 6.74854 16.525C6.35486 17.4207 6.03423 18.3257 5.78311 19.2715C5.76153 19.3521 5.73994 19.4327 5.7177 19.5158C5.34676 20.9918 5.1975 22.452 5.2089 23.9707C5.20918 24.0521 5.20947 24.1334 5.20976 24.2173C5.21663 25.5487 5.30688 26.8275 5.62491 28.125C5.65505 28.2503 5.65505 28.2503 5.68579 28.3781C6.84894 33.0773 9.78568 37.3626 13.9287 39.9265C18.3709 42.5947 23.4589 43.554 28.5292 42.3105C30.7788 41.7241 33.003 40.7696 34.8749 39.375C34.9254 39.3375 34.9759 39.3 35.0279 39.2613C39.0766 36.2299 41.8315 31.8779 42.6245 26.8507C42.7077 26.2575 42.766 25.6831 42.7722 25.0844C42.7736 24.9737 42.7736 24.9737 42.775 24.8609C42.8288 19.4438 41.0913 14.6711 37.3154 10.7527C33.9768 7.35472 29.2885 5.27278 24.5099 5.22258C22.2608 5.20894 20.1417 5.46876 17.9999 6.1875Z"
            fill="#573FE7" />
        <path
            d="M23.9298 7.10157C24.0293 7.10148 24.0293 7.10148 24.1308 7.10138C25.2624 7.10309 26.3593 7.17278 27.4688 7.40626C27.543 7.42185 27.6171 7.43744 27.6935 7.4535C30.5434 8.0796 33.2717 9.46401 35.3801 11.4869C35.5565 11.6539 35.7315 11.8092 35.9188 11.9627C36.2716 12.2578 36.5518 12.5834 36.8438 12.9375C36.9224 13.0324 37.0009 13.1272 37.0819 13.225C39.4115 16.0867 40.8616 19.6464 40.9044 23.3555C40.9061 23.4501 40.9077 23.5447 40.9094 23.6422C40.9093 23.7761 40.9093 23.7761 40.9091 23.9128C40.9096 24.0329 40.9096 24.0329 40.91 24.1553C40.867 24.4257 40.7812 24.5526 40.5938 24.75C40.2979 24.8487 40.0912 24.8553 39.7805 24.855C39.6143 24.8552 39.6143 24.8552 39.4447 24.8554C39.323 24.8551 39.2012 24.8547 39.0758 24.8544C38.9465 24.8544 38.8171 24.8544 38.6878 24.8544C38.3364 24.8545 37.9851 24.8539 37.6338 24.8533C37.2666 24.8527 36.8995 24.8526 36.5324 24.8525C35.8372 24.8522 35.1419 24.8515 34.4467 24.8505C33.6552 24.8495 32.8637 24.8489 32.0722 24.8485C30.444 24.8475 28.8158 24.8458 27.1876 24.8438C27.1604 24.9304 27.1604 24.9304 27.1326 25.0188C27.1082 25.0947 27.0837 25.1705 27.0586 25.2487C27.0346 25.3239 27.0107 25.399 26.986 25.4765C26.716 26.1917 25.9885 26.7713 25.3126 27.0938C24.5459 27.4157 23.5923 27.3915 22.8048 27.1465C21.9921 26.8073 21.2618 26.126 20.9063 25.3125C20.8735 25.1566 20.842 25.0004 20.8126 24.8438C20.7454 24.844 20.6782 24.8443 20.6089 24.8445C18.9736 24.8508 17.3383 24.8554 15.703 24.8583C14.9122 24.8598 14.1214 24.8618 13.3306 24.865C12.6413 24.8678 11.952 24.8696 11.2628 24.8702C10.8978 24.8706 10.5328 24.8714 10.1678 24.8735C9.82427 24.8754 9.48071 24.876 9.13713 24.8756C8.95103 24.8757 8.76493 24.8772 8.57884 24.8788C8.46776 24.8784 8.35668 24.878 8.24224 24.8776C8.0977 24.878 8.0977 24.878 7.95025 24.8784C7.64371 24.838 7.46711 24.7439 7.21884 24.5625C6.43578 22.9964 7.45899 20.0153 7.96884 18.4688C8.71155 16.3091 9.88399 14.356 11.4325 12.679C11.5986 12.4977 11.7561 12.3129 11.9122 12.1231C12.2222 11.7609 12.57 11.4588 12.9376 11.1563C13.0302 11.0789 13.1227 11.0016 13.2181 10.9219C15.6541 8.9233 18.546 7.68091 21.6563 7.21876C21.7204 7.20909 21.7845 7.19942 21.8505 7.18946C22.5404 7.09899 23.2351 7.10217 23.9298 7.10157ZM20.8126 9.00001C20.7355 9.01814 20.6585 9.03626 20.5791 9.05494C18.2134 9.63265 15.9839 10.6522 14.1563 12.2813C14.0768 12.3506 13.9973 12.42 13.9154 12.4915C13.68 12.6995 13.4489 12.9112 13.2188 13.125C13.1507 13.187 13.0825 13.249 13.0123 13.3129C10.5582 15.639 9.08201 19.0804 8.71884 22.4063C8.71884 22.6847 8.71884 22.9631 8.71884 23.25C12.7098 23.25 16.7007 23.25 20.8126 23.25C20.9363 22.9406 21.0601 22.6313 21.1876 22.3125C21.1079 22.2331 21.0283 22.1536 20.9462 22.0718C20.1968 21.3243 19.4477 20.5766 18.6989 19.8286C18.3138 19.4441 17.9287 19.0596 17.5434 18.6753C17.1717 18.3048 16.8004 17.9339 16.4291 17.563C16.2872 17.4212 16.1452 17.2795 16.0031 17.138C15.8047 16.9402 15.6065 16.7421 15.4084 16.544C15.3492 16.4851 15.2899 16.4261 15.2288 16.3654C14.7228 15.8581 14.7228 15.8581 14.7071 15.4277C14.7188 15.0938 14.7188 15.0938 14.8126 14.8125C15.1007 14.7332 15.3575 14.7 15.6563 14.7188C15.8189 14.8148 15.8189 14.8148 15.9766 14.963C16.0413 15.0235 16.1061 15.084 16.1728 15.1463C16.2884 15.2595 16.2884 15.2595 16.4063 15.375C16.4524 15.42 16.4984 15.4649 16.5459 15.5112C16.9509 15.9077 17.3511 16.309 17.7511 16.7106C17.8803 16.84 18.0095 16.9694 18.1388 17.0987C18.4768 17.4371 18.8146 17.7758 19.1523 18.1145C19.4978 18.461 19.8436 18.8072 20.1893 19.1534C20.8661 19.8312 21.5426 20.5092 22.2188 21.1875C22.2764 21.168 22.334 21.1484 22.3933 21.1283C22.469 21.1027 22.5448 21.0772 22.6228 21.0509C22.6978 21.0256 22.7727 21.0002 22.85 20.9741C23.7069 20.7007 24.6456 20.7286 25.4609 21.1146C26.4294 21.6591 26.7099 22.199 27.1876 23.25C31.1785 23.25 35.1695 23.25 39.2813 23.25C39.2813 19.5152 37.5125 15.9737 34.9688 13.3125C34.9083 13.246 34.8477 13.1796 34.7854 13.1111C32.7904 10.9979 30.0066 9.60849 27.1876 9.00001C27.1257 8.98613 27.0639 8.97224 27.0001 8.95794C25.0074 8.5255 22.7984 8.53127 20.8126 9.00001ZM22.5122 23.1859C22.2679 23.5502 22.2583 23.9524 22.3126 24.375C22.5047 24.9523 22.8023 25.2955 23.3307 25.6007C23.7021 25.7614 24.0732 25.7451 24.4688 25.6875C24.9984 25.4769 25.3211 25.1581 25.5938 24.6563C25.748 24.1937 25.7429 23.7877 25.588 23.332C25.2712 22.862 24.8421 22.4563 24.2813 22.3125C23.5152 22.2104 22.9752 22.6194 22.5122 23.1859Z"
            fill="#573FE7" />
        <path
            d="M26.6185 32.1339C26.6923 32.1332 26.766 32.1324 26.842 32.1316C26.9982 32.1303 27.1544 32.1293 27.3106 32.1286C27.5493 32.127 27.7879 32.1228 28.0266 32.1187C28.1783 32.1178 28.33 32.117 28.4818 32.1163C28.5531 32.1147 28.6244 32.113 28.6978 32.1114C29.0295 32.1127 29.213 32.1279 29.4801 32.3323C29.6541 32.5711 29.7118 32.7037 29.7188 33C29.5054 33.5286 29.5054 33.5286 29.2501 33.6562C29.039 33.6643 28.8277 33.6663 28.6165 33.6654C28.5028 33.6652 28.3891 33.6649 28.2719 33.6647C28.1268 33.6638 27.9816 33.663 27.8321 33.6621C27.3719 33.6602 26.9117 33.6582 26.4376 33.6562C26.4376 35.1412 26.4376 36.6262 26.4376 38.1562C27.4895 38.1562 28.5413 38.1562 29.6251 38.1562C29.6251 37.6612 29.6251 37.1662 29.6251 36.6562C29.4472 36.664 29.2693 36.6717 29.086 36.6797C28.5619 36.7025 28.5619 36.7025 28.2789 36.4907C28.1166 36.2697 28.074 36.1758 28.0782 35.9062C28.0772 35.8444 28.0763 35.7825 28.0753 35.7187C28.1521 35.4295 28.255 35.3293 28.5001 35.1562C28.7786 35.1013 29.0491 35.1039 29.3321 35.1094C29.4062 35.1079 29.4803 35.1065 29.5566 35.105C30.0601 35.1083 30.3525 35.1976 30.7501 35.5312C31.2203 36.154 31.2408 36.6247 31.2481 37.377C31.2509 37.4678 31.2536 37.5586 31.2564 37.6522C31.2616 38.2445 31.1899 38.6962 30.8438 39.1875C30.4884 39.5175 30.2582 39.6672 29.7779 39.6714C29.6931 39.6723 29.6082 39.6732 29.5209 39.6741C29.429 39.6745 29.3371 39.6749 29.2424 39.6753C29.1481 39.6758 29.0537 39.6764 28.9565 39.6769C28.7566 39.6778 28.5566 39.6784 28.3567 39.6788C28.0511 39.6797 27.7456 39.6826 27.4401 39.6855C27.2459 39.6862 27.0518 39.6867 26.8576 39.687C26.7663 39.6882 26.675 39.6893 26.5809 39.6905C26.0223 39.6887 25.6761 39.6366 25.2613 39.2344C24.9274 38.8181 24.8324 38.5522 24.8287 38.0263C24.8278 37.923 24.8269 37.8198 24.826 37.7134C24.8254 37.5459 24.8254 37.5459 24.8248 37.3751C24.8243 37.2603 24.8237 37.1455 24.8232 37.0273C24.8223 36.7841 24.8217 36.541 24.8213 36.2979C24.8204 35.9263 24.8175 35.5547 24.8145 35.1832C24.8139 34.947 24.8134 34.7109 24.8131 34.4747C24.8119 34.3637 24.8108 34.2526 24.8096 34.1382C24.8112 33.519 24.8254 33.0397 25.269 32.5646C25.7497 32.197 26.0237 32.1397 26.6185 32.1339Z"
            fill="#573FE7" />
        <path
            d="M18.2151 32.1382C18.2983 32.1367 18.3815 32.1352 18.4673 32.1336C18.8477 32.1294 19.228 32.1256 19.6084 32.1234C19.8092 32.1219 20.01 32.1193 20.2108 32.1157C20.5 32.1106 20.7891 32.1086 21.0783 32.1072C21.213 32.104 21.213 32.104 21.3503 32.1007C21.9718 32.1027 21.9718 32.1027 22.2753 32.3761C22.4362 32.6821 22.4631 32.8463 22.4062 33.1875C22.268 33.4366 22.268 33.4366 22.0312 33.6563C21.7519 33.7213 21.4802 33.7109 21.1948 33.702C21.1142 33.7014 21.0335 33.7007 20.9505 33.7C20.6934 33.6974 20.4366 33.6915 20.1796 33.6855C20.0052 33.6832 19.8308 33.6811 19.6563 33.6791C19.2291 33.674 18.8021 33.6659 18.375 33.6563C18.375 34.1513 18.375 34.6463 18.375 35.1563C18.5963 35.1519 18.8177 35.1475 19.0459 35.1431C19.2624 35.1401 19.479 35.1379 19.6956 35.1357C19.8451 35.1338 19.9946 35.1312 20.144 35.128C21.7815 35.0931 21.7815 35.0931 22.4989 35.6851C22.9937 36.2865 23.2149 36.8527 23.1895 37.6384C23.1085 38.2136 22.8273 38.7886 22.4062 39.1875C21.6438 39.7502 20.8417 39.7229 19.9366 39.7071C19.6977 39.7031 19.4591 39.7032 19.2202 39.7039C19.0676 39.7029 18.915 39.7017 18.7624 39.7002C18.6914 39.7002 18.6204 39.7002 18.5473 39.7001C18.2511 39.6935 18.0333 39.6742 17.7703 39.5327C17.5367 39.2793 17.537 39.0555 17.5312 38.7188C17.6574 38.4424 17.7267 38.2929 18 38.1563C18.2054 38.144 18.4112 38.1372 18.617 38.1332C18.7424 38.1301 18.8679 38.127 18.9933 38.1238C19.1908 38.1194 19.3883 38.1152 19.5858 38.1116C19.7765 38.1078 19.9673 38.103 20.158 38.098C20.3293 38.0945 20.3293 38.0945 20.504 38.0909C20.8061 38.0631 21.0143 38.0169 21.2812 37.875C21.4959 37.6111 21.4959 37.6111 21.4628 37.3125C21.4009 37.022 21.4009 37.022 21.179 36.8752C20.8368 36.7181 20.5795 36.7154 20.2034 36.7152C20.0665 36.7136 19.9296 36.7119 19.7927 36.7103C19.5788 36.7093 19.3649 36.709 19.1509 36.7091C18.9431 36.7088 18.7354 36.7062 18.5277 36.7035C18.404 36.7033 18.2803 36.7031 18.1529 36.703C17.7568 36.6486 17.5585 36.531 17.25 36.2813C16.7797 35.6585 16.7593 35.1878 16.7519 34.4355C16.7492 34.3447 16.7465 34.2539 16.7437 34.1603C16.7385 33.568 16.8101 33.1163 17.1562 32.625C17.5079 32.2985 17.7396 32.146 18.2151 32.1382Z"
            fill="#573FE7" />
    </g>
    <defs>
        <clipPath id="clip0_88_2259">
            <rect width="48" height="48" fill="white" />
        </clipPath>
    </defs>
</svg>