<svg width="49" height="49" viewBox="0 0 49 49" fill="none" xmlns="http://www.w3.org/2000/svg">
    <g clipPath="url(#clip0_88_2266)">
        <path
            d="M31.7187 3.60009C32.117 3.86824 32.3766 4.2048 32.6445 4.59619C32.726 4.71375 32.8075 4.83131 32.8891 4.94885C32.9487 5.0352 32.9487 5.0352 33.0094 5.1233C33.1133 5.27102 33.2221 5.41525 33.3315 5.55895C33.5856 5.89516 33.763 6.14512 33.8574 6.55908C33.7457 7.03175 33.5092 7.34049 33.2187 7.72509C33.126 7.85088 33.0333 7.97674 32.9407 8.10266C32.7439 8.36881 32.5466 8.63467 32.3475 8.89916C32.3054 8.95516 32.2633 9.01116 32.22 9.06886C31.8717 9.49976 31.8717 9.49976 31.4433 9.54736C31.1649 9.53559 31.0731 9.51344 30.8339 9.354C30.6483 9.07179 30.5937 8.90848 30.5937 8.56884C30.7962 8.14133 31.0476 7.81218 31.3437 7.44384C30.2711 7.43729 29.1985 7.43231 28.1259 7.42927C27.6277 7.42781 27.1295 7.42584 26.6313 7.42262C26.1493 7.41954 25.6672 7.41788 25.1852 7.41716C25.0026 7.41664 24.8199 7.41564 24.6373 7.41411C22.113 7.39376 19.8332 7.89515 17.9448 9.67516C16.556 11.1448 15.7253 13.0575 15.6578 15.0837C15.6539 15.1961 15.6499 15.3085 15.6459 15.4243C15.6422 15.5403 15.6385 15.6563 15.6347 15.7759C15.6307 15.8941 15.6266 16.0123 15.6224 16.134C15.6125 16.4248 15.603 16.7156 15.5937 17.0063C15.6513 17.034 15.7088 17.0616 15.7682 17.0901C17.4586 17.9646 18.3943 20.0819 18.968 21.7887C19.1001 22.3114 19.168 22.8485 19.25 23.3813C23.2409 23.3813 27.2318 23.3813 31.3437 23.3813C31.1271 23.072 30.9106 22.7626 30.6875 22.4438C30.5937 21.8813 30.5937 21.8813 30.705 21.6235C30.8853 21.3998 30.9749 21.3037 31.25 21.2251C31.595 21.2324 31.761 21.2739 32.0227 21.5023C32.3717 21.867 32.6593 22.2821 32.955 22.6899C33.0139 22.7704 33.0729 22.8509 33.1336 22.9338C33.8367 23.8965 33.8367 23.8965 33.8234 24.3903C33.7394 24.8079 33.465 25.1152 33.207 25.4438C33.1536 25.5147 33.1002 25.5855 33.0451 25.6584C32.9383 25.7998 32.8304 25.9404 32.7217 26.0803C32.6154 26.2187 32.5114 26.3589 32.4098 26.5007C32.3618 26.5677 32.3138 26.6346 32.2644 26.7036C32.2013 26.7933 32.2013 26.7933 32.137 26.8849C31.9776 27.0625 31.8479 27.1417 31.625 27.2251C31.3102 27.2085 31.0658 27.1896 30.7929 27.0259C30.6224 26.7416 30.5423 26.52 30.5937 26.1938C30.7953 25.8004 31.0287 25.3839 31.3437 25.0688C27.3528 25.0688 23.3618 25.0688 19.25 25.0688C19.1571 25.5948 19.0643 26.1207 18.9687 26.6626C18.3689 28.4898 17.3899 30.3004 15.7812 31.4438C15.7193 31.4438 15.6575 31.4438 15.5937 31.4438C15.6261 33.9545 15.8337 36.1856 17.4687 38.1938C17.5115 38.2519 17.5543 38.3099 17.5983 38.3696C18.7414 39.8481 20.6951 40.6977 22.498 40.9629C22.9215 41.0141 23.3397 41.0189 23.7659 41.017C23.8895 41.017 23.8895 41.017 24.0156 41.017C24.2854 41.017 24.5553 41.0162 24.8251 41.0155C25.0132 41.0153 25.2013 41.0152 25.3894 41.0151C25.8826 41.0147 26.3758 41.0138 26.869 41.0128C27.373 41.0118 27.877 41.0114 28.3811 41.0109C29.3686 41.0099 30.3562 41.0083 31.3437 41.0063C31.2976 40.9495 31.2514 40.8927 31.2039 40.8341C31.1439 40.759 31.0839 40.6839 31.0222 40.6064C30.9625 40.5322 30.9028 40.458 30.8413 40.3815C30.6331 40.0853 30.5798 39.8669 30.5937 39.5063C30.7199 39.23 30.7892 39.0805 31.0625 38.9438C31.3648 38.8917 31.5236 38.868 31.8125 38.9438C32.1181 39.181 32.3337 39.4778 32.5625 39.7876C32.602 39.8408 32.6415 39.894 32.6822 39.9488C32.9621 40.3277 33.2351 40.7105 33.5 41.1001C33.5554 41.177 33.6109 41.2538 33.668 41.333C33.8238 41.6576 33.8272 41.8684 33.7812 42.2251C33.6503 42.4577 33.5279 42.6451 33.3652 42.852C33.3231 42.908 33.2811 42.9639 33.2377 43.0215C33.1506 43.1371 33.0628 43.2522 32.9744 43.3669C32.8483 43.5316 32.7254 43.6982 32.6035 43.8661C32.0413 44.635 32.0413 44.635 31.7187 44.8501C31.3678 44.8959 31.2011 44.8761 30.8925 44.6978C30.6398 44.4233 30.5937 44.2843 30.5937 43.9126C30.7237 43.5732 30.9094 43.2969 31.1203 43.004C31.1622 42.9457 31.2042 42.8874 31.2473 42.8273C31.295 42.7612 31.295 42.7612 31.3437 42.6938C31.2408 42.6945 31.1379 42.6951 31.0318 42.6957C30.0542 42.7015 29.0766 42.7057 28.099 42.7084C27.5966 42.7099 27.0942 42.7118 26.5918 42.7151C26.1055 42.7182 25.6192 42.7198 25.1329 42.7205C24.9488 42.721 24.7648 42.722 24.5807 42.7236C21.793 42.7459 19.2041 42.189 17.0937 40.2563C16.9739 40.1479 16.9739 40.1479 16.8516 40.0373C15.2023 38.4716 14.0684 36.1531 13.9931 33.8613C13.9852 33.399 13.99 32.9373 14 32.4751C13.934 32.5057 13.868 32.5362 13.8 32.5677C12.8192 33.0018 11.7912 33.257 10.7187 33.3188C10.6005 33.3263 10.6005 33.3263 10.4799 33.3339C8.10685 33.4092 5.82848 32.5511 4.06245 30.9751C3.98559 30.9071 3.90873 30.839 3.82954 30.7689C2.75887 29.7631 2.02113 28.5085 1.5312 27.1313C1.51016 27.0723 1.48912 27.0132 1.46744 26.9524C0.730197 24.7559 1.02494 22.233 2.00801 20.1678C3.14542 17.8959 5.16592 16.284 7.55464 15.4888C9.59489 14.891 11.9153 14.9831 13.8553 15.896C13.903 15.9221 13.9508 15.9482 14 15.9751C13.9967 15.8785 13.9934 15.782 13.9901 15.6825C13.9259 12.9486 14.8112 10.6194 16.6663 8.60107C17.1718 8.07581 17.6994 7.64886 18.3125 7.25634C18.38 7.20945 18.4476 7.16256 18.5172 7.11425C19.0121 6.78829 19.5372 6.56111 20.0878 6.34814C20.1874 6.30799 20.1874 6.30799 20.2889 6.26702C21.747 5.72847 23.3194 5.71607 24.8526 5.72888C25.0413 5.7294 25.2301 5.7298 25.4188 5.73008C25.909 5.73114 26.3993 5.73389 26.8895 5.73703C27.3924 5.73994 27.8952 5.7412 28.3981 5.74261C29.38 5.7456 30.3618 5.75038 31.3437 5.75634C31.2743 5.66462 31.2743 5.66462 31.2034 5.57104C31.1434 5.4891 31.0833 5.40717 31.0214 5.32275C30.9616 5.24226 30.9018 5.16178 30.8402 5.07885C30.6727 4.79365 30.6168 4.58495 30.5937 4.25634C30.8374 3.72011 31.13 3.52944 31.7187 3.60009ZM5.37495 18.5063C5.31368 18.553 5.25241 18.5996 5.18928 18.6477C4.22569 19.4132 3.55487 20.5572 3.12495 21.6938C3.08628 21.7961 3.04761 21.8983 3.00777 22.0037C2.39688 23.9084 2.66088 25.9507 3.56212 27.7078C4.56222 29.5537 6.09853 30.7813 8.0937 31.4438C8.64688 31.6021 9.20805 31.6827 9.7812 31.7251C9.87257 31.7327 9.87257 31.7327 9.96577 31.7405C11.8352 31.8196 13.7762 31.0671 15.1484 29.8208C16.6366 28.4142 17.5372 26.6226 17.6774 24.5704C17.7323 22.3776 16.9329 20.4535 15.4355 18.8579C13.9977 17.487 12.0175 16.68 10.0255 16.7108C8.28195 16.8128 6.71165 17.3736 5.37495 18.5063Z"
            fill="#573FE7" />
        <path
            d="M45.7161 37.308C46.824 38.257 47.7316 39.5616 47.8645 41.051C47.9452 42.8944 47.6389 44.3488 46.4316 45.8052C45.5345 46.7543 44.2507 47.4875 42.933 47.5854C41.0397 47.6325 39.5468 47.3618 38.1201 46.0073C37.006 44.8627 36.4174 43.515 36.3652 41.9145C36.4044 40.2625 37.0212 38.8116 38.1875 37.6313C40.3386 35.8553 43.4435 35.4803 45.7161 37.308ZM38.9375 39.2251C38.2534 40.153 37.9135 41.1672 38 42.3188C38.1866 43.5192 38.7645 44.5476 39.7402 45.2837C40.7418 45.9479 41.7907 46.1121 42.9688 45.9751C44.1078 45.7287 45.0042 45.0257 45.6875 44.1001C46.2735 43.0468 46.4061 41.9651 46.1925 40.7815C45.8493 39.6294 45.1195 38.7987 44.0938 38.1938C42.2507 37.2816 40.3178 37.7477 38.9375 39.2251Z"
            fill="#573FE7" />
        <path
            d="M45.5937 1.91261C46.7896 2.79674 47.5821 4.1044 47.8437 5.56886C47.9696 7.26217 47.785 8.75221 46.7122 10.1307C45.5683 11.452 44.2083 12.1875 42.459 12.3485C40.823 12.4062 39.3944 11.8385 38.1538 10.7822C37.0053 9.64727 36.4163 8.17114 36.377 6.57081C36.406 4.96181 36.9762 3.57515 38.1102 2.43995C40.1898 0.507029 43.2631 0.285396 45.5937 1.91261ZM39.0009 3.8451C38.2533 4.82207 37.904 5.83843 38 7.06886C38.2043 8.26696 38.7904 9.31013 39.7864 10.0183C40.8448 10.658 41.955 10.8752 43.1562 10.6196C44.3447 10.2958 45.2619 9.53204 45.875 8.47511C46.3625 7.48006 46.4501 6.24959 46.0977 5.19386C45.8916 4.71676 45.6322 4.29047 45.3125 3.88136C45.2677 3.82359 45.2228 3.76582 45.1766 3.70631C44.5684 3.01683 43.5381 2.51189 42.623 2.45277C41.1799 2.41517 39.9984 2.72351 39.0009 3.8451Z"
            fill="#573FE7" />
        <path
            d="M45.8573 19.7427C46.6178 20.3742 47.1919 21.2516 47.5624 22.1626C47.5923 22.2335 47.6221 22.3045 47.6529 22.3776C48.0888 23.6412 47.9969 25.2576 47.4687 26.4751C47.4347 26.5571 47.4008 26.6392 47.3658 26.7237C46.7253 28.1328 45.6012 29.0139 44.2156 29.6446C42.6612 30.2057 40.9873 30.0577 39.4999 29.3813C38.0342 28.6104 37.1316 27.376 36.5937 25.8188C36.1702 24.4137 36.3824 22.8837 36.9921 21.5649C37.8059 20.0862 39.0822 19.0876 40.6894 18.606C42.5505 18.2043 44.3204 18.6456 45.8573 19.7427ZM38.9239 21.569C38.2075 22.4694 37.8965 23.5567 37.9999 24.6938C38.171 25.8543 38.7544 26.8774 39.6874 27.6001C40.7853 28.2574 41.826 28.523 43.1009 28.2922C44.0999 28.0231 45.0144 27.4413 45.5937 26.5688C46.2398 25.4371 46.4672 24.3124 46.1679 23.0298C45.7656 21.9077 45.0114 20.9832 43.9355 20.4421C42.104 19.6845 40.2765 20.157 38.9239 21.569Z"
            fill="#573FE7" />
    </g>
    <defs>
        <clipPath id="clip0_88_2266">
            <rect width="48" height="48" fill="white" transform="translate(0.5 0.225098)" />
        </clipPath>
    </defs>
</svg>