<svg width="48" height="49" viewBox="0 0 48 49" fill="none" xmlns="http://www.w3.org/2000/svg">
    <g clipPath="url(#clip0_88_2320)">
        <path
            d="M28.3868 1.73464C28.5871 1.88834 28.7785 2.04694 28.9687 2.21291C29.0596 2.28542 29.1504 2.35793 29.2441 2.43264C30.6562 3.61145 31.4883 5.58294 31.6713 7.37958C31.7102 8.03314 31.6968 8.6893 31.6933 9.34377C31.6928 9.49801 31.6924 9.65224 31.692 9.80648C31.691 10.1815 31.6894 10.5566 31.6874 10.9317C31.8423 10.9304 31.8423 10.9304 32.0004 10.9291C32.9073 10.9359 33.5392 11.3292 34.1927 11.9219C34.3124 12.0567 34.3124 12.0567 34.3124 12.2442C36.0074 11.8695 36.0074 11.8695 37.3359 10.8522C37.5825 10.4443 37.7762 10.0163 37.958 9.57613C38.1118 9.22537 38.3143 8.91039 38.5195 8.58791C38.7094 8.30339 38.7094 8.30339 38.8124 8.02541C38.7595 7.77536 38.7595 7.77536 38.6249 7.55666C38.2338 6.81299 38.1161 6.16744 38.3085 5.33413C38.5475 4.63956 38.9673 4.11613 39.6199 3.77077C40.3768 3.4646 41.0571 3.39987 41.83 3.67776C42.5327 3.99495 43.0011 4.41249 43.3231 5.12173C43.5384 5.84364 43.5285 6.63098 43.2187 7.32229C42.8325 7.97791 42.2642 8.46537 41.5312 8.68166C41.439 8.67986 41.3467 8.67807 41.2517 8.67622C40.9156 8.67027 40.6374 8.68723 40.3124 8.77541C40.0063 9.07263 39.8566 9.41985 39.6855 9.80666C39.5828 10.0127 39.48 10.2188 39.3771 10.4248C39.2424 10.7076 39.1094 10.9909 38.9795 11.2759C38.5604 12.1837 38.2013 12.7002 37.2421 13.0645C37.0001 13.1481 36.7575 13.2257 36.5123 13.299C36.236 13.3829 35.9663 13.4805 35.6958 13.5813C35.4546 13.67 35.2114 13.7535 34.9687 13.8379C34.9377 14.3329 34.9068 14.8279 34.8749 15.3379C35.4152 15.3525 35.9549 15.3594 36.4954 15.3597C36.6787 15.3608 36.862 15.3639 37.0453 15.3691C38.2886 15.4204 38.2886 15.4204 39.356 14.8655C39.8141 14.4039 39.8141 14.4039 39.949 13.7746C39.9125 13.5584 39.8675 13.3435 39.8158 13.1304C39.7077 12.5991 39.8067 12.1697 40.0312 11.6817C40.4509 11.0551 40.9643 10.5312 41.7187 10.3692C42.7006 10.262 43.3712 10.4051 44.1796 10.9492C44.725 11.507 45.0011 12.1329 45.0292 12.9121C45.0159 13.638 44.7772 14.2805 44.2851 14.8164C43.6265 15.4082 42.961 15.5688 42.0897 15.5569C41.7646 15.52 41.4681 15.435 41.1562 15.3379C41.1151 15.3795 41.0739 15.4211 41.0316 15.464C40.8448 15.6527 40.6577 15.841 40.4706 16.0293C40.4059 16.0948 40.3412 16.1603 40.2745 16.2278C40.212 16.2906 40.1494 16.3535 40.085 16.4182C40.0276 16.4762 39.9701 16.5341 39.9109 16.5938C39.6074 16.8773 39.4209 16.955 39.0151 16.9529C38.8771 16.9529 38.8771 16.9529 38.7364 16.9529C38.5879 16.9515 38.5879 16.9515 38.4363 16.95C38.3348 16.9497 38.2332 16.9494 38.1286 16.9492C37.8038 16.9481 37.479 16.9458 37.1542 16.9434C36.9342 16.9424 36.7142 16.9416 36.4941 16.9408C35.9544 16.9389 35.4147 16.9352 34.8749 16.9317C34.8749 17.7979 34.8749 18.6642 34.8749 19.5567C36.5456 19.5567 38.2162 19.5567 39.9374 19.5567C39.9993 19.371 40.0612 19.1854 40.1249 18.9942C40.5021 18.3609 41.1263 18.0173 41.8198 17.8113C42.465 17.6828 43.0944 17.7826 43.6874 18.0567C44.382 18.5295 44.8288 19.1056 44.9999 19.9317C45.0938 20.8089 44.8757 21.5266 44.3261 22.2168C43.8333 22.7425 43.167 22.992 42.457 23.0489C41.6581 22.9973 40.9799 22.7516 40.4062 22.1817C39.9374 21.5795 39.9374 21.5795 39.9374 21.1504C38.2668 21.1504 36.5962 21.1504 34.8749 21.1504C34.8749 22.0476 34.8749 22.9448 34.8749 23.8692C35.1978 23.8615 35.5208 23.8539 35.8534 23.8461C36.1678 23.841 36.4821 23.837 36.7964 23.8331C37.0141 23.8298 37.2318 23.8254 37.4494 23.8197C37.7632 23.8117 38.0767 23.808 38.3906 23.8051C38.5355 23.8 38.5355 23.8 38.6833 23.7948C39.1979 23.7945 39.498 23.8415 39.8937 24.1845C40.0042 24.296 40.1127 24.4096 40.2187 24.5254C40.3111 24.6155 40.4039 24.7052 40.497 24.7946C40.6145 24.9137 40.6145 24.9137 40.7343 25.0352C40.8145 25.1163 40.8948 25.1974 40.9775 25.2809C41.0364 25.341 41.0954 25.401 41.1562 25.4629C41.2393 25.432 41.3225 25.401 41.4081 25.3692C42.1208 25.1715 42.8733 25.1604 43.5468 25.4805C44.2036 25.8588 44.6606 26.373 44.9296 27.086C45.1169 28.0069 44.9437 28.7549 44.4726 29.5703C43.7682 30.2191 43.0773 30.4678 42.1336 30.4573C41.4104 30.3996 40.8431 30.1244 40.3564 29.5861C39.9502 29.0383 39.7176 28.3983 39.7499 27.7129C39.8228 27.3311 39.9197 26.9601 40.0312 26.5879C39.9759 26.5658 39.9206 26.5437 39.8636 26.5209C39.6123 26.3749 39.5096 26.2058 39.3372 25.973C38.8224 25.4464 38.3033 25.461 37.6062 25.4494C37.3344 25.4492 37.0628 25.453 36.7909 25.4571C36.6051 25.4568 36.4192 25.4561 36.2334 25.455C35.7803 25.4526 35.3283 25.4579 34.8749 25.4629C34.8749 26.0198 34.8749 26.5767 34.8749 27.1504C34.9903 27.1739 35.1058 27.1973 35.2247 27.2215C35.7856 27.3464 36.3276 27.5213 36.873 27.7012C36.9733 27.733 37.0737 27.7648 37.1771 27.7975C37.2736 27.8293 37.3701 27.8611 37.4695 27.8938C37.5565 27.9221 37.6434 27.9503 37.733 27.9795C38.2129 28.2003 38.4222 28.5682 38.6681 29.0203C38.6975 29.0737 38.7268 29.1271 38.7571 29.1822C38.8504 29.3523 38.9428 29.5228 39.0351 29.6934C39.1566 29.9164 39.2786 30.1393 39.4006 30.3621C39.459 30.4691 39.5175 30.576 39.5777 30.6863C39.7803 31.0484 39.9944 31.4023 40.2145 31.754C40.3124 31.9317 40.3124 31.9317 40.3124 32.1192C40.4458 32.0902 40.4458 32.0902 40.582 32.0606C41.2121 31.9753 41.7929 32.0986 42.3105 32.4707C42.8023 32.8802 43.2619 33.351 43.4062 33.9942C43.486 34.9114 43.4479 35.6626 42.8788 36.4024C42.3854 36.9401 41.7699 37.2261 41.0492 37.2945C40.2462 37.3123 39.687 37.1301 39.0644 36.6133C38.4626 36.0331 38.2389 35.4749 38.2031 34.6446C38.2238 34.0224 38.4444 33.5678 38.7422 33.0339C38.8407 32.7701 38.8407 32.7701 38.7106 32.5003C38.6531 32.4008 38.5956 32.3014 38.5363 32.199C38.5057 32.145 38.4751 32.0911 38.4436 32.0355C38.3455 31.8632 38.245 31.6924 38.1445 31.5215C38.0789 31.4073 38.0134 31.2931 37.9482 31.1787C37.8232 30.9599 37.696 30.7429 37.5672 30.5262C37.4062 30.2442 37.4062 30.2442 37.3191 30.0346C37.1978 29.7432 37.0579 29.6018 36.7806 29.4581C36.4612 29.3306 36.1404 29.2227 35.8124 29.1192C35.6453 29.0621 35.6453 29.0621 35.4748 29.0038C34.8531 28.762 34.8531 28.762 34.2187 28.8379C34.064 28.956 34.064 28.956 33.9199 29.1016C33.224 29.7241 32.4371 29.877 31.5274 29.8988C31.4254 29.9017 31.4254 29.9017 31.3213 29.9047C31.1055 29.9108 30.8896 29.9164 30.6738 29.9219C30.5268 29.9259 30.3799 29.93 30.233 29.9342C29.8741 29.9442 29.5151 29.9537 29.1562 29.9629C29.2166 30.0348 29.277 30.1067 29.3393 30.1808C29.5346 30.4361 29.589 30.5863 29.6249 30.9004C29.675 30.8858 29.725 30.8712 29.7765 30.8561C30.6266 30.634 31.3456 30.6987 32.1243 31.1194C32.4964 31.384 32.7756 31.7225 32.9999 32.1192C32.9999 32.212 32.9999 32.3048 32.9999 32.4004C33.0781 32.3847 33.1563 32.369 33.2369 32.3528C34.1252 32.192 34.7291 32.1747 35.5077 32.6524C36.0747 33.059 36.38 33.5094 36.5624 34.1817C36.5906 34.5064 36.5909 34.83 36.5906 35.1558C36.5912 35.2504 36.5917 35.345 36.5922 35.4425C36.5933 35.7488 36.5928 36.0551 36.5917 36.3614C36.5915 36.5175 36.5915 36.5175 36.5912 36.6768C36.5836 39.4266 36.5389 42.6821 34.9394 45.0508C34.5725 45.6728 34.6256 46.3865 34.6313 47.0886C34.6312 47.1836 34.6311 47.2787 34.631 47.3766C34.6327 47.4623 34.6343 47.5481 34.6359 47.6364C34.5791 47.9495 34.4641 48.0457 34.2187 48.2442C33.9759 48.2914 33.9759 48.2914 33.6956 48.2918C33.5359 48.2934 33.5359 48.2934 33.373 48.295C33.1984 48.2938 33.1984 48.2938 33.0203 48.2927C32.8359 48.2937 32.8359 48.2937 32.6478 48.2947C32.311 48.2964 31.9742 48.2957 31.6373 48.2945C31.2848 48.2936 30.9323 48.2945 30.5797 48.2951C29.9877 48.2957 29.3957 48.2948 28.8037 48.2931C28.1192 48.291 27.4348 48.2917 26.7504 48.2937C26.1627 48.2954 25.5751 48.2957 24.9874 48.2947C24.6364 48.2941 24.2855 48.294 23.9345 48.2953C23.5433 48.2966 23.1521 48.2948 22.7609 48.2927C22.6444 48.2934 22.528 48.2942 22.4081 48.295C22.3016 48.2939 22.1952 48.2929 22.0855 48.2918C21.993 48.2916 21.9005 48.2915 21.8052 48.2914C21.4933 48.2307 21.3814 48.1162 21.1874 47.8692C21.1422 47.6094 21.1422 47.6094 21.1435 47.3111C21.1424 47.2015 21.1414 47.0919 21.1403 46.979C21.1404 46.8628 21.1405 46.7467 21.1406 46.627C21.1214 45.6042 21.0624 44.711 20.7187 43.7442C20.6809 43.636 20.643 43.5278 20.6041 43.4164C20.0594 42.0438 19.2264 40.7882 18.4687 39.5254C17.4812 37.8781 16.5239 36.2059 15.7265 34.4571C15.6929 34.3841 15.6593 34.3112 15.6247 34.2361C15.2312 33.3473 15.0537 32.4863 15.3453 31.5351C15.5983 30.9537 16.0619 30.5086 16.6277 30.228C17.3195 30.0108 18.1031 30.0667 18.7452 30.4013C19.8372 31.1064 20.5892 32.2441 21.3749 33.2442C21.4059 32.1304 21.4368 31.0167 21.4687 29.8692C20.8455 29.8741 20.8455 29.8741 20.2096 29.879C19.8761 29.8809 19.5426 29.8824 19.2091 29.8837C18.8582 29.8852 18.5074 29.8872 18.1566 29.8904C17.818 29.8935 17.4794 29.8951 17.1408 29.8958C17.0123 29.8964 16.8838 29.8974 16.7554 29.8989C15.8633 29.9091 14.9311 29.903 14.2089 29.3067C14.1221 29.2371 14.1221 29.2371 14.0335 29.166C13.8808 29.0306 13.736 28.8904 13.5937 28.7442C13.3575 28.8023 13.125 28.8656 12.892 28.9361C12.5624 29.0254 12.5624 29.0254 12.1918 29.0738C11.5698 29.1835 11.1441 29.3542 10.755 29.8726C10.3165 30.5528 9.95975 31.2827 9.61301 32.0128C9.46868 32.3067 9.46868 32.3067 9.30604 32.5667C9.15982 32.7681 9.15982 32.7681 9.24016 32.9864C9.31634 33.1321 9.39313 33.2775 9.47198 33.4218C9.81127 34.0967 9.86542 34.7332 9.68804 35.47C9.4346 36.1919 9.00283 36.6765 8.3261 37.0293C7.67736 37.3332 7.01023 37.3723 6.3222 37.1699C5.55722 36.8829 5.04964 36.4108 4.68743 35.6817C4.47389 35.041 4.48532 34.1549 4.74016 33.5254C5.09638 32.8617 5.65571 32.3546 6.37493 32.1192C6.83009 32.032 7.2391 31.9845 7.68743 32.1192C7.72436 32.0207 7.72436 32.0207 7.76204 31.9202C7.88401 31.6287 8.02739 31.3599 8.18108 31.0839C8.2107 31.0306 8.24031 30.9773 8.27082 30.9224C8.33341 30.8099 8.39614 30.6974 8.45899 30.5851C8.55333 30.4164 8.64721 30.2474 8.74102 30.0785C8.86252 29.8597 8.98559 29.6422 9.10961 29.4248C9.21721 29.2331 9.32102 29.0392 9.41906 28.8424C9.70196 28.3002 9.93864 28.0669 10.5245 27.8794C10.6092 27.8554 10.6939 27.8314 10.7812 27.8067C10.96 27.7469 11.1387 27.6868 11.3173 27.6265C11.4979 27.569 11.6785 27.5119 11.8593 27.4551C11.9519 27.4255 12.0444 27.3959 12.1398 27.3654C12.8192 27.1504 12.8192 27.1504 13.0312 27.1504C13.0312 26.5935 13.0312 26.0367 13.0312 25.4629C12.502 25.4526 11.9746 25.4455 11.4456 25.4463C11.2662 25.4457 11.0868 25.4432 10.9075 25.4388C9.70577 25.3818 9.70577 25.3818 8.69216 25.9334C8.50192 26.1424 8.33064 26.3657 8.15618 26.5879C8.0943 26.5879 8.03243 26.5879 7.96868 26.5879C7.99116 26.6561 8.01364 26.7242 8.03679 26.7945C8.27321 27.5962 8.30713 28.2767 7.96758 29.0554C7.61653 29.6689 7.08902 30.1697 6.40789 30.3866C5.55196 30.5615 4.84973 30.4703 4.08758 30.0409C3.47128 29.6069 3.15152 29.0058 2.99993 28.2754C2.88781 27.5016 3.14241 26.8028 3.52727 26.1367C4.11738 25.5932 4.75149 25.2625 5.55462 25.2578C5.65758 25.2565 5.76054 25.2552 5.86663 25.2538C6.22186 25.2777 6.50579 25.3544 6.84368 25.4629C6.88814 25.418 6.93259 25.373 6.9784 25.3267C7.17934 25.1238 7.38065 24.9213 7.58196 24.7188C7.68692 24.6126 7.68692 24.6126 7.794 24.5044C7.86107 24.437 7.92814 24.3696 7.99724 24.3002C8.09003 24.2067 8.09003 24.2067 8.1847 24.1113C8.44696 23.8665 8.61646 23.8576 8.96555 23.8585C9.05563 23.8585 9.14571 23.8585 9.23852 23.8585C9.33598 23.859 9.43345 23.8595 9.53386 23.86C9.63348 23.8601 9.7331 23.8603 9.83573 23.8604C10.1548 23.8609 10.4738 23.8621 10.7929 23.8633C11.0088 23.8638 11.2248 23.8642 11.4407 23.8646C11.9709 23.8655 12.501 23.8674 13.0312 23.8692C13.0312 22.972 13.0312 22.0748 13.0312 21.1504C11.3915 21.1504 9.7518 21.1504 8.06243 21.1504C8.03149 21.3051 8.00055 21.4598 7.96868 21.6192C7.62645 22.2444 7.13185 22.6642 6.46465 22.9079C5.63971 23.1392 4.97587 23.0192 4.21868 22.6504C3.60997 22.2497 3.24727 21.7575 3.03911 21.0618C2.90259 20.3907 2.9629 19.6968 3.28118 19.0879C3.74433 18.4278 4.24667 18.0295 5.01555 17.7989C5.89911 17.7105 6.68677 17.8429 7.40032 18.4141C7.70064 18.6978 7.88388 18.9978 8.06243 19.3692C8.06243 19.431 8.06243 19.4929 8.06243 19.5567C9.70212 19.5567 11.3418 19.5567 13.0312 19.5567C13.0312 18.6904 13.0312 17.8242 13.0312 16.9317C12.7172 16.9415 12.4032 16.9512 12.0798 16.9613C11.7732 16.9679 11.4667 16.973 11.1601 16.978C10.9482 16.9822 10.7363 16.988 10.5245 16.9953C8.53595 17.0624 8.53595 17.0624 7.94524 16.5332C7.82367 16.3884 7.70624 16.2399 7.59368 16.0879C7.45099 15.9435 7.30667 15.8006 7.16009 15.6602C7.05437 15.553 6.9488 15.4457 6.84368 15.3379C6.7586 15.3689 6.67352 15.3998 6.58587 15.4317C5.83348 15.6414 5.05275 15.6074 4.34246 15.2797C3.67231 14.8814 3.28786 14.3733 3.05852 13.631C2.88156 12.8402 2.99835 12.2089 3.37493 11.4942C3.76309 10.9064 4.30974 10.5888 4.96868 10.3692C5.81841 10.2918 6.51814 10.3207 7.21868 10.8379C7.77869 11.307 8.07547 11.7895 8.23052 12.5031C8.25281 12.8517 8.18593 13.1244 8.10345 13.4629C8.03421 13.8717 8.02875 14.0593 8.23448 14.4252C8.70793 14.9871 9.14259 15.299 9.88562 15.365C10.3179 15.3814 10.7474 15.374 11.1796 15.3614C11.3597 15.3602 11.5397 15.3596 11.7198 15.3595C12.1572 15.3582 12.5939 15.35 13.0312 15.3379C13.0312 14.812 13.0312 14.286 13.0312 13.7442C12.8765 13.7132 12.7218 13.6823 12.5624 13.6504C12.1345 13.5115 11.7133 13.3542 11.2909 13.1992C11.1755 13.1581 11.06 13.1169 10.941 13.0745C10.8302 13.0339 10.7193 12.9932 10.605 12.9513C10.4534 12.8962 10.4534 12.8962 10.2987 12.8401C9.7844 12.5956 9.57421 12.2264 9.30791 11.7362C9.27626 11.6784 9.24461 11.6206 9.212 11.561C9.1114 11.377 9.0117 11.1924 8.91204 11.0078C8.84551 10.8857 8.77892 10.7635 8.71227 10.6414C8.67983 10.5819 8.64738 10.5223 8.61396 10.461C8.54965 10.3431 8.48517 10.2254 8.4205 10.1077C8.28287 9.85651 8.14939 9.60506 8.02512 9.34695C7.92382 9.14094 7.83003 8.95522 7.68743 8.77541C7.40588 8.66818 7.40588 8.66818 7.10149 8.69924C6.34411 8.68984 5.83112 8.5214 5.26751 8.00783C4.64703 7.32242 4.52437 6.66072 4.55193 5.74392C4.63107 5.09276 4.88778 4.59866 5.36126 4.14651C5.94849 3.69909 6.61152 3.45304 7.35235 3.49026C8.10978 3.6006 8.70418 3.86546 9.21929 4.43874C9.72628 5.12824 9.8659 5.86931 9.74993 6.71291C9.62845 7.08869 9.44684 7.42386 9.25934 7.77012C9.16044 8.02694 9.16044 8.02694 9.2777 8.2789C9.33009 8.36867 9.38248 8.45844 9.43645 8.55093C9.49374 8.65093 9.55102 8.75093 9.61004 8.85396C9.67167 8.95759 9.7333 9.06122 9.7968 9.16799C9.85554 9.26981 9.91427 9.37162 9.97478 9.47652C10.0921 9.67922 10.2113 9.8809 10.3322 10.0815C10.4999 10.3692 10.4999 10.3692 10.6271 10.6363C10.9408 11.2673 11.2826 11.4656 11.945 11.689C12.0521 11.7214 12.1591 11.7538 12.2695 11.7871C12.4333 11.8412 12.4333 11.8412 12.6005 11.8963C12.8682 11.984 13.1366 12.0686 13.4062 12.1504C13.4493 12.1128 13.4924 12.0752 13.5368 12.0364C14.3931 11.2946 15.0532 10.9163 16.2187 10.9317C16.2172 10.8249 16.2157 10.7182 16.2142 10.6083C16.2091 10.206 16.2059 9.80383 16.2032 9.40159C16.2018 9.22867 16.1999 9.05576 16.1975 8.88285C16.1648 6.52174 16.7185 4.59391 18.2812 2.77541C18.3299 2.71765 18.3786 2.65988 18.4288 2.60036C19.1678 1.79248 20.2636 1.18582 21.2812 0.806663C21.3771 0.769924 21.4731 0.733186 21.572 0.695334C23.8561 -0.0471319 26.4216 0.398862 28.3868 1.73464ZM19.5351 3.81252C18.3761 5.00918 17.7926 6.54385 17.8033 8.20339C17.8034 8.28167 17.8035 8.35995 17.8037 8.4406C17.8042 8.68892 17.8054 8.93724 17.8066 9.18557C17.807 9.35464 17.8075 9.5237 17.8079 9.69277C17.8088 10.1057 17.8106 10.5187 17.8124 10.9317C18.3693 10.9317 18.9262 10.9317 19.4999 10.9317C19.5023 10.6954 19.5048 10.4591 19.5073 10.2157C19.5109 9.98267 19.5151 9.74964 19.5194 9.5166C19.522 9.3567 19.524 9.19678 19.5253 9.03686C19.5389 7.50253 19.7461 6.12949 20.8359 4.9551C21.8832 3.97908 23.0273 3.73239 24.4152 3.77407C24.9525 3.8047 25.3975 3.93367 25.8749 4.18166C25.9554 4.22142 26.0359 4.26118 26.1188 4.30215C27.1701 4.87224 27.7592 5.75035 28.1484 6.8594C28.3401 7.73803 28.3401 8.63611 28.3652 9.53127C28.3692 9.66744 28.3733 9.80361 28.3774 9.93978C28.3874 10.2704 28.3968 10.601 28.4062 10.9317C28.9631 10.9317 29.5199 10.9317 30.0937 10.9317C30.1002 10.5051 30.1058 10.0788 30.1091 9.65221C30.1105 9.50786 30.1124 9.36351 30.1149 9.21917C30.1492 7.16125 29.7556 5.28154 28.289 3.73635C27.3796 2.87321 26.1867 2.20773 24.9374 2.02541C24.8122 2.00656 24.8122 2.00656 24.6844 1.98733C22.6839 1.7523 20.9781 2.46441 19.5351 3.81252ZM6.29876 5.55862C6.13526 5.877 6.1236 6.17951 6.18743 6.52541C6.35558 6.78885 6.47044 6.94817 6.74993 7.08791C7.04147 7.13922 7.30299 7.14732 7.59368 7.08791C7.94575 6.84082 8.1292 6.56387 8.21477 6.14455C8.12657 5.73002 7.94818 5.42518 7.59954 5.17776C7.04885 5.01088 6.70846 5.17717 6.29876 5.55862ZM40.0312 5.49416C39.8717 5.71168 39.8442 5.86645 39.7968 6.13283C39.8547 6.50183 39.9739 6.68988 40.2267 6.9601C40.4999 7.15464 40.723 7.16115 41.0511 7.13515C41.3445 7.06546 41.5144 6.92999 41.7187 6.71291C41.8707 6.40897 41.8648 6.10391 41.8124 5.77541C41.6348 5.47015 41.5027 5.27397 41.1653 5.14443C40.6799 5.05032 40.4076 5.16253 40.0312 5.49416ZM21.7499 6.21487C21.0245 7.18839 21.0458 8.19692 21.0702 9.35549C21.078 9.87563 21.0857 10.3958 21.0937 10.9317C22.9809 10.9317 24.8681 10.9317 26.8124 10.9317C26.8163 10.4715 26.8202 10.0113 26.8241 9.53713C26.8259 9.39394 26.8276 9.25075 26.8293 9.10322C26.834 7.95513 26.7828 7.00156 25.9643 6.13467C25.2206 5.43073 24.6138 5.23706 23.5879 5.26235C22.8643 5.35721 22.2567 5.69307 21.7499 6.21487ZM4.68743 12.4317C4.5884 12.6896 4.56093 12.9073 4.59368 13.1817C4.74445 13.4832 4.87278 13.6738 5.14446 13.8731C5.51456 13.9819 5.79912 13.974 6.15813 13.8321C6.458 13.5808 6.5499 13.3693 6.65618 12.9942C6.60359 12.6063 6.52644 12.4042 6.26946 12.1094C5.63665 11.7655 5.14461 11.8964 4.68743 12.4317ZM41.5312 12.3379C41.3508 12.7362 41.3234 12.9227 41.4433 13.3457C41.6427 13.6802 41.7274 13.8043 42.0937 13.9317C42.5279 13.9565 42.8355 13.9245 43.1718 13.6387C43.341 13.3144 43.3996 13.0791 43.4062 12.7129C43.2585 12.371 43.083 12.134 42.7499 11.9629C42.2122 11.9032 41.9056 11.9085 41.5312 12.3379ZM14.7744 13.1221C14.5369 13.6636 14.5728 14.2084 14.5764 14.7915C14.5759 14.9274 14.5752 15.0633 14.5744 15.1991C14.5727 15.5672 14.5734 15.9352 14.5746 16.3032C14.5755 16.6888 14.5746 17.0744 14.574 17.46C14.5734 18.1075 14.5743 18.755 14.576 19.4025C14.5781 20.1505 14.5774 20.8985 14.5754 21.6465C14.5737 22.2893 14.5734 22.9322 14.5744 23.575C14.575 23.9587 14.5751 24.3424 14.5738 24.726C14.5727 25.0868 14.5735 25.4475 14.5757 25.8083C14.5761 25.9405 14.576 26.0727 14.5752 26.2048C14.547 27.1356 14.547 27.1356 14.9999 27.9004C15.5755 28.4071 16.3561 28.3235 17.0741 28.312C17.2013 28.3113 17.3284 28.3108 17.4556 28.3104C17.7879 28.309 18.1201 28.3053 18.4524 28.3012C18.7924 28.2973 19.1324 28.2956 19.4725 28.2937C20.1379 28.2897 20.8033 28.2833 21.4687 28.2754C21.4694 28.1991 21.4702 28.1229 21.471 28.0443C21.4783 27.3243 21.4865 26.6043 21.4956 25.8843C21.5003 25.5142 21.5047 25.1441 21.5082 24.7739C21.5117 24.4165 21.516 24.0591 21.521 23.7017C21.5227 23.5655 21.5241 23.4294 21.5252 23.2933C21.5268 23.1021 21.5296 22.9109 21.5325 22.7198C21.5338 22.6111 21.535 22.5024 21.5363 22.3905C21.5634 22.0768 21.6505 21.8225 21.7499 21.5254C21.6438 21.3256 21.6438 21.3256 21.457 21.168C20.7577 20.4509 20.5905 19.6371 20.5982 18.6624C20.6717 17.7707 21.0735 17.0117 21.7206 16.4043C22.4206 15.814 23.1991 15.58 24.105 15.5935C25.0069 15.6792 25.8031 15.9982 26.4374 16.6504C27.1084 17.4804 27.3547 18.3698 27.2581 19.4365C27.1223 20.2155 26.8403 20.807 26.2477 21.335C26.124 21.5385 26.124 21.5385 26.2418 21.8257C26.4022 22.4266 26.3773 23.0434 26.3825 23.6612C26.3843 23.7946 26.3861 23.9281 26.388 24.0615C26.3928 24.4104 26.3965 24.7593 26.4 25.1083C26.4038 25.4653 26.4086 25.8222 26.4133 26.1792C26.4223 26.8779 26.4302 27.5767 26.4374 28.2754C27.1733 28.2819 27.9092 28.2869 28.6452 28.29C28.9869 28.2914 29.3287 28.2934 29.6704 28.2966C30.0005 28.2997 30.3306 28.3014 30.6606 28.3021C30.8473 28.3029 31.0339 28.3051 31.2205 28.3073C31.335 28.3073 31.4494 28.3073 31.5674 28.3073C31.7179 28.3083 31.7179 28.3083 31.8714 28.3092C32.2647 28.2625 32.5794 28.1212 32.8729 27.8535C33.2089 27.422 33.2928 27.1482 33.295 26.6091C33.2956 26.4962 33.2963 26.3833 33.297 26.267C33.2973 26.1417 33.2975 26.0164 33.2978 25.8911C33.2984 25.7593 33.299 25.6275 33.2996 25.4956C33.3016 25.0625 33.3026 24.6293 33.3035 24.1962C33.3039 24.047 33.3043 23.8977 33.3047 23.7485C33.3065 23.0472 33.3078 22.3459 33.3086 21.6446C33.3095 20.8358 33.312 20.027 33.3158 19.2182C33.3186 18.5926 33.32 17.9671 33.3203 17.3415C33.3205 16.9681 33.3213 16.5947 33.3237 16.2213C33.3259 15.8697 33.3263 15.5181 33.3253 15.1665C33.3252 14.9768 33.327 14.7871 33.3289 14.5973C33.3289 13.683 33.3289 13.683 32.9062 12.9004C32.2997 12.3359 31.3371 12.4728 30.5668 12.4769C30.4052 12.4764 30.2436 12.4757 30.082 12.4749C29.6446 12.4732 29.2073 12.4738 28.7699 12.475C28.3115 12.476 27.8531 12.4751 27.3948 12.4745C26.6252 12.4738 25.8556 12.4747 25.0861 12.4765C24.1971 12.4786 23.3081 12.4779 22.419 12.4758C21.6548 12.4741 20.8907 12.4739 20.1265 12.4749C19.6704 12.4755 19.2144 12.4755 18.7584 12.4743C18.3297 12.4732 17.901 12.474 17.4723 12.4761C17.3152 12.4766 17.1581 12.4765 17.001 12.4757C16.7861 12.4746 16.5713 12.4759 16.3565 12.4778C16.2364 12.4779 16.1163 12.4781 15.9925 12.4782C15.4843 12.5495 15.143 12.7597 14.7744 13.1221ZM22.6058 17.6762C22.186 18.2228 22.0427 18.6811 22.1249 19.3692C22.2637 19.7669 22.4488 20.1324 22.7812 20.4004C23.001 20.378 23.2198 20.3447 23.4374 20.3067C23.885 20.2858 24.2902 20.2855 24.7265 20.3946C25.0209 20.4294 25.0209 20.4294 25.1897 20.2935C25.6017 19.8687 25.7659 19.3936 25.7812 18.8067C25.7203 18.2811 25.5244 17.9492 25.1366 17.5938C24.3426 16.969 23.3463 16.9079 22.6058 17.6762ZM4.87493 19.6504C4.61186 19.9474 4.59368 20.093 4.59368 20.4942C4.66511 20.8962 4.82031 21.097 5.15618 21.3379C5.47543 21.4549 5.47543 21.4549 5.81243 21.4317C6.16368 21.2461 6.34181 21.1063 6.56243 20.7754C6.61173 20.3458 6.63016 20.0587 6.36907 19.7031C5.86621 19.2645 5.41747 19.2805 4.87493 19.6504ZM41.5488 19.8086C41.385 20.1275 41.3748 20.4291 41.4374 20.7754C41.6314 21.0941 41.823 21.3275 42.1874 21.4317C42.5868 21.4244 42.7902 21.3775 43.1132 21.1387C43.3555 20.8109 43.4062 20.6194 43.4062 20.2129C43.2825 19.8345 43.1864 19.6897 42.8495 19.4746C42.2853 19.2674 41.9682 19.4181 41.5488 19.8086ZM23.2499 22.0879C23.0338 22.4121 23.0386 22.5343 23.0376 22.9165C23.0368 23.0308 23.036 23.145 23.0352 23.2627C23.0353 23.3894 23.0354 23.5162 23.0355 23.643C23.0349 23.7764 23.0343 23.9097 23.0336 24.0431C23.0322 24.3304 23.0314 24.6177 23.031 24.9049C23.0303 25.3591 23.0283 25.8133 23.026 26.2675C23.0215 27.2317 23.0184 28.1959 23.0156 29.1602C23.0125 30.2008 23.0091 31.2413 23.0039 32.2819C23.0017 32.7335 23.0004 33.185 22.9998 33.6366C22.9993 33.9175 22.998 34.1984 22.9964 34.4792C22.9959 34.6096 22.9956 34.7399 22.9958 34.8702C22.9959 35.048 22.9947 35.2258 22.9935 35.4036C22.9932 35.5032 22.993 35.6027 22.9927 35.7053C22.9684 35.9662 22.9241 36.12 22.7812 36.3379C22.465 36.496 22.1801 36.5205 21.8437 36.4317C21.5421 36.1922 21.3246 35.8941 21.0937 35.5879C21.0246 35.4995 20.9554 35.411 20.8842 35.3198C20.7295 35.1206 20.5757 34.9209 20.4231 34.72C20.1119 34.3102 19.7975 33.9029 19.4824 33.4961C19.4289 33.4267 19.3755 33.3573 19.3204 33.2858C19.0531 32.9408 18.781 32.6006 18.4991 32.2675C18.4483 32.2074 18.3975 32.1473 18.3452 32.0854C18.0688 31.816 17.8627 31.7486 17.4784 31.7149C17.1684 31.7195 17.1684 31.7195 16.9804 31.8496C16.7869 32.1721 16.7603 32.4859 16.835 32.8509C17.5679 34.8721 18.6855 36.7259 19.7852 38.5638C22.1403 42.4998 22.1403 42.4998 22.5355 44.2466C22.5688 44.4857 22.5688 44.4857 22.6874 44.5879C22.8251 44.5985 22.9632 44.6027 23.1013 44.6042C23.1907 44.6054 23.28 44.6067 23.3721 44.6079C23.5204 44.6092 23.5204 44.6092 23.6717 44.6105C23.827 44.6123 23.827 44.6123 23.9854 44.6141C24.9406 44.6246 25.896 44.6303 26.8513 44.6345C27.5576 44.6376 28.2638 44.6432 28.9701 44.6521C29.5264 44.6588 30.0826 44.6615 30.6389 44.6627C30.8756 44.6639 31.1123 44.6663 31.349 44.6701C31.6801 44.6751 32.0109 44.6754 32.3421 44.6745C32.4893 44.6784 32.4893 44.6784 32.6394 44.6823C33.1388 44.6855 33.1388 44.6855 33.5388 44.4232C33.6606 44.2321 33.7563 44.0468 33.8437 43.8379C33.8969 43.724 33.8969 43.724 33.9512 43.6077C34.0286 43.3881 34.105 43.1685 34.1777 42.9473C34.2055 42.8633 34.2333 42.7794 34.2619 42.6928C34.8596 40.7964 34.9899 38.8143 35.0015 36.8394C35.0031 36.645 35.0056 36.4506 35.0092 36.2563C35.0143 35.9734 35.0164 35.6907 35.0178 35.4077C35.0209 35.2781 35.0209 35.2781 35.0242 35.1458C35.0228 34.7353 35.008 34.4562 34.7455 34.1288C34.4849 33.8864 34.3847 33.798 34.0312 33.8067C33.6398 33.9554 33.3958 34.0987 33.1874 34.4629C33.1496 34.8226 33.1463 35.1766 33.1409 35.5381C33.0937 35.8692 33.0937 35.8692 32.9234 36.0977C32.6236 36.3122 32.4217 36.2955 32.0624 36.2442C31.857 36.0945 31.857 36.0945 31.6874 35.8692C31.6437 35.5687 31.6437 35.5687 31.6468 35.2166C31.6459 35.0879 31.645 34.9592 31.644 34.8306C31.6448 34.6292 31.6464 34.4278 31.6485 34.2264C31.6499 34.031 31.6484 33.8358 31.6468 33.6404C31.6477 33.524 31.6486 33.4076 31.6496 33.2876C31.5752 32.8552 31.4353 32.7064 31.1249 32.4004C30.786 32.2804 30.6396 32.2726 30.3105 32.418C30.0863 32.5937 29.9575 32.7182 29.8124 32.9629C29.7712 33.2743 29.7712 33.2743 29.7776 33.6221C29.776 33.7516 29.7744 33.8811 29.7727 34.0106C29.7718 34.2137 29.7714 34.4167 29.7716 34.6198C29.7712 34.8166 29.7687 35.0132 29.7659 35.21C29.7657 35.3274 29.7656 35.4448 29.7654 35.5658C29.7187 35.8692 29.7187 35.8692 29.5487 36.0949C29.2492 36.3129 29.0483 36.2957 28.6874 36.2442C28.4822 36.115 28.4822 36.115 28.3124 35.8692C28.2582 35.5424 28.2647 35.2189 28.2685 34.8885C28.2678 34.7925 28.2672 34.6966 28.2665 34.5977C28.2637 34.1876 28.2653 33.7775 28.2664 33.3673C28.2666 33.0677 28.2647 32.7681 28.2626 32.4685C28.2637 32.3762 28.2647 32.2839 28.2658 32.1888C28.2618 31.637 28.2119 31.3207 27.8437 30.9004C27.553 30.7551 27.3207 30.7795 26.9999 30.8067C26.7418 30.975 26.5756 31.0928 26.4374 31.3692C26.4284 31.6506 26.4246 31.9303 26.4242 32.2118C26.4225 32.3842 26.4207 32.5567 26.4188 32.7291C26.416 33.0013 26.414 33.2734 26.4139 33.5456C26.4136 33.8081 26.4104 34.0704 26.4067 34.3329C26.4073 34.414 26.408 34.495 26.4087 34.5786C26.4004 34.9893 26.3804 35.164 26.1266 35.5023C25.8749 35.6817 25.8749 35.6817 25.5351 35.6817C25.1241 35.5599 25.1241 35.5599 24.9374 35.3067C24.9021 35.0742 24.9021 35.0742 24.9019 34.792C24.9012 34.685 24.9004 34.578 24.8996 34.4677C24.9002 34.3503 24.9008 34.2328 24.9014 34.1118C24.9006 33.922 24.8998 33.7322 24.899 33.5424C24.8985 33.3382 24.8986 33.1341 24.8989 32.93C24.8996 32.5045 24.8981 32.0791 24.8963 31.6536C24.8927 30.7502 24.8915 29.8468 24.8906 28.9434C24.8895 27.9687 24.8881 26.9941 24.8839 26.0195C24.8822 25.5966 24.8818 25.1738 24.8825 24.751C24.8827 24.4877 24.8816 24.2244 24.8803 23.9612C24.8798 23.7811 24.8806 23.601 24.8815 23.421C24.8807 23.3135 24.88 23.206 24.8792 23.0952C24.8791 23.002 24.879 22.9087 24.879 22.8127C24.8263 22.4308 24.6607 22.1829 24.3866 21.918C23.9482 21.673 23.6359 21.8063 23.2499 22.0879ZM4.78118 27.2442C4.58887 27.4977 4.5936 27.6171 4.6054 27.9414C4.69432 28.3035 4.805 28.4789 5.06243 28.7442C5.35395 28.8899 5.58393 28.8648 5.90618 28.8379C6.28882 28.6574 6.43399 28.5365 6.61516 28.1524C6.66613 27.7228 6.5953 27.5201 6.37493 27.1504C6.10271 26.916 5.93537 26.8728 5.57805 26.8281C5.19213 26.8764 5.04981 26.9679 4.78118 27.2442ZM41.5312 27.2442C41.3434 27.6422 41.3229 27.827 41.4433 28.252C41.6397 28.5815 41.7387 28.7008 42.0937 28.8379C42.4847 28.8868 42.6767 28.8835 43.0136 28.6738C43.2701 28.4146 43.2701 28.4146 43.4062 28.0879C43.3881 27.5914 43.2834 27.3194 42.9374 26.9629C42.4122 26.7003 41.9418 26.8718 41.5312 27.2442ZM6.2929 34.0586C6.13547 34.3822 6.11813 34.6783 6.18743 35.0254C6.36504 35.3307 6.49718 35.5269 6.83452 35.6564C7.20559 35.7283 7.3775 35.696 7.72259 35.5235C8.05034 35.2347 8.13959 35.0876 8.18548 34.6563C8.15084 34.3168 8.09428 34.1622 7.87493 33.9004C7.22309 33.5688 6.86 33.5482 6.2929 34.0586ZM40.1249 33.9004C39.9121 34.1545 39.8513 34.3178 39.8027 34.6446C39.8635 35.0701 40.0512 35.3566 40.3827 35.6289C40.7188 35.713 41.0187 35.6967 41.3437 35.5879C41.6124 35.3584 41.7762 35.1896 41.8538 34.8379C41.873 34.5115 41.8212 34.2916 41.6659 34.0059C41.1451 33.5518 40.7075 33.5531 40.1249 33.9004ZM22.7812 46.1817C22.7812 46.3673 22.7812 46.5529 22.7812 46.7442C26.1534 46.7442 29.5256 46.7442 32.9999 46.7442C32.9999 46.5585 32.9999 46.3729 32.9999 46.1817C29.6277 46.1817 26.2556 46.1817 22.7812 46.1817Z"
            fill="#573FE7" />
    </g>
    <defs>
        <clipPath id="clip0_88_2320">
            <rect width="48" height="48" fill="white" transform="translate(0 0.337891)" />
        </clipPath>
    </defs>
</svg>