<svg width="48" height="49" viewBox="0 0 48 49" fill="none" xmlns="http://www.w3.org/2000/svg">
    <g clipPath="url(#clip0_88_2313)">
        <path
            d="M7.73916 0.851742C7.98452 0.852037 8.22978 0.849833 8.47513 0.847462C10.5312 0.839717 13.3374 1.03457 14.9181 2.52782C16.352 4.01522 15.3751 8.50747 15.3751 8.94384C21.0676 8.94384 26.7601 8.94384 32.6251 8.94384C32.6251 7.08759 32.6251 5.23134 32.6251 3.31884C33.0584 2.45228 33.6384 1.98651 34.5415 1.64598C34.9414 1.51606 35.3426 1.39648 35.7481 1.28563C35.8169 1.26664 35.8856 1.24764 35.9565 1.22807C37.1961 0.907932 38.4351 0.848557 39.7079 0.851742C39.9533 0.852037 40.1985 0.849833 40.4439 0.847462C42.5214 0.839747 45.316 1.01589 46.8985 2.53954C47.2491 2.91817 47.3671 3.22909 47.3689 3.74625C47.3701 3.90533 47.3701 3.90533 47.3713 4.06764C47.3713 4.1836 47.3712 4.29957 47.3711 4.41905C47.3717 4.54149 47.3723 4.66394 47.373 4.79009C47.3746 5.12578 47.3751 5.46147 47.3752 5.79716C47.3753 6.00704 47.3757 6.21691 47.3762 6.42679C47.378 7.15942 47.3787 7.89203 47.3786 8.62466C47.3785 9.30684 47.3805 9.989 47.3834 10.6712C47.3859 11.2574 47.3869 11.8436 47.3867 12.4299C47.3867 12.7798 47.3872 13.1296 47.3892 13.4795C47.3914 13.87 47.3905 14.2605 47.3894 14.651C47.3904 14.7664 47.3915 14.8818 47.3926 15.0007C47.3872 15.7316 47.2944 16.1311 46.8348 16.7049C44.9897 18.3356 41.7722 18.2672 39.4688 18.2251C39.4488 18.2872 39.4287 18.3493 39.4081 18.4133C39.2373 18.7913 39.0008 19.1003 38.754 19.4321C38.266 20.0977 37.7885 20.7694 37.3185 21.4477C37.2554 21.5387 37.1923 21.6296 37.1273 21.7233C37.0007 21.906 36.874 22.0887 36.7474 22.2714C36.0201 23.3191 35.2863 24.3624 34.5501 25.4039C34.0806 26.0686 33.614 26.7354 33.1477 27.4023C32.9256 27.7199 32.7032 28.0373 32.4804 28.3545C31.7394 29.4101 31.0071 30.4714 30.2813 31.5376C30.3383 31.5643 30.3952 31.591 30.4538 31.6185C30.8881 31.847 31.1657 32.189 31.3493 32.6406C31.4728 33.0941 31.4451 33.5664 31.4427 34.0329C31.4435 34.2098 31.4435 34.2098 31.4442 34.3903C31.4455 34.7122 31.445 35.0341 31.4441 35.356C31.4434 35.6938 31.4441 36.0316 31.4445 36.3693C31.445 36.9364 31.4443 37.5035 31.443 38.0706C31.4415 38.7252 31.442 39.3797 31.4435 40.0342C31.4448 40.5974 31.445 41.1605 31.4442 41.7237C31.4438 42.0595 31.4437 42.3953 31.4447 42.7312C31.4456 43.1057 31.4443 43.4802 31.4427 43.8547C31.4433 43.9653 31.4439 44.0759 31.4445 44.1898C31.4377 45.0656 31.2854 45.6092 30.6563 46.2563C29.8276 46.7981 28.9014 47.0899 27.9376 47.2876C27.8432 47.3086 27.8432 47.3086 27.747 47.3301C25.361 47.8431 22.4423 47.8179 20.0626 47.2876C19.999 47.2745 19.9353 47.2615 19.8698 47.248C18.816 47.0281 17.569 46.6541 16.8766 45.7755C16.5407 45.1567 16.5667 44.5517 16.5681 43.8654C16.5676 43.7475 16.5671 43.6296 16.5666 43.5081C16.5654 43.1858 16.5653 42.8635 16.5656 42.5412C16.5657 42.2716 16.5652 42.0021 16.5648 41.7325C16.5637 41.0964 16.5637 40.4603 16.5642 39.8241C16.5648 39.1689 16.5637 38.5137 16.5617 37.8584C16.56 37.2949 16.5594 36.7313 16.5598 36.1678C16.5599 35.8316 16.5597 35.4955 16.5584 35.1594C16.557 34.7844 16.5578 34.4094 16.5589 34.0344C16.5582 33.9237 16.5575 33.813 16.5568 33.6989C16.5614 32.9762 16.6168 32.4918 17.1036 31.9302C17.31 31.754 17.4771 31.651 17.7188 31.5376C16.939 30.3919 16.1505 29.2526 15.354 28.1185C15.1308 27.8005 14.9083 27.4821 14.6857 27.1637C14.2294 26.5113 13.7721 25.8596 13.3126 25.2095C12.6282 24.2412 11.9491 23.2692 11.2697 22.2974C10.6844 21.4605 10.0988 20.6239 9.50986 19.7895C9.46519 19.7263 9.42052 19.663 9.3745 19.5978C9.33203 19.5377 9.28957 19.4776 9.24582 19.4156C9.20532 19.3582 9.16482 19.3007 9.12309 19.2415C9.03786 19.1218 8.95151 19.003 8.86427 18.8849C8.53134 18.4318 8.53134 18.4318 8.53134 18.2251C8.40856 18.2283 8.28578 18.2316 8.15927 18.235C5.98065 18.2745 2.91938 18.2575 1.18222 16.7134C0.786825 16.2762 0.645125 15.9655 0.642544 15.3708C0.641873 15.2648 0.641203 15.1587 0.640512 15.0494C0.640259 14.933 0.640007 14.8165 0.639748 14.6965C0.639132 14.5739 0.638516 14.4514 0.637881 14.3251C0.63591 13.9184 0.634937 13.5118 0.634003 13.1051C0.633623 12.965 0.633237 12.8249 0.632845 12.6849C0.631059 12.0268 0.629725 11.3688 0.628944 10.7107C0.628027 9.95144 0.62556 9.19216 0.621772 8.43286C0.618944 7.84574 0.617556 7.25864 0.617246 6.67152C0.617025 6.32095 0.616186 5.97041 0.613827 5.61985C0.611237 5.22865 0.611629 4.8375 0.612282 4.44629C0.611081 4.3304 0.60988 4.21452 0.608643 4.09513C0.613179 3.3504 0.699723 3.02966 1.19577 2.48058C1.94256 1.81121 2.77001 1.53124 3.72665 1.28563C3.80022 1.26664 3.87379 1.24766 3.94958 1.22809C5.20785 0.92356 6.45083 0.848518 7.73916 0.851742ZM2.25009 3.69384C2.40464 4.05571 2.57823 4.18368 2.93893 4.34935C5.75335 5.41875 10.1024 5.6433 12.9167 4.38817C13.1794 4.25823 13.4351 4.12362 13.6876 3.97509C13.6876 3.85134 13.6876 3.72759 13.6876 3.60009C11.9012 2.60213 9.99807 2.43672 7.99228 2.44579C7.87463 2.44605 7.87463 2.44605 7.75461 2.44631C5.85927 2.45326 3.84882 2.55189 2.25009 3.69384ZM34.2188 3.69384C34.3535 4.03922 34.4938 4.15046 34.8282 4.30321C37.7318 5.52556 41.8602 5.47599 44.8097 4.43981C45.1552 4.29339 45.4649 4.12932 45.7501 3.88134C45.6568 3.63803 45.5895 3.5238 45.3681 3.38036C43.6549 2.62235 41.9162 2.43745 40.0665 2.44579C39.9487 2.44605 39.9487 2.44605 39.8286 2.44631C37.9039 2.45336 35.8439 2.53306 34.2188 3.69384ZM2.25009 5.75634C2.23646 6.07661 2.22814 6.3968 2.22079 6.71727C2.21687 6.80803 2.21294 6.89879 2.20889 6.9923C2.18981 7.52041 2.18981 7.52041 2.44711 7.96056C5.32465 9.43811 9.53642 9.27713 12.5626 8.38134C13.0081 8.22166 13.4282 8.04633 13.7813 7.72509C13.8328 7.50844 13.8328 7.50844 13.818 7.26696C13.8161 7.13508 13.8161 7.13508 13.8143 7.00054C13.8112 6.90899 13.808 6.81745 13.8048 6.72313C13.8031 6.6305 13.8014 6.53787 13.7997 6.44243C13.7952 6.21364 13.7891 5.98504 13.7813 5.75634C13.7234 5.77239 13.6654 5.78845 13.6057 5.805C12.4809 6.11422 11.3837 6.40288 10.2188 6.50634C10.0631 6.52175 10.0631 6.52175 9.90427 6.53746C7.31254 6.76115 4.73494 6.52703 2.25009 5.75634ZM34.2188 5.75634C34.2052 6.07661 34.1969 6.3968 34.1895 6.71727C34.1856 6.80803 34.1817 6.89879 34.1776 6.9923C34.1586 7.52041 34.1586 7.52041 34.4159 7.96056C37.2787 9.43055 41.6138 9.31725 44.6251 8.38134C45.0461 8.21384 45.4277 8.04746 45.7501 7.72509C45.7761 7.51599 45.7761 7.51599 45.7684 7.27611C45.7678 7.18789 45.7672 7.09967 45.7666 7.00878C45.765 6.91645 45.7634 6.82412 45.7618 6.72899C45.761 6.63594 45.7601 6.54288 45.7592 6.44701C45.757 6.21676 45.7539 5.98656 45.7501 5.75634C45.6921 5.77239 45.6342 5.78845 45.5745 5.805C44.4496 6.11422 43.3525 6.40288 42.1876 6.50634C42.0319 6.52175 42.0319 6.52175 41.873 6.53746C39.294 6.76005 36.6916 6.53142 34.2188 5.75634ZM2.25009 9.60009C2.23646 9.92036 2.22814 10.2406 2.22079 10.561C2.21687 10.6518 2.21294 10.7425 2.20889 10.836C2.18798 11.371 2.18798 11.371 2.46286 11.8076C2.58957 11.875 2.58957 11.875 2.71884 11.9438C2.77878 11.9786 2.83872 12.0134 2.90048 12.0493C3.4605 12.2869 4.03422 12.4089 4.629 12.5239C4.70973 12.5396 4.79045 12.5552 4.87363 12.5713C7.43041 13.0378 11.2905 13.2381 13.5938 11.7563C13.8006 11.5888 13.8006 11.5888 13.8026 11.3668C13.8016 11.2853 13.8007 11.2038 13.7997 11.1199C13.799 11.0316 13.7984 10.9434 13.7978 10.8525C13.7963 10.7602 13.7947 10.6679 13.7931 10.5727C13.7922 10.4797 13.7914 10.3866 13.7905 10.2908C13.7883 10.0605 13.7852 9.83031 13.7813 9.60009C13.687 9.63066 13.5926 9.66124 13.4953 9.69274C9.96276 10.8035 5.75853 10.8314 2.25009 9.60009ZM34.2188 9.60009C34.2052 9.92036 34.1969 10.2406 34.1895 10.561C34.1856 10.6518 34.1817 10.7425 34.1776 10.836C34.1567 11.371 34.1567 11.371 34.4316 11.8076C34.5583 11.875 34.5583 11.875 34.6876 11.9438C34.7475 11.9786 34.8075 12.0134 34.8692 12.0493C35.4292 12.2869 36.003 12.4089 36.5977 12.5239C36.6785 12.5396 36.7592 12.5552 36.8424 12.5713C39.3992 13.0378 43.2593 13.2381 45.5626 11.7563C45.7694 11.5888 45.7694 11.5888 45.7714 11.3668C45.7704 11.2853 45.7694 11.2038 45.7684 11.1199C45.7678 11.0316 45.7672 10.9434 45.7666 10.8525C45.765 10.7602 45.7634 10.6679 45.7618 10.5727C45.761 10.4797 45.7601 10.3866 45.7592 10.2908C45.757 10.0605 45.7539 9.83031 45.7501 9.60009C45.6557 9.63066 45.5613 9.66124 45.4641 9.69274C41.908 10.8109 37.7564 10.7934 34.2188 9.60009ZM15.3751 10.5376C15.3442 12.301 15.3132 14.0645 15.2813 15.8813C14.6156 16.9466 13.8682 17.3547 12.6563 17.6626C12.1987 17.7576 11.7388 17.8385 11.2771 17.9117C11.1913 17.9255 11.1056 17.9394 11.0172 17.9537C10.9401 17.9655 10.863 17.9772 10.7836 17.9893C10.5741 18.0254 10.5741 18.0254 10.4063 18.2251C10.4392 18.2721 10.4721 18.319 10.506 18.3675C12.0521 20.5762 12.0521 20.5762 12.214 20.8074C12.3221 20.9619 12.4303 21.1164 12.5384 21.2709C12.8144 21.6651 13.0903 22.0594 13.3661 22.4537C13.8781 23.1858 14.3907 23.9174 14.9063 24.647C15.5908 25.6152 16.2698 26.5872 16.9492 27.559C17.7031 28.6371 18.4592 29.7135 19.2188 30.7876C19.8013 30.7195 20.3742 30.6248 20.9503 30.5162C21.9401 30.3354 22.9186 30.2967 23.9239 30.2954C24.0221 30.2952 24.0221 30.2952 24.1223 30.2949C25.4422 30.2947 26.7823 30.3544 28.0606 30.7092C28.4803 30.8113 28.4803 30.8113 28.8751 30.6938C29.05 30.4831 29.1926 30.2849 29.338 30.0552C29.4289 29.9173 29.52 29.7794 29.6112 29.6417C29.6591 29.5686 29.7069 29.4955 29.7563 29.4201C30.0118 29.0348 30.2788 28.6577 30.545 28.2798C30.6567 28.1205 30.7684 27.9612 30.8801 27.8019C30.936 27.7222 30.9919 27.6426 31.0494 27.5605C31.218 27.32 31.3864 27.0794 31.5547 26.8387C32.1117 26.0421 32.6701 25.2464 33.2313 24.4525C33.7572 23.7081 34.2794 22.961 34.8018 22.214C35.0761 21.8218 35.3506 21.4297 35.6251 21.0376C35.7328 20.8838 35.8404 20.73 35.9481 20.5762C36.4967 19.7925 37.0453 19.0088 37.5938 18.2251C37.3734 18.0046 37.2847 17.9997 36.983 17.9537C36.8972 17.9398 36.8114 17.926 36.7231 17.9117C36.5856 17.8899 36.5856 17.8899 36.4454 17.8677C34.0306 17.4542 34.0306 17.4542 33.1876 16.6313C32.1065 14.9015 32.6609 12.5772 32.6251 10.5376C26.9326 10.5376 21.2401 10.5376 15.3751 10.5376ZM2.25009 13.4438C2.25009 14.1245 2.25009 14.8051 2.25009 15.5063C5.07338 17.0591 9.03827 16.9903 12.1056 16.227C12.1778 16.2094 12.25 16.1917 12.3245 16.1735C12.8534 16.0304 13.3869 15.807 13.7813 15.4126C13.7895 15.2662 13.7914 15.1194 13.7905 14.9728C13.7902 14.8842 13.7899 14.7957 13.7896 14.7045C13.7888 14.6114 13.788 14.5183 13.7872 14.4224C13.7868 14.3289 13.7864 14.2354 13.7859 14.1391C13.7848 13.9073 13.7833 13.6756 13.7813 13.4438C13.6381 13.4897 13.6381 13.4897 13.492 13.5365C12.7726 13.7609 12.0587 13.9537 11.3145 14.0766C11.2498 14.0874 11.185 14.0982 11.1183 14.1094C8.18357 14.5645 5.07006 14.3838 2.25009 13.4438ZM34.2188 13.4438C34.2052 13.7641 34.1969 14.0843 34.1895 14.4048C34.1856 14.4955 34.1817 14.5863 34.1776 14.6798C34.1568 15.2146 34.1568 15.2146 34.4312 15.6514C34.5581 15.7188 34.5581 15.7188 34.6876 15.7876C34.7486 15.8224 34.8097 15.8572 34.8725 15.8931C35.4197 16.1222 35.9774 16.2502 36.5567 16.3677C36.6338 16.3833 36.7108 16.399 36.7902 16.4151C39.6274 16.9593 43.1725 16.924 45.7501 15.5063C45.7501 14.8566 45.7501 14.207 45.7501 13.5376C45.1345 13.6742 45.1345 13.6742 44.5207 13.8188C41.2078 14.6191 37.4527 14.5833 34.2188 13.4438ZM18.1876 33.1313C19.1915 34.243 21.1698 34.3546 22.5938 34.4438C26.2473 34.6151 26.2473 34.6151 29.6251 33.4126C29.7179 33.2734 29.7179 33.2734 29.8126 33.1313C27.2122 31.0293 20.788 31.0293 18.1876 33.1313ZM18.1876 35.1001C18.174 35.4204 18.1656 35.7406 18.1583 36.061C18.1544 36.1518 18.1504 36.2425 18.1464 36.336C18.1255 36.8708 18.1255 36.8708 18.4 37.3076C18.5269 37.375 18.5269 37.375 18.6563 37.4438C18.7174 37.4786 18.7784 37.5134 18.8413 37.5493C20.4354 38.2168 22.2246 38.3096 23.9298 38.311C24.0001 38.3111 24.0704 38.3111 24.1428 38.3112C27.1788 38.342 27.1788 38.342 29.8126 37.0688C29.8207 36.9224 29.8226 36.7757 29.8217 36.629C29.8214 36.5405 29.8211 36.452 29.8208 36.3608C29.82 36.2677 29.8193 36.1745 29.8185 36.0786C29.818 35.9851 29.8176 35.8916 29.8172 35.7953C29.8161 35.5636 29.8145 35.3318 29.8126 35.1001C29.6694 35.1459 29.6694 35.1459 29.5233 35.1927C28.8018 35.4178 28.0863 35.6103 27.3399 35.7329C27.2744 35.7437 27.2088 35.7545 27.1413 35.7656C26.1221 35.923 25.1068 35.9664 24.0763 35.9673C24.0108 35.9673 23.9454 35.9674 23.878 35.9675C21.9234 35.9645 20.0474 35.72 18.1876 35.1001ZM18.1876 38.9438C18.174 39.2641 18.1656 39.5843 18.1583 39.9048C18.1544 39.9955 18.1504 40.0863 18.1464 40.1798C18.1265 40.7098 18.1265 40.7098 18.3897 41.1481C19.8099 41.8913 21.4201 42.1406 23.0113 42.1504C23.0839 42.151 23.1565 42.1517 23.2313 42.1524C23.4641 42.154 23.6969 42.1546 23.9298 42.1548C24.0491 42.1549 24.0491 42.1549 24.1708 42.155C27.1892 42.1965 27.1892 42.1965 29.8126 40.9126C29.8207 40.773 29.8226 40.6331 29.8217 40.4933C29.8214 40.409 29.8211 40.3247 29.8208 40.2378C29.82 40.1492 29.8193 40.0606 29.8185 39.9692C29.818 39.8802 29.8176 39.7912 29.8172 39.6995C29.8161 39.4789 29.8145 39.2582 29.8126 39.0376C29.406 39.1259 29.0002 39.2154 28.5971 39.3188C25.2488 40.1721 21.4586 40.0506 18.1876 38.9438ZM18.1876 42.8813C18.1712 43.184 18.1612 43.4866 18.1524 43.7895C18.1477 43.875 18.143 43.9605 18.1382 44.0486C18.1284 44.4966 18.1274 44.6867 18.4293 45.0358C19.0011 45.3732 19.6106 45.5365 20.2501 45.6938C20.3135 45.7096 20.3769 45.7253 20.4423 45.7416C22.9834 46.3296 27.1284 46.4633 29.4142 45.0669C29.6928 44.8813 29.6928 44.8813 29.8126 44.7563C29.8207 44.6168 29.8226 44.4768 29.8217 44.337C29.8214 44.2527 29.8211 44.1684 29.8208 44.0816C29.82 43.9929 29.8193 43.9043 29.8185 43.813C29.818 43.724 29.8176 43.635 29.8172 43.5433C29.8161 43.3226 29.8145 43.102 29.8126 42.8813C29.4467 42.9481 29.0971 43.0464 28.7403 43.1509C25.6627 43.977 21.9958 43.9521 18.9372 43.0564C18.6881 42.9843 18.4425 42.9279 18.1876 42.8813Z"
            fill="#573FE7" />
        <path
            d="M31.4531 16.772C33.152 18.1865 33.152 18.1865 33.2168 18.77C33.1799 19.1459 33.0889 19.283 32.8125 19.5376C32.4712 19.6563 32.3045 19.6502 31.9629 19.5317C31.7046 19.3614 31.5549 19.1968 31.3667 18.9557C29.88 17.2666 27.3389 16.1073 25.125 15.8813C23.8263 15.8232 22.5387 15.801 21.2812 16.1626C21.1687 16.1934 21.0562 16.2242 20.9403 16.256C19.0505 16.8267 17.3831 17.9387 16.0254 19.3658C15.7801 19.5978 15.616 19.6245 15.2812 19.6313C14.9504 19.4809 14.8287 19.3743 14.625 19.0688C14.5723 18.8169 14.5723 18.8169 14.625 18.5063C14.8158 18.2286 15.0449 17.9955 15.2812 17.7563C15.3297 17.7033 15.3782 17.6502 15.4281 17.5956C19.5418 13.2138 26.8895 13.0731 31.4531 16.772Z"
            fill="#573FE7" />
        <path
            d="M29.7012 19.9595C30.6929 20.7991 30.6929 20.7991 30.7966 21.2317C30.8161 21.552 30.7743 21.7526 30.5918 22.0161C30.3433 22.184 30.2069 22.2492 29.9063 22.2563C29.5189 22.1272 29.2885 21.9266 29.0157 21.6352C27.7166 20.2865 25.7983 19.5617 23.9532 19.5142C21.9386 19.5334 20.1521 20.3344 18.7394 21.7451C18.4275 22.0102 18.2006 22.1306 17.8126 22.2563C17.5393 22.2196 17.4013 22.1172 17.1563 21.9751C17.0008 21.6641 16.995 21.3714 17.0626 21.0376C17.859 19.6104 19.8957 18.6231 21.397 18.1802C24.3829 17.3512 27.2905 18.0477 29.7012 19.9595Z"
            fill="#573FE7" />
        <path
            d="M27.1874 22.5376C28.3654 23.4822 28.3654 23.4822 28.4472 24.0317C28.3939 24.4044 28.3223 24.5462 28.0312 24.7876C27.7267 24.8868 27.4935 24.8803 27.1874 24.7876C26.9333 24.5965 26.7149 24.3855 26.4887 24.1621C25.6678 23.4117 24.6159 23.2304 23.5378 23.259C22.4694 23.3194 21.5296 23.8351 20.8095 24.6202C20.5369 24.8674 20.3349 24.8466 19.9808 24.8297C19.7812 24.7876 19.7812 24.7876 19.5409 24.5884C19.3752 24.2569 19.3274 24.1216 19.4062 23.7563C20.1294 22.6558 21.4069 21.9301 22.6668 21.6355C24.2574 21.3653 25.8445 21.635 27.1874 22.5376Z"
            fill="#573FE7" />
        <path
            d="M25.2187 25.0689C25.821 25.5787 26.1098 26.1578 26.1973 26.9321C26.1646 27.596 25.9155 28.1722 25.4297 28.6255C24.9203 29.0254 24.3923 29.2582 23.7316 29.2257C23.0251 29.1134 22.5112 28.8324 22.0693 28.2695C21.7245 27.7447 21.5557 27.2012 21.6562 26.5689C21.8363 25.8497 22.1612 25.3824 22.7812 24.9751C23.6034 24.529 24.4212 24.6065 25.2187 25.0689ZM23.3437 26.5689C23.2341 26.7891 23.2341 26.7891 23.25 27.0376C23.3738 27.3402 23.4498 27.4721 23.7539 27.6001C24.0776 27.6001 24.221 27.5253 24.4687 27.3189C24.5784 27.0987 24.5784 27.0987 24.5625 26.8501C24.4387 26.5475 24.3627 26.4157 24.0586 26.2876C23.7348 26.2876 23.5915 26.3624 23.3437 26.5689Z"
            fill="#573FE7" />
    </g>
    <defs>
        <clipPath id="clip0_88_2313">
            <rect width="48" height="48" fill="white" transform="translate(0 0.225098)" />
        </clipPath>
    </defs>
</svg>