<svg width="48" height="49" viewBox="0 0 48 49" fill="none" xmlns="http://www.w3.org/2000/svg">
    <g clipPath="url(#clip0_88_2323)">
        <path
            d="M23.9181 0.501962C24.0016 0.501898 24.0851 0.501835 24.1712 0.50177C25.5078 0.503375 26.8076 0.565082 28.1251 0.806649C28.2112 0.82174 28.2973 0.836831 28.386 0.85238C31.5493 1.42132 34.7902 2.66229 37.4063 4.55665C37.4634 4.59796 37.5205 4.63928 37.5794 4.68185C39.5165 6.09082 41.4119 7.68347 42.8438 9.61915C42.8883 9.67773 42.9328 9.73631 42.9786 9.79667C46.8461 14.9004 48.5386 21.328 47.7071 27.6895C47.6577 28.0119 47.597 28.3309 47.5313 28.6504C47.5034 28.7928 47.5034 28.7928 47.4749 28.9381C46.6449 33.0887 44.7933 37.0308 41.9137 40.1571C41.7369 40.3495 41.5662 40.5455 41.3966 40.7441C40.6959 41.5447 39.9302 42.2448 39.0938 42.9004C39.0379 42.9452 38.982 42.99 38.9244 43.0362C35.0075 46.1747 30.0786 48.1247 25.0313 48.2441C24.9576 48.2461 24.8838 48.248 24.8078 48.25C19.0077 48.3818 13.4167 46.5798 8.90634 42.9004C8.85421 42.8579 8.80207 42.8154 8.74836 42.7717C7.52861 41.7695 6.4046 40.6821 5.43759 39.4316C5.3423 39.312 5.24696 39.1924 5.15158 39.0728C4.41696 38.1426 3.77372 37.1802 3.18759 36.1504C3.14736 36.0801 3.10713 36.0098 3.06568 35.9374C1.87525 33.8337 1.08969 31.5541 0.586023 29.1953C0.567382 29.1086 0.548741 29.0219 0.529535 28.9326C0.223241 27.4246 0.149448 25.9373 0.152429 24.4024C0.152449 24.3078 0.152469 24.2133 0.15249 24.1159C0.155726 22.5655 0.244294 21.0783 0.562586 19.5566C0.580139 19.4716 0.597693 19.3866 0.615778 19.299C1.274 16.2187 2.56845 13.2106 4.40634 10.6504C4.4745 10.5547 4.54265 10.459 4.61288 10.3604C6.00073 8.4633 7.65101 6.68141 9.56259 5.30665C9.62352 5.2618 9.68446 5.21695 9.74725 5.17074C13.1361 2.67668 17.0075 1.14166 21.1876 0.619149C21.252 0.610312 21.3164 0.601475 21.3828 0.59237C22.2237 0.490711 23.0723 0.502537 23.9181 0.501962ZM20.1563 2.4004C20.0759 2.41549 19.9955 2.43058 19.9127 2.44613C16.3966 3.11736 13.1167 4.58056 10.3126 6.80665C10.2319 6.86937 10.1511 6.93209 10.068 6.99671C9.52566 7.4275 9.01469 7.88769 8.5079 8.35938C8.44587 8.41686 8.38385 8.47434 8.31994 8.53356C5.03511 11.6249 2.95432 15.934 2.06259 20.3066C2.04577 20.3857 2.02896 20.4647 2.01164 20.5461C1.7523 21.8157 1.75258 23.1001 1.74618 24.3906C1.74543 24.4752 1.74467 24.5598 1.7439 24.6469C1.73275 26.2986 1.913 27.9118 2.30868 29.5176C2.34416 29.6625 2.34416 29.6625 2.38037 29.8103C3.15947 32.8665 4.54646 35.7785 6.56259 38.2129C6.6246 38.289 6.6246 38.289 6.68788 38.3666C7.73674 39.6501 8.89563 40.8666 10.2188 41.8691C10.2684 41.9076 10.3179 41.946 10.3689 41.9856C13.6769 44.5486 17.5987 46.0927 21.7501 46.5566C21.9089 46.5751 21.9089 46.5751 22.0709 46.594C27.7762 47.1409 33.6075 45.2609 38.0344 41.6608C38.5638 41.2205 39.0667 40.7528 39.5626 40.2754C39.6362 40.2048 39.6362 40.2048 39.7114 40.1329C40.369 39.4997 40.9763 38.8459 41.5313 38.1191C41.5764 38.0605 41.6214 38.0018 41.6678 37.9414C44.6445 34.0355 46.2647 29.3592 46.254 24.4492C46.2539 24.3609 46.2539 24.2726 46.2538 24.1815C46.2394 18.722 44.2098 13.3778 40.4448 9.39063C40.2546 9.18839 40.0746 8.98235 39.8966 8.76954C36.644 5.05015 31.5234 2.86739 26.7188 2.2129C26.6148 2.1984 26.6148 2.1984 26.5086 2.1836C25.7 2.08668 24.8837 2.09629 24.0704 2.09571C23.991 2.09565 23.9117 2.09559 23.8299 2.09552C22.5844 2.09709 21.3808 2.15666 20.1563 2.4004Z"
            fill="#573FE7" />
        <path
            d="M32.0624 5.58789C32.138 5.62014 32.2136 5.6524 32.2915 5.68563C34.6863 6.7238 36.7812 8.25258 38.6249 10.0879C38.701 10.1634 38.701 10.1634 38.7786 10.2405C40.1271 11.5962 41.2003 13.1844 42.0937 14.8691C42.1492 14.9734 42.1492 14.9734 42.2059 15.0797C43.498 17.5437 44.3394 20.4249 44.366 23.218C44.3669 23.2978 44.3678 23.3775 44.3688 23.4597C44.3852 25.2519 44.373 26.9885 43.9687 28.7441C43.9465 28.8405 43.9244 28.9368 43.9016 29.0361C43.2553 31.7426 42.1047 34.3156 40.4062 36.5254C40.3094 36.6519 40.3094 36.6519 40.2106 36.781C36.8188 41.1113 31.9516 43.9833 26.4652 44.6582C21.1396 45.2357 15.6332 43.843 11.4237 40.4692C10.8768 40.0202 10.3541 39.5466 9.84366 39.0566C9.79096 39.0065 9.73825 38.9563 9.68395 38.9047C6.81383 36.1605 4.91826 32.6056 4.03116 28.7441C4.01012 28.6528 3.98907 28.5614 3.96739 28.4672C3.38121 25.772 3.41283 22.7101 4.03116 20.0254C4.04822 19.9477 4.06527 19.8701 4.08284 19.7901C5.07905 15.3352 7.6534 11.2178 11.2499 8.40039C11.3444 8.32414 11.4389 8.24788 11.5363 8.16931C12.2758 7.57843 13.051 7.08365 13.8749 6.61914C13.9353 6.58447 13.9956 6.5498 14.0578 6.51409C16.3401 5.21064 18.8652 4.42116 21.4687 4.08789C21.5356 4.07906 21.6025 4.07022 21.6714 4.06111C25.189 3.65031 28.8166 4.19491 32.0624 5.58789ZM17.9999 6.52539C17.9295 6.54891 17.8591 6.57243 17.7865 6.59667C15.9022 7.24234 14.1328 8.20986 12.5624 9.43164C12.5096 9.47252 12.4568 9.5134 12.4025 9.55551C9.99699 11.445 8.09304 13.8584 6.84366 16.6504C6.81227 16.7205 6.78088 16.7906 6.74854 16.8629C6.35486 17.7586 6.03423 18.6636 5.78311 19.6094C5.76153 19.69 5.73994 19.7706 5.7177 19.8537C5.34676 21.3297 5.1975 22.7898 5.2089 24.3086C5.20918 24.39 5.20947 24.4713 5.20976 24.5552C5.21663 25.8866 5.30688 27.1654 5.62491 28.4629C5.65505 28.5882 5.65505 28.5882 5.68579 28.716C6.84894 33.4151 9.78568 37.7004 13.9287 40.2644C18.3709 42.9326 23.4589 43.8919 28.5292 42.6484C30.7788 42.062 33.003 41.1075 34.8749 39.7129C34.9254 39.6754 34.9759 39.6379 35.0279 39.5992C39.0766 36.5678 41.8315 32.2157 42.6245 27.1886C42.7077 26.5954 42.766 26.021 42.7722 25.4222C42.7736 25.3116 42.7736 25.3116 42.775 25.1988C42.8288 19.7817 41.0913 15.0089 37.3154 11.0906C33.9768 7.69261 29.2885 5.61067 24.5099 5.56047C22.2608 5.54683 20.1417 5.80665 17.9999 6.52539Z"
            fill="#573FE7" />
        <path
            d="M23.9298 7.43946C24.0293 7.43937 24.0293 7.43937 24.1308 7.43927C25.2624 7.44098 26.3593 7.51067 27.4688 7.74415C27.543 7.75974 27.6171 7.77533 27.6935 7.79139C30.5434 8.41749 33.2717 9.8019 35.3801 11.8248C35.5565 11.9918 35.7315 12.1471 35.9188 12.3005C36.2716 12.5957 36.5518 12.9213 36.8438 13.2754C36.9224 13.3703 37.0009 13.4651 37.0819 13.5629C39.4115 16.4246 40.8616 19.9843 40.9044 23.6934C40.9061 23.788 40.9077 23.8826 40.9094 23.98C40.9093 24.114 40.9093 24.114 40.9091 24.2507C40.9096 24.3708 40.9096 24.3708 40.91 24.4932C40.867 24.7636 40.7812 24.8905 40.5938 25.0879C40.2979 25.1865 40.0912 25.1932 39.7805 25.1929C39.6143 25.1931 39.6143 25.1931 39.4447 25.1933C39.323 25.193 39.2012 25.1926 39.0758 25.1923C38.9465 25.1923 38.8171 25.1923 38.6878 25.1923C38.3364 25.1924 37.9851 25.1918 37.6338 25.1912C37.2666 25.1906 36.8995 25.1905 36.5324 25.1904C35.8372 25.1901 35.1419 25.1893 34.4467 25.1884C33.6552 25.1874 32.8637 25.1868 32.0722 25.1864C30.444 25.1854 28.8158 25.1837 27.1876 25.1816C27.1604 25.2683 27.1604 25.2683 27.1326 25.3567C27.1082 25.4326 27.0837 25.5084 27.0586 25.5866C27.0346 25.6618 27.0107 25.7369 26.986 25.8144C26.716 26.5296 25.9885 27.1092 25.3126 27.4316C24.5459 27.7536 23.5923 27.7294 22.8048 27.4844C21.9921 27.1452 21.2618 26.4639 20.9063 25.6504C20.8735 25.4945 20.842 25.3382 20.8126 25.1816C20.7454 25.1819 20.6782 25.1822 20.6089 25.1824C18.9736 25.1886 17.3383 25.1933 15.703 25.1962C14.9122 25.1977 14.1214 25.1996 13.3306 25.2029C12.6413 25.2057 11.952 25.2075 11.2628 25.2081C10.8978 25.2085 10.5328 25.2093 10.1678 25.2114C9.82427 25.2133 9.48071 25.2139 9.13713 25.2135C8.95103 25.2136 8.76493 25.2151 8.57884 25.2166C8.46776 25.2163 8.35668 25.2159 8.24224 25.2155C8.0977 25.2159 8.0977 25.2159 7.95025 25.2163C7.64371 25.1759 7.46711 25.0818 7.21884 24.9004C6.43578 23.3343 7.45899 20.3532 7.96884 18.8066C8.71155 16.647 9.88399 14.6939 11.4325 13.0169C11.5986 12.8356 11.7561 12.6508 11.9122 12.4609C12.2222 12.0988 12.57 11.7967 12.9376 11.4941C13.0302 11.4168 13.1227 11.3395 13.2181 11.2598C15.6541 9.26119 18.546 8.0188 21.6563 7.55665C21.7204 7.54698 21.7845 7.53731 21.8505 7.52735C22.5404 7.43688 23.2351 7.44006 23.9298 7.43946ZM20.8126 9.3379C20.7355 9.35603 20.6585 9.37415 20.5791 9.39283C18.2134 9.97054 15.9839 10.9901 14.1563 12.6191C14.0768 12.6885 13.9973 12.7579 13.9154 12.8294C13.68 13.0373 13.4489 13.249 13.2188 13.4629C13.1507 13.5249 13.0825 13.5869 13.0123 13.6508C10.5582 15.9769 9.08201 19.4183 8.71884 22.7441C8.71884 23.0226 8.71884 23.301 8.71884 23.5879C12.7098 23.5879 16.7007 23.5879 20.8126 23.5879C20.9363 23.2785 21.0601 22.9691 21.1876 22.6504C21.1079 22.5709 21.0283 22.4915 20.9462 22.4096C20.1968 21.6622 19.4477 20.9145 18.6989 20.1665C18.3138 19.782 17.9287 19.3975 17.5434 19.0132C17.1717 18.6426 16.8004 18.2718 16.4291 17.9008C16.2872 17.7591 16.1452 17.6174 16.0031 17.4758C15.8047 17.2781 15.6065 17.08 15.4084 16.8819C15.3492 16.823 15.2899 16.764 15.2288 16.7033C14.7228 16.196 14.7228 16.196 14.7071 15.7656C14.7188 15.4316 14.7188 15.4316 14.8126 15.1504C15.1007 15.071 15.3575 15.0379 15.6563 15.0566C15.8189 15.1527 15.8189 15.1527 15.9766 15.3009C16.0413 15.3614 16.1061 15.4219 16.1728 15.4842C16.2884 15.5974 16.2884 15.5974 16.4063 15.7129C16.4524 15.7579 16.4984 15.8028 16.5459 15.8491C16.9509 16.2456 17.3511 16.6469 17.7511 17.0485C17.8803 17.1779 18.0095 17.3073 18.1388 17.4366C18.4768 17.775 18.8146 18.1137 19.1523 18.4524C19.4978 18.7989 19.8436 19.1451 20.1893 19.4913C20.8661 20.1691 21.5426 20.8471 22.2188 21.5254C22.2764 21.5058 22.334 21.4863 22.3933 21.4661C22.469 21.4406 22.5448 21.4151 22.6228 21.3888C22.6978 21.3634 22.7727 21.3381 22.85 21.312C23.7069 21.0386 24.6456 21.0665 25.4609 21.4525C26.4294 21.997 26.7099 22.5369 27.1876 23.5879C31.1785 23.5879 35.1695 23.5879 39.2813 23.5879C39.2813 19.8531 37.5125 16.3116 34.9688 13.6504C34.9083 13.5839 34.8477 13.5175 34.7854 13.449C32.7904 11.3358 30.0066 9.94638 27.1876 9.3379C27.1257 9.32402 27.0639 9.31013 27.0001 9.29583C25.0074 8.86339 22.7984 8.86916 20.8126 9.3379ZM22.5122 23.5238C22.2679 23.8881 22.2583 24.2902 22.3126 24.7129C22.5047 25.2902 22.8023 25.6334 23.3307 25.9386C23.7021 26.0993 24.0732 26.083 24.4688 26.0254C24.9984 25.8148 25.3211 25.496 25.5938 24.9941C25.748 24.5315 25.7429 24.1256 25.588 23.6699C25.2712 23.1998 24.8421 22.7942 24.2813 22.6504C23.5152 22.5483 22.9752 22.9573 22.5122 23.5238Z"
            fill="#573FE7" />
        <path
            d="M26.6185 32.4718C26.6923 32.471 26.766 32.4703 26.842 32.4695C26.9982 32.4682 27.1544 32.4672 27.3106 32.4664C27.5493 32.4648 27.7879 32.4607 28.0266 32.4566C28.1783 32.4556 28.33 32.4548 28.4818 32.4542C28.5531 32.4526 28.6244 32.4509 28.6978 32.4492C29.0295 32.4506 29.213 32.4657 29.4801 32.6702C29.6541 32.9089 29.7118 33.0415 29.7188 33.3379C29.5054 33.8665 29.5054 33.8665 29.2501 33.9941C29.039 34.0021 28.8277 34.0042 28.6165 34.0033C28.5028 34.003 28.3891 34.0028 28.2719 34.0026C28.1268 34.0017 27.9816 34.0008 27.8321 34C27.3719 33.998 26.9117 33.9961 26.4376 33.9941C26.4376 35.4791 26.4376 36.9641 26.4376 38.4941C27.4895 38.4941 28.5413 38.4941 29.6251 38.4941C29.6251 37.9991 29.6251 37.5041 29.6251 36.9941C29.4472 37.0018 29.2693 37.0096 29.086 37.0175C28.5619 37.0403 28.5619 37.0403 28.2789 36.8286C28.1166 36.6076 28.074 36.5137 28.0782 36.2441C28.0772 36.1822 28.0763 36.1204 28.0753 36.0566C28.1521 35.7673 28.255 35.6671 28.5001 35.4941C28.7786 35.4391 29.0491 35.4417 29.3321 35.4472C29.4062 35.4458 29.4803 35.4443 29.5566 35.4428C30.0601 35.4462 30.3525 35.5355 30.7501 35.8691C31.2203 36.4919 31.2408 36.9625 31.2481 37.7148C31.2509 37.8056 31.2536 37.8964 31.2564 37.99C31.2616 38.5824 31.1899 39.0341 30.8438 39.5254C30.4884 39.8554 30.2582 40.0051 29.7779 40.0092C29.6931 40.0101 29.6082 40.011 29.5209 40.0119C29.429 40.0123 29.3371 40.0127 29.2424 40.0132C29.1481 40.0137 29.0537 40.0142 28.9565 40.0148C28.7566 40.0157 28.5566 40.0163 28.3567 40.0166C28.0511 40.0175 27.7456 40.0204 27.4401 40.0234C27.2459 40.024 27.0518 40.0245 26.8576 40.0249C26.7663 40.026 26.675 40.0272 26.5809 40.0284C26.0223 40.0265 25.6761 39.9744 25.2613 39.5722C24.9274 39.156 24.8324 38.8901 24.8287 38.3642C24.8278 38.2609 24.8269 38.1576 24.826 38.0512C24.8254 37.8838 24.8254 37.8838 24.8248 37.713C24.8243 37.5982 24.8237 37.4834 24.8232 37.3651C24.8223 37.122 24.8217 36.8789 24.8213 36.6357C24.8204 36.2642 24.8175 35.8926 24.8145 35.521C24.8139 35.2849 24.8134 35.0487 24.8131 34.8126C24.8119 34.7015 24.8108 34.5905 24.8096 34.4761C24.8112 33.8569 24.8254 33.3776 25.269 32.9024C25.7497 32.5348 26.0237 32.4775 26.6185 32.4718Z"
            fill="#573FE7" />
        <path
            d="M18.2151 32.476C18.2983 32.4745 18.3815 32.473 18.4673 32.4715C18.8477 32.4673 19.228 32.4635 19.6084 32.4613C19.8092 32.4597 20.01 32.4572 20.2108 32.4536C20.5 32.4485 20.7891 32.4464 21.0783 32.445C21.213 32.4419 21.213 32.4419 21.3503 32.4386C21.9718 32.4406 21.9718 32.4406 22.2753 32.714C22.4362 33.02 22.4631 33.1841 22.4062 33.5254C22.268 33.7745 22.268 33.7745 22.0312 33.9941C21.7519 34.0591 21.4802 34.0487 21.1948 34.0399C21.1142 34.0392 21.0335 34.0386 20.9505 34.0379C20.6934 34.0353 20.4366 34.0294 20.1796 34.0234C20.0052 34.0211 19.8308 34.0189 19.6563 34.017C19.2291 34.0118 18.8021 34.0037 18.375 33.9941C18.375 34.4891 18.375 34.9841 18.375 35.4941C18.5963 35.4898 18.8177 35.4854 19.0459 35.4809C19.2624 35.478 19.479 35.4757 19.6956 35.4735C19.8451 35.4716 19.9946 35.4691 20.144 35.4658C21.7815 35.431 21.7815 35.431 22.4989 36.0229C22.9937 36.6244 23.2149 37.1905 23.1895 37.9763C23.1085 38.5515 22.8273 39.1265 22.4062 39.5254C21.6438 40.0881 20.8417 40.0608 19.9366 40.0449C19.6977 40.041 19.4591 40.0411 19.2202 40.0417C19.0676 40.0407 18.915 40.0395 18.7624 40.0381C18.6914 40.038 18.6204 40.038 18.5473 40.038C18.2511 40.0313 18.0333 40.0121 17.7703 39.8705C17.5367 39.6171 17.537 39.3933 17.5312 39.0566C17.6574 38.7803 17.7267 38.6307 18 38.4941C18.2054 38.4818 18.4112 38.4751 18.617 38.471C18.7424 38.468 18.8679 38.4648 18.9933 38.4617C19.1908 38.4573 19.3883 38.4531 19.5858 38.4494C19.7765 38.4457 19.9673 38.4408 20.158 38.4359C20.3293 38.4324 20.3293 38.4324 20.504 38.4288C20.8061 38.4009 21.0143 38.3548 21.2812 38.2129C21.4959 37.9489 21.4959 37.9489 21.4628 37.6504C21.4009 37.3599 21.4009 37.3599 21.179 37.2131C20.8368 37.056 20.5795 37.0533 20.2034 37.0531C20.0665 37.0514 19.9296 37.0498 19.7927 37.0481C19.5788 37.0472 19.3649 37.0468 19.1509 37.047C18.9431 37.0467 18.7354 37.0441 18.5277 37.0414C18.404 37.0412 18.2803 37.041 18.1529 37.0408C17.7568 36.9865 17.5585 36.8689 17.25 36.6191C16.7797 35.9964 16.7593 35.5257 16.7519 34.7734C16.7492 34.6826 16.7465 34.5918 16.7437 34.4982C16.7385 33.9058 16.8101 33.4541 17.1562 32.9629C17.5079 32.6363 17.7396 32.4838 18.2151 32.476Z"
            fill="#573FE7" />
    </g>
    <defs>
        <clipPath id="clip0_88_2323">
            <rect width="48" height="48" fill="white" transform="translate(0 0.337891)" />
        </clipPath>
    </defs>
</svg>