<svg width="48" height="49" viewBox="0 0 48 49" fill="none" xmlns="http://www.w3.org/2000/svg">
<path d="M13.7911 4.01192C14.0381 4.01138 14.2851 4.01074 14.5321 4.00997C15.1308 4.00836 15.7295 4.00828 16.3282 4.00877C16.8153 4.00915 17.3025 4.00901 17.7896 4.00851C17.8941 4.00841 17.8941 4.00841 18.0006 4.0083C18.1421 4.00815 18.2835 4.00801 18.425 4.00787C19.7486 4.00658 21.0722 4.00709 22.3958 4.00816C23.6035 4.0091 24.8112 4.00788 26.0189 4.00564C27.2625 4.00335 28.5062 4.00245 29.7498 4.00308C30.4466 4.0034 31.1434 4.0032 31.8402 4.00155C32.4333 4.00016 33.0265 4.00012 33.6197 4.00175C33.9216 4.00254 34.2235 4.00255 34.5254 4.00131C36.6756 3.99314 38.5731 4.14943 40.1994 5.71532C40.3018 5.81901 40.3018 5.81901 40.4063 5.9248C40.4659 5.98232 40.5255 6.03985 40.5869 6.09911C41.7264 7.28164 42.0436 8.83027 42.0379 10.4143C42.0385 10.5518 42.0391 10.6893 42.0399 10.8268C42.0416 11.1973 42.0415 11.5679 42.0409 11.9384C42.0406 12.2492 42.0412 12.5599 42.0418 12.8707C42.0431 13.6046 42.043 14.3385 42.0419 15.0724C42.0408 15.8264 42.0421 16.5803 42.0446 17.3342C42.0467 17.9844 42.0473 18.6345 42.0468 19.2847C42.0465 19.6718 42.0467 20.0588 42.0483 20.4459C42.0498 20.8102 42.0494 21.1746 42.0476 21.539C42.0473 21.6716 42.0476 21.8042 42.0486 21.9369C42.061 23.7405 41.473 25.2481 40.2188 26.5498C38.4369 28.0962 36.6133 28.1857 34.3668 28.1799C34.1155 28.1803 33.8642 28.1808 33.6129 28.1814C33.0035 28.1827 32.3941 28.1824 31.7847 28.1816C31.289 28.181 30.7934 28.1809 30.2977 28.1812C30.2269 28.1812 30.1562 28.1813 30.0833 28.1813C29.9394 28.1814 29.7956 28.1815 29.6518 28.1816C28.3059 28.1824 26.9601 28.1815 25.6142 28.18C24.4615 28.1787 23.3089 28.1789 22.1562 28.1802C20.8149 28.1817 19.4735 28.1823 18.1322 28.1814C17.9889 28.1814 17.8457 28.1813 17.7024 28.1812C17.6319 28.1811 17.5615 28.1811 17.4889 28.1811C16.9943 28.1808 16.4997 28.1812 16.0051 28.1819C15.4017 28.1827 14.7983 28.1824 14.1949 28.181C13.8875 28.1802 13.5802 28.1801 13.2728 28.1809C11.0754 28.1859 9.24118 27.9944 7.59382 26.3623C6.39715 24.9976 5.95583 23.5696 5.96219 21.7791C5.96165 21.6416 5.961 21.5041 5.96024 21.3666C5.95857 20.996 5.95867 20.6255 5.9592 20.2549C5.95949 19.9441 5.95892 19.6334 5.95836 19.3226C5.95704 18.5887 5.95718 17.8548 5.95825 17.1209C5.95933 16.367 5.95801 15.6131 5.9555 14.8592C5.95341 14.209 5.9528 13.5588 5.95335 12.9086C5.95366 12.5215 5.95345 12.1345 5.95182 11.7475C5.95036 11.3831 5.95076 11.0188 5.95251 10.6544C5.95285 10.5217 5.95257 10.3891 5.95158 10.2565C5.93939 8.48815 6.47428 7.06853 7.70771 5.80541C9.46358 4.08649 11.4608 4.00735 13.7911 4.01192ZM8.93562 7.583C8.33717 8.29511 8.05261 9.11992 8.04877 10.0415C8.0481 10.1525 8.04743 10.2636 8.04674 10.378C8.04649 10.499 8.04624 10.62 8.04598 10.7447C8.04539 10.8741 8.04476 11.0035 8.04411 11.1329C8.04214 11.5571 8.04117 11.9814 8.04023 12.4056C8.03985 12.5521 8.03947 12.6986 8.03907 12.8451C8.03729 13.5338 8.03595 14.2225 8.03517 14.9112C8.03426 15.7038 8.03179 16.4965 8.028 17.2892C8.02516 17.9033 8.02378 18.5174 8.02347 19.1315C8.02325 19.4976 8.02243 19.8637 8.02006 20.2298C8.01786 20.5747 8.01748 20.9197 8.01844 21.2647C8.01851 21.4498 8.01673 21.635 8.01487 21.8202C8.02122 22.9209 8.25707 23.8443 9.00007 24.6748C9.07161 24.756 9.14316 24.8372 9.21687 24.9209C10.6376 26.1764 12.136 26.1359 13.9395 26.1296C14.1834 26.1301 14.4273 26.1307 14.6712 26.1316C15.2626 26.1332 15.8539 26.1329 16.4453 26.1318C16.9263 26.1309 17.4073 26.1308 17.8883 26.1312C17.957 26.1313 18.0257 26.1313 18.0964 26.1314C18.236 26.1315 18.3756 26.1316 18.5152 26.1318C19.8214 26.1328 21.1275 26.1316 22.4337 26.1296C23.5523 26.1279 24.6708 26.1282 25.7894 26.1299C27.0912 26.1319 28.3929 26.1327 29.6947 26.1316C29.8338 26.1315 29.9728 26.1313 30.1119 26.1312C30.1803 26.1312 30.2487 26.1311 30.3191 26.1311C30.799 26.1307 31.279 26.1313 31.7589 26.1322C32.4059 26.1333 33.0529 26.1325 33.6999 26.1303C33.9367 26.1298 34.1736 26.13 34.4104 26.1308C36.1021 26.1362 37.4846 26.0972 38.795 24.9033C39.743 23.847 39.966 22.9167 39.9633 21.5181C39.9637 21.3884 39.9642 21.2587 39.9648 21.1289C39.966 20.7779 39.9661 20.4269 39.9658 20.076C39.9657 19.7822 39.9662 19.4884 39.9666 19.1947C39.9677 18.5011 39.9677 17.8076 39.9672 17.1141C39.9666 16.4004 39.9678 15.6868 39.9697 14.9731C39.9714 14.3589 39.972 13.7446 39.9717 13.1303C39.9715 12.7641 39.9717 12.398 39.973 12.0318C39.9742 11.6871 39.974 11.3425 39.9728 10.9978C39.9725 10.8124 39.9735 10.6269 39.9746 10.4415C39.9674 9.2011 39.6444 8.16933 38.7774 7.25488C37.6782 6.23043 36.4388 6.09744 34.995 6.09976C34.8481 6.09944 34.8481 6.09944 34.6983 6.09912C34.3719 6.09853 34.0454 6.0986 33.719 6.09868C33.4843 6.0984 33.2495 6.09808 33.0148 6.09772C32.4443 6.09698 31.8739 6.09669 31.3034 6.09664C30.8394 6.09659 30.3754 6.0964 29.9115 6.0961C28.594 6.09528 27.2766 6.09484 25.9592 6.09491C25.8528 6.09492 25.8528 6.09492 25.7443 6.09493C25.6378 6.09493 25.6378 6.09493 25.5292 6.09494C24.3787 6.09497 23.2283 6.09408 22.0779 6.09276C20.8947 6.09141 19.7115 6.09076 18.5284 6.09084C17.8649 6.09087 17.2014 6.09062 16.5379 6.08961C15.9138 6.08866 15.2897 6.08869 14.6655 6.08937C14.437 6.08947 14.2084 6.08925 13.9798 6.08868C13.6668 6.08796 13.3538 6.0884 13.0408 6.08912C12.9065 6.0884 12.9065 6.0884 12.7695 6.08766C11.2415 6.09538 10.0019 6.45687 8.93562 7.583Z" fill="#573FE7"/>
<path d="M40.143 30.6144C40.335 30.7503 40.5109 30.8946 40.6876 31.0498C40.7444 31.0968 40.8012 31.1438 40.8597 31.1923C41.4679 31.7381 41.9445 32.5709 42.0167 33.3958C42.0568 34.7952 41.9214 35.8572 40.9688 36.956C40.4073 37.4832 39.7575 37.9105 39.0001 38.081C39.0964 38.1084 39.1927 38.1357 39.2919 38.1638C41.034 38.6721 42.3913 39.518 43.3206 41.1096C43.7181 41.8436 44.1243 42.7726 43.9688 43.6123C43.7648 43.8646 43.6022 44.03 43.3126 44.1748C42.8947 44.1863 42.5626 44.1428 42.211 43.9111C41.9581 43.5528 41.8144 43.1875 41.6536 42.781C41.2072 41.7091 40.5718 41.0085 39.5161 40.5185C38.4083 40.0761 37.3778 40.1701 36.2813 40.6123C35.187 41.1645 34.6329 42.0229 34.2188 43.1435C34.006 43.6402 33.7706 43.9301 33.2813 44.1748C32.7874 44.2309 32.5421 44.1049 32.1563 43.7998C31.9087 43.3045 32.0574 42.7197 32.2149 42.2178C32.5824 41.2088 33.0871 40.4355 33.8438 39.6748C33.8924 39.623 33.941 39.5711 33.991 39.5177C34.771 38.7602 35.9858 38.2937 37.0313 38.081C36.9667 38.0616 36.902 38.0421 36.8354 38.0221C35.7152 37.6548 34.8902 36.9788 34.336 35.9365C33.8586 34.9187 33.7984 33.8727 34.1276 32.7963C34.5673 31.608 35.3265 30.8389 36.4688 30.2998C37.6377 29.8843 39.0848 29.9598 40.143 30.6144ZM36.582 32.7318C36.0926 33.363 36.0043 33.9122 36.0938 34.706C36.3135 35.2722 36.7013 35.622 37.2071 35.9424C37.8539 36.1897 38.3804 36.0969 39.0001 35.831C39.4326 35.5668 39.7513 35.2083 39.8958 34.7167C40.0189 34.1327 39.9826 33.6224 39.6878 33.0987C39.3816 32.6734 38.9548 32.2951 38.4376 32.1748C37.709 32.0938 37.0964 32.1748 36.582 32.7318Z" fill="#573FE7"/>
<path d="M12.3984 30.7861C13.2446 31.4147 13.8356 32.3177 14.0328 33.3555C14.1852 34.5138 13.9791 35.5623 13.3136 36.5305C12.7129 37.2887 11.9266 37.8728 10.9688 38.0811C11.0651 38.1084 11.1614 38.1357 11.2606 38.1638C12.5275 38.5337 13.4892 39.0128 14.4375 39.9561C14.5153 40.0289 14.5153 40.0289 14.5946 40.1033C15.3127 40.8427 15.9467 42.1744 15.9785 43.2022C15.972 43.5487 15.9441 43.604 15.7148 43.8936C15.3572 44.1661 15.17 44.2182 14.7188 44.1748C14.1067 43.8388 13.8813 43.4859 13.6582 42.8389C13.3049 41.899 12.726 41.118 11.8121 40.6581C10.7008 40.1822 9.62651 40.0623 8.48401 40.5186C7.2986 41.0687 6.7019 41.8824 6.22852 43.0791C6.05576 43.5031 5.92534 43.8213 5.53125 44.0811C5.07566 44.2214 4.78673 44.2262 4.35938 44.0049C4.07342 43.7547 4.04029 43.6892 3.99609 43.3135C4.01865 41.9351 4.87182 40.668 5.77698 39.7015C6.68759 38.8268 7.78652 38.3698 9 38.0811C8.94211 38.0605 8.88423 38.04 8.82458 38.0188C7.51825 37.5297 6.81449 36.8657 6.20618 35.622C5.83104 34.7556 5.85204 33.5107 6.15234 32.626C6.35161 32.1736 6.61213 31.7951 6.9375 31.4248C6.98451 31.368 7.03152 31.3112 7.07996 31.2527C8.43625 29.7413 10.7837 29.7483 12.3984 30.7861ZM8.49609 32.8721C8.0672 33.4245 7.98008 33.9202 8.0625 34.6123C8.21357 35.1544 8.51982 35.4999 8.98059 35.8127C9.44826 36.066 9.89981 36.1635 10.4238 36.0537C11.0589 35.8555 11.4797 35.4766 11.8206 34.9126C12.0172 34.4386 11.977 33.8504 11.8484 33.3606C11.627 32.8532 11.2511 32.5474 10.7812 32.2686C9.90465 31.9764 9.1088 32.1943 8.49609 32.8721Z" fill="#573FE7"/>
<path d="M26.3145 30.7392C27.2232 31.3911 27.8258 32.2827 28.0313 33.3935C28.1148 34.7575 27.8867 35.7958 27.0239 36.8806C26.4798 37.4756 25.7912 37.8278 25.0313 38.081C25.1742 38.1204 25.1742 38.1204 25.3199 38.1605C27.1174 38.6756 28.472 39.5875 29.3977 41.2528C29.7514 41.9954 30.1582 42.8832 29.9063 43.706C29.747 43.9583 29.6248 44.0537 29.3387 44.1374C28.9569 44.203 28.7373 44.1964 28.377 44.04C28.0614 43.7391 27.9171 43.4476 27.7501 43.0498C27.2599 41.9092 26.6398 41.0535 25.4829 40.5174C24.4784 40.1282 23.5075 40.1339 22.5001 40.5185C21.9585 40.787 21.4936 41.0912 21.0938 41.5498C21.03 41.6213 20.9662 41.6929 20.9005 41.7666C20.5667 42.2296 20.358 42.7269 20.1622 43.2607C19.9821 43.7242 19.7589 43.9517 19.3126 44.1748C18.9137 44.1786 18.572 44.1481 18.2345 43.9287C17.994 43.548 17.9793 43.173 18.0532 42.7348C18.5404 41.0765 19.4143 39.7517 20.9063 38.831C21.5599 38.4867 22.2445 38.2259 22.9688 38.081C22.8985 38.057 22.8282 38.0329 22.7557 38.0082C21.5964 37.5745 20.8117 36.8421 20.2508 35.7424C19.8411 34.8411 19.831 33.734 20.1212 32.7959C20.5374 31.7139 21.2353 30.8925 22.295 30.3994C23.6265 29.8326 25.0947 29.997 26.3145 30.7392ZM22.4649 32.8662C22.0839 33.3528 21.9783 33.8093 22.0313 34.4248C22.1602 35.1211 22.5978 35.5191 23.1563 35.9248C23.6572 36.0917 24.2542 36.1123 24.7625 35.9577C25.2834 35.6845 25.6684 35.2336 25.9102 34.706C26.0521 34.0252 25.9587 33.5115 25.5938 32.9248C25.2213 32.5098 24.8209 32.2139 24.2579 32.1514C23.5041 32.1146 22.9776 32.3077 22.4649 32.8662Z" fill="#573FE7"/>
<path d="M21.996 9.90918C22.0842 9.90435 22.1724 9.89951 22.2633 9.89453C23.0982 10.05 23.8566 10.6558 24.5481 11.1287C24.6321 11.1855 24.7161 11.2424 24.8027 11.301C25.0686 11.4812 25.3341 11.6619 25.5995 11.8428C25.8617 12.0208 26.124 12.1987 26.3864 12.3765C26.5586 12.4934 26.7308 12.6103 26.903 12.7273C27.5346 13.1563 28.1692 13.5807 28.8071 14.0003C29.5176 14.4704 30.0191 14.8418 30.2412 15.6938C30.3278 16.2264 30.2599 16.6994 29.9999 17.1748C29.6027 17.7241 29.1254 18.0748 28.5592 18.4371C28.4744 18.4926 28.3897 18.548 28.3023 18.6051C28.0289 18.7836 27.7547 18.9606 27.4804 19.1377C27.2927 19.2598 27.1052 19.3821 26.9177 19.5044C26.5497 19.7444 26.1815 19.984 25.8131 20.2233C25.0993 20.6878 24.3922 21.1619 23.6861 21.638C23.6069 21.6911 23.5278 21.7442 23.4462 21.799C23.3801 21.8435 23.3141 21.8881 23.2461 21.934C22.7186 22.2666 22.2233 22.3944 21.6001 22.2904C21.0308 22.1384 20.5509 21.9346 20.2393 21.4031C19.981 20.856 19.9146 20.4023 19.9201 19.8014C19.9195 19.712 19.9188 19.6225 19.9181 19.5304C19.9165 19.2372 19.9176 18.9442 19.9188 18.651C19.9186 18.4459 19.9182 18.2408 19.9178 18.0357C19.9172 17.607 19.918 17.1782 19.9198 16.7495C19.9219 16.2011 19.9207 15.6527 19.9184 15.1043C19.9171 14.6812 19.9175 14.2581 19.9185 13.8349C19.9187 13.6328 19.9184 13.4306 19.9175 13.2284C19.9166 12.9455 19.918 12.6627 19.9201 12.3798C19.9194 12.297 19.9186 12.2143 19.9178 12.129C19.9264 11.4942 20.0889 11.0012 20.5073 10.5164C20.5597 10.4745 20.612 10.4327 20.6659 10.3896C20.718 10.3464 20.7701 10.3031 20.8237 10.2585C21.2006 10.0126 21.5486 9.92365 21.996 9.90918ZM22.0311 12.1123C22.0311 14.742 22.0311 17.3717 22.0311 20.0811C22.3741 19.9439 22.6061 19.8378 22.9009 19.6376C22.977 19.5862 23.0531 19.5348 23.1316 19.4818C23.2129 19.4263 23.2943 19.3707 23.3781 19.3135C23.5063 19.2267 23.5063 19.2267 23.6371 19.1382C23.9107 18.9529 24.1838 18.767 24.4569 18.5811C24.726 18.3985 24.9952 18.216 25.2645 18.0335C25.4396 17.9148 25.6145 17.7958 25.7894 17.6767C26.1818 17.4096 26.5752 17.1447 26.9744 16.8877C27.0408 16.8446 27.1072 16.8016 27.1757 16.7572C27.2976 16.6786 27.42 16.6007 27.543 16.5238C27.7194 16.413 27.7194 16.413 27.9374 16.2373C27.9374 16.1445 27.9374 16.0517 27.9374 15.9561C27.7887 15.8169 27.7887 15.8169 27.5855 15.6924C27.5084 15.6416 27.4312 15.5908 27.3518 15.5385C27.2668 15.484 27.1819 15.4296 27.0944 15.3734C27.0068 15.3161 26.9193 15.2589 26.8291 15.1998C26.5468 15.0154 26.2636 14.8324 25.9804 14.6494C25.7959 14.5293 25.6114 14.4092 25.427 14.2889C25.154 14.1108 24.8808 13.9329 24.6074 13.7554C23.9417 13.3232 23.2804 12.8849 22.6228 12.4405C22.3479 12.2161 22.3479 12.2161 22.0311 12.1123Z" fill="#573FE7"/>
</svg>
