<svg width="105" height="26" viewBox="0 0 105 26" fill="none" xmlns="http://www.w3.org/2000/svg">
    <mask id="mask0_114_1045" style="mask-type:luminance" maskUnits="userSpaceOnUse" x="0" y="0"
        width="105" height="26">
        <path d="M104.591 0.63623H0.668945V25.924H104.591V0.63623Z" fill="white" />
    </mask>
    <g mask="url(#mask0_114_1045)">
        <path fill-rule="evenodd" clip-rule="evenodd"
            d="M98.0976 6.98779H97.9203H88.0429H87.8646C84.2573 6.98779 81.3584 9.86936 81.3584 13.4567C81.3584 17.044 84.2573 19.9257 87.8646 19.9257H88.0429H97.9203H98.0976C101.706 19.9257 104.604 17.044 104.604 13.4567C104.545 9.86936 101.646 6.98779 98.0976 6.98779Z"
            fill="#21CFB2" />
        <path fill-rule="evenodd" clip-rule="evenodd"
            d="M2.98689 6.28187V7.28165H0.680176V9.69277H2.98689V19.5138H6.0034V9.75157H8.7834V7.34045H6.12175V6.16428C6.12175 4.69406 6.71319 3.51785 8.7834 3.51785H9.61145V0.63623H8.19186C4.76133 0.63623 2.98689 2.75334 2.98689 6.28187Z"
            fill="#002E33" />
        <path fill-rule="evenodd" clip-rule="evenodd"
            d="M32.6228 6.98779C31.3215 6.98779 29.3697 7.69342 28.8373 9.22244V7.28176H25.8208V19.514H28.8373V13.0451C28.8373 10.6927 30.5526 9.81057 31.9722 9.81057C33.3326 9.81057 34.5747 10.8103 34.5747 12.8098V19.514H37.5912V12.6922C37.532 9.10485 35.8167 6.98779 32.6228 6.98779Z"
            fill="#002E33" />
        <path fill-rule="evenodd" clip-rule="evenodd"
            d="M16.6546 6.98779C13.1057 6.98779 10.2075 9.5165 10.2075 13.3979C10.2075 17.2205 12.9874 19.8669 16.6546 19.8669C18.9022 19.8669 21.0907 18.8671 22.2144 17.1028L20.1443 15.5738C19.4345 16.5148 18.1332 17.1028 16.832 17.1028C14.9393 17.1028 13.6972 16.2207 13.3423 14.4564H22.9242C22.9242 13.986 22.9833 13.6331 22.9833 13.2803C22.865 9.5165 20.1443 6.98779 16.6546 6.98779ZM13.2831 12.3982C13.6972 10.5163 14.9985 9.69298 16.6546 9.69298C18.3698 9.69298 19.6711 10.6927 19.9077 12.3982H13.2831Z"
            fill="#002E33" />
        <path fill-rule="evenodd" clip-rule="evenodd"
            d="M46.7552 6.98779C43.2064 6.98779 40.3081 9.5165 40.3081 13.3979C40.3081 17.2205 43.0881 19.8669 46.7552 19.8669C49.0029 19.8669 51.1912 18.8671 52.3151 17.1028L50.2449 15.5738C49.5352 16.5736 48.2339 17.1616 46.8735 17.1616C44.9808 17.1616 43.7387 16.2795 43.3838 14.5152H52.9657C52.9657 14.0448 53.0249 13.6919 53.0249 13.3391C53.0249 9.5165 50.2449 6.98779 46.7552 6.98779ZM43.3838 12.3982C43.7978 10.5163 45.0991 9.69298 46.7552 9.69298C48.4705 9.69298 49.7717 10.6927 50.0083 12.3982H43.3838Z"
            fill="#002E33" />
        <path fill-rule="evenodd" clip-rule="evenodd"
            d="M75.5595 8.92847C74.672 7.63462 73.0158 6.98779 71.4189 6.98779C68.1657 6.98779 65.3267 9.5165 65.3267 13.3979C65.3267 17.2793 68.1657 19.8669 71.4189 19.8669C72.8975 19.8669 74.672 19.22 75.4997 17.9261V18.279C75.4997 21.8076 74.0213 23.1601 71.6554 23.1601C70.295 23.1601 68.9346 22.3956 68.3432 21.1606L65.7998 22.3368C66.9236 24.5128 69.112 25.9242 71.5963 25.9242C75.7956 25.9242 78.5162 23.5718 78.5162 18.0438V7.34065H75.5595V8.92847ZM71.9511 17.044C70.0584 17.044 68.4614 15.4562 68.4614 13.3979C68.4614 11.3396 69.9993 9.81057 71.9511 9.81057C73.6664 9.81057 75.4997 11.222 75.4997 13.3979C75.4997 15.515 73.8438 17.044 71.9511 17.044Z"
            fill="#002E33" />
        <path fill-rule="evenodd" clip-rule="evenodd"
            d="M58.9975 9.92816V7.28177H55.981V19.514H59.0566V15.2209C59.0566 11.7512 60.1805 9.75178 62.1323 9.75178C62.7829 9.75178 63.3744 9.86937 63.9658 10.2222L64.5573 7.34066C64.0842 7.10539 63.256 6.87012 62.5463 6.87012C60.9493 6.9878 59.5889 7.8699 58.9975 9.92816Z"
            fill="#002E33" />
        <path fill-rule="evenodd" clip-rule="evenodd"
            d="M88.042 9.81006C86.1492 9.81006 84.5522 11.2803 84.5522 13.3974C84.5522 15.5733 86.0894 17.0435 88.042 17.0435C89.9935 17.0435 91.5317 15.5733 91.5317 13.3974C91.5317 11.2803 89.875 9.81006 88.042 9.81006Z"
            fill="white" />
        <path fill-rule="evenodd" clip-rule="evenodd"
            d="M88.043 6.98779C84.5533 6.98779 81.4771 9.5753 81.4771 13.3979C81.4771 17.3381 84.4936 19.8669 88.043 19.8669C91.5327 19.8669 94.608 17.2793 94.608 13.3979C94.608 9.5753 91.5327 6.98779 88.043 6.98779ZM88.043 17.044C86.1502 17.044 84.5533 15.5738 84.5533 13.3979C84.5533 11.2808 86.0905 9.81057 88.043 9.81057C89.9946 9.81057 91.5327 11.2808 91.5327 13.3979C91.5327 15.5738 89.8761 17.044 88.043 17.044Z"
            fill="#002E33" />
    </g>
</svg>