<svg width="145" height="17" viewBox="0 0 145 17" fill="none" xmlns="http://www.w3.org/2000/svg">
    <path
        d="M11.3482 0.385254H7.96215C7.83221 0.385254 7.7252 0.492316 7.7252 0.622326V6.16584H4.10217V0.622326C4.10217 0.492316 3.99516 0.385254 3.86522 0.385254H0.479138C0.349197 0.385254 0.242188 0.492316 0.242188 0.622326V15.6548C0.242188 15.7848 0.349197 15.8919 0.479138 15.8919H3.85757C3.98752 15.8919 4.09452 15.7848 4.09452 15.6548V9.62197H7.71756V15.6548C7.71756 15.7848 7.82456 15.8919 7.95451 15.8919H11.3482C11.4781 15.8919 11.5852 15.7848 11.5852 15.6548V0.622326C11.5852 0.492316 11.4781 0.385254 11.3482 0.385254Z"
        fill="#39424E" />
    <path
        d="M19.5442 3.70361C18.5429 3.70361 17.5644 3.85657 16.6472 4.15481C15.7376 4.45295 14.8739 4.82762 14.079 5.27872C13.9643 5.33998 13.9261 5.48526 13.9873 5.59991L15.1873 7.80971C15.2485 7.92435 15.3937 7.97025 15.5083 7.90909C16.1351 7.59558 16.7389 7.33566 17.2893 7.15207C17.8243 6.96857 18.3594 6.87687 18.8791 6.87687C19.6053 6.87687 20.1479 7.00679 20.4996 7.26681C20.7747 7.47325 20.9506 7.73318 21.0346 8.06963C19.7887 8.15375 18.7033 8.29144 17.8091 8.48252C16.8383 8.69664 16.0281 8.97952 15.4014 9.32365C14.7593 9.68305 14.2854 10.1265 13.9873 10.6464C13.6892 11.1664 13.5439 11.7781 13.5439 12.4586C13.5439 12.9785 13.6433 13.4679 13.8267 13.9114C14.0178 14.3549 14.2854 14.7448 14.6294 15.0813C14.9733 15.4177 15.3937 15.6853 15.8905 15.8688C16.3797 16.0523 16.93 16.1517 17.5416 16.1517C18.3059 16.1517 19.0626 15.9912 19.781 15.6853C20.4002 15.4177 20.9811 15.0889 21.5161 14.7066L21.7072 15.6853C21.7301 15.8 21.8295 15.8765 21.9442 15.8765H24.7111C24.8411 15.8765 24.9481 15.7695 24.9481 15.6394V9.09426C24.9481 7.28208 24.4589 5.91341 23.4882 5.0188C22.5174 4.14713 21.1951 3.70361 19.5442 3.70361ZM21.0805 12.0992C20.7213 12.3668 20.3467 12.5886 19.9493 12.7721C19.5365 12.9633 19.0931 13.0627 18.6193 13.0627C18.176 13.0627 17.8243 12.9862 17.5798 12.8333C17.3657 12.7033 17.2664 12.5045 17.2664 12.2215C17.2664 12.0228 17.3198 11.8316 17.4269 11.6558C17.5339 11.4799 17.7326 11.3193 18.0077 11.1816C18.3136 11.0288 18.7339 10.8988 19.2613 10.7994C19.7505 10.7076 20.3544 10.6312 21.0728 10.5853V12.0992H21.0805Z"
        fill="#39424E" />
    <path
        d="M37.1745 11.9767C37.1363 11.9231 37.0828 11.8849 37.0141 11.8696C36.9529 11.8543 36.8841 11.8696 36.8306 11.9078C36.4484 12.1907 36.0051 12.4354 35.5159 12.6419C35.042 12.8406 34.5146 12.9477 33.949 12.9477C33.0547 12.9477 32.3515 12.6801 31.8011 12.1449C31.2508 11.602 30.9833 10.8832 30.9833 9.94276C30.9833 9.00225 31.2584 8.28344 31.8318 7.74064C32.3973 7.20533 33.1464 6.93014 34.0636 6.93014C34.8509 6.93014 35.6611 7.2207 36.4561 7.78645C36.5631 7.86297 36.7082 7.84002 36.7848 7.73296L38.3516 5.63791C38.4281 5.53853 38.4128 5.40083 38.3211 5.31672C37.8089 4.85794 37.1669 4.468 36.4179 4.16218C34.935 3.5657 32.9553 3.55812 31.289 4.12396C30.4636 4.39916 29.7298 4.80445 29.103 5.33199C28.4762 5.85962 27.9641 6.51716 27.5896 7.28945C27.215 8.06173 27.0239 8.95635 27.0239 9.94276C27.0239 10.9215 27.1921 11.816 27.5284 12.5883C27.8647 13.3606 28.3386 14.0258 28.9348 14.5534C29.531 15.081 30.2342 15.4863 31.0291 15.7616C31.8164 16.0368 32.6878 16.182 33.6203 16.182C34.4229 16.182 35.2636 16.0444 36.1274 15.7691C36.9911 15.4939 37.7861 15.0428 38.5045 14.4464C38.5962 14.3699 38.6191 14.2323 38.5504 14.1329L37.1745 11.9767Z"
        fill="#39424E" />
    <path
        d="M48.0492 8.94125L52.2532 4.38406C52.3143 4.31531 52.3372 4.21583 52.299 4.12413C52.2608 4.04002 52.1767 3.97886 52.0774 3.97886H48.3702C48.3015 3.97886 48.2403 4.00939 48.1944 4.05529L44.3268 8.1996V0.614514C44.3268 0.484503 44.2198 0.377441 44.0898 0.377441H40.7038C40.5739 0.377441 40.4668 0.484503 40.4668 0.614514V15.647C40.4668 15.777 40.5739 15.8841 40.7038 15.8841H44.0898C44.2198 15.8841 44.3268 15.777 44.3268 15.647V12.9097L45.7485 11.5257L48.5613 15.777C48.6072 15.8458 48.6836 15.8841 48.7601 15.8841H52.4213C52.513 15.8841 52.5894 15.8306 52.6353 15.754C52.6736 15.6776 52.6736 15.5782 52.6201 15.5094L48.0492 8.94125Z"
        fill="#39424E" />
    <path
        d="M63.1852 5.34744C62.719 4.82749 62.1227 4.42219 61.4196 4.13163C60.7163 3.84108 59.9062 3.6958 59.0042 3.6958C58.2093 3.6958 57.4296 3.84108 56.6959 4.12405C55.9545 4.40692 55.2894 4.82749 54.7162 5.3627C54.143 5.89792 53.6767 6.55556 53.3327 7.32016C52.9888 8.08477 52.813 8.96412 52.813 9.92748C52.813 10.9139 52.9888 11.7932 53.3327 12.5578C53.6767 13.3225 54.1506 13.98 54.7392 14.5153C55.3277 15.0505 56.0309 15.4634 56.8258 15.7387C57.6131 16.0139 58.4768 16.1592 59.394 16.1592C60.1813 16.1592 60.9992 16.0368 61.8094 15.7922C62.6272 15.5475 63.3763 15.2111 64.0336 14.7829C64.1407 14.7141 64.1712 14.5765 64.1177 14.4694L63.0171 12.4508C62.9559 12.336 62.8107 12.2902 62.6961 12.3514C62.2068 12.6037 61.7253 12.7948 61.2744 12.9248C60.8311 13.0472 60.3494 13.1083 59.8526 13.1083C59.0578 13.1083 58.3775 12.9248 57.8195 12.5578C57.3379 12.2443 57.0169 11.7626 56.8335 11.0974H64.2324C64.347 11.0974 64.4387 11.021 64.4694 10.9062C64.4999 10.7609 64.5305 10.5622 64.5687 10.2946C64.5993 10.0345 64.6145 9.7364 64.6145 9.4229C64.6145 8.61998 64.4923 7.85538 64.2553 7.1672C64.0107 6.47903 63.6515 5.8597 63.1852 5.34744ZM56.7876 8.5206C56.9328 7.96244 57.1927 7.53419 57.5672 7.259C58.0106 6.93023 58.5074 6.762 59.073 6.762C59.7762 6.762 60.2884 6.94549 60.5941 7.29721C60.8616 7.61831 61.0221 8.0236 61.0604 8.51292H56.7876V8.5206Z"
        fill="#39424E" />
    <path
        d="M77.5405 4.18534C77.1889 4.0248 76.8449 3.90247 76.5162 3.82594C76.1876 3.74183 75.7519 3.70361 75.2245 3.70361C74.2691 3.70361 73.3595 3.94069 72.5263 4.41474C71.8384 4.80467 71.227 5.3782 70.6995 6.11217L70.4855 4.19303C70.4702 4.0707 70.3709 3.9789 70.2485 3.9789H67.4816C67.3517 3.9789 67.2446 4.08596 67.2446 4.21597V15.6471C67.2446 15.777 67.3517 15.8841 67.4816 15.8841H70.8677C70.9976 15.8841 71.1046 15.777 71.1046 15.6471V9.7518C71.5709 8.79602 72.1212 8.11553 72.748 7.73318C73.39 7.34324 74.0474 7.14448 74.7124 7.14448C75.1251 7.14448 75.469 7.16743 75.7367 7.22091C76.0118 7.2744 76.3252 7.35092 76.6691 7.45799C76.7303 7.48093 76.799 7.46557 76.8602 7.43504C76.9137 7.40441 76.9596 7.35092 76.9748 7.28208L77.6627 4.44537C77.701 4.34589 77.6475 4.23124 77.5405 4.18534Z"
        fill="#39424E" />
    <path
        d="M88.2885 9.74407C89.0146 9.37709 89.6185 8.84946 90.0848 8.16897C90.6046 7.41963 90.8644 6.45626 90.8644 5.30162C90.8644 4.37647 90.7039 3.58892 90.3753 2.95423C90.0466 2.31963 89.6033 1.80727 89.0376 1.42502C88.4873 1.05035 87.8375 0.775059 87.1114 0.614514C86.4006 0.461555 85.6286 0.377441 84.8107 0.377441H79.4908C79.3609 0.377441 79.2539 0.484503 79.2539 0.614514V15.647C79.2539 15.777 79.3609 15.8841 79.4908 15.8841H82.8769C83.0069 15.8841 83.1138 15.777 83.1138 15.647V10.4705H84.505L87.3178 15.7617C87.356 15.8382 87.4401 15.8917 87.5318 15.8917H91.3307C91.4148 15.8917 91.4912 15.8458 91.537 15.7693C91.5829 15.6929 91.5829 15.6012 91.537 15.5323L88.2885 9.74407ZM84.5432 7.2973H83.1215V3.55829H84.5432C85.3993 3.55829 86.049 3.69589 86.4618 3.95591C86.8515 4.20056 87.0427 4.64408 87.0427 5.29394C87.0427 6.6627 86.2477 7.2973 84.5432 7.2973Z"
        fill="#39424E" />
    <path
        d="M98.2342 3.70361C97.2328 3.70361 96.2542 3.85657 95.3372 4.15481C94.4276 4.45295 93.5639 4.82762 92.7689 5.27872C92.6543 5.33998 92.616 5.48526 92.6772 5.59991L93.8772 7.80971C93.9383 7.92435 94.0836 7.97025 94.1983 7.90909C94.825 7.59558 95.4291 7.33566 95.9792 7.15207C96.514 6.96857 97.0488 6.87687 97.5694 6.87687C98.2949 6.87687 98.8382 7.00679 99.1891 7.26681C99.4651 7.47325 99.6405 7.73318 99.7249 8.06963C98.4788 8.15375 97.3931 8.29144 96.4988 8.48252C95.5278 8.69664 94.718 8.97952 94.0912 9.32365C93.4492 9.68305 92.9753 10.1265 92.6772 10.6464C92.3791 11.1664 92.2339 11.7781 92.2339 12.4586C92.2339 12.9785 92.3333 13.4679 92.5167 13.9114C92.7077 14.3549 92.9753 14.7448 93.3192 15.0813C93.6632 15.4177 94.0836 15.6853 94.5804 15.8688C95.0697 16.0523 95.6198 16.1517 96.2314 16.1517C96.9957 16.1517 97.7525 15.9912 98.4713 15.6853C99.0905 15.4177 99.6708 15.0889 100.206 14.7066L100.397 15.6853C100.42 15.8 100.52 15.8765 100.634 15.8765H103.401C103.531 15.8765 103.638 15.7695 103.638 15.6394V9.09426C103.638 7.28208 103.149 5.91341 102.178 5.0188C101.215 4.14713 99.8927 3.70361 98.2342 3.70361ZM99.7704 12.0992C99.411 12.3668 99.0364 12.5886 98.6391 12.7721C98.2266 12.9633 97.7828 13.0627 97.3096 13.0627C96.8658 13.0627 96.514 12.9862 96.2693 12.8333C96.056 12.7033 95.9564 12.5045 95.9564 12.2215C95.9564 12.0228 96.0095 11.8316 96.1167 11.6558C96.2238 11.4799 96.423 11.3193 96.698 11.1816C97.0033 11.0288 97.4234 10.8988 97.9516 10.7994C98.44 10.7076 99.044 10.6312 99.7628 10.5853V12.0992H99.7704Z"
        fill="#39424E" />
    <path
        d="M113.416 3.70361C112.522 3.70361 111.727 3.89479 111.055 4.26178C110.504 4.56769 110.008 4.927 109.556 5.3323L109.365 4.18534C109.342 4.0707 109.243 3.98658 109.129 3.98658H106.362C106.232 3.98658 106.125 4.09364 106.125 4.22356V15.6547C106.125 15.7847 106.232 15.8918 106.362 15.8918H109.748C109.878 15.8918 109.984 15.7847 109.984 15.6547V8.12321C110.343 7.77149 110.673 7.51147 110.985 7.32798C111.292 7.15207 111.659 7.06037 112.079 7.06037C112.621 7.06037 112.996 7.20565 113.195 7.48852C113.408 7.80203 113.523 8.32197 113.523 9.03309V15.6471C113.523 15.777 113.63 15.8841 113.76 15.8841H117.146C117.276 15.8841 117.384 15.777 117.384 15.6471V8.59726C117.384 7.10626 117.062 5.91341 116.435 5.04174C115.808 4.15481 114.784 3.70361 113.416 3.70361Z"
        fill="#39424E" />
    <path
        d="M132.058 15.5171L127.487 8.94125L131.691 4.38406C131.752 4.31531 131.775 4.21583 131.737 4.12413C131.698 4.04002 131.615 3.97886 131.515 3.97886H127.808C127.739 3.97886 127.678 4.00939 127.632 4.05529L123.765 8.1996V0.614514C123.765 0.484503 123.658 0.377441 123.528 0.377441H120.141C120.011 0.377441 119.904 0.484503 119.904 0.614514V15.647C119.904 15.777 120.011 15.8841 120.141 15.8841H123.528C123.658 15.8841 123.765 15.777 123.765 15.647V12.9097L125.186 11.5257L127.991 15.7847C128.037 15.8534 128.114 15.8917 128.19 15.8917H131.851C131.943 15.8917 132.02 15.8382 132.065 15.7617C132.112 15.6852 132.103 15.5858 132.058 15.5171Z"
        fill="#39424E" />
    <path
        d="M144.753 15.8919C144.883 15.8919 144.99 15.7848 144.99 15.6548V0.622326C144.99 0.492316 144.883 0.385254 144.753 0.385254H133.876C133.746 0.385254 133.64 0.492316 133.64 0.622326V15.6548C133.64 15.7848 133.746 15.8919 133.876 15.8919H144.753Z"
        fill="#32C766" />
</svg>