<svg width="146" height="41" viewBox="0 0 146 41" fill="none" xmlns="http://www.w3.org/2000/svg">
    <g clip-path="url(#clip0_114_892)">
        <g clip-path="url(#clip1_114_892)">
            <path
                d="M59.3638 24.1306C59.3899 24.5474 59.3118 24.9381 59.1295 25.2767C58.8171 25.8497 58.5046 26.4227 58.1662 27.0218C57.8799 27.5427 57.6715 28.0897 57.6195 28.6887C57.5934 28.845 57.5674 29.0274 57.6715 29.2097C58.1142 28.5586 58.5307 27.9595 58.9994 27.3604C59.5461 26.6832 60.1188 26.0059 60.7957 25.459C61.1602 25.1464 61.5508 24.886 62.0454 24.7557C62.6963 24.5734 63.217 24.7818 63.5815 25.3548C63.8939 25.8497 63.972 26.3966 63.998 26.9697C64.0761 29.0534 62.6182 31.3195 60.6916 32.1269C60.1188 32.3613 59.52 32.4655 58.9212 32.3613C58.739 32.3353 58.6609 32.3874 58.6088 32.5437C57.7757 34.5753 57.203 36.659 56.9165 38.847C56.8384 39.3939 56.5781 39.5242 56.1094 39.2117C55.3805 38.6907 55.016 37.9874 54.9639 37.1019C54.9118 35.9557 55.2243 34.8358 55.5627 33.7679C55.8492 32.9083 56.1876 32.0488 56.5781 31.2153C56.6301 31.1111 56.6823 31.0069 56.6042 30.8506C56.0574 29.8348 56.0834 28.7669 56.4219 27.699C56.8645 26.2664 57.6976 25.0682 58.8171 24.0524C58.8692 24.0004 58.9472 23.9483 58.9994 23.9222C59.2337 23.8702 59.3638 23.8961 59.3638 24.1306ZM12.1886 15.3008C15.7032 15.405 18.9576 16.499 22.0297 18.0878C24.1126 19.1557 25.961 20.5101 27.5491 22.2552C28.3823 23.1669 29.0592 24.1566 29.5799 25.2767C30.413 27.152 30.1787 28.9231 29.0331 30.5901C28.0959 31.9446 26.7681 32.726 25.2321 33.2209C22.8369 34.0283 20.3895 34.0804 17.9422 33.4814C17.708 33.4293 17.6819 33.4814 17.6558 33.6897C17.6038 34.3669 17.4215 34.5753 16.8749 34.6274C16.2239 34.6795 15.8334 34.445 15.6772 33.846C15.5992 33.5334 15.547 33.1948 15.521 32.8562C15.495 32.6479 15.4169 32.5437 15.2346 32.4394C13.6205 31.6841 12.2145 30.6943 10.991 29.392C10.7566 29.1316 10.5223 28.845 10.34 28.5325C9.87147 27.7251 10.0016 26.9697 10.7566 26.3966C11.2513 26.0059 11.798 25.7195 12.3707 25.5111C13.308 25.1725 14.2713 24.8599 15.2607 24.7296C15.495 24.7037 15.5992 24.5994 15.5992 24.365C15.5992 23.245 15.7293 22.151 15.9376 21.0571C15.9636 20.9269 16.0157 20.7706 16.0677 20.6403C16.1719 20.3539 16.3542 20.3017 16.6145 20.4841C16.8749 20.6925 17.0311 20.9529 17.1352 21.2394C17.4996 22.151 17.5518 23.0887 17.5777 24.0524C17.6038 24.4432 17.6038 24.4432 17.9683 24.4432C19.6085 24.391 21.1966 24.6515 22.7327 25.1985C23.3315 25.4069 23.8782 25.7455 24.2688 26.2664C24.7895 26.9436 24.7895 27.699 24.2427 28.3241C23.5919 29.0794 22.8889 29.1055 22.1339 28.845C22.0558 28.819 21.9777 28.7669 21.9516 28.6627C21.9516 28.5586 22.0297 28.5064 22.1078 28.4543C22.3161 28.3241 22.5504 28.2459 22.7588 28.0637C23.0711 27.751 23.0451 27.4906 22.6285 27.3083C22.0818 27.0738 21.509 26.9436 20.9363 26.8134C19.9209 26.605 18.9056 26.4488 17.8641 26.4227C17.6558 26.4227 17.5777 26.4488 17.5777 26.6832C17.6299 28.2981 17.6558 29.939 17.6819 31.5539C17.6819 31.6841 17.6558 31.7883 17.8641 31.8144C20.2854 32.205 22.6806 32.179 24.9717 31.2153C25.8829 30.8246 26.716 30.2776 27.2367 29.392C27.9657 28.1678 27.9397 26.9176 27.3669 25.6413C26.5859 23.8961 25.3102 22.5418 23.8001 21.3957C20.806 19.1557 17.4476 17.8013 13.7767 17.1501C12.0844 16.8636 10.3661 16.7594 8.64778 16.9678C8.20518 17.0198 7.78862 17.098 7.31999 17.3325C7.55431 17.4366 7.71052 17.4366 7.86673 17.4626C8.02294 17.4887 8.17915 17.5147 8.30932 17.5929C8.41346 17.6711 8.49157 17.7752 8.49157 17.9055C8.46553 18.0357 8.36139 18.1138 8.25725 18.1399C7.76259 18.2441 7.24189 18.218 6.77326 18.0097C6.48688 17.8794 6.46084 17.6189 6.53895 17.3584C6.77326 16.5771 7.29396 16.0561 8.07502 15.8217C9.45486 15.4571 10.8087 15.2747 12.1886 15.3008ZM54.8598 24.1827C55.3805 24.1566 55.771 24.391 56.0574 24.7818C56.1876 24.9641 56.2917 25.1464 56.3958 25.3287C56.5781 25.6934 56.5 25.9017 56.0834 25.9799C55.3805 26.1102 54.6775 26.1622 53.9746 26.2144C53.6101 26.2403 53.2456 26.2664 52.8551 26.2925C52.7249 26.2925 52.6468 26.3446 52.5948 26.4748C52.5426 26.6832 52.4645 26.8916 52.3865 27.0738C52.3084 27.2562 52.3604 27.3083 52.5687 27.2822C53.1936 27.2302 53.8183 27.2302 54.4432 27.2822C54.7817 27.3083 54.8858 27.4124 54.8858 27.7251C54.8858 28.5845 54.8858 28.6367 54.0787 28.6887C53.4018 28.7148 52.7249 28.7669 52.048 28.793C51.8398 28.793 51.7356 28.8711 51.7095 29.0794C51.6315 29.418 51.5273 29.7827 51.3972 30.1213C51.3191 30.3557 51.3972 30.4079 51.6054 30.3557C52.5167 30.1734 53.4539 29.9911 54.3912 29.8869C54.7036 29.8608 54.9118 29.939 55.1201 30.1474C55.4325 30.512 55.4325 30.8767 55.0941 31.1892C54.3912 31.8405 53.5841 32.2572 52.6988 32.5958C52.3865 32.726 52.0741 32.7781 51.7356 32.8562C50.4859 33.1688 49.2883 31.9186 49.4446 30.6423C49.5226 30.1474 49.6007 29.6525 49.783 29.1576C49.8611 28.9492 49.8871 28.7669 49.809 28.5586C49.7569 28.4283 49.7309 28.272 49.7049 28.1418C49.6528 27.6729 49.7569 27.5427 50.2255 27.4906C50.4338 27.4646 50.5119 27.3865 50.59 27.2302C50.7203 26.9176 50.9025 26.605 51.0326 26.2925C51.0326 26.2664 51.0326 26.2664 51.0326 26.2144C50.5119 26.1622 50.0693 25.9799 49.783 25.485C49.5486 25.0682 49.6007 24.912 50.0434 24.8078C51.0066 24.5734 51.996 24.4432 52.9853 24.339C53.6101 24.2088 54.2349 24.1827 54.8598 24.1827ZM71.5481 22.2292C71.7825 23.5316 71.9647 24.8338 72.0429 26.1622C72.0429 26.3966 72.121 26.4748 72.3553 26.4748C73.631 26.4748 74.9067 26.4748 76.1824 26.4748C76.3907 26.4748 76.5729 26.5269 76.7292 26.6832V27.8553C76.5989 28.0376 76.4167 28.0897 76.2084 28.0897C74.9327 28.0897 73.683 28.0897 72.4073 28.0897C72.173 28.0897 72.1469 28.1418 72.1469 28.3762C72.173 29.6264 72.121 30.8506 71.9907 32.0749C71.9387 32.5437 71.8606 32.6218 71.418 32.6218C71.2097 32.6218 71.0015 32.6218 70.7931 32.6218C70.4547 32.6218 70.3246 32.4916 70.3766 32.153C70.5328 30.9028 70.5588 29.6525 70.5588 28.4023C70.5588 28.1678 70.4807 28.1157 70.2724 28.1157C69.0228 28.1157 67.7991 28.1157 66.5495 28.1157C66.1069 28.1157 66.0027 28.0115 66.0027 27.5688C66.0027 27.3865 66.0027 27.178 66.0027 26.9957C66.0027 26.6311 66.1069 26.5269 66.4714 26.5269C67.695 26.5269 68.9186 26.5269 70.1423 26.5269C70.4027 26.5269 70.4807 26.4748 70.4547 26.1883C70.3505 24.9381 70.1943 23.6617 69.96 22.4376C69.8819 22.0208 69.96 21.8906 70.3766 21.8906C70.6109 21.8906 70.8192 21.8906 71.0535 21.8906C71.3399 21.8124 71.4961 21.9166 71.5481 22.2292ZM31.923 24.4692C32.2614 24.6255 32.3917 24.9381 32.4698 25.2506C32.652 26.0581 32.7041 26.9176 32.7561 27.751C32.8082 28.3501 32.8082 28.9753 32.8603 29.6004C32.8863 30.3037 32.9384 30.9809 32.8863 31.6841C32.8603 32.205 32.652 32.4916 32.2875 32.5437C31.6626 32.6218 31.22 32.4135 31.0638 31.9186C30.9597 31.5539 30.9337 31.1892 30.9076 30.8246C30.8295 29.0274 30.8556 27.2562 31.168 25.485C31.22 25.1985 31.2981 24.912 31.4284 24.6515C31.5325 24.4171 31.7148 24.365 31.923 24.4692ZM38.5099 24.1046C39.4211 24.1046 40.3063 24.1827 41.1394 24.5213C41.3477 24.5994 41.634 24.6515 41.634 24.9381C41.634 25.2506 41.4518 25.459 41.1654 25.6153C40.7749 25.8236 40.3583 25.8236 39.9418 25.8497C38.8483 25.9278 37.7288 25.9017 36.6353 26.032C36.1146 26.0841 35.5939 26.1622 35.0993 26.3185C34.9951 26.3446 34.865 26.3706 34.865 26.5008C34.865 26.6571 35.0212 26.6571 35.1254 26.6832C35.8543 26.8394 36.6093 26.8916 37.3643 26.9697C38.1714 27.0738 39.0045 27.178 39.8116 27.3604C41.7382 27.8292 41.8163 30.3297 40.827 31.2934C40.2802 31.8405 39.6294 32.1269 38.8744 32.2572C37.3383 32.5437 35.9063 32.2311 34.6567 31.2934C34.3182 31.0329 34.0058 30.7204 33.8496 30.3037C33.6153 29.6785 33.8756 29.0534 34.4744 28.7148C34.917 28.4543 35.4377 28.3762 35.9324 28.3762C36.9738 28.4023 37.9631 28.5586 38.9003 29.0013C39.0565 29.0794 39.2388 29.1316 39.2128 29.3399C39.2128 29.5222 39.0565 29.6264 38.9003 29.7046C38.1975 30.0432 37.4945 30.1995 36.7395 29.8608C36.3229 29.6785 35.8803 29.4702 35.4377 29.366C35.2034 29.3139 34.9951 29.3399 34.7868 29.418C34.6046 29.4962 34.4744 29.6264 34.4483 29.8348C34.4224 30.0171 34.5786 30.1474 34.7087 30.2255C35.0212 30.4079 35.3856 30.512 35.7241 30.5381C36.9738 30.6162 38.1975 30.486 39.343 29.913C39.4471 29.8608 39.5252 29.8088 39.6294 29.7566C39.8376 29.6264 40.098 29.4962 40.0459 29.1836C40.0199 28.8972 39.7595 28.7669 39.5252 28.6627C38.8222 28.3501 38.0672 28.272 37.3122 28.1678C36.3489 28.0637 35.3856 28.0376 34.4224 27.8813C33.433 27.7251 33.0945 27.126 33.407 26.1622C33.5632 25.6413 33.9277 25.2767 34.3703 24.9901C35.1254 24.5213 35.9844 24.3129 36.8436 24.1827C37.4164 24.1306 37.9631 24.0785 38.5099 24.1046ZM46.7109 23.0887C46.9972 23.245 47.2316 23.4794 47.4398 23.7139C48.2209 24.5734 48.6374 25.5892 48.8457 26.7092C49.1061 28.0637 49.1061 29.418 48.6635 30.7465C48.5854 30.9548 48.4812 31.1632 48.325 31.3195C47.7783 31.9706 47.0233 31.9967 46.4505 31.3976C45.8777 30.7985 45.4611 30.0693 45.0707 29.3399C44.7842 28.819 44.4979 28.2981 44.2376 27.7771C44.1854 27.699 44.1595 27.5948 44.0553 27.5948C43.9511 27.6209 43.9772 27.7251 43.9511 27.8292C43.873 28.4543 43.847 29.1055 43.847 29.7566C43.821 30.3818 43.821 31.0329 43.6647 31.632C43.5607 32.0488 43.3523 32.2572 42.9878 32.2832C42.6494 32.3093 42.3109 32.1008 42.1808 31.7362C41.9725 31.1892 41.9985 30.6162 41.9985 30.0693C42.0246 28.6887 42.2068 27.3343 42.5973 26.0059C42.6754 25.7195 42.8056 25.4069 42.9619 25.1464C43.3003 24.6515 43.6647 24.5994 44.1073 25.0423C44.8103 25.7715 45.3571 26.605 45.8777 27.4646C46.2162 28.0115 46.5807 28.5586 46.9191 29.1055C46.9712 29.2097 47.0493 29.3399 47.1795 29.3139C47.3357 29.2618 47.2836 29.1055 47.2836 29.0274C47.2576 28.1418 47.0493 27.2822 46.841 26.4488C46.6587 25.6153 46.4245 24.8078 46.1902 24.0004C46.138 23.792 46.086 23.5836 46.1121 23.3753C46.2162 22.9845 46.3984 22.9064 46.7109 23.0887ZM15.3388 26.5269C14.6879 26.579 14.0631 26.6311 13.4382 26.7352C12.6572 26.8655 11.8761 26.9957 11.1472 27.3343C10.6525 27.5688 10.6004 27.8292 10.9649 28.272C11.043 28.3501 11.1211 28.4543 11.1992 28.5325C11.9282 29.2878 12.8133 29.8608 13.7246 30.3818C14.2974 30.7204 14.8962 30.9809 15.521 31.1632C15.521 31.1372 15.547 31.1372 15.547 31.1111C15.547 29.6264 15.547 28.1418 15.547 26.6571C15.521 26.5008 15.4429 26.5269 15.3388 26.5269ZM62.1756 26.6571L60.8478 28.2459C60.3791 28.8972 59.9366 29.5744 59.5461 30.3297C59.9887 30.2776 60.3791 30.1734 60.7437 29.9911C62.0194 29.392 62.8004 28.4283 62.9306 26.9957C62.9566 26.7613 63.0088 26.4488 62.7223 26.3446C62.514 26.2664 62.3318 26.5008 62.1756 26.6571ZM33.7455 16.8376C34.3443 16.8376 34.865 17.0459 35.2815 17.5147C35.3596 17.6189 35.4638 17.645 35.5679 17.6711C36.6353 17.9055 37.1561 18.8171 36.7915 19.859C36.6874 20.1454 36.5573 20.432 36.3489 20.6664C35.3596 21.7864 34.2141 22.5939 32.7301 22.9325C32.1573 23.0627 31.5585 23.0367 31.0118 22.8543C30.8556 22.8022 30.7775 22.8283 30.7254 22.9845V23.0106C30.5953 23.2189 30.4911 23.5055 30.1787 23.4534C29.8662 23.4273 29.7361 23.1669 29.6319 22.9325C29.5799 22.8283 29.5278 22.6981 29.5538 22.5939C29.6059 22.1771 29.4236 21.8385 29.1893 21.526C29.0071 21.2394 28.929 20.9008 28.929 20.5622C28.929 20.0934 29.0592 19.6506 29.3196 19.2599C30.413 17.7231 31.8449 16.8636 33.7455 16.8376ZM34.891 18.7129C34.6046 18.765 34.3182 18.8691 34.0579 19.0515C33.433 19.4422 32.8603 19.911 32.3395 20.458C32.0792 20.7445 31.871 21.0311 31.6366 21.3436C31.5585 21.4738 31.5585 21.526 31.7148 21.526H32.2354C33.3029 21.526 34.2662 21.1874 35.0993 20.5361C35.3856 20.3017 35.646 20.0412 35.7762 19.6767C35.9584 19.0515 35.5158 18.5827 34.891 18.7129ZM32.2614 18.5566C31.4544 18.5305 30.2307 19.4682 30.0485 20.2236C29.9965 20.4841 30.0224 20.6143 30.1787 20.8487C30.7515 19.9892 31.4544 19.2338 32.2614 18.5566Z"
                fill="#01147B" />
            <path
                d="M43.3308 1.18311C42.5236 1.18311 41.7166 1.2352 40.9616 1.33938C39.1912 1.57381 37.4469 1.80823 35.7286 2.27707C33.9843 2.74591 32.2659 3.37102 30.6518 4.17847C27.2672 5.81941 24.2211 8.05942 21.6958 10.8204C20.6543 11.9404 19.7432 13.1385 18.884 14.3887C18.7017 14.6753 18.7798 14.8837 19.0922 14.9878C19.2745 15.0659 19.4828 15.1181 19.665 15.1962C20.0295 15.3004 20.1336 15.2744 20.342 14.9618C20.8366 14.2585 21.3052 13.5292 21.904 12.878C22.5289 12.2009 23.1537 11.4976 23.7785 10.8204C24.5075 10.1432 25.2625 9.49199 26.0175 8.86687C28.9335 6.52267 32.37 4.77755 35.9628 3.76173C39.764 2.69381 43.7734 2.45939 47.6525 3.03242C50.1259 3.39707 52.5471 4.10033 54.8643 5.11615C57.4677 6.2622 59.915 7.825 62.0759 9.70036C64.7835 12.0445 66.9444 14.9097 68.5586 18.1134C68.7409 18.4781 68.9231 18.8688 69.1054 19.2335C69.5219 20.1711 69.3657 20.1711 70.2248 20.1451C70.329 20.1451 70.4331 20.1451 70.5633 20.1451C70.8757 20.1451 71.084 20.0148 70.9799 19.6762C70.355 18.0092 69.4178 16.3944 68.4544 14.8837C67.4652 13.3469 66.3456 11.9143 65.096 10.5859L65.0179 10.5078C63.0392 8.42407 60.7741 6.57476 58.2748 5.16824C57.2855 4.56917 56.244 4.07428 55.1767 3.63149C54.3436 3.21474 53.4583 2.92823 52.5732 2.64171C50.7247 2.04264 48.7981 1.6259 46.8455 1.41753C45.726 1.28729 44.5544 1.20915 43.4089 1.20915C43.3568 1.18311 43.3308 1.18311 43.3308 1.18311Z"
                fill="url(#paint0_radial_114_892)" />
            <path
                d="M126.637 22.3589C128.095 22.3589 129.292 22.9059 130.073 24.0259H130.1V22.6454H131.948V32.5431H130.1V31.0065H130.073C129.37 32.1786 128.12 32.8036 126.715 32.8036C123.825 32.8036 121.455 30.6157 121.455 27.7766C121.455 24.5729 123.721 22.3589 126.637 22.3589ZM97.0872 22.3589C99.821 22.3589 102.398 24.4947 102.347 27.6464C102.32 30.3552 100.003 32.8818 96.7492 32.7776C93.9891 32.6994 91.6459 30.3032 91.6719 27.5422C91.724 24.5729 94.0931 22.3589 97.0872 22.3589ZM112.058 22.3589C113.697 22.3589 115.051 23.505 115.104 25.2501H113.255C113.177 24.5469 112.76 24.052 111.979 24.052C111.277 24.052 110.808 24.5469 110.808 25.1199C110.808 25.9534 111.667 26.2139 112.656 26.5264C114.062 26.9431 115.338 27.8027 115.338 29.6259C115.338 31.5273 113.932 32.7776 112.005 32.7776C110.209 32.7776 108.517 31.5534 108.517 29.2873H110.365C110.443 30.4855 111.068 31.0846 112.031 31.0846C112.89 31.0846 113.463 30.5376 113.463 29.7301C113.463 29.0529 112.943 28.6101 111.797 28.2194C109.375 27.438 108.959 26.3962 108.959 25.2762C108.959 23.531 110.443 22.3589 112.058 22.3589ZM81.1799 19.3115C82.1952 19.3115 83.0283 20.1449 83.0283 21.1608V23.6873H83.0544C83.6532 22.8018 84.5904 22.3589 85.814 22.3589C88.1833 22.3589 89.9276 23.8697 89.9276 26.5785V32.5431H88.0791V27.1516C88.0791 25.0157 87.246 24.052 85.6058 24.052C83.9916 24.052 83.0022 25.2241 83.0022 27.1516V32.5431H81.1538V19.3115H81.1799ZM106.329 19.3115V22.6454H107.944V24.3385H106.329V32.5431C105.314 32.5431 104.481 31.7097 104.481 30.6938V24.3385H103.726V22.6454H104.481V19.3115H106.329ZM119.243 19.3115V22.6454H120.857V24.3385H119.243V32.5431C118.228 32.5431 117.394 31.7097 117.394 30.6938V24.3385H116.639V22.6454H117.394V19.3115H119.243ZM138.639 22.3589V24.2603C137.025 24.3125 136.218 25.3022 136.218 26.9692V30.6678C136.218 31.6837 135.384 32.5172 134.369 32.5172V22.6454H136.114V23.531H136.139C136.556 22.8799 137.337 22.4371 138.639 22.3589ZM126.689 24.078C124.736 24.078 123.148 25.8492 123.331 27.9329C123.486 29.652 124.892 31.0585 126.611 31.0846C128.564 31.1366 130.126 29.4957 130.126 27.5943C130.126 25.6668 128.746 24.078 126.689 24.078ZM97.0089 24.078C94.8742 24.078 93.0778 26.1357 93.6505 28.4538C94.0411 30.0166 95.473 31.1366 97.0614 31.1106C98.9616 31.0585 100.498 29.5478 100.498 27.5683C100.498 25.6148 98.9616 24.078 97.0089 24.078Z"
                fill="#01147B" />
        </g>
    </g>
    <defs>
        <radialGradient id="paint0_radial_114_892" cx="0" cy="0" r="1"
            gradientUnits="userSpaceOnUse"
            gradientTransform="translate(70.0574 20.141) scale(49.7979 49.8216)">
            <stop stop-color="#01147B" />
            <stop offset="0.03" stop-color="#011098" />
            <stop offset="0.06" stop-color="#010ABD" />
            <stop offset="0.1" stop-color="#0006DA" />
            <stop offset="0.14" stop-color="#0003EE" />
            <stop offset="0.18" stop-color="#0001FB" />
            <stop offset="0.22" stop-color="#0000FF" />
            <stop offset="1" stop-color="#00FFFF" stop-opacity="0" />
        </radialGradient>
        <clipPath id="clip0_114_892">
            <rect width="145.14" height="40" fill="white" transform="translate(0 0.280273)" />
        </clipPath>
        <clipPath id="clip1_114_892">
            <rect width="145.14" height="38.1947" fill="white" transform="translate(0 1.18311)" />
        </clipPath>
    </defs>
</svg>