<svg width="135" height="22" viewBox="0 0 135 22" fill="none" xmlns="http://www.w3.org/2000/svg">
    <path d="M0.717285 16.248H15.0851L10.2958 11.5914H5.5066V6.9349L0.717285 2.27832V16.248Z"
        fill="#303030" />
    <path
        d="M18.8924 15.8659L19.7197 15.7538C20.4555 15.6641 20.7081 15.5304 20.7081 15.3511V3.12713C20.7081 2.94772 20.5708 2.85972 19.5129 2.74753L18.9153 2.65792L18.8457 2.27832H26.4773L26.4078 2.65792L25.4423 2.77001C24.8447 2.81401 24.4539 2.94772 24.4539 3.17199V15.6648L25.2583 15.777C27.5563 15.777 28.9821 14.8386 30.5223 11.5756L30.7749 11.0391H31.4878L30.8444 16.2471H18.8237L18.8924 15.8659Z"
        fill="#303030" />
    <path
        d="M33.2245 15.8661L33.5465 15.8436C34.2137 15.7996 34.4663 15.7315 34.4663 15.4641V9.60919C34.4663 8.22317 34.2815 8.04536 33.5008 7.82033L33.0405 7.70815L37.7976 6.20255V15.484C37.7976 15.6858 37.9349 15.7299 38.9004 15.8412L39.1072 15.8635L39.1767 16.243H33.155L33.2236 15.8635L33.2245 15.8661ZM34.0288 3.06002C34.0288 2.09912 34.8096 1.18311 36.0048 1.18311C37.2 1.18311 38.0053 2.09997 38.0053 3.06002C38.0053 4.02082 37.2474 4.95935 36.0048 4.95935C34.7629 4.95935 34.0288 4.02007 34.0288 3.06002Z"
        fill="#303030" />
    <path
        d="M40.7264 14.9038C40.7264 13.6971 41.9673 12.8026 43.3244 12.423V12.4007C42.014 11.9538 41.1189 11.1043 41.1189 9.56291C41.1189 7.77567 42.9574 6.09814 45.6699 6.09814C46.7049 6.09814 47.8078 6.34394 48.5206 6.74668L51.8766 6.38965L51.6917 7.81967L49.3938 7.48416L49.3708 7.5514C49.8761 7.97671 50.1761 8.60201 50.1761 9.29464C50.1761 11.2836 48.2909 12.6913 45.5098 12.6913C44.935 12.6913 44.4069 12.6456 43.9238 12.556C43.3261 12.7129 42.9134 13.1373 42.9134 13.5625C42.9134 14.0981 43.4415 14.3448 44.6595 14.3448C45.3725 14.3448 47.0499 14.2776 47.9231 14.2776C49.9684 14.2776 51.3942 15.3954 51.3942 17.1826C51.3942 19.5736 48.7054 21.6298 44.9122 21.6298C41.9242 21.6298 40.4526 20.8916 40.4526 19.3951C40.4526 18.2107 41.8088 17.6078 43.188 17.0929C41.8326 16.9351 40.7281 15.9751 40.7281 14.9021H40.7264V14.9038ZM49.2327 18.7257C49.2327 17.5853 48.4503 17.2283 46.8194 17.1161C46.3142 17.0489 45.2563 17.0938 43.7627 17.1601C43.0956 17.4517 42.9125 18.0322 42.9125 18.8369C42.9125 20.0436 44.1077 20.9596 46.1065 20.9596C47.9696 20.9605 49.2327 19.9996 49.2327 18.7257ZM47.0499 9.47235C47.0499 7.55064 46.5219 6.58888 45.6471 6.58888C44.7045 6.58888 44.3137 7.3496 44.3137 9.44987C44.3137 11.3933 44.796 12.2437 45.6471 12.2437C46.6125 12.2445 47.0499 11.5062 47.0499 9.47235Z"
        fill="#303030" />
    <path
        d="M53.1005 15.8427C53.7904 15.7986 54.0193 15.7305 54.0193 15.4631V4.33378C54.0193 3.23917 53.8819 3.03737 53.2386 2.83643L52.5952 2.59054L57.3989 1.0708V8.04358H57.4218C58.5942 7.10506 59.9733 6.10025 61.3982 6.10025C62.1561 6.10025 62.7536 6.36767 63.3062 6.90497C63.8343 7.44142 64.0641 8.4688 64.0641 9.56502V15.4656C64.0641 15.6217 64.1793 15.7115 65.1898 15.8452L65.4424 15.8675L65.511 16.2471H59.5588L59.6274 15.8675L60.0181 15.8452C60.776 15.8011 60.754 15.645 60.754 15.4656V10.2136C60.754 8.56012 60.0411 8.1349 58.9612 8.1349C58.2941 8.1349 57.7431 8.35832 57.3523 8.58174V15.4872C57.3523 15.689 57.4675 15.7787 58.2483 15.8443L58.6162 15.8667L58.684 16.2462H52.7071L53.0979 15.8435L53.1005 15.8427Z"
        fill="#303030" />
    <path
        d="M76.0682 15.9547L75.999 13.0946L76.6421 13.1402L77.263 14.3917C78.0448 15.5087 78.6657 16.0909 79.8606 16.0909C81.0561 16.0909 81.6762 15.4655 81.6762 14.5038C81.6762 13.4533 80.5042 13.0505 79.2175 12.5589C77.4715 11.9111 76.0446 11.2185 76.0446 9.38553C76.0446 7.39659 77.7002 6.12256 80.181 6.12256C81.0085 6.12256 81.9512 6.27874 82.5713 6.47968L83.6965 6.12256L83.8125 9.45286L83.215 9.47524L81.469 6.97298C81.1009 6.77119 80.7107 6.61586 80.1582 6.61586C79.1699 6.61586 78.5496 7.17488 78.5496 8.08998C78.5496 9.09658 79.6071 9.47609 80.9856 9.9894C82.5713 10.6147 84.2718 11.2633 84.2718 13.2299C84.2718 14.973 82.8691 16.5601 79.7901 16.5601C78.3874 16.5601 76.9646 16.3143 76.0668 15.9556"
        fill="#303030" />
    <path
        d="M85.2911 21.4751L85.7746 21.4294C86.4183 21.3854 86.6717 21.3396 86.6717 21.0714V9.60741C86.6717 8.2213 86.5115 8.04197 85.7289 7.81856L85.2455 7.70647L90.0275 6.20656L89.9813 8.11006L90.0738 8.15406C90.9242 7.10355 92.1882 6.1875 93.5898 6.1875C95.9103 6.1875 97.7509 8.26615 97.7509 11.0143C97.7509 14.5671 94.8548 16.5569 92.027 16.5569C91.1764 16.5569 90.4869 16.4231 90.0738 16.2438H90.0054V21.1162C90.0054 21.2956 90.1422 21.4078 91.0863 21.4294L91.8677 21.4751L91.9379 21.8546H85.2261L85.2958 21.4751H85.2911ZM94.1635 11.9096C94.1635 9.62903 93.1754 8.04359 91.6354 8.04359C90.9223 8.04359 90.44 8.31271 90.0028 8.62498V14.2789C90.7383 15.3967 91.6117 16.0893 92.2556 16.0893C93.4513 16.0893 94.1635 14.3013 94.1635 11.9096Z"
        fill="#303030" />
    <path
        d="M99.1685 11.5105C99.1685 8.35966 101.652 5.99121 104.869 5.99121C107.581 5.99121 108.982 7.66798 108.982 9.34379C108.982 9.56721 108.96 9.81301 108.914 10.0148C108.914 10.0148 103.605 9.94757 102.707 9.90272C102.684 10.1046 102.684 10.4616 102.684 10.6635C102.707 13.0096 103.949 14.6415 105.971 14.6415C107.236 14.6415 108.178 14.0369 108.798 12.9207L109.074 13.0545C108.269 15.2893 106.661 16.54 104.132 16.54C101.33 16.5391 99.1685 14.4389 99.1685 11.5105ZM105.904 9.4776C105.927 8.00348 105.604 6.55004 104.548 6.55004C103.653 6.55004 102.87 7.57827 102.709 9.49998L105.904 9.4776Z"
        fill="#303030" />
    <path
        d="M110.47 11.5746C110.47 8.42372 112.95 6.05518 116.169 6.05518C118.882 6.05518 120.283 7.73194 120.283 9.40785C120.283 9.63127 120.26 9.87707 120.213 10.0789C120.213 10.0789 114.905 10.0116 114.007 9.96678C113.984 10.1686 113.984 10.5257 113.984 10.7275C114.007 13.0737 115.249 14.7056 117.271 14.7056C118.536 14.7056 119.478 14.1009 120.099 12.9847L120.374 13.1185C119.568 15.3533 117.961 16.604 115.432 16.604C112.627 16.604 110.467 14.5037 110.467 11.5755L110.47 11.5746ZM117.203 9.54156C117.226 8.06745 116.904 6.6141 115.847 6.6141C114.951 6.6141 114.169 7.64223 114.009 9.56404L117.203 9.54156Z"
        fill="#303030" />
    <path
        d="M129.578 14.5921L129.532 14.548C128.704 15.6202 127.349 16.5595 125.993 16.5595C123.648 16.5595 121.832 14.4368 121.832 11.687C121.832 8.13426 124.728 6.18923 127.693 6.18923C128.521 6.18923 129.119 6.30132 129.556 6.45665C129.556 6.45665 129.579 6.50065 129.579 6.45665V4.0881C129.579 2.97026 129.418 2.72446 128.796 2.56828L127.924 2.32248L132.91 0.74707V13.8538C132.91 14.9484 133.048 15.195 133.715 15.3736L134.359 15.5297L134.312 15.8196L129.579 16.5786V14.5896V14.5921H129.578ZM129.578 14.0323V8.49139C128.887 7.39678 128.015 6.68092 127.417 6.68092C126.153 6.68092 125.441 8.42406 125.441 10.8383C125.441 13.2525 126.429 14.7723 127.9 14.7723C128.59 14.7723 129.095 14.4368 129.579 14.0348"
        fill="#303030" />
    <path
        d="M74.5754 14.301C74.161 14.6141 73.54 14.9039 72.7127 14.9039C71.4951 14.9039 70.8976 14.345 70.9204 12.5795L70.9881 7.88641H74.2287L74.527 6.50029H71.011L71.0337 3.87012L67.8354 4.88005L67.8535 6.49365H67.2557L66.987 6.75529L65.8198 7.88973H66.0486L67.8616 7.95449L67.7694 13.228C67.7236 15.4405 68.7117 16.5135 70.8272 16.5135C72.413 16.5135 73.6078 15.7088 74.6658 14.5909L74.5733 14.301H74.5754Z"
        fill="#303030" />
</svg>