<svg width="145" height="41" viewBox="0 0 145 41" fill="none" xmlns="http://www.w3.org/2000/svg">
    <g clip-path="url(#clip0_114_917)">
        <g clip-path="url(#clip1_114_917)">
            <mask id="mask0_114_917" style="mask-type:luminance" maskUnits="userSpaceOnUse" x="12"
                y="7" width="120" height="26">
                <path d="M131.846 7.63623H12.8535V32.924H131.846V7.63623Z" fill="white" />
            </mask>
            <g mask="url(#mask0_114_917)">
                <path
                    d="M44.2942 17.0638C44.6893 15.5835 44.5261 14.4508 43.8041 13.6658C43.0824 12.8808 41.8203 12.4858 40.0185 12.4805H33.1134L28.9507 28.0982H32.2939L33.9774 21.7764H36.1851C36.589 21.7561 36.9915 21.8386 37.3548 22.016C37.5024 22.1083 37.6253 22.2348 37.7134 22.3848C37.8014 22.5347 37.852 22.7037 37.8607 22.8775L38.4639 28.0982H42.0469L41.4621 23.2488C41.3462 22.1662 40.8483 21.5288 39.9841 21.3364C41.0297 21.0481 41.9837 20.4966 42.7557 19.7349C43.5015 19.0007 44.0334 18.0774 44.2942 17.0638ZM41.0933 17.1192C40.9492 17.7595 40.5569 18.3165 40.0026 18.6681C39.4756 19 38.7064 19.1633 37.7289 19.1633H34.6255L35.7162 15.083H38.8224C39.797 15.083 40.4663 15.249 40.8351 15.5782C41.2039 15.9075 41.283 16.4291 41.0933 17.1192Z"
                    fill="#0C2651" />
                <path
                    d="M53.9494 16.9349L53.5252 18.5155C53.3484 17.9506 52.9744 17.4682 52.4713 17.1563C51.8846 16.8042 51.2082 16.6303 50.5245 16.6558C49.5652 16.656 48.6225 16.9066 47.7899 17.3827C46.8834 17.9025 46.1006 18.6125 45.4951 19.4638C44.8278 20.3842 44.3391 21.4215 44.054 22.522C43.755 23.5014 43.6919 24.5375 43.8696 25.5459C44.0053 26.3425 44.4315 27.0604 45.0657 27.5611C45.7551 28.0539 46.5902 28.3008 47.4369 28.2618C48.1928 28.2635 48.9402 28.1017 49.6277 27.7876C50.3153 27.4733 50.9267 27.0141 51.4202 26.4416L50.9829 28.0905H54.2418L57.2134 16.9349H53.9494ZM52.4688 22.4667C52.2672 23.375 51.8186 24.21 51.1726 24.8796C50.8943 25.1519 50.5646 25.3661 50.2029 25.51C49.841 25.6537 49.4543 25.7242 49.065 25.7172C48.235 25.7172 47.6765 25.4538 47.3762 24.8927C47.0759 24.3317 47.0679 23.5494 47.342 22.522C47.5504 21.6056 48.0059 20.7638 48.6592 20.088C48.9384 19.8075 49.2706 19.5854 49.6366 19.4348C50.0026 19.2842 50.3948 19.2081 50.7906 19.2108C51.602 19.2108 52.1553 19.4928 52.4398 20.0538C52.7243 20.6149 52.7533 21.4077 52.474 22.464L52.4688 22.4667Z"
                    fill="#0C2651" />
                <path
                    d="M68.8387 16.9429H59.4518L58.759 19.5454H64.223L57.0385 25.812L56.4248 28.1116H66.1198L66.8127 25.5091H60.9509L68.2539 19.1529L68.8387 16.9429Z"
                    fill="#0C2651" />
                <path
                    d="M79.1068 17.351C78.235 16.8529 77.2408 16.6101 76.2377 16.6503C75.1062 16.6405 73.9864 16.8797 72.9578 17.351C71.9572 17.8174 71.078 18.5089 70.3891 19.3714C69.6694 20.276 69.1495 21.3228 68.8636 22.4428C68.5561 23.4388 68.5181 24.4985 68.753 25.5141C68.9686 26.3572 69.5044 27.0829 70.2468 27.5371C71.002 28.0025 71.968 28.2353 73.1448 28.2353C74.2641 28.245 75.3717 28.0066 76.3878 27.5371C77.3853 27.0706 78.2603 26.3779 78.9434 25.5141C79.6645 24.61 80.1853 23.5631 80.4715 22.4428C80.7796 21.4467 80.8167 20.3865 80.5795 19.3714C80.372 18.5311 79.8432 17.8057 79.1068 17.351ZM77.2045 22.4374C76.9121 23.5333 76.4828 24.3551 75.9031 24.8978C75.3438 25.4305 74.5968 25.7212 73.8244 25.7065C72.1208 25.7065 71.5596 24.6169 72.1409 22.4374C72.4273 21.3557 72.8665 20.5401 73.4583 19.9904C74.0247 19.4486 74.7821 19.1523 75.5659 19.1659C76.3773 19.1659 76.9305 19.4293 77.215 19.9904C77.4997 20.5515 77.4917 21.3548 77.2045 22.4374Z"
                    fill="#0C2651" />
                <path
                    d="M114.599 16.9347L114.175 18.5152C113.998 17.9504 113.624 17.4679 113.121 17.156C112.536 16.8007 111.858 16.624 111.174 16.6476C110.213 16.6497 109.27 16.9031 108.437 17.3825C107.529 17.9021 106.746 18.6121 106.139 19.4634C105.474 20.3845 104.984 21.4216 104.698 22.5217C104.402 23.5016 104.338 24.5371 104.514 25.5457C104.65 26.3422 105.075 27.0601 105.71 27.5608C106.409 28.0577 107.254 28.3045 108.11 28.2616C108.849 28.2587 109.579 28.0989 110.252 27.7927C110.946 27.4811 111.563 27.0197 112.057 26.4412L111.619 28.0903H114.878L117.853 16.9347H114.599ZM113.11 22.4665C112.91 23.3745 112.462 24.2094 111.817 24.8793C111.538 25.1507 111.208 25.3645 110.847 25.5083C110.485 25.652 110.098 25.7229 109.71 25.7169C108.877 25.7169 108.318 25.4535 108.018 24.8924C107.717 24.3314 107.713 23.5491 107.984 22.5217C108.193 21.6057 108.648 20.7642 109.301 20.0878C109.581 19.8074 109.913 19.5855 110.28 19.4349C110.647 19.2843 111.039 19.2081 111.435 19.2106C112.246 19.2106 112.796 19.4916 113.085 20.0536C113.39 20.5988 113.397 21.4074 113.11 22.4638V22.4665Z"
                    fill="#0C2651" />
                <path
                    d="M90.706 19.9379L91.5386 16.9007C91.1875 16.7418 90.8041 16.667 90.4189 16.6821C89.6659 16.6829 88.9257 16.877 88.2692 17.2458C87.6705 17.5738 87.1508 18.0287 86.7464 18.5787L87.1757 16.9429H83.9195L80.9214 28.0984H84.2251L85.7769 22.2743C85.9587 21.4972 86.3843 20.7986 86.9915 20.2804C87.6157 19.7927 88.3915 19.54 89.1834 19.5665C89.7136 19.5643 90.2364 19.6918 90.706 19.9379Z"
                    fill="#0C2651" />
                <path
                    d="M102.22 17.4062C101.546 16.8911 100.712 16.6291 99.8644 16.666C99.0403 16.6669 98.2276 16.8637 97.4937 17.2402C96.7587 17.6017 96.1253 18.1402 95.6492 18.8075L95.6625 18.7311L96.2182 16.9425H92.9782L92.1508 20.043C92.1508 20.0772 92.1324 20.1141 92.1246 20.1483L88.7261 32.9239H92.0455L93.7605 26.486C93.9245 27.0541 94.3023 27.5365 94.8144 27.832C95.4084 28.1734 96.0874 28.3415 96.772 28.3167C97.7345 28.3195 98.6819 28.0803 99.5278 27.6213C100.428 27.1253 101.205 26.4329 101.801 25.5957C102.457 24.6799 102.937 23.6499 103.216 22.5586C103.517 21.5645 103.585 20.5146 103.416 19.4897C103.277 18.6753 102.853 17.9367 102.22 17.4062ZM99.8729 22.5059C99.67 23.3998 99.2243 24.2203 98.5842 24.8766C98.0181 25.4182 97.2604 25.7137 96.4771 25.6985C95.6597 25.6985 95.1068 25.4166 94.8144 24.8608C94.522 24.305 94.5061 23.5042 94.7933 22.4479C94.9985 21.5326 95.4548 20.6926 96.1111 20.0219C96.3889 19.7498 96.7189 19.5353 97.0802 19.3906C97.4425 19.246 97.8284 19.1741 98.2182 19.179C99.009 19.179 99.559 19.474 99.8464 20.0562C100.134 20.6383 100.152 21.4628 99.8729 22.5059Z"
                    fill="#0C2651" />
                <path
                    d="M131.708 16.5713H128.284L127.756 17.6723C127.715 17.7276 127.675 17.7829 127.627 17.8515L127.571 17.941L123.356 23.8361L122.482 16.9426H119.025L120.783 27.5161L116.896 32.924H120.224L121.186 31.5516C121.215 31.5094 121.243 31.4752 121.27 31.4305L122.395 29.8263L122.432 29.7841L127.456 22.6165L131.708 16.5713Z"
                    fill="#0C2651" />
                <path
                    d="M20.4909 14.2637L19.4897 17.9093L25.1381 14.2452L21.4498 28.0982H25.1935L30.6443 7.63623L20.4909 14.2637Z"
                    fill="#3395FF" />
                <path d="M14.4025 22.2716L12.8481 28.0983H20.5278L23.6708 16.2446L14.4025 22.2716Z"
                    fill="#0C2651" />
            </g>
        </g>
    </g>
    <defs>
        <clipPath id="clip0_114_917">
            <rect width="144.14" height="40" fill="white" transform="translate(0.279785 0.280273)" />
        </clipPath>
        <clipPath id="clip1_114_917">
            <rect width="144.14" height="40" fill="white" transform="translate(0.279785 0.280273)" />
        </clipPath>
    </defs>
</svg>