<svg width="49" height="33" viewBox="0 0 49 33" fill="none" xmlns="http://www.w3.org/2000/svg">
    <mask id="mask0_114_1054" style="mask-type:luminance" maskUnits="userSpaceOnUse" x="0" y="0"
        width="49" height="33">
        <path d="M48.6161 0.475586H0.924316V32.0852H48.6161V0.475586Z" fill="white" />
    </mask>
    <g mask="url(#mask0_114_1054)">
        <path fill-rule="evenodd" clip-rule="evenodd"
            d="M46.0049 4.68986C44.8148 2.50793 43.2846 1.26112 41.641 1.0911C26.2259 -0.354073 6.5603 3.07467 2.53652 6.78677C0.779624 8.40195 0.467919 12.1991 1.57306 18.4048C2.33814 22.7403 3.52834 26.6225 3.55659 26.7924L3.81169 27.6425L8.71387 27.1041C9.11053 29.7678 11.4059 31.808 14.1828 31.808C17.2149 31.808 19.7085 29.3427 19.7085 26.2824C19.7085 26.1406 19.7085 26.0273 19.6802 25.8857L31.2981 24.5538C31.2981 24.5821 31.2981 24.6388 31.2981 24.6672C31.2981 27.6992 33.7635 30.1928 36.8238 30.1928C39.8559 30.1928 42.3495 27.7275 42.3495 24.6672C42.3495 24.2138 42.2928 23.7604 42.1795 23.3353L47.1384 22.7686L47.3935 22.2303C49.3774 18.1498 48.6965 9.62041 46.0049 4.68986ZM14.1828 29.6261C12.341 29.6261 10.8392 28.1243 10.8392 26.2824C10.8392 24.4405 12.341 22.9387 14.1828 22.9387C16.0247 22.9387 17.5266 24.4405 17.5266 26.2824C17.5266 28.1243 16.0247 29.6261 14.1828 29.6261ZM36.7956 28.0392C34.9536 28.0392 33.4518 26.5374 33.4518 24.6956C33.4518 22.8536 34.9536 21.3518 36.7956 21.3518C38.6373 21.3518 40.1392 22.8536 40.1392 24.6956C40.1392 26.5374 38.6373 28.0392 36.7956 28.0392ZM45.6366 20.7567L41.131 21.2668C40.791 20.8134 40.366 20.445 39.9125 20.1333C39.0341 19.5099 37.9573 19.1699 36.7956 19.1699C35.0953 19.1699 33.5368 19.9633 32.545 21.1818C32.2333 21.5218 31.9499 21.9185 31.6665 22.3436L19.0851 23.7604C18.9717 23.5337 18.83 23.3071 18.6884 23.1087C18.6601 23.0803 18.6601 23.052 18.6317 23.0236C17.6116 21.6635 15.9963 20.7567 14.1828 20.7567C12.766 20.7567 11.4909 21.2952 10.5274 22.1452C9.70568 22.8252 9.08228 23.7604 8.71387 24.8938L5.3702 25.2622C3.58495 19.0565 2.05479 10.1872 4.00997 8.37359C6.70198 5.87999 20.502 2.90464 33.9902 2.90464C36.5121 2.90464 39.0057 3.018 41.4144 3.24469C42.3212 3.35803 43.2846 4.23646 44.1063 5.73831C46.3167 9.79043 47.025 17.1014 45.6366 20.7567ZM8.96896 12.5674C8.85564 12.4824 8.68561 12.3975 8.45887 12.3124C8.23213 12.2274 7.97714 12.1991 7.69379 12.1991C7.35374 12.1991 7.07039 12.2557 6.8153 12.3408C6.58866 12.4541 6.39027 12.5674 6.22024 12.7374V17.2146H4.35003V10.5839L6.22024 10.4705V11.1223L6.8153 10.7539C7.01368 10.6406 7.21206 10.5555 7.46705 10.4705C7.72205 10.3855 7.92043 10.3571 8.14717 10.3571C8.37381 10.3571 8.54384 10.3571 8.65725 10.3855C8.79893 10.4138 8.88389 10.4422 8.96896 10.4705V12.5674ZM14.2963 13.3041C14.2112 12.7941 14.0128 12.4257 13.7295 12.1707C13.4461 11.9156 13.1061 11.8023 12.681 11.8023C12.1993 11.8023 11.8309 11.944 11.5759 12.2274C11.3209 12.5108 11.1791 12.8792 11.1225 13.3325H14.2963V13.3041ZM16.0531 14.1826H11.1509C11.2642 14.721 11.4626 15.1177 11.7743 15.3445C12.0859 15.5711 12.4827 15.7128 12.936 15.7128C13.3044 15.7128 13.7011 15.6562 14.1546 15.5429C14.608 15.4294 14.9479 15.2878 15.203 15.1177V16.7896C14.9479 16.9596 14.608 17.1014 14.0979 17.1863C13.6161 17.2713 13.2195 17.328 12.936 17.328C11.7743 17.328 10.8392 17.0163 10.1874 16.3645C9.53566 15.7128 9.1956 14.8627 9.1956 13.786C9.1956 12.7092 9.53565 11.8307 10.2158 11.1789C10.8958 10.5272 11.7176 10.1871 12.7377 10.1871C13.7578 10.1871 14.5513 10.5555 15.1463 11.264C15.7414 11.9724 16.0531 12.9642 16.0531 14.1826ZM21.4087 15.1744V12.2557C21.2954 12.114 21.1254 12.0007 20.8986 11.9156C20.672 11.8307 20.4169 11.774 20.1335 11.774C19.6235 11.774 19.2268 11.9156 19.0001 12.2274C18.7451 12.5391 18.6317 13.0208 18.6317 13.6725C18.6317 14.3527 18.7734 14.8344 19.0284 15.1744C19.2834 15.5145 19.6518 15.6562 20.1053 15.6562C20.3885 15.6562 20.6436 15.5995 20.8703 15.5145C21.097 15.4294 21.267 15.3161 21.4087 15.1744ZM23.2506 17.2146H21.8337L21.4371 16.5913L20.4453 17.1296C20.3602 17.1863 20.2469 17.2146 20.0769 17.2429C19.9069 17.2713 19.7935 17.2713 19.6802 17.2713C18.7167 17.2713 17.98 16.9596 17.4699 16.2796C16.9599 15.6278 16.7048 14.806 16.7048 13.8142C16.7048 12.7374 17.0165 11.8874 17.6116 11.264C18.235 10.6406 19.0284 10.3288 20.0202 10.3288C20.3036 10.3288 20.5586 10.3571 20.7853 10.3855C21.012 10.4422 21.2103 10.4988 21.4087 10.6406V7.72184H23.2506V17.2146ZM29.598 14.211C29.598 13.7292 29.4564 13.3608 29.2013 13.1342C28.9463 12.9075 28.5779 12.7941 28.1529 12.7941H26.8493V15.6278H28.3229C28.7479 15.6278 29.088 15.5145 29.2863 15.2594C29.4846 15.0328 29.598 14.6644 29.598 14.211ZM29.258 10.6122C29.258 10.2438 29.1446 9.93211 28.9179 9.70547C28.6912 9.47873 28.3796 9.36541 27.9828 9.36541H26.8493V11.9156H28.0961C28.4646 11.9156 28.7479 11.8023 28.9463 11.5757C29.1729 11.3207 29.258 11.0089 29.258 10.6122ZM31.6949 14.466C31.6949 15.2878 31.4398 15.9678 30.9015 16.4495C30.363 16.9596 29.683 17.1863 28.8612 17.1863H24.8091V7.75019H28.7763C29.513 7.75019 30.1364 7.94857 30.5898 8.37359C31.0715 8.79862 31.2981 9.36541 31.2981 10.1021C31.2981 10.6972 31.1566 11.1507 30.8731 11.519C30.5898 11.8874 30.1647 12.0857 29.598 12.1707C30.1647 12.2557 30.6465 12.5108 31.0715 12.9075C31.4965 13.3041 31.6949 13.8142 31.6949 14.466ZM39.0625 17.2146H37.1922V16.4779L36.3988 16.9313C36.1721 17.0447 35.9454 17.158 35.7187 17.2146C35.492 17.2713 35.2087 17.328 34.9536 17.328C34.3018 17.328 33.7919 17.1296 33.3951 16.733C33.0267 16.3362 32.8284 15.7978 32.8284 15.1177V10.6122H34.6986V14.6927C34.6986 14.9477 34.7836 15.1461 34.9536 15.3445C35.1236 15.5429 35.4071 15.6278 35.747 15.6278C36.0871 15.6278 36.3704 15.5711 36.5972 15.4294C36.8522 15.2878 37.0222 15.1744 37.1355 15.0328V10.5839H39.0057V17.2146H39.0625ZM45.5798 14.9477C45.5798 15.6562 45.3249 16.2512 44.8148 16.7046C44.3047 17.1296 43.653 17.3563 42.8878 17.3563C42.5195 17.3563 42.0945 17.328 41.6127 17.2429C41.1027 17.158 40.6777 17.0163 40.2809 16.8179V15.1461C40.5926 15.3161 40.9327 15.4578 41.3293 15.5995C41.7261 15.7128 42.1511 15.7978 42.6895 15.7978C43.0579 15.7978 43.3413 15.7411 43.568 15.6562C43.7947 15.5429 43.908 15.3728 43.908 15.0894C43.908 14.9194 43.823 14.7493 43.6247 14.636C43.4263 14.5227 43.1146 14.4376 42.6329 14.4093C41.7827 14.3527 41.216 14.126 40.876 13.786C40.536 13.4459 40.366 12.9924 40.366 12.4257C40.366 11.774 40.621 11.264 41.131 10.8389C41.641 10.4138 42.2928 10.2155 43.0295 10.2155C43.3696 10.2155 43.7096 10.2438 44.078 10.3005C44.4464 10.3571 44.7581 10.4138 45.0415 10.5272V12.2274C44.7015 12.0857 44.3898 11.9724 44.078 11.9156C43.7663 11.859 43.3979 11.8023 43.0295 11.8023C42.7178 11.8023 42.4912 11.859 42.3212 11.944C42.1511 12.0574 42.0662 12.1707 42.0662 12.2841C42.0662 12.5391 42.1795 12.7092 42.4346 12.7658C42.6612 12.8508 42.9162 12.9075 43.1996 12.9075C43.993 12.9642 44.6164 13.1625 45.0132 13.5025C45.3815 13.8709 45.5798 14.3527 45.5798 14.9477Z"
            fill="#D84E55" />
    </g>
</svg>