<svg width="145" height="39" viewBox="0 0 145 39" fill="none" xmlns="http://www.w3.org/2000/svg">
    <path d="M63.5134 14.2361L51.8496 10.2661V16.8117L55.7539 18.3045L63.5134 14.2361Z"
        fill="#C5DEF4" />
    <path
        d="M45.7975 14.5148L41.6636 12.9399V29.197L39.6294 30.3454V36.3496L47.8317 31.543V25.1943L45.7975 24.4233V14.5148Z"
        fill="#00A2E4" />
    <path d="M45.7966 14.5149V9.72461L41.6626 11.3651V12.9399L45.7966 14.5149Z" fill="#98C8EC" />
    <path d="M51.8536 10.2659V7.32943L45.8003 5.44287V9.72453L47.8345 8.90429L51.8536 10.2659Z"
        fill="#F29300" />
    <path d="M47.834 25.1941L51.8531 26.7198V16.8113L47.834 15.2856V25.1941Z" fill="#F29300" />
    <path d="M47.834 8.9043V15.2858L51.8531 16.8114V10.2823L47.834 8.9043Z" fill="#7FBEE9" />
    <path d="M45.8003 14.5146V24.4231L47.8345 25.1942V15.2857L45.8003 14.5146Z" fill="#004A98" />
    <path d="M47.8324 15.2858V8.9043L45.7817 9.72453V14.5147L47.8324 15.2858Z" fill="#6D85BD" />
    <path d="M60.7102 3.81861L55.0997 2.21094L45.7817 5.44269L51.8515 7.32924L60.7102 3.81861Z"
        fill="#FBCE89" />
    <path d="M41.6671 6.87005L32.9562 3.93359L23.5562 6.017L33.3171 9.7737L41.6671 6.87005Z"
        fill="#B4D898" />
    <path
        d="M41.6635 11.365V6.87012L33.3135 9.77377V33.8725L39.6294 30.3454V12.1689L41.6635 11.365Z"
        fill="#22AC38" />
    <path d="M41.6636 12.9399L39.6294 12.1689V30.3455L41.6636 29.1971V12.9399Z" fill="#004593" />
    <path d="M41.6636 12.9402V11.3652L39.6294 12.1691L41.6636 12.9402Z" fill="#5275B4" />
    <path
        d="M70.0432 21.3882H70.7814C71.6837 21.3882 72.8648 21.3882 72.8648 20.2728C72.8648 19.3049 71.9953 19.1572 71.1916 19.1572H70.0432V21.3882ZM69.2394 18.4026H71.0111C72.3399 18.4026 73.7671 18.5994 73.7671 20.2564C73.7671 21.2406 73.1109 21.8804 72.0446 22.0445L73.9968 25.1614H72.9961L71.126 22.1265H70.076V25.1614H69.2558V18.4026H69.2394ZM78.4917 18.4026H82.8389V19.1408H79.312V21.257H82.5929V21.9952H79.312V24.4067H83.003V25.145H78.4917V18.4026ZM93.4365 24.702C92.6491 25.1286 91.7468 25.3254 90.8609 25.3254C88.7119 25.3254 87.1699 23.8982 87.1699 21.782C87.1699 19.6494 88.8103 18.2385 90.8773 18.2385C91.7796 18.2385 92.6655 18.4846 93.3216 19.1244L92.7147 19.7478C92.239 19.2556 91.5335 18.9767 90.8281 18.9767C89.2533 18.9767 88.0557 20.1415 88.0557 21.782C88.0557 23.3896 89.2205 24.5872 90.9101 24.5872C91.4679 24.5872 92.1241 24.4396 92.6327 24.1935V22.1265H91.0414V21.3882H93.4365V24.702ZM98.4404 18.4026H99.2607V25.1614H98.4404V18.4026ZM110.218 21.782C110.218 20.2236 109.103 18.9767 107.496 18.9767C105.871 18.9767 104.772 20.2236 104.772 21.782C104.772 23.3404 105.887 24.5872 107.496 24.5872C109.103 24.5872 110.218 23.3404 110.218 21.782ZM103.87 21.782C103.87 19.7478 105.379 18.2385 107.479 18.2385C109.579 18.2385 111.088 19.7478 111.088 21.782C111.088 23.8162 109.579 25.3254 107.479 25.3254C105.395 25.3254 103.87 23.8162 103.87 21.782ZM120.751 18.4026H121.571V25.1614H120.537L116.535 19.5509H116.518V25.1614H115.697V18.4026H116.731L120.734 24.013H120.751V18.4026ZM73.8656 9.90494H71.6673V15.8106H70.8799V9.90494H68.6816V9.16668H73.8492V9.90494M81.6086 12.4969C81.6086 10.9712 80.5423 9.74085 78.9839 9.74085C77.4253 9.74085 76.3591 10.9712 76.3591 12.4969C76.3591 14.0225 77.4253 15.2529 78.9839 15.2529C80.5423 15.2529 81.6086 14.0225 81.6086 12.4969ZM75.506 12.4969C75.506 10.4954 76.9497 9.01904 78.9675 9.01904C80.9852 9.01904 82.4288 10.4954 82.4288 12.4969C82.4288 14.4983 80.9688 15.9911 78.9675 15.9911C76.9661 15.9747 75.506 14.4983 75.506 12.4969ZM85.595 12.1032H86.3004C87.1699 12.1032 88.3018 12.1032 88.3018 11.004C88.3018 10.0526 87.4652 9.90494 86.6941 9.90494H85.595V12.1032ZM84.8076 9.16668H86.4973C87.7768 9.16668 89.1384 9.34714 89.1384 10.9876C89.1384 11.9555 88.515 12.5789 87.4816 12.743L89.3681 15.7942H88.4002L86.5957 12.8086H85.5785V15.7942H84.7912V9.16668H84.8076ZM97.3404 12.4969C97.3404 10.9712 96.2745 9.74085 94.7161 9.74085C93.1576 9.74085 92.0913 10.9712 92.0913 12.4969C92.0913 14.0225 93.1576 15.2529 94.7161 15.2529C96.2745 15.2529 97.3404 14.0225 97.3404 12.4969ZM91.2546 12.4969C91.2546 10.4954 92.6983 9.01904 94.7161 9.01904C96.7335 9.01904 98.1777 10.4954 98.1777 12.4969C98.1777 14.4983 96.7173 15.9911 94.7161 15.9911C92.7147 15.9747 91.2546 14.4983 91.2546 12.4969ZM100.556 9.16668H101.556L105.395 14.6787H105.412V9.16668H106.199V15.7942H105.199L101.36 10.2823H101.344V15.7942H100.556V9.16668ZM113.402 9.90494H111.202V15.8106H110.415V9.90494H108.217V9.16668H113.384V9.90494M121.144 12.4969C121.144 10.9712 120.078 9.74085 118.519 9.74085C116.961 9.74085 115.895 10.9712 115.895 12.4969C115.895 14.0225 116.961 15.2529 118.519 15.2529C120.078 15.2529 121.144 14.0225 121.144 12.4969ZM115.058 12.4969C115.058 10.4954 116.502 9.01904 118.519 9.01904C120.537 9.01904 121.981 10.4954 121.981 12.4969C121.981 14.4983 120.537 15.9911 118.519 15.9911C116.502 15.9747 115.058 14.4983 115.058 12.4969ZM93.1083 29.6891C93.1083 30.4602 93.7318 31.1 94.5028 31.1C95.2739 31.1 95.8971 30.4602 95.8971 29.6891C95.8971 28.918 95.2903 28.2783 94.5028 28.2783C93.7318 28.2783 93.1083 28.9016 93.1083 29.6891ZM96.5694 29.6891C96.5694 30.8375 95.6344 31.7397 94.5028 31.7397C93.3708 31.7397 92.4358 30.8375 92.4358 29.6891C92.4358 28.5572 93.3708 27.6385 94.5028 27.6385C95.6344 27.6385 96.5694 28.5572 96.5694 29.6891ZM73.6195 29.6891C73.6195 30.4602 74.2429 31.1 75.0138 31.1C75.7849 31.1 76.4083 30.4602 76.4083 29.6891C76.4083 28.918 75.8013 28.2783 75.0138 28.2783C74.2429 28.2783 73.6195 28.9016 73.6195 29.6891ZM77.0809 29.6891C77.0809 30.8375 76.1458 31.7397 75.0138 31.7397C73.882 31.7397 72.9469 30.8375 72.9469 29.6891C72.9469 28.5572 73.882 27.6385 75.0138 27.6385C76.1458 27.6385 77.0809 28.5572 77.0809 29.6891ZM69.912 31.0343H70.5518C70.9127 31.0343 71.4048 30.9687 71.4048 30.4601C71.4048 30.05 71.1424 29.9024 70.5846 29.9024H69.912V31.0343ZM69.912 29.3118H70.5518C71.0111 29.3118 71.2408 29.1149 71.2408 28.8196C71.2408 28.4752 71.0111 28.3111 70.4861 28.3111H69.912V29.3118ZM69.223 27.7369H70.7486C71.3392 27.7369 71.9462 27.9994 71.9462 28.7212C71.9462 29.1641 71.6673 29.4594 71.2736 29.5743V29.5907C71.7658 29.6399 72.1266 30.0336 72.1266 30.5258C72.1266 31.3788 71.3884 31.6412 70.6502 31.6412H69.2394V27.7369H69.223ZM80.2634 30.1485L79.6565 28.5572L79.0495 30.1485H80.2634ZM79.3776 27.7369H79.9845L81.6578 31.6412H80.854L80.4931 30.7554H78.8034L78.4425 31.6412H77.6714L79.3776 27.7369ZM83.692 29.3774C84.0858 29.3774 84.5451 29.3446 84.5451 28.836C84.5451 28.3768 84.1186 28.3111 83.7576 28.3111H83.1506V29.3774H83.692ZM82.4452 27.7369H83.8069C84.5615 27.7369 85.2668 27.983 85.2668 28.8524C85.2668 29.4102 84.9388 29.8367 84.3646 29.9188L85.3981 31.6412H84.5615L83.6592 29.9844H83.1506V31.6412H82.4452V27.7369ZM87.498 31.0015C88.3674 31.0015 89.0892 30.6242 89.0892 29.6727C89.0892 28.7212 88.4658 28.344 87.6128 28.344H86.973V31.0015H87.498ZM86.284 27.7369H87.826C88.8595 27.7369 89.811 28.3604 89.811 29.6891C89.811 31.0179 88.6791 31.6412 87.744 31.6412H86.284V27.7369ZM97.603 27.7369H100.129V28.3604H98.3086V29.3938H100.032V30.0172H98.3086V31.6412H97.6201V27.7369M103.738 28.3604H102.541V27.7369H105.626V28.3604H104.428V31.6412H103.738V28.3604ZM107.692 29.3774C108.086 29.3774 108.545 29.3446 108.545 28.836C108.545 28.3768 108.119 28.3111 107.758 28.3111H107.151V29.3774H107.692ZM106.462 27.7369H107.824C108.579 27.7369 109.283 27.983 109.283 28.8524C109.283 29.4102 108.955 29.8367 108.381 29.9188L109.415 31.6412H108.579L107.676 29.9844H107.167V31.6412H106.462V27.7369ZM112.449 30.1485L111.843 28.5572L111.236 30.1485H112.449ZM111.564 27.7369H112.171L113.861 31.6412H113.073L112.712 30.7554H110.99L110.629 31.6412H109.858L111.564 27.7369ZM115.845 31.0015C116.715 31.0015 117.437 30.6242 117.437 29.6727C117.437 28.7212 116.813 28.344 115.96 28.344H115.337V31.0015H115.845ZM114.631 27.7369H116.173C117.207 27.7369 118.158 28.3604 118.158 29.6891C118.158 31.0179 117.027 31.6412 116.092 31.6412H114.631V27.7369ZM119.176 27.7369H121.767V28.3604H119.881V29.3282H121.669V29.9516H119.881V31.0179H121.866V31.6412H119.176V27.7369Z"
        fill="#004593" />
</svg>