<svg width="145" height="39" viewBox="0 0 145 39" fill="none" xmlns="http://www.w3.org/2000/svg">
    <path
        d="M63.9261 24.6348V15.6914C63.9261 15.3712 63.606 15.1504 63.3521 15.1174C62.0712 14.9627 60.8125 14.9407 59.598 15.1174C59.3109 15.1504 59.0239 15.3712 59.0239 15.6914V23.8288C59.0239 25.209 58.2509 26.4897 57.0144 27.0749C56.4734 27.3289 55.8882 27.4503 55.2919 27.4282C54.7509 27.4061 52.1783 27.4613 51.6152 24.6348C51.5489 24.3146 51.5268 23.9834 51.5268 23.6521V15.6914C51.5268 15.3712 51.2397 15.1614 50.9527 15.1174C49.716 14.9075 48.4463 14.9075 47.1986 15.1174C46.8343 15.1946 46.6245 15.3712 46.6245 15.6914V23.6852C46.6245 26.8209 47.8611 29.9788 50.9748 31.2595C51.9906 31.679 53.0947 31.8447 54.1878 31.8668C54.1878 31.8668 57.4339 32.0435 60.1943 29.6364C60.3046 29.537 60.4813 29.5481 60.5807 29.6585C61.2432 30.3762 63.7937 32.6397 67.1833 31.679C67.2827 31.6459 67.371 31.6018 67.4373 31.5245C67.614 31.3368 67.6361 31.0608 67.5036 30.851C66.9515 30.067 66.5099 29.1285 66.3773 28.1459C66.3663 28.0465 66.3332 27.9582 66.278 27.8699C66.1896 27.7595 66.0681 27.6822 65.9357 27.6601C65.2843 27.5165 64.0145 26.9976 63.9261 24.6348Z"
        fill="#43B281" />
    <path
        d="M72.7723 24.657V7.45492C72.7613 7.26723 72.684 7.10161 72.5404 6.96911C72.408 6.8587 72.2423 6.79246 72.0656 6.77037C70.9394 6.58267 69.7802 6.59371 68.6539 6.79246C68.3337 6.8587 68.0798 7.0464 68.0798 7.36659V24.657C68.0798 24.657 67.9141 33.49 77.222 31.6792C77.3655 31.6461 77.4869 31.5688 77.5753 31.4474C77.6968 31.2597 77.7078 31.0278 77.5974 30.8291C77.1889 30.1003 76.7141 29.9458 76.2172 28.113C76.1952 28.0357 76.162 27.9694 76.1179 27.9142C75.9964 27.7818 75.8307 27.7155 75.6541 27.7265C74.6935 27.7928 72.8938 27.5719 72.7723 24.657Z"
        fill="#43B281" />
    <path
        d="M97.0713 28.3005C97.0599 27.9914 96.8058 27.7484 96.508 27.7595H96.4966C95.8565 27.7815 94.5759 27.3841 94.5759 24.5024V15.3382C94.5759 15.1063 94.4103 14.9407 94.2115 14.8414C94.1122 14.7972 94.0018 14.7641 93.8913 14.753C92.6768 14.6094 91.5065 14.5984 90.3913 14.7641C90.1373 14.8193 89.8171 15.0179 89.8171 15.3382L89.7619 16.2546C89.1546 15.6473 86.3722 13.5495 82.044 15.7688C77.0313 18.3303 76.148 25.9709 80.0345 29.9346C80.1891 30.0892 80.3438 30.2327 80.5203 30.3653C81.9006 31.4252 83.3801 31.8227 85.0915 31.8889C86.2287 31.9331 86.9243 31.7895 88.0174 31.381C89.0442 31.0056 89.8834 30.3101 90.6783 29.5813C90.7888 29.4709 90.9765 29.4819 91.0758 29.5923C91.0758 29.5923 91.0758 29.6034 91.0868 29.6034C91.7272 30.3542 93.9797 32.6286 97.3804 31.657C97.6564 31.5797 97.8328 31.3037 97.7892 31.0166C97.7778 30.9724 97.7664 30.9173 97.7446 30.8732C97.3359 30.0781 97.1159 29.1949 97.0713 28.3005ZM89.7951 26.2358C89.7951 26.4898 89.6736 26.7437 89.4748 26.8983C89.0221 27.2626 87.9732 27.8478 86.7918 27.8699C84.8817 27.903 82.1103 26.9093 82.0661 23.4756C81.9999 19.2467 86.571 17.6238 89.4417 19.6664C89.6736 19.8319 89.8061 20.0859 89.8061 20.3729L89.7951 26.2358Z"
        fill="#43B281" />
</svg>