<svg width="95" height="26" viewBox="0 0 95 26" fill="none" xmlns="http://www.w3.org/2000/svg">
    <mask id="mask0_114_951" style="mask-type:luminance" maskUnits="userSpaceOnUse" x="0" y="0"
        width="95" height="26">
        <path d="M94.3069 0.63623H0.953125V25.924H94.3069V0.63623Z" fill="white" />
    </mask>
    <g mask="url(#mask0_114_951)">
        <path
            d="M8.9986 21.8847C8.64735 20.234 7.90977 17.951 5.34588 10.8213H1.06104L6.96148 25.5725H11.0005L16.5849 10.8213H12.3702C9.94689 17.8106 9.27958 20.0232 8.9986 21.8847Z"
            fill="#03282C" />
        <path
            d="M24.2109 10.5054C19.7855 10.5054 16.6597 13.8068 16.6597 18.2322C16.6597 22.798 19.8909 25.8536 24.4567 25.8536C27.3367 25.8536 29.7953 24.3434 30.9543 22.201L28.0041 20.5854C27.4069 21.7444 26.2128 22.5522 24.4919 22.5522C22.4548 22.5522 20.8392 21.2527 20.6635 19.4615H31.762C31.9377 13.5259 28.6714 10.5054 24.2109 10.5054ZM20.5934 16.6517C20.7338 14.9308 22.209 13.7015 24.2109 13.7015C26.2128 13.7015 27.6177 14.9308 27.7231 16.6517H20.5934Z"
            fill="#03282C" />
        <path d="M47.7027 10.8213H43.7339V25.5725H47.7027V10.8213Z" fill="#03282C" />
        <path
            d="M67.0179 7.55526C67.615 7.55526 68.212 7.66062 68.774 7.80115V4.56995C67.9662 4.32406 67.1233 4.18362 66.2453 4.18362C63.6111 4.18362 60.9769 5.58841 60.9769 9.76791V10.8216H55.1819V10.3299C54.9711 8.22257 55.8141 7.52018 57.2189 7.52018C57.816 7.52018 58.4131 7.62553 58.975 7.76597V4.53477C58.1672 4.28897 57.3243 4.14844 56.4462 4.14844C53.812 4.14844 51.178 5.55333 51.178 9.73282V10.7865H49.457V13.9123H51.178V25.5728H55.1468V13.9475H60.9419V25.5728H64.9808V13.9475H68.774V10.8216H64.9808V10.3299C64.735 8.22257 65.5779 7.55526 67.0179 7.55526Z"
            fill="#03282C" />
        <path
            d="M37.6979 15.3523V14.7903L37.2413 10.8216H33.7993V25.5727H37.6979V19.602C37.6979 16.4762 39.8403 14.5445 42.1935 14.5445V10.646C39.4189 10.927 37.6979 12.5426 37.6979 15.3523Z"
            fill="#03282C" />
        <path d="M47.7397 5.4834H43.7007V8.7146H47.7397V5.4834Z" fill="#03282C" />
        <path
            d="M86.3403 10.6811V20.6557H86.3754C87.043 15.6332 89.9931 12.3318 94.4188 10.7864V0.63623C89.3255 1.51428 86.3403 4.78063 86.3403 10.6811Z"
            fill="#14E5C5" />
        <path d="M76.8574 19.2159L84.9359 25.9242V12.613L76.8574 5.90479V19.2159Z" fill="#14E5C5" />
    </g>
</svg>