<svg width="68" height="30" viewBox="0 0 68 30" fill="none" xmlns="http://www.w3.org/2000/svg">
    <mask id="mask0_114_988" style="mask-type:luminance" maskUnits="userSpaceOnUse" x="0" y="0"
        width="68" height="30">
        <path d="M67.1397 0.95752H0.000488281V29.6036H67.1397V0.95752Z" fill="white" />
    </mask>
    <g mask="url(#mask0_114_988)">
        <path
            d="M59.2436 15.217C63.1815 15.217 66.3736 12.0249 66.3736 8.08723C66.3736 4.14961 63.1815 0.95752 59.2436 0.95752C55.3058 0.95752 52.1138 4.14961 52.1138 8.08723C52.1138 12.0249 55.3058 15.217 59.2436 15.217Z"
            fill="#57E1FF" />
        <path
            d="M59.2432 14.1199C62.5747 14.1199 65.2761 11.4189 65.2761 8.08702C65.2761 4.7552 62.5747 2.0542 59.2432 2.0542C55.911 2.0542 53.21 4.7552 53.21 8.08702C53.21 11.4189 55.911 14.1199 59.2432 14.1199Z"
            fill="#D3FF57" />
        <path
            d="M59.2425 12.6573C61.7671 12.6573 63.8134 10.6111 63.8134 8.08691C63.8134 5.56281 61.7671 3.5166 59.2425 3.5166C56.7187 3.5166 54.6724 5.56281 54.6724 8.08691C54.6724 10.6111 56.7187 12.6573 59.2425 12.6573Z"
            fill="#FF5757" />
        <path
            d="M42.2402 29.4469V12.8972H46.5577V20.0927L46.4977 17.899C46.4977 15.5803 47.3348 14.8753 47.9075 14.3027C49.0044 13.2057 50.3153 12.6572 52.1342 12.6572H52.7937V17.3344H51.5345C50.3153 17.3344 49.3658 17.6643 48.6864 18.3238C48.0266 18.9834 47.6969 19.9328 47.6969 21.172V29.4469H42.2402Z"
            fill="#2D2828" />
        <path
            d="M30.2315 29.6007C28.3527 29.6007 26.8936 28.9911 25.8542 27.7718C24.8349 26.5326 24.3252 25.0094 24.3252 22.4711V12.877H29.7818V22.6209C29.7818 23.3605 30.0017 23.9601 30.4414 24.4198C30.8811 24.8796 31.4708 25.1094 32.2103 25.1094C32.9499 25.1094 33.5495 24.8796 34.0092 24.4198C34.4689 23.9601 34.6987 23.3405 34.6987 22.5609V12.877H40.1554V29.4266H35.838V27.8173C35.1898 28.4743 34.7896 28.6927 33.8315 29.1473C32.7346 29.6679 31.7106 29.6007 30.4714 29.6007H30.2315Z"
            fill="#2D2828" />
        <path
            d="M57.0694 29.476V12.9263H62.5265V29.476H57.0694ZM54.9707 16.8839V12.9263H62.5265V16.8839H54.9707Z"
            fill="#2D2828" />
        <path
            d="M59.2423 11.1952C60.9582 11.1952 62.3504 9.80376 62.3504 8.08729C62.3504 6.37092 60.9582 4.97949 59.2423 4.97949C57.5254 4.97949 56.1343 6.37092 56.1343 8.08729C56.1343 9.80376 57.5254 11.1952 59.2423 11.1952Z"
            fill="#2D2828" />
        <path
            d="M-0.00146484 29.476V26.0881L7.34405 17.2436V17.7233L6.5645 16.7639L7.16415 17.0637H0.0585022V12.9263H13.4903V16.3141L6.14474 25.1587V24.679L6.92429 25.6383L6.32463 25.3386H13.6701V29.476H-0.00146484Z"
            fill="#2D2828" />
        <path
            d="M16.4825 29.4763V7.58984H21.9391V29.4763H16.4825ZM14.6235 11.5474V7.58984H21.9391V11.5474H14.6235Z"
            fill="#2D2828" />
    </g>
</svg>